ISO-10303-21;
HEADER;
FILE_DESCRIPTION(('FreeCAD Model'),'2;1');
FILE_NAME('Open CASCADE Shape Model','2025-08-29T16:10:05',(''),(''),
  'Open CASCADE STEP processor 7.8','FreeCAD','Unknown');
FILE_SCHEMA(('AUTOMOTIVE_DESIGN { 1 0 10303 214 1 1 1 1 }'));
ENDSEC;
DATA;
#1 = APPLICATION_PROTOCOL_DEFINITION('international standard',
  'automotive_design',2000,#2);
#2 = APPLICATION_CONTEXT(
  'core data for automotive mechanical design processes');
#3 = SHAPE_DEFINITION_REPRESENTATION(#4,#10);
#4 = PRODUCT_DEFINITION_SHAPE('','',#5);
#5 = PRODUCT_DEFINITION('design','',#6,#9);
#6 = PRODUCT_DEFINITION_FORMATION('','',#7);
#7 = PRODUCT('Sketch045','Sketch045','',(#8));
#8 = PRODUCT_CONTEXT('',#2,'mechanical');
#9 = PRODUCT_DEFINITION_CONTEXT('part definition',#2,'design');
#10 = SHAPE_REPRESENTATION('',(#11,#15,#207),#268);
#11 = AXIS2_PLACEMENT_3D('',#12,#13,#14);
#12 = CARTESIAN_POINT('',(0.,0.,0.));
#13 = DIRECTION('',(0.,0.,1.));
#14 = DIRECTION('',(1.,0.,-0.));
#15 = GEOMETRIC_CURVE_SET('',(#16,#23,#31,#38,#46,#53,#61,#68,#75,#82,
    #90,#97,#105,#112,#119,#126,#134,#141,#148,#156,#163,#170,#177,#185,
    #192,#200));
#16 = TRIMMED_CURVE('',#17,(#21,PARAMETER_VALUE(0.)),(#22,
    PARAMETER_VALUE(0.920000434736)),.T.,.PARAMETER.);
#17 = LINE('',#18,#19);
#18 = CARTESIAN_POINT('',(-22.00000021736,16.920000217368,0.));
#19 = VECTOR('',#20,1.);
#20 = DIRECTION('',(0.,-1.,0.));
#21 = CARTESIAN_POINT('',(-22.00000021736,16.920000217368,0.));
#22 = CARTESIAN_POINT('',(-22.00000021736,15.999999782632,0.));
#23 = TRIMMED_CURVE('',#24,(#29,PARAMETER_VALUE(1.570796241217)),(#30,
    PARAMETER_VALUE(3.141592568012)),.T.,.PARAMETER.);
#24 = CIRCLE('',#25,5.08);
#25 = AXIS2_PLACEMENT_3D('',#26,#27,#28);
#26 = CARTESIAN_POINT('',(-16.92000021736,16.919999782632,0.));
#27 = DIRECTION('',(0.,0.,1.));
#28 = DIRECTION('',(1.,0.,0.));
#29 = CARTESIAN_POINT('',(-16.91999978263,21.999999782632,0.));
#30 = CARTESIAN_POINT('',(-22.00000021736,16.920000217368,0.));
#31 = TRIMMED_CURVE('',#32,(#36,PARAMETER_VALUE(0.)),(#37,
    PARAMETER_VALUE(33.839999565264)),.T.,.PARAMETER.);
#32 = LINE('',#33,#34);
#33 = CARTESIAN_POINT('',(-16.91999978263,21.999999782632,0.));
#34 = VECTOR('',#35,1.);
#35 = DIRECTION('',(1.,0.,0.));
#36 = CARTESIAN_POINT('',(-16.91999978263,21.999999782632,0.));
#37 = CARTESIAN_POINT('',(16.919999782632,21.999999782632,0.));
#38 = TRIMMED_CURVE('',#39,(#44,PARAMETER_VALUE(3.000884684435E-16)),(
    #45,PARAMETER_VALUE(1.570796326795)),.T.,.PARAMETER.);
#39 = CIRCLE('',#40,5.08);
#40 = AXIS2_PLACEMENT_3D('',#41,#42,#43);
#41 = CARTESIAN_POINT('',(16.919999782632,16.919999782632,0.));
#42 = DIRECTION('',(0.,0.,1.));
#43 = DIRECTION('',(1.,0.,0.));
#44 = CARTESIAN_POINT('',(21.999999782632,16.919999782632,0.));
#45 = CARTESIAN_POINT('',(16.919999782632,21.999999782632,0.));
#46 = TRIMMED_CURVE('',#47,(#51,PARAMETER_VALUE(0.)),(#52,
    PARAMETER_VALUE(33.839999565264)),.T.,.PARAMETER.);
#47 = LINE('',#48,#49);
#48 = CARTESIAN_POINT('',(21.999999782632,16.919999782632,0.));
#49 = VECTOR('',#50,1.);
#50 = DIRECTION('',(0.,-1.,0.));
#51 = CARTESIAN_POINT('',(21.999999782632,16.919999782632,0.));
#52 = CARTESIAN_POINT('',(21.999999782632,-16.91999978263,0.));
#53 = TRIMMED_CURVE('',#54,(#59,PARAMETER_VALUE(4.712388980385)),(#60,
    PARAMETER_VALUE(6.28318530718)),.T.,.PARAMETER.);
#54 = CIRCLE('',#55,5.08);
#55 = AXIS2_PLACEMENT_3D('',#56,#57,#58);
#56 = CARTESIAN_POINT('',(16.919999782632,-16.91999978263,0.));
#57 = DIRECTION('',(0.,0.,1.));
#58 = DIRECTION('',(1.,0.,0.));
#59 = CARTESIAN_POINT('',(16.919999782632,-21.99999978263,0.));
#60 = CARTESIAN_POINT('',(21.999999782632,-16.91999978263,0.));
#61 = TRIMMED_CURVE('',#62,(#66,PARAMETER_VALUE(0.)),(#67,
    PARAMETER_VALUE(34.499402729338)),.T.,.PARAMETER.);
#62 = LINE('',#63,#64);
#63 = CARTESIAN_POINT('',(16.919999782632,-21.99999978263,0.));
#64 = VECTOR('',#65,1.);
#65 = DIRECTION('',(-1.,0.,0.));
#66 = CARTESIAN_POINT('',(16.919999782632,-21.99999978263,0.));
#67 = CARTESIAN_POINT('',(-17.5794029467,-21.99999978263,0.));
#68 = TRIMMED_CURVE('',#69,(#73,PARAMETER_VALUE(0.)),(#74,
    PARAMETER_VALUE(1.062944764521)),.T.,.PARAMETER.);
#69 = LINE('',#70,#71);
#70 = CARTESIAN_POINT('',(-17.5794029467,-20.93705501811,0.));
#71 = VECTOR('',#72,1.);
#72 = DIRECTION('',(0.,-1.,0.));
#73 = CARTESIAN_POINT('',(-17.5794029467,-20.93705501811,0.));
#74 = CARTESIAN_POINT('',(-17.5794029467,-21.99999978263,0.));
#75 = TRIMMED_CURVE('',#76,(#80,PARAMETER_VALUE(0.)),(#81,
    PARAMETER_VALUE(4.127020231942)),.T.,.PARAMETER.);
#76 = LINE('',#77,#78);
#77 = CARTESIAN_POINT('',(-13.45238271476,-20.93705501811,0.));
#78 = VECTOR('',#79,1.);
#79 = DIRECTION('',(-1.,0.,0.));
#80 = CARTESIAN_POINT('',(-13.45238271476,-20.93705501811,0.));
#81 = CARTESIAN_POINT('',(-17.5794029467,-20.93705501811,0.));
#82 = TRIMMED_CURVE('',#83,(#88,PARAMETER_VALUE(4.712388980385)),(#89,
    PARAMETER_VALUE(6.28318530718)),.T.,.PARAMETER.);
#83 = CIRCLE('',#84,0.682083739503);
#84 = AXIS2_PLACEMENT_3D('',#85,#86,#87);
#85 = CARTESIAN_POINT('',(-13.45238271476,-20.2549712786,0.));
#86 = DIRECTION('',(0.,0.,1.));
#87 = DIRECTION('',(1.,0.,-0.));
#88 = CARTESIAN_POINT('',(-13.45238271476,-20.93705501811,0.));
#89 = CARTESIAN_POINT('',(-12.77029897526,-20.2549712786,0.));
#90 = TRIMMED_CURVE('',#91,(#95,PARAMETER_VALUE(0.)),(#96,
    PARAMETER_VALUE(5.298044413324)),.T.,.PARAMETER.);
#91 = LINE('',#92,#93);
#92 = CARTESIAN_POINT('',(-12.77029897526,-14.95692686528,0.));
#93 = VECTOR('',#94,1.);
#94 = DIRECTION('',(0.,-1.,0.));
#95 = CARTESIAN_POINT('',(-12.77029897526,-14.95692686528,0.));
#96 = CARTESIAN_POINT('',(-12.77029897526,-20.2549712786,0.));
#97 = TRIMMED_CURVE('',#98,(#103,PARAMETER_VALUE(-8.881784197001E-16)),(
    #104,PARAMETER_VALUE(1.570796326795)),.T.,.PARAMETER.);
#98 = CIRCLE('',#99,0.682083739503);
#99 = AXIS2_PLACEMENT_3D('',#100,#101,#102);
#100 = CARTESIAN_POINT('',(-13.45238271476,-14.95692686528,0.));
#101 = DIRECTION('',(0.,0.,1.));
#102 = DIRECTION('',(1.,0.,-0.));
#103 = CARTESIAN_POINT('',(-12.77029897526,-14.95692686528,0.));
#104 = CARTESIAN_POINT('',(-13.45238271476,-14.27484312578,0.));
#105 = TRIMMED_CURVE('',#106,(#110,PARAMETER_VALUE(0.)),(#111,
    PARAMETER_VALUE(8.547617502603)),.T.,.PARAMETER.);
#106 = LINE('',#107,#108);
#107 = CARTESIAN_POINT('',(-22.00000021736,-14.27484312578,0.));
#108 = VECTOR('',#109,1.);
#109 = DIRECTION('',(1.,0.,0.));
#110 = CARTESIAN_POINT('',(-22.00000021736,-14.27484312578,0.));
#111 = CARTESIAN_POINT('',(-13.45238271476,-14.27484312578,0.));
#112 = TRIMMED_CURVE('',#113,(#117,PARAMETER_VALUE(0.)),(#118,
    PARAMETER_VALUE(0.766477369489)),.T.,.PARAMETER.);
#113 = LINE('',#114,#115);
#114 = CARTESIAN_POINT('',(-22.00000021736,-14.27484312578,0.));
#115 = VECTOR('',#116,1.);
#116 = DIRECTION('',(0.,1.,0.));
#117 = CARTESIAN_POINT('',(-22.00000021736,-14.27484312578,0.));
#118 = CARTESIAN_POINT('',(-22.00000021736,-13.50836575629,0.));
#119 = TRIMMED_CURVE('',#120,(#124,PARAMETER_VALUE(0.)),(#125,
    PARAMETER_VALUE(7.076568903119)),.T.,.PARAMETER.);
#120 = LINE('',#121,#122);
#121 = CARTESIAN_POINT('',(-22.00000021736,-13.50836575629,0.));
#122 = VECTOR('',#123,1.);
#123 = DIRECTION('',(1.,0.,0.));
#124 = CARTESIAN_POINT('',(-22.00000021736,-13.50836575629,0.));
#125 = CARTESIAN_POINT('',(-14.92343131424,-13.50836575629,0.));
#126 = TRIMMED_CURVE('',#127,(#132,PARAMETER_VALUE(4.712388980385)),(
    #133,PARAMETER_VALUE(6.432231675276)),.T.,.PARAMETER.);
#127 = CIRCLE('',#128,0.682083739503);
#128 = AXIS2_PLACEMENT_3D('',#129,#130,#131);
#129 = CARTESIAN_POINT('',(-14.92343131424,-12.82628201678,0.));
#130 = DIRECTION('',(0.,0.,1.));
#131 = DIRECTION('',(1.,0.,0.));
#132 = CARTESIAN_POINT('',(-14.92343131424,-13.50836575629,0.));
#133 = CARTESIAN_POINT('',(-14.24890974352,-12.7249958957,0.));
#134 = TRIMMED_CURVE('',#135,(#139,PARAMETER_VALUE(0.)),(#140,
    PARAMETER_VALUE(4.264995895704)),.T.,.PARAMETER.);
#135 = LINE('',#136,#137);
#136 = CARTESIAN_POINT('',(-14.24890974352,-12.7249958957,0.));
#137 = VECTOR('',#138,1.);
#138 = DIRECTION('',(0.,1.,0.));
#139 = CARTESIAN_POINT('',(-14.24890974352,-12.7249958957,0.));
#140 = CARTESIAN_POINT('',(-14.24890974352,-8.46,0.));
#141 = TRIMMED_CURVE('',#142,(#146,PARAMETER_VALUE(0.)),(#147,
    PARAMETER_VALUE(4.374299686175)),.T.,.PARAMETER.);
#142 = LINE('',#143,#144);
#143 = CARTESIAN_POINT('',(-14.24890974352,-4.085700313825,0.));
#144 = VECTOR('',#145,1.);
#145 = DIRECTION('',(0.,-1.,0.));
#146 = CARTESIAN_POINT('',(-14.24890974352,-4.085700313825,0.));
#147 = CARTESIAN_POINT('',(-14.24890974352,-8.46,0.));
#148 = TRIMMED_CURVE('',#149,(#154,PARAMETER_VALUE(6.134138939083)),(
    #155,PARAMETER_VALUE(7.853981633974)),.T.,.PARAMETER.);
#149 = CIRCLE('',#150,0.682083739503);
#150 = AXIS2_PLACEMENT_3D('',#151,#152,#153);
#151 = CARTESIAN_POINT('',(-14.92343131424,-3.984414192739,0.));
#152 = DIRECTION('',(0.,0.,1.));
#153 = DIRECTION('',(1.,0.,0.));
#154 = CARTESIAN_POINT('',(-14.24890974352,-4.085700313825,0.));
#155 = CARTESIAN_POINT('',(-14.92343131424,-3.302330453236,0.));
#156 = TRIMMED_CURVE('',#157,(#161,PARAMETER_VALUE(0.)),(#162,
    PARAMETER_VALUE(7.076568903119)),.T.,.PARAMETER.);
#157 = LINE('',#158,#159);
#158 = CARTESIAN_POINT('',(-22.00000021736,-3.302330453236,0.));
#159 = VECTOR('',#160,1.);
#160 = DIRECTION('',(1.,0.,0.));
#161 = CARTESIAN_POINT('',(-22.00000021736,-3.302330453236,0.));
#162 = CARTESIAN_POINT('',(-14.92343131424,-3.302330453236,0.));
#163 = TRIMMED_CURVE('',#164,(#168,PARAMETER_VALUE(0.)),(#169,
    PARAMETER_VALUE(3.302330235868)),.T.,.PARAMETER.);
#164 = LINE('',#165,#166);
#165 = CARTESIAN_POINT('',(-22.00000021736,-3.302330453236,0.));
#166 = VECTOR('',#167,1.);
#167 = DIRECTION('',(0.,1.,0.));
#168 = CARTESIAN_POINT('',(-22.00000021736,-3.302330453236,0.));
#169 = CARTESIAN_POINT('',(-22.00000021736,-2.173681283857E-07,0.));
#170 = TRIMMED_CURVE('',#171,(#175,PARAMETER_VALUE(0.)),(#176,
    PARAMETER_VALUE(2.5)),.T.,.PARAMETER.);
#171 = LINE('',#172,#173);
#172 = CARTESIAN_POINT('',(-22.00000021736,-2.173681283857E-07,0.));
#173 = VECTOR('',#174,1.);
#174 = DIRECTION('',(1.,0.,0.));
#175 = CARTESIAN_POINT('',(-22.00000021736,-2.173681283857E-07,0.));
#176 = CARTESIAN_POINT('',(-19.50000021736,-2.173681284412E-07,0.));
#177 = TRIMMED_CURVE('',#178,(#183,PARAMETER_VALUE(4.712388980385)),(
    #184,PARAMETER_VALUE(7.853981633974)),.T.,.PARAMETER.);
#178 = CIRCLE('',#179,1.);
#179 = AXIS2_PLACEMENT_3D('',#180,#181,#182);
#180 = CARTESIAN_POINT('',(-19.50000021736,0.999999782632,0.));
#181 = DIRECTION('',(0.,0.,1.));
#182 = DIRECTION('',(1.,0.,0.));
#183 = CARTESIAN_POINT('',(-19.50000021736,-2.173681284412E-07,0.));
#184 = CARTESIAN_POINT('',(-19.50000021736,1.999999782632,0.));
#185 = TRIMMED_CURVE('',#186,(#190,PARAMETER_VALUE(0.)),(#191,
    PARAMETER_VALUE(12.)),.T.,.PARAMETER.);
#186 = LINE('',#187,#188);
#187 = CARTESIAN_POINT('',(-19.50000021736,13.999999782632,0.));
#188 = VECTOR('',#189,1.);
#189 = DIRECTION('',(0.,-1.,0.));
#190 = CARTESIAN_POINT('',(-19.50000021736,13.999999782632,0.));
#191 = CARTESIAN_POINT('',(-19.50000021736,1.999999782632,0.));
#192 = TRIMMED_CURVE('',#193,(#198,PARAMETER_VALUE(4.712388980385)),(
    #199,PARAMETER_VALUE(7.853981633974)),.T.,.PARAMETER.);
#193 = CIRCLE('',#194,1.);
#194 = AXIS2_PLACEMENT_3D('',#195,#196,#197);
#195 = CARTESIAN_POINT('',(-19.50000021736,14.999999782632,0.));
#196 = DIRECTION('',(0.,0.,1.));
#197 = DIRECTION('',(1.,0.,0.));
#198 = CARTESIAN_POINT('',(-19.50000021736,13.999999782632,0.));
#199 = CARTESIAN_POINT('',(-19.50000021736,15.999999782632,0.));
#200 = TRIMMED_CURVE('',#201,(#205,PARAMETER_VALUE(0.)),(#206,
    PARAMETER_VALUE(2.5)),.T.,.PARAMETER.);
#201 = LINE('',#202,#203);
#202 = CARTESIAN_POINT('',(-22.00000021736,15.999999782632,0.));
#203 = VECTOR('',#204,1.);
#204 = DIRECTION('',(1.,0.,0.));
#205 = CARTESIAN_POINT('',(-22.00000021736,15.999999782632,0.));
#206 = CARTESIAN_POINT('',(-19.50000021736,15.999999782632,0.));
#207 = GEOMETRIC_CURVE_SET('',(#208,#215,#223,#230,#238,#245,#253,#260)
  );
#208 = TRIMMED_CURVE('',#209,(#213,PARAMETER_VALUE(0.)),(#214,
    PARAMETER_VALUE(34.40201078559)),.T.,.PARAMETER.);
#209 = LINE('',#210,#211);
#210 = CARTESIAN_POINT('',(19.943281214409,-17.01274258064,0.));
#211 = VECTOR('',#212,1.);
#212 = DIRECTION('',(0.,1.,0.));
#213 = CARTESIAN_POINT('',(19.943281214409,-17.01274258064,0.));
#214 = CARTESIAN_POINT('',(19.943281214409,17.389268204945,0.));
#215 = TRIMMED_CURVE('',#216,(#221,PARAMETER_VALUE(0.)),(#222,
    PARAMETER_VALUE(1.570796326795)),.T.,.PARAMETER.);
#216 = CIRCLE('',#217,2.690684988603);
#217 = AXIS2_PLACEMENT_3D('',#218,#219,#220);
#218 = CARTESIAN_POINT('',(17.252596225806,17.389268204945,0.));
#219 = DIRECTION('',(0.,0.,1.));
#220 = DIRECTION('',(1.,0.,0.));
#221 = CARTESIAN_POINT('',(19.943281214409,17.389268204945,0.));
#222 = CARTESIAN_POINT('',(17.252596225806,20.079953193548,0.));
#223 = TRIMMED_CURVE('',#224,(#228,PARAMETER_VALUE(0.)),(#229,
    PARAMETER_VALUE(26.939650882365)),.T.,.PARAMETER.);
#224 = LINE('',#225,#226);
#225 = CARTESIAN_POINT('',(17.252596225806,20.079953193548,0.));
#226 = VECTOR('',#227,1.);
#227 = DIRECTION('',(-1.,0.,0.));
#228 = CARTESIAN_POINT('',(17.252596225806,20.079953193548,0.));
#229 = CARTESIAN_POINT('',(-9.687054656558,20.079953193548,0.));
#230 = TRIMMED_CURVE('',#231,(#236,PARAMETER_VALUE(1.570796326795)),(
    #237,PARAMETER_VALUE(3.14159265359)),.T.,.PARAMETER.);
#231 = CIRCLE('',#232,2.690684988603);
#232 = AXIS2_PLACEMENT_3D('',#233,#234,#235);
#233 = CARTESIAN_POINT('',(-9.687054656558,17.389268204945,0.));
#234 = DIRECTION('',(0.,0.,1.));
#235 = DIRECTION('',(1.,0.,0.));
#236 = CARTESIAN_POINT('',(-9.687054656558,20.079953193548,0.));
#237 = CARTESIAN_POINT('',(-12.37773964516,17.389268204945,0.));
#238 = TRIMMED_CURVE('',#239,(#243,PARAMETER_VALUE(0.)),(#244,
    PARAMETER_VALUE(34.40201078559)),.T.,.PARAMETER.);
#239 = LINE('',#240,#241);
#240 = CARTESIAN_POINT('',(-12.37773964516,17.389268204945,0.));
#241 = VECTOR('',#242,1.);
#242 = DIRECTION('',(0.,-1.,0.));
#243 = CARTESIAN_POINT('',(-12.37773964516,17.389268204945,0.));
#244 = CARTESIAN_POINT('',(-12.37773964516,-17.01274258064,0.));
#245 = TRIMMED_CURVE('',#246,(#251,PARAMETER_VALUE(3.14159265359)),(#252
    ,PARAMETER_VALUE(4.712388980385)),.T.,.PARAMETER.);
#246 = CIRCLE('',#247,2.690684988603);
#247 = AXIS2_PLACEMENT_3D('',#248,#249,#250);
#248 = CARTESIAN_POINT('',(-9.687054656558,-17.01274258064,0.));
#249 = DIRECTION('',(0.,0.,1.));
#250 = DIRECTION('',(1.,0.,0.));
#251 = CARTESIAN_POINT('',(-12.37773964516,-17.01274258064,0.));
#252 = CARTESIAN_POINT('',(-9.687054656558,-19.70342756924,0.));
#253 = TRIMMED_CURVE('',#254,(#258,PARAMETER_VALUE(0.)),(#259,
    PARAMETER_VALUE(26.939650882365)),.T.,.PARAMETER.);
#254 = LINE('',#255,#256);
#255 = CARTESIAN_POINT('',(-9.687054656558,-19.70342756924,0.));
#256 = VECTOR('',#257,1.);
#257 = DIRECTION('',(1.,0.,0.));
#258 = CARTESIAN_POINT('',(-9.687054656558,-19.70342756924,0.));
#259 = CARTESIAN_POINT('',(17.252596225806,-19.70342756924,0.));
#260 = TRIMMED_CURVE('',#261,(#266,PARAMETER_VALUE(4.712388980385)),(
    #267,PARAMETER_VALUE(6.28318530718)),.T.,.PARAMETER.);
#261 = CIRCLE('',#262,2.690684988603);
#262 = AXIS2_PLACEMENT_3D('',#263,#264,#265);
#263 = CARTESIAN_POINT('',(17.252596225806,-17.01274258064,0.));
#264 = DIRECTION('',(0.,0.,1.));
#265 = DIRECTION('',(1.,0.,0.));
#266 = CARTESIAN_POINT('',(17.252596225806,-19.70342756924,0.));
#267 = CARTESIAN_POINT('',(19.943281214409,-17.01274258064,0.));
#268 = ( GEOMETRIC_REPRESENTATION_CONTEXT(3) 
GLOBAL_UNCERTAINTY_ASSIGNED_CONTEXT((#272)) GLOBAL_UNIT_ASSIGNED_CONTEXT
((#269,#270,#271)) REPRESENTATION_CONTEXT('Context #1',
  '3D Context with UNIT and UNCERTAINTY') );
#269 = ( LENGTH_UNIT() NAMED_UNIT(*) SI_UNIT(.MILLI.,.METRE.) );
#270 = ( NAMED_UNIT(*) PLANE_ANGLE_UNIT() SI_UNIT($,.RADIAN.) );
#271 = ( NAMED_UNIT(*) SI_UNIT($,.STERADIAN.) SOLID_ANGLE_UNIT() );
#272 = UNCERTAINTY_MEASURE_WITH_UNIT(LENGTH_MEASURE(1.E-07),#269,
  'distance_accuracy_value','confusion accuracy');
#273 = PRODUCT_RELATED_PRODUCT_CATEGORY('part',$,(#7));
#274 = MECHANICAL_DESIGN_GEOMETRIC_PRESENTATION_REPRESENTATION('',(#275,
    #286),#268);
#275 = STYLED_ITEM('color',(#276),#15);
#276 = PRESENTATION_STYLE_ASSIGNMENT((#277,#283));
#277 = SURFACE_STYLE_USAGE(.BOTH.,#278);
#278 = SURFACE_SIDE_STYLE('',(#279));
#279 = SURFACE_STYLE_FILL_AREA(#280);
#280 = FILL_AREA_STYLE('',(#281));
#281 = FILL_AREA_STYLE_COLOUR('',#282);
#282 = COLOUR_RGB('',0.800000010877,0.800000010877,0.901960800373);
#283 = CURVE_STYLE('',#284,POSITIVE_LENGTH_MEASURE(0.1),#285);
#284 = DRAUGHTING_PRE_DEFINED_CURVE_FONT('continuous');
#285 = COLOUR_RGB('',0.945098040599,0.952941189437,0.960784305148);
#286 = STYLED_ITEM('color',(#287),#207);
#287 = PRESENTATION_STYLE_ASSIGNMENT((#288,#293));
#288 = SURFACE_STYLE_USAGE(.BOTH.,#289);
#289 = SURFACE_SIDE_STYLE('',(#290));
#290 = SURFACE_STYLE_FILL_AREA(#291);
#291 = FILL_AREA_STYLE('',(#292));
#292 = FILL_AREA_STYLE_COLOUR('',#282);
#293 = CURVE_STYLE('',#294,POSITIVE_LENGTH_MEASURE(0.1),#285);
#294 = DRAUGHTING_PRE_DEFINED_CURVE_FONT('continuous');
ENDSEC;
END-ISO-10303-21;
