  0
SECTION
  2
HEADER
  9
$ACADVER
  1
AC1009
  9
$INSBASE
 10
0.0
 20
0.0
 30
0.0
  9
$EXTMIN
 10
0.0
 20
0.0
 30
0.0
  9
$EXTMAX
 10
0.0
 20
0.0
 30
0.0
  0
ENDSEC
  0
SECTION
  2
TABLES
  0
TABLE
  2
VPORT
 70
0
  0
ENDTAB
  0
TABLE
  2
LTYPE
 70
1
  0
LTYPE
  2
CONTINUOUS
 70
0
  3
Solid line
 72
65
 73
0
 40
0.0
  0
ENDTAB
  0
TABLE
  2
LAYER
 70
1
  0
LAYER
  2
0
 70
64
 62
7
  6
continuous
  0
ENDTAB
  0
TABLE
  2
STYLE
 70
1
  0
STYLE
  2
STANDARD
 70
0
 40
0
 41
1.0
 50
0.0
 71
0
 42
1
 3
ARIAL.TTF
 4

  0
ENDTAB
  0
TABLE
  2
VIEW
 70
0
  0
ENDTAB
  0
ENDSEC
  0
SECTION
  2
BLOCKS
  0
BLOCK
  8
0
  2
SKETCH045
 70
0
 10
0.0
 20
0.0
 30
0.0
  3
SKETCH045
  0
POLYLINE
  8
0
 62
7
 70
1
 66
1
 10
0.0
 20
0.0
 30
0.0
  0
VERTEX
  8
0
 10
-19.500000217368132
 20
15.999999782631871
 30
0.0
 42
-0.9999999999999999
  0
VERTEX
  8
0
 10
-19.50000021736813
 20
13.999999782631871
 30
0.0
  0
VERTEX
  8
0
 10
-19.50000021736813
 20
1.9999997826318716
 30
0.0
 42
-0.9999999999999999
  0
VERTEX
  8
0
 10
-19.50000021736813
 20
-2.1736812838568653e-07
 30
0.0
  0
VERTEX
  8
0
 10
-22.00000021736813
 20
-2.1736812838568653e-07
 30
0.0
  0
VERTEX
  8
0
 10
-22.00000021736813
 20
-3.3023304532361877
 30
0.0
  0
VERTEX
  8
0
 10
-14.923431314248651
 20
-3.3023304532361877
 30
0.0
 42
-0.458573426443416
  0
VERTEX
  8
0
 10
-14.24890974352627
 20
-4.085700313824618
 30
0.0
  0
VERTEX
  8
0
 10
-14.248909743526267
 20
-8.459999999999999
 30
0.0
  0
VERTEX
  8
0
 10
-14.248909743526267
 20
-12.724995895703678
 30
0.0
 42
-0.4585734264434154
  0
VERTEX
  8
0
 10
-14.923431314248651
 20
-13.508365756292108
 30
0.0
  0
VERTEX
  8
0
 10
-22.00000021736813
 20
-13.508365756292108
 30
0.0
  0
VERTEX
  8
0
 10
-22.00000021736813
 20
-14.274843125780725
 30
0.0
  0
VERTEX
  8
0
 10
-13.452382714764747
 20
-14.274843125780725
 30
0.0
 42
-0.4142135623730958
  0
VERTEX
  8
0
 10
-12.770298975261792
 20
-14.956926865283679
 30
0.0
  0
VERTEX
  8
0
 10
-12.770298975261792
 20
-20.254971278607954
 30
0.0
 42
-0.41421356237309503
  0
VERTEX
  8
0
 10
-13.452382714764745
 20
-20.937055018110907
 30
0.0
  0
VERTEX
  8
0
 10
-17.57940294670632
 20
-20.937055018110907
 30
0.0
  0
VERTEX
  8
0
 10
-17.579402946706317
 20
-21.99999978263187
 30
0.0
  0
VERTEX
  8
0
 10
16.91999978263187
 20
-21.999999782631868
 30
0.0
 42
0.41421356237309503
  0
VERTEX
  8
0
 10
21.999999782631868
 20
-16.91999978263187
 30
0.0
  0
VERTEX
  8
0
 10
21.999999782631868
 20
16.91999978263187
 30
0.0
 42
0.4142135623730949
  0
VERTEX
  8
0
 10
16.91999978263187
 20
21.999999782631868
 30
0.0
  0
VERTEX
  8
0
 10
-16.91999978263187
 20
21.999999782631868
 30
0.0
 42
0.4142135623730948
  0
VERTEX
  8
0
 10
-22.00000021736813
 20
16.92000021736817
 30
0.0
  0
VERTEX
  8
0
 10
-22.00000021736813
 20
15.999999782631871
 30
0.0
  0
SEQEND
  8
0
  0
POLYLINE
  8
0
 62
7
 70
1
 66
1
 10
0.0
 20
0.0
 30
0.0
  0
VERTEX
  8
0
 10
19.943281214409218
 20
-17.012742580645135
 30
0.0
  0
VERTEX
  8
0
 10
19.943281214409218
 20
17.38926820494526
 30
0.0
 42
0.41421356237309503
  0
VERTEX
  8
0
 10
17.25259622580639
 20
20.07995319354809
 30
0.0
  0
VERTEX
  8
0
 10
-9.687054656558292
 20
20.07995319354809
 30
0.0
 42
0.41421356237309515
  0
VERTEX
  8
0
 10
-12.377739645161117
 20
17.38926820494526
 30
0.0
  0
VERTEX
  8
0
 10
-12.377739645161117
 20
-17.01274258064513
 30
0.0
 42
0.4142135623730949
  0
VERTEX
  8
0
 10
-9.68705465655829
 20
-19.703427569247964
 30
0.0
  0
VERTEX
  8
0
 10
17.252596225806393
 20
-19.703427569247964
 30
0.0
 42
0.41421356237309503
  0
SEQEND
  8
0
  0
ENDBLK
  0
ENDSEC
  0
SECTION
  2
ENTITIES
  0
INSERT
  2
SKETCH045
  8
0
 62
7
 10
0.0
 20
0.0
 30
0.0
  0
ENDSEC
  0
EOF
