M48
; DRILL file {KiCad 9.0.4} date 2025-09-02T11:28:22-0700
; FORMAT={-:-/ absolute / inch / decimal}
; #@! TF.CreationDate,2025-09-02T11:28:22-07:00
; #@! TF.GenerationSoftware,Kicad,Pcbnew,9.0.4
; #@! TF.FileFunction,MixedPlating,1,4
FMAT,2
INCH
; #@! TA.AperFunction,Plated,PTH,ViaDrill
T1C0.0079
; #@! TA.AperFunction,Plated,PTH,ComponentDrill
T2C0.0079
; #@! TA.AperFunction,Plated,PTH,ComponentDrill
T3C0.0157
; #@! TA.AperFunction,Plated,PTH,ComponentDrill
T4C0.0197
; #@! TA.AperFunction,Plated,PTH,ComponentDrill
T5C0.0295
; #@! TA.AperFunction,Plated,PTH,ComponentDrill
T6C0.0315
; #@! TA.AperFunction,Plated,PTH,ComponentDrill
T7C0.0394
; #@! TA.AperFunction,NonPlated,NPTH,ComponentDrill
T8C0.0256
; #@! TA.AperFunction,NonPlated,NPTH,ComponentDrill
T9C0.0390
; #@! TA.AperFunction,NonPlated,NPTH,ComponentDrill
T10C0.0935
%
G90
G05
T1
X7.9729Y-5.7423
X7.9921Y-5.0308
X7.9921Y-5.1253
X7.9921Y-5.5446
X7.9921Y-5.6391
X8.0091Y-5.748
X8.0108Y-5.711
X8.0235Y-5.7981
X8.0235Y-5.8493
X8.0235Y-5.8749
X8.0482Y-5.673
X8.0482Y-5.7108
X8.0845Y-5.8365
X8.0918Y-5.7483
X8.1064Y-5.9265
X8.1174Y-5.6715
X8.1174Y-5.7483
X8.1442Y-5.9265
X8.1456Y-5.7981
X8.1456Y-5.8237
X8.1456Y-5.8749
X8.1644Y-5.7156
X8.1644Y-5.7402
X8.2028Y-5.8199
X8.2434Y-5.769
X8.2441Y-5.8199
X8.2864Y-5.8217
X8.2864Y-5.8594
X8.3967Y-5.3937
X8.4439Y-5.4437
X8.7372Y-5.7754
X8.7372Y-5.8132
X8.7965Y-5.8123
X8.8091Y-5.6555
X8.8339Y-5.7099
X8.8455Y-5.9004
X8.8484Y-5.6555
X8.8713Y-5.7099
X8.8858Y-5.9004
X8.9639Y-5.8934
X9.3615Y-5.8934
X9.5312Y-5.9265
X9.569Y-5.9265
T2
X8.0957Y-5.7099
X8.1391Y-5.7099
T3
X9.0426Y-5.7123
X9.0682Y-5.7398
X9.0997Y-5.7398
X9.1154Y-5.7123
X9.1312Y-5.7391
X9.1469Y-5.7123
X9.1784Y-5.7123
X9.1942Y-5.7391
X9.2099Y-5.7123
X9.2257Y-5.7398
X9.2572Y-5.7398
X9.2828Y-5.7123
T5
X9.4835Y-5.8457
X9.5623Y-5.8457
T6
X8.4087Y-5.8339
X8.5072Y-5.704
X8.6056Y-5.8339
T7
X8.6191Y-5.0364
X8.6191Y-5.1191
X8.6191Y-5.2018
X8.6191Y-5.2844
X8.6191Y-5.3671
X8.6191Y-5.4498
X8.6191Y-5.5325
T8
X9.3093Y-5.7398
T9
X8.1982Y-5.4187
X8.4982Y-5.3787
X8.4982Y-5.4587
T10
X8.1982Y-5.3187
X8.1982Y-5.5187
X8.4232Y-5.3187
X8.4232Y-5.5187
T4
X8.9855Y-5.6926G85X8.9855Y-5.669
G05
X9.3398Y-5.6926G85X9.3398Y-5.669
G05
T8
X9.0219Y-5.7398G85X9.0101Y-5.7398
G05
M30
