%TF.GenerationSoftware,KiCad,Pcbnew,9.0.4*%
%TF.CreationDate,2025-09-02T11:28:22-07:00*%
%TF.ProjectId,salt_booklamp,73616c74-5f62-46f6-9f6b-6c616d702e6b,5*%
%TF.SameCoordinates,Original*%
%TF.FileFunction,Other,User*%
%FSLAX45Y45*%
G04 Gerber Fmt 4.5, Leading zero omitted, Abs format (unit mm)*
G04 Created by KiCad (PCBNEW 9.0.4) date 2025-09-02 11:28:22*
%MOMM*%
%LPD*%
G01*
G04 APERTURE LIST*
%ADD10C,0.050000*%
%ADD11C,0.100000*%
G04 APERTURE END LIST*
D10*
%TO.C,C1*%
X22146500Y-14626500D02*
X22146500Y-14808500D01*
X22146500Y-14808500D02*
X22238500Y-14808500D01*
X22238500Y-14626500D02*
X22146500Y-14626500D01*
X22238500Y-14808500D02*
X22238500Y-14626500D01*
%TO.C,R10*%
X22523000Y-14843000D02*
X22523000Y-15029000D01*
X22523000Y-15029000D02*
X22617000Y-15029000D01*
X22617000Y-14843000D02*
X22523000Y-14843000D01*
X22617000Y-15029000D02*
X22617000Y-14843000D01*
%TO.C,R2*%
X20300500Y-14362000D02*
X20300500Y-14548000D01*
X20300500Y-14548000D02*
X20394500Y-14548000D01*
X20394500Y-14362000D02*
X20300500Y-14362000D01*
X20394500Y-14548000D02*
X20394500Y-14362000D01*
%TO.C,C2*%
X24166200Y-15007200D02*
X24166200Y-15099200D01*
X24166200Y-15099200D02*
X24348200Y-15099200D01*
X24348200Y-15007200D02*
X24166200Y-15007200D01*
X24348200Y-15099200D02*
X24348200Y-15007200D01*
%TO.C,S1*%
X21128200Y-14918200D02*
X22088200Y-14918200D01*
X22088200Y-14388200D01*
X21128200Y-14388200D01*
X21128200Y-14918200D01*
%TO.C,U3*%
D11*
X20748200Y-14643200D02*
X20488200Y-14643200D01*
X20488200Y-14363200D01*
X20748200Y-14363200D01*
X20748200Y-14643200D01*
%TO.C,U2*%
D10*
X22258200Y-14833200D02*
X22618200Y-14833200D01*
X22618200Y-14433200D01*
X22258200Y-14433200D01*
X22258200Y-14833200D01*
%TO.C,R5*%
X20794500Y-14743000D02*
X20794500Y-14837000D01*
X20794500Y-14837000D02*
X20980500Y-14837000D01*
X20980500Y-14743000D02*
X20794500Y-14743000D01*
X20980500Y-14837000D02*
X20980500Y-14743000D01*
%TO.C,U1*%
X20321750Y-14964750D02*
X20321750Y-14684750D01*
X20359750Y-14649750D02*
X20359750Y-14684750D01*
X20359750Y-14649750D02*
X20709750Y-14649750D01*
X20359750Y-14684750D02*
X20321750Y-14684750D01*
X20359750Y-14964750D02*
X20321750Y-14964750D01*
X20359750Y-14999750D02*
X20359750Y-14964750D01*
X20359750Y-14999750D02*
X20709750Y-14999750D01*
X20709750Y-14649750D02*
X20709750Y-14684750D01*
X20709750Y-14684750D02*
X20747750Y-14684750D01*
X20709750Y-14964750D02*
X20747750Y-14964750D01*
X20709750Y-14999750D02*
X20709750Y-14964750D01*
X20747750Y-14964750D02*
X20747750Y-14684750D01*
%TO.C,R6*%
X22433000Y-14318000D02*
X22433000Y-14412000D01*
X22433000Y-14412000D02*
X22619000Y-14412000D01*
X22619000Y-14318000D02*
X22433000Y-14318000D01*
X22619000Y-14412000D02*
X22619000Y-14318000D01*
%TO.C,L1*%
X21128200Y-14743200D02*
X20748200Y-14743200D01*
X20748200Y-14363200D01*
X21128200Y-14363200D01*
X21128200Y-14743200D01*
%TO.C,C3*%
X20547200Y-15007200D02*
X20547200Y-15099200D01*
X20547200Y-15099200D02*
X20729200Y-15099200D01*
X20729200Y-15007200D02*
X20547200Y-15007200D01*
X20729200Y-15099200D02*
X20729200Y-15007200D01*
%TO.C,BATT1*%
X23843200Y-14173200D02*
X24533200Y-14173200D01*
X23843200Y-15033200D02*
X23843200Y-14173200D01*
X24533200Y-14173200D02*
X24533200Y-15033200D01*
X24533200Y-15033200D02*
X23843200Y-15033200D01*
%TO.C,R9*%
X22420500Y-14843000D02*
X22420500Y-15029000D01*
X22420500Y-15029000D02*
X22514500Y-15029000D01*
X22514500Y-14843000D02*
X22420500Y-14843000D01*
X22514500Y-15029000D02*
X22514500Y-14843000D01*
%TO.C,R3*%
X20204242Y-14543483D02*
X20204242Y-14729483D01*
X20204242Y-14729483D02*
X20298242Y-14729483D01*
X20298242Y-14543483D02*
X20204242Y-14543483D01*
X20298242Y-14729483D02*
X20298242Y-14543483D01*
%TO.C,C4*%
X20396500Y-14366500D02*
X20396500Y-14548500D01*
X20396500Y-14548500D02*
X20488500Y-14548500D01*
X20488500Y-14366500D02*
X20396500Y-14366500D01*
X20488500Y-14548500D02*
X20488500Y-14366500D01*
%TO.C,R1*%
X22231000Y-14318000D02*
X22231000Y-14412000D01*
X22231000Y-14412000D02*
X22417000Y-14412000D01*
X22417000Y-14318000D02*
X22231000Y-14318000D01*
X22417000Y-14412000D02*
X22417000Y-14318000D01*
%TO.C,C5*%
X21001500Y-14744000D02*
X21001500Y-14926000D01*
X21001500Y-14926000D02*
X21093500Y-14926000D01*
X21093500Y-14744000D02*
X21001500Y-14744000D01*
X21093500Y-14926000D02*
X21093500Y-14744000D01*
%TO.C,R4*%
X20301159Y-14552981D02*
X20301159Y-14646981D01*
X20301159Y-14646981D02*
X20487159Y-14646981D01*
X20487159Y-14552981D02*
X20301159Y-14552981D01*
X20487159Y-14646981D02*
X20487159Y-14552981D01*
%TO.C,R8*%
X20205594Y-14353537D02*
X20205594Y-14539537D01*
X20205594Y-14539537D02*
X20299594Y-14539537D01*
X20299594Y-14353537D02*
X20205594Y-14353537D01*
X20299594Y-14539537D02*
X20299594Y-14353537D01*
%TO.C,J1*%
X22633200Y-15463200D02*
X23903200Y-15463200D01*
X23903200Y-14283200D01*
X22633200Y-14283200D01*
X22633200Y-15463200D01*
%TD*%
M02*
