%TF.GenerationSoftware,KiCad,Pcbnew,9.0.4*%
%TF.CreationDate,2025-09-02T11:28:22-07:00*%
%TF.ProjectId,salt_booklamp,73616c74-5f62-46f6-9f6b-6c616d702e6b,5*%
%TF.SameCoordinates,Original*%
%TF.FileFunction,Legend,Top*%
%TF.FilePolarity,Positive*%
%FSLAX45Y45*%
G04 Gerber Fmt 4.5, Leading zero omitted, Abs format (unit mm)*
G04 Created by KiCad (PCBNEW 9.0.4) date 2025-09-02 11:28:22*
%MOMM*%
%LPD*%
G01*
G04 APERTURE LIST*
%ADD10C,0.150000*%
G04 APERTURE END LIST*
D10*
X22019286Y-13582982D02*
X22076429Y-13582982D01*
X22047857Y-13682982D02*
X22047857Y-13582982D01*
X22109762Y-13682982D02*
X22109762Y-13582982D01*
X22109762Y-13582982D02*
X22147857Y-13582982D01*
X22147857Y-13582982D02*
X22157381Y-13587744D01*
X22157381Y-13587744D02*
X22162143Y-13592506D01*
X22162143Y-13592506D02*
X22166905Y-13602029D01*
X22166905Y-13602029D02*
X22166905Y-13616315D01*
X22166905Y-13616315D02*
X22162143Y-13625839D01*
X22162143Y-13625839D02*
X22157381Y-13630601D01*
X22157381Y-13630601D02*
X22147857Y-13635363D01*
X22147857Y-13635363D02*
X22109762Y-13635363D01*
X22185952Y-13692506D02*
X22262143Y-13692506D01*
X22343095Y-13673458D02*
X22338333Y-13678220D01*
X22338333Y-13678220D02*
X22324048Y-13682982D01*
X22324048Y-13682982D02*
X22314524Y-13682982D01*
X22314524Y-13682982D02*
X22300238Y-13678220D01*
X22300238Y-13678220D02*
X22290714Y-13668696D01*
X22290714Y-13668696D02*
X22285952Y-13659172D01*
X22285952Y-13659172D02*
X22281191Y-13640125D01*
X22281191Y-13640125D02*
X22281191Y-13625839D01*
X22281191Y-13625839D02*
X22285952Y-13606791D01*
X22285952Y-13606791D02*
X22290714Y-13597268D01*
X22290714Y-13597268D02*
X22300238Y-13587744D01*
X22300238Y-13587744D02*
X22314524Y-13582982D01*
X22314524Y-13582982D02*
X22324048Y-13582982D01*
X22324048Y-13582982D02*
X22338333Y-13587744D01*
X22338333Y-13587744D02*
X22343095Y-13592506D01*
X22385952Y-13682982D02*
X22385952Y-13582982D01*
X22385952Y-13630601D02*
X22443095Y-13630601D01*
X22443095Y-13682982D02*
X22443095Y-13582982D01*
X22485952Y-13654410D02*
X22533571Y-13654410D01*
X22476429Y-13682982D02*
X22509762Y-13582982D01*
X22509762Y-13582982D02*
X22543095Y-13682982D01*
X22633571Y-13682982D02*
X22600238Y-13635363D01*
X22576429Y-13682982D02*
X22576429Y-13582982D01*
X22576429Y-13582982D02*
X22614524Y-13582982D01*
X22614524Y-13582982D02*
X22624048Y-13587744D01*
X22624048Y-13587744D02*
X22628809Y-13592506D01*
X22628809Y-13592506D02*
X22633571Y-13602029D01*
X22633571Y-13602029D02*
X22633571Y-13616315D01*
X22633571Y-13616315D02*
X22628809Y-13625839D01*
X22628809Y-13625839D02*
X22624048Y-13630601D01*
X22624048Y-13630601D02*
X22614524Y-13635363D01*
X22614524Y-13635363D02*
X22576429Y-13635363D01*
X22728809Y-13587744D02*
X22719286Y-13582982D01*
X22719286Y-13582982D02*
X22705000Y-13582982D01*
X22705000Y-13582982D02*
X22690714Y-13587744D01*
X22690714Y-13587744D02*
X22681190Y-13597268D01*
X22681190Y-13597268D02*
X22676429Y-13606791D01*
X22676429Y-13606791D02*
X22671667Y-13625839D01*
X22671667Y-13625839D02*
X22671667Y-13640125D01*
X22671667Y-13640125D02*
X22676429Y-13659172D01*
X22676429Y-13659172D02*
X22681190Y-13668696D01*
X22681190Y-13668696D02*
X22690714Y-13678220D01*
X22690714Y-13678220D02*
X22705000Y-13682982D01*
X22705000Y-13682982D02*
X22714524Y-13682982D01*
X22714524Y-13682982D02*
X22728809Y-13678220D01*
X22728809Y-13678220D02*
X22733571Y-13673458D01*
X22733571Y-13673458D02*
X22733571Y-13640125D01*
X22733571Y-13640125D02*
X22714524Y-13640125D01*
X22776429Y-13682982D02*
X22776429Y-13582982D01*
X22824048Y-13682982D02*
X22824048Y-13582982D01*
X22824048Y-13582982D02*
X22881190Y-13682982D01*
X22881190Y-13682982D02*
X22881190Y-13582982D01*
X22981190Y-13587744D02*
X22971667Y-13582982D01*
X22971667Y-13582982D02*
X22957381Y-13582982D01*
X22957381Y-13582982D02*
X22943095Y-13587744D01*
X22943095Y-13587744D02*
X22933571Y-13597268D01*
X22933571Y-13597268D02*
X22928809Y-13606791D01*
X22928809Y-13606791D02*
X22924048Y-13625839D01*
X22924048Y-13625839D02*
X22924048Y-13640125D01*
X22924048Y-13640125D02*
X22928809Y-13659172D01*
X22928809Y-13659172D02*
X22933571Y-13668696D01*
X22933571Y-13668696D02*
X22943095Y-13678220D01*
X22943095Y-13678220D02*
X22957381Y-13682982D01*
X22957381Y-13682982D02*
X22966905Y-13682982D01*
X22966905Y-13682982D02*
X22981190Y-13678220D01*
X22981190Y-13678220D02*
X22985952Y-13673458D01*
X22985952Y-13673458D02*
X22985952Y-13640125D01*
X22985952Y-13640125D02*
X22966905Y-13640125D01*
X22272143Y-13555220D02*
X22995000Y-13555220D01*
X23081190Y-13682982D02*
X23024048Y-13682982D01*
X23052619Y-13682982D02*
X23052619Y-13582982D01*
X23052619Y-13582982D02*
X23043095Y-13597268D01*
X23043095Y-13597268D02*
X23033571Y-13606791D01*
X23033571Y-13606791D02*
X23024048Y-13611553D01*
X22019286Y-12952982D02*
X22076429Y-12952982D01*
X22047857Y-13052982D02*
X22047857Y-12952982D01*
X22109762Y-13052982D02*
X22109762Y-12952982D01*
X22109762Y-12952982D02*
X22147857Y-12952982D01*
X22147857Y-12952982D02*
X22157381Y-12957744D01*
X22157381Y-12957744D02*
X22162143Y-12962506D01*
X22162143Y-12962506D02*
X22166905Y-12972029D01*
X22166905Y-12972029D02*
X22166905Y-12986315D01*
X22166905Y-12986315D02*
X22162143Y-12995839D01*
X22162143Y-12995839D02*
X22157381Y-13000601D01*
X22157381Y-13000601D02*
X22147857Y-13005363D01*
X22147857Y-13005363D02*
X22109762Y-13005363D01*
X22185952Y-13062506D02*
X22262143Y-13062506D01*
X22276429Y-12952982D02*
X22338333Y-12952982D01*
X22338333Y-12952982D02*
X22305000Y-12991077D01*
X22305000Y-12991077D02*
X22319286Y-12991077D01*
X22319286Y-12991077D02*
X22328810Y-12995839D01*
X22328810Y-12995839D02*
X22333571Y-13000601D01*
X22333571Y-13000601D02*
X22338333Y-13010125D01*
X22338333Y-13010125D02*
X22338333Y-13033934D01*
X22338333Y-13033934D02*
X22333571Y-13043458D01*
X22333571Y-13043458D02*
X22328810Y-13048220D01*
X22328810Y-13048220D02*
X22319286Y-13052982D01*
X22319286Y-13052982D02*
X22290714Y-13052982D01*
X22290714Y-13052982D02*
X22281191Y-13048220D01*
X22281191Y-13048220D02*
X22276429Y-13043458D01*
X22381190Y-13043458D02*
X22385952Y-13048220D01*
X22385952Y-13048220D02*
X22381190Y-13052982D01*
X22381190Y-13052982D02*
X22376429Y-13048220D01*
X22376429Y-13048220D02*
X22381190Y-13043458D01*
X22381190Y-13043458D02*
X22381190Y-13052982D01*
X22419286Y-12952982D02*
X22485952Y-12952982D01*
X22485952Y-12952982D02*
X22443095Y-13052982D01*
X22509762Y-12952982D02*
X22543095Y-13052982D01*
X22543095Y-13052982D02*
X22576428Y-12952982D01*
X22585952Y-13062506D02*
X22662143Y-13062506D01*
X22719286Y-13000601D02*
X22733571Y-13005363D01*
X22733571Y-13005363D02*
X22738333Y-13010125D01*
X22738333Y-13010125D02*
X22743095Y-13019648D01*
X22743095Y-13019648D02*
X22743095Y-13033934D01*
X22743095Y-13033934D02*
X22738333Y-13043458D01*
X22738333Y-13043458D02*
X22733571Y-13048220D01*
X22733571Y-13048220D02*
X22724048Y-13052982D01*
X22724048Y-13052982D02*
X22685952Y-13052982D01*
X22685952Y-13052982D02*
X22685952Y-12952982D01*
X22685952Y-12952982D02*
X22719286Y-12952982D01*
X22719286Y-12952982D02*
X22728809Y-12957744D01*
X22728809Y-12957744D02*
X22733571Y-12962506D01*
X22733571Y-12962506D02*
X22738333Y-12972029D01*
X22738333Y-12972029D02*
X22738333Y-12981553D01*
X22738333Y-12981553D02*
X22733571Y-12991077D01*
X22733571Y-12991077D02*
X22728809Y-12995839D01*
X22728809Y-12995839D02*
X22719286Y-13000601D01*
X22719286Y-13000601D02*
X22685952Y-13000601D01*
X22781190Y-13024410D02*
X22828809Y-13024410D01*
X22771667Y-13052982D02*
X22805000Y-12952982D01*
X22805000Y-12952982D02*
X22838333Y-13052982D01*
X22857381Y-12952982D02*
X22914524Y-12952982D01*
X22885952Y-13052982D02*
X22885952Y-12952982D01*
X22933571Y-12952982D02*
X22990714Y-12952982D01*
X22962143Y-13052982D02*
X22962143Y-12952982D01*
X23076429Y-13052982D02*
X23019286Y-13052982D01*
X23047857Y-13052982D02*
X23047857Y-12952982D01*
X23047857Y-12952982D02*
X23038333Y-12967268D01*
X23038333Y-12967268D02*
X23028810Y-12976791D01*
X23028810Y-12976791D02*
X23019286Y-12981553D01*
X22019286Y-12742982D02*
X22076429Y-12742982D01*
X22047857Y-12842982D02*
X22047857Y-12742982D01*
X22109762Y-12842982D02*
X22109762Y-12742982D01*
X22109762Y-12742982D02*
X22147857Y-12742982D01*
X22147857Y-12742982D02*
X22157381Y-12747744D01*
X22157381Y-12747744D02*
X22162143Y-12752506D01*
X22162143Y-12752506D02*
X22166905Y-12762029D01*
X22166905Y-12762029D02*
X22166905Y-12776315D01*
X22166905Y-12776315D02*
X22162143Y-12785839D01*
X22162143Y-12785839D02*
X22157381Y-12790601D01*
X22157381Y-12790601D02*
X22147857Y-12795363D01*
X22147857Y-12795363D02*
X22109762Y-12795363D01*
X22185952Y-12852506D02*
X22262143Y-12852506D01*
X22333571Y-12742982D02*
X22285952Y-12742982D01*
X22285952Y-12742982D02*
X22281191Y-12790601D01*
X22281191Y-12790601D02*
X22285952Y-12785839D01*
X22285952Y-12785839D02*
X22295476Y-12781077D01*
X22295476Y-12781077D02*
X22319286Y-12781077D01*
X22319286Y-12781077D02*
X22328810Y-12785839D01*
X22328810Y-12785839D02*
X22333571Y-12790601D01*
X22333571Y-12790601D02*
X22338333Y-12800125D01*
X22338333Y-12800125D02*
X22338333Y-12823934D01*
X22338333Y-12823934D02*
X22333571Y-12833458D01*
X22333571Y-12833458D02*
X22328810Y-12838220D01*
X22328810Y-12838220D02*
X22319286Y-12842982D01*
X22319286Y-12842982D02*
X22295476Y-12842982D01*
X22295476Y-12842982D02*
X22285952Y-12838220D01*
X22285952Y-12838220D02*
X22281191Y-12833458D01*
X22366905Y-12742982D02*
X22400238Y-12842982D01*
X22400238Y-12842982D02*
X22433571Y-12742982D01*
X22443095Y-12852506D02*
X22519286Y-12852506D01*
X22543095Y-12742982D02*
X22543095Y-12823934D01*
X22543095Y-12823934D02*
X22547857Y-12833458D01*
X22547857Y-12833458D02*
X22552619Y-12838220D01*
X22552619Y-12838220D02*
X22562143Y-12842982D01*
X22562143Y-12842982D02*
X22581190Y-12842982D01*
X22581190Y-12842982D02*
X22590714Y-12838220D01*
X22590714Y-12838220D02*
X22595476Y-12833458D01*
X22595476Y-12833458D02*
X22600238Y-12823934D01*
X22600238Y-12823934D02*
X22600238Y-12742982D01*
X22643095Y-12838220D02*
X22657381Y-12842982D01*
X22657381Y-12842982D02*
X22681190Y-12842982D01*
X22681190Y-12842982D02*
X22690714Y-12838220D01*
X22690714Y-12838220D02*
X22695476Y-12833458D01*
X22695476Y-12833458D02*
X22700238Y-12823934D01*
X22700238Y-12823934D02*
X22700238Y-12814410D01*
X22700238Y-12814410D02*
X22695476Y-12804887D01*
X22695476Y-12804887D02*
X22690714Y-12800125D01*
X22690714Y-12800125D02*
X22681190Y-12795363D01*
X22681190Y-12795363D02*
X22662143Y-12790601D01*
X22662143Y-12790601D02*
X22652619Y-12785839D01*
X22652619Y-12785839D02*
X22647857Y-12781077D01*
X22647857Y-12781077D02*
X22643095Y-12771553D01*
X22643095Y-12771553D02*
X22643095Y-12762029D01*
X22643095Y-12762029D02*
X22647857Y-12752506D01*
X22647857Y-12752506D02*
X22652619Y-12747744D01*
X22652619Y-12747744D02*
X22662143Y-12742982D01*
X22662143Y-12742982D02*
X22685952Y-12742982D01*
X22685952Y-12742982D02*
X22700238Y-12747744D01*
X22776429Y-12790601D02*
X22790714Y-12795363D01*
X22790714Y-12795363D02*
X22795476Y-12800125D01*
X22795476Y-12800125D02*
X22800238Y-12809648D01*
X22800238Y-12809648D02*
X22800238Y-12823934D01*
X22800238Y-12823934D02*
X22795476Y-12833458D01*
X22795476Y-12833458D02*
X22790714Y-12838220D01*
X22790714Y-12838220D02*
X22781190Y-12842982D01*
X22781190Y-12842982D02*
X22743095Y-12842982D01*
X22743095Y-12842982D02*
X22743095Y-12742982D01*
X22743095Y-12742982D02*
X22776429Y-12742982D01*
X22776429Y-12742982D02*
X22785952Y-12747744D01*
X22785952Y-12747744D02*
X22790714Y-12752506D01*
X22790714Y-12752506D02*
X22795476Y-12762029D01*
X22795476Y-12762029D02*
X22795476Y-12771553D01*
X22795476Y-12771553D02*
X22790714Y-12781077D01*
X22790714Y-12781077D02*
X22785952Y-12785839D01*
X22785952Y-12785839D02*
X22776429Y-12790601D01*
X22776429Y-12790601D02*
X22743095Y-12790601D01*
X22895476Y-12842982D02*
X22838333Y-12842982D01*
X22866905Y-12842982D02*
X22866905Y-12742982D01*
X22866905Y-12742982D02*
X22857381Y-12757268D01*
X22857381Y-12757268D02*
X22847857Y-12766791D01*
X22847857Y-12766791D02*
X22838333Y-12771553D01*
X22019286Y-13792982D02*
X22076429Y-13792982D01*
X22047857Y-13892982D02*
X22047857Y-13792982D01*
X22109762Y-13892982D02*
X22109762Y-13792982D01*
X22109762Y-13792982D02*
X22147857Y-13792982D01*
X22147857Y-13792982D02*
X22157381Y-13797744D01*
X22157381Y-13797744D02*
X22162143Y-13802506D01*
X22162143Y-13802506D02*
X22166905Y-13812029D01*
X22166905Y-13812029D02*
X22166905Y-13826315D01*
X22166905Y-13826315D02*
X22162143Y-13835839D01*
X22162143Y-13835839D02*
X22157381Y-13840601D01*
X22157381Y-13840601D02*
X22147857Y-13845363D01*
X22147857Y-13845363D02*
X22109762Y-13845363D01*
X22185952Y-13902506D02*
X22262143Y-13902506D01*
X22333571Y-13892982D02*
X22285952Y-13892982D01*
X22285952Y-13892982D02*
X22285952Y-13792982D01*
X22366905Y-13840601D02*
X22400238Y-13840601D01*
X22414524Y-13892982D02*
X22366905Y-13892982D01*
X22366905Y-13892982D02*
X22366905Y-13792982D01*
X22366905Y-13792982D02*
X22414524Y-13792982D01*
X22457381Y-13892982D02*
X22457381Y-13792982D01*
X22457381Y-13792982D02*
X22481190Y-13792982D01*
X22481190Y-13792982D02*
X22495476Y-13797744D01*
X22495476Y-13797744D02*
X22505000Y-13807268D01*
X22505000Y-13807268D02*
X22509762Y-13816791D01*
X22509762Y-13816791D02*
X22514524Y-13835839D01*
X22514524Y-13835839D02*
X22514524Y-13850125D01*
X22514524Y-13850125D02*
X22509762Y-13869172D01*
X22509762Y-13869172D02*
X22505000Y-13878696D01*
X22505000Y-13878696D02*
X22495476Y-13888220D01*
X22495476Y-13888220D02*
X22481190Y-13892982D01*
X22481190Y-13892982D02*
X22457381Y-13892982D01*
X22533571Y-13902506D02*
X22609762Y-13902506D01*
X22690714Y-13883458D02*
X22685952Y-13888220D01*
X22685952Y-13888220D02*
X22671667Y-13892982D01*
X22671667Y-13892982D02*
X22662143Y-13892982D01*
X22662143Y-13892982D02*
X22647857Y-13888220D01*
X22647857Y-13888220D02*
X22638333Y-13878696D01*
X22638333Y-13878696D02*
X22633571Y-13869172D01*
X22633571Y-13869172D02*
X22628810Y-13850125D01*
X22628810Y-13850125D02*
X22628810Y-13835839D01*
X22628810Y-13835839D02*
X22633571Y-13816791D01*
X22633571Y-13816791D02*
X22638333Y-13807268D01*
X22638333Y-13807268D02*
X22647857Y-13797744D01*
X22647857Y-13797744D02*
X22662143Y-13792982D01*
X22662143Y-13792982D02*
X22671667Y-13792982D01*
X22671667Y-13792982D02*
X22685952Y-13797744D01*
X22685952Y-13797744D02*
X22690714Y-13802506D01*
X22719286Y-13792982D02*
X22776429Y-13792982D01*
X22747857Y-13892982D02*
X22747857Y-13792982D01*
X22866905Y-13892982D02*
X22833571Y-13845363D01*
X22809762Y-13892982D02*
X22809762Y-13792982D01*
X22809762Y-13792982D02*
X22847857Y-13792982D01*
X22847857Y-13792982D02*
X22857381Y-13797744D01*
X22857381Y-13797744D02*
X22862143Y-13802506D01*
X22862143Y-13802506D02*
X22866905Y-13812029D01*
X22866905Y-13812029D02*
X22866905Y-13826315D01*
X22866905Y-13826315D02*
X22862143Y-13835839D01*
X22862143Y-13835839D02*
X22857381Y-13840601D01*
X22857381Y-13840601D02*
X22847857Y-13845363D01*
X22847857Y-13845363D02*
X22809762Y-13845363D01*
X22957381Y-13892982D02*
X22909762Y-13892982D01*
X22909762Y-13892982D02*
X22909762Y-13792982D01*
X23043095Y-13892982D02*
X22985952Y-13892982D01*
X23014524Y-13892982D02*
X23014524Y-13792982D01*
X23014524Y-13792982D02*
X23005000Y-13807268D01*
X23005000Y-13807268D02*
X22995476Y-13816791D01*
X22995476Y-13816791D02*
X22985952Y-13821553D01*
X22019286Y-14002982D02*
X22076429Y-14002982D01*
X22047857Y-14102982D02*
X22047857Y-14002982D01*
X22109762Y-14102982D02*
X22109762Y-14002982D01*
X22109762Y-14002982D02*
X22147857Y-14002982D01*
X22147857Y-14002982D02*
X22157381Y-14007744D01*
X22157381Y-14007744D02*
X22162143Y-14012506D01*
X22162143Y-14012506D02*
X22166905Y-14022029D01*
X22166905Y-14022029D02*
X22166905Y-14036315D01*
X22166905Y-14036315D02*
X22162143Y-14045839D01*
X22162143Y-14045839D02*
X22157381Y-14050601D01*
X22157381Y-14050601D02*
X22147857Y-14055363D01*
X22147857Y-14055363D02*
X22109762Y-14055363D01*
X22185952Y-14112506D02*
X22262143Y-14112506D01*
X22333571Y-14102982D02*
X22285952Y-14102982D01*
X22285952Y-14102982D02*
X22285952Y-14002982D01*
X22366905Y-14050601D02*
X22400238Y-14050601D01*
X22414524Y-14102982D02*
X22366905Y-14102982D01*
X22366905Y-14102982D02*
X22366905Y-14002982D01*
X22366905Y-14002982D02*
X22414524Y-14002982D01*
X22457381Y-14102982D02*
X22457381Y-14002982D01*
X22457381Y-14002982D02*
X22481190Y-14002982D01*
X22481190Y-14002982D02*
X22495476Y-14007744D01*
X22495476Y-14007744D02*
X22505000Y-14017268D01*
X22505000Y-14017268D02*
X22509762Y-14026791D01*
X22509762Y-14026791D02*
X22514524Y-14045839D01*
X22514524Y-14045839D02*
X22514524Y-14060125D01*
X22514524Y-14060125D02*
X22509762Y-14079172D01*
X22509762Y-14079172D02*
X22505000Y-14088696D01*
X22505000Y-14088696D02*
X22495476Y-14098220D01*
X22495476Y-14098220D02*
X22481190Y-14102982D01*
X22481190Y-14102982D02*
X22457381Y-14102982D01*
X22533571Y-14112506D02*
X22609762Y-14112506D01*
X22633571Y-14102982D02*
X22633571Y-14002982D01*
X22633571Y-14002982D02*
X22657381Y-14002982D01*
X22657381Y-14002982D02*
X22671667Y-14007744D01*
X22671667Y-14007744D02*
X22681190Y-14017268D01*
X22681190Y-14017268D02*
X22685952Y-14026791D01*
X22685952Y-14026791D02*
X22690714Y-14045839D01*
X22690714Y-14045839D02*
X22690714Y-14060125D01*
X22690714Y-14060125D02*
X22685952Y-14079172D01*
X22685952Y-14079172D02*
X22681190Y-14088696D01*
X22681190Y-14088696D02*
X22671667Y-14098220D01*
X22671667Y-14098220D02*
X22657381Y-14102982D01*
X22657381Y-14102982D02*
X22633571Y-14102982D01*
X22790714Y-14102982D02*
X22757381Y-14055363D01*
X22733571Y-14102982D02*
X22733571Y-14002982D01*
X22733571Y-14002982D02*
X22771667Y-14002982D01*
X22771667Y-14002982D02*
X22781190Y-14007744D01*
X22781190Y-14007744D02*
X22785952Y-14012506D01*
X22785952Y-14012506D02*
X22790714Y-14022029D01*
X22790714Y-14022029D02*
X22790714Y-14036315D01*
X22790714Y-14036315D02*
X22785952Y-14045839D01*
X22785952Y-14045839D02*
X22781190Y-14050601D01*
X22781190Y-14050601D02*
X22771667Y-14055363D01*
X22771667Y-14055363D02*
X22733571Y-14055363D01*
X22819286Y-14002982D02*
X22852619Y-14102982D01*
X22852619Y-14102982D02*
X22885952Y-14002982D01*
X22971667Y-14102982D02*
X22914524Y-14102982D01*
X22943095Y-14102982D02*
X22943095Y-14002982D01*
X22943095Y-14002982D02*
X22933571Y-14017268D01*
X22933571Y-14017268D02*
X22924048Y-14026791D01*
X22924048Y-14026791D02*
X22914524Y-14031553D01*
X22019286Y-13162982D02*
X22076429Y-13162982D01*
X22047857Y-13262982D02*
X22047857Y-13162982D01*
X22109762Y-13262982D02*
X22109762Y-13162982D01*
X22109762Y-13162982D02*
X22147857Y-13162982D01*
X22147857Y-13162982D02*
X22157381Y-13167744D01*
X22157381Y-13167744D02*
X22162143Y-13172506D01*
X22162143Y-13172506D02*
X22166905Y-13182029D01*
X22166905Y-13182029D02*
X22166905Y-13196315D01*
X22166905Y-13196315D02*
X22162143Y-13205839D01*
X22162143Y-13205839D02*
X22157381Y-13210601D01*
X22157381Y-13210601D02*
X22147857Y-13215363D01*
X22147857Y-13215363D02*
X22109762Y-13215363D01*
X22185952Y-13272506D02*
X22262143Y-13272506D01*
X22338333Y-13167744D02*
X22328810Y-13162982D01*
X22328810Y-13162982D02*
X22314524Y-13162982D01*
X22314524Y-13162982D02*
X22300238Y-13167744D01*
X22300238Y-13167744D02*
X22290714Y-13177268D01*
X22290714Y-13177268D02*
X22285952Y-13186791D01*
X22285952Y-13186791D02*
X22281191Y-13205839D01*
X22281191Y-13205839D02*
X22281191Y-13220125D01*
X22281191Y-13220125D02*
X22285952Y-13239172D01*
X22285952Y-13239172D02*
X22290714Y-13248696D01*
X22290714Y-13248696D02*
X22300238Y-13258220D01*
X22300238Y-13258220D02*
X22314524Y-13262982D01*
X22314524Y-13262982D02*
X22324048Y-13262982D01*
X22324048Y-13262982D02*
X22338333Y-13258220D01*
X22338333Y-13258220D02*
X22343095Y-13253458D01*
X22343095Y-13253458D02*
X22343095Y-13220125D01*
X22343095Y-13220125D02*
X22324048Y-13220125D01*
X22385952Y-13262982D02*
X22385952Y-13162982D01*
X22385952Y-13162982D02*
X22443095Y-13262982D01*
X22443095Y-13262982D02*
X22443095Y-13162982D01*
X22490714Y-13262982D02*
X22490714Y-13162982D01*
X22490714Y-13162982D02*
X22514524Y-13162982D01*
X22514524Y-13162982D02*
X22528809Y-13167744D01*
X22528809Y-13167744D02*
X22538333Y-13177268D01*
X22538333Y-13177268D02*
X22543095Y-13186791D01*
X22543095Y-13186791D02*
X22547857Y-13205839D01*
X22547857Y-13205839D02*
X22547857Y-13220125D01*
X22547857Y-13220125D02*
X22543095Y-13239172D01*
X22543095Y-13239172D02*
X22538333Y-13248696D01*
X22538333Y-13248696D02*
X22528809Y-13258220D01*
X22528809Y-13258220D02*
X22514524Y-13262982D01*
X22514524Y-13262982D02*
X22490714Y-13262982D01*
X22643095Y-13262982D02*
X22585952Y-13262982D01*
X22614524Y-13262982D02*
X22614524Y-13162982D01*
X22614524Y-13162982D02*
X22605000Y-13177268D01*
X22605000Y-13177268D02*
X22595476Y-13186791D01*
X22595476Y-13186791D02*
X22585952Y-13191553D01*
X22019286Y-13372982D02*
X22076429Y-13372982D01*
X22047857Y-13472982D02*
X22047857Y-13372982D01*
X22109762Y-13472982D02*
X22109762Y-13372982D01*
X22109762Y-13372982D02*
X22147857Y-13372982D01*
X22147857Y-13372982D02*
X22157381Y-13377744D01*
X22157381Y-13377744D02*
X22162143Y-13382506D01*
X22162143Y-13382506D02*
X22166905Y-13392029D01*
X22166905Y-13392029D02*
X22166905Y-13406315D01*
X22166905Y-13406315D02*
X22162143Y-13415839D01*
X22162143Y-13415839D02*
X22157381Y-13420601D01*
X22157381Y-13420601D02*
X22147857Y-13425363D01*
X22147857Y-13425363D02*
X22109762Y-13425363D01*
X22185952Y-13482506D02*
X22262143Y-13482506D01*
X22281191Y-13468220D02*
X22295476Y-13472982D01*
X22295476Y-13472982D02*
X22319286Y-13472982D01*
X22319286Y-13472982D02*
X22328810Y-13468220D01*
X22328810Y-13468220D02*
X22333571Y-13463458D01*
X22333571Y-13463458D02*
X22338333Y-13453934D01*
X22338333Y-13453934D02*
X22338333Y-13444410D01*
X22338333Y-13444410D02*
X22333571Y-13434887D01*
X22333571Y-13434887D02*
X22328810Y-13430125D01*
X22328810Y-13430125D02*
X22319286Y-13425363D01*
X22319286Y-13425363D02*
X22300238Y-13420601D01*
X22300238Y-13420601D02*
X22290714Y-13415839D01*
X22290714Y-13415839D02*
X22285952Y-13411077D01*
X22285952Y-13411077D02*
X22281191Y-13401553D01*
X22281191Y-13401553D02*
X22281191Y-13392029D01*
X22281191Y-13392029D02*
X22285952Y-13382506D01*
X22285952Y-13382506D02*
X22290714Y-13377744D01*
X22290714Y-13377744D02*
X22300238Y-13372982D01*
X22300238Y-13372982D02*
X22324048Y-13372982D01*
X22324048Y-13372982D02*
X22338333Y-13377744D01*
X22371667Y-13372982D02*
X22395476Y-13472982D01*
X22395476Y-13472982D02*
X22414524Y-13401553D01*
X22414524Y-13401553D02*
X22433571Y-13472982D01*
X22433571Y-13472982D02*
X22457381Y-13372982D01*
X22495476Y-13472982D02*
X22495476Y-13372982D01*
X22528809Y-13372982D02*
X22585952Y-13372982D01*
X22557381Y-13472982D02*
X22557381Y-13372982D01*
X22676428Y-13463458D02*
X22671667Y-13468220D01*
X22671667Y-13468220D02*
X22657381Y-13472982D01*
X22657381Y-13472982D02*
X22647857Y-13472982D01*
X22647857Y-13472982D02*
X22633571Y-13468220D01*
X22633571Y-13468220D02*
X22624048Y-13458696D01*
X22624048Y-13458696D02*
X22619286Y-13449172D01*
X22619286Y-13449172D02*
X22614524Y-13430125D01*
X22614524Y-13430125D02*
X22614524Y-13415839D01*
X22614524Y-13415839D02*
X22619286Y-13396791D01*
X22619286Y-13396791D02*
X22624048Y-13387268D01*
X22624048Y-13387268D02*
X22633571Y-13377744D01*
X22633571Y-13377744D02*
X22647857Y-13372982D01*
X22647857Y-13372982D02*
X22657381Y-13372982D01*
X22657381Y-13372982D02*
X22671667Y-13377744D01*
X22671667Y-13377744D02*
X22676428Y-13382506D01*
X22719286Y-13472982D02*
X22719286Y-13372982D01*
X22719286Y-13420601D02*
X22776428Y-13420601D01*
X22776428Y-13472982D02*
X22776428Y-13372982D01*
X22272143Y-13345220D02*
X22790238Y-13345220D01*
X22876428Y-13472982D02*
X22819286Y-13472982D01*
X22847857Y-13472982D02*
X22847857Y-13372982D01*
X22847857Y-13372982D02*
X22838333Y-13387268D01*
X22838333Y-13387268D02*
X22828809Y-13396791D01*
X22828809Y-13396791D02*
X22819286Y-13401553D01*
M02*
