%TF.GenerationSoftware,KiCad,Pcbnew,9.0.4*%
%TF.CreationDate,2025-09-02T11:28:22-07:00*%
%TF.ProjectId,salt_booklamp,73616c74-5f62-46f6-9f6b-6c616d702e6b,5*%
%TF.SameCoordinates,Original*%
%TF.FileFunction,Soldermask,Bot*%
%TF.FilePolarity,Negative*%
%FSLAX45Y45*%
G04 Gerber Fmt 4.5, Leading zero omitted, Abs format (unit mm)*
G04 Created by KiCad (PCBNEW 9.0.4) date 2025-09-02 11:28:22*
%MOMM*%
%LPD*%
G01*
G04 APERTURE LIST*
G04 Aperture macros list*
%AMRoundRect*
0 Rectangle with rounded corners*
0 $1 Rounding radius*
0 $2 $3 $4 $5 $6 $7 $8 $9 X,Y pos of 4 corners*
0 Add a 4 corners polygon primitive as box body*
4,1,4,$2,$3,$4,$5,$6,$7,$8,$9,$2,$3,0*
0 Add four circle primitives for the rounded corners*
1,1,$1+$1,$2,$3*
1,1,$1+$1,$4,$5*
1,1,$1+$1,$6,$7*
1,1,$1+$1,$8,$9*
0 Add four rect primitives between the rounded corners*
20,1,$1+$1,$2,$3,$4,$5,0*
20,1,$1+$1,$4,$5,$6,$7,0*
20,1,$1+$1,$6,$7,$8,$9,0*
20,1,$1+$1,$8,$9,$2,$3,0*%
G04 Aperture macros list end*
%ADD10C,0.150000*%
%ADD11C,1.500000*%
%ADD12RoundRect,0.140000X0.170000X-0.140000X0.170000X0.140000X-0.170000X0.140000X-0.170000X-0.140000X0*%
%ADD13RoundRect,0.135000X-0.185000X0.135000X-0.185000X-0.135000X0.185000X-0.135000X0.185000X0.135000X0*%
%ADD14RoundRect,0.135000X0.185000X-0.135000X0.185000X0.135000X-0.185000X0.135000X-0.185000X-0.135000X0*%
%ADD15RoundRect,0.140000X0.140000X0.170000X-0.140000X0.170000X-0.140000X-0.170000X0.140000X-0.170000X0*%
%ADD16C,1.600000*%
%ADD17RoundRect,0.030000X0.120000X0.195000X-0.120000X0.195000X-0.120000X-0.195000X0.120000X-0.195000X0*%
%ADD18C,0.500000*%
%ADD19RoundRect,0.100000X0.700000X0.400000X-0.700000X0.400000X-0.700000X-0.400000X0.700000X-0.400000X0*%
%ADD20RoundRect,0.050000X-0.250000X-0.500000X0.250000X-0.500000X0.250000X0.500000X-0.250000X0.500000X0*%
%ADD21RoundRect,0.135000X-0.135000X-0.185000X0.135000X-0.185000X0.135000X0.185000X-0.135000X0.185000X0*%
%ADD22R,0.650000X0.350000*%
%ADD23R,1.550000X2.400000*%
%ADD24RoundRect,0.135000X0.135000X0.185000X-0.135000X0.185000X-0.135000X-0.185000X0.135000X-0.185000X0*%
%ADD25RoundRect,0.250000X1.250000X-0.250000X1.250000X0.250000X-1.250000X0.250000X-1.250000X-0.250000X0*%
%ADD26RoundRect,0.140000X-0.140000X-0.170000X0.140000X-0.170000X0.140000X0.170000X-0.140000X0.170000X0*%
%ADD27RoundRect,0.250000X-0.350000X-0.625000X0.350000X-0.625000X0.350000X0.625000X-0.350000X0.625000X0*%
%ADD28O,1.200000X1.750000*%
%ADD29RoundRect,0.140000X-0.170000X0.140000X-0.170000X-0.140000X0.170000X-0.140000X0.170000X0.140000X0*%
%ADD30C,0.650000*%
%ADD31R,1.700000X2.100000*%
%ADD32O,1.000000X1.600000*%
%ADD33R,0.350000X1.100000*%
G04 APERTURE END LIST*
D10*
X22769380Y-11111480D02*
X22921780Y-11111480D01*
X22921780Y-11230860D01*
X22769380Y-11230860D01*
X22769380Y-11111480D01*
G36*
X22769380Y-11111480D02*
G01*
X22921780Y-11111480D01*
X22921780Y-11230860D01*
X22769380Y-11230860D01*
X22769380Y-11111480D01*
G37*
X22618720Y-10948920D02*
X22921780Y-10948920D01*
X22921780Y-11068300D01*
X22618720Y-11068300D01*
X22618720Y-10948920D01*
G36*
X22618720Y-10948920D02*
G01*
X22921780Y-10948920D01*
X22921780Y-11068300D01*
X22618720Y-11068300D01*
X22618720Y-10948920D01*
G37*
X22611100Y-10781280D02*
X23045300Y-10781280D01*
X23045300Y-10903200D01*
X22611100Y-10903200D01*
X22611100Y-10781280D01*
G36*
X22611100Y-10781280D02*
G01*
X23045300Y-10781280D01*
X23045300Y-10903200D01*
X22611100Y-10903200D01*
X22611100Y-10781280D01*
G37*
D11*
%TO.C,TP_~{CHARGING}1*%
X21892500Y-13632500D03*
%TD*%
%TO.C,TP_3.7V_BATT1*%
X21892500Y-13002500D03*
%TD*%
%TO.C,TP_5V_USB1*%
X21892500Y-12792500D03*
%TD*%
%TO.C,TP_LED_CTRL1*%
X21892500Y-13842500D03*
%TD*%
%TO.C,TP_LED_DRV1*%
X21892500Y-14052500D03*
%TD*%
%TO.C,TP_GND1*%
X21892500Y-13212500D03*
%TD*%
%TO.C,TP_~{SWITCH}1*%
X21892500Y-13422500D03*
%TD*%
D12*
%TO.C,C1*%
X22192500Y-14765500D03*
X22192500Y-14669500D03*
%TD*%
D13*
%TO.C,R10*%
X22570000Y-14885000D03*
X22570000Y-14987000D03*
%TD*%
D14*
%TO.C,R2*%
X20347500Y-14506000D03*
X20347500Y-14404000D03*
%TD*%
D15*
%TO.C,C2*%
X24305200Y-15053200D03*
X24209200Y-15053200D03*
%TD*%
D16*
%TO.C,S1*%
X21858200Y-14818200D03*
X21608200Y-14488200D03*
X21358200Y-14818200D03*
%TD*%
D17*
%TO.C,U3*%
X20683200Y-14600700D03*
X20618200Y-14600700D03*
X20553200Y-14600700D03*
X20553200Y-14405700D03*
X20618200Y-14405700D03*
X20683200Y-14405700D03*
D18*
X20563200Y-14503200D03*
D19*
X20618200Y-14503200D03*
D18*
X20673200Y-14503200D03*
%TD*%
D20*
%TO.C,U2*%
X22343200Y-14503200D03*
X22438200Y-14503200D03*
X22533200Y-14503200D03*
X22533200Y-14763200D03*
X22438200Y-14763200D03*
X22343200Y-14763200D03*
%TD*%
D21*
%TO.C,R5*%
X20836500Y-14790000D03*
X20938500Y-14790000D03*
%TD*%
D22*
%TO.C,U1*%
X20379750Y-14922250D03*
X20379750Y-14857250D03*
X20379750Y-14792250D03*
X20379750Y-14727250D03*
X20689750Y-14727250D03*
X20689750Y-14792250D03*
X20689750Y-14857250D03*
D23*
X20534750Y-14824750D03*
D22*
X20689750Y-14922250D03*
%TD*%
D24*
%TO.C,R6*%
X22577000Y-14365000D03*
X22475000Y-14365000D03*
%TD*%
D25*
%TO.C,L1*%
X20938200Y-14653200D03*
X20938200Y-14453200D03*
%TD*%
D26*
%TO.C,C3*%
X20590200Y-15053200D03*
X20686200Y-15053200D03*
%TD*%
D27*
%TO.C,BATT1*%
X24088200Y-14848200D03*
D28*
X24288200Y-14848200D03*
%TD*%
D13*
%TO.C,R9*%
X22467500Y-14885000D03*
X22467500Y-14987000D03*
%TD*%
D14*
%TO.C,R3*%
X20251242Y-14687483D03*
X20251242Y-14585483D03*
%TD*%
D12*
%TO.C,C4*%
X20442500Y-14505500D03*
X20442500Y-14409500D03*
%TD*%
D24*
%TO.C,R1*%
X22375000Y-14365000D03*
X22273000Y-14365000D03*
%TD*%
D29*
%TO.C,C5*%
X21047500Y-14787000D03*
X21047500Y-14883000D03*
%TD*%
D24*
%TO.C,R4*%
X20445159Y-14599981D03*
X20343159Y-14599981D03*
%TD*%
D14*
%TO.C,R8*%
X20252594Y-14497537D03*
X20252594Y-14395537D03*
%TD*%
D30*
%TO.C,J1*%
X23645700Y-14579200D03*
X22900700Y-14579200D03*
D31*
X23778200Y-14984200D03*
D32*
X23723200Y-14429200D03*
X22823200Y-14429200D03*
D31*
X22768200Y-14984200D03*
D33*
X23548200Y-14378200D03*
X23498200Y-14378200D03*
X23448200Y-14378200D03*
X23398200Y-14378200D03*
X23348200Y-14378200D03*
X23298200Y-14378200D03*
X23248200Y-14378200D03*
X23198200Y-14378200D03*
X23148200Y-14378200D03*
X23098200Y-14378200D03*
X23048200Y-14378200D03*
X22998200Y-14378200D03*
D30*
X22968200Y-14509200D03*
X23033200Y-14579200D03*
X23113200Y-14579200D03*
X23153200Y-14509200D03*
X23193200Y-14577200D03*
X23233200Y-14509200D03*
X23313200Y-14509200D03*
X23353200Y-14577200D03*
X23393200Y-14509200D03*
X23433200Y-14579200D03*
X23513200Y-14579200D03*
X23578200Y-14509200D03*
%TD*%
M02*
