%TF.GenerationSoftware,KiCad,Pcbnew,9.0.4*%
%TF.CreationDate,2025-09-02T11:28:22-07:00*%
%TF.ProjectId,salt_booklamp,73616c74-5f62-46f6-9f6b-6c616d702e6b,5*%
%TF.SameCoordinates,Original*%
%TF.FileFunction,OtherDrawing,Comment*%
%FSLAX45Y45*%
G04 Gerber Fmt 4.5, Leading zero omitted, Abs format (unit mm)*
G04 Created by KiCad (PCBNEW 9.0.4) date 2025-09-02 11:28:22*
%MOMM*%
%LPD*%
G01*
G04 APERTURE LIST*
%ADD10C,0.150000*%
%ADD11C,0.100000*%
G04 APERTURE END LIST*
D10*
X22009664Y-16226315D02*
X22009664Y-16292982D01*
X21985855Y-16188220D02*
X21962045Y-16259648D01*
X21962045Y-16259648D02*
X22023950Y-16259648D01*
X22109664Y-16192982D02*
X22062045Y-16192982D01*
X22062045Y-16192982D02*
X22057283Y-16240601D01*
X22057283Y-16240601D02*
X22062045Y-16235839D01*
X22062045Y-16235839D02*
X22071569Y-16231077D01*
X22071569Y-16231077D02*
X22095379Y-16231077D01*
X22095379Y-16231077D02*
X22104902Y-16235839D01*
X22104902Y-16235839D02*
X22109664Y-16240601D01*
X22109664Y-16240601D02*
X22114426Y-16250125D01*
X22114426Y-16250125D02*
X22114426Y-16273934D01*
X22114426Y-16273934D02*
X22109664Y-16283458D01*
X22109664Y-16283458D02*
X22104902Y-16288220D01*
X22104902Y-16288220D02*
X22095379Y-16292982D01*
X22095379Y-16292982D02*
X22071569Y-16292982D01*
X22071569Y-16292982D02*
X22062045Y-16288220D01*
X22062045Y-16288220D02*
X22057283Y-16283458D01*
X22157283Y-16283458D02*
X22162045Y-16288220D01*
X22162045Y-16288220D02*
X22157283Y-16292982D01*
X22157283Y-16292982D02*
X22152522Y-16288220D01*
X22152522Y-16288220D02*
X22157283Y-16283458D01*
X22157283Y-16283458D02*
X22157283Y-16292982D01*
X22223950Y-16192982D02*
X22233474Y-16192982D01*
X22233474Y-16192982D02*
X22242998Y-16197744D01*
X22242998Y-16197744D02*
X22247760Y-16202506D01*
X22247760Y-16202506D02*
X22252521Y-16212029D01*
X22252521Y-16212029D02*
X22257283Y-16231077D01*
X22257283Y-16231077D02*
X22257283Y-16254887D01*
X22257283Y-16254887D02*
X22252521Y-16273934D01*
X22252521Y-16273934D02*
X22247760Y-16283458D01*
X22247760Y-16283458D02*
X22242998Y-16288220D01*
X22242998Y-16288220D02*
X22233474Y-16292982D01*
X22233474Y-16292982D02*
X22223950Y-16292982D01*
X22223950Y-16292982D02*
X22214426Y-16288220D01*
X22214426Y-16288220D02*
X22209664Y-16283458D01*
X22209664Y-16283458D02*
X22204902Y-16273934D01*
X22204902Y-16273934D02*
X22200141Y-16254887D01*
X22200141Y-16254887D02*
X22200141Y-16231077D01*
X22200141Y-16231077D02*
X22204902Y-16212029D01*
X22204902Y-16212029D02*
X22209664Y-16202506D01*
X22209664Y-16202506D02*
X22214426Y-16197744D01*
X22214426Y-16197744D02*
X22223950Y-16192982D01*
X22314426Y-16235839D02*
X22304902Y-16231077D01*
X22304902Y-16231077D02*
X22300141Y-16226315D01*
X22300141Y-16226315D02*
X22295379Y-16216791D01*
X22295379Y-16216791D02*
X22295379Y-16212029D01*
X22295379Y-16212029D02*
X22300141Y-16202506D01*
X22300141Y-16202506D02*
X22304902Y-16197744D01*
X22304902Y-16197744D02*
X22314426Y-16192982D01*
X22314426Y-16192982D02*
X22333474Y-16192982D01*
X22333474Y-16192982D02*
X22342998Y-16197744D01*
X22342998Y-16197744D02*
X22347760Y-16202506D01*
X22347760Y-16202506D02*
X22352521Y-16212029D01*
X22352521Y-16212029D02*
X22352521Y-16216791D01*
X22352521Y-16216791D02*
X22347760Y-16226315D01*
X22347760Y-16226315D02*
X22342998Y-16231077D01*
X22342998Y-16231077D02*
X22333474Y-16235839D01*
X22333474Y-16235839D02*
X22314426Y-16235839D01*
X22314426Y-16235839D02*
X22304902Y-16240601D01*
X22304902Y-16240601D02*
X22300141Y-16245363D01*
X22300141Y-16245363D02*
X22295379Y-16254887D01*
X22295379Y-16254887D02*
X22295379Y-16273934D01*
X22295379Y-16273934D02*
X22300141Y-16283458D01*
X22300141Y-16283458D02*
X22304902Y-16288220D01*
X22304902Y-16288220D02*
X22314426Y-16292982D01*
X22314426Y-16292982D02*
X22333474Y-16292982D01*
X22333474Y-16292982D02*
X22342998Y-16288220D01*
X22342998Y-16288220D02*
X22347760Y-16283458D01*
X22347760Y-16283458D02*
X22352521Y-16273934D01*
X22352521Y-16273934D02*
X22352521Y-16254887D01*
X22352521Y-16254887D02*
X22347760Y-16245363D01*
X22347760Y-16245363D02*
X22342998Y-16240601D01*
X22342998Y-16240601D02*
X22333474Y-16235839D01*
X22442998Y-16192982D02*
X22395379Y-16192982D01*
X22395379Y-16192982D02*
X22390617Y-16240601D01*
X22390617Y-16240601D02*
X22395379Y-16235839D01*
X22395379Y-16235839D02*
X22404902Y-16231077D01*
X22404902Y-16231077D02*
X22428712Y-16231077D01*
X22428712Y-16231077D02*
X22438236Y-16235839D01*
X22438236Y-16235839D02*
X22442998Y-16240601D01*
X22442998Y-16240601D02*
X22447759Y-16250125D01*
X22447759Y-16250125D02*
X22447759Y-16273934D01*
X22447759Y-16273934D02*
X22442998Y-16283458D01*
X22442998Y-16283458D02*
X22438236Y-16288220D01*
X22438236Y-16288220D02*
X22428712Y-16292982D01*
X22428712Y-16292982D02*
X22404902Y-16292982D01*
X22404902Y-16292982D02*
X22395379Y-16288220D01*
X22395379Y-16288220D02*
X22390617Y-16283458D01*
X22509664Y-16192982D02*
X22519188Y-16192982D01*
X22519188Y-16192982D02*
X22528712Y-16197744D01*
X22528712Y-16197744D02*
X22533474Y-16202506D01*
X22533474Y-16202506D02*
X22538236Y-16212029D01*
X22538236Y-16212029D02*
X22542998Y-16231077D01*
X22542998Y-16231077D02*
X22542998Y-16254887D01*
X22542998Y-16254887D02*
X22538236Y-16273934D01*
X22538236Y-16273934D02*
X22533474Y-16283458D01*
X22533474Y-16283458D02*
X22528712Y-16288220D01*
X22528712Y-16288220D02*
X22519188Y-16292982D01*
X22519188Y-16292982D02*
X22509664Y-16292982D01*
X22509664Y-16292982D02*
X22500140Y-16288220D01*
X22500140Y-16288220D02*
X22495379Y-16283458D01*
X22495379Y-16283458D02*
X22490617Y-16273934D01*
X22490617Y-16273934D02*
X22485855Y-16254887D01*
X22485855Y-16254887D02*
X22485855Y-16231077D01*
X22485855Y-16231077D02*
X22490617Y-16212029D01*
X22490617Y-16212029D02*
X22495379Y-16202506D01*
X22495379Y-16202506D02*
X22500140Y-16197744D01*
X22500140Y-16197744D02*
X22509664Y-16192982D01*
X22662045Y-16292982D02*
X22662045Y-16226315D01*
X22662045Y-16235839D02*
X22666807Y-16231077D01*
X22666807Y-16231077D02*
X22676331Y-16226315D01*
X22676331Y-16226315D02*
X22690617Y-16226315D01*
X22690617Y-16226315D02*
X22700140Y-16231077D01*
X22700140Y-16231077D02*
X22704902Y-16240601D01*
X22704902Y-16240601D02*
X22704902Y-16292982D01*
X22704902Y-16240601D02*
X22709664Y-16231077D01*
X22709664Y-16231077D02*
X22719188Y-16226315D01*
X22719188Y-16226315D02*
X22733474Y-16226315D01*
X22733474Y-16226315D02*
X22742998Y-16231077D01*
X22742998Y-16231077D02*
X22747760Y-16240601D01*
X22747760Y-16240601D02*
X22747760Y-16292982D01*
X22795379Y-16292982D02*
X22795379Y-16226315D01*
X22795379Y-16235839D02*
X22800140Y-16231077D01*
X22800140Y-16231077D02*
X22809664Y-16226315D01*
X22809664Y-16226315D02*
X22823950Y-16226315D01*
X22823950Y-16226315D02*
X22833474Y-16231077D01*
X22833474Y-16231077D02*
X22838236Y-16240601D01*
X22838236Y-16240601D02*
X22838236Y-16292982D01*
X22838236Y-16240601D02*
X22842998Y-16231077D01*
X22842998Y-16231077D02*
X22852521Y-16226315D01*
X22852521Y-16226315D02*
X22866807Y-16226315D01*
X22866807Y-16226315D02*
X22876331Y-16231077D01*
X22876331Y-16231077D02*
X22881093Y-16240601D01*
X22881093Y-16240601D02*
X22881093Y-16292982D01*
D11*
X20169700Y-14699450D02*
X20169700Y-16421142D01*
X24678200Y-16421142D02*
X24678200Y-14699450D01*
X20169700Y-16362500D02*
X24678200Y-16362500D01*
X20169700Y-16362500D02*
X20282350Y-16303858D01*
X20169700Y-16362500D02*
X20282350Y-16421142D01*
X24678200Y-16362500D02*
X24565550Y-16421142D01*
X24678200Y-16362500D02*
X24565550Y-16303858D01*
D10*
X25801315Y-13317486D02*
X25867982Y-13317486D01*
X25763220Y-13341295D02*
X25834648Y-13365105D01*
X25834648Y-13365105D02*
X25834648Y-13303200D01*
X25767982Y-13217486D02*
X25767982Y-13265105D01*
X25767982Y-13265105D02*
X25815601Y-13269867D01*
X25815601Y-13269867D02*
X25810839Y-13265105D01*
X25810839Y-13265105D02*
X25806077Y-13255581D01*
X25806077Y-13255581D02*
X25806077Y-13231771D01*
X25806077Y-13231771D02*
X25810839Y-13222248D01*
X25810839Y-13222248D02*
X25815601Y-13217486D01*
X25815601Y-13217486D02*
X25825125Y-13212724D01*
X25825125Y-13212724D02*
X25848934Y-13212724D01*
X25848934Y-13212724D02*
X25858458Y-13217486D01*
X25858458Y-13217486D02*
X25863220Y-13222248D01*
X25863220Y-13222248D02*
X25867982Y-13231771D01*
X25867982Y-13231771D02*
X25867982Y-13255581D01*
X25867982Y-13255581D02*
X25863220Y-13265105D01*
X25863220Y-13265105D02*
X25858458Y-13269867D01*
X25858458Y-13169867D02*
X25863220Y-13165105D01*
X25863220Y-13165105D02*
X25867982Y-13169867D01*
X25867982Y-13169867D02*
X25863220Y-13174628D01*
X25863220Y-13174628D02*
X25858458Y-13169867D01*
X25858458Y-13169867D02*
X25867982Y-13169867D01*
X25767982Y-13103200D02*
X25767982Y-13093676D01*
X25767982Y-13093676D02*
X25772744Y-13084152D01*
X25772744Y-13084152D02*
X25777506Y-13079390D01*
X25777506Y-13079390D02*
X25787029Y-13074629D01*
X25787029Y-13074629D02*
X25806077Y-13069867D01*
X25806077Y-13069867D02*
X25829887Y-13069867D01*
X25829887Y-13069867D02*
X25848934Y-13074629D01*
X25848934Y-13074629D02*
X25858458Y-13079390D01*
X25858458Y-13079390D02*
X25863220Y-13084152D01*
X25863220Y-13084152D02*
X25867982Y-13093676D01*
X25867982Y-13093676D02*
X25867982Y-13103200D01*
X25867982Y-13103200D02*
X25863220Y-13112724D01*
X25863220Y-13112724D02*
X25858458Y-13117486D01*
X25858458Y-13117486D02*
X25848934Y-13122248D01*
X25848934Y-13122248D02*
X25829887Y-13127009D01*
X25829887Y-13127009D02*
X25806077Y-13127009D01*
X25806077Y-13127009D02*
X25787029Y-13122248D01*
X25787029Y-13122248D02*
X25777506Y-13117486D01*
X25777506Y-13117486D02*
X25772744Y-13112724D01*
X25772744Y-13112724D02*
X25767982Y-13103200D01*
X25810839Y-13012724D02*
X25806077Y-13022248D01*
X25806077Y-13022248D02*
X25801315Y-13027009D01*
X25801315Y-13027009D02*
X25791791Y-13031771D01*
X25791791Y-13031771D02*
X25787029Y-13031771D01*
X25787029Y-13031771D02*
X25777506Y-13027009D01*
X25777506Y-13027009D02*
X25772744Y-13022248D01*
X25772744Y-13022248D02*
X25767982Y-13012724D01*
X25767982Y-13012724D02*
X25767982Y-12993676D01*
X25767982Y-12993676D02*
X25772744Y-12984152D01*
X25772744Y-12984152D02*
X25777506Y-12979390D01*
X25777506Y-12979390D02*
X25787029Y-12974629D01*
X25787029Y-12974629D02*
X25791791Y-12974629D01*
X25791791Y-12974629D02*
X25801315Y-12979390D01*
X25801315Y-12979390D02*
X25806077Y-12984152D01*
X25806077Y-12984152D02*
X25810839Y-12993676D01*
X25810839Y-12993676D02*
X25810839Y-13012724D01*
X25810839Y-13012724D02*
X25815601Y-13022248D01*
X25815601Y-13022248D02*
X25820363Y-13027009D01*
X25820363Y-13027009D02*
X25829887Y-13031771D01*
X25829887Y-13031771D02*
X25848934Y-13031771D01*
X25848934Y-13031771D02*
X25858458Y-13027009D01*
X25858458Y-13027009D02*
X25863220Y-13022248D01*
X25863220Y-13022248D02*
X25867982Y-13012724D01*
X25867982Y-13012724D02*
X25867982Y-12993676D01*
X25867982Y-12993676D02*
X25863220Y-12984152D01*
X25863220Y-12984152D02*
X25858458Y-12979390D01*
X25858458Y-12979390D02*
X25848934Y-12974629D01*
X25848934Y-12974629D02*
X25829887Y-12974629D01*
X25829887Y-12974629D02*
X25820363Y-12979390D01*
X25820363Y-12979390D02*
X25815601Y-12984152D01*
X25815601Y-12984152D02*
X25810839Y-12993676D01*
X25767982Y-12884152D02*
X25767982Y-12931771D01*
X25767982Y-12931771D02*
X25815601Y-12936533D01*
X25815601Y-12936533D02*
X25810839Y-12931771D01*
X25810839Y-12931771D02*
X25806077Y-12922248D01*
X25806077Y-12922248D02*
X25806077Y-12898438D01*
X25806077Y-12898438D02*
X25810839Y-12888914D01*
X25810839Y-12888914D02*
X25815601Y-12884152D01*
X25815601Y-12884152D02*
X25825125Y-12879390D01*
X25825125Y-12879390D02*
X25848934Y-12879390D01*
X25848934Y-12879390D02*
X25858458Y-12884152D01*
X25858458Y-12884152D02*
X25863220Y-12888914D01*
X25863220Y-12888914D02*
X25867982Y-12898438D01*
X25867982Y-12898438D02*
X25867982Y-12922248D01*
X25867982Y-12922248D02*
X25863220Y-12931771D01*
X25863220Y-12931771D02*
X25858458Y-12936533D01*
X25767982Y-12817486D02*
X25767982Y-12807962D01*
X25767982Y-12807962D02*
X25772744Y-12798438D01*
X25772744Y-12798438D02*
X25777506Y-12793676D01*
X25777506Y-12793676D02*
X25787029Y-12788914D01*
X25787029Y-12788914D02*
X25806077Y-12784152D01*
X25806077Y-12784152D02*
X25829887Y-12784152D01*
X25829887Y-12784152D02*
X25848934Y-12788914D01*
X25848934Y-12788914D02*
X25858458Y-12793676D01*
X25858458Y-12793676D02*
X25863220Y-12798438D01*
X25863220Y-12798438D02*
X25867982Y-12807962D01*
X25867982Y-12807962D02*
X25867982Y-12817486D01*
X25867982Y-12817486D02*
X25863220Y-12827009D01*
X25863220Y-12827009D02*
X25858458Y-12831771D01*
X25858458Y-12831771D02*
X25848934Y-12836533D01*
X25848934Y-12836533D02*
X25829887Y-12841295D01*
X25829887Y-12841295D02*
X25806077Y-12841295D01*
X25806077Y-12841295D02*
X25787029Y-12836533D01*
X25787029Y-12836533D02*
X25777506Y-12831771D01*
X25777506Y-12831771D02*
X25772744Y-12827009D01*
X25772744Y-12827009D02*
X25767982Y-12817486D01*
X25867982Y-12665105D02*
X25801315Y-12665105D01*
X25810839Y-12665105D02*
X25806077Y-12660343D01*
X25806077Y-12660343D02*
X25801315Y-12650819D01*
X25801315Y-12650819D02*
X25801315Y-12636533D01*
X25801315Y-12636533D02*
X25806077Y-12627009D01*
X25806077Y-12627009D02*
X25815601Y-12622248D01*
X25815601Y-12622248D02*
X25867982Y-12622248D01*
X25815601Y-12622248D02*
X25806077Y-12617486D01*
X25806077Y-12617486D02*
X25801315Y-12607962D01*
X25801315Y-12607962D02*
X25801315Y-12593676D01*
X25801315Y-12593676D02*
X25806077Y-12584152D01*
X25806077Y-12584152D02*
X25815601Y-12579390D01*
X25815601Y-12579390D02*
X25867982Y-12579390D01*
X25867982Y-12531771D02*
X25801315Y-12531771D01*
X25810839Y-12531771D02*
X25806077Y-12527009D01*
X25806077Y-12527009D02*
X25801315Y-12517486D01*
X25801315Y-12517486D02*
X25801315Y-12503200D01*
X25801315Y-12503200D02*
X25806077Y-12493676D01*
X25806077Y-12493676D02*
X25815601Y-12488914D01*
X25815601Y-12488914D02*
X25867982Y-12488914D01*
X25815601Y-12488914D02*
X25806077Y-12484152D01*
X25806077Y-12484152D02*
X25801315Y-12474629D01*
X25801315Y-12474629D02*
X25801315Y-12460343D01*
X25801315Y-12460343D02*
X25806077Y-12450819D01*
X25806077Y-12450819D02*
X25815601Y-12446057D01*
X25815601Y-12446057D02*
X25867982Y-12446057D01*
D11*
X24220200Y-10648950D02*
X25996142Y-10648950D01*
X25996142Y-15157450D02*
X24220200Y-15157450D01*
X25937500Y-10648950D02*
X25937500Y-15157450D01*
X25937500Y-10648950D02*
X25996142Y-10761601D01*
X25937500Y-10648950D02*
X25878858Y-10761601D01*
X25937500Y-15157450D02*
X25878858Y-15044800D01*
X25937500Y-15157450D02*
X25996142Y-15044800D01*
M02*
