%TF.GenerationSoftware,KiCad,Pcbnew,9.0.4*%
%TF.CreationDate,2025-09-02T11:28:22-07:00*%
%TF.ProjectId,salt_booklamp,73616c74-5f62-46f6-9f6b-6c616d702e6b,5*%
%TF.SameCoordinates,Original*%
%TF.FileFunction,Soldermask,Top*%
%TF.FilePolarity,Negative*%
%FSLAX45Y45*%
G04 Gerber Fmt 4.5, Leading zero omitted, Abs format (unit mm)*
G04 Created by KiCad (PCBNEW 9.0.4) date 2025-09-02 11:28:22*
%MOMM*%
%LPD*%
G01*
G04 APERTURE LIST*
G04 Aperture macros list*
%AMRoundRect*
0 Rectangle with rounded corners*
0 $1 Rounding radius*
0 $2 $3 $4 $5 $6 $7 $8 $9 X,Y pos of 4 corners*
0 Add a 4 corners polygon primitive as box body*
4,1,4,$2,$3,$4,$5,$6,$7,$8,$9,$2,$3,0*
0 Add four circle primitives for the rounded corners*
1,1,$1+$1,$2,$3*
1,1,$1+$1,$4,$5*
1,1,$1+$1,$6,$7*
1,1,$1+$1,$8,$9*
0 Add four rect primitives between the rounded corners*
20,1,$1+$1,$2,$3,$4,$5,0*
20,1,$1+$1,$4,$5,$6,$7,0*
20,1,$1+$1,$6,$7,$8,$9,0*
20,1,$1+$1,$8,$9,$2,$3,0*%
G04 Aperture macros list end*
%ADD10RoundRect,0.200000X0.200000X-0.500000X0.200000X0.500000X-0.200000X0.500000X-0.200000X-0.500000X0*%
%ADD11RoundRect,0.200000X-0.200000X0.500000X-0.200000X-0.500000X0.200000X-0.500000X0.200000X0.500000X0*%
%ADD12C,1.500000*%
%ADD13C,0.787400*%
%ADD14C,1.600000*%
%ADD15C,0.500000*%
%ADD16RoundRect,0.250000X-0.350000X-0.625000X0.350000X-0.625000X0.350000X0.625000X-0.350000X0.625000X0*%
%ADD17O,1.200000X1.750000*%
%ADD18C,0.650000*%
%ADD19O,1.000000X1.600000*%
G04 APERTURE END LIST*
D10*
%TO.C,LED1*%
X20300000Y-11483200D03*
D11*
X20300000Y-11723200D03*
%TD*%
D12*
%TO.C,TP_~{CHARGING}1*%
X21892500Y-13632500D03*
%TD*%
%TO.C,TP_3.7V_BATT1*%
X21892500Y-13002500D03*
%TD*%
%TO.C,TP_5V_USB1*%
X21892500Y-12792500D03*
%TD*%
D13*
%TO.C,P1*%
X20950500Y-13827000D03*
X21077500Y-13827000D03*
X21207500Y-13827000D03*
X21327500Y-13827000D03*
X21447500Y-13827000D03*
X21447500Y-13700000D03*
X21327500Y-13700000D03*
X21207500Y-13700000D03*
X21077500Y-13700000D03*
X20950500Y-13700000D03*
%TD*%
D12*
%TO.C,TP_LED_CTRL1*%
X21892500Y-13842500D03*
%TD*%
%TO.C,TP_LED_DRV1*%
X21892500Y-14052500D03*
%TD*%
%TO.C,TP_GND1*%
X21892500Y-13212500D03*
%TD*%
%TO.C,TP_~{SWITCH}1*%
X21892500Y-13422500D03*
%TD*%
D10*
%TO.C,LED3*%
X20300000Y-12778200D03*
D11*
X20300000Y-13018200D03*
%TD*%
D10*
%TO.C,LED2*%
X20300000Y-14083200D03*
D11*
X20300000Y-14323200D03*
%TD*%
D14*
%TO.C,S1*%
X21858200Y-14818200D03*
X21608200Y-14488200D03*
X21358200Y-14818200D03*
%TD*%
D15*
%TO.C,U3*%
X20563200Y-14503200D03*
X20673200Y-14503200D03*
%TD*%
D16*
%TO.C,BATT1*%
X24088200Y-14848200D03*
D17*
X24288200Y-14848200D03*
%TD*%
D18*
%TO.C,J1*%
X23645700Y-14579200D03*
X22900700Y-14579200D03*
D19*
X23723200Y-14429200D03*
X22823200Y-14429200D03*
D18*
X22968200Y-14509200D03*
X23033200Y-14579200D03*
X23113200Y-14579200D03*
X23153200Y-14509200D03*
X23193200Y-14577200D03*
X23233200Y-14509200D03*
X23313200Y-14509200D03*
X23353200Y-14577200D03*
X23393200Y-14509200D03*
X23433200Y-14579200D03*
X23513200Y-14579200D03*
X23578200Y-14509200D03*
%TD*%
M02*
