%TF.GenerationSoftware,KiCad,Pcbnew,9.0.4*%
%TF.CreationDate,2025-09-02T11:28:22-07:00*%
%TF.ProjectId,salt_booklamp,73616c74-5f62-46f6-9f6b-6c616d702e6b,5*%
%TF.SameCoordinates,Original*%
%TF.FileFunction,Legend,Bot*%
%TF.FilePolarity,Positive*%
%FSLAX45Y45*%
G04 Gerber Fmt 4.5, Leading zero omitted, Abs format (unit mm)*
G04 Created by KiCad (PCBNEW 9.0.4) date 2025-09-02 11:28:22*
%MOMM*%
%LPD*%
G01*
G04 APERTURE LIST*
%ADD10C,0.120000*%
%ADD11C,0.100000*%
%ADD12C,0.200000*%
%ADD13C,0.273607*%
G04 APERTURE END LIST*
D10*
%TO.C,C1*%
X22156500Y-14728284D02*
X22156500Y-14706716D01*
X22228500Y-14728284D02*
X22228500Y-14706716D01*
%TO.C,R10*%
X22532000Y-14920636D02*
X22532000Y-14951364D01*
X22608000Y-14920636D02*
X22608000Y-14951364D01*
%TO.C,R2*%
X20309500Y-14470364D02*
X20309500Y-14439636D01*
X20385500Y-14470364D02*
X20385500Y-14439636D01*
%TO.C,C2*%
X24267984Y-15017200D02*
X24246416Y-15017200D01*
X24267984Y-15089200D02*
X24246416Y-15089200D01*
D11*
%TO.C,S1*%
X21158200Y-14458200D02*
X21508200Y-14458200D01*
X21158200Y-14848200D02*
X21158200Y-14458200D01*
X21268200Y-14848200D02*
X21158200Y-14848200D01*
X21703200Y-14458200D02*
X22053200Y-14458200D01*
X21758200Y-14848200D02*
X21448200Y-14848200D01*
X22058200Y-14458200D02*
X22058200Y-14848200D01*
X22058200Y-14848200D02*
X21948200Y-14848200D01*
%TO.C,U3*%
X20508200Y-14393200D02*
X20508200Y-14613200D01*
X20528200Y-14393200D02*
X20508200Y-14393200D01*
X20528200Y-14613200D02*
X20508200Y-14613200D01*
X20728200Y-14393200D02*
X20708200Y-14393200D01*
X20728200Y-14593200D02*
X20708200Y-14613200D01*
X20728200Y-14593200D02*
X20728200Y-14393200D01*
D12*
%TO.C,U2*%
X22283260Y-14526520D02*
X22283260Y-14526520D01*
D10*
X22288200Y-14548200D02*
X22288200Y-14718200D01*
X22288200Y-14718200D02*
X22303200Y-14718200D01*
X22303200Y-14548200D02*
X22288200Y-14548200D01*
X22383200Y-14548200D02*
X22398200Y-14548200D01*
X22383200Y-14718200D02*
X22398200Y-14718200D01*
X22478200Y-14548200D02*
X22493200Y-14548200D01*
X22478200Y-14718200D02*
X22493200Y-14718200D01*
X22573200Y-14718200D02*
X22588200Y-14718200D01*
X22588200Y-14548200D02*
X22573200Y-14548200D01*
X22588200Y-14718200D02*
X22588200Y-14548200D01*
%TO.C,R5*%
X20872136Y-14752000D02*
X20902864Y-14752000D01*
X20872136Y-14828000D02*
X20902864Y-14828000D01*
%TO.C,U1*%
X20384750Y-14663750D02*
X20684750Y-14663750D01*
X20384750Y-14985750D02*
X20684750Y-14985750D01*
X20690750Y-14980750D02*
X20690750Y-14965750D01*
X20328750Y-15006750D02*
X20280750Y-14958750D01*
X20328750Y-14958750D01*
X20328750Y-15006750D01*
G36*
X20328750Y-15006750D02*
G01*
X20280750Y-14958750D01*
X20328750Y-14958750D01*
X20328750Y-15006750D01*
G37*
%TO.C,R6*%
X22541364Y-14327000D02*
X22510636Y-14327000D01*
X22541364Y-14403000D02*
X22510636Y-14403000D01*
%TO.C,L1*%
D11*
X21108200Y-14723200D02*
X20768200Y-14723200D01*
X20768200Y-14383200D01*
X21108200Y-14383200D01*
X21108200Y-14723200D01*
D10*
%TO.C,C3*%
X20627416Y-15017200D02*
X20648984Y-15017200D01*
X20627416Y-15089200D02*
X20648984Y-15089200D01*
%TO.C,BATT1*%
X23882200Y-14212200D02*
X24494200Y-14212200D01*
X23882200Y-14834200D02*
X23974200Y-14834200D01*
X23882200Y-14994200D02*
X23882200Y-14212200D01*
X23958200Y-14438200D02*
X24058200Y-14438200D01*
X23958200Y-14598200D02*
X23958200Y-14438200D01*
X23974200Y-14834200D02*
X23974200Y-14994200D01*
X23974200Y-14994200D02*
X23882200Y-14994200D01*
X24002200Y-14834200D02*
X23974200Y-14834200D01*
X24002200Y-14834200D02*
X24002200Y-14955700D01*
X24008200Y-14438200D02*
X24008200Y-14212200D01*
X24058200Y-14438200D02*
X24058200Y-14212200D01*
X24058200Y-14438200D02*
X24058200Y-14598200D01*
X24058200Y-14598200D02*
X23958200Y-14598200D01*
X24138200Y-14212200D02*
X24138200Y-14648200D01*
X24138200Y-14648200D02*
X24238200Y-14648200D01*
X24238200Y-14648200D02*
X24238200Y-14212200D01*
X24318200Y-14438200D02*
X24318200Y-14598200D01*
X24318200Y-14598200D02*
X24418200Y-14598200D01*
X24402200Y-14834200D02*
X24374200Y-14834200D01*
X24402200Y-14994200D02*
X24402200Y-14834200D01*
X24418200Y-14438200D02*
X24318200Y-14438200D01*
X24418200Y-14598200D02*
X24418200Y-14438200D01*
X24494200Y-14212200D02*
X24494200Y-14994200D01*
X24494200Y-14834200D02*
X24402200Y-14834200D01*
X24494200Y-14994200D02*
X24402200Y-14994200D01*
%TO.C,R9*%
X22429500Y-14920636D02*
X22429500Y-14951364D01*
X22505500Y-14920636D02*
X22505500Y-14951364D01*
%TO.C,R3*%
X20213242Y-14651847D02*
X20213242Y-14621119D01*
X20289242Y-14651847D02*
X20289242Y-14621119D01*
%TO.C,C4*%
X20406500Y-14468284D02*
X20406500Y-14446716D01*
X20478500Y-14468284D02*
X20478500Y-14446716D01*
%TO.C,R1*%
X22339364Y-14327000D02*
X22308636Y-14327000D01*
X22339364Y-14403000D02*
X22308636Y-14403000D01*
%TO.C,C5*%
X21011500Y-14824216D02*
X21011500Y-14845784D01*
X21083500Y-14824216D02*
X21083500Y-14845784D01*
%TO.C,R4*%
X20409523Y-14561981D02*
X20378795Y-14561981D01*
X20409523Y-14637981D02*
X20378795Y-14637981D01*
%TO.C,R8*%
X20214594Y-14461901D02*
X20214594Y-14431173D01*
X20290594Y-14461901D02*
X20290594Y-14431173D01*
D11*
%TO.C,J1*%
X22663200Y-14303200D02*
X23883200Y-14303200D01*
X22663200Y-15143200D02*
X22663200Y-14303200D01*
X23883200Y-14303200D02*
X23883200Y-15153200D01*
D13*
X23626880Y-14353200D02*
G75*
G02*
X23599520Y-14353200I-13680J0D01*
G01*
X23599520Y-14353200D02*
G75*
G02*
X23626880Y-14353200I13680J0D01*
G01*
%TD*%
M02*
