%TF.GenerationSoftware,KiCad,Pcbnew,9.0.4*%
%TF.CreationDate,2025-09-02T11:28:22-07:00*%
%TF.ProjectId,salt_booklamp,73616c74-5f62-46f6-9f6b-6c616d702e6b,5*%
%TF.SameCoordinates,Original*%
%TF.FileFunction,AssemblyDrawing,Bot*%
%FSLAX45Y45*%
G04 Gerber Fmt 4.5, Leading zero omitted, Abs format (unit mm)*
G04 Created by KiCad (PCBNEW 9.0.4) date 2025-09-02 11:28:22*
%MOMM*%
%LPD*%
G01*
G04 APERTURE LIST*
%ADD10C,0.040000*%
%ADD11C,0.150000*%
%ADD12C,0.105000*%
%ADD13C,0.100000*%
G04 APERTURE END LIST*
D10*
X22201477Y-14713333D02*
X22202667Y-14712143D01*
X22202667Y-14712143D02*
X22203857Y-14708571D01*
X22203857Y-14708571D02*
X22203857Y-14706190D01*
X22203857Y-14706190D02*
X22202667Y-14702619D01*
X22202667Y-14702619D02*
X22200286Y-14700238D01*
X22200286Y-14700238D02*
X22197905Y-14699048D01*
X22197905Y-14699048D02*
X22193143Y-14697857D01*
X22193143Y-14697857D02*
X22189572Y-14697857D01*
X22189572Y-14697857D02*
X22184810Y-14699048D01*
X22184810Y-14699048D02*
X22182429Y-14700238D01*
X22182429Y-14700238D02*
X22180048Y-14702619D01*
X22180048Y-14702619D02*
X22178857Y-14706190D01*
X22178857Y-14706190D02*
X22178857Y-14708571D01*
X22178857Y-14708571D02*
X22180048Y-14712143D01*
X22180048Y-14712143D02*
X22181238Y-14713333D01*
X22203857Y-14737143D02*
X22203857Y-14722857D01*
X22203857Y-14730000D02*
X22178857Y-14730000D01*
X22178857Y-14730000D02*
X22182429Y-14727619D01*
X22182429Y-14727619D02*
X22184810Y-14725238D01*
X22184810Y-14725238D02*
X22186000Y-14722857D01*
X22581820Y-14919286D02*
X22569439Y-14910619D01*
X22581820Y-14904428D02*
X22555820Y-14904428D01*
X22555820Y-14904428D02*
X22555820Y-14914333D01*
X22555820Y-14914333D02*
X22557058Y-14916809D01*
X22557058Y-14916809D02*
X22558296Y-14918048D01*
X22558296Y-14918048D02*
X22560772Y-14919286D01*
X22560772Y-14919286D02*
X22564487Y-14919286D01*
X22564487Y-14919286D02*
X22566963Y-14918048D01*
X22566963Y-14918048D02*
X22568201Y-14916809D01*
X22568201Y-14916809D02*
X22569439Y-14914333D01*
X22569439Y-14914333D02*
X22569439Y-14904428D01*
X22581820Y-14944048D02*
X22581820Y-14929190D01*
X22581820Y-14936619D02*
X22555820Y-14936619D01*
X22555820Y-14936619D02*
X22559534Y-14934143D01*
X22559534Y-14934143D02*
X22562010Y-14931667D01*
X22562010Y-14931667D02*
X22563249Y-14929190D01*
X22555820Y-14960143D02*
X22555820Y-14962619D01*
X22555820Y-14962619D02*
X22557058Y-14965095D01*
X22557058Y-14965095D02*
X22558296Y-14966333D01*
X22558296Y-14966333D02*
X22560772Y-14967571D01*
X22560772Y-14967571D02*
X22565725Y-14968809D01*
X22565725Y-14968809D02*
X22571915Y-14968809D01*
X22571915Y-14968809D02*
X22576868Y-14967571D01*
X22576868Y-14967571D02*
X22579344Y-14966333D01*
X22579344Y-14966333D02*
X22580582Y-14965095D01*
X22580582Y-14965095D02*
X22581820Y-14962619D01*
X22581820Y-14962619D02*
X22581820Y-14960143D01*
X22581820Y-14960143D02*
X22580582Y-14957667D01*
X22580582Y-14957667D02*
X22579344Y-14956428D01*
X22579344Y-14956428D02*
X22576868Y-14955190D01*
X22576868Y-14955190D02*
X22571915Y-14953952D01*
X22571915Y-14953952D02*
X22565725Y-14953952D01*
X22565725Y-14953952D02*
X22560772Y-14955190D01*
X22560772Y-14955190D02*
X22558296Y-14956428D01*
X22558296Y-14956428D02*
X22557058Y-14957667D01*
X22557058Y-14957667D02*
X22555820Y-14960143D01*
X20359320Y-14450667D02*
X20346939Y-14442000D01*
X20359320Y-14435809D02*
X20333320Y-14435809D01*
X20333320Y-14435809D02*
X20333320Y-14445714D01*
X20333320Y-14445714D02*
X20334558Y-14448190D01*
X20334558Y-14448190D02*
X20335796Y-14449429D01*
X20335796Y-14449429D02*
X20338272Y-14450667D01*
X20338272Y-14450667D02*
X20341987Y-14450667D01*
X20341987Y-14450667D02*
X20344463Y-14449429D01*
X20344463Y-14449429D02*
X20345701Y-14448190D01*
X20345701Y-14448190D02*
X20346939Y-14445714D01*
X20346939Y-14445714D02*
X20346939Y-14435809D01*
X20335796Y-14460571D02*
X20334558Y-14461809D01*
X20334558Y-14461809D02*
X20333320Y-14464286D01*
X20333320Y-14464286D02*
X20333320Y-14470476D01*
X20333320Y-14470476D02*
X20334558Y-14472952D01*
X20334558Y-14472952D02*
X20335796Y-14474190D01*
X20335796Y-14474190D02*
X20338272Y-14475429D01*
X20338272Y-14475429D02*
X20340749Y-14475429D01*
X20340749Y-14475429D02*
X20344463Y-14474190D01*
X20344463Y-14474190D02*
X20359320Y-14459333D01*
X20359320Y-14459333D02*
X20359320Y-14475429D01*
X24261367Y-15062176D02*
X24262557Y-15063367D01*
X24262557Y-15063367D02*
X24266128Y-15064557D01*
X24266128Y-15064557D02*
X24268509Y-15064557D01*
X24268509Y-15064557D02*
X24272081Y-15063367D01*
X24272081Y-15063367D02*
X24274462Y-15060986D01*
X24274462Y-15060986D02*
X24275652Y-15058605D01*
X24275652Y-15058605D02*
X24276843Y-15053843D01*
X24276843Y-15053843D02*
X24276843Y-15050272D01*
X24276843Y-15050272D02*
X24275652Y-15045510D01*
X24275652Y-15045510D02*
X24274462Y-15043129D01*
X24274462Y-15043129D02*
X24272081Y-15040748D01*
X24272081Y-15040748D02*
X24268509Y-15039557D01*
X24268509Y-15039557D02*
X24266128Y-15039557D01*
X24266128Y-15039557D02*
X24262557Y-15040748D01*
X24262557Y-15040748D02*
X24261367Y-15041938D01*
X24251843Y-15041938D02*
X24250652Y-15040748D01*
X24250652Y-15040748D02*
X24248271Y-15039557D01*
X24248271Y-15039557D02*
X24242319Y-15039557D01*
X24242319Y-15039557D02*
X24239938Y-15040748D01*
X24239938Y-15040748D02*
X24238747Y-15041938D01*
X24238747Y-15041938D02*
X24237557Y-15044319D01*
X24237557Y-15044319D02*
X24237557Y-15046700D01*
X24237557Y-15046700D02*
X24238747Y-15050272D01*
X24238747Y-15050272D02*
X24253033Y-15064557D01*
X24253033Y-15064557D02*
X24237557Y-15064557D01*
D11*
X21684390Y-14688920D02*
X21670105Y-14693682D01*
X21670105Y-14693682D02*
X21646295Y-14693682D01*
X21646295Y-14693682D02*
X21636771Y-14688920D01*
X21636771Y-14688920D02*
X21632010Y-14684158D01*
X21632010Y-14684158D02*
X21627248Y-14674634D01*
X21627248Y-14674634D02*
X21627248Y-14665110D01*
X21627248Y-14665110D02*
X21632010Y-14655587D01*
X21632010Y-14655587D02*
X21636771Y-14650825D01*
X21636771Y-14650825D02*
X21646295Y-14646063D01*
X21646295Y-14646063D02*
X21665343Y-14641301D01*
X21665343Y-14641301D02*
X21674867Y-14636539D01*
X21674867Y-14636539D02*
X21679629Y-14631777D01*
X21679629Y-14631777D02*
X21684390Y-14622253D01*
X21684390Y-14622253D02*
X21684390Y-14612729D01*
X21684390Y-14612729D02*
X21679629Y-14603206D01*
X21679629Y-14603206D02*
X21674867Y-14598444D01*
X21674867Y-14598444D02*
X21665343Y-14593682D01*
X21665343Y-14593682D02*
X21641533Y-14593682D01*
X21641533Y-14593682D02*
X21627248Y-14598444D01*
X21532010Y-14693682D02*
X21589152Y-14693682D01*
X21560581Y-14693682D02*
X21560581Y-14593682D01*
X21560581Y-14593682D02*
X21570105Y-14607968D01*
X21570105Y-14607968D02*
X21579629Y-14617491D01*
X21579629Y-14617491D02*
X21589152Y-14622253D01*
X20694390Y-14448682D02*
X20694390Y-14529634D01*
X20694390Y-14529634D02*
X20689629Y-14539158D01*
X20689629Y-14539158D02*
X20684867Y-14543920D01*
X20684867Y-14543920D02*
X20675343Y-14548682D01*
X20675343Y-14548682D02*
X20656295Y-14548682D01*
X20656295Y-14548682D02*
X20646771Y-14543920D01*
X20646771Y-14543920D02*
X20642010Y-14539158D01*
X20642010Y-14539158D02*
X20637248Y-14529634D01*
X20637248Y-14529634D02*
X20637248Y-14448682D01*
X20599152Y-14448682D02*
X20537248Y-14448682D01*
X20537248Y-14448682D02*
X20570581Y-14486777D01*
X20570581Y-14486777D02*
X20556295Y-14486777D01*
X20556295Y-14486777D02*
X20546771Y-14491539D01*
X20546771Y-14491539D02*
X20542010Y-14496301D01*
X20542010Y-14496301D02*
X20537248Y-14505825D01*
X20537248Y-14505825D02*
X20537248Y-14529634D01*
X20537248Y-14529634D02*
X20542010Y-14539158D01*
X20542010Y-14539158D02*
X20546771Y-14543920D01*
X20546771Y-14543920D02*
X20556295Y-14548682D01*
X20556295Y-14548682D02*
X20584867Y-14548682D01*
X20584867Y-14548682D02*
X20594390Y-14543920D01*
X20594390Y-14543920D02*
X20599152Y-14539158D01*
X22515680Y-14575216D02*
X22515680Y-14656168D01*
X22515680Y-14656168D02*
X22510918Y-14665692D01*
X22510918Y-14665692D02*
X22506156Y-14670454D01*
X22506156Y-14670454D02*
X22496633Y-14675216D01*
X22496633Y-14675216D02*
X22477585Y-14675216D01*
X22477585Y-14675216D02*
X22468061Y-14670454D01*
X22468061Y-14670454D02*
X22463299Y-14665692D01*
X22463299Y-14665692D02*
X22458537Y-14656168D01*
X22458537Y-14656168D02*
X22458537Y-14575216D01*
X22415680Y-14584739D02*
X22410918Y-14579978D01*
X22410918Y-14579978D02*
X22401395Y-14575216D01*
X22401395Y-14575216D02*
X22377585Y-14575216D01*
X22377585Y-14575216D02*
X22368061Y-14579978D01*
X22368061Y-14579978D02*
X22363299Y-14584739D01*
X22363299Y-14584739D02*
X22358538Y-14594263D01*
X22358538Y-14594263D02*
X22358538Y-14603787D01*
X22358538Y-14603787D02*
X22363299Y-14618073D01*
X22363299Y-14618073D02*
X22420442Y-14675216D01*
X22420442Y-14675216D02*
X22358538Y-14675216D01*
D10*
X20891833Y-14801820D02*
X20900500Y-14789439D01*
X20906690Y-14801820D02*
X20906690Y-14775820D01*
X20906690Y-14775820D02*
X20896786Y-14775820D01*
X20896786Y-14775820D02*
X20894309Y-14777058D01*
X20894309Y-14777058D02*
X20893071Y-14778296D01*
X20893071Y-14778296D02*
X20891833Y-14780772D01*
X20891833Y-14780772D02*
X20891833Y-14784487D01*
X20891833Y-14784487D02*
X20893071Y-14786963D01*
X20893071Y-14786963D02*
X20894309Y-14788201D01*
X20894309Y-14788201D02*
X20896786Y-14789439D01*
X20896786Y-14789439D02*
X20906690Y-14789439D01*
X20868309Y-14775820D02*
X20880690Y-14775820D01*
X20880690Y-14775820D02*
X20881929Y-14788201D01*
X20881929Y-14788201D02*
X20880690Y-14786963D01*
X20880690Y-14786963D02*
X20878214Y-14785725D01*
X20878214Y-14785725D02*
X20872024Y-14785725D01*
X20872024Y-14785725D02*
X20869548Y-14786963D01*
X20869548Y-14786963D02*
X20868309Y-14788201D01*
X20868309Y-14788201D02*
X20867071Y-14790677D01*
X20867071Y-14790677D02*
X20867071Y-14796868D01*
X20867071Y-14796868D02*
X20868309Y-14799344D01*
X20868309Y-14799344D02*
X20869548Y-14800582D01*
X20869548Y-14800582D02*
X20872024Y-14801820D01*
X20872024Y-14801820D02*
X20878214Y-14801820D01*
X20878214Y-14801820D02*
X20880690Y-14800582D01*
X20880690Y-14800582D02*
X20881929Y-14799344D01*
D12*
X20588083Y-14786587D02*
X20588083Y-14843254D01*
X20588083Y-14843254D02*
X20584750Y-14849921D01*
X20584750Y-14849921D02*
X20581417Y-14853254D01*
X20581417Y-14853254D02*
X20574750Y-14856587D01*
X20574750Y-14856587D02*
X20561417Y-14856587D01*
X20561417Y-14856587D02*
X20554750Y-14853254D01*
X20554750Y-14853254D02*
X20551417Y-14849921D01*
X20551417Y-14849921D02*
X20548083Y-14843254D01*
X20548083Y-14843254D02*
X20548083Y-14786587D01*
X20478083Y-14856587D02*
X20518083Y-14856587D01*
X20498083Y-14856587D02*
X20498083Y-14786587D01*
X20498083Y-14786587D02*
X20504750Y-14796587D01*
X20504750Y-14796587D02*
X20511417Y-14803254D01*
X20511417Y-14803254D02*
X20518083Y-14806587D01*
D10*
X22530333Y-14376820D02*
X22539000Y-14364439D01*
X22545190Y-14376820D02*
X22545190Y-14350820D01*
X22545190Y-14350820D02*
X22535286Y-14350820D01*
X22535286Y-14350820D02*
X22532809Y-14352058D01*
X22532809Y-14352058D02*
X22531571Y-14353296D01*
X22531571Y-14353296D02*
X22530333Y-14355772D01*
X22530333Y-14355772D02*
X22530333Y-14359487D01*
X22530333Y-14359487D02*
X22531571Y-14361963D01*
X22531571Y-14361963D02*
X22532809Y-14363201D01*
X22532809Y-14363201D02*
X22535286Y-14364439D01*
X22535286Y-14364439D02*
X22545190Y-14364439D01*
X22508047Y-14350820D02*
X22513000Y-14350820D01*
X22513000Y-14350820D02*
X22515476Y-14352058D01*
X22515476Y-14352058D02*
X22516714Y-14353296D01*
X22516714Y-14353296D02*
X22519190Y-14357010D01*
X22519190Y-14357010D02*
X22520428Y-14361963D01*
X22520428Y-14361963D02*
X22520428Y-14371868D01*
X22520428Y-14371868D02*
X22519190Y-14374344D01*
X22519190Y-14374344D02*
X22517952Y-14375582D01*
X22517952Y-14375582D02*
X22515476Y-14376820D01*
X22515476Y-14376820D02*
X22510524Y-14376820D01*
X22510524Y-14376820D02*
X22508047Y-14375582D01*
X22508047Y-14375582D02*
X22506809Y-14374344D01*
X22506809Y-14374344D02*
X22505571Y-14371868D01*
X22505571Y-14371868D02*
X22505571Y-14365677D01*
X22505571Y-14365677D02*
X22506809Y-14363201D01*
X22506809Y-14363201D02*
X22508047Y-14361963D01*
X22508047Y-14361963D02*
X22510524Y-14360725D01*
X22510524Y-14360725D02*
X22515476Y-14360725D01*
X22515476Y-14360725D02*
X22517952Y-14361963D01*
X22517952Y-14361963D02*
X22519190Y-14363201D01*
X22519190Y-14363201D02*
X22520428Y-14365677D01*
D11*
X20953340Y-14598682D02*
X21000959Y-14598682D01*
X21000959Y-14598682D02*
X21000959Y-14498682D01*
X20867626Y-14598682D02*
X20924768Y-14598682D01*
X20896197Y-14598682D02*
X20896197Y-14498682D01*
X20896197Y-14498682D02*
X20905721Y-14512968D01*
X20905721Y-14512968D02*
X20915245Y-14522491D01*
X20915245Y-14522491D02*
X20924768Y-14527253D01*
D10*
X20642367Y-15062176D02*
X20643557Y-15063367D01*
X20643557Y-15063367D02*
X20647129Y-15064557D01*
X20647129Y-15064557D02*
X20649509Y-15064557D01*
X20649509Y-15064557D02*
X20653081Y-15063367D01*
X20653081Y-15063367D02*
X20655462Y-15060986D01*
X20655462Y-15060986D02*
X20656652Y-15058605D01*
X20656652Y-15058605D02*
X20657843Y-15053843D01*
X20657843Y-15053843D02*
X20657843Y-15050272D01*
X20657843Y-15050272D02*
X20656652Y-15045510D01*
X20656652Y-15045510D02*
X20655462Y-15043129D01*
X20655462Y-15043129D02*
X20653081Y-15040748D01*
X20653081Y-15040748D02*
X20649509Y-15039557D01*
X20649509Y-15039557D02*
X20647129Y-15039557D01*
X20647129Y-15039557D02*
X20643557Y-15040748D01*
X20643557Y-15040748D02*
X20642367Y-15041938D01*
X20634033Y-15039557D02*
X20618557Y-15039557D01*
X20618557Y-15039557D02*
X20626890Y-15049081D01*
X20626890Y-15049081D02*
X20623319Y-15049081D01*
X20623319Y-15049081D02*
X20620938Y-15050272D01*
X20620938Y-15050272D02*
X20619748Y-15051462D01*
X20619748Y-15051462D02*
X20618557Y-15053843D01*
X20618557Y-15053843D02*
X20618557Y-15059795D01*
X20618557Y-15059795D02*
X20619748Y-15062176D01*
X20619748Y-15062176D02*
X20620938Y-15063367D01*
X20620938Y-15063367D02*
X20623319Y-15064557D01*
X20623319Y-15064557D02*
X20630462Y-15064557D01*
X20630462Y-15064557D02*
X20632843Y-15063367D01*
X20632843Y-15063367D02*
X20634033Y-15062176D01*
D11*
X24347724Y-14591301D02*
X24333438Y-14596063D01*
X24333438Y-14596063D02*
X24328676Y-14600825D01*
X24328676Y-14600825D02*
X24323914Y-14610348D01*
X24323914Y-14610348D02*
X24323914Y-14624634D01*
X24323914Y-14624634D02*
X24328676Y-14634158D01*
X24328676Y-14634158D02*
X24333438Y-14638920D01*
X24333438Y-14638920D02*
X24342962Y-14643682D01*
X24342962Y-14643682D02*
X24381057Y-14643682D01*
X24381057Y-14643682D02*
X24381057Y-14543682D01*
X24381057Y-14543682D02*
X24347724Y-14543682D01*
X24347724Y-14543682D02*
X24338200Y-14548444D01*
X24338200Y-14548444D02*
X24333438Y-14553206D01*
X24333438Y-14553206D02*
X24328676Y-14562729D01*
X24328676Y-14562729D02*
X24328676Y-14572253D01*
X24328676Y-14572253D02*
X24333438Y-14581777D01*
X24333438Y-14581777D02*
X24338200Y-14586539D01*
X24338200Y-14586539D02*
X24347724Y-14591301D01*
X24347724Y-14591301D02*
X24381057Y-14591301D01*
X24285819Y-14615110D02*
X24238200Y-14615110D01*
X24295343Y-14643682D02*
X24262009Y-14543682D01*
X24262009Y-14543682D02*
X24228676Y-14643682D01*
X24209628Y-14543682D02*
X24152486Y-14543682D01*
X24181057Y-14643682D02*
X24181057Y-14543682D01*
X24133438Y-14543682D02*
X24076295Y-14543682D01*
X24104867Y-14643682D02*
X24104867Y-14543682D01*
X23990581Y-14643682D02*
X24047724Y-14643682D01*
X24019152Y-14643682D02*
X24019152Y-14543682D01*
X24019152Y-14543682D02*
X24028676Y-14557968D01*
X24028676Y-14557968D02*
X24038200Y-14567491D01*
X24038200Y-14567491D02*
X24047724Y-14572253D01*
D10*
X22479320Y-14931667D02*
X22466939Y-14923000D01*
X22479320Y-14916809D02*
X22453320Y-14916809D01*
X22453320Y-14916809D02*
X22453320Y-14926714D01*
X22453320Y-14926714D02*
X22454558Y-14929190D01*
X22454558Y-14929190D02*
X22455796Y-14930429D01*
X22455796Y-14930429D02*
X22458272Y-14931667D01*
X22458272Y-14931667D02*
X22461987Y-14931667D01*
X22461987Y-14931667D02*
X22464463Y-14930429D01*
X22464463Y-14930429D02*
X22465701Y-14929190D01*
X22465701Y-14929190D02*
X22466939Y-14926714D01*
X22466939Y-14926714D02*
X22466939Y-14916809D01*
X22479320Y-14944048D02*
X22479320Y-14949000D01*
X22479320Y-14949000D02*
X22478082Y-14951476D01*
X22478082Y-14951476D02*
X22476844Y-14952714D01*
X22476844Y-14952714D02*
X22473130Y-14955190D01*
X22473130Y-14955190D02*
X22468177Y-14956429D01*
X22468177Y-14956429D02*
X22458272Y-14956429D01*
X22458272Y-14956429D02*
X22455796Y-14955190D01*
X22455796Y-14955190D02*
X22454558Y-14953952D01*
X22454558Y-14953952D02*
X22453320Y-14951476D01*
X22453320Y-14951476D02*
X22453320Y-14946524D01*
X22453320Y-14946524D02*
X22454558Y-14944048D01*
X22454558Y-14944048D02*
X22455796Y-14942809D01*
X22455796Y-14942809D02*
X22458272Y-14941571D01*
X22458272Y-14941571D02*
X22464463Y-14941571D01*
X22464463Y-14941571D02*
X22466939Y-14942809D01*
X22466939Y-14942809D02*
X22468177Y-14944048D01*
X22468177Y-14944048D02*
X22469415Y-14946524D01*
X22469415Y-14946524D02*
X22469415Y-14951476D01*
X22469415Y-14951476D02*
X22468177Y-14953952D01*
X22468177Y-14953952D02*
X22466939Y-14955190D01*
X22466939Y-14955190D02*
X22464463Y-14956429D01*
X20263062Y-14632150D02*
X20250681Y-14623483D01*
X20263062Y-14617293D02*
X20237062Y-14617293D01*
X20237062Y-14617293D02*
X20237062Y-14627198D01*
X20237062Y-14627198D02*
X20238300Y-14629674D01*
X20238300Y-14629674D02*
X20239538Y-14630912D01*
X20239538Y-14630912D02*
X20242014Y-14632150D01*
X20242014Y-14632150D02*
X20245729Y-14632150D01*
X20245729Y-14632150D02*
X20248205Y-14630912D01*
X20248205Y-14630912D02*
X20249443Y-14629674D01*
X20249443Y-14629674D02*
X20250681Y-14627198D01*
X20250681Y-14627198D02*
X20250681Y-14617293D01*
X20237062Y-14640817D02*
X20237062Y-14656912D01*
X20237062Y-14656912D02*
X20246967Y-14648245D01*
X20246967Y-14648245D02*
X20246967Y-14651960D01*
X20246967Y-14651960D02*
X20248205Y-14654436D01*
X20248205Y-14654436D02*
X20249443Y-14655674D01*
X20249443Y-14655674D02*
X20251919Y-14656912D01*
X20251919Y-14656912D02*
X20258110Y-14656912D01*
X20258110Y-14656912D02*
X20260586Y-14655674D01*
X20260586Y-14655674D02*
X20261824Y-14654436D01*
X20261824Y-14654436D02*
X20263062Y-14651960D01*
X20263062Y-14651960D02*
X20263062Y-14644531D01*
X20263062Y-14644531D02*
X20261824Y-14642055D01*
X20261824Y-14642055D02*
X20260586Y-14640817D01*
X20451477Y-14453333D02*
X20452667Y-14452143D01*
X20452667Y-14452143D02*
X20453857Y-14448571D01*
X20453857Y-14448571D02*
X20453857Y-14446190D01*
X20453857Y-14446190D02*
X20452667Y-14442619D01*
X20452667Y-14442619D02*
X20450286Y-14440238D01*
X20450286Y-14440238D02*
X20447905Y-14439048D01*
X20447905Y-14439048D02*
X20443143Y-14437857D01*
X20443143Y-14437857D02*
X20439572Y-14437857D01*
X20439572Y-14437857D02*
X20434810Y-14439048D01*
X20434810Y-14439048D02*
X20432429Y-14440238D01*
X20432429Y-14440238D02*
X20430048Y-14442619D01*
X20430048Y-14442619D02*
X20428857Y-14446190D01*
X20428857Y-14446190D02*
X20428857Y-14448571D01*
X20428857Y-14448571D02*
X20430048Y-14452143D01*
X20430048Y-14452143D02*
X20431238Y-14453333D01*
X20437191Y-14474762D02*
X20453857Y-14474762D01*
X20427667Y-14468809D02*
X20445524Y-14462857D01*
X20445524Y-14462857D02*
X20445524Y-14478333D01*
X22328333Y-14376820D02*
X22337000Y-14364439D01*
X22343190Y-14376820D02*
X22343190Y-14350820D01*
X22343190Y-14350820D02*
X22333286Y-14350820D01*
X22333286Y-14350820D02*
X22330809Y-14352058D01*
X22330809Y-14352058D02*
X22329571Y-14353296D01*
X22329571Y-14353296D02*
X22328333Y-14355772D01*
X22328333Y-14355772D02*
X22328333Y-14359487D01*
X22328333Y-14359487D02*
X22329571Y-14361963D01*
X22329571Y-14361963D02*
X22330809Y-14363201D01*
X22330809Y-14363201D02*
X22333286Y-14364439D01*
X22333286Y-14364439D02*
X22343190Y-14364439D01*
X22303571Y-14376820D02*
X22318429Y-14376820D01*
X22311000Y-14376820D02*
X22311000Y-14350820D01*
X22311000Y-14350820D02*
X22313476Y-14354534D01*
X22313476Y-14354534D02*
X22315952Y-14357010D01*
X22315952Y-14357010D02*
X22318429Y-14358249D01*
X21056477Y-14830833D02*
X21057667Y-14829643D01*
X21057667Y-14829643D02*
X21058857Y-14826071D01*
X21058857Y-14826071D02*
X21058857Y-14823690D01*
X21058857Y-14823690D02*
X21057667Y-14820119D01*
X21057667Y-14820119D02*
X21055286Y-14817738D01*
X21055286Y-14817738D02*
X21052905Y-14816548D01*
X21052905Y-14816548D02*
X21048143Y-14815357D01*
X21048143Y-14815357D02*
X21044572Y-14815357D01*
X21044572Y-14815357D02*
X21039810Y-14816548D01*
X21039810Y-14816548D02*
X21037429Y-14817738D01*
X21037429Y-14817738D02*
X21035048Y-14820119D01*
X21035048Y-14820119D02*
X21033857Y-14823690D01*
X21033857Y-14823690D02*
X21033857Y-14826071D01*
X21033857Y-14826071D02*
X21035048Y-14829643D01*
X21035048Y-14829643D02*
X21036238Y-14830833D01*
X21033857Y-14853452D02*
X21033857Y-14841548D01*
X21033857Y-14841548D02*
X21045762Y-14840357D01*
X21045762Y-14840357D02*
X21044572Y-14841548D01*
X21044572Y-14841548D02*
X21043381Y-14843929D01*
X21043381Y-14843929D02*
X21043381Y-14849881D01*
X21043381Y-14849881D02*
X21044572Y-14852262D01*
X21044572Y-14852262D02*
X21045762Y-14853452D01*
X21045762Y-14853452D02*
X21048143Y-14854643D01*
X21048143Y-14854643D02*
X21054096Y-14854643D01*
X21054096Y-14854643D02*
X21056477Y-14853452D01*
X21056477Y-14853452D02*
X21057667Y-14852262D01*
X21057667Y-14852262D02*
X21058857Y-14849881D01*
X21058857Y-14849881D02*
X21058857Y-14843929D01*
X21058857Y-14843929D02*
X21057667Y-14841548D01*
X21057667Y-14841548D02*
X21056477Y-14840357D01*
X20398493Y-14611801D02*
X20407159Y-14599420D01*
X20413350Y-14611801D02*
X20413350Y-14585801D01*
X20413350Y-14585801D02*
X20403445Y-14585801D01*
X20403445Y-14585801D02*
X20400969Y-14587039D01*
X20400969Y-14587039D02*
X20399731Y-14588277D01*
X20399731Y-14588277D02*
X20398493Y-14590754D01*
X20398493Y-14590754D02*
X20398493Y-14594468D01*
X20398493Y-14594468D02*
X20399731Y-14596944D01*
X20399731Y-14596944D02*
X20400969Y-14598182D01*
X20400969Y-14598182D02*
X20403445Y-14599420D01*
X20403445Y-14599420D02*
X20413350Y-14599420D01*
X20376207Y-14594468D02*
X20376207Y-14611801D01*
X20382397Y-14584563D02*
X20388588Y-14603135D01*
X20388588Y-14603135D02*
X20372493Y-14603135D01*
X20264414Y-14442203D02*
X20252033Y-14433537D01*
X20264414Y-14427346D02*
X20238414Y-14427346D01*
X20238414Y-14427346D02*
X20238414Y-14437251D01*
X20238414Y-14437251D02*
X20239652Y-14439727D01*
X20239652Y-14439727D02*
X20240890Y-14440965D01*
X20240890Y-14440965D02*
X20243366Y-14442203D01*
X20243366Y-14442203D02*
X20247080Y-14442203D01*
X20247080Y-14442203D02*
X20249557Y-14440965D01*
X20249557Y-14440965D02*
X20250795Y-14439727D01*
X20250795Y-14439727D02*
X20252033Y-14437251D01*
X20252033Y-14437251D02*
X20252033Y-14427346D01*
X20249557Y-14457060D02*
X20248319Y-14454584D01*
X20248319Y-14454584D02*
X20247080Y-14453346D01*
X20247080Y-14453346D02*
X20244604Y-14452108D01*
X20244604Y-14452108D02*
X20243366Y-14452108D01*
X20243366Y-14452108D02*
X20240890Y-14453346D01*
X20240890Y-14453346D02*
X20239652Y-14454584D01*
X20239652Y-14454584D02*
X20238414Y-14457060D01*
X20238414Y-14457060D02*
X20238414Y-14462013D01*
X20238414Y-14462013D02*
X20239652Y-14464489D01*
X20239652Y-14464489D02*
X20240890Y-14465727D01*
X20240890Y-14465727D02*
X20243366Y-14466965D01*
X20243366Y-14466965D02*
X20244604Y-14466965D01*
X20244604Y-14466965D02*
X20247080Y-14465727D01*
X20247080Y-14465727D02*
X20248319Y-14464489D01*
X20248319Y-14464489D02*
X20249557Y-14462013D01*
X20249557Y-14462013D02*
X20249557Y-14457060D01*
X20249557Y-14457060D02*
X20250795Y-14454584D01*
X20250795Y-14454584D02*
X20252033Y-14453346D01*
X20252033Y-14453346D02*
X20254509Y-14452108D01*
X20254509Y-14452108D02*
X20259461Y-14452108D01*
X20259461Y-14452108D02*
X20261938Y-14453346D01*
X20261938Y-14453346D02*
X20263176Y-14454584D01*
X20263176Y-14454584D02*
X20264414Y-14457060D01*
X20264414Y-14457060D02*
X20264414Y-14462013D01*
X20264414Y-14462013D02*
X20263176Y-14464489D01*
X20263176Y-14464489D02*
X20261938Y-14465727D01*
X20261938Y-14465727D02*
X20259461Y-14466965D01*
X20259461Y-14466965D02*
X20254509Y-14466965D01*
X20254509Y-14466965D02*
X20252033Y-14465727D01*
X20252033Y-14465727D02*
X20250795Y-14464489D01*
X20250795Y-14464489D02*
X20249557Y-14462013D01*
X20251414Y-14472965D02*
X20251414Y-14421346D01*
D11*
X23306533Y-14808682D02*
X23306533Y-14880110D01*
X23306533Y-14880110D02*
X23311295Y-14894396D01*
X23311295Y-14894396D02*
X23320819Y-14903920D01*
X23320819Y-14903920D02*
X23335105Y-14908682D01*
X23335105Y-14908682D02*
X23344628Y-14908682D01*
X23206533Y-14908682D02*
X23263676Y-14908682D01*
X23235105Y-14908682D02*
X23235105Y-14808682D01*
X23235105Y-14808682D02*
X23244628Y-14822968D01*
X23244628Y-14822968D02*
X23254152Y-14832491D01*
X23254152Y-14832491D02*
X23263676Y-14837253D01*
D13*
%TO.C,C1*%
X22167500Y-14667500D02*
X22167500Y-14767500D01*
X22167500Y-14767500D02*
X22217500Y-14767500D01*
X22217500Y-14667500D02*
X22167500Y-14667500D01*
X22217500Y-14767500D02*
X22217500Y-14667500D01*
%TO.C,R10*%
X22543000Y-14883500D02*
X22543000Y-14988500D01*
X22543000Y-14988500D02*
X22597000Y-14988500D01*
X22597000Y-14883500D02*
X22543000Y-14883500D01*
X22597000Y-14988500D02*
X22597000Y-14883500D01*
%TO.C,R2*%
X20320500Y-14402500D02*
X20320500Y-14507500D01*
X20320500Y-14507500D02*
X20374500Y-14507500D01*
X20374500Y-14402500D02*
X20320500Y-14402500D01*
X20374500Y-14507500D02*
X20374500Y-14402500D01*
%TO.C,C2*%
X24207200Y-15028200D02*
X24207200Y-15078200D01*
X24207200Y-15078200D02*
X24307200Y-15078200D01*
X24307200Y-15028200D02*
X24207200Y-15028200D01*
X24307200Y-15078200D02*
X24307200Y-15028200D01*
%TO.C,S1*%
X21158200Y-14848200D02*
X22058200Y-14848200D01*
X22058200Y-14462600D01*
X21158200Y-14462600D01*
X21158200Y-14848200D01*
%TO.C,U3*%
X20508200Y-14393200D02*
X20508200Y-14608200D01*
X20508200Y-14613200D02*
X20708200Y-14613200D01*
X20708200Y-14613200D02*
X20728200Y-14593200D01*
X20728200Y-14393200D02*
X20508200Y-14393200D01*
X20728200Y-14593200D02*
X20728200Y-14393200D01*
%TO.C,U2*%
X22288200Y-14593200D02*
X22288200Y-14713200D01*
X22288200Y-14713200D02*
X22588200Y-14713200D01*
X22318200Y-14553200D02*
X22288200Y-14593200D01*
X22588200Y-14553200D02*
X22318200Y-14553200D01*
X22588200Y-14713200D02*
X22588200Y-14553200D01*
%TO.C,R5*%
X20835000Y-14763000D02*
X20835000Y-14817000D01*
X20835000Y-14817000D02*
X20940000Y-14817000D01*
X20940000Y-14763000D02*
X20835000Y-14763000D01*
X20940000Y-14817000D02*
X20940000Y-14763000D01*
%TO.C,U1*%
X20384750Y-14674750D02*
X20384750Y-14899750D01*
X20384750Y-14899750D02*
X20459750Y-14974750D01*
X20459750Y-14974750D02*
X20684750Y-14974750D01*
X20684750Y-14674750D02*
X20384750Y-14674750D01*
X20684750Y-14974750D02*
X20684750Y-14674750D01*
%TO.C,R6*%
X22473500Y-14338000D02*
X22473500Y-14392000D01*
X22473500Y-14392000D02*
X22578500Y-14392000D01*
X22578500Y-14338000D02*
X22473500Y-14338000D01*
X22578500Y-14392000D02*
X22578500Y-14338000D01*
%TO.C,L1*%
X21108200Y-14723200D02*
X20768200Y-14723200D01*
X20768200Y-14383200D01*
X21108200Y-14383200D01*
X21108200Y-14723200D01*
%TO.C,C3*%
X20588200Y-15028200D02*
X20588200Y-15078200D01*
X20588200Y-15078200D02*
X20688200Y-15078200D01*
X20688200Y-15028200D02*
X20588200Y-15028200D01*
X20688200Y-15078200D02*
X20688200Y-15028200D01*
%TO.C,BATT1*%
X23893200Y-14223200D02*
X24483200Y-14223200D01*
X23893200Y-14983200D02*
X23893200Y-14223200D01*
X23963200Y-14823200D02*
X23963200Y-14983200D01*
X23963200Y-14983200D02*
X23893200Y-14983200D01*
X24038200Y-14710700D02*
X24138200Y-14710700D01*
X24088200Y-14760700D02*
X24038200Y-14710700D01*
X24138200Y-14710700D02*
X24088200Y-14760700D01*
X24413200Y-14823200D02*
X23963200Y-14823200D01*
X24413200Y-14983200D02*
X24413200Y-14823200D01*
X24483200Y-14223200D02*
X24483200Y-14983200D01*
X24483200Y-14983200D02*
X24413200Y-14983200D01*
%TO.C,R9*%
X22440500Y-14883500D02*
X22440500Y-14988500D01*
X22440500Y-14988500D02*
X22494500Y-14988500D01*
X22494500Y-14883500D02*
X22440500Y-14883500D01*
X22494500Y-14988500D02*
X22494500Y-14883500D01*
%TO.C,R3*%
X20224242Y-14583983D02*
X20224242Y-14688983D01*
X20224242Y-14688983D02*
X20278242Y-14688983D01*
X20278242Y-14583983D02*
X20224242Y-14583983D01*
X20278242Y-14688983D02*
X20278242Y-14583983D01*
%TO.C,C4*%
X20417500Y-14407500D02*
X20417500Y-14507500D01*
X20417500Y-14507500D02*
X20467500Y-14507500D01*
X20467500Y-14407500D02*
X20417500Y-14407500D01*
X20467500Y-14507500D02*
X20467500Y-14407500D01*
%TO.C,R1*%
X22271500Y-14338000D02*
X22271500Y-14392000D01*
X22271500Y-14392000D02*
X22376500Y-14392000D01*
X22376500Y-14338000D02*
X22271500Y-14338000D01*
X22376500Y-14392000D02*
X22376500Y-14338000D01*
%TO.C,C5*%
X21022500Y-14785000D02*
X21022500Y-14885000D01*
X21022500Y-14885000D02*
X21072500Y-14885000D01*
X21072500Y-14785000D02*
X21022500Y-14785000D01*
X21072500Y-14885000D02*
X21072500Y-14785000D01*
%TO.C,R4*%
X20341659Y-14572981D02*
X20341659Y-14626981D01*
X20341659Y-14626981D02*
X20446659Y-14626981D01*
X20446659Y-14572981D02*
X20341659Y-14572981D01*
X20446659Y-14626981D02*
X20446659Y-14572981D01*
X20220594Y-14394037D02*
X20220594Y-14499037D01*
X20230594Y-14499037D02*
G75*
G02*
X20220594Y-14499037I-5000J0D01*
G01*
X20230594Y-14499037D02*
X20230594Y-14394037D01*
X20230594Y-14394037D02*
G75*
G03*
X20220594Y-14394037I-5000J0D01*
G01*
X20225594Y-14504037D02*
X20279594Y-14504037D01*
X20279594Y-14494037D02*
G75*
G02*
X20279594Y-14504037I0J-5000D01*
G01*
X20279594Y-14494037D02*
X20225594Y-14494037D01*
X20225594Y-14494037D02*
G75*
G03*
X20225594Y-14504037I0J-5000D01*
G01*
X20279594Y-14389037D02*
X20225594Y-14389037D01*
X20225594Y-14399037D02*
G75*
G02*
X20225594Y-14389037I0J5000D01*
G01*
X20225594Y-14399037D02*
X20279594Y-14399037D01*
X20279594Y-14399037D02*
G75*
G03*
X20279594Y-14389037I0J5000D01*
G01*
X20284594Y-14499037D02*
X20284594Y-14394037D01*
X20274594Y-14394037D02*
G75*
G02*
X20284594Y-14394037I5000J0D01*
G01*
X20274594Y-14394037D02*
X20274594Y-14499037D01*
X20274594Y-14499037D02*
G75*
G03*
X20284594Y-14499037I5000J0D01*
G01*
%TO.C,J1*%
X23593200Y-14313200D02*
X23613200Y-14363200D01*
X23613200Y-14363200D02*
X23643200Y-14303200D01*
X22663200Y-15433200D02*
X23883200Y-15433200D01*
X23883200Y-14303200D01*
X22663200Y-14303200D01*
X22663200Y-15433200D01*
%TD*%
X20203094Y-14351037D02*
X20302094Y-14542037D01*
X20203094Y-14542037D02*
X20302094Y-14351037D01*
M02*
