%TF.GenerationSoftware,KiCad,Pcbnew,9.0.4*%
%TF.CreationDate,2025-09-02T11:28:22-07:00*%
%TF.ProjectId,salt_booklamp,73616c74-5f62-46f6-9f6b-6c616d702e6b,5*%
%TF.SameCoordinates,Original*%
%TF.FileFunction,AssemblyDrawing,Top*%
%FSLAX45Y45*%
G04 Gerber Fmt 4.5, Leading zero omitted, Abs format (unit mm)*
G04 Created by KiCad (PCBNEW 9.0.4) date 2025-09-02 11:28:22*
%MOMM*%
%LPD*%
G01*
G04 APERTURE LIST*
%ADD10C,0.150000*%
%ADD11C,0.100000*%
G04 APERTURE END LIST*
D10*
X20479482Y-11702105D02*
X20479482Y-11749724D01*
X20479482Y-11749724D02*
X20379482Y-11749724D01*
X20427101Y-11668771D02*
X20427101Y-11635438D01*
X20479482Y-11621152D02*
X20479482Y-11668771D01*
X20479482Y-11668771D02*
X20379482Y-11668771D01*
X20379482Y-11668771D02*
X20379482Y-11621152D01*
X20479482Y-11578295D02*
X20379482Y-11578295D01*
X20379482Y-11578295D02*
X20379482Y-11554486D01*
X20379482Y-11554486D02*
X20384244Y-11540200D01*
X20384244Y-11540200D02*
X20393768Y-11530676D01*
X20393768Y-11530676D02*
X20403291Y-11525914D01*
X20403291Y-11525914D02*
X20422339Y-11521152D01*
X20422339Y-11521152D02*
X20436625Y-11521152D01*
X20436625Y-11521152D02*
X20455672Y-11525914D01*
X20455672Y-11525914D02*
X20465196Y-11530676D01*
X20465196Y-11530676D02*
X20474720Y-11540200D01*
X20474720Y-11540200D02*
X20479482Y-11554486D01*
X20479482Y-11554486D02*
X20479482Y-11578295D01*
X20479482Y-11425914D02*
X20479482Y-11483057D01*
X20479482Y-11454486D02*
X20379482Y-11454486D01*
X20379482Y-11454486D02*
X20393768Y-11464009D01*
X20393768Y-11464009D02*
X20403291Y-11473533D01*
X20403291Y-11473533D02*
X20408053Y-11483057D01*
X20503682Y-13010105D02*
X20503682Y-13057724D01*
X20503682Y-13057724D02*
X20403682Y-13057724D01*
X20451301Y-12976771D02*
X20451301Y-12943438D01*
X20503682Y-12929152D02*
X20503682Y-12976771D01*
X20503682Y-12976771D02*
X20403682Y-12976771D01*
X20403682Y-12976771D02*
X20403682Y-12929152D01*
X20503682Y-12886295D02*
X20403682Y-12886295D01*
X20403682Y-12886295D02*
X20403682Y-12862486D01*
X20403682Y-12862486D02*
X20408444Y-12848200D01*
X20408444Y-12848200D02*
X20417968Y-12838676D01*
X20417968Y-12838676D02*
X20427491Y-12833914D01*
X20427491Y-12833914D02*
X20446539Y-12829152D01*
X20446539Y-12829152D02*
X20460825Y-12829152D01*
X20460825Y-12829152D02*
X20479872Y-12833914D01*
X20479872Y-12833914D02*
X20489396Y-12838676D01*
X20489396Y-12838676D02*
X20498920Y-12848200D01*
X20498920Y-12848200D02*
X20503682Y-12862486D01*
X20503682Y-12862486D02*
X20503682Y-12886295D01*
X20403682Y-12795819D02*
X20403682Y-12733914D01*
X20403682Y-12733914D02*
X20441777Y-12767247D01*
X20441777Y-12767247D02*
X20441777Y-12752962D01*
X20441777Y-12752962D02*
X20446539Y-12743438D01*
X20446539Y-12743438D02*
X20451301Y-12738676D01*
X20451301Y-12738676D02*
X20460825Y-12733914D01*
X20460825Y-12733914D02*
X20484634Y-12733914D01*
X20484634Y-12733914D02*
X20494158Y-12738676D01*
X20494158Y-12738676D02*
X20498920Y-12743438D01*
X20498920Y-12743438D02*
X20503682Y-12752962D01*
X20503682Y-12752962D02*
X20503682Y-12781533D01*
X20503682Y-12781533D02*
X20498920Y-12791057D01*
X20498920Y-12791057D02*
X20494158Y-12795819D01*
X20479482Y-14303105D02*
X20479482Y-14350724D01*
X20479482Y-14350724D02*
X20379482Y-14350724D01*
X20427101Y-14269771D02*
X20427101Y-14236438D01*
X20479482Y-14222152D02*
X20479482Y-14269771D01*
X20479482Y-14269771D02*
X20379482Y-14269771D01*
X20379482Y-14269771D02*
X20379482Y-14222152D01*
X20479482Y-14179295D02*
X20379482Y-14179295D01*
X20379482Y-14179295D02*
X20379482Y-14155486D01*
X20379482Y-14155486D02*
X20384244Y-14141200D01*
X20384244Y-14141200D02*
X20393768Y-14131676D01*
X20393768Y-14131676D02*
X20403291Y-14126914D01*
X20403291Y-14126914D02*
X20422339Y-14122152D01*
X20422339Y-14122152D02*
X20436625Y-14122152D01*
X20436625Y-14122152D02*
X20455672Y-14126914D01*
X20455672Y-14126914D02*
X20465196Y-14131676D01*
X20465196Y-14131676D02*
X20474720Y-14141200D01*
X20474720Y-14141200D02*
X20479482Y-14155486D01*
X20479482Y-14155486D02*
X20479482Y-14179295D01*
X20389006Y-14084057D02*
X20384244Y-14079295D01*
X20384244Y-14079295D02*
X20379482Y-14069771D01*
X20379482Y-14069771D02*
X20379482Y-14045962D01*
X20379482Y-14045962D02*
X20384244Y-14036438D01*
X20384244Y-14036438D02*
X20389006Y-14031676D01*
X20389006Y-14031676D02*
X20398530Y-14026914D01*
X20398530Y-14026914D02*
X20408053Y-14026914D01*
X20408053Y-14026914D02*
X20422339Y-14031676D01*
X20422339Y-14031676D02*
X20479482Y-14088819D01*
X20479482Y-14088819D02*
X20479482Y-14026914D01*
D11*
%TO.C,LED1*%
X20275265Y-11576630D02*
X20300665Y-11576630D01*
X20300665Y-11500430D02*
X20300665Y-11576630D01*
X20300665Y-11576630D02*
X20326065Y-11576630D01*
X20300665Y-11627430D02*
X20275265Y-11576630D01*
X20300665Y-11627430D02*
X20300665Y-11703630D01*
X20326065Y-11576630D02*
X20300665Y-11627430D01*
X20326065Y-11627430D02*
X20275265Y-11627430D01*
X20350000Y-11403200D02*
X20250000Y-11403200D01*
X20250000Y-11803200D01*
X20350000Y-11803200D01*
X20350000Y-11403200D01*
%TO.C,LED3*%
X20275265Y-12871630D02*
X20300665Y-12871630D01*
X20300665Y-12795430D02*
X20300665Y-12871630D01*
X20300665Y-12871630D02*
X20326065Y-12871630D01*
X20300665Y-12922430D02*
X20275265Y-12871630D01*
X20300665Y-12922430D02*
X20300665Y-12998630D01*
X20326065Y-12871630D02*
X20300665Y-12922430D01*
X20326065Y-12922430D02*
X20275265Y-12922430D01*
X20350000Y-12698200D02*
X20250000Y-12698200D01*
X20250000Y-13098200D01*
X20350000Y-13098200D01*
X20350000Y-12698200D01*
%TO.C,LED2*%
X20275265Y-14176630D02*
X20300665Y-14176630D01*
X20300665Y-14100430D02*
X20300665Y-14176630D01*
X20300665Y-14176630D02*
X20326065Y-14176630D01*
X20300665Y-14227430D02*
X20275265Y-14176630D01*
X20300665Y-14227430D02*
X20300665Y-14303630D01*
X20326065Y-14176630D02*
X20300665Y-14227430D01*
X20326065Y-14227430D02*
X20275265Y-14227430D01*
X20350000Y-14003200D02*
X20250000Y-14003200D01*
X20250000Y-14403200D01*
X20350000Y-14403200D01*
X20350000Y-14003200D01*
%TD*%
M02*
