%TF.GenerationSoftware,KiCad,Pcbnew,9.0.4*%
%TF.CreationDate,2025-09-02T11:28:21-07:00*%
%TF.ProjectId,salt_booklamp,73616c74-5f62-46f6-9f6b-6c616d702e6b,5*%
%TF.SameCoordinates,Original*%
%TF.FileFunction,Copper,L3,Inr*%
%TF.FilePolarity,Positive*%
%FSLAX45Y45*%
G04 Gerber Fmt 4.5, Leading zero omitted, Abs format (unit mm)*
G04 Created by KiCad (PCBNEW 9.0.4) date 2025-09-02 11:28:21*
%MOMM*%
%LPD*%
G01*
G04 APERTURE LIST*
G04 Aperture macros list*
%AMRoundRect*
0 Rectangle with rounded corners*
0 $1 Rounding radius*
0 $2 $3 $4 $5 $6 $7 $8 $9 X,Y pos of 4 corners*
0 Add a 4 corners polygon primitive as box body*
4,1,4,$2,$3,$4,$5,$6,$7,$8,$9,$2,$3,0*
0 Add four circle primitives for the rounded corners*
1,1,$1+$1,$2,$3*
1,1,$1+$1,$4,$5*
1,1,$1+$1,$6,$7*
1,1,$1+$1,$8,$9*
0 Add four rect primitives between the rounded corners*
20,1,$1+$1,$2,$3,$4,$5,0*
20,1,$1+$1,$4,$5,$6,$7,0*
20,1,$1+$1,$6,$7,$8,$9,0*
20,1,$1+$1,$8,$9,$2,$3,0*%
G04 Aperture macros list end*
%TA.AperFunction,ComponentPad*%
%ADD10C,1.500000*%
%TD*%
%TA.AperFunction,ComponentPad*%
%ADD11RoundRect,0.250000X-0.350000X-0.625000X0.350000X-0.625000X0.350000X0.625000X-0.350000X0.625000X0*%
%TD*%
%TA.AperFunction,ComponentPad*%
%ADD12O,1.200000X1.750000*%
%TD*%
%TA.AperFunction,ViaPad*%
%ADD13C,0.500000*%
%TD*%
G04 APERTURE END LIST*
D10*
%TO.N,/~{CHARGING}*%
%TO.C,TP_~{CHARGING}1*%
X21892500Y-13632500D03*
%TD*%
%TO.N,+3.7_VBATT*%
%TO.C,TP_3.7V_BATT1*%
X21892500Y-13002500D03*
%TD*%
%TO.N,+5V_USB*%
%TO.C,TP_5V_USB1*%
X21892500Y-12792500D03*
%TD*%
%TO.N,/LED_CTRL*%
%TO.C,TP_LED_CTRL1*%
X21892500Y-13842500D03*
%TD*%
%TO.N,/LED_DRV*%
%TO.C,TP_LED_DRV1*%
X21892500Y-14052500D03*
%TD*%
%TO.N,GND*%
%TO.C,TP_GND1*%
X21892500Y-13212500D03*
%TD*%
%TO.N,/~{SWITCH}*%
%TO.C,TP_~{SWITCH}1*%
X21892500Y-13422500D03*
%TD*%
D11*
%TO.N,GND*%
%TO.C,BATT1*%
X24088200Y-14848200D03*
D12*
%TO.N,+3.7_VBATT*%
X24288200Y-14848200D03*
%TD*%
D13*
%TO.N,+3.7_VBATT*%
X24305200Y-15053200D03*
X20618200Y-14600700D03*
X21327500Y-13700000D03*
X20251242Y-14585483D03*
X21047500Y-14787000D03*
X20938200Y-14653200D03*
X20343159Y-14599981D03*
X20590200Y-15053200D03*
X22343200Y-14763200D03*
X20379750Y-14922250D03*
X20940000Y-14782500D03*
%TO.N,+5V_USB*%
X22438200Y-14503200D03*
X22192500Y-14765500D03*
%TO.N,GND*%
X22375000Y-14365000D03*
X20618200Y-14405700D03*
X20689750Y-14922250D03*
X20442500Y-14409500D03*
X22192500Y-14669500D03*
X22467500Y-14987000D03*
X21047500Y-14883000D03*
X22768200Y-14969200D03*
X23778200Y-14969200D03*
X24209200Y-15053200D03*
X20347500Y-14506000D03*
X22475000Y-14365000D03*
X20686200Y-15053200D03*
X22570000Y-14987000D03*
X21447500Y-13827000D03*
X20534750Y-14824750D03*
X22533200Y-14503200D03*
%TO.N,/LED_DRV*%
X20553200Y-14600700D03*
X20442500Y-14505500D03*
X20737500Y-14517500D03*
%TO.N,Net-(LED1-k)*%
X20300000Y-12778200D03*
%TO.N,/LED_CTRL*%
X20737500Y-14580200D03*
X20689750Y-14727250D03*
%TO.N,/~{SWITCH}*%
X20379750Y-14857250D03*
%TO.N,Net-(LED2-k)*%
X20300000Y-14323200D03*
%TO.N,Net-(P1-~{MCLR})*%
X20379750Y-14727250D03*
%TO.N,Net-(P1-ICSPCLK)*%
X20689750Y-14792250D03*
%TO.N,Net-(P1-ICSPDAT)*%
X20835000Y-14782500D03*
%TO.N,Net-(LED2-a)*%
X20300000Y-13018200D03*
X20300000Y-14083200D03*
%TD*%
%TA.AperFunction,Conductor*%
%TO.N,+3.7_VBATT*%
G36*
X24170308Y-10669005D02*
G01*
X24212514Y-10670848D01*
X24212938Y-10670885D01*
X24254720Y-10676385D01*
X24255140Y-10676459D01*
X24296283Y-10685581D01*
X24296695Y-10685691D01*
X24336887Y-10698363D01*
X24337284Y-10698508D01*
X24376220Y-10714636D01*
X24376605Y-10714816D01*
X24413986Y-10734275D01*
X24414356Y-10734488D01*
X24449897Y-10757130D01*
X24450247Y-10757375D01*
X24483678Y-10783028D01*
X24484005Y-10783303D01*
X24515075Y-10811773D01*
X24515377Y-10812075D01*
X24543847Y-10843145D01*
X24544122Y-10843472D01*
X24569775Y-10876903D01*
X24570020Y-10877253D01*
X24592662Y-10912794D01*
X24592875Y-10913164D01*
X24612334Y-10950545D01*
X24612515Y-10950932D01*
X24628641Y-10989864D01*
X24628787Y-10990265D01*
X24641459Y-11030455D01*
X24641569Y-11030868D01*
X24650690Y-11072010D01*
X24650765Y-11072431D01*
X24656265Y-11114211D01*
X24656302Y-11114637D01*
X24658145Y-11156845D01*
X24658150Y-11157059D01*
X24658150Y-14649344D01*
X24658145Y-14649557D01*
X24656302Y-14691763D01*
X24656265Y-14692189D01*
X24650765Y-14733970D01*
X24650690Y-14734391D01*
X24641570Y-14775531D01*
X24641459Y-14775944D01*
X24628787Y-14816135D01*
X24628641Y-14816537D01*
X24612515Y-14855468D01*
X24612334Y-14855855D01*
X24592875Y-14893236D01*
X24592662Y-14893606D01*
X24570020Y-14929147D01*
X24569775Y-14929497D01*
X24544122Y-14962928D01*
X24543847Y-14963255D01*
X24515377Y-14994325D01*
X24515075Y-14994627D01*
X24484005Y-15023097D01*
X24483678Y-15023372D01*
X24450247Y-15049025D01*
X24449897Y-15049270D01*
X24414356Y-15071912D01*
X24413986Y-15072125D01*
X24376606Y-15091584D01*
X24376218Y-15091765D01*
X24337286Y-15107891D01*
X24336884Y-15108037D01*
X24296694Y-15120709D01*
X24296282Y-15120820D01*
X24255141Y-15129940D01*
X24254720Y-15130015D01*
X24212939Y-15135515D01*
X24212513Y-15135552D01*
X24170305Y-15137395D01*
X24170091Y-15137400D01*
X22394650Y-15137400D01*
X22391185Y-15135965D01*
X22389750Y-15132500D01*
X22389750Y-15048230D01*
X24171450Y-15048230D01*
X24171450Y-15058170D01*
X24174022Y-15067771D01*
X24174023Y-15067771D01*
X24176537Y-15072125D01*
X24178992Y-15076379D01*
X24186021Y-15083407D01*
X24189171Y-15085226D01*
X24194629Y-15088377D01*
X24194629Y-15088377D01*
X24194629Y-15088377D01*
X24197029Y-15089020D01*
X24204230Y-15090950D01*
X24204230Y-15090950D01*
X24214170Y-15090950D01*
X24218970Y-15089664D01*
X24223771Y-15088377D01*
X24232379Y-15083407D01*
X24239407Y-15076379D01*
X24244377Y-15067771D01*
X24245664Y-15062970D01*
X24246950Y-15058170D01*
X24246950Y-15048230D01*
X24244377Y-15038629D01*
X24244377Y-15038629D01*
X24239407Y-15030021D01*
X24232379Y-15022992D01*
X24223771Y-15018023D01*
X24223771Y-15018022D01*
X24214170Y-15015450D01*
X24214170Y-15015450D01*
X24204230Y-15015450D01*
X24204230Y-15015450D01*
X24194629Y-15018022D01*
X24194629Y-15018023D01*
X24186021Y-15022992D01*
X24186021Y-15022993D01*
X24178993Y-15030021D01*
X24178992Y-15030021D01*
X24174023Y-15038629D01*
X24174022Y-15038629D01*
X24171450Y-15048230D01*
X22389750Y-15048230D01*
X22389750Y-14982030D01*
X22429750Y-14982030D01*
X22429750Y-14991970D01*
X22432322Y-15001571D01*
X22432323Y-15001571D01*
X22433943Y-15004377D01*
X22437292Y-15010179D01*
X22444321Y-15017207D01*
X22445733Y-15018023D01*
X22452929Y-15022177D01*
X22452929Y-15022177D01*
X22452929Y-15022177D01*
X22455329Y-15022820D01*
X22462530Y-15024750D01*
X22462530Y-15024750D01*
X22472470Y-15024750D01*
X22477612Y-15023372D01*
X22482071Y-15022177D01*
X22490679Y-15017207D01*
X22497707Y-15010179D01*
X22502677Y-15001571D01*
X22504538Y-14994627D01*
X22505250Y-14991970D01*
X22505250Y-14982030D01*
X22532250Y-14982030D01*
X22532250Y-14991970D01*
X22534822Y-15001571D01*
X22534823Y-15001571D01*
X22536443Y-15004377D01*
X22539792Y-15010179D01*
X22546821Y-15017207D01*
X22548233Y-15018023D01*
X22555429Y-15022177D01*
X22555429Y-15022177D01*
X22555429Y-15022177D01*
X22557829Y-15022820D01*
X22565030Y-15024750D01*
X22565030Y-15024750D01*
X22574970Y-15024750D01*
X22580112Y-15023372D01*
X22584571Y-15022177D01*
X22593179Y-15017207D01*
X22600207Y-15010179D01*
X22605177Y-15001571D01*
X22607038Y-14994627D01*
X22607750Y-14991970D01*
X22607750Y-14982030D01*
X22605177Y-14972429D01*
X22605177Y-14972429D01*
X22600443Y-14964230D01*
X22730450Y-14964230D01*
X22730450Y-14974170D01*
X22733022Y-14983771D01*
X22733023Y-14983771D01*
X22737756Y-14991970D01*
X22737992Y-14992379D01*
X22745021Y-14999407D01*
X22748171Y-15001226D01*
X22753629Y-15004377D01*
X22753629Y-15004377D01*
X22753629Y-15004377D01*
X22756029Y-15005020D01*
X22763230Y-15006950D01*
X22763230Y-15006950D01*
X22773170Y-15006950D01*
X22777970Y-15005664D01*
X22782771Y-15004377D01*
X22791379Y-14999407D01*
X22798407Y-14992379D01*
X22803377Y-14983771D01*
X22805876Y-14974448D01*
X22805950Y-14974170D01*
X22805950Y-14964230D01*
X23740450Y-14964230D01*
X23740450Y-14974170D01*
X23743022Y-14983771D01*
X23743023Y-14983771D01*
X23747756Y-14991970D01*
X23747992Y-14992379D01*
X23755021Y-14999407D01*
X23758171Y-15001226D01*
X23763629Y-15004377D01*
X23763629Y-15004377D01*
X23763629Y-15004377D01*
X23766029Y-15005020D01*
X23773230Y-15006950D01*
X23773230Y-15006950D01*
X23783170Y-15006950D01*
X23787970Y-15005664D01*
X23792771Y-15004377D01*
X23801379Y-14999407D01*
X23808407Y-14992379D01*
X23813377Y-14983771D01*
X23815876Y-14974448D01*
X23815950Y-14974170D01*
X23815950Y-14964230D01*
X23813377Y-14954629D01*
X23813377Y-14954629D01*
X23808407Y-14946021D01*
X23801379Y-14938992D01*
X23792771Y-14934023D01*
X23792771Y-14934022D01*
X23783170Y-14931450D01*
X23783170Y-14931450D01*
X23773230Y-14931450D01*
X23773230Y-14931450D01*
X23763629Y-14934022D01*
X23763629Y-14934023D01*
X23755021Y-14938992D01*
X23755021Y-14938993D01*
X23747993Y-14946021D01*
X23747992Y-14946021D01*
X23743023Y-14954629D01*
X23743022Y-14954629D01*
X23740450Y-14964230D01*
X22805950Y-14964230D01*
X22803377Y-14954629D01*
X22803377Y-14954629D01*
X22798407Y-14946021D01*
X22791379Y-14938992D01*
X22782771Y-14934023D01*
X22782771Y-14934022D01*
X22773170Y-14931450D01*
X22773170Y-14931450D01*
X22763230Y-14931450D01*
X22763230Y-14931450D01*
X22753629Y-14934022D01*
X22753629Y-14934023D01*
X22745021Y-14938992D01*
X22745021Y-14938993D01*
X22737993Y-14946021D01*
X22737992Y-14946021D01*
X22733023Y-14954629D01*
X22733022Y-14954629D01*
X22730450Y-14964230D01*
X22600443Y-14964230D01*
X22600207Y-14963821D01*
X22593179Y-14956792D01*
X22589432Y-14954629D01*
X22584571Y-14951823D01*
X22584571Y-14951822D01*
X22574970Y-14949250D01*
X22574970Y-14949250D01*
X22565030Y-14949250D01*
X22565030Y-14949250D01*
X22555429Y-14951822D01*
X22555429Y-14951823D01*
X22546821Y-14956792D01*
X22546821Y-14956793D01*
X22539793Y-14963821D01*
X22539792Y-14963821D01*
X22534823Y-14972429D01*
X22534822Y-14972429D01*
X22532250Y-14982030D01*
X22505250Y-14982030D01*
X22502677Y-14972429D01*
X22502677Y-14972429D01*
X22497707Y-14963821D01*
X22490679Y-14956792D01*
X22482071Y-14951823D01*
X22482071Y-14951822D01*
X22472470Y-14949250D01*
X22472470Y-14949250D01*
X22462530Y-14949250D01*
X22462530Y-14949250D01*
X22452929Y-14951822D01*
X22452929Y-14951823D01*
X22444321Y-14956792D01*
X22444321Y-14956793D01*
X22437293Y-14963821D01*
X22437292Y-14963821D01*
X22432323Y-14972429D01*
X22432322Y-14972429D01*
X22429750Y-14982030D01*
X22389750Y-14982030D01*
X22389750Y-14953068D01*
X22389750Y-14953066D01*
X22389750Y-14946948D01*
X22389750Y-14946947D01*
X22386102Y-14926260D01*
X22378918Y-14906521D01*
X22378918Y-14906521D01*
X22378918Y-14906520D01*
X22368415Y-14888330D01*
X22368316Y-14888211D01*
X22354913Y-14872238D01*
X22354913Y-14872238D01*
X22354912Y-14872237D01*
X22338821Y-14858735D01*
X22320630Y-14848232D01*
X22320629Y-14848232D01*
X22300891Y-14841048D01*
X22300891Y-14841048D01*
X22300890Y-14841048D01*
X22280203Y-14837400D01*
X22259197Y-14837400D01*
X22259197Y-14837400D01*
X22248304Y-14839321D01*
X22238510Y-14841048D01*
X22238510Y-14841048D01*
X22238510Y-14841048D01*
X22218771Y-14848232D01*
X22218770Y-14848232D01*
X22200580Y-14858735D01*
X22184488Y-14872237D01*
X22184488Y-14872238D01*
X22170985Y-14888330D01*
X22160483Y-14906520D01*
X22160482Y-14906521D01*
X22153298Y-14926260D01*
X22153298Y-14926260D01*
X22152048Y-14933351D01*
X22150033Y-14936514D01*
X22147222Y-14937400D01*
X20992178Y-14937400D01*
X20988713Y-14935965D01*
X20987353Y-14933351D01*
X20986102Y-14926260D01*
X20984414Y-14921620D01*
X20981352Y-14913207D01*
X20978918Y-14906521D01*
X20978918Y-14906521D01*
X20978918Y-14906520D01*
X20968415Y-14888330D01*
X20968316Y-14888211D01*
X20959773Y-14878030D01*
X21009750Y-14878030D01*
X21009750Y-14887970D01*
X21012323Y-14897571D01*
X21012323Y-14897571D01*
X21017293Y-14906179D01*
X21024321Y-14913207D01*
X21027472Y-14915026D01*
X21032929Y-14918177D01*
X21032929Y-14918177D01*
X21032929Y-14918177D01*
X21035329Y-14918820D01*
X21042530Y-14920750D01*
X21042530Y-14920750D01*
X21052470Y-14920750D01*
X21057270Y-14919464D01*
X21062071Y-14918177D01*
X21070679Y-14913207D01*
X21077708Y-14906179D01*
X21082011Y-14898724D01*
X21082677Y-14897571D01*
X21082677Y-14897571D01*
X21082677Y-14897571D01*
X21084159Y-14892042D01*
X21085250Y-14887970D01*
X21085250Y-14878030D01*
X21082677Y-14868429D01*
X21082677Y-14868429D01*
X21077769Y-14859927D01*
X21077708Y-14859821D01*
X21070679Y-14852792D01*
X21069791Y-14852280D01*
X21062071Y-14847823D01*
X21062071Y-14847822D01*
X21052470Y-14845250D01*
X21052470Y-14845250D01*
X21042530Y-14845250D01*
X21042530Y-14845250D01*
X21032929Y-14847822D01*
X21032929Y-14847823D01*
X21024321Y-14852792D01*
X21024321Y-14852793D01*
X21017293Y-14859821D01*
X21017293Y-14859821D01*
X21012323Y-14868429D01*
X21012323Y-14868429D01*
X21009750Y-14878030D01*
X20959773Y-14878030D01*
X20954913Y-14872238D01*
X20954912Y-14872238D01*
X20954912Y-14872237D01*
X20938821Y-14858735D01*
X20920630Y-14848232D01*
X20920629Y-14848232D01*
X20900890Y-14841048D01*
X20900891Y-14841048D01*
X20900890Y-14841048D01*
X20880203Y-14837400D01*
X20859197Y-14837400D01*
X20859197Y-14837400D01*
X20848304Y-14839321D01*
X20838510Y-14841048D01*
X20838510Y-14841048D01*
X20838510Y-14841048D01*
X20818771Y-14848232D01*
X20818770Y-14848232D01*
X20800580Y-14858735D01*
X20784488Y-14872237D01*
X20784488Y-14872238D01*
X20770985Y-14888330D01*
X20760483Y-14906520D01*
X20760482Y-14906521D01*
X20753298Y-14926260D01*
X20753298Y-14926260D01*
X20753298Y-14926260D01*
X20752048Y-14933351D01*
X20749650Y-14946947D01*
X20749650Y-15132500D01*
X20748215Y-15135965D01*
X20744750Y-15137400D01*
X20677806Y-15137400D01*
X20677593Y-15137395D01*
X20635387Y-15135553D01*
X20634961Y-15135515D01*
X20593180Y-15130015D01*
X20592759Y-15129941D01*
X20551618Y-15120820D01*
X20551206Y-15120709D01*
X20538942Y-15116843D01*
X20511016Y-15108038D01*
X20510614Y-15107891D01*
X20471682Y-15091765D01*
X20471294Y-15091584D01*
X20433914Y-15072125D01*
X20433544Y-15071912D01*
X20402354Y-15052041D01*
X20398003Y-15049270D01*
X20398003Y-15049270D01*
X20397653Y-15049025D01*
X20396617Y-15048230D01*
X20648450Y-15048230D01*
X20648450Y-15058170D01*
X20651023Y-15067771D01*
X20651023Y-15067771D01*
X20653537Y-15072125D01*
X20655993Y-15076379D01*
X20663021Y-15083407D01*
X20666172Y-15085226D01*
X20671629Y-15088377D01*
X20671629Y-15088377D01*
X20671629Y-15088377D01*
X20674029Y-15089020D01*
X20681230Y-15090950D01*
X20681230Y-15090950D01*
X20691170Y-15090950D01*
X20695970Y-15089664D01*
X20700771Y-15088377D01*
X20709379Y-15083407D01*
X20716408Y-15076379D01*
X20721377Y-15067771D01*
X20722664Y-15062970D01*
X20723950Y-15058170D01*
X20723950Y-15048230D01*
X20721377Y-15038629D01*
X20721377Y-15038629D01*
X20716407Y-15030021D01*
X20709379Y-15022992D01*
X20700771Y-15018023D01*
X20700771Y-15018022D01*
X20691170Y-15015450D01*
X20691170Y-15015450D01*
X20681230Y-15015450D01*
X20681230Y-15015450D01*
X20671629Y-15018022D01*
X20671629Y-15018023D01*
X20663021Y-15022992D01*
X20663021Y-15022993D01*
X20655993Y-15030021D01*
X20655993Y-15030021D01*
X20651023Y-15038629D01*
X20651023Y-15038629D01*
X20648450Y-15048230D01*
X20396617Y-15048230D01*
X20364222Y-15023372D01*
X20363895Y-15023097D01*
X20332825Y-14994627D01*
X20332523Y-14994325D01*
X20330365Y-14991970D01*
X20322137Y-14982991D01*
X20304053Y-14963255D01*
X20303778Y-14962928D01*
X20283745Y-14936821D01*
X20278125Y-14929496D01*
X20277880Y-14929147D01*
X20277880Y-14929147D01*
X20270320Y-14917280D01*
X20652000Y-14917280D01*
X20652000Y-14927220D01*
X20654573Y-14936821D01*
X20654573Y-14936821D01*
X20659543Y-14945429D01*
X20666571Y-14952457D01*
X20668311Y-14953462D01*
X20675179Y-14957427D01*
X20675179Y-14957427D01*
X20675179Y-14957427D01*
X20677579Y-14958070D01*
X20684780Y-14960000D01*
X20684780Y-14960000D01*
X20694720Y-14960000D01*
X20699520Y-14958714D01*
X20704321Y-14957427D01*
X20712929Y-14952457D01*
X20719958Y-14945429D01*
X20724927Y-14936821D01*
X20726890Y-14929497D01*
X20727500Y-14927220D01*
X20727500Y-14917280D01*
X20724927Y-14907679D01*
X20724927Y-14907679D01*
X20719957Y-14899071D01*
X20712929Y-14892042D01*
X20704321Y-14887073D01*
X20704321Y-14887072D01*
X20694720Y-14884500D01*
X20694720Y-14884500D01*
X20684780Y-14884500D01*
X20684780Y-14884500D01*
X20675179Y-14887072D01*
X20675179Y-14887073D01*
X20666571Y-14892042D01*
X20666571Y-14892043D01*
X20659543Y-14899071D01*
X20659543Y-14899071D01*
X20654573Y-14907679D01*
X20654573Y-14907679D01*
X20652000Y-14917280D01*
X20270320Y-14917280D01*
X20267726Y-14913207D01*
X20255238Y-14893606D01*
X20255024Y-14893236D01*
X20235565Y-14855856D01*
X20235385Y-14855470D01*
X20234064Y-14852280D01*
X20342000Y-14852280D01*
X20342000Y-14862220D01*
X20344573Y-14871821D01*
X20344573Y-14871821D01*
X20348157Y-14878030D01*
X20349543Y-14880429D01*
X20356571Y-14887457D01*
X20359722Y-14889276D01*
X20365179Y-14892427D01*
X20365179Y-14892427D01*
X20365179Y-14892427D01*
X20367579Y-14893070D01*
X20374780Y-14895000D01*
X20374780Y-14895000D01*
X20384720Y-14895000D01*
X20389923Y-14893606D01*
X20394321Y-14892427D01*
X20402929Y-14887457D01*
X20409958Y-14880429D01*
X20414687Y-14872238D01*
X20414927Y-14871821D01*
X20414927Y-14871821D01*
X20414927Y-14871821D01*
X20417378Y-14862674D01*
X20417500Y-14862220D01*
X20417500Y-14852280D01*
X20415571Y-14845079D01*
X20414927Y-14842679D01*
X20414927Y-14842679D01*
X20414927Y-14842679D01*
X20409957Y-14834071D01*
X20402929Y-14827042D01*
X20397144Y-14823702D01*
X20394321Y-14822073D01*
X20394321Y-14822072D01*
X20385764Y-14819780D01*
X20497000Y-14819780D01*
X20497000Y-14829720D01*
X20499573Y-14839321D01*
X20499573Y-14839321D01*
X20504481Y-14847822D01*
X20504543Y-14847929D01*
X20511571Y-14854957D01*
X20512456Y-14855468D01*
X20520179Y-14859927D01*
X20520179Y-14859927D01*
X20520179Y-14859927D01*
X20522579Y-14860570D01*
X20529780Y-14862500D01*
X20529780Y-14862500D01*
X20539720Y-14862500D01*
X20544520Y-14861214D01*
X20549321Y-14859927D01*
X20557929Y-14854957D01*
X20564958Y-14847929D01*
X20569927Y-14839321D01*
X20571427Y-14833725D01*
X20572500Y-14829720D01*
X20572500Y-14819780D01*
X20570216Y-14811255D01*
X20569927Y-14810179D01*
X20569927Y-14810179D01*
X20569927Y-14810179D01*
X20564957Y-14801571D01*
X20557929Y-14794542D01*
X20549321Y-14789573D01*
X20549321Y-14789572D01*
X20539720Y-14787000D01*
X20539720Y-14787000D01*
X20529780Y-14787000D01*
X20529780Y-14787000D01*
X20520179Y-14789572D01*
X20520179Y-14789573D01*
X20511571Y-14794542D01*
X20511571Y-14794543D01*
X20504543Y-14801571D01*
X20504543Y-14801571D01*
X20499573Y-14810179D01*
X20499573Y-14810179D01*
X20497000Y-14819780D01*
X20385764Y-14819780D01*
X20384720Y-14819500D01*
X20384720Y-14819500D01*
X20374780Y-14819500D01*
X20374780Y-14819500D01*
X20365179Y-14822072D01*
X20365179Y-14822073D01*
X20356571Y-14827042D01*
X20356571Y-14827043D01*
X20349543Y-14834071D01*
X20349543Y-14834071D01*
X20344573Y-14842679D01*
X20344573Y-14842679D01*
X20342000Y-14852280D01*
X20234064Y-14852280D01*
X20219258Y-14816535D01*
X20219113Y-14816137D01*
X20206441Y-14775944D01*
X20206330Y-14775532D01*
X20206163Y-14774779D01*
X20197209Y-14734390D01*
X20197135Y-14733969D01*
X20196316Y-14727750D01*
X20195596Y-14722280D01*
X20342000Y-14722280D01*
X20342000Y-14732220D01*
X20344573Y-14741821D01*
X20344573Y-14741821D01*
X20347749Y-14747323D01*
X20349543Y-14750429D01*
X20356571Y-14757457D01*
X20359722Y-14759276D01*
X20365179Y-14762427D01*
X20365179Y-14762427D01*
X20365179Y-14762427D01*
X20367491Y-14763047D01*
X20374780Y-14765000D01*
X20374780Y-14765000D01*
X20384720Y-14765000D01*
X20390463Y-14763461D01*
X20394321Y-14762427D01*
X20402929Y-14757457D01*
X20409958Y-14750429D01*
X20414927Y-14741821D01*
X20416919Y-14734390D01*
X20417500Y-14732220D01*
X20417500Y-14722280D01*
X20652000Y-14722280D01*
X20652000Y-14732220D01*
X20654573Y-14741821D01*
X20654573Y-14741821D01*
X20659543Y-14750429D01*
X20665399Y-14756285D01*
X20666834Y-14759750D01*
X20665399Y-14763215D01*
X20659543Y-14769071D01*
X20659543Y-14769071D01*
X20654573Y-14777679D01*
X20654573Y-14777679D01*
X20652000Y-14787280D01*
X20652000Y-14797220D01*
X20654573Y-14806821D01*
X20654573Y-14806821D01*
X20657971Y-14812707D01*
X20659543Y-14815429D01*
X20666571Y-14822457D01*
X20668727Y-14823702D01*
X20675179Y-14827427D01*
X20675179Y-14827427D01*
X20675179Y-14827427D01*
X20677579Y-14828070D01*
X20684780Y-14830000D01*
X20684780Y-14830000D01*
X20694720Y-14830000D01*
X20699520Y-14828714D01*
X20704321Y-14827427D01*
X20712929Y-14822457D01*
X20719958Y-14815429D01*
X20724927Y-14806821D01*
X20726688Y-14800251D01*
X20727500Y-14797220D01*
X20727500Y-14787280D01*
X20727500Y-14787280D01*
X20725141Y-14778477D01*
X20725141Y-14778477D01*
X20724927Y-14777679D01*
X20724927Y-14777679D01*
X20724841Y-14777530D01*
X20797250Y-14777530D01*
X20797250Y-14787470D01*
X20799823Y-14797071D01*
X20799823Y-14797071D01*
X20802421Y-14801571D01*
X20804793Y-14805679D01*
X20811821Y-14812707D01*
X20814972Y-14814526D01*
X20820429Y-14817677D01*
X20820429Y-14817677D01*
X20820429Y-14817677D01*
X20822352Y-14818192D01*
X20830030Y-14820250D01*
X20830030Y-14820250D01*
X20839970Y-14820250D01*
X20844770Y-14818964D01*
X20849571Y-14817677D01*
X20858179Y-14812707D01*
X20859632Y-14811255D01*
X21305450Y-14811255D01*
X21305450Y-14825145D01*
X21309045Y-14838560D01*
X21309045Y-14838561D01*
X21314392Y-14847822D01*
X21315990Y-14850589D01*
X21325811Y-14860410D01*
X21328945Y-14862220D01*
X21337839Y-14867355D01*
X21337839Y-14867355D01*
X21337839Y-14867355D01*
X21348420Y-14870190D01*
X21351255Y-14870950D01*
X21351255Y-14870950D01*
X21351255Y-14870950D01*
X21365145Y-14870950D01*
X21365145Y-14870950D01*
X21378561Y-14867355D01*
X21390589Y-14860410D01*
X21400411Y-14850589D01*
X21407355Y-14838561D01*
X21410950Y-14825145D01*
X21410950Y-14825145D01*
X21410950Y-14811255D01*
X21410950Y-14811255D01*
X21805450Y-14811255D01*
X21805450Y-14825145D01*
X21809045Y-14838560D01*
X21809045Y-14838561D01*
X21814392Y-14847822D01*
X21815990Y-14850589D01*
X21825811Y-14860410D01*
X21828945Y-14862220D01*
X21837839Y-14867355D01*
X21837839Y-14867355D01*
X21837839Y-14867355D01*
X21848420Y-14870190D01*
X21851255Y-14870950D01*
X21851255Y-14870950D01*
X21851255Y-14870950D01*
X21865145Y-14870950D01*
X21865145Y-14870950D01*
X21878561Y-14867355D01*
X21890589Y-14860410D01*
X21900411Y-14850589D01*
X21907355Y-14838561D01*
X21910950Y-14825145D01*
X21910950Y-14825145D01*
X21910950Y-14811255D01*
X21910950Y-14811255D01*
X21908355Y-14801571D01*
X21907355Y-14797839D01*
X21907355Y-14797839D01*
X21907355Y-14797839D01*
X21902067Y-14788679D01*
X21900411Y-14785811D01*
X21890589Y-14775989D01*
X21889798Y-14775532D01*
X21878561Y-14769045D01*
X21878561Y-14769045D01*
X21865145Y-14765450D01*
X21865145Y-14765450D01*
X21851255Y-14765450D01*
X21851255Y-14765450D01*
X21837839Y-14769045D01*
X21837839Y-14769045D01*
X21825811Y-14775989D01*
X21825811Y-14775990D01*
X21815990Y-14785811D01*
X21815990Y-14785811D01*
X21809045Y-14797839D01*
X21809045Y-14797839D01*
X21805450Y-14811255D01*
X21410950Y-14811255D01*
X21408355Y-14801571D01*
X21407355Y-14797839D01*
X21407355Y-14797839D01*
X21407355Y-14797839D01*
X21402067Y-14788679D01*
X21400411Y-14785811D01*
X21390589Y-14775989D01*
X21389798Y-14775532D01*
X21378561Y-14769045D01*
X21378561Y-14769045D01*
X21365145Y-14765450D01*
X21365145Y-14765450D01*
X21351255Y-14765450D01*
X21351255Y-14765450D01*
X21337839Y-14769045D01*
X21337839Y-14769045D01*
X21325811Y-14775989D01*
X21325811Y-14775990D01*
X21315990Y-14785811D01*
X21315990Y-14785811D01*
X21309045Y-14797839D01*
X21309045Y-14797839D01*
X21305450Y-14811255D01*
X20859632Y-14811255D01*
X20865208Y-14805679D01*
X20870177Y-14797071D01*
X20872426Y-14788679D01*
X20872750Y-14787470D01*
X20872750Y-14777530D01*
X20870483Y-14769071D01*
X20870177Y-14767929D01*
X20865905Y-14760530D01*
X22154750Y-14760530D01*
X22154750Y-14770470D01*
X22157323Y-14780071D01*
X22157323Y-14780071D01*
X22161323Y-14787000D01*
X22162293Y-14788679D01*
X22169321Y-14795707D01*
X22171941Y-14797220D01*
X22177929Y-14800677D01*
X22177929Y-14800677D01*
X22177929Y-14800677D01*
X22180329Y-14801320D01*
X22187530Y-14803250D01*
X22187530Y-14803250D01*
X22197470Y-14803250D01*
X22202270Y-14801964D01*
X22207071Y-14800677D01*
X22215679Y-14795707D01*
X22222708Y-14788679D01*
X22226496Y-14782117D01*
X24015450Y-14782117D01*
X24015450Y-14914283D01*
X24016519Y-14921620D01*
X24016519Y-14921620D01*
X24018787Y-14926260D01*
X24022052Y-14932939D01*
X24030961Y-14941848D01*
X24042280Y-14947381D01*
X24049617Y-14948450D01*
X24126783Y-14948450D01*
X24126783Y-14948450D01*
X24132286Y-14947648D01*
X24134120Y-14947381D01*
X24145439Y-14941848D01*
X24154348Y-14932939D01*
X24159881Y-14921620D01*
X24160950Y-14914283D01*
X24160950Y-14847929D01*
X24160950Y-14812043D01*
X24178200Y-14812043D01*
X24178200Y-14823200D01*
X24260167Y-14823200D01*
X24258192Y-14825174D01*
X24253256Y-14833725D01*
X24250700Y-14843263D01*
X24250700Y-14853137D01*
X24253256Y-14862674D01*
X24258192Y-14871225D01*
X24260167Y-14873200D01*
X24178200Y-14873200D01*
X24178200Y-14884357D01*
X24180908Y-14901458D01*
X24180909Y-14901458D01*
X24186259Y-14917925D01*
X24194120Y-14933353D01*
X24194120Y-14933353D01*
X24204297Y-14947360D01*
X24204297Y-14947361D01*
X24216539Y-14959603D01*
X24216540Y-14959603D01*
X24230547Y-14969780D01*
X24230547Y-14969780D01*
X24245975Y-14977641D01*
X24262442Y-14982991D01*
X24263200Y-14983111D01*
X24263200Y-14876233D01*
X24265174Y-14878207D01*
X24273725Y-14883144D01*
X24283263Y-14885700D01*
X24293137Y-14885700D01*
X24302674Y-14883144D01*
X24311225Y-14878207D01*
X24313200Y-14876233D01*
X24313200Y-14983111D01*
X24313958Y-14982991D01*
X24330425Y-14977641D01*
X24345853Y-14969780D01*
X24345853Y-14969780D01*
X24359860Y-14959603D01*
X24359861Y-14959603D01*
X24372103Y-14947361D01*
X24372103Y-14947360D01*
X24382280Y-14933353D01*
X24382280Y-14933353D01*
X24390141Y-14917925D01*
X24395491Y-14901458D01*
X24395491Y-14901458D01*
X24398200Y-14884357D01*
X24398200Y-14873200D01*
X24316233Y-14873200D01*
X24318207Y-14871225D01*
X24323144Y-14862674D01*
X24325700Y-14853137D01*
X24325700Y-14843263D01*
X24323144Y-14833725D01*
X24318207Y-14825174D01*
X24316233Y-14823200D01*
X24398200Y-14823200D01*
X24398200Y-14812043D01*
X24395491Y-14794942D01*
X24395491Y-14794941D01*
X24390141Y-14778475D01*
X24382280Y-14763047D01*
X24382280Y-14763047D01*
X24372103Y-14749040D01*
X24372103Y-14749039D01*
X24359861Y-14736797D01*
X24359860Y-14736797D01*
X24345853Y-14726620D01*
X24345853Y-14726620D01*
X24330425Y-14718759D01*
X24313958Y-14713408D01*
X24313958Y-14713408D01*
X24313200Y-14713288D01*
X24313200Y-14820167D01*
X24311225Y-14818192D01*
X24302674Y-14813256D01*
X24293137Y-14810700D01*
X24283263Y-14810700D01*
X24273725Y-14813256D01*
X24265174Y-14818192D01*
X24263200Y-14820167D01*
X24263200Y-14713288D01*
X24263200Y-14713288D01*
X24262442Y-14713408D01*
X24262442Y-14713408D01*
X24245975Y-14718759D01*
X24230547Y-14726620D01*
X24230547Y-14726620D01*
X24216540Y-14736797D01*
X24204297Y-14749040D01*
X24194120Y-14763047D01*
X24194120Y-14763047D01*
X24186259Y-14778475D01*
X24180909Y-14794941D01*
X24180908Y-14794942D01*
X24178200Y-14812043D01*
X24160950Y-14812043D01*
X24160950Y-14811850D01*
X24160950Y-14782117D01*
X24159881Y-14774780D01*
X24159881Y-14774779D01*
X24157077Y-14769045D01*
X24154348Y-14763461D01*
X24145439Y-14754552D01*
X24138027Y-14750929D01*
X24134121Y-14749019D01*
X24134120Y-14749019D01*
X24126783Y-14747950D01*
X24049617Y-14747950D01*
X24042280Y-14749019D01*
X24042279Y-14749019D01*
X24030961Y-14754552D01*
X24030961Y-14754552D01*
X24022052Y-14763461D01*
X24022052Y-14763461D01*
X24016519Y-14774779D01*
X24016519Y-14774779D01*
X24015450Y-14782117D01*
X22226496Y-14782117D01*
X22227677Y-14780071D01*
X22228318Y-14777679D01*
X22230250Y-14770470D01*
X22230250Y-14760530D01*
X22228321Y-14753329D01*
X22227677Y-14750929D01*
X22227677Y-14750929D01*
X22227677Y-14750929D01*
X22222707Y-14742321D01*
X22215679Y-14735292D01*
X22207071Y-14730323D01*
X22207071Y-14730322D01*
X22197470Y-14727750D01*
X22197470Y-14727750D01*
X22187530Y-14727750D01*
X22187530Y-14727750D01*
X22177929Y-14730322D01*
X22177929Y-14730323D01*
X22169321Y-14735292D01*
X22169321Y-14735293D01*
X22162293Y-14742321D01*
X22162293Y-14742321D01*
X22157323Y-14750929D01*
X22157323Y-14750929D01*
X22154750Y-14760530D01*
X20865905Y-14760530D01*
X20865208Y-14759321D01*
X20858179Y-14752292D01*
X20849571Y-14747323D01*
X20849571Y-14747322D01*
X20839970Y-14744750D01*
X20839970Y-14744750D01*
X20830030Y-14744750D01*
X20830030Y-14744750D01*
X20820429Y-14747322D01*
X20820429Y-14747323D01*
X20811821Y-14752292D01*
X20811821Y-14752293D01*
X20804793Y-14759321D01*
X20804793Y-14759321D01*
X20799823Y-14767929D01*
X20799823Y-14767929D01*
X20797250Y-14777530D01*
X20724841Y-14777530D01*
X20721777Y-14772221D01*
X20719958Y-14769071D01*
X20714101Y-14763215D01*
X20712666Y-14759750D01*
X20714101Y-14756285D01*
X20719957Y-14750429D01*
X20719958Y-14750429D01*
X20724927Y-14741821D01*
X20726919Y-14734390D01*
X20727500Y-14732220D01*
X20727500Y-14722280D01*
X20725123Y-14713408D01*
X20724927Y-14712679D01*
X20724927Y-14712679D01*
X20724927Y-14712679D01*
X20719957Y-14704071D01*
X20712929Y-14697042D01*
X20704321Y-14692073D01*
X20704321Y-14692072D01*
X20694720Y-14689500D01*
X20694720Y-14689500D01*
X20684780Y-14689500D01*
X20684780Y-14689500D01*
X20675179Y-14692072D01*
X20675179Y-14692073D01*
X20666571Y-14697042D01*
X20666571Y-14697043D01*
X20659543Y-14704071D01*
X20659543Y-14704071D01*
X20654573Y-14712679D01*
X20654573Y-14712679D01*
X20652000Y-14722280D01*
X20417500Y-14722280D01*
X20415123Y-14713408D01*
X20414927Y-14712679D01*
X20414927Y-14712679D01*
X20414927Y-14712679D01*
X20409957Y-14704071D01*
X20402929Y-14697042D01*
X20394321Y-14692073D01*
X20394321Y-14692072D01*
X20384720Y-14689500D01*
X20384720Y-14689500D01*
X20374780Y-14689500D01*
X20374780Y-14689500D01*
X20365179Y-14692072D01*
X20365179Y-14692073D01*
X20356571Y-14697042D01*
X20356571Y-14697043D01*
X20349543Y-14704071D01*
X20349543Y-14704071D01*
X20344573Y-14712679D01*
X20344573Y-14712679D01*
X20342000Y-14722280D01*
X20195596Y-14722280D01*
X20191634Y-14692188D01*
X20191597Y-14691763D01*
X20191261Y-14684071D01*
X20190408Y-14664530D01*
X22154750Y-14664530D01*
X22154750Y-14674470D01*
X22157323Y-14684071D01*
X22157323Y-14684071D01*
X22162293Y-14692679D01*
X22169321Y-14699707D01*
X22172472Y-14701526D01*
X22177929Y-14704677D01*
X22177929Y-14704677D01*
X22177929Y-14704677D01*
X22180329Y-14705320D01*
X22187530Y-14707250D01*
X22187530Y-14707250D01*
X22197470Y-14707250D01*
X22202270Y-14705964D01*
X22207071Y-14704677D01*
X22215679Y-14699707D01*
X22222708Y-14692679D01*
X22227677Y-14684071D01*
X22228964Y-14679270D01*
X22230250Y-14674470D01*
X22230250Y-14664530D01*
X22227677Y-14654929D01*
X22227677Y-14654929D01*
X22222707Y-14646321D01*
X22215679Y-14639292D01*
X22207071Y-14634323D01*
X22207071Y-14634322D01*
X22197470Y-14631750D01*
X22197470Y-14631750D01*
X22187530Y-14631750D01*
X22187530Y-14631750D01*
X22177929Y-14634322D01*
X22177929Y-14634323D01*
X22169321Y-14639292D01*
X22169321Y-14639293D01*
X22162293Y-14646321D01*
X22162293Y-14646321D01*
X22157323Y-14654929D01*
X22157323Y-14654929D01*
X22154750Y-14664530D01*
X20190408Y-14664530D01*
X20189755Y-14649564D01*
X20189750Y-14649351D01*
X20189750Y-14595730D01*
X20515450Y-14595730D01*
X20515450Y-14605670D01*
X20518023Y-14615271D01*
X20518023Y-14615271D01*
X20521763Y-14621750D01*
X20522993Y-14623879D01*
X20530021Y-14630907D01*
X20533172Y-14632726D01*
X20538629Y-14635877D01*
X20538629Y-14635877D01*
X20538629Y-14635877D01*
X20541029Y-14636520D01*
X20548230Y-14638450D01*
X20548230Y-14638450D01*
X20558170Y-14638450D01*
X20562970Y-14637164D01*
X20567771Y-14635877D01*
X20576379Y-14630907D01*
X20583408Y-14623879D01*
X20587711Y-14616424D01*
X20588377Y-14615271D01*
X20588377Y-14615271D01*
X20588377Y-14615271D01*
X20590401Y-14607718D01*
X20590950Y-14605670D01*
X20590950Y-14595730D01*
X20588377Y-14586129D01*
X20588377Y-14586129D01*
X20583407Y-14577521D01*
X20576379Y-14570492D01*
X20567771Y-14565523D01*
X20567771Y-14565522D01*
X20558170Y-14562950D01*
X20558170Y-14562950D01*
X20548230Y-14562950D01*
X20548230Y-14562950D01*
X20538629Y-14565522D01*
X20538629Y-14565523D01*
X20530021Y-14570492D01*
X20530021Y-14570493D01*
X20522993Y-14577521D01*
X20522993Y-14577521D01*
X20518023Y-14586129D01*
X20518023Y-14586129D01*
X20515450Y-14595730D01*
X20189750Y-14595730D01*
X20189750Y-14501030D01*
X20309750Y-14501030D01*
X20309750Y-14510970D01*
X20312323Y-14520571D01*
X20312323Y-14520571D01*
X20317004Y-14528679D01*
X20317293Y-14529179D01*
X20324321Y-14536207D01*
X20326309Y-14537355D01*
X20332929Y-14541177D01*
X20332929Y-14541177D01*
X20332929Y-14541177D01*
X20335329Y-14541820D01*
X20342530Y-14543750D01*
X20342530Y-14543750D01*
X20352470Y-14543750D01*
X20359188Y-14541950D01*
X20362071Y-14541177D01*
X20362465Y-14540950D01*
X20363224Y-14540511D01*
X20370679Y-14536207D01*
X20377708Y-14529179D01*
X20382677Y-14520571D01*
X20384569Y-14513512D01*
X20385250Y-14510970D01*
X20385250Y-14501030D01*
X20385250Y-14501030D01*
X20385116Y-14500530D01*
X20404750Y-14500530D01*
X20404750Y-14510470D01*
X20407323Y-14520071D01*
X20407323Y-14520071D01*
X20410717Y-14525950D01*
X20412293Y-14528679D01*
X20419321Y-14535707D01*
X20420954Y-14536650D01*
X20427929Y-14540677D01*
X20427929Y-14540677D01*
X20427929Y-14540677D01*
X20429795Y-14541177D01*
X20437530Y-14543250D01*
X20437530Y-14543250D01*
X20447470Y-14543250D01*
X20452322Y-14541950D01*
X20457071Y-14540677D01*
X20465679Y-14535707D01*
X20472708Y-14528679D01*
X20477341Y-14520653D01*
X20477677Y-14520071D01*
X20477677Y-14520071D01*
X20477677Y-14520071D01*
X20478964Y-14515270D01*
X20480250Y-14510470D01*
X20480250Y-14500530D01*
X20479963Y-14499460D01*
X20479963Y-14499460D01*
X20479753Y-14498674D01*
X20540450Y-14498674D01*
X20540450Y-14507725D01*
X20541794Y-14510970D01*
X20543914Y-14516087D01*
X20543914Y-14516087D01*
X20543914Y-14516087D01*
X20550313Y-14522486D01*
X20550313Y-14522486D01*
X20550313Y-14522486D01*
X20558675Y-14525950D01*
X20558675Y-14525950D01*
X20567725Y-14525950D01*
X20567725Y-14525950D01*
X20576087Y-14522486D01*
X20576087Y-14522486D01*
X20576087Y-14522486D01*
X20582486Y-14516087D01*
X20582486Y-14516087D01*
X20582487Y-14516087D01*
X20585950Y-14507725D01*
X20585950Y-14498675D01*
X20585950Y-14498674D01*
X20650450Y-14498674D01*
X20650450Y-14507725D01*
X20651794Y-14510970D01*
X20653914Y-14516087D01*
X20653914Y-14516087D01*
X20653914Y-14516087D01*
X20660313Y-14522486D01*
X20660313Y-14522486D01*
X20660313Y-14522486D01*
X20668675Y-14525950D01*
X20668675Y-14525950D01*
X20677725Y-14525950D01*
X20677725Y-14525950D01*
X20686087Y-14522486D01*
X20686087Y-14522486D01*
X20686087Y-14522486D01*
X20691385Y-14517188D01*
X20694850Y-14515753D01*
X20698315Y-14517188D01*
X20699750Y-14520653D01*
X20699750Y-14522470D01*
X20702323Y-14532071D01*
X20702323Y-14532071D01*
X20707293Y-14540679D01*
X20711999Y-14545385D01*
X20713434Y-14548850D01*
X20711999Y-14552315D01*
X20707292Y-14557021D01*
X20702323Y-14565629D01*
X20702323Y-14565629D01*
X20699750Y-14575230D01*
X20699750Y-14585170D01*
X20702323Y-14594771D01*
X20702323Y-14594771D01*
X20704943Y-14599309D01*
X20707293Y-14603379D01*
X20714321Y-14610408D01*
X20716992Y-14611950D01*
X20722929Y-14615378D01*
X20722929Y-14615378D01*
X20722929Y-14615378D01*
X20725329Y-14616021D01*
X20732530Y-14617950D01*
X20732530Y-14617950D01*
X20742470Y-14617950D01*
X20747270Y-14616664D01*
X20752071Y-14615378D01*
X20752256Y-14615271D01*
X20753224Y-14614712D01*
X20760679Y-14610408D01*
X20767708Y-14603379D01*
X20772677Y-14594771D01*
X20773999Y-14589841D01*
X20775250Y-14585170D01*
X20775250Y-14575230D01*
X20775066Y-14574545D01*
X20775066Y-14574545D01*
X20774813Y-14573598D01*
X22843150Y-14573598D01*
X22843150Y-14584802D01*
X22846050Y-14595623D01*
X22846050Y-14595624D01*
X22850543Y-14603406D01*
X22851651Y-14605326D01*
X22859574Y-14613248D01*
X22863076Y-14615271D01*
X22869276Y-14618850D01*
X22869276Y-14618850D01*
X22869276Y-14618850D01*
X22877811Y-14621137D01*
X22880098Y-14621750D01*
X22880098Y-14621750D01*
X22880098Y-14621750D01*
X22921302Y-14621750D01*
X22921302Y-14621750D01*
X22932124Y-14618850D01*
X22941826Y-14613248D01*
X22949748Y-14605326D01*
X22955289Y-14595730D01*
X22955350Y-14595624D01*
X22955350Y-14595624D01*
X22955350Y-14595624D01*
X22958250Y-14584802D01*
X22958250Y-14584802D01*
X22958250Y-14574888D01*
X23000450Y-14574888D01*
X23000450Y-14583512D01*
X23002682Y-14591841D01*
X23002682Y-14591841D01*
X23006993Y-14599308D01*
X23006993Y-14599309D01*
X23006993Y-14599309D01*
X23013091Y-14605406D01*
X23013091Y-14605407D01*
X23013092Y-14605407D01*
X23020559Y-14609718D01*
X23020559Y-14609718D01*
X23024424Y-14610754D01*
X23028888Y-14611950D01*
X23028888Y-14611950D01*
X23037512Y-14611950D01*
X23040418Y-14611171D01*
X23045841Y-14609718D01*
X23049305Y-14607718D01*
X23053308Y-14605407D01*
X23053308Y-14605407D01*
X23053309Y-14605406D01*
X23059406Y-14599309D01*
X23063718Y-14591841D01*
X23065950Y-14583512D01*
X23065950Y-14574888D01*
X23065950Y-14574888D01*
X23065950Y-14574888D01*
X23080450Y-14574888D01*
X23080450Y-14583512D01*
X23082682Y-14591841D01*
X23082682Y-14591841D01*
X23086993Y-14599308D01*
X23086993Y-14599309D01*
X23086993Y-14599309D01*
X23093091Y-14605406D01*
X23093091Y-14605407D01*
X23093092Y-14605407D01*
X23100559Y-14609718D01*
X23100559Y-14609718D01*
X23104424Y-14610754D01*
X23108888Y-14611950D01*
X23108888Y-14611950D01*
X23117512Y-14611950D01*
X23120418Y-14611171D01*
X23125841Y-14609718D01*
X23129305Y-14607718D01*
X23133308Y-14605407D01*
X23133308Y-14605407D01*
X23133309Y-14605406D01*
X23139406Y-14599309D01*
X23143718Y-14591841D01*
X23145950Y-14583512D01*
X23145950Y-14574888D01*
X23145950Y-14574888D01*
X23145950Y-14574888D01*
X23145668Y-14573835D01*
X23145414Y-14572888D01*
X23160450Y-14572888D01*
X23160450Y-14581512D01*
X23162682Y-14589841D01*
X23162682Y-14589841D01*
X23166993Y-14597308D01*
X23166993Y-14597309D01*
X23166993Y-14597309D01*
X23173091Y-14603406D01*
X23173091Y-14603407D01*
X23173092Y-14603407D01*
X23177012Y-14605670D01*
X23180559Y-14607718D01*
X23184424Y-14608754D01*
X23188888Y-14609950D01*
X23188888Y-14609950D01*
X23197512Y-14609950D01*
X23200418Y-14609171D01*
X23205841Y-14607718D01*
X23213309Y-14603406D01*
X23219406Y-14597309D01*
X23223718Y-14589841D01*
X23225950Y-14581512D01*
X23225950Y-14572888D01*
X23225950Y-14572888D01*
X23320450Y-14572888D01*
X23320450Y-14581512D01*
X23322682Y-14589841D01*
X23322682Y-14589841D01*
X23326993Y-14597308D01*
X23326993Y-14597309D01*
X23326993Y-14597309D01*
X23333091Y-14603406D01*
X23333091Y-14603407D01*
X23333092Y-14603407D01*
X23337012Y-14605670D01*
X23340559Y-14607718D01*
X23344424Y-14608754D01*
X23348888Y-14609950D01*
X23348888Y-14609950D01*
X23357512Y-14609950D01*
X23360418Y-14609171D01*
X23365841Y-14607718D01*
X23373309Y-14603406D01*
X23379406Y-14597309D01*
X23383718Y-14589841D01*
X23385950Y-14581512D01*
X23385950Y-14574888D01*
X23400450Y-14574888D01*
X23400450Y-14583512D01*
X23402682Y-14591841D01*
X23402682Y-14591841D01*
X23406993Y-14599308D01*
X23406993Y-14599309D01*
X23406993Y-14599309D01*
X23413091Y-14605406D01*
X23413091Y-14605407D01*
X23413092Y-14605407D01*
X23420559Y-14609718D01*
X23420559Y-14609718D01*
X23424424Y-14610754D01*
X23428888Y-14611950D01*
X23428888Y-14611950D01*
X23437512Y-14611950D01*
X23440418Y-14611171D01*
X23445841Y-14609718D01*
X23449305Y-14607718D01*
X23453308Y-14605407D01*
X23453308Y-14605407D01*
X23453309Y-14605406D01*
X23459406Y-14599309D01*
X23463718Y-14591841D01*
X23465950Y-14583512D01*
X23465950Y-14574888D01*
X23465950Y-14574888D01*
X23465950Y-14574888D01*
X23480450Y-14574888D01*
X23480450Y-14583512D01*
X23482682Y-14591841D01*
X23482682Y-14591841D01*
X23486993Y-14599308D01*
X23486993Y-14599309D01*
X23486993Y-14599309D01*
X23493091Y-14605406D01*
X23493091Y-14605407D01*
X23493092Y-14605407D01*
X23500559Y-14609718D01*
X23500559Y-14609718D01*
X23504424Y-14610754D01*
X23508888Y-14611950D01*
X23508888Y-14611950D01*
X23517512Y-14611950D01*
X23520418Y-14611171D01*
X23525841Y-14609718D01*
X23529305Y-14607718D01*
X23533308Y-14605407D01*
X23533308Y-14605407D01*
X23533309Y-14605406D01*
X23539406Y-14599309D01*
X23543718Y-14591841D01*
X23545950Y-14583512D01*
X23545950Y-14574888D01*
X23545950Y-14574888D01*
X23545858Y-14574545D01*
X23545858Y-14574545D01*
X23545604Y-14573598D01*
X23603150Y-14573598D01*
X23603150Y-14584802D01*
X23606050Y-14595623D01*
X23606050Y-14595624D01*
X23610543Y-14603406D01*
X23611651Y-14605326D01*
X23619574Y-14613248D01*
X23623076Y-14615271D01*
X23629276Y-14618850D01*
X23629276Y-14618850D01*
X23629276Y-14618850D01*
X23637811Y-14621137D01*
X23640098Y-14621750D01*
X23640098Y-14621750D01*
X23640098Y-14621750D01*
X23651302Y-14621750D01*
X23651302Y-14621750D01*
X23662124Y-14618850D01*
X23671826Y-14613248D01*
X23679748Y-14605326D01*
X23685289Y-14595730D01*
X23685350Y-14595624D01*
X23685350Y-14595624D01*
X23685350Y-14595624D01*
X23688250Y-14584802D01*
X23688250Y-14584802D01*
X23688250Y-14573598D01*
X23688250Y-14573598D01*
X23687418Y-14570492D01*
X23685350Y-14562776D01*
X23685350Y-14562776D01*
X23685350Y-14562776D01*
X23679748Y-14553074D01*
X23671826Y-14545151D01*
X23662124Y-14539550D01*
X23662123Y-14539550D01*
X23651302Y-14536650D01*
X23651302Y-14536650D01*
X23640098Y-14536650D01*
X23640098Y-14536650D01*
X23629276Y-14539550D01*
X23629276Y-14539550D01*
X23619574Y-14545151D01*
X23619574Y-14545152D01*
X23611652Y-14553074D01*
X23611651Y-14553074D01*
X23606050Y-14562776D01*
X23606050Y-14562776D01*
X23603150Y-14573598D01*
X23545604Y-14573598D01*
X23544772Y-14570492D01*
X23543718Y-14566559D01*
X23543718Y-14566559D01*
X23543718Y-14566559D01*
X23539407Y-14559092D01*
X23539407Y-14559091D01*
X23539406Y-14559091D01*
X23533309Y-14552993D01*
X23533309Y-14552993D01*
X23533308Y-14552993D01*
X23525841Y-14548682D01*
X23517512Y-14546450D01*
X23517512Y-14546450D01*
X23508888Y-14546450D01*
X23508888Y-14546450D01*
X23500559Y-14548682D01*
X23500559Y-14548682D01*
X23493092Y-14552993D01*
X23493091Y-14552994D01*
X23486994Y-14559091D01*
X23486993Y-14559092D01*
X23482682Y-14566559D01*
X23482682Y-14566559D01*
X23480450Y-14574888D01*
X23465950Y-14574888D01*
X23464772Y-14570492D01*
X23463718Y-14566559D01*
X23463718Y-14566559D01*
X23463718Y-14566559D01*
X23459407Y-14559092D01*
X23459407Y-14559091D01*
X23459406Y-14559091D01*
X23453309Y-14552993D01*
X23453309Y-14552993D01*
X23453308Y-14552993D01*
X23445841Y-14548682D01*
X23437512Y-14546450D01*
X23437512Y-14546450D01*
X23428888Y-14546450D01*
X23428888Y-14546450D01*
X23420559Y-14548682D01*
X23420559Y-14548682D01*
X23413092Y-14552993D01*
X23413091Y-14552994D01*
X23406994Y-14559091D01*
X23406993Y-14559092D01*
X23402682Y-14566559D01*
X23402682Y-14566559D01*
X23400450Y-14574888D01*
X23385950Y-14574888D01*
X23385950Y-14572888D01*
X23385950Y-14572888D01*
X23384254Y-14566559D01*
X23383718Y-14564559D01*
X23383718Y-14564559D01*
X23383718Y-14564559D01*
X23379407Y-14557092D01*
X23379407Y-14557091D01*
X23379406Y-14557091D01*
X23373309Y-14550993D01*
X23373309Y-14550993D01*
X23373308Y-14550993D01*
X23365841Y-14546682D01*
X23357512Y-14544450D01*
X23357512Y-14544450D01*
X23348888Y-14544450D01*
X23348888Y-14544450D01*
X23340559Y-14546682D01*
X23340559Y-14546682D01*
X23333092Y-14550993D01*
X23333091Y-14550994D01*
X23326994Y-14557091D01*
X23326993Y-14557092D01*
X23322682Y-14564559D01*
X23322682Y-14564559D01*
X23320450Y-14572888D01*
X23225950Y-14572888D01*
X23224254Y-14566559D01*
X23223718Y-14564559D01*
X23223718Y-14564559D01*
X23223718Y-14564559D01*
X23219407Y-14557092D01*
X23219407Y-14557091D01*
X23219406Y-14557091D01*
X23213309Y-14550993D01*
X23213309Y-14550993D01*
X23213308Y-14550993D01*
X23205841Y-14546682D01*
X23197512Y-14544450D01*
X23197512Y-14544450D01*
X23188888Y-14544450D01*
X23188888Y-14544450D01*
X23180559Y-14546682D01*
X23180559Y-14546682D01*
X23173092Y-14550993D01*
X23173091Y-14550994D01*
X23166994Y-14557091D01*
X23166993Y-14557092D01*
X23162682Y-14564559D01*
X23162682Y-14564559D01*
X23160450Y-14572888D01*
X23145414Y-14572888D01*
X23144772Y-14570492D01*
X23143718Y-14566559D01*
X23143718Y-14566559D01*
X23143718Y-14566559D01*
X23139407Y-14559092D01*
X23139407Y-14559091D01*
X23139406Y-14559091D01*
X23133309Y-14552993D01*
X23133309Y-14552993D01*
X23133308Y-14552993D01*
X23125841Y-14548682D01*
X23117512Y-14546450D01*
X23117512Y-14546450D01*
X23108888Y-14546450D01*
X23108888Y-14546450D01*
X23100559Y-14548682D01*
X23100559Y-14548682D01*
X23093092Y-14552993D01*
X23093091Y-14552994D01*
X23086994Y-14559091D01*
X23086993Y-14559092D01*
X23082682Y-14566559D01*
X23082682Y-14566559D01*
X23080450Y-14574888D01*
X23065950Y-14574888D01*
X23064772Y-14570492D01*
X23063718Y-14566559D01*
X23063718Y-14566559D01*
X23063718Y-14566559D01*
X23059407Y-14559092D01*
X23059407Y-14559091D01*
X23059406Y-14559091D01*
X23053309Y-14552993D01*
X23053309Y-14552993D01*
X23053308Y-14552993D01*
X23045841Y-14548682D01*
X23037512Y-14546450D01*
X23037512Y-14546450D01*
X23028888Y-14546450D01*
X23028888Y-14546450D01*
X23020559Y-14548682D01*
X23020559Y-14548682D01*
X23013092Y-14552993D01*
X23013091Y-14552994D01*
X23006994Y-14559091D01*
X23006993Y-14559092D01*
X23002682Y-14566559D01*
X23002682Y-14566559D01*
X23000450Y-14574888D01*
X22958250Y-14574888D01*
X22958250Y-14573598D01*
X22958250Y-14573598D01*
X22957418Y-14570492D01*
X22955350Y-14562776D01*
X22955350Y-14562776D01*
X22955350Y-14562776D01*
X22949748Y-14553074D01*
X22941826Y-14545151D01*
X22932124Y-14539550D01*
X22932123Y-14539550D01*
X22921302Y-14536650D01*
X22921302Y-14536650D01*
X22880098Y-14536650D01*
X22880098Y-14536650D01*
X22869276Y-14539550D01*
X22869276Y-14539550D01*
X22859574Y-14545151D01*
X22859574Y-14545152D01*
X22851652Y-14553074D01*
X22851651Y-14553074D01*
X22846050Y-14562776D01*
X22846050Y-14562776D01*
X22843150Y-14573598D01*
X20774813Y-14573598D01*
X20773815Y-14569873D01*
X20772677Y-14565629D01*
X20772677Y-14565629D01*
X20772677Y-14565629D01*
X20768902Y-14559091D01*
X20767708Y-14557021D01*
X20763001Y-14552315D01*
X20761566Y-14548850D01*
X20763001Y-14545385D01*
X20767708Y-14540679D01*
X20772677Y-14532071D01*
X20775246Y-14522486D01*
X20775250Y-14522470D01*
X20775250Y-14512530D01*
X20772677Y-14502929D01*
X20772677Y-14502929D01*
X20769000Y-14496559D01*
X20767708Y-14494321D01*
X20760679Y-14487292D01*
X20757016Y-14485178D01*
X20752071Y-14482323D01*
X20752071Y-14482322D01*
X20748086Y-14481255D01*
X21555450Y-14481255D01*
X21555450Y-14495145D01*
X21559045Y-14508560D01*
X21559045Y-14508561D01*
X21564362Y-14517771D01*
X21565990Y-14520589D01*
X21575811Y-14530410D01*
X21580213Y-14532952D01*
X21587839Y-14537355D01*
X21587839Y-14537355D01*
X21587839Y-14537355D01*
X21596029Y-14539550D01*
X21601255Y-14540950D01*
X21601255Y-14540950D01*
X21601255Y-14540950D01*
X21615145Y-14540950D01*
X21615145Y-14540950D01*
X21628561Y-14537355D01*
X21629782Y-14536650D01*
X21630549Y-14536207D01*
X21640589Y-14530410D01*
X21650411Y-14520589D01*
X21657355Y-14508561D01*
X21659507Y-14500530D01*
X21660123Y-14498230D01*
X22400450Y-14498230D01*
X22400450Y-14508170D01*
X22403022Y-14517771D01*
X22403023Y-14517771D01*
X22407745Y-14525950D01*
X22407992Y-14526379D01*
X22415021Y-14533407D01*
X22418171Y-14535226D01*
X22423629Y-14538377D01*
X22423629Y-14538377D01*
X22423629Y-14538377D01*
X22426029Y-14539020D01*
X22433230Y-14540950D01*
X22433230Y-14540950D01*
X22443170Y-14540950D01*
X22447970Y-14539664D01*
X22452771Y-14538377D01*
X22461379Y-14533407D01*
X22468407Y-14526379D01*
X22473377Y-14517771D01*
X22475200Y-14510970D01*
X22475950Y-14508170D01*
X22475950Y-14498230D01*
X22495450Y-14498230D01*
X22495450Y-14508170D01*
X22498022Y-14517771D01*
X22498023Y-14517771D01*
X22502745Y-14525950D01*
X22502992Y-14526379D01*
X22510021Y-14533407D01*
X22513171Y-14535226D01*
X22518629Y-14538377D01*
X22518629Y-14538377D01*
X22518629Y-14538377D01*
X22521029Y-14539020D01*
X22528230Y-14540950D01*
X22528230Y-14540950D01*
X22538170Y-14540950D01*
X22542970Y-14539664D01*
X22547771Y-14538377D01*
X22556379Y-14533407D01*
X22563407Y-14526379D01*
X22568377Y-14517771D01*
X22570200Y-14510970D01*
X22570950Y-14508170D01*
X22570950Y-14504888D01*
X22935450Y-14504888D01*
X22935450Y-14513512D01*
X22937682Y-14521841D01*
X22937682Y-14521841D01*
X22941993Y-14529308D01*
X22941993Y-14529309D01*
X22941993Y-14529309D01*
X22948091Y-14535406D01*
X22948091Y-14535407D01*
X22948092Y-14535407D01*
X22953237Y-14538377D01*
X22955559Y-14539718D01*
X22959139Y-14540677D01*
X22963888Y-14541950D01*
X22963888Y-14541950D01*
X22972512Y-14541950D01*
X22975418Y-14541171D01*
X22980841Y-14539718D01*
X22988309Y-14535406D01*
X22994406Y-14529309D01*
X22998345Y-14522486D01*
X22998718Y-14521841D01*
X22998718Y-14521841D01*
X22998718Y-14521841D01*
X23000950Y-14513512D01*
X23000950Y-14504888D01*
X23000950Y-14504888D01*
X23120450Y-14504888D01*
X23120450Y-14513512D01*
X23122682Y-14521841D01*
X23122682Y-14521841D01*
X23126993Y-14529308D01*
X23126993Y-14529309D01*
X23126993Y-14529309D01*
X23133091Y-14535406D01*
X23133091Y-14535407D01*
X23133092Y-14535407D01*
X23138237Y-14538377D01*
X23140559Y-14539718D01*
X23144139Y-14540677D01*
X23148888Y-14541950D01*
X23148888Y-14541950D01*
X23157512Y-14541950D01*
X23160418Y-14541171D01*
X23165841Y-14539718D01*
X23173309Y-14535406D01*
X23179406Y-14529309D01*
X23183345Y-14522486D01*
X23183718Y-14521841D01*
X23183718Y-14521841D01*
X23183718Y-14521841D01*
X23185950Y-14513512D01*
X23185950Y-14504888D01*
X23185950Y-14504888D01*
X23200450Y-14504888D01*
X23200450Y-14513512D01*
X23202682Y-14521841D01*
X23202682Y-14521841D01*
X23206993Y-14529308D01*
X23206993Y-14529309D01*
X23206993Y-14529309D01*
X23213091Y-14535406D01*
X23213091Y-14535407D01*
X23213092Y-14535407D01*
X23218237Y-14538377D01*
X23220559Y-14539718D01*
X23224139Y-14540677D01*
X23228888Y-14541950D01*
X23228888Y-14541950D01*
X23237512Y-14541950D01*
X23240418Y-14541171D01*
X23245841Y-14539718D01*
X23253309Y-14535406D01*
X23259406Y-14529309D01*
X23263345Y-14522486D01*
X23263718Y-14521841D01*
X23263718Y-14521841D01*
X23263718Y-14521841D01*
X23265950Y-14513512D01*
X23265950Y-14504888D01*
X23265950Y-14504888D01*
X23280450Y-14504888D01*
X23280450Y-14513512D01*
X23282682Y-14521841D01*
X23282682Y-14521841D01*
X23286993Y-14529308D01*
X23286993Y-14529309D01*
X23286993Y-14529309D01*
X23293091Y-14535406D01*
X23293091Y-14535407D01*
X23293092Y-14535407D01*
X23298237Y-14538377D01*
X23300559Y-14539718D01*
X23304139Y-14540677D01*
X23308888Y-14541950D01*
X23308888Y-14541950D01*
X23317512Y-14541950D01*
X23320418Y-14541171D01*
X23325841Y-14539718D01*
X23333309Y-14535406D01*
X23339406Y-14529309D01*
X23343345Y-14522486D01*
X23343718Y-14521841D01*
X23343718Y-14521841D01*
X23343718Y-14521841D01*
X23345950Y-14513512D01*
X23345950Y-14504888D01*
X23345950Y-14504888D01*
X23360450Y-14504888D01*
X23360450Y-14513512D01*
X23362682Y-14521841D01*
X23362682Y-14521841D01*
X23366993Y-14529308D01*
X23366993Y-14529309D01*
X23366993Y-14529309D01*
X23373091Y-14535406D01*
X23373091Y-14535407D01*
X23373092Y-14535407D01*
X23378237Y-14538377D01*
X23380559Y-14539718D01*
X23384139Y-14540677D01*
X23388888Y-14541950D01*
X23388888Y-14541950D01*
X23397512Y-14541950D01*
X23400418Y-14541171D01*
X23405841Y-14539718D01*
X23413309Y-14535406D01*
X23419406Y-14529309D01*
X23423345Y-14522486D01*
X23423718Y-14521841D01*
X23423718Y-14521841D01*
X23423718Y-14521841D01*
X23425950Y-14513512D01*
X23425950Y-14504888D01*
X23425950Y-14504888D01*
X23545450Y-14504888D01*
X23545450Y-14513512D01*
X23547682Y-14521841D01*
X23547682Y-14521841D01*
X23551993Y-14529308D01*
X23551993Y-14529309D01*
X23551993Y-14529309D01*
X23558091Y-14535406D01*
X23558091Y-14535407D01*
X23558092Y-14535407D01*
X23563237Y-14538377D01*
X23565559Y-14539718D01*
X23569139Y-14540677D01*
X23573888Y-14541950D01*
X23573888Y-14541950D01*
X23582512Y-14541950D01*
X23585418Y-14541171D01*
X23590841Y-14539718D01*
X23598309Y-14535406D01*
X23604406Y-14529309D01*
X23608345Y-14522486D01*
X23608718Y-14521841D01*
X23608718Y-14521841D01*
X23608718Y-14521841D01*
X23610950Y-14513512D01*
X23610950Y-14504888D01*
X23610950Y-14504888D01*
X23609977Y-14501257D01*
X23608718Y-14496559D01*
X23608718Y-14496559D01*
X23608718Y-14496559D01*
X23604407Y-14489092D01*
X23604407Y-14489091D01*
X23604406Y-14489091D01*
X23598309Y-14482993D01*
X23598309Y-14482993D01*
X23598308Y-14482993D01*
X23590841Y-14478682D01*
X23582512Y-14476450D01*
X23582512Y-14476450D01*
X23573888Y-14476450D01*
X23573888Y-14476450D01*
X23565559Y-14478682D01*
X23565559Y-14478682D01*
X23558092Y-14482993D01*
X23558091Y-14482994D01*
X23551994Y-14489091D01*
X23551993Y-14489092D01*
X23547682Y-14496559D01*
X23547682Y-14496559D01*
X23545450Y-14504888D01*
X23425950Y-14504888D01*
X23424977Y-14501257D01*
X23423718Y-14496559D01*
X23423718Y-14496559D01*
X23423718Y-14496559D01*
X23419407Y-14489092D01*
X23419407Y-14489091D01*
X23419406Y-14489091D01*
X23413309Y-14482993D01*
X23413309Y-14482993D01*
X23413308Y-14482993D01*
X23405841Y-14478682D01*
X23397512Y-14476450D01*
X23397512Y-14476450D01*
X23388888Y-14476450D01*
X23388888Y-14476450D01*
X23380559Y-14478682D01*
X23380559Y-14478682D01*
X23373092Y-14482993D01*
X23373091Y-14482994D01*
X23366994Y-14489091D01*
X23366993Y-14489092D01*
X23362682Y-14496559D01*
X23362682Y-14496559D01*
X23360450Y-14504888D01*
X23345950Y-14504888D01*
X23344977Y-14501257D01*
X23343718Y-14496559D01*
X23343718Y-14496559D01*
X23343718Y-14496559D01*
X23339407Y-14489092D01*
X23339407Y-14489091D01*
X23339406Y-14489091D01*
X23333309Y-14482993D01*
X23333309Y-14482993D01*
X23333308Y-14482993D01*
X23325841Y-14478682D01*
X23317512Y-14476450D01*
X23317512Y-14476450D01*
X23308888Y-14476450D01*
X23308888Y-14476450D01*
X23300559Y-14478682D01*
X23300559Y-14478682D01*
X23293092Y-14482993D01*
X23293091Y-14482994D01*
X23286994Y-14489091D01*
X23286993Y-14489092D01*
X23282682Y-14496559D01*
X23282682Y-14496559D01*
X23280450Y-14504888D01*
X23265950Y-14504888D01*
X23264977Y-14501257D01*
X23263718Y-14496559D01*
X23263718Y-14496559D01*
X23263718Y-14496559D01*
X23259407Y-14489092D01*
X23259407Y-14489091D01*
X23259406Y-14489091D01*
X23253309Y-14482993D01*
X23253309Y-14482993D01*
X23253308Y-14482993D01*
X23245841Y-14478682D01*
X23237512Y-14476450D01*
X23237512Y-14476450D01*
X23228888Y-14476450D01*
X23228888Y-14476450D01*
X23220559Y-14478682D01*
X23220559Y-14478682D01*
X23213092Y-14482993D01*
X23213091Y-14482994D01*
X23206994Y-14489091D01*
X23206993Y-14489092D01*
X23202682Y-14496559D01*
X23202682Y-14496559D01*
X23200450Y-14504888D01*
X23185950Y-14504888D01*
X23184977Y-14501257D01*
X23183718Y-14496559D01*
X23183718Y-14496559D01*
X23183718Y-14496559D01*
X23179407Y-14489092D01*
X23179407Y-14489091D01*
X23179406Y-14489091D01*
X23173309Y-14482993D01*
X23173309Y-14482993D01*
X23173308Y-14482993D01*
X23165841Y-14478682D01*
X23157512Y-14476450D01*
X23157512Y-14476450D01*
X23148888Y-14476450D01*
X23148888Y-14476450D01*
X23140559Y-14478682D01*
X23140559Y-14478682D01*
X23133092Y-14482993D01*
X23133091Y-14482994D01*
X23126994Y-14489091D01*
X23126993Y-14489092D01*
X23122682Y-14496559D01*
X23122682Y-14496559D01*
X23120450Y-14504888D01*
X23000950Y-14504888D01*
X22999977Y-14501257D01*
X22998718Y-14496559D01*
X22998718Y-14496559D01*
X22998718Y-14496559D01*
X22994407Y-14489092D01*
X22994407Y-14489091D01*
X22994406Y-14489091D01*
X22988309Y-14482993D01*
X22988309Y-14482993D01*
X22988308Y-14482993D01*
X22980841Y-14478682D01*
X22972512Y-14476450D01*
X22972512Y-14476450D01*
X22963888Y-14476450D01*
X22963888Y-14476450D01*
X22955559Y-14478682D01*
X22955559Y-14478682D01*
X22948092Y-14482993D01*
X22948091Y-14482994D01*
X22941994Y-14489091D01*
X22941993Y-14489092D01*
X22937682Y-14496559D01*
X22937682Y-14496559D01*
X22935450Y-14504888D01*
X22570950Y-14504888D01*
X22570950Y-14498230D01*
X22568994Y-14490929D01*
X22568377Y-14488629D01*
X22568377Y-14488629D01*
X22568377Y-14488629D01*
X22565024Y-14482821D01*
X22563407Y-14480021D01*
X22556379Y-14472992D01*
X22547771Y-14468023D01*
X22547771Y-14468022D01*
X22538170Y-14465450D01*
X22538170Y-14465450D01*
X22528230Y-14465450D01*
X22528230Y-14465450D01*
X22518629Y-14468022D01*
X22518629Y-14468023D01*
X22510021Y-14472992D01*
X22510021Y-14472993D01*
X22502993Y-14480021D01*
X22502992Y-14480021D01*
X22498023Y-14488629D01*
X22498022Y-14488629D01*
X22495450Y-14498230D01*
X22475950Y-14498230D01*
X22473994Y-14490929D01*
X22473377Y-14488629D01*
X22473377Y-14488629D01*
X22473377Y-14488629D01*
X22470024Y-14482821D01*
X22468407Y-14480021D01*
X22461379Y-14472992D01*
X22452771Y-14468023D01*
X22452771Y-14468022D01*
X22443170Y-14465450D01*
X22443170Y-14465450D01*
X22433230Y-14465450D01*
X22433230Y-14465450D01*
X22423629Y-14468022D01*
X22423629Y-14468023D01*
X22415021Y-14472992D01*
X22415021Y-14472993D01*
X22407993Y-14480021D01*
X22407992Y-14480021D01*
X22403023Y-14488629D01*
X22403022Y-14488629D01*
X22400450Y-14498230D01*
X21660123Y-14498230D01*
X21660549Y-14496641D01*
X21660549Y-14496641D01*
X21660950Y-14495145D01*
X21660950Y-14481255D01*
X21660950Y-14481255D01*
X21658021Y-14470323D01*
X21657355Y-14467839D01*
X21657355Y-14467839D01*
X21657355Y-14467839D01*
X21650410Y-14455811D01*
X21640589Y-14445989D01*
X21628561Y-14439045D01*
X21628561Y-14439045D01*
X21615145Y-14435450D01*
X21615145Y-14435450D01*
X21601255Y-14435450D01*
X21601255Y-14435450D01*
X21587839Y-14439045D01*
X21587839Y-14439045D01*
X21575811Y-14445989D01*
X21575811Y-14445990D01*
X21565990Y-14455811D01*
X21565990Y-14455811D01*
X21559045Y-14467839D01*
X21559045Y-14467839D01*
X21555450Y-14481255D01*
X20748086Y-14481255D01*
X20742470Y-14479750D01*
X20742470Y-14479750D01*
X20732530Y-14479750D01*
X20732530Y-14479750D01*
X20722929Y-14482322D01*
X20722929Y-14482323D01*
X20714321Y-14487292D01*
X20714321Y-14487293D01*
X20707293Y-14494321D01*
X20707293Y-14494321D01*
X20707293Y-14494321D01*
X20706817Y-14495145D01*
X20704606Y-14498974D01*
X20701631Y-14501257D01*
X20697913Y-14500767D01*
X20695836Y-14498399D01*
X20695236Y-14496950D01*
X20692487Y-14490313D01*
X20692486Y-14490313D01*
X20692486Y-14490313D01*
X20686087Y-14483914D01*
X20686087Y-14483914D01*
X20686087Y-14483913D01*
X20681189Y-14481885D01*
X20677725Y-14480450D01*
X20677725Y-14480450D01*
X20668675Y-14480450D01*
X20668675Y-14480450D01*
X20660313Y-14483914D01*
X20653914Y-14490313D01*
X20653914Y-14490313D01*
X20653914Y-14490313D01*
X20653451Y-14491429D01*
X20650450Y-14498674D01*
X20585950Y-14498674D01*
X20582487Y-14490313D01*
X20582486Y-14490313D01*
X20582486Y-14490313D01*
X20576087Y-14483914D01*
X20576087Y-14483914D01*
X20576087Y-14483913D01*
X20571189Y-14481885D01*
X20567725Y-14480450D01*
X20567725Y-14480450D01*
X20558675Y-14480450D01*
X20558675Y-14480450D01*
X20550313Y-14483914D01*
X20543914Y-14490313D01*
X20543914Y-14490313D01*
X20543914Y-14490313D01*
X20543451Y-14491429D01*
X20540450Y-14498674D01*
X20479753Y-14498674D01*
X20477677Y-14490929D01*
X20477677Y-14490929D01*
X20473096Y-14482994D01*
X20472708Y-14482321D01*
X20465679Y-14475292D01*
X20463044Y-14473771D01*
X20457071Y-14470323D01*
X20457071Y-14470322D01*
X20447470Y-14467750D01*
X20447470Y-14467750D01*
X20437530Y-14467750D01*
X20437530Y-14467750D01*
X20427929Y-14470322D01*
X20427929Y-14470323D01*
X20419321Y-14475292D01*
X20419321Y-14475293D01*
X20412293Y-14482321D01*
X20412293Y-14482321D01*
X20407323Y-14490929D01*
X20407323Y-14490929D01*
X20404750Y-14500530D01*
X20385116Y-14500530D01*
X20384157Y-14496950D01*
X20382677Y-14491429D01*
X20382677Y-14491429D01*
X20382677Y-14491429D01*
X20379068Y-14485178D01*
X20377708Y-14482821D01*
X20370679Y-14475792D01*
X20362071Y-14470823D01*
X20362071Y-14470822D01*
X20352470Y-14468250D01*
X20352470Y-14468250D01*
X20342530Y-14468250D01*
X20342530Y-14468250D01*
X20332929Y-14470822D01*
X20332929Y-14470823D01*
X20324321Y-14475792D01*
X20324321Y-14475793D01*
X20317293Y-14482821D01*
X20317293Y-14482821D01*
X20312323Y-14491429D01*
X20312323Y-14491429D01*
X20309750Y-14501030D01*
X20189750Y-14501030D01*
X20189750Y-14404530D01*
X20404750Y-14404530D01*
X20404750Y-14414470D01*
X20407323Y-14424071D01*
X20407323Y-14424071D01*
X20410099Y-14428879D01*
X20412293Y-14432679D01*
X20419321Y-14439707D01*
X20421347Y-14440877D01*
X20427929Y-14444677D01*
X20427929Y-14444677D01*
X20427929Y-14444677D01*
X20430329Y-14445320D01*
X20437530Y-14447250D01*
X20437530Y-14447250D01*
X20447470Y-14447250D01*
X20452270Y-14445964D01*
X20457071Y-14444677D01*
X20465679Y-14439707D01*
X20472708Y-14432679D01*
X20477677Y-14424071D01*
X20478964Y-14419270D01*
X20480250Y-14414470D01*
X20480250Y-14404530D01*
X20479486Y-14401677D01*
X20479232Y-14400730D01*
X20580450Y-14400730D01*
X20580450Y-14410670D01*
X20583023Y-14420271D01*
X20583023Y-14420271D01*
X20587993Y-14428879D01*
X20595021Y-14435907D01*
X20598172Y-14437726D01*
X20603629Y-14440877D01*
X20603629Y-14440877D01*
X20603629Y-14440877D01*
X20606029Y-14441520D01*
X20613230Y-14443450D01*
X20613230Y-14443450D01*
X20623170Y-14443450D01*
X20627970Y-14442164D01*
X20632771Y-14440877D01*
X20641379Y-14435907D01*
X20648408Y-14428879D01*
X20653377Y-14420271D01*
X20654932Y-14414470D01*
X20655950Y-14410670D01*
X20655950Y-14400730D01*
X20653377Y-14391129D01*
X20653377Y-14391129D01*
X20648407Y-14382521D01*
X20641379Y-14375492D01*
X20632771Y-14370523D01*
X20632771Y-14370522D01*
X20623170Y-14367950D01*
X20623170Y-14367950D01*
X20613230Y-14367950D01*
X20613230Y-14367950D01*
X20603629Y-14370522D01*
X20603629Y-14370523D01*
X20595021Y-14375492D01*
X20595021Y-14375493D01*
X20587993Y-14382521D01*
X20587993Y-14382521D01*
X20583023Y-14391129D01*
X20583023Y-14391129D01*
X20580450Y-14400730D01*
X20479232Y-14400730D01*
X20478636Y-14398505D01*
X20477677Y-14394929D01*
X20477677Y-14394929D01*
X20477677Y-14394929D01*
X20472707Y-14386321D01*
X20465679Y-14379292D01*
X20457071Y-14374323D01*
X20457071Y-14374322D01*
X20447470Y-14371750D01*
X20447470Y-14371750D01*
X20437530Y-14371750D01*
X20437530Y-14371750D01*
X20427929Y-14374322D01*
X20427929Y-14374323D01*
X20419321Y-14379292D01*
X20419321Y-14379293D01*
X20412293Y-14386321D01*
X20412293Y-14386321D01*
X20407323Y-14394929D01*
X20407323Y-14394929D01*
X20404750Y-14404530D01*
X20189750Y-14404530D01*
X20189750Y-14318230D01*
X20262250Y-14318230D01*
X20262250Y-14328170D01*
X20264823Y-14337771D01*
X20264823Y-14337771D01*
X20267161Y-14341821D01*
X20269793Y-14346379D01*
X20276821Y-14353407D01*
X20279972Y-14355226D01*
X20285429Y-14358377D01*
X20285429Y-14358377D01*
X20285429Y-14358377D01*
X20287829Y-14359020D01*
X20295030Y-14360950D01*
X20295030Y-14360950D01*
X20304970Y-14360950D01*
X20308404Y-14360030D01*
X22337250Y-14360030D01*
X22337250Y-14369970D01*
X22339823Y-14379571D01*
X22339823Y-14379571D01*
X22342743Y-14384629D01*
X22344793Y-14388179D01*
X22351821Y-14395207D01*
X22354972Y-14397026D01*
X22360429Y-14400177D01*
X22360429Y-14400177D01*
X22360429Y-14400177D01*
X22362491Y-14400730D01*
X22370030Y-14402750D01*
X22370030Y-14402750D01*
X22379970Y-14402750D01*
X22384770Y-14401464D01*
X22389571Y-14400177D01*
X22398179Y-14395207D01*
X22405207Y-14388179D01*
X22410177Y-14379571D01*
X22411584Y-14374322D01*
X22412750Y-14369970D01*
X22412750Y-14360030D01*
X22437250Y-14360030D01*
X22437250Y-14369970D01*
X22439822Y-14379571D01*
X22439823Y-14379571D01*
X22442743Y-14384629D01*
X22444792Y-14388179D01*
X22451821Y-14395207D01*
X22454971Y-14397026D01*
X22460429Y-14400177D01*
X22460429Y-14400177D01*
X22460429Y-14400177D01*
X22462491Y-14400730D01*
X22470030Y-14402750D01*
X22470030Y-14402750D01*
X22479970Y-14402750D01*
X22484770Y-14401464D01*
X22489571Y-14400177D01*
X22498179Y-14395207D01*
X22499157Y-14394230D01*
X22785450Y-14394230D01*
X22785450Y-14464170D01*
X22788022Y-14473771D01*
X22788023Y-14473771D01*
X22792344Y-14481255D01*
X22792992Y-14482379D01*
X22800021Y-14489407D01*
X22802656Y-14490929D01*
X22808629Y-14494377D01*
X22808629Y-14494377D01*
X22808629Y-14494377D01*
X22811029Y-14495020D01*
X22818230Y-14496950D01*
X22818230Y-14496950D01*
X22828170Y-14496950D01*
X22832970Y-14495664D01*
X22837771Y-14494377D01*
X22846379Y-14489407D01*
X22853407Y-14482379D01*
X22858377Y-14473771D01*
X22860607Y-14465450D01*
X22860950Y-14464170D01*
X22860950Y-14394230D01*
X23685450Y-14394230D01*
X23685450Y-14464170D01*
X23688022Y-14473771D01*
X23688023Y-14473771D01*
X23692344Y-14481255D01*
X23692992Y-14482379D01*
X23700021Y-14489407D01*
X23702656Y-14490929D01*
X23708629Y-14494377D01*
X23708629Y-14494377D01*
X23708629Y-14494377D01*
X23711029Y-14495020D01*
X23718230Y-14496950D01*
X23718230Y-14496950D01*
X23728170Y-14496950D01*
X23732970Y-14495664D01*
X23737771Y-14494377D01*
X23746379Y-14489407D01*
X23753407Y-14482379D01*
X23758377Y-14473771D01*
X23760607Y-14465450D01*
X23760950Y-14464170D01*
X23760950Y-14394230D01*
X23758377Y-14384629D01*
X23758377Y-14384629D01*
X23753407Y-14376021D01*
X23746379Y-14368992D01*
X23737771Y-14364023D01*
X23737771Y-14364022D01*
X23728170Y-14361450D01*
X23728170Y-14361450D01*
X23718230Y-14361450D01*
X23718230Y-14361450D01*
X23708629Y-14364022D01*
X23708629Y-14364023D01*
X23700021Y-14368992D01*
X23700021Y-14368993D01*
X23692993Y-14376021D01*
X23692992Y-14376021D01*
X23688023Y-14384629D01*
X23688022Y-14384629D01*
X23685450Y-14394230D01*
X22860950Y-14394230D01*
X22858377Y-14384629D01*
X22858377Y-14384629D01*
X22853407Y-14376021D01*
X22846379Y-14368992D01*
X22837771Y-14364023D01*
X22837771Y-14364022D01*
X22828170Y-14361450D01*
X22828170Y-14361450D01*
X22818230Y-14361450D01*
X22818230Y-14361450D01*
X22808629Y-14364022D01*
X22808629Y-14364023D01*
X22800021Y-14368992D01*
X22800021Y-14368993D01*
X22792993Y-14376021D01*
X22792992Y-14376021D01*
X22788023Y-14384629D01*
X22788022Y-14384629D01*
X22785450Y-14394230D01*
X22499157Y-14394230D01*
X22505207Y-14388179D01*
X22510177Y-14379571D01*
X22511584Y-14374322D01*
X22512750Y-14369970D01*
X22512750Y-14360030D01*
X22510177Y-14350429D01*
X22510177Y-14350429D01*
X22505207Y-14341821D01*
X22498179Y-14334792D01*
X22489571Y-14329823D01*
X22489571Y-14329822D01*
X22479970Y-14327250D01*
X22479970Y-14327250D01*
X22470030Y-14327250D01*
X22470030Y-14327250D01*
X22460429Y-14329822D01*
X22460429Y-14329823D01*
X22451821Y-14334792D01*
X22451821Y-14334793D01*
X22444793Y-14341821D01*
X22444792Y-14341821D01*
X22439823Y-14350429D01*
X22439822Y-14350429D01*
X22437250Y-14360030D01*
X22412750Y-14360030D01*
X22410177Y-14350429D01*
X22410177Y-14350429D01*
X22405207Y-14341821D01*
X22398179Y-14334792D01*
X22389571Y-14329823D01*
X22389571Y-14329822D01*
X22379970Y-14327250D01*
X22379970Y-14327250D01*
X22370030Y-14327250D01*
X22370030Y-14327250D01*
X22360429Y-14329822D01*
X22360429Y-14329823D01*
X22351821Y-14334792D01*
X22351821Y-14334793D01*
X22344793Y-14341821D01*
X22344793Y-14341821D01*
X22339823Y-14350429D01*
X22339823Y-14350429D01*
X22337250Y-14360030D01*
X20308404Y-14360030D01*
X20309770Y-14359664D01*
X20314571Y-14358377D01*
X20323179Y-14353407D01*
X20330208Y-14346379D01*
X20335177Y-14337771D01*
X20337307Y-14329822D01*
X20337750Y-14328170D01*
X20337750Y-14318230D01*
X20335177Y-14308629D01*
X20335177Y-14308629D01*
X20330207Y-14300021D01*
X20323179Y-14292992D01*
X20314571Y-14288023D01*
X20314571Y-14288022D01*
X20304970Y-14285450D01*
X20304970Y-14285450D01*
X20295030Y-14285450D01*
X20295030Y-14285450D01*
X20285429Y-14288022D01*
X20285429Y-14288023D01*
X20276821Y-14292992D01*
X20276821Y-14292993D01*
X20269793Y-14300021D01*
X20269793Y-14300021D01*
X20264823Y-14308629D01*
X20264823Y-14308629D01*
X20262250Y-14318230D01*
X20189750Y-14318230D01*
X20189750Y-14078230D01*
X20262250Y-14078230D01*
X20262250Y-14088170D01*
X20264823Y-14097771D01*
X20264823Y-14097771D01*
X20269793Y-14106379D01*
X20276821Y-14113407D01*
X20279972Y-14115226D01*
X20285429Y-14118377D01*
X20285429Y-14118377D01*
X20285429Y-14118377D01*
X20287829Y-14119020D01*
X20295030Y-14120950D01*
X20295030Y-14120950D01*
X20304970Y-14120950D01*
X20309770Y-14119664D01*
X20314571Y-14118377D01*
X20323179Y-14113407D01*
X20330208Y-14106379D01*
X20335177Y-14097771D01*
X20336464Y-14092970D01*
X20337750Y-14088170D01*
X20337750Y-14078230D01*
X20335177Y-14068629D01*
X20335177Y-14068629D01*
X20330855Y-14061143D01*
X20330208Y-14060021D01*
X20323179Y-14052992D01*
X20314571Y-14048023D01*
X20314571Y-14048022D01*
X20304970Y-14045450D01*
X20304970Y-14045450D01*
X20295030Y-14045450D01*
X20295030Y-14045450D01*
X20285429Y-14048022D01*
X20285429Y-14048023D01*
X20276821Y-14052992D01*
X20276821Y-14052993D01*
X20269793Y-14060021D01*
X20269793Y-14060021D01*
X20264823Y-14068629D01*
X20264823Y-14068629D01*
X20262250Y-14078230D01*
X20189750Y-14078230D01*
X20189750Y-14007364D01*
X20694705Y-14007364D01*
X20694705Y-14027636D01*
X20697876Y-14047659D01*
X20697876Y-14047660D01*
X20704141Y-14066940D01*
X20709894Y-14078230D01*
X20713345Y-14085003D01*
X20722621Y-14097771D01*
X20725261Y-14101404D01*
X20725261Y-14101405D01*
X20739595Y-14115739D01*
X20739596Y-14115739D01*
X20739596Y-14115739D01*
X20755997Y-14127655D01*
X20774060Y-14136859D01*
X20793340Y-14143124D01*
X20813364Y-14146295D01*
X20813364Y-14146295D01*
X20833636Y-14146295D01*
X20833636Y-14146295D01*
X20853660Y-14143124D01*
X20872940Y-14136859D01*
X20891003Y-14127655D01*
X20907404Y-14115739D01*
X20907405Y-14115739D01*
X20907405Y-14115739D01*
X20921739Y-14101405D01*
X20921739Y-14101405D01*
X20921739Y-14101404D01*
X20933655Y-14085003D01*
X20942859Y-14066940D01*
X20949124Y-14047660D01*
X20952295Y-14027636D01*
X20952295Y-14007364D01*
X21266205Y-14007364D01*
X21266205Y-14027636D01*
X21269376Y-14047659D01*
X21269376Y-14047660D01*
X21275641Y-14066940D01*
X21281394Y-14078230D01*
X21284845Y-14085003D01*
X21294121Y-14097771D01*
X21296761Y-14101404D01*
X21296761Y-14101405D01*
X21311095Y-14115739D01*
X21311096Y-14115739D01*
X21311096Y-14115739D01*
X21327497Y-14127655D01*
X21345560Y-14136859D01*
X21364840Y-14143124D01*
X21384864Y-14146295D01*
X21384864Y-14146295D01*
X21405136Y-14146295D01*
X21405136Y-14146295D01*
X21425160Y-14143124D01*
X21444440Y-14136859D01*
X21462503Y-14127655D01*
X21478904Y-14115739D01*
X21478905Y-14115739D01*
X21478905Y-14115739D01*
X21493239Y-14101405D01*
X21493239Y-14101405D01*
X21493239Y-14101404D01*
X21505155Y-14085003D01*
X21514359Y-14066940D01*
X21520624Y-14047660D01*
X21521226Y-14043857D01*
X21804750Y-14043857D01*
X21804750Y-14061143D01*
X21808122Y-14078095D01*
X21808122Y-14078096D01*
X21812295Y-14088170D01*
X21814737Y-14094065D01*
X21824340Y-14108437D01*
X21836563Y-14120660D01*
X21850935Y-14130263D01*
X21866904Y-14136878D01*
X21866905Y-14136878D01*
X21866905Y-14136878D01*
X21883857Y-14140250D01*
X21883857Y-14140250D01*
X21901143Y-14140250D01*
X21918096Y-14136878D01*
X21934065Y-14130263D01*
X21948437Y-14120660D01*
X21960660Y-14108437D01*
X21970263Y-14094065D01*
X21976878Y-14078096D01*
X21980250Y-14061143D01*
X21980250Y-14043857D01*
X21976878Y-14026904D01*
X21970263Y-14010935D01*
X21960660Y-13996563D01*
X21948437Y-13984340D01*
X21934065Y-13974737D01*
X21934065Y-13974737D01*
X21934065Y-13974737D01*
X21918096Y-13968122D01*
X21918095Y-13968122D01*
X21901143Y-13964750D01*
X21901143Y-13964750D01*
X21883857Y-13964750D01*
X21883857Y-13964750D01*
X21866905Y-13968122D01*
X21866904Y-13968122D01*
X21850935Y-13974737D01*
X21836563Y-13984340D01*
X21824340Y-13996563D01*
X21814737Y-14010935D01*
X21808122Y-14026904D01*
X21808122Y-14026905D01*
X21804750Y-14043857D01*
X21521226Y-14043857D01*
X21523795Y-14027636D01*
X21523795Y-14007364D01*
X21520624Y-13987340D01*
X21514359Y-13968060D01*
X21505155Y-13949997D01*
X21493239Y-13933596D01*
X21493239Y-13933595D01*
X21493239Y-13933595D01*
X21478905Y-13919261D01*
X21478904Y-13919261D01*
X21469842Y-13912676D01*
X21462503Y-13907345D01*
X21462503Y-13907344D01*
X21462503Y-13907344D01*
X21444440Y-13898141D01*
X21425160Y-13891876D01*
X21425159Y-13891876D01*
X21409778Y-13889440D01*
X21405136Y-13888705D01*
X21384864Y-13888705D01*
X21381096Y-13889302D01*
X21364841Y-13891876D01*
X21364840Y-13891876D01*
X21345560Y-13898141D01*
X21327497Y-13907344D01*
X21311096Y-13919261D01*
X21296761Y-13933595D01*
X21284844Y-13949997D01*
X21275641Y-13968060D01*
X21269376Y-13987340D01*
X21269376Y-13987341D01*
X21266205Y-14007364D01*
X20952295Y-14007364D01*
X20949124Y-13987340D01*
X20942859Y-13968060D01*
X20933655Y-13949997D01*
X20921739Y-13933596D01*
X20921739Y-13933595D01*
X20921739Y-13933595D01*
X20907405Y-13919261D01*
X20907404Y-13919261D01*
X20898342Y-13912676D01*
X20891003Y-13907345D01*
X20891003Y-13907344D01*
X20891003Y-13907344D01*
X20872940Y-13898141D01*
X20853660Y-13891876D01*
X20853659Y-13891876D01*
X20838278Y-13889440D01*
X20833636Y-13888705D01*
X20813364Y-13888705D01*
X20809596Y-13889302D01*
X20793341Y-13891876D01*
X20793340Y-13891876D01*
X20774060Y-13898141D01*
X20755997Y-13907344D01*
X20739596Y-13919261D01*
X20725261Y-13933595D01*
X20713344Y-13949997D01*
X20704141Y-13968060D01*
X20697876Y-13987340D01*
X20697876Y-13987341D01*
X20694705Y-14007364D01*
X20189750Y-14007364D01*
X20189750Y-13755656D01*
X20763920Y-13755656D01*
X20763920Y-13771344D01*
X20767980Y-13786497D01*
X20767980Y-13786497D01*
X20775824Y-13800082D01*
X20775824Y-13800083D01*
X20775824Y-13800083D01*
X20786917Y-13811176D01*
X20786917Y-13811176D01*
X20786918Y-13811176D01*
X20800503Y-13819020D01*
X20800503Y-13819020D01*
X20800503Y-13819020D01*
X20804291Y-13820035D01*
X20815656Y-13823080D01*
X20815656Y-13823080D01*
X20831344Y-13823080D01*
X20835263Y-13822030D01*
X21409750Y-13822030D01*
X21409750Y-13831970D01*
X21412323Y-13841571D01*
X21412323Y-13841571D01*
X21417293Y-13850179D01*
X21424321Y-13857207D01*
X21427472Y-13859026D01*
X21432929Y-13862177D01*
X21432929Y-13862177D01*
X21432929Y-13862177D01*
X21435329Y-13862820D01*
X21442530Y-13864750D01*
X21442530Y-13864750D01*
X21452470Y-13864750D01*
X21457270Y-13863464D01*
X21462071Y-13862177D01*
X21470679Y-13857207D01*
X21470731Y-13857156D01*
X21525920Y-13857156D01*
X21525920Y-13872844D01*
X21529980Y-13887997D01*
X21529980Y-13887997D01*
X21537824Y-13901582D01*
X21537824Y-13901583D01*
X21537824Y-13901583D01*
X21548917Y-13912676D01*
X21548917Y-13912676D01*
X21548918Y-13912676D01*
X21562503Y-13920520D01*
X21562503Y-13920520D01*
X21562503Y-13920520D01*
X21566291Y-13921535D01*
X21577656Y-13924580D01*
X21577656Y-13924580D01*
X21593344Y-13924580D01*
X21600920Y-13922550D01*
X21608497Y-13920520D01*
X21608942Y-13920263D01*
X21622082Y-13912676D01*
X21622082Y-13912676D01*
X21622083Y-13912676D01*
X21633176Y-13901583D01*
X21638780Y-13891876D01*
X21641020Y-13887997D01*
X21641020Y-13887997D01*
X21641020Y-13887997D01*
X21643050Y-13880420D01*
X21645080Y-13872844D01*
X21645080Y-13857156D01*
X21641020Y-13842003D01*
X21641020Y-13842003D01*
X21637593Y-13836067D01*
X21636317Y-13833857D01*
X21804750Y-13833857D01*
X21804750Y-13851143D01*
X21808122Y-13868095D01*
X21808122Y-13868096D01*
X21814737Y-13884065D01*
X21819956Y-13891876D01*
X21824142Y-13898141D01*
X21824340Y-13898437D01*
X21836563Y-13910660D01*
X21850935Y-13920263D01*
X21866904Y-13926878D01*
X21866905Y-13926878D01*
X21866905Y-13926878D01*
X21883857Y-13930250D01*
X21883857Y-13930250D01*
X21901143Y-13930250D01*
X21918096Y-13926878D01*
X21934065Y-13920263D01*
X21948437Y-13910660D01*
X21960660Y-13898437D01*
X21970263Y-13884065D01*
X21976878Y-13868096D01*
X21978055Y-13862177D01*
X21980250Y-13851143D01*
X21980250Y-13851143D01*
X21980250Y-13833857D01*
X21980250Y-13833857D01*
X21976878Y-13816905D01*
X21976878Y-13816904D01*
X21970263Y-13800935D01*
X21970263Y-13800935D01*
X21960660Y-13786563D01*
X21948437Y-13774340D01*
X21934065Y-13764737D01*
X21934065Y-13764737D01*
X21934065Y-13764737D01*
X21918096Y-13758122D01*
X21918095Y-13758122D01*
X21901143Y-13754750D01*
X21901143Y-13754750D01*
X21883857Y-13754750D01*
X21883857Y-13754750D01*
X21866905Y-13758122D01*
X21866904Y-13758122D01*
X21850935Y-13764737D01*
X21836563Y-13774340D01*
X21824340Y-13786563D01*
X21814737Y-13800935D01*
X21808122Y-13816904D01*
X21808122Y-13816905D01*
X21804750Y-13833857D01*
X21636317Y-13833857D01*
X21633176Y-13828418D01*
X21633176Y-13828417D01*
X21633176Y-13828417D01*
X21622083Y-13817324D01*
X21622083Y-13817324D01*
X21622082Y-13817324D01*
X21608497Y-13809480D01*
X21608497Y-13809480D01*
X21593344Y-13805420D01*
X21593344Y-13805420D01*
X21577656Y-13805420D01*
X21577656Y-13805420D01*
X21562503Y-13809480D01*
X21562503Y-13809480D01*
X21548918Y-13817324D01*
X21548917Y-13817324D01*
X21537824Y-13828417D01*
X21537824Y-13828418D01*
X21529980Y-13842003D01*
X21529980Y-13842003D01*
X21525920Y-13857156D01*
X21470731Y-13857156D01*
X21477708Y-13850179D01*
X21482677Y-13841571D01*
X21484152Y-13836067D01*
X21485250Y-13831970D01*
X21485250Y-13822030D01*
X21482677Y-13812429D01*
X21482677Y-13812429D01*
X21477707Y-13803821D01*
X21470679Y-13796792D01*
X21462071Y-13791823D01*
X21462071Y-13791822D01*
X21452470Y-13789250D01*
X21452470Y-13789250D01*
X21442530Y-13789250D01*
X21442530Y-13789250D01*
X21432929Y-13791822D01*
X21432929Y-13791823D01*
X21424321Y-13796792D01*
X21424321Y-13796793D01*
X21417293Y-13803821D01*
X21417293Y-13803821D01*
X21412323Y-13812429D01*
X21412323Y-13812429D01*
X21409750Y-13822030D01*
X20835263Y-13822030D01*
X20838920Y-13821050D01*
X20846497Y-13819020D01*
X20849434Y-13817324D01*
X20860082Y-13811176D01*
X20860082Y-13811176D01*
X20860083Y-13811176D01*
X20871176Y-13800083D01*
X20879020Y-13786497D01*
X20882277Y-13774340D01*
X20883080Y-13771344D01*
X20883080Y-13755656D01*
X20879020Y-13740503D01*
X20879020Y-13740503D01*
X20871176Y-13726918D01*
X20871176Y-13726917D01*
X20871176Y-13726917D01*
X20860083Y-13715824D01*
X20860083Y-13715824D01*
X20860082Y-13715824D01*
X20846497Y-13707980D01*
X20846497Y-13707980D01*
X20831344Y-13703920D01*
X20831344Y-13703920D01*
X20815656Y-13703920D01*
X20815656Y-13703920D01*
X20800503Y-13707980D01*
X20800503Y-13707980D01*
X20786918Y-13715824D01*
X20786917Y-13715824D01*
X20775824Y-13726917D01*
X20775824Y-13726918D01*
X20767980Y-13740503D01*
X20767980Y-13740503D01*
X20763920Y-13755656D01*
X20189750Y-13755656D01*
X20189750Y-13654156D01*
X21525920Y-13654156D01*
X21525920Y-13669844D01*
X21529980Y-13684997D01*
X21529980Y-13684997D01*
X21537824Y-13698582D01*
X21537824Y-13698583D01*
X21537824Y-13698583D01*
X21548917Y-13709676D01*
X21548917Y-13709676D01*
X21548918Y-13709676D01*
X21562503Y-13717520D01*
X21562503Y-13717520D01*
X21562503Y-13717520D01*
X21566291Y-13718535D01*
X21577656Y-13721580D01*
X21577656Y-13721580D01*
X21593344Y-13721580D01*
X21600920Y-13719550D01*
X21608497Y-13717520D01*
X21611434Y-13715824D01*
X21622082Y-13709676D01*
X21622082Y-13709676D01*
X21622083Y-13709676D01*
X21633176Y-13698583D01*
X21641020Y-13684997D01*
X21643949Y-13674065D01*
X21645080Y-13669844D01*
X21645080Y-13654156D01*
X21641020Y-13639003D01*
X21641020Y-13639003D01*
X21633551Y-13626067D01*
X21633551Y-13626067D01*
X21633176Y-13625417D01*
X21633176Y-13625417D01*
X21631616Y-13623857D01*
X21804750Y-13623857D01*
X21804750Y-13641143D01*
X21808122Y-13658095D01*
X21808122Y-13658096D01*
X21814737Y-13674065D01*
X21814737Y-13674065D01*
X21824340Y-13688437D01*
X21836563Y-13700660D01*
X21850935Y-13710263D01*
X21866904Y-13716878D01*
X21866905Y-13716878D01*
X21866905Y-13716878D01*
X21883857Y-13720250D01*
X21883857Y-13720250D01*
X21901143Y-13720250D01*
X21918096Y-13716878D01*
X21934065Y-13710263D01*
X21948437Y-13700660D01*
X21960660Y-13688437D01*
X21970263Y-13674065D01*
X21976878Y-13658096D01*
X21980250Y-13641143D01*
X21980250Y-13623857D01*
X21979414Y-13619655D01*
X21976878Y-13606905D01*
X21976878Y-13606904D01*
X21976702Y-13606480D01*
X21970263Y-13590935D01*
X21960660Y-13576563D01*
X21948437Y-13564340D01*
X21934065Y-13554737D01*
X21934065Y-13554737D01*
X21934065Y-13554737D01*
X21918096Y-13548122D01*
X21918095Y-13548122D01*
X21901143Y-13544750D01*
X21901143Y-13544750D01*
X21883857Y-13544750D01*
X21883857Y-13544750D01*
X21866905Y-13548122D01*
X21866904Y-13548122D01*
X21850935Y-13554737D01*
X21836563Y-13564340D01*
X21824340Y-13576563D01*
X21814737Y-13590935D01*
X21808122Y-13606904D01*
X21808122Y-13606905D01*
X21804750Y-13623857D01*
X21631616Y-13623857D01*
X21622083Y-13614324D01*
X21622083Y-13614324D01*
X21622083Y-13614324D01*
X21622082Y-13614324D01*
X21608497Y-13606480D01*
X21608497Y-13606480D01*
X21593344Y-13602420D01*
X21593344Y-13602420D01*
X21577656Y-13602420D01*
X21577656Y-13602420D01*
X21562503Y-13606480D01*
X21562503Y-13606480D01*
X21548918Y-13614324D01*
X21548917Y-13614324D01*
X21537824Y-13625417D01*
X21537824Y-13625418D01*
X21529980Y-13639003D01*
X21529980Y-13639003D01*
X21525920Y-13654156D01*
X20189750Y-13654156D01*
X20189750Y-13499364D01*
X20694705Y-13499364D01*
X20694705Y-13519636D01*
X20697876Y-13539659D01*
X20697876Y-13539660D01*
X20704141Y-13558940D01*
X20713344Y-13577003D01*
X20713345Y-13577003D01*
X20723467Y-13590935D01*
X20725261Y-13593404D01*
X20725261Y-13593405D01*
X20739595Y-13607739D01*
X20739596Y-13607739D01*
X20739596Y-13607739D01*
X20755997Y-13619655D01*
X20755997Y-13619655D01*
X20767305Y-13625417D01*
X20774060Y-13628859D01*
X20793340Y-13635124D01*
X20813364Y-13638295D01*
X20813364Y-13638295D01*
X20833636Y-13638295D01*
X20833636Y-13638295D01*
X20853660Y-13635124D01*
X20872940Y-13628859D01*
X20891003Y-13619655D01*
X20907404Y-13607739D01*
X20907405Y-13607739D01*
X20907405Y-13607739D01*
X20921739Y-13593405D01*
X20921739Y-13593405D01*
X20921739Y-13593404D01*
X20933655Y-13577003D01*
X20942859Y-13558940D01*
X20949124Y-13539660D01*
X20952295Y-13519636D01*
X20952295Y-13499364D01*
X21266205Y-13499364D01*
X21266205Y-13519636D01*
X21269376Y-13539659D01*
X21269376Y-13539660D01*
X21275641Y-13558940D01*
X21284844Y-13577003D01*
X21284845Y-13577003D01*
X21294967Y-13590935D01*
X21296761Y-13593404D01*
X21296761Y-13593405D01*
X21311095Y-13607739D01*
X21311096Y-13607739D01*
X21311096Y-13607739D01*
X21327497Y-13619655D01*
X21327497Y-13619655D01*
X21338805Y-13625417D01*
X21345560Y-13628859D01*
X21364840Y-13635124D01*
X21384864Y-13638295D01*
X21384864Y-13638295D01*
X21405136Y-13638295D01*
X21405136Y-13638295D01*
X21425160Y-13635124D01*
X21444440Y-13628859D01*
X21462503Y-13619655D01*
X21478904Y-13607739D01*
X21478905Y-13607739D01*
X21478905Y-13607739D01*
X21493239Y-13593405D01*
X21493239Y-13593405D01*
X21493239Y-13593404D01*
X21505155Y-13577003D01*
X21514359Y-13558940D01*
X21520624Y-13539660D01*
X21523795Y-13519636D01*
X21523795Y-13499364D01*
X21520624Y-13479340D01*
X21514359Y-13460060D01*
X21505155Y-13441997D01*
X21493239Y-13425596D01*
X21493239Y-13425595D01*
X21493239Y-13425595D01*
X21481501Y-13413857D01*
X21804750Y-13413857D01*
X21804750Y-13431143D01*
X21808122Y-13448095D01*
X21808122Y-13448096D01*
X21814737Y-13464065D01*
X21814737Y-13464065D01*
X21824340Y-13478437D01*
X21836563Y-13490660D01*
X21850935Y-13500263D01*
X21866904Y-13506878D01*
X21866905Y-13506878D01*
X21866905Y-13506878D01*
X21883857Y-13510250D01*
X21883857Y-13510250D01*
X21901143Y-13510250D01*
X21918096Y-13506878D01*
X21934065Y-13500263D01*
X21948437Y-13490660D01*
X21960660Y-13478437D01*
X21970263Y-13464065D01*
X21976878Y-13448096D01*
X21980250Y-13431143D01*
X21980250Y-13413857D01*
X21976878Y-13396904D01*
X21970263Y-13380935D01*
X21960660Y-13366563D01*
X21948437Y-13354340D01*
X21934065Y-13344737D01*
X21934065Y-13344737D01*
X21934065Y-13344737D01*
X21918096Y-13338122D01*
X21918095Y-13338122D01*
X21901143Y-13334750D01*
X21901143Y-13334750D01*
X21883857Y-13334750D01*
X21883857Y-13334750D01*
X21866905Y-13338122D01*
X21866904Y-13338122D01*
X21850935Y-13344737D01*
X21836563Y-13354340D01*
X21824340Y-13366563D01*
X21814737Y-13380935D01*
X21808122Y-13396904D01*
X21808122Y-13396905D01*
X21804750Y-13413857D01*
X21481501Y-13413857D01*
X21478905Y-13411261D01*
X21478904Y-13411261D01*
X21462503Y-13399344D01*
X21444440Y-13390141D01*
X21425160Y-13383876D01*
X21425159Y-13383876D01*
X21406587Y-13380935D01*
X21405136Y-13380705D01*
X21384864Y-13380705D01*
X21383413Y-13380935D01*
X21364841Y-13383876D01*
X21364840Y-13383876D01*
X21345560Y-13390141D01*
X21327497Y-13399344D01*
X21311096Y-13411261D01*
X21296761Y-13425595D01*
X21284844Y-13441997D01*
X21275641Y-13460060D01*
X21269376Y-13479340D01*
X21269376Y-13479341D01*
X21266205Y-13499364D01*
X20952295Y-13499364D01*
X20949124Y-13479340D01*
X20942859Y-13460060D01*
X20933655Y-13441997D01*
X20921739Y-13425596D01*
X20921739Y-13425595D01*
X20921739Y-13425595D01*
X20907405Y-13411261D01*
X20907404Y-13411261D01*
X20891003Y-13399344D01*
X20872940Y-13390141D01*
X20853660Y-13383876D01*
X20853659Y-13383876D01*
X20835087Y-13380935D01*
X20833636Y-13380705D01*
X20813364Y-13380705D01*
X20811913Y-13380935D01*
X20793341Y-13383876D01*
X20793340Y-13383876D01*
X20774060Y-13390141D01*
X20755997Y-13399344D01*
X20739596Y-13411261D01*
X20725261Y-13425595D01*
X20713344Y-13441997D01*
X20704141Y-13460060D01*
X20697876Y-13479340D01*
X20697876Y-13479341D01*
X20694705Y-13499364D01*
X20189750Y-13499364D01*
X20189750Y-13013230D01*
X20262250Y-13013230D01*
X20262250Y-13023170D01*
X20264823Y-13032771D01*
X20264823Y-13032771D01*
X20269793Y-13041379D01*
X20276821Y-13048407D01*
X20278008Y-13049092D01*
X20285429Y-13053377D01*
X20285429Y-13053377D01*
X20285429Y-13053377D01*
X20287829Y-13054020D01*
X20295030Y-13055950D01*
X20295030Y-13055950D01*
X20304970Y-13055950D01*
X20309770Y-13054664D01*
X20314571Y-13053377D01*
X20323179Y-13048407D01*
X20330208Y-13041379D01*
X20335177Y-13032771D01*
X20336464Y-13027970D01*
X20337750Y-13023170D01*
X20337750Y-13013230D01*
X20335177Y-13003629D01*
X20335177Y-13003629D01*
X20330725Y-12995917D01*
X20330208Y-12995021D01*
X20327849Y-12992662D01*
X21767500Y-12992662D01*
X21767500Y-13012338D01*
X21770578Y-13031771D01*
X21770578Y-13031771D01*
X21776658Y-13050483D01*
X21785590Y-13068014D01*
X21785591Y-13068015D01*
X21788132Y-13071512D01*
X21788132Y-13071512D01*
X21844204Y-13015441D01*
X21845908Y-13021799D01*
X21852490Y-13033201D01*
X21861799Y-13042510D01*
X21873201Y-13049092D01*
X21879559Y-13050796D01*
X21823487Y-13106868D01*
X21826986Y-13109410D01*
X21826986Y-13109410D01*
X21844517Y-13118342D01*
X21857663Y-13122613D01*
X21860514Y-13125049D01*
X21860809Y-13128788D01*
X21858373Y-13131639D01*
X21858024Y-13131801D01*
X21850935Y-13134737D01*
X21836563Y-13144340D01*
X21824340Y-13156563D01*
X21814737Y-13170935D01*
X21808122Y-13186904D01*
X21808122Y-13186905D01*
X21804750Y-13203857D01*
X21804750Y-13221143D01*
X21808122Y-13238095D01*
X21808122Y-13238096D01*
X21814737Y-13254065D01*
X21824340Y-13268437D01*
X21836563Y-13280660D01*
X21850935Y-13290263D01*
X21866904Y-13296878D01*
X21866905Y-13296878D01*
X21866905Y-13296878D01*
X21883857Y-13300250D01*
X21883857Y-13300250D01*
X21901143Y-13300250D01*
X21918096Y-13296878D01*
X21934065Y-13290263D01*
X21948437Y-13280660D01*
X21960660Y-13268437D01*
X21970263Y-13254065D01*
X21976878Y-13238096D01*
X21980250Y-13221143D01*
X21980250Y-13203857D01*
X21976878Y-13186904D01*
X21970263Y-13170935D01*
X21960660Y-13156563D01*
X21948437Y-13144340D01*
X21934065Y-13134737D01*
X21934065Y-13134737D01*
X21934065Y-13134737D01*
X21926976Y-13131801D01*
X21924324Y-13129149D01*
X21924324Y-13125398D01*
X21926976Y-13122747D01*
X21927337Y-13122613D01*
X21940483Y-13118342D01*
X21958014Y-13109410D01*
X21961513Y-13106868D01*
X21905441Y-13050796D01*
X21911799Y-13049092D01*
X21923201Y-13042510D01*
X21932510Y-13033201D01*
X21939093Y-13021799D01*
X21940796Y-13015441D01*
X21996868Y-13071513D01*
X21999410Y-13068014D01*
X22008342Y-13050483D01*
X22014422Y-13031771D01*
X22014422Y-13031771D01*
X22017500Y-13012338D01*
X22017500Y-12992662D01*
X22014422Y-12973229D01*
X22014422Y-12973229D01*
X22008342Y-12954516D01*
X21999410Y-12936986D01*
X21999410Y-12936986D01*
X21996868Y-12933487D01*
X21940796Y-12989559D01*
X21939093Y-12983201D01*
X21932510Y-12971799D01*
X21923201Y-12962490D01*
X21911799Y-12955907D01*
X21905441Y-12954204D01*
X21961513Y-12898132D01*
X21961513Y-12898132D01*
X21958015Y-12895591D01*
X21958014Y-12895590D01*
X21940483Y-12886658D01*
X21927337Y-12882386D01*
X21924486Y-12879951D01*
X21924191Y-12876212D01*
X21926627Y-12873360D01*
X21926975Y-12873200D01*
X21934065Y-12870263D01*
X21948437Y-12860660D01*
X21960660Y-12848437D01*
X21970263Y-12834065D01*
X21976878Y-12818096D01*
X21980250Y-12801143D01*
X21980250Y-12783857D01*
X21980113Y-12783170D01*
X21976878Y-12766905D01*
X21976878Y-12766904D01*
X21975521Y-12763629D01*
X21970263Y-12750935D01*
X21960660Y-12736563D01*
X21948437Y-12724340D01*
X21934065Y-12714737D01*
X21934065Y-12714737D01*
X21934065Y-12714737D01*
X21918096Y-12708122D01*
X21918095Y-12708122D01*
X21901143Y-12704750D01*
X21901143Y-12704750D01*
X21883857Y-12704750D01*
X21883857Y-12704750D01*
X21866905Y-12708122D01*
X21866904Y-12708122D01*
X21850935Y-12714737D01*
X21836563Y-12724340D01*
X21824340Y-12736563D01*
X21814737Y-12750935D01*
X21808122Y-12766904D01*
X21808122Y-12766905D01*
X21804750Y-12783857D01*
X21804750Y-12801143D01*
X21808122Y-12818095D01*
X21808122Y-12818096D01*
X21814737Y-12834065D01*
X21824340Y-12848437D01*
X21836563Y-12860660D01*
X21850935Y-12870263D01*
X21858024Y-12873199D01*
X21860676Y-12875851D01*
X21860676Y-12879601D01*
X21858024Y-12882253D01*
X21857663Y-12882386D01*
X21844517Y-12886658D01*
X21826986Y-12895590D01*
X21826986Y-12895590D01*
X21823487Y-12898132D01*
X21879559Y-12954204D01*
X21873201Y-12955907D01*
X21861799Y-12962490D01*
X21852490Y-12971799D01*
X21845908Y-12983201D01*
X21844204Y-12989559D01*
X21788132Y-12933487D01*
X21785590Y-12936986D01*
X21785590Y-12936986D01*
X21776658Y-12954517D01*
X21770578Y-12973229D01*
X21770578Y-12973229D01*
X21767500Y-12992662D01*
X20327849Y-12992662D01*
X20323179Y-12987992D01*
X20314571Y-12983023D01*
X20314571Y-12983022D01*
X20304970Y-12980450D01*
X20304970Y-12980450D01*
X20295030Y-12980450D01*
X20295030Y-12980450D01*
X20285429Y-12983022D01*
X20285429Y-12983023D01*
X20276821Y-12987992D01*
X20276821Y-12987993D01*
X20269793Y-12995021D01*
X20269793Y-12995021D01*
X20264823Y-13003629D01*
X20264823Y-13003629D01*
X20262250Y-13013230D01*
X20189750Y-13013230D01*
X20189750Y-12773230D01*
X20262250Y-12773230D01*
X20262250Y-12783170D01*
X20264823Y-12792771D01*
X20264823Y-12792771D01*
X20269656Y-12801143D01*
X20269793Y-12801379D01*
X20276821Y-12808407D01*
X20279972Y-12810226D01*
X20285429Y-12813377D01*
X20285429Y-12813377D01*
X20285429Y-12813377D01*
X20287829Y-12814020D01*
X20295030Y-12815950D01*
X20295030Y-12815950D01*
X20304970Y-12815950D01*
X20309770Y-12814664D01*
X20314571Y-12813377D01*
X20323179Y-12808407D01*
X20330208Y-12801379D01*
X20335177Y-12792771D01*
X20337750Y-12783170D01*
X20337750Y-12783170D01*
X20337750Y-12773230D01*
X20335177Y-12763629D01*
X20335177Y-12763629D01*
X20330207Y-12755021D01*
X20323179Y-12747992D01*
X20314571Y-12743023D01*
X20314571Y-12743022D01*
X20304970Y-12740450D01*
X20304970Y-12740450D01*
X20295030Y-12740450D01*
X20295030Y-12740450D01*
X20285429Y-12743022D01*
X20285429Y-12743023D01*
X20276821Y-12747992D01*
X20276821Y-12747993D01*
X20269793Y-12755021D01*
X20269793Y-12755021D01*
X20264823Y-12763629D01*
X20264823Y-12763629D01*
X20262250Y-12773230D01*
X20189750Y-12773230D01*
X20189750Y-11157056D01*
X20189755Y-11156842D01*
X20189924Y-11152962D01*
X20191598Y-11114636D01*
X20191635Y-11114211D01*
X20197135Y-11072431D01*
X20197210Y-11072010D01*
X20206331Y-11030868D01*
X20206441Y-11030456D01*
X20219114Y-10990263D01*
X20219258Y-10989866D01*
X20235386Y-10950930D01*
X20235566Y-10950545D01*
X20255025Y-10913164D01*
X20255238Y-10912794D01*
X20272042Y-10886418D01*
X20277881Y-10877252D01*
X20278124Y-10876905D01*
X20303779Y-10843472D01*
X20304052Y-10843146D01*
X20332524Y-10812074D01*
X20332824Y-10811774D01*
X20363896Y-10783302D01*
X20364222Y-10783028D01*
X20397655Y-10757374D01*
X20398002Y-10757131D01*
X20433544Y-10734488D01*
X20433914Y-10734275D01*
X20471296Y-10714815D01*
X20471680Y-10714636D01*
X20510615Y-10698509D01*
X20511015Y-10698363D01*
X20551208Y-10685690D01*
X20551616Y-10685581D01*
X20592761Y-10676459D01*
X20593178Y-10676386D01*
X20634962Y-10670885D01*
X20635386Y-10670848D01*
X20665557Y-10669530D01*
X20677595Y-10669005D01*
X20677809Y-10669000D01*
X20681688Y-10669000D01*
X24166212Y-10669000D01*
X24170094Y-10669000D01*
X24170308Y-10669005D01*
G37*
%TD.AperFunction*%
%TD*%
M02*
