%TF.GenerationSoftware,KiCad,Pcbnew,9.0.4*%
%TF.CreationDate,2025-09-02T11:28:21-07:00*%
%TF.ProjectId,salt_booklamp,73616c74-5f62-46f6-9f6b-6c616d702e6b,5*%
%TF.SameCoordinates,Original*%
%TF.FileFunction,Copper,L1,Top*%
%TF.FilePolarity,Positive*%
%FSLAX45Y45*%
G04 Gerber Fmt 4.5, Leading zero omitted, Abs format (unit mm)*
G04 Created by KiCad (PCBNEW 9.0.4) date 2025-09-02 11:28:21*
%MOMM*%
%LPD*%
G01*
G04 APERTURE LIST*
G04 Aperture macros list*
%AMRoundRect*
0 Rectangle with rounded corners*
0 $1 Rounding radius*
0 $2 $3 $4 $5 $6 $7 $8 $9 X,Y pos of 4 corners*
0 Add a 4 corners polygon primitive as box body*
4,1,4,$2,$3,$4,$5,$6,$7,$8,$9,$2,$3,0*
0 Add four circle primitives for the rounded corners*
1,1,$1+$1,$2,$3*
1,1,$1+$1,$4,$5*
1,1,$1+$1,$6,$7*
1,1,$1+$1,$8,$9*
0 Add four rect primitives between the rounded corners*
20,1,$1+$1,$2,$3,$4,$5,0*
20,1,$1+$1,$4,$5,$6,$7,0*
20,1,$1+$1,$6,$7,$8,$9,0*
20,1,$1+$1,$8,$9,$2,$3,0*%
G04 Aperture macros list end*
%TA.AperFunction,SMDPad,CuDef*%
%ADD10RoundRect,0.200000X0.200000X-0.500000X0.200000X0.500000X-0.200000X0.500000X-0.200000X-0.500000X0*%
%TD*%
%TA.AperFunction,SMDPad,CuDef*%
%ADD11RoundRect,0.200000X-0.200000X0.500000X-0.200000X-0.500000X0.200000X-0.500000X0.200000X0.500000X0*%
%TD*%
%TA.AperFunction,ComponentPad*%
%ADD12C,1.500000*%
%TD*%
%TA.AperFunction,SMDPad,CuDef*%
%ADD13C,0.787400*%
%TD*%
%TA.AperFunction,ComponentPad*%
%ADD14C,1.600000*%
%TD*%
%TA.AperFunction,ComponentPad*%
%ADD15C,0.500000*%
%TD*%
%TA.AperFunction,ComponentPad*%
%ADD16RoundRect,0.250000X-0.350000X-0.625000X0.350000X-0.625000X0.350000X0.625000X-0.350000X0.625000X0*%
%TD*%
%TA.AperFunction,ComponentPad*%
%ADD17O,1.200000X1.750000*%
%TD*%
%TA.AperFunction,ComponentPad*%
%ADD18O,1.000000X1.600000*%
%TD*%
%TA.AperFunction,ComponentPad*%
%ADD19C,0.650000*%
%TD*%
%TA.AperFunction,ViaPad*%
%ADD20C,0.500000*%
%TD*%
%TA.AperFunction,Conductor*%
%ADD21C,0.100000*%
%TD*%
G04 APERTURE END LIST*
D10*
%TO.P,LED1,A,a*%
%TO.N,/LED_DRV*%
X20300000Y-11483200D03*
D11*
%TO.P,LED1,K,k*%
%TO.N,Net-(LED1-k)*%
X20300000Y-11723200D03*
%TD*%
D12*
%TO.P,TP_~{CHARGING}1,1,1*%
%TO.N,/~{CHARGING}*%
X21892500Y-13632500D03*
%TD*%
%TO.P,TP_3.7V_BATT1,1,1*%
%TO.N,+3.7_VBATT*%
X21892500Y-13002500D03*
%TD*%
%TO.P,TP_5V_USB1,1,1*%
%TO.N,+5V_USB*%
X21892500Y-12792500D03*
%TD*%
D13*
%TO.P,P1,1,ICSPCLK*%
%TO.N,Net-(P1-ICSPCLK)*%
X20950500Y-13827000D03*
%TO.P,P1,2,2*%
%TO.N,unconnected-(P1-Pad2)*%
X21077500Y-13827000D03*
%TO.P,P1,3,ICSPDAT*%
%TO.N,Net-(P1-ICSPDAT)*%
X21207500Y-13827000D03*
%TO.P,P1,4,4*%
%TO.N,unconnected-(P1-Pad4)*%
X21327500Y-13827000D03*
%TO.P,P1,5,GND*%
%TO.N,GND*%
X21447500Y-13827000D03*
%TO.P,P1,6,6*%
%TO.N,unconnected-(P1-Pad6)*%
X21447500Y-13700000D03*
%TO.P,P1,7,VDD*%
%TO.N,+3.7_VBATT*%
X21327500Y-13700000D03*
%TO.P,P1,8,8*%
%TO.N,unconnected-(P1-Pad8)*%
X21207500Y-13700000D03*
%TO.P,P1,9,~{MCLR}*%
%TO.N,Net-(P1-~{MCLR})*%
X21077500Y-13700000D03*
%TO.P,P1,10,10*%
%TO.N,unconnected-(P1-Pad10)*%
X20950500Y-13700000D03*
%TD*%
D12*
%TO.P,TP_LED_CTRL1,1,1*%
%TO.N,/LED_CTRL*%
X21892500Y-13842500D03*
%TD*%
%TO.P,TP_LED_DRV1,1,1*%
%TO.N,/LED_DRV*%
X21892500Y-14052500D03*
%TD*%
%TO.P,TP_GND1,1,1*%
%TO.N,GND*%
X21892500Y-13212500D03*
%TD*%
%TO.P,TP_~{SWITCH}1,1,1*%
%TO.N,/~{SWITCH}*%
X21892500Y-13422500D03*
%TD*%
D10*
%TO.P,LED3,A,a*%
%TO.N,Net-(LED1-k)*%
X20300000Y-12778200D03*
D11*
%TO.P,LED3,K,k*%
%TO.N,Net-(LED2-a)*%
X20300000Y-13018200D03*
%TD*%
D10*
%TO.P,LED2,A,a*%
%TO.N,Net-(LED2-a)*%
X20300000Y-14083200D03*
D11*
%TO.P,LED2,K,k*%
%TO.N,Net-(LED2-k)*%
X20300000Y-14323200D03*
%TD*%
D14*
%TO.P,S1,1,1*%
%TO.N,/~{SWITCH}*%
X21858200Y-14818200D03*
%TO.P,S1,2,2*%
%TO.N,GND*%
X21608200Y-14488200D03*
%TO.P,S1,3,3*%
%TO.N,unconnected-(S1-Pad3)*%
X21358200Y-14818200D03*
%TD*%
D15*
%TO.P,U3,7,Thermal*%
%TO.N,GND*%
X20563200Y-14503200D03*
X20673200Y-14503200D03*
%TD*%
D16*
%TO.P,BATT1,1,-*%
%TO.N,GND*%
X24088200Y-14848200D03*
D17*
%TO.P,BATT1,2,+*%
%TO.N,+3.7_VBATT*%
X24288200Y-14848200D03*
%TD*%
D18*
%TO.P,J1,0,mount*%
%TO.N,GND*%
X23723200Y-14429200D03*
X22823200Y-14429200D03*
D19*
%TO.P,J1,B1,GND*%
X22968200Y-14509200D03*
%TO.P,J1,B2,SSTXp2*%
%TO.N,unconnected-(J1-SSTXp2-PadB2)*%
X23033200Y-14579200D03*
%TO.P,J1,B3,SSTXn2*%
%TO.N,unconnected-(J1-SSTXn2-PadB3)*%
X23113200Y-14579200D03*
%TO.P,J1,B4,VBUS*%
%TO.N,+5V_USB*%
X23153200Y-14509200D03*
%TO.P,J1,B5,CC2*%
%TO.N,Net-(J1-CC2)*%
X23193200Y-14577200D03*
%TO.P,J1,B6,Dp2*%
%TO.N,unconnected-(J1-Dp2-PadB6)*%
X23233200Y-14509200D03*
%TO.P,J1,B7,Dn2*%
%TO.N,unconnected-(J1-Dn2-PadB7)*%
X23313200Y-14509200D03*
%TO.P,J1,B8,SBU2*%
%TO.N,unconnected-(J1-SBU2-PadB8)*%
X23353200Y-14577200D03*
%TO.P,J1,B9,VBUS*%
%TO.N,+5V_USB*%
X23393200Y-14509200D03*
%TO.P,J1,B10,SSRXn1*%
%TO.N,unconnected-(J1-SSRXn1-PadB10)*%
X23433200Y-14579200D03*
%TO.P,J1,B11,SSTXp1*%
%TO.N,unconnected-(J1-SSTXp1-PadB11)*%
X23513200Y-14579200D03*
%TO.P,J1,B12,GND*%
%TO.N,GND*%
X23578200Y-14509200D03*
%TD*%
D20*
%TO.N,+3.7_VBATT*%
X24305200Y-15053200D03*
X20618200Y-14600700D03*
X21327500Y-13700000D03*
X20251242Y-14585483D03*
X21047500Y-14787000D03*
X20938200Y-14653200D03*
X20343159Y-14599981D03*
X20590200Y-15053200D03*
X22343200Y-14763200D03*
X20379750Y-14922250D03*
X20940000Y-14782500D03*
%TO.N,+5V_USB*%
X22438200Y-14503200D03*
X22192500Y-14765500D03*
%TO.N,GND*%
X22375000Y-14365000D03*
X20618200Y-14405700D03*
X20689750Y-14922250D03*
X20442500Y-14409500D03*
X22192500Y-14669500D03*
X22467500Y-14987000D03*
X21047500Y-14883000D03*
X22768200Y-14969200D03*
X23778200Y-14969200D03*
X24209200Y-15053200D03*
X20347500Y-14506000D03*
X22475000Y-14365000D03*
X20686200Y-15053200D03*
X22570000Y-14987000D03*
X21447500Y-13827000D03*
X20534750Y-14824750D03*
X22533200Y-14503200D03*
%TO.N,/LED_DRV*%
X20553200Y-14600700D03*
X20442500Y-14505500D03*
X20737500Y-14517500D03*
%TO.N,Net-(LED1-k)*%
X20300000Y-12778200D03*
%TO.N,/LED_CTRL*%
X20737500Y-14580200D03*
X20689750Y-14727250D03*
%TO.N,/~{SWITCH}*%
X20379750Y-14857250D03*
%TO.N,Net-(LED2-k)*%
X20300000Y-14323200D03*
%TO.N,Net-(P1-~{MCLR})*%
X20379750Y-14727250D03*
%TO.N,Net-(P1-ICSPCLK)*%
X20689750Y-14792250D03*
%TO.N,Net-(P1-ICSPDAT)*%
X20835000Y-14782500D03*
%TO.N,Net-(LED2-a)*%
X20300000Y-13018200D03*
X20300000Y-14083200D03*
%TD*%
D21*
%TO.N,/LED_DRV*%
X20602500Y-14550000D02*
X20553200Y-14599300D01*
X20372500Y-11660000D02*
X20372500Y-14435500D01*
X20705000Y-14550000D02*
X20602500Y-14550000D01*
X20300000Y-11483200D02*
X20300000Y-11587500D01*
X20737500Y-14517500D02*
X20705000Y-14550000D01*
X20372500Y-14435500D02*
X20442500Y-14505500D01*
X20553200Y-14599300D02*
X20553200Y-14600700D01*
X20300000Y-11587500D02*
X20372500Y-11660000D01*
%TO.N,Net-(LED1-k)*%
X20300000Y-12778200D02*
X20300000Y-11723200D01*
%TO.N,/LED_CTRL*%
X20737500Y-14582500D02*
X20683200Y-14636800D01*
X20683200Y-14720700D02*
X20689750Y-14727250D01*
X20683200Y-14636800D02*
X20683200Y-14720700D01*
X20737500Y-14580200D02*
X20737500Y-14582500D01*
%TO.N,/~{SWITCH}*%
X21177200Y-14830300D02*
X21302500Y-14705000D01*
X22022500Y-13552500D02*
X21892500Y-13422500D01*
X21858200Y-14818200D02*
X22022500Y-14653900D01*
X21302500Y-14705000D02*
X21745000Y-14705000D01*
X21865000Y-13422500D02*
X21892500Y-13422500D01*
X20727500Y-14875000D02*
X20772200Y-14830300D01*
X20397500Y-14875000D02*
X20727500Y-14875000D01*
X20379750Y-14857250D02*
X20397500Y-14875000D01*
X21858200Y-14818200D02*
X21745000Y-14705000D01*
X20772200Y-14830300D02*
X21177200Y-14830300D01*
X22022500Y-14653900D02*
X22022500Y-13552500D01*
%TO.N,Net-(P1-~{MCLR})*%
X20930000Y-13760000D02*
X20885000Y-13805000D01*
X20922500Y-13895000D02*
X20985000Y-13895000D01*
X21074700Y-13984700D02*
X21074700Y-14070300D01*
X20587500Y-14350000D02*
X20492500Y-14445000D01*
X20885000Y-13805000D02*
X20885000Y-13857500D01*
X20985000Y-13895000D02*
X21074700Y-13984700D01*
X21017500Y-13760000D02*
X20930000Y-13760000D01*
X20616907Y-14350000D02*
X20587500Y-14350000D01*
X20885000Y-13857500D02*
X20922500Y-13895000D01*
X20492500Y-14614500D02*
X20379750Y-14727250D01*
X20492500Y-14445000D02*
X20492500Y-14614500D01*
X20795000Y-14350000D02*
X20616907Y-14350000D01*
X21077500Y-13700000D02*
X21017500Y-13760000D01*
X21074700Y-14070300D02*
X20795000Y-14350000D01*
%TO.N,Net-(P1-ICSPCLK)*%
X21097500Y-14087500D02*
X21097500Y-13974000D01*
X20689750Y-14792250D02*
X20737750Y-14792250D01*
X20737750Y-14792250D02*
X20787200Y-14742800D01*
X20787200Y-14742800D02*
X20787200Y-14397800D01*
X20787200Y-14397800D02*
X21097500Y-14087500D01*
X21097500Y-13974000D02*
X20950500Y-13827000D01*
%TO.N,Net-(P1-ICSPDAT)*%
X20810000Y-14765000D02*
X20810000Y-14407500D01*
X20835000Y-14782500D02*
X20827500Y-14782500D01*
X20810000Y-14407500D02*
X21207500Y-14010000D01*
X21207500Y-14010000D02*
X21207500Y-13827000D01*
X20827500Y-14782500D02*
X20810000Y-14765000D01*
%TD*%
%TA.AperFunction,Conductor*%
%TO.N,+5V_USB*%
G36*
X24656715Y-13871435D02*
G01*
X24658150Y-13874900D01*
X24658150Y-14649344D01*
X24658145Y-14649557D01*
X24656302Y-14691763D01*
X24656265Y-14692189D01*
X24650765Y-14733970D01*
X24650690Y-14734391D01*
X24641570Y-14775531D01*
X24641459Y-14775944D01*
X24628787Y-14816135D01*
X24628641Y-14816537D01*
X24612515Y-14855468D01*
X24612334Y-14855855D01*
X24592875Y-14893236D01*
X24592662Y-14893606D01*
X24570020Y-14929147D01*
X24569775Y-14929497D01*
X24544122Y-14962928D01*
X24543847Y-14963255D01*
X24515377Y-14994325D01*
X24515075Y-14994627D01*
X24484005Y-15023097D01*
X24483678Y-15023372D01*
X24450247Y-15049025D01*
X24449897Y-15049270D01*
X24414356Y-15071912D01*
X24413986Y-15072125D01*
X24376606Y-15091584D01*
X24376218Y-15091765D01*
X24337286Y-15107891D01*
X24336884Y-15108037D01*
X24296694Y-15120709D01*
X24296282Y-15120820D01*
X24255141Y-15129940D01*
X24254720Y-15130015D01*
X24212939Y-15135515D01*
X24212513Y-15135552D01*
X24170305Y-15137395D01*
X24170091Y-15137400D01*
X22394650Y-15137400D01*
X22391185Y-15135965D01*
X22389750Y-15132500D01*
X22389750Y-15048230D01*
X24171450Y-15048230D01*
X24171450Y-15058170D01*
X24174022Y-15067771D01*
X24174023Y-15067771D01*
X24178992Y-15076379D01*
X24186021Y-15083407D01*
X24189171Y-15085226D01*
X24194629Y-15088377D01*
X24194629Y-15088377D01*
X24194629Y-15088377D01*
X24197029Y-15089020D01*
X24204230Y-15090950D01*
X24204230Y-15090950D01*
X24214170Y-15090950D01*
X24218970Y-15089664D01*
X24223771Y-15088377D01*
X24232379Y-15083407D01*
X24239407Y-15076379D01*
X24244377Y-15067771D01*
X24245664Y-15062970D01*
X24246950Y-15058170D01*
X24246950Y-15048230D01*
X24267450Y-15048230D01*
X24267450Y-15058170D01*
X24270022Y-15067771D01*
X24270023Y-15067771D01*
X24274992Y-15076379D01*
X24282021Y-15083407D01*
X24285171Y-15085226D01*
X24290629Y-15088377D01*
X24290629Y-15088377D01*
X24290629Y-15088377D01*
X24293029Y-15089020D01*
X24300230Y-15090950D01*
X24300230Y-15090950D01*
X24310170Y-15090950D01*
X24314970Y-15089664D01*
X24319771Y-15088377D01*
X24328379Y-15083407D01*
X24335407Y-15076379D01*
X24340377Y-15067771D01*
X24341664Y-15062970D01*
X24342950Y-15058170D01*
X24342950Y-15048230D01*
X24340377Y-15038629D01*
X24340377Y-15038629D01*
X24335407Y-15030021D01*
X24328379Y-15022992D01*
X24319771Y-15018023D01*
X24319771Y-15018022D01*
X24310170Y-15015450D01*
X24310170Y-15015450D01*
X24300230Y-15015450D01*
X24300230Y-15015450D01*
X24290629Y-15018022D01*
X24290629Y-15018023D01*
X24282021Y-15022992D01*
X24282021Y-15022993D01*
X24274993Y-15030021D01*
X24274992Y-15030021D01*
X24270023Y-15038629D01*
X24270022Y-15038629D01*
X24267450Y-15048230D01*
X24246950Y-15048230D01*
X24244377Y-15038629D01*
X24244377Y-15038629D01*
X24239407Y-15030021D01*
X24232379Y-15022992D01*
X24223771Y-15018023D01*
X24223771Y-15018022D01*
X24214170Y-15015450D01*
X24214170Y-15015450D01*
X24204230Y-15015450D01*
X24204230Y-15015450D01*
X24194629Y-15018022D01*
X24194629Y-15018023D01*
X24186021Y-15022992D01*
X24186021Y-15022993D01*
X24178993Y-15030021D01*
X24178992Y-15030021D01*
X24174023Y-15038629D01*
X24174022Y-15038629D01*
X24171450Y-15048230D01*
X22389750Y-15048230D01*
X22389750Y-14982030D01*
X22429750Y-14982030D01*
X22429750Y-14991970D01*
X22432322Y-15001571D01*
X22432323Y-15001571D01*
X22433943Y-15004377D01*
X22437292Y-15010179D01*
X22444321Y-15017207D01*
X22445733Y-15018023D01*
X22452929Y-15022177D01*
X22452929Y-15022177D01*
X22452929Y-15022177D01*
X22455329Y-15022820D01*
X22462530Y-15024750D01*
X22462530Y-15024750D01*
X22472470Y-15024750D01*
X22477270Y-15023464D01*
X22482071Y-15022177D01*
X22490679Y-15017207D01*
X22497707Y-15010179D01*
X22502677Y-15001571D01*
X22503964Y-14996770D01*
X22505250Y-14991970D01*
X22505250Y-14982030D01*
X22532250Y-14982030D01*
X22532250Y-14991970D01*
X22534822Y-15001571D01*
X22534823Y-15001571D01*
X22536443Y-15004377D01*
X22539792Y-15010179D01*
X22546821Y-15017207D01*
X22548233Y-15018023D01*
X22555429Y-15022177D01*
X22555429Y-15022177D01*
X22555429Y-15022177D01*
X22557829Y-15022820D01*
X22565030Y-15024750D01*
X22565030Y-15024750D01*
X22574970Y-15024750D01*
X22579770Y-15023464D01*
X22584571Y-15022177D01*
X22593179Y-15017207D01*
X22600207Y-15010179D01*
X22605177Y-15001571D01*
X22606464Y-14996770D01*
X22607750Y-14991970D01*
X22607750Y-14982030D01*
X22605177Y-14972429D01*
X22605177Y-14972429D01*
X22600443Y-14964230D01*
X22730450Y-14964230D01*
X22730450Y-14974170D01*
X22733022Y-14983771D01*
X22733023Y-14983771D01*
X22737208Y-14991020D01*
X22737992Y-14992379D01*
X22745021Y-14999407D01*
X22748171Y-15001226D01*
X22753629Y-15004377D01*
X22753629Y-15004377D01*
X22753629Y-15004377D01*
X22756029Y-15005020D01*
X22763230Y-15006950D01*
X22763230Y-15006950D01*
X22773170Y-15006950D01*
X22777970Y-15005664D01*
X22782771Y-15004377D01*
X22791379Y-14999407D01*
X22798407Y-14992379D01*
X22803377Y-14983771D01*
X22805876Y-14974448D01*
X22805950Y-14974170D01*
X22805950Y-14964230D01*
X23740450Y-14964230D01*
X23740450Y-14974170D01*
X23743022Y-14983771D01*
X23743023Y-14983771D01*
X23747208Y-14991020D01*
X23747992Y-14992379D01*
X23755021Y-14999407D01*
X23758171Y-15001226D01*
X23763629Y-15004377D01*
X23763629Y-15004377D01*
X23763629Y-15004377D01*
X23766029Y-15005020D01*
X23773230Y-15006950D01*
X23773230Y-15006950D01*
X23783170Y-15006950D01*
X23787970Y-15005664D01*
X23792771Y-15004377D01*
X23801379Y-14999407D01*
X23808407Y-14992379D01*
X23813377Y-14983771D01*
X23815876Y-14974448D01*
X23815950Y-14974170D01*
X23815950Y-14964230D01*
X23813377Y-14954629D01*
X23813377Y-14954629D01*
X23808407Y-14946021D01*
X23801379Y-14938992D01*
X23792771Y-14934023D01*
X23792771Y-14934022D01*
X23783170Y-14931450D01*
X23783170Y-14931450D01*
X23773230Y-14931450D01*
X23773230Y-14931450D01*
X23763629Y-14934022D01*
X23763629Y-14934023D01*
X23755021Y-14938992D01*
X23755021Y-14938993D01*
X23747993Y-14946021D01*
X23747992Y-14946021D01*
X23743023Y-14954629D01*
X23743022Y-14954629D01*
X23740450Y-14964230D01*
X22805950Y-14964230D01*
X22803377Y-14954629D01*
X22803377Y-14954629D01*
X22798407Y-14946021D01*
X22791379Y-14938992D01*
X22782771Y-14934023D01*
X22782771Y-14934022D01*
X22773170Y-14931450D01*
X22773170Y-14931450D01*
X22763230Y-14931450D01*
X22763230Y-14931450D01*
X22753629Y-14934022D01*
X22753629Y-14934023D01*
X22745021Y-14938992D01*
X22745021Y-14938993D01*
X22737993Y-14946021D01*
X22737992Y-14946021D01*
X22733023Y-14954629D01*
X22733022Y-14954629D01*
X22730450Y-14964230D01*
X22600443Y-14964230D01*
X22600207Y-14963821D01*
X22593179Y-14956792D01*
X22589432Y-14954629D01*
X22584571Y-14951823D01*
X22584571Y-14951822D01*
X22574970Y-14949250D01*
X22574970Y-14949250D01*
X22565030Y-14949250D01*
X22565030Y-14949250D01*
X22555429Y-14951822D01*
X22555429Y-14951823D01*
X22546821Y-14956792D01*
X22546821Y-14956793D01*
X22539793Y-14963821D01*
X22539792Y-14963821D01*
X22534823Y-14972429D01*
X22534822Y-14972429D01*
X22532250Y-14982030D01*
X22505250Y-14982030D01*
X22502677Y-14972429D01*
X22502677Y-14972429D01*
X22497707Y-14963821D01*
X22490679Y-14956792D01*
X22482071Y-14951823D01*
X22482071Y-14951822D01*
X22472470Y-14949250D01*
X22472470Y-14949250D01*
X22462530Y-14949250D01*
X22462530Y-14949250D01*
X22452929Y-14951822D01*
X22452929Y-14951823D01*
X22444321Y-14956792D01*
X22444321Y-14956793D01*
X22437293Y-14963821D01*
X22437292Y-14963821D01*
X22432323Y-14972429D01*
X22432322Y-14972429D01*
X22429750Y-14982030D01*
X22389750Y-14982030D01*
X22389750Y-14953068D01*
X22389750Y-14953066D01*
X22389750Y-14946948D01*
X22389750Y-14946947D01*
X22386102Y-14926260D01*
X22378918Y-14906521D01*
X22378918Y-14906521D01*
X22378918Y-14906520D01*
X22368415Y-14888330D01*
X22368316Y-14888211D01*
X22354913Y-14872238D01*
X22354913Y-14872238D01*
X22354912Y-14872237D01*
X22338821Y-14858735D01*
X22320630Y-14848232D01*
X22320629Y-14848232D01*
X22300891Y-14841048D01*
X22300891Y-14841048D01*
X22300890Y-14841048D01*
X22280203Y-14837400D01*
X22259197Y-14837400D01*
X22259197Y-14837400D01*
X22246820Y-14839582D01*
X22238510Y-14841048D01*
X22238510Y-14841048D01*
X22238510Y-14841048D01*
X22218771Y-14848232D01*
X22218770Y-14848232D01*
X22200580Y-14858735D01*
X22184488Y-14872237D01*
X22184488Y-14872238D01*
X22170985Y-14888330D01*
X22160483Y-14906520D01*
X22160482Y-14906521D01*
X22153298Y-14926260D01*
X22153298Y-14926260D01*
X22152048Y-14933351D01*
X22150033Y-14936514D01*
X22147222Y-14937400D01*
X22113783Y-14937400D01*
X22110318Y-14935965D01*
X22108883Y-14932500D01*
X22108883Y-14758230D01*
X22305450Y-14758230D01*
X22305450Y-14768170D01*
X22308023Y-14777771D01*
X22308023Y-14777771D01*
X22312912Y-14786240D01*
X22312993Y-14786379D01*
X22320021Y-14793407D01*
X22323172Y-14795226D01*
X22328629Y-14798377D01*
X22328629Y-14798377D01*
X22328629Y-14798377D01*
X22331029Y-14799020D01*
X22338230Y-14800950D01*
X22338230Y-14800950D01*
X22348170Y-14800950D01*
X22353657Y-14799480D01*
X22357771Y-14798377D01*
X22366379Y-14793407D01*
X22373407Y-14786379D01*
X22375868Y-14782117D01*
X24015450Y-14782117D01*
X24015450Y-14914283D01*
X24016519Y-14921620D01*
X24016519Y-14921620D01*
X24018787Y-14926260D01*
X24022052Y-14932939D01*
X24030961Y-14941848D01*
X24042280Y-14947381D01*
X24049617Y-14948450D01*
X24126783Y-14948450D01*
X24126783Y-14948450D01*
X24132286Y-14947648D01*
X24134120Y-14947381D01*
X24145439Y-14941848D01*
X24154348Y-14932939D01*
X24159881Y-14921620D01*
X24160950Y-14914283D01*
X24160950Y-14813535D01*
X24215450Y-14813535D01*
X24215450Y-14882865D01*
X24216537Y-14888330D01*
X24218246Y-14896920D01*
X24218246Y-14896921D01*
X24222222Y-14906521D01*
X24223730Y-14910160D01*
X24229061Y-14918139D01*
X24231387Y-14921620D01*
X24231691Y-14922075D01*
X24241825Y-14932209D01*
X24253740Y-14940170D01*
X24266980Y-14945654D01*
X24281035Y-14948450D01*
X24281035Y-14948450D01*
X24295365Y-14948450D01*
X24295365Y-14948450D01*
X24309420Y-14945654D01*
X24322660Y-14940170D01*
X24334575Y-14932209D01*
X24344709Y-14922075D01*
X24352670Y-14910160D01*
X24358154Y-14896920D01*
X24360950Y-14882865D01*
X24360950Y-14813535D01*
X24358154Y-14799480D01*
X24352670Y-14786240D01*
X24344709Y-14774325D01*
X24334575Y-14764191D01*
X24322660Y-14756230D01*
X24322660Y-14756230D01*
X24322660Y-14756230D01*
X24309421Y-14750746D01*
X24309420Y-14750746D01*
X24303752Y-14749618D01*
X24295365Y-14747950D01*
X24281035Y-14747950D01*
X24275660Y-14749019D01*
X24266980Y-14750746D01*
X24266979Y-14750746D01*
X24253740Y-14756230D01*
X24241825Y-14764191D01*
X24231691Y-14774325D01*
X24223730Y-14786240D01*
X24218246Y-14799479D01*
X24218246Y-14799480D01*
X24218092Y-14800251D01*
X24215450Y-14813535D01*
X24160950Y-14813535D01*
X24160950Y-14782117D01*
X24160950Y-14782117D01*
X24160950Y-14782117D01*
X24159881Y-14774780D01*
X24159881Y-14774779D01*
X24156650Y-14768170D01*
X24154348Y-14763461D01*
X24145439Y-14754552D01*
X24139780Y-14751786D01*
X24134121Y-14749019D01*
X24134120Y-14749019D01*
X24126783Y-14747950D01*
X24049617Y-14747950D01*
X24042280Y-14749019D01*
X24042279Y-14749019D01*
X24030961Y-14754552D01*
X24030961Y-14754552D01*
X24022052Y-14763461D01*
X24022052Y-14763461D01*
X24016519Y-14774779D01*
X24016519Y-14774779D01*
X24015450Y-14782117D01*
X22375868Y-14782117D01*
X22378377Y-14777771D01*
X22379664Y-14772970D01*
X22380950Y-14768170D01*
X22380950Y-14758230D01*
X22378377Y-14748629D01*
X22378377Y-14748629D01*
X22373407Y-14740021D01*
X22366379Y-14732992D01*
X22357771Y-14728023D01*
X22357771Y-14728022D01*
X22348170Y-14725450D01*
X22348170Y-14725450D01*
X22338230Y-14725450D01*
X22338230Y-14725450D01*
X22328629Y-14728022D01*
X22328629Y-14728023D01*
X22320021Y-14732992D01*
X22320021Y-14732993D01*
X22312993Y-14740021D01*
X22312993Y-14740021D01*
X22308023Y-14748629D01*
X22308023Y-14748629D01*
X22305450Y-14758230D01*
X22108883Y-14758230D01*
X22108883Y-14664530D01*
X22154750Y-14664530D01*
X22154750Y-14674470D01*
X22157323Y-14684071D01*
X22157323Y-14684071D01*
X22161764Y-14691763D01*
X22162293Y-14692679D01*
X22169321Y-14699707D01*
X22172472Y-14701526D01*
X22177929Y-14704677D01*
X22177929Y-14704677D01*
X22177929Y-14704677D01*
X22180329Y-14705320D01*
X22187530Y-14707250D01*
X22187530Y-14707250D01*
X22197470Y-14707250D01*
X22202270Y-14705964D01*
X22207071Y-14704677D01*
X22215679Y-14699707D01*
X22222708Y-14692679D01*
X22227677Y-14684071D01*
X22228964Y-14679270D01*
X22230250Y-14674470D01*
X22230250Y-14664530D01*
X22227677Y-14654929D01*
X22227677Y-14654929D01*
X22222707Y-14646321D01*
X22215679Y-14639292D01*
X22207071Y-14634323D01*
X22207071Y-14634322D01*
X22197470Y-14631750D01*
X22197470Y-14631750D01*
X22187530Y-14631750D01*
X22187530Y-14631750D01*
X22177929Y-14634322D01*
X22177929Y-14634323D01*
X22169321Y-14639292D01*
X22169321Y-14639293D01*
X22162293Y-14646321D01*
X22162293Y-14646321D01*
X22157323Y-14654929D01*
X22157323Y-14654929D01*
X22154750Y-14664530D01*
X22108883Y-14664530D01*
X22108883Y-14573598D01*
X22843150Y-14573598D01*
X22843150Y-14584802D01*
X22846050Y-14595623D01*
X22846050Y-14595624D01*
X22850976Y-14604157D01*
X22851651Y-14605326D01*
X22859574Y-14613248D01*
X22863125Y-14615299D01*
X22869276Y-14618850D01*
X22869276Y-14618850D01*
X22869276Y-14618850D01*
X22871202Y-14619366D01*
X22880098Y-14621750D01*
X22880098Y-14621750D01*
X22880098Y-14621750D01*
X22921302Y-14621750D01*
X22921302Y-14621750D01*
X22932124Y-14618850D01*
X22941826Y-14613248D01*
X22949748Y-14605326D01*
X22955350Y-14595624D01*
X22958250Y-14584802D01*
X22958250Y-14584802D01*
X22958250Y-14573598D01*
X22958250Y-14573598D01*
X22955350Y-14562776D01*
X22955350Y-14562776D01*
X22954317Y-14560986D01*
X22953827Y-14557268D01*
X22956110Y-14554292D01*
X22959828Y-14553803D01*
X22961606Y-14554279D01*
X22962243Y-14554450D01*
X22962243Y-14554450D01*
X22974158Y-14554450D01*
X22974158Y-14554450D01*
X22985666Y-14551366D01*
X22986859Y-14550677D01*
X22990577Y-14550188D01*
X22993553Y-14552470D01*
X22994042Y-14556189D01*
X22993553Y-14557371D01*
X22991034Y-14561734D01*
X22987950Y-14573242D01*
X22987950Y-14585158D01*
X22991034Y-14596666D01*
X22991034Y-14596666D01*
X22996677Y-14606440D01*
X22996991Y-14606984D01*
X23005416Y-14615409D01*
X23009192Y-14617589D01*
X23015734Y-14621366D01*
X23015734Y-14621366D01*
X23015734Y-14621366D01*
X23024810Y-14623798D01*
X23027242Y-14624450D01*
X23027242Y-14624450D01*
X23027243Y-14624450D01*
X23039158Y-14624450D01*
X23039158Y-14624450D01*
X23050666Y-14621366D01*
X23060984Y-14615409D01*
X23069409Y-14606984D01*
X23069636Y-14606757D01*
X23069741Y-14606862D01*
X23072559Y-14605235D01*
X23076182Y-14606205D01*
X23076749Y-14606772D01*
X23076764Y-14606757D01*
X23076991Y-14606984D01*
X23085416Y-14615409D01*
X23089192Y-14617589D01*
X23095734Y-14621366D01*
X23095734Y-14621366D01*
X23095734Y-14621366D01*
X23104810Y-14623798D01*
X23107242Y-14624450D01*
X23107242Y-14624450D01*
X23107243Y-14624450D01*
X23119158Y-14624450D01*
X23119158Y-14624450D01*
X23130666Y-14621366D01*
X23140984Y-14615409D01*
X23149409Y-14606984D01*
X23149723Y-14606440D01*
X23152699Y-14604157D01*
X23156417Y-14604646D01*
X23157432Y-14605425D01*
X23165416Y-14613409D01*
X23168880Y-14615409D01*
X23175734Y-14619366D01*
X23175734Y-14619366D01*
X23175734Y-14619366D01*
X23183198Y-14621366D01*
X23187242Y-14622450D01*
X23187242Y-14622450D01*
X23187243Y-14622450D01*
X23199158Y-14622450D01*
X23199158Y-14622450D01*
X23210666Y-14619366D01*
X23220984Y-14613409D01*
X23229409Y-14604984D01*
X23235366Y-14594666D01*
X23238450Y-14583158D01*
X23238450Y-14583158D01*
X23238450Y-14571242D01*
X23235567Y-14560485D01*
X23236057Y-14556766D01*
X23239032Y-14554483D01*
X23239157Y-14554450D01*
X23239157Y-14554450D01*
X23250666Y-14551366D01*
X23260984Y-14545409D01*
X23269409Y-14536984D01*
X23269636Y-14536757D01*
X23269741Y-14536862D01*
X23272559Y-14535235D01*
X23276182Y-14536205D01*
X23276749Y-14536772D01*
X23276764Y-14536757D01*
X23276991Y-14536984D01*
X23285416Y-14545409D01*
X23288366Y-14547112D01*
X23295734Y-14551366D01*
X23295734Y-14551366D01*
X23307368Y-14554483D01*
X23310343Y-14556766D01*
X23310832Y-14560485D01*
X23307950Y-14571242D01*
X23307950Y-14583158D01*
X23311034Y-14594666D01*
X23311034Y-14594666D01*
X23316417Y-14603990D01*
X23316991Y-14604984D01*
X23325416Y-14613409D01*
X23328880Y-14615409D01*
X23335734Y-14619366D01*
X23335734Y-14619366D01*
X23335734Y-14619366D01*
X23343198Y-14621366D01*
X23347242Y-14622450D01*
X23347242Y-14622450D01*
X23347243Y-14622450D01*
X23359158Y-14622450D01*
X23359158Y-14622450D01*
X23370666Y-14619366D01*
X23380984Y-14613409D01*
X23388968Y-14605425D01*
X23392433Y-14603990D01*
X23395898Y-14605425D01*
X23396677Y-14606440D01*
X23396991Y-14606984D01*
X23396991Y-14606984D01*
X23396991Y-14606984D01*
X23405416Y-14615409D01*
X23409192Y-14617589D01*
X23415734Y-14621366D01*
X23415734Y-14621366D01*
X23415734Y-14621366D01*
X23424810Y-14623798D01*
X23427242Y-14624450D01*
X23427242Y-14624450D01*
X23427243Y-14624450D01*
X23439158Y-14624450D01*
X23439158Y-14624450D01*
X23450666Y-14621366D01*
X23460984Y-14615409D01*
X23469409Y-14606984D01*
X23469636Y-14606757D01*
X23469741Y-14606862D01*
X23472559Y-14605235D01*
X23476182Y-14606205D01*
X23476749Y-14606772D01*
X23476764Y-14606757D01*
X23476991Y-14606984D01*
X23485416Y-14615409D01*
X23489192Y-14617589D01*
X23495734Y-14621366D01*
X23495734Y-14621366D01*
X23495734Y-14621366D01*
X23504810Y-14623798D01*
X23507242Y-14624450D01*
X23507242Y-14624450D01*
X23507243Y-14624450D01*
X23519158Y-14624450D01*
X23519158Y-14624450D01*
X23530666Y-14621366D01*
X23540984Y-14615409D01*
X23549409Y-14606984D01*
X23555366Y-14596666D01*
X23558450Y-14585158D01*
X23558450Y-14585158D01*
X23558450Y-14573242D01*
X23558450Y-14573242D01*
X23555646Y-14562776D01*
X23555366Y-14561734D01*
X23555366Y-14561734D01*
X23555366Y-14561734D01*
X23552847Y-14557371D01*
X23552358Y-14553652D01*
X23554641Y-14550677D01*
X23558359Y-14550188D01*
X23559540Y-14550677D01*
X23560734Y-14551366D01*
X23567603Y-14553207D01*
X23572242Y-14554450D01*
X23572242Y-14554450D01*
X23572243Y-14554450D01*
X23584158Y-14554450D01*
X23584158Y-14554450D01*
X23595666Y-14551366D01*
X23605385Y-14545755D01*
X23609103Y-14545265D01*
X23612078Y-14547548D01*
X23612568Y-14551267D01*
X23611723Y-14552980D01*
X23611651Y-14553073D01*
X23606050Y-14562776D01*
X23606050Y-14562776D01*
X23603150Y-14573598D01*
X23603150Y-14584802D01*
X23606050Y-14595623D01*
X23606050Y-14595624D01*
X23610976Y-14604157D01*
X23611651Y-14605326D01*
X23619574Y-14613248D01*
X23623125Y-14615299D01*
X23629276Y-14618850D01*
X23629276Y-14618850D01*
X23629276Y-14618850D01*
X23631202Y-14619366D01*
X23640098Y-14621750D01*
X23640098Y-14621750D01*
X23640098Y-14621750D01*
X23651302Y-14621750D01*
X23651302Y-14621750D01*
X23662124Y-14618850D01*
X23671826Y-14613248D01*
X23679748Y-14605326D01*
X23685350Y-14595624D01*
X23688250Y-14584802D01*
X23688250Y-14584802D01*
X23688250Y-14573598D01*
X23688250Y-14573598D01*
X23685350Y-14562776D01*
X23685350Y-14562776D01*
X23680543Y-14554450D01*
X23679748Y-14553074D01*
X23671826Y-14545151D01*
X23662124Y-14539550D01*
X23662123Y-14539550D01*
X23651302Y-14536650D01*
X23651302Y-14536650D01*
X23640098Y-14536650D01*
X23640098Y-14536650D01*
X23629276Y-14539550D01*
X23629276Y-14539550D01*
X23620262Y-14544754D01*
X23616544Y-14545243D01*
X23613569Y-14542960D01*
X23613079Y-14539242D01*
X23614229Y-14537251D01*
X23614213Y-14537239D01*
X23614305Y-14537120D01*
X23614348Y-14537045D01*
X23614409Y-14536984D01*
X23620366Y-14526666D01*
X23623450Y-14515158D01*
X23623450Y-14515158D01*
X23623450Y-14503242D01*
X23623450Y-14503242D01*
X23620366Y-14491734D01*
X23620366Y-14491734D01*
X23615419Y-14483165D01*
X23614409Y-14481416D01*
X23605984Y-14472991D01*
X23602635Y-14471057D01*
X23595666Y-14467034D01*
X23595666Y-14467034D01*
X23584158Y-14463950D01*
X23584157Y-14463950D01*
X23572243Y-14463950D01*
X23572242Y-14463950D01*
X23560734Y-14467034D01*
X23560734Y-14467034D01*
X23550416Y-14472991D01*
X23550416Y-14472991D01*
X23541991Y-14481416D01*
X23541991Y-14481416D01*
X23536034Y-14491734D01*
X23536034Y-14491734D01*
X23532950Y-14503242D01*
X23532950Y-14515158D01*
X23536034Y-14526666D01*
X23536034Y-14526666D01*
X23538553Y-14531029D01*
X23539042Y-14534747D01*
X23536759Y-14537723D01*
X23533041Y-14538212D01*
X23531859Y-14537723D01*
X23530666Y-14537034D01*
X23530666Y-14537034D01*
X23530666Y-14537034D01*
X23519158Y-14533950D01*
X23519157Y-14533950D01*
X23507243Y-14533950D01*
X23507242Y-14533950D01*
X23495734Y-14537034D01*
X23495734Y-14537034D01*
X23485416Y-14542991D01*
X23485416Y-14542991D01*
X23476764Y-14551643D01*
X23476715Y-14551594D01*
X23476619Y-14551817D01*
X23475180Y-14552391D01*
X23473839Y-14553165D01*
X23473480Y-14553069D01*
X23473135Y-14553207D01*
X23472149Y-14552712D01*
X23470216Y-14552194D01*
X23469690Y-14551726D01*
X23469440Y-14551470D01*
X23469409Y-14551416D01*
X23468587Y-14550594D01*
X23468569Y-14550575D01*
X23467884Y-14548858D01*
X23467179Y-14547156D01*
X23467188Y-14547112D01*
X23467179Y-14547092D01*
X23467203Y-14547037D01*
X23467552Y-14545281D01*
X23472529Y-14533264D01*
X23472529Y-14533264D01*
X23475700Y-14517325D01*
X23475700Y-14501075D01*
X23472530Y-14485136D01*
X23472529Y-14485135D01*
X23466698Y-14471057D01*
X23414342Y-14523413D01*
X23410878Y-14524848D01*
X23407413Y-14523413D01*
X23407342Y-14523342D01*
X23410155Y-14520529D01*
X23413200Y-14513178D01*
X23413200Y-14505222D01*
X23410155Y-14497871D01*
X23404529Y-14492245D01*
X23397178Y-14489200D01*
X23389222Y-14489200D01*
X23381871Y-14492245D01*
X23376245Y-14497871D01*
X23373200Y-14505222D01*
X23373200Y-14513178D01*
X23376245Y-14520529D01*
X23379058Y-14523342D01*
X23378987Y-14523413D01*
X23375522Y-14524848D01*
X23372057Y-14523413D01*
X23359885Y-14511241D01*
X23358450Y-14507776D01*
X23358450Y-14503242D01*
X23358450Y-14503242D01*
X23355366Y-14491734D01*
X23355366Y-14491734D01*
X23350419Y-14483165D01*
X23349409Y-14481416D01*
X23340984Y-14472991D01*
X23337635Y-14471057D01*
X23330666Y-14467034D01*
X23330666Y-14467034D01*
X23319158Y-14463950D01*
X23319157Y-14463950D01*
X23307243Y-14463950D01*
X23307242Y-14463950D01*
X23295734Y-14467034D01*
X23295734Y-14467034D01*
X23285416Y-14472991D01*
X23285416Y-14472991D01*
X23276764Y-14481643D01*
X23276659Y-14481538D01*
X23273839Y-14483165D01*
X23270216Y-14482194D01*
X23269651Y-14481628D01*
X23269636Y-14481643D01*
X23260984Y-14472991D01*
X23250666Y-14467034D01*
X23250666Y-14467034D01*
X23239158Y-14463950D01*
X23239157Y-14463950D01*
X23227243Y-14463950D01*
X23227242Y-14463950D01*
X23215734Y-14467034D01*
X23215734Y-14467034D01*
X23205416Y-14472991D01*
X23205416Y-14472991D01*
X23196991Y-14481416D01*
X23196991Y-14481416D01*
X23191034Y-14491734D01*
X23191034Y-14491734D01*
X23187950Y-14503242D01*
X23187950Y-14507776D01*
X23186515Y-14511241D01*
X23174342Y-14523413D01*
X23170878Y-14524848D01*
X23167413Y-14523413D01*
X23167342Y-14523342D01*
X23170155Y-14520529D01*
X23173200Y-14513178D01*
X23173200Y-14505222D01*
X23170155Y-14497871D01*
X23164529Y-14492245D01*
X23157178Y-14489200D01*
X23149222Y-14489200D01*
X23141871Y-14492245D01*
X23136245Y-14497871D01*
X23133200Y-14505222D01*
X23133200Y-14513178D01*
X23136245Y-14520529D01*
X23139058Y-14523342D01*
X23138987Y-14523413D01*
X23135522Y-14524848D01*
X23132057Y-14523413D01*
X23079702Y-14471057D01*
X23079702Y-14471057D01*
X23073870Y-14485135D01*
X23073870Y-14485135D01*
X23070700Y-14501075D01*
X23070700Y-14517325D01*
X23073870Y-14533264D01*
X23073870Y-14533264D01*
X23078848Y-14545281D01*
X23078848Y-14546224D01*
X23079220Y-14547091D01*
X23078848Y-14548008D01*
X23078848Y-14549031D01*
X23077831Y-14550575D01*
X23077805Y-14550602D01*
X23076991Y-14551416D01*
X23076960Y-14551469D01*
X23076710Y-14551726D01*
X23075231Y-14552362D01*
X23073837Y-14553165D01*
X23073544Y-14553087D01*
X23073265Y-14553207D01*
X23071769Y-14552610D01*
X23070215Y-14552193D01*
X23069878Y-14551856D01*
X23069781Y-14551817D01*
X23069737Y-14551715D01*
X23069651Y-14551628D01*
X23069636Y-14551643D01*
X23060984Y-14542991D01*
X23050666Y-14537034D01*
X23050666Y-14537034D01*
X23039158Y-14533950D01*
X23039157Y-14533950D01*
X23027243Y-14533950D01*
X23027242Y-14533950D01*
X23015734Y-14537034D01*
X23015734Y-14537034D01*
X23014540Y-14537723D01*
X23010822Y-14538212D01*
X23007847Y-14535929D01*
X23007358Y-14532211D01*
X23007847Y-14531029D01*
X23010366Y-14526666D01*
X23013450Y-14515158D01*
X23013450Y-14515158D01*
X23013450Y-14503242D01*
X23013450Y-14503242D01*
X23010366Y-14491734D01*
X23010366Y-14491734D01*
X23005419Y-14483165D01*
X23004409Y-14481416D01*
X22995984Y-14472991D01*
X22992635Y-14471057D01*
X22985666Y-14467034D01*
X22985666Y-14467034D01*
X22974158Y-14463950D01*
X22974157Y-14463950D01*
X22962243Y-14463950D01*
X22962242Y-14463950D01*
X22950734Y-14467034D01*
X22950734Y-14467034D01*
X22940416Y-14472991D01*
X22940416Y-14472991D01*
X22931991Y-14481416D01*
X22931991Y-14481416D01*
X22926034Y-14491734D01*
X22926034Y-14491734D01*
X22922950Y-14503242D01*
X22922950Y-14515158D01*
X22926034Y-14526666D01*
X22926034Y-14526666D01*
X22927804Y-14529732D01*
X22928294Y-14533450D01*
X22926011Y-14536426D01*
X22922293Y-14536915D01*
X22921302Y-14536650D01*
X22921302Y-14536650D01*
X22880098Y-14536650D01*
X22880098Y-14536650D01*
X22869276Y-14539550D01*
X22869276Y-14539550D01*
X22859574Y-14545151D01*
X22859574Y-14545152D01*
X22851652Y-14553074D01*
X22851651Y-14553074D01*
X22846050Y-14562776D01*
X22846050Y-14562776D01*
X22843150Y-14573598D01*
X22108883Y-14573598D01*
X22108883Y-14498230D01*
X22495450Y-14498230D01*
X22495450Y-14508170D01*
X22498022Y-14517771D01*
X22498023Y-14517771D01*
X22501280Y-14523413D01*
X22502992Y-14526379D01*
X22510021Y-14533407D01*
X22512342Y-14534747D01*
X22518629Y-14538377D01*
X22518629Y-14538377D01*
X22518629Y-14538377D01*
X22521029Y-14539020D01*
X22528230Y-14540950D01*
X22528230Y-14540950D01*
X22538170Y-14540950D01*
X22542970Y-14539664D01*
X22547771Y-14538377D01*
X22548057Y-14538212D01*
X22550079Y-14537045D01*
X22556379Y-14533407D01*
X22563407Y-14526379D01*
X22568377Y-14517771D01*
X22570674Y-14509200D01*
X22570950Y-14508170D01*
X22570950Y-14498230D01*
X22568377Y-14488629D01*
X22568377Y-14488629D01*
X22563407Y-14480021D01*
X22556379Y-14472992D01*
X22547771Y-14468023D01*
X22547771Y-14468022D01*
X22538170Y-14465450D01*
X22538170Y-14465450D01*
X22528230Y-14465450D01*
X22528230Y-14465450D01*
X22518629Y-14468022D01*
X22518629Y-14468023D01*
X22510021Y-14472992D01*
X22510021Y-14472993D01*
X22502993Y-14480021D01*
X22502992Y-14480021D01*
X22498023Y-14488629D01*
X22498022Y-14488629D01*
X22495450Y-14498230D01*
X22108883Y-14498230D01*
X22108883Y-14360030D01*
X22337250Y-14360030D01*
X22337250Y-14369970D01*
X22339823Y-14379571D01*
X22339823Y-14379571D01*
X22344793Y-14388179D01*
X22351821Y-14395207D01*
X22354972Y-14397026D01*
X22360429Y-14400177D01*
X22360429Y-14400177D01*
X22360429Y-14400177D01*
X22362829Y-14400820D01*
X22370030Y-14402750D01*
X22370030Y-14402750D01*
X22379970Y-14402750D01*
X22384770Y-14401464D01*
X22389571Y-14400177D01*
X22398179Y-14395207D01*
X22405207Y-14388179D01*
X22410177Y-14379571D01*
X22411464Y-14374770D01*
X22412750Y-14369970D01*
X22412750Y-14360030D01*
X22437250Y-14360030D01*
X22437250Y-14369970D01*
X22439822Y-14379571D01*
X22439823Y-14379571D01*
X22444792Y-14388179D01*
X22451821Y-14395207D01*
X22454971Y-14397026D01*
X22460429Y-14400177D01*
X22460429Y-14400177D01*
X22460429Y-14400177D01*
X22462829Y-14400820D01*
X22470030Y-14402750D01*
X22470030Y-14402750D01*
X22479970Y-14402750D01*
X22484770Y-14401464D01*
X22489571Y-14400177D01*
X22498179Y-14395207D01*
X22500367Y-14393019D01*
X22760450Y-14393019D01*
X22760450Y-14465381D01*
X22762861Y-14477503D01*
X22762861Y-14477504D01*
X22767591Y-14488923D01*
X22767592Y-14488923D01*
X22774459Y-14499201D01*
X22783199Y-14507941D01*
X22793477Y-14514808D01*
X22804896Y-14519538D01*
X22817020Y-14521950D01*
X22829380Y-14521950D01*
X22841503Y-14519538D01*
X22852923Y-14514808D01*
X22863201Y-14507941D01*
X22871941Y-14499201D01*
X22878808Y-14488923D01*
X22883538Y-14477503D01*
X22885950Y-14465380D01*
X22885950Y-14435702D01*
X23115057Y-14435702D01*
X23115057Y-14435702D01*
X23153200Y-14473845D01*
X23153200Y-14473845D01*
X23191343Y-14435702D01*
X23191343Y-14435702D01*
X23355057Y-14435702D01*
X23355057Y-14435702D01*
X23393200Y-14473845D01*
X23393200Y-14473845D01*
X23431343Y-14435702D01*
X23431343Y-14435702D01*
X23417264Y-14429870D01*
X23401325Y-14426700D01*
X23385075Y-14426700D01*
X23369135Y-14429870D01*
X23369135Y-14429870D01*
X23355057Y-14435702D01*
X23191343Y-14435702D01*
X23177264Y-14429870D01*
X23161325Y-14426700D01*
X23145075Y-14426700D01*
X23129135Y-14429870D01*
X23129135Y-14429870D01*
X23115057Y-14435702D01*
X22885950Y-14435702D01*
X22885950Y-14393020D01*
X22885950Y-14393019D01*
X23660450Y-14393019D01*
X23660450Y-14465381D01*
X23662861Y-14477503D01*
X23662861Y-14477504D01*
X23667591Y-14488923D01*
X23667592Y-14488923D01*
X23674459Y-14499201D01*
X23683199Y-14507941D01*
X23693477Y-14514808D01*
X23704896Y-14519538D01*
X23717020Y-14521950D01*
X23729380Y-14521950D01*
X23741503Y-14519538D01*
X23752923Y-14514808D01*
X23763201Y-14507941D01*
X23771941Y-14499201D01*
X23778808Y-14488923D01*
X23783538Y-14477503D01*
X23785950Y-14465380D01*
X23785950Y-14393020D01*
X23783538Y-14380896D01*
X23778808Y-14369477D01*
X23771941Y-14359199D01*
X23763201Y-14350459D01*
X23763156Y-14350429D01*
X23759806Y-14348190D01*
X23752923Y-14343592D01*
X23752923Y-14343591D01*
X23752923Y-14343591D01*
X23741504Y-14338861D01*
X23741503Y-14338861D01*
X23729381Y-14336450D01*
X23729380Y-14336450D01*
X23717020Y-14336450D01*
X23717019Y-14336450D01*
X23704897Y-14338861D01*
X23704896Y-14338861D01*
X23693477Y-14343591D01*
X23683199Y-14350459D01*
X23674459Y-14359199D01*
X23667591Y-14369477D01*
X23662861Y-14380896D01*
X23662861Y-14380897D01*
X23660450Y-14393019D01*
X22885950Y-14393019D01*
X22883538Y-14380896D01*
X22878808Y-14369477D01*
X22871941Y-14359199D01*
X22863201Y-14350459D01*
X22863156Y-14350429D01*
X22859806Y-14348190D01*
X22852923Y-14343592D01*
X22852923Y-14343591D01*
X22852923Y-14343591D01*
X22841504Y-14338861D01*
X22841503Y-14338861D01*
X22829381Y-14336450D01*
X22829380Y-14336450D01*
X22817020Y-14336450D01*
X22817019Y-14336450D01*
X22804897Y-14338861D01*
X22804896Y-14338861D01*
X22793477Y-14343591D01*
X22783199Y-14350459D01*
X22774459Y-14359199D01*
X22767591Y-14369477D01*
X22762861Y-14380896D01*
X22762861Y-14380897D01*
X22760450Y-14393019D01*
X22500367Y-14393019D01*
X22505207Y-14388179D01*
X22510177Y-14379571D01*
X22511464Y-14374770D01*
X22512750Y-14369970D01*
X22512750Y-14360030D01*
X22510185Y-14350459D01*
X22510177Y-14350429D01*
X22510177Y-14350429D01*
X22510177Y-14350429D01*
X22505207Y-14341821D01*
X22498179Y-14334792D01*
X22489571Y-14329823D01*
X22489571Y-14329822D01*
X22479970Y-14327250D01*
X22479970Y-14327250D01*
X22470030Y-14327250D01*
X22470030Y-14327250D01*
X22460429Y-14329822D01*
X22460429Y-14329823D01*
X22451821Y-14334792D01*
X22451821Y-14334793D01*
X22444793Y-14341821D01*
X22444792Y-14341821D01*
X22439823Y-14350429D01*
X22439822Y-14350429D01*
X22437250Y-14360030D01*
X22412750Y-14360030D01*
X22410185Y-14350459D01*
X22410177Y-14350429D01*
X22410177Y-14350429D01*
X22410177Y-14350429D01*
X22405207Y-14341821D01*
X22398179Y-14334792D01*
X22389571Y-14329823D01*
X22389571Y-14329822D01*
X22379970Y-14327250D01*
X22379970Y-14327250D01*
X22370030Y-14327250D01*
X22370030Y-14327250D01*
X22360429Y-14329822D01*
X22360429Y-14329823D01*
X22351821Y-14334792D01*
X22351821Y-14334793D01*
X22344793Y-14341821D01*
X22344793Y-14341821D01*
X22339823Y-14350429D01*
X22339823Y-14350429D01*
X22337250Y-14360030D01*
X22108883Y-14360030D01*
X22108883Y-13972030D01*
X22110318Y-13968565D01*
X22207447Y-13871435D01*
X22210912Y-13870000D01*
X24653250Y-13870000D01*
X24656715Y-13871435D01*
G37*
%TD.AperFunction*%
%TD*%
%TA.AperFunction,Conductor*%
%TO.N,GND*%
G36*
X24170308Y-10669005D02*
G01*
X24212514Y-10670848D01*
X24212938Y-10670885D01*
X24254720Y-10676385D01*
X24255140Y-10676459D01*
X24296283Y-10685581D01*
X24296695Y-10685691D01*
X24336887Y-10698363D01*
X24337284Y-10698508D01*
X24376220Y-10714636D01*
X24376605Y-10714816D01*
X24413986Y-10734275D01*
X24414356Y-10734488D01*
X24449897Y-10757130D01*
X24450247Y-10757375D01*
X24483678Y-10783028D01*
X24484005Y-10783303D01*
X24515075Y-10811773D01*
X24515377Y-10812075D01*
X24543847Y-10843145D01*
X24544122Y-10843472D01*
X24569775Y-10876903D01*
X24570020Y-10877253D01*
X24592662Y-10912794D01*
X24592875Y-10913164D01*
X24612334Y-10950545D01*
X24612515Y-10950932D01*
X24628641Y-10989864D01*
X24628787Y-10990265D01*
X24641459Y-11030455D01*
X24641569Y-11030868D01*
X24650690Y-11072010D01*
X24650765Y-11072431D01*
X24656265Y-11114211D01*
X24656302Y-11114637D01*
X24658145Y-11156845D01*
X24658150Y-11157059D01*
X24658150Y-13851850D01*
X24656715Y-13855315D01*
X24653250Y-13856750D01*
X22210912Y-13856750D01*
X22208389Y-13857252D01*
X22205842Y-13857758D01*
X22205841Y-13857759D01*
X22202377Y-13859194D01*
X22198078Y-13862066D01*
X22100948Y-13959196D01*
X22098076Y-13963494D01*
X22096641Y-13966958D01*
X22096641Y-13966959D01*
X22096410Y-13968122D01*
X22095633Y-13972030D01*
X22095633Y-13972030D01*
X22095633Y-14932500D01*
X22094197Y-14935965D01*
X22090733Y-14937400D01*
X20992178Y-14937400D01*
X20988713Y-14935965D01*
X20987353Y-14933351D01*
X20986102Y-14926260D01*
X20978918Y-14906521D01*
X20978918Y-14906521D01*
X20978918Y-14906520D01*
X20968415Y-14888330D01*
X20968316Y-14888211D01*
X20954913Y-14872238D01*
X20954912Y-14872238D01*
X20954912Y-14872237D01*
X20938821Y-14858735D01*
X20936151Y-14857193D01*
X20933868Y-14854218D01*
X20934357Y-14850500D01*
X20937333Y-14848217D01*
X20938601Y-14848050D01*
X21180731Y-14848050D01*
X21180731Y-14848050D01*
X21185344Y-14846139D01*
X21187255Y-14845348D01*
X21276409Y-14756193D01*
X21279874Y-14754758D01*
X21283338Y-14756193D01*
X21284774Y-14759658D01*
X21283948Y-14762380D01*
X21276006Y-14774267D01*
X21276006Y-14774267D01*
X21269015Y-14791145D01*
X21269014Y-14791146D01*
X21267224Y-14800146D01*
X21265450Y-14809065D01*
X21265450Y-14827335D01*
X21267815Y-14839226D01*
X21269014Y-14845254D01*
X21269015Y-14845255D01*
X21276006Y-14862133D01*
X21276006Y-14862133D01*
X21276006Y-14862134D01*
X21281115Y-14869780D01*
X21286156Y-14877324D01*
X21299076Y-14890244D01*
X21301768Y-14892042D01*
X21314266Y-14900394D01*
X21314267Y-14900394D01*
X21331145Y-14907385D01*
X21331145Y-14907385D01*
X21331146Y-14907386D01*
X21349065Y-14910950D01*
X21349065Y-14910950D01*
X21367335Y-14910950D01*
X21367335Y-14910950D01*
X21385254Y-14907386D01*
X21402134Y-14900394D01*
X21417325Y-14890244D01*
X21430244Y-14877325D01*
X21440394Y-14862134D01*
X21447386Y-14845254D01*
X21450950Y-14827335D01*
X21450950Y-14809065D01*
X21447386Y-14791146D01*
X21445784Y-14787280D01*
X21440394Y-14774267D01*
X21440394Y-14774266D01*
X21432483Y-14762427D01*
X21430244Y-14759075D01*
X21417324Y-14746156D01*
X21409780Y-14741115D01*
X21402134Y-14736006D01*
X21402133Y-14736006D01*
X21402133Y-14736006D01*
X21392890Y-14732177D01*
X21390238Y-14729525D01*
X21390238Y-14725775D01*
X21392890Y-14723123D01*
X21394765Y-14722750D01*
X21735618Y-14722750D01*
X21739083Y-14724185D01*
X21758846Y-14743948D01*
X21778433Y-14763535D01*
X21779868Y-14767000D01*
X21779042Y-14769722D01*
X21776006Y-14774266D01*
X21776006Y-14774266D01*
X21769014Y-14791145D01*
X21769014Y-14791146D01*
X21767224Y-14800146D01*
X21765450Y-14809065D01*
X21765450Y-14827335D01*
X21767815Y-14839226D01*
X21769014Y-14845254D01*
X21769015Y-14845255D01*
X21776006Y-14862133D01*
X21776006Y-14862133D01*
X21776006Y-14862134D01*
X21781115Y-14869780D01*
X21786156Y-14877324D01*
X21799076Y-14890244D01*
X21801768Y-14892042D01*
X21814266Y-14900394D01*
X21814267Y-14900394D01*
X21831145Y-14907385D01*
X21831145Y-14907385D01*
X21831146Y-14907386D01*
X21849065Y-14910950D01*
X21849065Y-14910950D01*
X21867335Y-14910950D01*
X21867335Y-14910950D01*
X21885254Y-14907386D01*
X21902134Y-14900394D01*
X21917325Y-14890244D01*
X21930244Y-14877325D01*
X21940394Y-14862134D01*
X21947386Y-14845254D01*
X21950950Y-14827335D01*
X21950950Y-14809065D01*
X21947386Y-14791146D01*
X21945784Y-14787280D01*
X21940394Y-14774267D01*
X21940394Y-14774266D01*
X21937358Y-14769722D01*
X21936626Y-14766044D01*
X21937967Y-14763535D01*
X22037548Y-14663955D01*
X22039168Y-14660043D01*
X22040250Y-14657431D01*
X22040250Y-13548969D01*
X22038502Y-13544750D01*
X22037548Y-13542445D01*
X22037548Y-13542445D01*
X22037548Y-13542445D01*
X21968662Y-13473560D01*
X21967227Y-13470095D01*
X21968053Y-13467373D01*
X21970263Y-13464065D01*
X21976878Y-13448096D01*
X21980250Y-13431143D01*
X21980250Y-13413857D01*
X21976878Y-13396904D01*
X21970263Y-13380935D01*
X21960660Y-13366563D01*
X21948437Y-13354340D01*
X21934065Y-13344737D01*
X21934065Y-13344737D01*
X21934065Y-13344737D01*
X21926976Y-13341801D01*
X21924324Y-13339149D01*
X21924324Y-13335398D01*
X21926976Y-13332747D01*
X21927337Y-13332613D01*
X21940483Y-13328342D01*
X21958014Y-13319410D01*
X21961513Y-13316868D01*
X21905441Y-13260796D01*
X21911799Y-13259092D01*
X21923201Y-13252510D01*
X21932510Y-13243201D01*
X21939093Y-13231799D01*
X21940796Y-13225441D01*
X21996868Y-13281513D01*
X21999410Y-13278014D01*
X22008342Y-13260483D01*
X22014422Y-13241771D01*
X22014422Y-13241771D01*
X22017500Y-13222338D01*
X22017500Y-13202662D01*
X22014422Y-13183229D01*
X22014422Y-13183229D01*
X22008342Y-13164516D01*
X21999410Y-13146986D01*
X21999410Y-13146986D01*
X21996868Y-13143487D01*
X21940796Y-13199559D01*
X21939093Y-13193201D01*
X21932510Y-13181799D01*
X21923201Y-13172490D01*
X21911799Y-13165907D01*
X21905441Y-13164204D01*
X21961513Y-13108132D01*
X21961513Y-13108132D01*
X21958015Y-13105591D01*
X21958014Y-13105590D01*
X21940483Y-13096658D01*
X21927337Y-13092386D01*
X21924486Y-13089951D01*
X21924191Y-13086212D01*
X21926627Y-13083360D01*
X21926975Y-13083200D01*
X21934065Y-13080263D01*
X21948437Y-13070660D01*
X21960660Y-13058437D01*
X21970263Y-13044065D01*
X21976878Y-13028096D01*
X21980250Y-13011143D01*
X21980250Y-12993857D01*
X21976878Y-12976904D01*
X21970263Y-12960935D01*
X21960660Y-12946563D01*
X21948437Y-12934340D01*
X21934065Y-12924737D01*
X21934065Y-12924737D01*
X21934065Y-12924737D01*
X21918096Y-12918122D01*
X21918095Y-12918122D01*
X21901143Y-12914750D01*
X21901143Y-12914750D01*
X21883857Y-12914750D01*
X21883857Y-12914750D01*
X21866905Y-12918122D01*
X21866904Y-12918122D01*
X21850935Y-12924737D01*
X21836563Y-12934340D01*
X21824340Y-12946563D01*
X21814737Y-12960935D01*
X21808122Y-12976904D01*
X21808122Y-12976905D01*
X21804750Y-12993857D01*
X21804750Y-13011143D01*
X21808122Y-13028095D01*
X21808122Y-13028096D01*
X21814737Y-13044065D01*
X21824340Y-13058437D01*
X21836563Y-13070660D01*
X21850935Y-13080263D01*
X21858024Y-13083199D01*
X21860676Y-13085851D01*
X21860676Y-13089601D01*
X21858024Y-13092253D01*
X21857663Y-13092386D01*
X21844517Y-13096658D01*
X21826986Y-13105590D01*
X21826986Y-13105590D01*
X21823487Y-13108132D01*
X21879559Y-13164204D01*
X21873201Y-13165907D01*
X21861799Y-13172490D01*
X21852490Y-13181799D01*
X21845908Y-13193201D01*
X21844204Y-13199559D01*
X21788132Y-13143487D01*
X21785590Y-13146986D01*
X21785590Y-13146986D01*
X21776658Y-13164517D01*
X21770578Y-13183229D01*
X21770578Y-13183229D01*
X21767500Y-13202662D01*
X21767500Y-13222338D01*
X21770578Y-13241771D01*
X21770578Y-13241771D01*
X21776658Y-13260483D01*
X21785590Y-13278014D01*
X21785591Y-13278015D01*
X21788132Y-13281512D01*
X21788132Y-13281512D01*
X21844204Y-13225441D01*
X21845908Y-13231799D01*
X21852490Y-13243201D01*
X21861799Y-13252510D01*
X21873201Y-13259092D01*
X21879559Y-13260796D01*
X21823487Y-13316868D01*
X21826986Y-13319410D01*
X21826986Y-13319410D01*
X21844517Y-13328342D01*
X21857663Y-13332613D01*
X21860514Y-13335049D01*
X21860809Y-13338788D01*
X21858373Y-13341639D01*
X21858024Y-13341801D01*
X21850935Y-13344737D01*
X21836563Y-13354340D01*
X21824340Y-13366563D01*
X21814737Y-13380935D01*
X21808122Y-13396904D01*
X21808122Y-13396905D01*
X21804750Y-13413857D01*
X21804750Y-13431143D01*
X21808122Y-13448095D01*
X21808122Y-13448096D01*
X21814737Y-13464065D01*
X21814737Y-13464065D01*
X21824340Y-13478437D01*
X21836563Y-13490660D01*
X21850935Y-13500263D01*
X21866904Y-13506878D01*
X21866905Y-13506878D01*
X21866905Y-13506878D01*
X21883857Y-13510250D01*
X21883857Y-13510250D01*
X21901143Y-13510250D01*
X21918096Y-13506878D01*
X21934065Y-13500263D01*
X21937373Y-13498053D01*
X21941051Y-13497321D01*
X21943560Y-13498662D01*
X22003315Y-13558417D01*
X22004750Y-13561882D01*
X22004750Y-14644518D01*
X22003315Y-14647983D01*
X21912865Y-14738433D01*
X21909400Y-14739868D01*
X21906678Y-14739042D01*
X21902133Y-14736006D01*
X21885255Y-14729014D01*
X21885254Y-14729014D01*
X21878028Y-14727577D01*
X21867335Y-14725450D01*
X21849065Y-14725450D01*
X21840146Y-14727224D01*
X21831146Y-14729014D01*
X21831145Y-14729014D01*
X21814266Y-14736006D01*
X21814266Y-14736006D01*
X21809722Y-14739042D01*
X21806044Y-14739774D01*
X21803535Y-14738433D01*
X21755055Y-14689952D01*
X21755054Y-14689952D01*
X21753387Y-14689261D01*
X21753009Y-14689105D01*
X21753009Y-14689105D01*
X21753009Y-14689105D01*
X21748531Y-14687250D01*
X21748531Y-14687250D01*
X21306031Y-14687250D01*
X21298969Y-14687250D01*
X21298969Y-14687250D01*
X21298969Y-14687250D01*
X21292445Y-14689952D01*
X21292445Y-14689952D01*
X21171283Y-14811115D01*
X21167818Y-14812550D01*
X21084826Y-14812550D01*
X21081361Y-14811115D01*
X21079926Y-14807650D01*
X21080582Y-14805200D01*
X21082677Y-14801571D01*
X21083964Y-14796770D01*
X21085250Y-14791970D01*
X21085250Y-14782030D01*
X21083170Y-14774266D01*
X21082677Y-14772429D01*
X21082677Y-14772429D01*
X21082677Y-14772429D01*
X21079184Y-14766379D01*
X21077708Y-14763821D01*
X21070679Y-14756792D01*
X21062071Y-14751823D01*
X21062071Y-14751822D01*
X21052470Y-14749250D01*
X21052470Y-14749250D01*
X21042530Y-14749250D01*
X21042530Y-14749250D01*
X21032929Y-14751822D01*
X21032929Y-14751823D01*
X21024321Y-14756792D01*
X21024321Y-14756793D01*
X21017293Y-14763821D01*
X21017293Y-14763821D01*
X21012323Y-14772429D01*
X21012323Y-14772429D01*
X21009750Y-14782030D01*
X21009750Y-14791970D01*
X21012323Y-14801571D01*
X21012323Y-14801571D01*
X21014418Y-14805200D01*
X21014908Y-14808918D01*
X21012625Y-14811893D01*
X21010174Y-14812550D01*
X20974728Y-14812550D01*
X20971263Y-14811115D01*
X20969828Y-14807650D01*
X20970484Y-14805200D01*
X20975177Y-14797071D01*
X20976765Y-14791146D01*
X20977750Y-14787470D01*
X20977750Y-14777530D01*
X20975501Y-14769136D01*
X20975177Y-14767929D01*
X20975177Y-14767929D01*
X20975177Y-14767929D01*
X20971292Y-14761200D01*
X20970208Y-14759321D01*
X20963179Y-14752292D01*
X20962365Y-14751823D01*
X20954571Y-14747323D01*
X20954571Y-14747322D01*
X20944970Y-14744750D01*
X20944970Y-14744750D01*
X20935030Y-14744750D01*
X20935030Y-14744750D01*
X20925429Y-14747322D01*
X20925429Y-14747323D01*
X20916821Y-14752292D01*
X20916821Y-14752293D01*
X20909793Y-14759321D01*
X20909793Y-14759321D01*
X20904823Y-14767929D01*
X20904823Y-14767929D01*
X20902250Y-14777530D01*
X20902250Y-14787470D01*
X20904823Y-14797071D01*
X20904823Y-14797071D01*
X20907306Y-14801371D01*
X20909516Y-14805200D01*
X20910006Y-14808918D01*
X20907723Y-14811893D01*
X20905273Y-14812550D01*
X20869728Y-14812550D01*
X20866263Y-14811115D01*
X20864828Y-14807650D01*
X20865484Y-14805200D01*
X20870177Y-14797071D01*
X20871765Y-14791146D01*
X20872750Y-14787470D01*
X20872750Y-14777530D01*
X20870501Y-14769136D01*
X20870177Y-14767929D01*
X20870177Y-14767929D01*
X20870177Y-14767929D01*
X20866292Y-14761200D01*
X20865208Y-14759321D01*
X20858179Y-14752292D01*
X20857365Y-14751823D01*
X20849571Y-14747323D01*
X20849571Y-14747322D01*
X20839970Y-14744750D01*
X20839970Y-14744750D01*
X20832650Y-14744750D01*
X20829185Y-14743315D01*
X20827750Y-14739850D01*
X20827750Y-14648230D01*
X20900450Y-14648230D01*
X20900450Y-14658170D01*
X20903023Y-14667771D01*
X20903023Y-14667771D01*
X20906243Y-14673349D01*
X20907993Y-14676379D01*
X20915021Y-14683407D01*
X20916988Y-14684543D01*
X20923629Y-14688377D01*
X20923629Y-14688377D01*
X20923629Y-14688377D01*
X20924642Y-14688649D01*
X20933230Y-14690950D01*
X20933230Y-14690950D01*
X20943170Y-14690950D01*
X20948852Y-14689427D01*
X20952771Y-14688377D01*
X20961379Y-14683407D01*
X20968408Y-14676379D01*
X20973377Y-14667771D01*
X20975281Y-14660666D01*
X20975950Y-14658170D01*
X20975950Y-14648230D01*
X20973377Y-14638629D01*
X20973377Y-14638629D01*
X20968919Y-14630907D01*
X20968408Y-14630021D01*
X20961379Y-14622992D01*
X20952771Y-14618023D01*
X20952771Y-14618022D01*
X20943170Y-14615450D01*
X20943170Y-14615450D01*
X20933230Y-14615450D01*
X20933230Y-14615450D01*
X20923629Y-14618022D01*
X20923629Y-14618023D01*
X20915021Y-14622992D01*
X20915021Y-14622993D01*
X20907993Y-14630021D01*
X20907993Y-14630021D01*
X20903023Y-14638629D01*
X20903023Y-14638629D01*
X20900450Y-14648230D01*
X20827750Y-14648230D01*
X20827750Y-14477969D01*
X21478200Y-14477969D01*
X21478200Y-14498431D01*
X21481401Y-14518641D01*
X21481401Y-14518642D01*
X21487724Y-14538103D01*
X21497014Y-14556335D01*
X21497014Y-14556335D01*
X21500252Y-14560792D01*
X21568200Y-14492844D01*
X21568200Y-14493466D01*
X21570926Y-14503639D01*
X21576192Y-14512761D01*
X21583639Y-14520208D01*
X21592761Y-14525474D01*
X21602934Y-14528200D01*
X21603555Y-14528200D01*
X21535608Y-14596147D01*
X21540065Y-14599386D01*
X21558297Y-14608676D01*
X21577758Y-14614999D01*
X21577759Y-14614999D01*
X21597969Y-14618200D01*
X21618431Y-14618200D01*
X21638641Y-14614999D01*
X21638642Y-14614999D01*
X21658103Y-14608676D01*
X21676334Y-14599386D01*
X21680792Y-14596147D01*
X21612845Y-14528200D01*
X21613466Y-14528200D01*
X21623639Y-14525474D01*
X21632761Y-14520208D01*
X21640208Y-14512761D01*
X21645474Y-14503639D01*
X21648200Y-14493466D01*
X21648200Y-14492845D01*
X21716147Y-14560792D01*
X21719386Y-14556334D01*
X21728676Y-14538103D01*
X21734999Y-14518642D01*
X21734999Y-14518641D01*
X21738200Y-14498431D01*
X21738200Y-14477969D01*
X21734999Y-14457758D01*
X21734999Y-14457758D01*
X21728676Y-14438297D01*
X21719386Y-14420065D01*
X21716148Y-14415608D01*
X21648200Y-14483555D01*
X21648200Y-14482934D01*
X21645474Y-14472761D01*
X21640208Y-14463639D01*
X21632761Y-14456192D01*
X21623639Y-14450926D01*
X21613466Y-14448200D01*
X21612845Y-14448200D01*
X21680792Y-14380252D01*
X21676335Y-14377014D01*
X21676335Y-14377014D01*
X21658103Y-14367724D01*
X21638642Y-14361401D01*
X21638641Y-14361401D01*
X21618431Y-14358200D01*
X21597969Y-14358200D01*
X21577759Y-14361401D01*
X21577758Y-14361401D01*
X21558297Y-14367724D01*
X21540065Y-14377014D01*
X21540064Y-14377014D01*
X21535608Y-14380252D01*
X21535608Y-14380252D01*
X21603555Y-14448200D01*
X21602934Y-14448200D01*
X21592761Y-14450926D01*
X21583639Y-14456192D01*
X21576192Y-14463639D01*
X21570926Y-14472761D01*
X21568200Y-14482934D01*
X21568200Y-14483555D01*
X21500252Y-14415608D01*
X21500252Y-14415608D01*
X21497014Y-14420064D01*
X21497014Y-14420065D01*
X21487724Y-14438297D01*
X21481401Y-14457758D01*
X21481401Y-14457758D01*
X21478200Y-14477969D01*
X20827750Y-14477969D01*
X20827750Y-14416882D01*
X20829185Y-14413417D01*
X20863947Y-14378655D01*
X21002152Y-14240450D01*
X21222548Y-14020055D01*
X21223339Y-14018144D01*
X21223339Y-14018144D01*
X21223339Y-14018144D01*
X21225250Y-14013531D01*
X21225250Y-14007364D01*
X21266205Y-14007364D01*
X21266205Y-14027636D01*
X21269376Y-14047659D01*
X21269376Y-14047660D01*
X21275641Y-14066940D01*
X21284844Y-14085003D01*
X21284845Y-14085003D01*
X21291428Y-14094065D01*
X21296761Y-14101404D01*
X21296761Y-14101405D01*
X21311095Y-14115739D01*
X21311096Y-14115739D01*
X21311096Y-14115739D01*
X21327497Y-14127655D01*
X21345560Y-14136859D01*
X21364840Y-14143124D01*
X21384864Y-14146295D01*
X21384864Y-14146295D01*
X21405136Y-14146295D01*
X21405136Y-14146295D01*
X21425160Y-14143124D01*
X21444440Y-14136859D01*
X21462503Y-14127655D01*
X21478904Y-14115739D01*
X21478905Y-14115739D01*
X21478905Y-14115739D01*
X21493239Y-14101405D01*
X21493239Y-14101405D01*
X21493239Y-14101404D01*
X21505155Y-14085003D01*
X21514359Y-14066940D01*
X21520624Y-14047660D01*
X21521226Y-14043857D01*
X21804750Y-14043857D01*
X21804750Y-14061143D01*
X21808122Y-14078095D01*
X21808122Y-14078096D01*
X21814737Y-14094065D01*
X21814737Y-14094065D01*
X21824340Y-14108437D01*
X21836563Y-14120660D01*
X21850935Y-14130263D01*
X21866904Y-14136878D01*
X21866905Y-14136878D01*
X21866905Y-14136878D01*
X21883857Y-14140250D01*
X21883857Y-14140250D01*
X21901143Y-14140250D01*
X21918096Y-14136878D01*
X21934065Y-14130263D01*
X21948437Y-14120660D01*
X21960660Y-14108437D01*
X21970263Y-14094065D01*
X21976878Y-14078096D01*
X21980250Y-14061143D01*
X21980250Y-14043857D01*
X21976878Y-14026904D01*
X21970263Y-14010935D01*
X21960660Y-13996563D01*
X21948437Y-13984340D01*
X21934065Y-13974737D01*
X21934065Y-13974737D01*
X21934065Y-13974737D01*
X21918096Y-13968122D01*
X21918095Y-13968122D01*
X21901143Y-13964750D01*
X21901143Y-13964750D01*
X21883857Y-13964750D01*
X21883857Y-13964750D01*
X21866905Y-13968122D01*
X21866904Y-13968122D01*
X21850935Y-13974737D01*
X21836563Y-13984340D01*
X21824340Y-13996563D01*
X21814737Y-14010935D01*
X21808122Y-14026904D01*
X21808122Y-14026905D01*
X21804750Y-14043857D01*
X21521226Y-14043857D01*
X21523795Y-14027636D01*
X21523795Y-14007364D01*
X21520624Y-13987340D01*
X21514359Y-13968060D01*
X21505155Y-13949997D01*
X21493239Y-13933596D01*
X21493239Y-13933595D01*
X21493239Y-13933595D01*
X21478905Y-13919261D01*
X21478904Y-13919261D01*
X21478501Y-13918967D01*
X21476541Y-13915770D01*
X21477417Y-13912123D01*
X21479506Y-13910476D01*
X21489832Y-13906199D01*
X21489832Y-13906199D01*
X21490738Y-13905593D01*
X21490738Y-13905593D01*
X21412145Y-13827000D01*
X21482855Y-13827000D01*
X21524485Y-13868629D01*
X21525920Y-13872094D01*
X21525920Y-13872844D01*
X21529980Y-13887997D01*
X21529980Y-13887997D01*
X21537824Y-13901582D01*
X21537824Y-13901583D01*
X21537824Y-13901583D01*
X21548917Y-13912676D01*
X21548917Y-13912676D01*
X21548918Y-13912676D01*
X21562503Y-13920520D01*
X21562503Y-13920520D01*
X21562503Y-13920520D01*
X21566291Y-13921535D01*
X21577656Y-13924580D01*
X21577656Y-13924580D01*
X21593344Y-13924580D01*
X21600920Y-13922550D01*
X21608497Y-13920520D01*
X21608942Y-13920263D01*
X21619469Y-13914185D01*
X21622083Y-13912676D01*
X21633176Y-13901583D01*
X21640063Y-13889655D01*
X21641020Y-13887997D01*
X21641020Y-13887997D01*
X21641020Y-13887997D01*
X21643050Y-13880420D01*
X21645080Y-13872844D01*
X21645080Y-13857156D01*
X21641020Y-13842003D01*
X21641020Y-13842003D01*
X21637593Y-13836067D01*
X21636317Y-13833857D01*
X21804750Y-13833857D01*
X21804750Y-13851143D01*
X21808122Y-13868095D01*
X21808122Y-13868096D01*
X21814737Y-13884065D01*
X21814737Y-13884065D01*
X21819956Y-13891876D01*
X21824142Y-13898141D01*
X21824340Y-13898437D01*
X21836563Y-13910660D01*
X21850935Y-13920263D01*
X21866904Y-13926878D01*
X21866905Y-13926878D01*
X21866905Y-13926878D01*
X21883857Y-13930250D01*
X21883857Y-13930250D01*
X21901143Y-13930250D01*
X21918096Y-13926878D01*
X21934065Y-13920263D01*
X21948437Y-13910660D01*
X21960660Y-13898437D01*
X21970263Y-13884065D01*
X21976878Y-13868096D01*
X21980250Y-13851143D01*
X21980250Y-13833857D01*
X21979168Y-13828418D01*
X21976878Y-13816905D01*
X21976878Y-13816904D01*
X21972727Y-13806882D01*
X21970263Y-13800935D01*
X21960660Y-13786563D01*
X21948437Y-13774340D01*
X21934065Y-13764737D01*
X21934065Y-13764737D01*
X21934065Y-13764737D01*
X21918096Y-13758122D01*
X21918095Y-13758122D01*
X21901143Y-13754750D01*
X21901143Y-13754750D01*
X21883857Y-13754750D01*
X21883857Y-13754750D01*
X21866905Y-13758122D01*
X21866904Y-13758122D01*
X21850935Y-13764737D01*
X21836563Y-13774340D01*
X21824340Y-13786563D01*
X21814737Y-13800935D01*
X21808122Y-13816904D01*
X21808122Y-13816905D01*
X21804750Y-13833857D01*
X21636317Y-13833857D01*
X21633176Y-13828418D01*
X21633176Y-13828417D01*
X21633176Y-13828417D01*
X21622083Y-13817324D01*
X21622083Y-13817324D01*
X21622082Y-13817324D01*
X21608497Y-13809480D01*
X21608497Y-13809480D01*
X21593344Y-13805420D01*
X21593344Y-13805420D01*
X21577656Y-13805420D01*
X21577656Y-13805420D01*
X21562503Y-13809480D01*
X21562503Y-13809480D01*
X21548918Y-13817324D01*
X21548917Y-13817324D01*
X21545198Y-13821044D01*
X21541733Y-13822479D01*
X21538268Y-13821043D01*
X21537024Y-13818413D01*
X21536917Y-13818434D01*
X21533436Y-13800932D01*
X21533436Y-13800932D01*
X21526699Y-13784668D01*
X21526093Y-13783762D01*
X21482855Y-13827000D01*
X21412145Y-13827000D01*
X21368906Y-13783762D01*
X21368906Y-13783762D01*
X21368301Y-13784667D01*
X21368188Y-13784879D01*
X21368082Y-13784823D01*
X21365694Y-13787209D01*
X21361943Y-13787208D01*
X21360355Y-13786147D01*
X21359503Y-13785294D01*
X21359502Y-13785294D01*
X21359502Y-13785293D01*
X21359502Y-13785293D01*
X21347618Y-13778432D01*
X21347617Y-13778432D01*
X21334362Y-13774880D01*
X21334362Y-13774880D01*
X21320638Y-13774880D01*
X21320638Y-13774880D01*
X21307383Y-13778432D01*
X21307382Y-13778432D01*
X21295498Y-13785293D01*
X21295497Y-13785294D01*
X21285794Y-13794997D01*
X21285793Y-13794998D01*
X21278932Y-13806882D01*
X21278932Y-13806882D01*
X21275380Y-13820138D01*
X21275380Y-13833862D01*
X21278932Y-13847117D01*
X21278932Y-13847118D01*
X21285793Y-13859002D01*
X21285794Y-13859002D01*
X21285794Y-13859002D01*
X21295498Y-13868706D01*
X21295498Y-13868706D01*
X21295498Y-13868707D01*
X21307300Y-13875520D01*
X21307382Y-13875568D01*
X21317837Y-13878369D01*
X21320638Y-13879120D01*
X21320638Y-13879120D01*
X21320638Y-13879120D01*
X21334362Y-13879120D01*
X21334362Y-13879120D01*
X21347618Y-13875568D01*
X21359502Y-13868706D01*
X21360355Y-13867853D01*
X21363820Y-13866418D01*
X21367285Y-13867853D01*
X21368146Y-13869142D01*
X21368188Y-13869120D01*
X21368301Y-13869332D01*
X21377339Y-13882858D01*
X21378071Y-13886537D01*
X21375987Y-13889655D01*
X21374032Y-13890420D01*
X21364841Y-13891876D01*
X21364840Y-13891876D01*
X21345560Y-13898141D01*
X21327497Y-13907344D01*
X21311096Y-13919261D01*
X21296761Y-13933595D01*
X21284844Y-13949997D01*
X21275641Y-13968060D01*
X21269376Y-13987340D01*
X21269376Y-13987341D01*
X21266205Y-14007364D01*
X21225250Y-14007364D01*
X21225250Y-13879764D01*
X21226685Y-13876299D01*
X21227700Y-13875520D01*
X21239502Y-13868706D01*
X21249206Y-13859002D01*
X21256068Y-13847118D01*
X21259620Y-13833862D01*
X21259620Y-13833862D01*
X21259620Y-13820138D01*
X21259620Y-13820138D01*
X21257727Y-13813075D01*
X21256068Y-13806882D01*
X21249206Y-13794998D01*
X21239502Y-13785294D01*
X21239502Y-13785293D01*
X21239502Y-13785293D01*
X21227618Y-13778432D01*
X21227617Y-13778432D01*
X21214362Y-13774880D01*
X21214362Y-13774880D01*
X21200638Y-13774880D01*
X21200638Y-13774880D01*
X21187383Y-13778432D01*
X21187382Y-13778432D01*
X21175498Y-13785293D01*
X21175497Y-13785294D01*
X21165794Y-13794997D01*
X21165793Y-13794998D01*
X21158932Y-13806882D01*
X21158932Y-13806882D01*
X21155380Y-13820138D01*
X21155380Y-13833862D01*
X21158932Y-13847117D01*
X21158932Y-13847118D01*
X21165793Y-13859002D01*
X21165794Y-13859002D01*
X21165794Y-13859002D01*
X21175498Y-13868706D01*
X21185260Y-13874342D01*
X21187300Y-13875520D01*
X21189583Y-13878496D01*
X21189750Y-13879764D01*
X21189750Y-14000618D01*
X21188315Y-14004083D01*
X21123615Y-14068783D01*
X21120150Y-14070218D01*
X21116685Y-14068783D01*
X21115250Y-14065318D01*
X21115250Y-13970469D01*
X21115250Y-13970469D01*
X21114278Y-13968122D01*
X21113339Y-13965856D01*
X21112548Y-13963945D01*
X21000361Y-13851759D01*
X20998926Y-13848294D01*
X20999093Y-13847026D01*
X21002620Y-13833862D01*
X21002620Y-13820138D01*
X21002620Y-13820138D01*
X21002620Y-13820138D01*
X21025380Y-13820138D01*
X21025380Y-13833862D01*
X21028932Y-13847117D01*
X21028932Y-13847118D01*
X21035793Y-13859002D01*
X21035794Y-13859002D01*
X21035794Y-13859002D01*
X21045498Y-13868706D01*
X21045498Y-13868706D01*
X21045498Y-13868707D01*
X21057300Y-13875520D01*
X21057382Y-13875568D01*
X21067837Y-13878369D01*
X21070638Y-13879120D01*
X21070638Y-13879120D01*
X21070638Y-13879120D01*
X21084362Y-13879120D01*
X21084362Y-13879120D01*
X21097618Y-13875568D01*
X21109502Y-13868706D01*
X21119206Y-13859002D01*
X21126068Y-13847118D01*
X21129620Y-13833862D01*
X21129620Y-13833862D01*
X21129620Y-13820138D01*
X21129620Y-13820138D01*
X21127727Y-13813075D01*
X21126068Y-13806882D01*
X21119206Y-13794998D01*
X21109502Y-13785294D01*
X21109502Y-13785293D01*
X21109502Y-13785293D01*
X21097618Y-13778432D01*
X21097617Y-13778432D01*
X21084362Y-13774880D01*
X21084362Y-13774880D01*
X21070638Y-13774880D01*
X21070638Y-13774880D01*
X21057383Y-13778432D01*
X21057382Y-13778432D01*
X21045498Y-13785293D01*
X21045497Y-13785294D01*
X21035794Y-13794997D01*
X21035793Y-13794998D01*
X21028932Y-13806882D01*
X21028932Y-13806882D01*
X21025380Y-13820138D01*
X21002620Y-13820138D01*
X21000727Y-13813075D01*
X20999068Y-13806882D01*
X20992206Y-13794998D01*
X20983324Y-13786115D01*
X20981888Y-13782650D01*
X20983324Y-13779185D01*
X20986788Y-13777750D01*
X21021031Y-13777750D01*
X21021031Y-13777750D01*
X21025644Y-13775839D01*
X21027555Y-13775048D01*
X21052741Y-13749861D01*
X21056206Y-13748426D01*
X21057474Y-13748593D01*
X21070638Y-13752120D01*
X21070638Y-13752120D01*
X21070638Y-13752120D01*
X21084362Y-13752120D01*
X21084362Y-13752120D01*
X21097618Y-13748568D01*
X21109502Y-13741706D01*
X21119206Y-13732002D01*
X21126068Y-13720118D01*
X21129620Y-13706862D01*
X21129620Y-13706862D01*
X21129620Y-13693138D01*
X21129620Y-13693138D01*
X21155380Y-13693138D01*
X21155380Y-13706862D01*
X21158932Y-13720117D01*
X21158932Y-13720118D01*
X21165793Y-13732002D01*
X21165794Y-13732002D01*
X21165794Y-13732002D01*
X21175498Y-13741706D01*
X21175498Y-13741706D01*
X21175498Y-13741707D01*
X21187136Y-13748426D01*
X21187382Y-13748568D01*
X21197837Y-13751369D01*
X21200638Y-13752120D01*
X21200638Y-13752120D01*
X21200638Y-13752120D01*
X21214362Y-13752120D01*
X21214362Y-13752120D01*
X21227618Y-13748568D01*
X21239502Y-13741706D01*
X21249206Y-13732002D01*
X21256068Y-13720118D01*
X21259620Y-13706862D01*
X21259620Y-13706862D01*
X21259620Y-13693138D01*
X21259620Y-13693138D01*
X21275380Y-13693138D01*
X21275380Y-13706862D01*
X21278932Y-13720117D01*
X21278932Y-13720118D01*
X21285793Y-13732002D01*
X21285794Y-13732002D01*
X21285794Y-13732002D01*
X21295498Y-13741706D01*
X21295498Y-13741706D01*
X21295498Y-13741707D01*
X21307136Y-13748426D01*
X21307382Y-13748568D01*
X21317837Y-13751369D01*
X21320638Y-13752120D01*
X21320638Y-13752120D01*
X21320638Y-13752120D01*
X21334362Y-13752120D01*
X21334362Y-13752120D01*
X21347618Y-13748568D01*
X21359502Y-13741706D01*
X21369206Y-13732002D01*
X21376068Y-13720118D01*
X21379620Y-13706862D01*
X21379620Y-13706862D01*
X21379620Y-13693138D01*
X21379620Y-13693138D01*
X21395380Y-13693138D01*
X21395380Y-13706862D01*
X21398932Y-13720117D01*
X21398932Y-13720118D01*
X21405793Y-13732002D01*
X21405794Y-13732002D01*
X21405794Y-13732002D01*
X21405794Y-13732003D01*
X21411596Y-13737805D01*
X21413032Y-13741270D01*
X21411596Y-13744735D01*
X21410007Y-13745797D01*
X21405167Y-13747801D01*
X21404262Y-13748406D01*
X21404262Y-13748406D01*
X21447500Y-13791645D01*
X21447500Y-13791645D01*
X21490738Y-13748406D01*
X21490738Y-13748406D01*
X21489833Y-13747801D01*
X21484993Y-13745797D01*
X21482341Y-13743145D01*
X21482341Y-13739395D01*
X21483403Y-13737805D01*
X21489206Y-13732002D01*
X21496068Y-13720118D01*
X21499620Y-13706862D01*
X21499620Y-13706862D01*
X21499620Y-13693138D01*
X21499620Y-13693138D01*
X21496068Y-13679882D01*
X21496068Y-13679882D01*
X21489207Y-13667998D01*
X21489207Y-13667998D01*
X21489206Y-13667998D01*
X21479502Y-13658294D01*
X21472336Y-13654156D01*
X21525920Y-13654156D01*
X21525920Y-13669844D01*
X21529980Y-13684997D01*
X21529980Y-13684997D01*
X21537824Y-13698582D01*
X21537824Y-13698583D01*
X21537824Y-13698583D01*
X21548917Y-13709676D01*
X21548917Y-13709676D01*
X21548918Y-13709676D01*
X21562503Y-13717520D01*
X21562503Y-13717520D01*
X21562503Y-13717520D01*
X21566291Y-13718535D01*
X21577656Y-13721580D01*
X21577656Y-13721580D01*
X21593344Y-13721580D01*
X21600920Y-13719550D01*
X21608497Y-13717520D01*
X21611434Y-13715824D01*
X21622082Y-13709676D01*
X21622082Y-13709676D01*
X21622083Y-13709676D01*
X21633176Y-13698583D01*
X21641020Y-13684997D01*
X21643949Y-13674065D01*
X21645080Y-13669844D01*
X21645080Y-13654156D01*
X21641020Y-13639003D01*
X21641020Y-13639003D01*
X21633551Y-13626067D01*
X21633551Y-13626067D01*
X21633176Y-13625417D01*
X21633176Y-13625417D01*
X21631616Y-13623857D01*
X21804750Y-13623857D01*
X21804750Y-13641143D01*
X21808122Y-13658095D01*
X21808122Y-13658096D01*
X21814737Y-13674065D01*
X21814737Y-13674065D01*
X21824340Y-13688437D01*
X21836563Y-13700660D01*
X21850935Y-13710263D01*
X21866904Y-13716878D01*
X21866905Y-13716878D01*
X21866905Y-13716878D01*
X21883857Y-13720250D01*
X21883857Y-13720250D01*
X21901143Y-13720250D01*
X21918096Y-13716878D01*
X21934065Y-13710263D01*
X21948437Y-13700660D01*
X21960660Y-13688437D01*
X21970263Y-13674065D01*
X21976878Y-13658096D01*
X21980250Y-13641143D01*
X21980250Y-13623857D01*
X21979414Y-13619655D01*
X21976878Y-13606905D01*
X21976878Y-13606904D01*
X21976702Y-13606480D01*
X21970263Y-13590935D01*
X21960660Y-13576563D01*
X21948437Y-13564340D01*
X21944758Y-13561882D01*
X21941721Y-13559852D01*
X21934065Y-13554737D01*
X21934065Y-13554737D01*
X21934065Y-13554737D01*
X21918096Y-13548122D01*
X21918095Y-13548122D01*
X21901143Y-13544750D01*
X21901143Y-13544750D01*
X21883857Y-13544750D01*
X21883857Y-13544750D01*
X21866905Y-13548122D01*
X21866904Y-13548122D01*
X21850935Y-13554737D01*
X21836563Y-13564340D01*
X21824340Y-13576563D01*
X21814737Y-13590935D01*
X21808122Y-13606904D01*
X21808122Y-13606905D01*
X21804750Y-13623857D01*
X21631616Y-13623857D01*
X21622083Y-13614324D01*
X21622083Y-13614324D01*
X21622083Y-13614324D01*
X21622082Y-13614324D01*
X21608497Y-13606480D01*
X21608497Y-13606480D01*
X21593344Y-13602420D01*
X21593344Y-13602420D01*
X21577656Y-13602420D01*
X21577656Y-13602420D01*
X21562503Y-13606480D01*
X21562503Y-13606480D01*
X21548918Y-13614324D01*
X21548917Y-13614324D01*
X21537824Y-13625417D01*
X21537824Y-13625418D01*
X21529980Y-13639003D01*
X21529980Y-13639003D01*
X21525920Y-13654156D01*
X21472336Y-13654156D01*
X21467618Y-13651432D01*
X21467617Y-13651432D01*
X21454362Y-13647880D01*
X21454362Y-13647880D01*
X21440638Y-13647880D01*
X21440638Y-13647880D01*
X21427383Y-13651432D01*
X21427382Y-13651432D01*
X21415498Y-13658293D01*
X21415497Y-13658294D01*
X21405794Y-13667997D01*
X21405793Y-13667998D01*
X21398932Y-13679882D01*
X21398932Y-13679882D01*
X21395380Y-13693138D01*
X21379620Y-13693138D01*
X21376068Y-13679882D01*
X21376068Y-13679882D01*
X21369207Y-13667998D01*
X21369207Y-13667998D01*
X21369206Y-13667998D01*
X21359502Y-13658294D01*
X21359502Y-13658293D01*
X21359502Y-13658293D01*
X21347618Y-13651432D01*
X21347617Y-13651432D01*
X21334362Y-13647880D01*
X21334362Y-13647880D01*
X21320638Y-13647880D01*
X21320638Y-13647880D01*
X21307383Y-13651432D01*
X21307382Y-13651432D01*
X21295498Y-13658293D01*
X21295497Y-13658294D01*
X21285794Y-13667997D01*
X21285793Y-13667998D01*
X21278932Y-13679882D01*
X21278932Y-13679882D01*
X21275380Y-13693138D01*
X21259620Y-13693138D01*
X21256068Y-13679882D01*
X21256068Y-13679882D01*
X21249207Y-13667998D01*
X21249207Y-13667998D01*
X21249206Y-13667998D01*
X21239502Y-13658294D01*
X21239502Y-13658293D01*
X21239502Y-13658293D01*
X21227618Y-13651432D01*
X21227617Y-13651432D01*
X21214362Y-13647880D01*
X21214362Y-13647880D01*
X21200638Y-13647880D01*
X21200638Y-13647880D01*
X21187383Y-13651432D01*
X21187382Y-13651432D01*
X21175498Y-13658293D01*
X21175497Y-13658294D01*
X21165794Y-13667997D01*
X21165793Y-13667998D01*
X21158932Y-13679882D01*
X21158932Y-13679882D01*
X21155380Y-13693138D01*
X21129620Y-13693138D01*
X21126068Y-13679882D01*
X21126068Y-13679882D01*
X21119207Y-13667998D01*
X21119207Y-13667998D01*
X21119206Y-13667998D01*
X21109502Y-13658294D01*
X21109502Y-13658293D01*
X21109502Y-13658293D01*
X21097618Y-13651432D01*
X21097617Y-13651432D01*
X21084362Y-13647880D01*
X21084362Y-13647880D01*
X21070638Y-13647880D01*
X21070638Y-13647880D01*
X21057383Y-13651432D01*
X21057382Y-13651432D01*
X21045498Y-13658293D01*
X21045497Y-13658294D01*
X21035794Y-13667997D01*
X21035793Y-13667998D01*
X21028932Y-13679882D01*
X21028932Y-13679882D01*
X21025380Y-13693138D01*
X21025380Y-13706862D01*
X21028907Y-13720025D01*
X21028418Y-13723744D01*
X21027639Y-13724758D01*
X21011583Y-13740815D01*
X21008118Y-13742250D01*
X20993788Y-13742250D01*
X20990324Y-13740815D01*
X20988888Y-13737350D01*
X20990324Y-13733885D01*
X20992206Y-13732002D01*
X20999068Y-13720118D01*
X21002620Y-13706862D01*
X21002620Y-13706862D01*
X21002620Y-13693138D01*
X21002620Y-13693138D01*
X20999068Y-13679882D01*
X20999068Y-13679882D01*
X20992207Y-13667998D01*
X20992207Y-13667998D01*
X20992206Y-13667998D01*
X20982502Y-13658294D01*
X20982502Y-13658293D01*
X20982502Y-13658293D01*
X20970618Y-13651432D01*
X20970617Y-13651432D01*
X20957362Y-13647880D01*
X20957362Y-13647880D01*
X20943638Y-13647880D01*
X20943638Y-13647880D01*
X20930383Y-13651432D01*
X20930382Y-13651432D01*
X20918498Y-13658293D01*
X20918497Y-13658294D01*
X20908794Y-13667997D01*
X20908793Y-13667998D01*
X20901932Y-13679882D01*
X20901932Y-13679882D01*
X20898380Y-13693138D01*
X20898380Y-13706862D01*
X20901932Y-13720117D01*
X20901932Y-13720118D01*
X20908793Y-13732002D01*
X20908794Y-13732002D01*
X20908794Y-13732002D01*
X20908794Y-13732003D01*
X20917380Y-13740588D01*
X20918815Y-13744053D01*
X20917380Y-13747518D01*
X20891445Y-13773453D01*
X20887980Y-13774888D01*
X20884515Y-13773453D01*
X20883080Y-13769988D01*
X20883080Y-13755656D01*
X20879342Y-13741706D01*
X20879020Y-13740503D01*
X20879020Y-13740503D01*
X20879020Y-13740503D01*
X20871176Y-13726918D01*
X20871176Y-13726917D01*
X20871176Y-13726917D01*
X20860083Y-13715824D01*
X20860083Y-13715824D01*
X20860082Y-13715824D01*
X20846497Y-13707980D01*
X20846497Y-13707980D01*
X20831344Y-13703920D01*
X20831344Y-13703920D01*
X20815656Y-13703920D01*
X20815656Y-13703920D01*
X20800503Y-13707980D01*
X20800503Y-13707980D01*
X20786918Y-13715824D01*
X20786917Y-13715824D01*
X20775824Y-13726917D01*
X20775824Y-13726918D01*
X20767980Y-13740503D01*
X20767980Y-13740503D01*
X20763920Y-13755656D01*
X20763920Y-13771344D01*
X20767980Y-13786497D01*
X20767980Y-13786497D01*
X20775824Y-13800082D01*
X20775824Y-13800083D01*
X20775824Y-13800083D01*
X20786917Y-13811176D01*
X20786917Y-13811176D01*
X20786918Y-13811176D01*
X20800503Y-13819020D01*
X20800503Y-13819020D01*
X20800503Y-13819020D01*
X20804291Y-13820035D01*
X20815656Y-13823080D01*
X20815656Y-13823080D01*
X20831344Y-13823080D01*
X20838944Y-13821043D01*
X20846497Y-13819020D01*
X20846497Y-13819020D01*
X20859900Y-13811282D01*
X20863618Y-13810792D01*
X20866594Y-13813075D01*
X20867250Y-13815525D01*
X20867250Y-13861031D01*
X20869161Y-13865644D01*
X20869952Y-13867555D01*
X20869952Y-13867555D01*
X20869952Y-13867555D01*
X20892053Y-13889655D01*
X20912445Y-13910048D01*
X20914356Y-13910839D01*
X20918969Y-13912750D01*
X20975618Y-13912750D01*
X20979083Y-13914185D01*
X21055515Y-13990617D01*
X21056950Y-13994082D01*
X21056950Y-14060918D01*
X21055515Y-14064383D01*
X20789083Y-14330815D01*
X20785618Y-14332250D01*
X20620438Y-14332250D01*
X20583969Y-14332250D01*
X20583969Y-14332250D01*
X20583969Y-14332250D01*
X20579356Y-14334161D01*
X20579356Y-14334161D01*
X20578151Y-14334660D01*
X20577445Y-14334952D01*
X20477452Y-14434945D01*
X20477452Y-14434945D01*
X20474750Y-14441469D01*
X20474750Y-14472534D01*
X20473315Y-14475999D01*
X20469850Y-14477434D01*
X20466385Y-14475999D01*
X20465679Y-14475292D01*
X20457071Y-14470323D01*
X20457071Y-14470322D01*
X20447470Y-14467750D01*
X20447470Y-14467750D01*
X20437530Y-14467750D01*
X20437530Y-14467750D01*
X20434207Y-14468640D01*
X20430489Y-14468151D01*
X20429474Y-14467372D01*
X20391685Y-14429583D01*
X20390250Y-14426118D01*
X20390250Y-14007364D01*
X20694705Y-14007364D01*
X20694705Y-14027636D01*
X20697876Y-14047659D01*
X20697876Y-14047660D01*
X20704141Y-14066940D01*
X20713344Y-14085003D01*
X20713345Y-14085003D01*
X20719928Y-14094065D01*
X20725261Y-14101404D01*
X20725261Y-14101405D01*
X20739595Y-14115739D01*
X20739596Y-14115739D01*
X20739596Y-14115739D01*
X20755997Y-14127655D01*
X20774060Y-14136859D01*
X20793340Y-14143124D01*
X20813364Y-14146295D01*
X20813364Y-14146295D01*
X20833636Y-14146295D01*
X20833636Y-14146295D01*
X20853660Y-14143124D01*
X20872940Y-14136859D01*
X20891003Y-14127655D01*
X20907404Y-14115739D01*
X20907405Y-14115739D01*
X20907405Y-14115739D01*
X20921739Y-14101405D01*
X20921739Y-14101405D01*
X20921739Y-14101404D01*
X20933655Y-14085003D01*
X20942859Y-14066940D01*
X20949124Y-14047660D01*
X20952295Y-14027636D01*
X20952295Y-14007364D01*
X20949124Y-13987340D01*
X20942859Y-13968060D01*
X20933655Y-13949997D01*
X20921739Y-13933596D01*
X20921739Y-13933595D01*
X20921739Y-13933595D01*
X20907405Y-13919261D01*
X20907404Y-13919261D01*
X20898443Y-13912750D01*
X20891003Y-13907345D01*
X20891003Y-13907344D01*
X20891003Y-13907344D01*
X20872940Y-13898141D01*
X20853660Y-13891876D01*
X20853659Y-13891876D01*
X20838278Y-13889440D01*
X20833636Y-13888705D01*
X20813364Y-13888705D01*
X20809596Y-13889302D01*
X20793341Y-13891876D01*
X20793340Y-13891876D01*
X20774060Y-13898141D01*
X20755997Y-13907344D01*
X20739596Y-13919261D01*
X20725261Y-13933595D01*
X20713344Y-13949997D01*
X20704141Y-13968060D01*
X20697876Y-13987340D01*
X20697876Y-13987341D01*
X20694705Y-14007364D01*
X20390250Y-14007364D01*
X20390250Y-13499364D01*
X20694705Y-13499364D01*
X20694705Y-13519636D01*
X20697876Y-13539659D01*
X20697876Y-13539660D01*
X20704141Y-13558940D01*
X20713344Y-13577003D01*
X20713345Y-13577003D01*
X20723467Y-13590935D01*
X20725261Y-13593404D01*
X20725261Y-13593405D01*
X20739595Y-13607739D01*
X20739596Y-13607739D01*
X20739596Y-13607739D01*
X20755997Y-13619655D01*
X20755997Y-13619655D01*
X20767305Y-13625417D01*
X20774060Y-13628859D01*
X20793340Y-13635124D01*
X20813364Y-13638295D01*
X20813364Y-13638295D01*
X20833636Y-13638295D01*
X20833636Y-13638295D01*
X20853660Y-13635124D01*
X20872940Y-13628859D01*
X20891003Y-13619655D01*
X20907404Y-13607739D01*
X20907405Y-13607739D01*
X20907405Y-13607739D01*
X20921739Y-13593405D01*
X20921739Y-13593405D01*
X20921739Y-13593404D01*
X20933655Y-13577003D01*
X20942859Y-13558940D01*
X20949124Y-13539660D01*
X20952295Y-13519636D01*
X20952295Y-13499364D01*
X21266205Y-13499364D01*
X21266205Y-13519636D01*
X21269376Y-13539659D01*
X21269376Y-13539660D01*
X21275641Y-13558940D01*
X21284844Y-13577003D01*
X21284845Y-13577003D01*
X21294967Y-13590935D01*
X21296761Y-13593404D01*
X21296761Y-13593405D01*
X21311095Y-13607739D01*
X21311096Y-13607739D01*
X21311096Y-13607739D01*
X21327497Y-13619655D01*
X21327497Y-13619655D01*
X21338805Y-13625417D01*
X21345560Y-13628859D01*
X21364840Y-13635124D01*
X21384864Y-13638295D01*
X21384864Y-13638295D01*
X21405136Y-13638295D01*
X21405136Y-13638295D01*
X21425160Y-13635124D01*
X21444440Y-13628859D01*
X21462503Y-13619655D01*
X21478904Y-13607739D01*
X21478905Y-13607739D01*
X21478905Y-13607739D01*
X21493239Y-13593405D01*
X21493239Y-13593405D01*
X21493239Y-13593404D01*
X21505155Y-13577003D01*
X21514359Y-13558940D01*
X21520624Y-13539660D01*
X21523795Y-13519636D01*
X21523795Y-13499364D01*
X21520624Y-13479340D01*
X21514359Y-13460060D01*
X21505155Y-13441997D01*
X21493239Y-13425596D01*
X21493239Y-13425595D01*
X21493239Y-13425595D01*
X21478905Y-13411261D01*
X21478904Y-13411261D01*
X21462503Y-13399344D01*
X21444440Y-13390141D01*
X21425160Y-13383876D01*
X21425159Y-13383876D01*
X21406587Y-13380935D01*
X21405136Y-13380705D01*
X21384864Y-13380705D01*
X21383413Y-13380935D01*
X21364841Y-13383876D01*
X21364840Y-13383876D01*
X21345560Y-13390141D01*
X21327497Y-13399344D01*
X21311096Y-13411261D01*
X21296761Y-13425595D01*
X21284844Y-13441997D01*
X21275641Y-13460060D01*
X21269376Y-13479340D01*
X21269376Y-13479341D01*
X21266205Y-13499364D01*
X20952295Y-13499364D01*
X20949124Y-13479340D01*
X20942859Y-13460060D01*
X20933655Y-13441997D01*
X20921739Y-13425596D01*
X20921739Y-13425595D01*
X20921739Y-13425595D01*
X20907405Y-13411261D01*
X20907404Y-13411261D01*
X20891003Y-13399344D01*
X20872940Y-13390141D01*
X20853660Y-13383876D01*
X20853659Y-13383876D01*
X20835087Y-13380935D01*
X20833636Y-13380705D01*
X20813364Y-13380705D01*
X20811913Y-13380935D01*
X20793341Y-13383876D01*
X20793340Y-13383876D01*
X20774060Y-13390141D01*
X20755997Y-13399344D01*
X20739596Y-13411261D01*
X20725261Y-13425595D01*
X20713344Y-13441997D01*
X20704141Y-13460060D01*
X20697876Y-13479340D01*
X20697876Y-13479341D01*
X20694705Y-13499364D01*
X20390250Y-13499364D01*
X20390250Y-12783857D01*
X21804750Y-12783857D01*
X21804750Y-12801143D01*
X21808122Y-12818095D01*
X21808122Y-12818096D01*
X21813897Y-12832037D01*
X21814737Y-12834065D01*
X21816569Y-12836807D01*
X21824135Y-12848130D01*
X21824340Y-12848437D01*
X21836563Y-12860660D01*
X21850935Y-12870263D01*
X21866904Y-12876878D01*
X21866905Y-12876878D01*
X21866905Y-12876878D01*
X21883857Y-12880250D01*
X21883857Y-12880250D01*
X21901143Y-12880250D01*
X21918096Y-12876878D01*
X21934065Y-12870263D01*
X21948437Y-12860660D01*
X21960660Y-12848437D01*
X21970263Y-12834065D01*
X21976878Y-12818096D01*
X21980250Y-12801143D01*
X21980250Y-12783857D01*
X21976878Y-12766904D01*
X21970263Y-12750935D01*
X21960660Y-12736563D01*
X21948437Y-12724340D01*
X21934065Y-12714737D01*
X21934065Y-12714737D01*
X21934065Y-12714737D01*
X21918096Y-12708122D01*
X21918095Y-12708122D01*
X21901143Y-12704750D01*
X21901143Y-12704750D01*
X21883857Y-12704750D01*
X21883857Y-12704750D01*
X21866905Y-12708122D01*
X21866904Y-12708122D01*
X21850935Y-12714737D01*
X21836563Y-12724340D01*
X21824340Y-12736563D01*
X21814737Y-12750935D01*
X21808122Y-12766904D01*
X21808122Y-12766905D01*
X21804750Y-12783857D01*
X20390250Y-12783857D01*
X20390250Y-11656469D01*
X20390250Y-11656469D01*
X20387548Y-11649945D01*
X20387548Y-11649945D01*
X20319185Y-11581583D01*
X20317750Y-11578118D01*
X20317750Y-11570850D01*
X20319185Y-11567385D01*
X20322650Y-11565950D01*
X20323837Y-11565950D01*
X20323837Y-11565950D01*
X20328607Y-11565322D01*
X20339074Y-11560441D01*
X20347241Y-11552274D01*
X20352122Y-11541807D01*
X20352750Y-11537037D01*
X20352750Y-11429363D01*
X20352122Y-11424593D01*
X20347241Y-11414126D01*
X20347241Y-11414125D01*
X20347241Y-11414125D01*
X20339075Y-11405959D01*
X20339074Y-11405959D01*
X20328607Y-11401078D01*
X20328607Y-11401078D01*
X20325328Y-11400646D01*
X20323838Y-11400450D01*
X20323837Y-11400450D01*
X20276163Y-11400450D01*
X20276162Y-11400450D01*
X20271393Y-11401078D01*
X20260926Y-11405959D01*
X20260925Y-11405959D01*
X20252759Y-11414125D01*
X20252759Y-11414125D01*
X20247878Y-11424593D01*
X20247250Y-11429363D01*
X20247250Y-11537037D01*
X20247250Y-11537037D01*
X20247878Y-11541807D01*
X20252759Y-11552274D01*
X20252759Y-11552275D01*
X20260925Y-11560441D01*
X20260926Y-11560441D01*
X20260926Y-11560441D01*
X20271393Y-11565322D01*
X20276163Y-11565950D01*
X20277350Y-11565950D01*
X20280815Y-11567385D01*
X20282250Y-11570849D01*
X20282250Y-11591031D01*
X20284161Y-11595644D01*
X20284952Y-11597555D01*
X20284952Y-11597555D01*
X20284953Y-11597555D01*
X20319483Y-11632085D01*
X20320918Y-11635550D01*
X20319483Y-11639015D01*
X20316018Y-11640450D01*
X20276163Y-11640450D01*
X20276162Y-11640450D01*
X20271393Y-11641078D01*
X20260926Y-11645959D01*
X20260925Y-11645959D01*
X20252759Y-11654125D01*
X20252759Y-11654125D01*
X20247878Y-11664593D01*
X20247250Y-11669363D01*
X20247250Y-11777037D01*
X20247250Y-11777037D01*
X20247878Y-11781807D01*
X20252759Y-11792274D01*
X20252759Y-11792275D01*
X20260925Y-11800441D01*
X20260926Y-11800441D01*
X20260926Y-11800441D01*
X20271393Y-11805322D01*
X20276163Y-11805950D01*
X20277350Y-11805950D01*
X20280815Y-11807385D01*
X20282250Y-11810849D01*
X20282250Y-12690550D01*
X20280815Y-12694015D01*
X20277350Y-12695450D01*
X20276163Y-12695450D01*
X20276162Y-12695450D01*
X20271393Y-12696078D01*
X20260926Y-12700959D01*
X20260925Y-12700959D01*
X20252759Y-12709125D01*
X20252759Y-12709125D01*
X20247878Y-12719593D01*
X20247323Y-12723808D01*
X20247253Y-12724340D01*
X20247250Y-12724363D01*
X20247250Y-12832037D01*
X20247250Y-12832037D01*
X20247878Y-12836807D01*
X20252759Y-12847274D01*
X20252759Y-12847275D01*
X20260925Y-12855441D01*
X20260926Y-12855441D01*
X20260926Y-12855441D01*
X20271393Y-12860322D01*
X20276163Y-12860950D01*
X20323837Y-12860950D01*
X20328607Y-12860322D01*
X20339074Y-12855441D01*
X20339075Y-12855441D01*
X20346385Y-12848130D01*
X20349850Y-12846695D01*
X20353315Y-12848130D01*
X20354750Y-12851595D01*
X20354750Y-12944805D01*
X20353315Y-12948270D01*
X20349850Y-12949705D01*
X20346385Y-12948270D01*
X20339075Y-12940959D01*
X20339074Y-12940959D01*
X20328607Y-12936078D01*
X20328607Y-12936078D01*
X20325328Y-12935646D01*
X20323838Y-12935450D01*
X20323837Y-12935450D01*
X20276163Y-12935450D01*
X20276162Y-12935450D01*
X20271393Y-12936078D01*
X20260926Y-12940959D01*
X20260925Y-12940959D01*
X20252759Y-12949125D01*
X20252759Y-12949125D01*
X20247878Y-12959593D01*
X20247250Y-12964363D01*
X20247250Y-13072037D01*
X20247250Y-13072037D01*
X20247878Y-13076807D01*
X20252759Y-13087274D01*
X20252759Y-13087275D01*
X20260925Y-13095441D01*
X20260926Y-13095441D01*
X20260926Y-13095441D01*
X20271393Y-13100322D01*
X20276163Y-13100950D01*
X20323837Y-13100950D01*
X20328607Y-13100322D01*
X20339074Y-13095441D01*
X20342262Y-13092253D01*
X20346385Y-13088130D01*
X20349850Y-13086695D01*
X20353315Y-13088130D01*
X20354750Y-13091595D01*
X20354750Y-14009805D01*
X20353315Y-14013270D01*
X20349850Y-14014705D01*
X20346385Y-14013270D01*
X20339075Y-14005959D01*
X20339074Y-14005959D01*
X20328607Y-14001078D01*
X20328607Y-14001078D01*
X20325114Y-14000618D01*
X20323838Y-14000450D01*
X20323837Y-14000450D01*
X20276163Y-14000450D01*
X20276162Y-14000450D01*
X20271393Y-14001078D01*
X20260926Y-14005959D01*
X20260925Y-14005959D01*
X20252759Y-14014125D01*
X20252759Y-14014125D01*
X20247878Y-14024593D01*
X20247250Y-14029363D01*
X20247250Y-14137037D01*
X20247250Y-14137037D01*
X20247878Y-14141807D01*
X20252759Y-14152274D01*
X20252759Y-14152275D01*
X20260925Y-14160441D01*
X20260926Y-14160441D01*
X20260926Y-14160441D01*
X20271393Y-14165322D01*
X20276163Y-14165950D01*
X20323837Y-14165950D01*
X20328607Y-14165322D01*
X20339074Y-14160441D01*
X20339075Y-14160441D01*
X20346385Y-14153130D01*
X20349850Y-14151695D01*
X20353315Y-14153130D01*
X20354750Y-14156595D01*
X20354750Y-14249805D01*
X20353315Y-14253270D01*
X20349850Y-14254705D01*
X20346385Y-14253270D01*
X20339075Y-14245959D01*
X20339074Y-14245959D01*
X20328607Y-14241078D01*
X20328607Y-14241078D01*
X20325328Y-14240646D01*
X20323838Y-14240450D01*
X20323837Y-14240450D01*
X20276163Y-14240450D01*
X20276162Y-14240450D01*
X20271393Y-14241078D01*
X20260926Y-14245959D01*
X20260925Y-14245959D01*
X20252759Y-14254125D01*
X20252759Y-14254125D01*
X20247878Y-14264593D01*
X20247250Y-14269363D01*
X20247250Y-14377037D01*
X20247250Y-14377037D01*
X20247878Y-14381807D01*
X20252759Y-14392274D01*
X20252759Y-14392275D01*
X20260925Y-14400441D01*
X20260926Y-14400441D01*
X20260926Y-14400441D01*
X20271393Y-14405322D01*
X20276163Y-14405950D01*
X20323837Y-14405950D01*
X20328607Y-14405322D01*
X20339074Y-14400441D01*
X20339075Y-14400441D01*
X20346385Y-14393130D01*
X20349850Y-14391695D01*
X20353315Y-14393130D01*
X20354750Y-14396595D01*
X20354750Y-14439031D01*
X20356661Y-14443644D01*
X20357452Y-14445555D01*
X20357452Y-14445555D01*
X20357452Y-14445555D01*
X20404372Y-14492474D01*
X20405807Y-14495939D01*
X20405640Y-14497207D01*
X20404750Y-14500530D01*
X20404750Y-14510470D01*
X20407323Y-14520071D01*
X20407323Y-14520071D01*
X20411727Y-14527700D01*
X20412293Y-14528679D01*
X20419321Y-14535707D01*
X20421640Y-14537046D01*
X20427929Y-14540677D01*
X20427929Y-14540677D01*
X20427929Y-14540677D01*
X20429150Y-14541004D01*
X20437530Y-14543250D01*
X20437530Y-14543250D01*
X20447470Y-14543250D01*
X20452270Y-14541964D01*
X20457071Y-14540677D01*
X20465679Y-14535707D01*
X20466385Y-14535001D01*
X20469850Y-14533566D01*
X20473315Y-14535001D01*
X20474750Y-14538466D01*
X20474750Y-14605118D01*
X20473315Y-14608583D01*
X20392776Y-14689122D01*
X20389311Y-14690557D01*
X20388043Y-14690390D01*
X20384720Y-14689500D01*
X20384720Y-14689500D01*
X20374780Y-14689500D01*
X20374780Y-14689500D01*
X20365179Y-14692072D01*
X20365179Y-14692073D01*
X20356571Y-14697042D01*
X20356571Y-14697043D01*
X20349543Y-14704071D01*
X20349543Y-14704071D01*
X20344573Y-14712679D01*
X20344573Y-14712679D01*
X20342000Y-14722280D01*
X20342000Y-14732220D01*
X20344573Y-14741821D01*
X20344573Y-14741821D01*
X20347749Y-14747323D01*
X20349543Y-14750429D01*
X20356571Y-14757457D01*
X20359373Y-14759075D01*
X20365179Y-14762427D01*
X20365179Y-14762427D01*
X20365179Y-14762427D01*
X20367579Y-14763070D01*
X20374780Y-14765000D01*
X20374780Y-14765000D01*
X20384720Y-14765000D01*
X20390187Y-14763535D01*
X20394321Y-14762427D01*
X20394402Y-14762380D01*
X20398570Y-14759974D01*
X20402929Y-14757457D01*
X20409958Y-14750429D01*
X20414927Y-14741821D01*
X20416919Y-14734390D01*
X20417500Y-14732220D01*
X20417500Y-14722280D01*
X20417238Y-14721301D01*
X20416610Y-14718957D01*
X20417099Y-14715239D01*
X20417877Y-14714225D01*
X20507548Y-14624554D01*
X20510250Y-14618031D01*
X20510250Y-14618030D01*
X20510360Y-14617765D01*
X20513012Y-14615113D01*
X20516762Y-14615113D01*
X20519131Y-14617190D01*
X20522993Y-14623879D01*
X20530021Y-14630907D01*
X20533172Y-14632726D01*
X20538629Y-14635877D01*
X20538629Y-14635877D01*
X20538629Y-14635877D01*
X20541029Y-14636520D01*
X20548230Y-14638450D01*
X20548230Y-14638450D01*
X20558170Y-14638450D01*
X20562970Y-14637164D01*
X20567771Y-14635877D01*
X20576379Y-14630907D01*
X20582235Y-14625051D01*
X20585700Y-14623616D01*
X20589165Y-14625051D01*
X20595021Y-14630907D01*
X20598172Y-14632726D01*
X20603629Y-14635877D01*
X20603629Y-14635877D01*
X20603629Y-14635877D01*
X20606029Y-14636520D01*
X20613230Y-14638450D01*
X20613230Y-14638450D01*
X20623170Y-14638450D01*
X20627970Y-14637164D01*
X20632771Y-14635877D01*
X20641379Y-14630907D01*
X20648408Y-14623879D01*
X20653274Y-14615450D01*
X20653377Y-14615271D01*
X20653377Y-14615271D01*
X20653377Y-14615271D01*
X20655174Y-14608566D01*
X20655950Y-14605670D01*
X20655950Y-14595730D01*
X20653377Y-14586129D01*
X20653377Y-14586129D01*
X20651999Y-14583742D01*
X20651510Y-14580024D01*
X20653793Y-14577049D01*
X20657199Y-14576486D01*
X20665813Y-14578200D01*
X20665813Y-14578200D01*
X20680587Y-14578200D01*
X20680587Y-14578200D01*
X20693894Y-14575553D01*
X20697572Y-14576285D01*
X20699656Y-14579403D01*
X20699750Y-14580359D01*
X20699750Y-14585170D01*
X20701126Y-14590306D01*
X20700637Y-14594025D01*
X20699858Y-14595039D01*
X20668152Y-14626745D01*
X20667970Y-14627186D01*
X20667970Y-14627186D01*
X20665450Y-14633269D01*
X20665450Y-14696134D01*
X20664015Y-14699599D01*
X20659543Y-14704071D01*
X20659543Y-14704071D01*
X20654573Y-14712679D01*
X20654573Y-14712679D01*
X20652000Y-14722280D01*
X20652000Y-14732220D01*
X20654573Y-14741821D01*
X20654573Y-14741821D01*
X20659543Y-14750429D01*
X20665399Y-14756285D01*
X20666834Y-14759750D01*
X20665399Y-14763215D01*
X20659543Y-14769071D01*
X20659543Y-14769071D01*
X20654573Y-14777679D01*
X20654573Y-14777679D01*
X20652000Y-14787280D01*
X20652000Y-14797220D01*
X20654573Y-14806821D01*
X20654573Y-14806821D01*
X20659441Y-14815252D01*
X20659543Y-14815429D01*
X20666571Y-14822457D01*
X20669722Y-14824276D01*
X20675179Y-14827427D01*
X20675179Y-14827427D01*
X20675179Y-14827427D01*
X20677579Y-14828070D01*
X20684780Y-14830000D01*
X20684780Y-14830000D01*
X20694720Y-14830000D01*
X20699520Y-14828714D01*
X20704321Y-14827427D01*
X20712929Y-14822457D01*
X20719958Y-14815429D01*
X20721677Y-14812450D01*
X20724653Y-14810167D01*
X20725921Y-14810000D01*
X20741281Y-14810000D01*
X20741281Y-14810000D01*
X20746133Y-14807990D01*
X20747805Y-14807298D01*
X20785402Y-14769701D01*
X20786042Y-14769435D01*
X20786471Y-14768891D01*
X20787712Y-14768744D01*
X20788866Y-14768266D01*
X20789507Y-14768531D01*
X20790195Y-14768449D01*
X20790968Y-14769136D01*
X20792331Y-14769701D01*
X20793141Y-14770770D01*
X20793282Y-14771022D01*
X20793383Y-14771267D01*
X20794952Y-14775055D01*
X20796294Y-14776396D01*
X20796625Y-14776986D01*
X20796772Y-14778227D01*
X20797250Y-14779382D01*
X20797250Y-14787470D01*
X20799823Y-14797071D01*
X20799823Y-14797071D01*
X20802306Y-14801371D01*
X20804516Y-14805200D01*
X20805006Y-14808918D01*
X20802723Y-14811893D01*
X20800273Y-14812550D01*
X20768669Y-14812550D01*
X20764848Y-14814133D01*
X20764848Y-14814133D01*
X20762145Y-14815252D01*
X20721583Y-14855815D01*
X20718118Y-14857250D01*
X20422400Y-14857250D01*
X20418935Y-14855815D01*
X20417600Y-14852590D01*
X20417542Y-14852598D01*
X20417514Y-14852383D01*
X20417500Y-14852350D01*
X20417500Y-14852280D01*
X20415571Y-14845079D01*
X20414927Y-14842679D01*
X20414927Y-14842679D01*
X20414927Y-14842679D01*
X20409957Y-14834071D01*
X20402929Y-14827042D01*
X20394321Y-14822073D01*
X20394321Y-14822072D01*
X20384720Y-14819500D01*
X20384720Y-14819500D01*
X20374780Y-14819500D01*
X20374780Y-14819500D01*
X20365179Y-14822072D01*
X20365179Y-14822073D01*
X20356571Y-14827042D01*
X20356571Y-14827043D01*
X20349543Y-14834071D01*
X20349543Y-14834071D01*
X20344573Y-14842679D01*
X20344573Y-14842679D01*
X20342000Y-14852280D01*
X20342000Y-14862220D01*
X20344573Y-14871821D01*
X20344573Y-14871821D01*
X20349543Y-14880429D01*
X20355399Y-14886285D01*
X20356834Y-14889750D01*
X20355399Y-14893215D01*
X20349543Y-14899071D01*
X20349543Y-14899071D01*
X20344573Y-14907679D01*
X20344573Y-14907679D01*
X20342000Y-14917280D01*
X20342000Y-14927220D01*
X20344573Y-14936821D01*
X20344573Y-14936821D01*
X20346886Y-14940827D01*
X20349543Y-14945429D01*
X20356571Y-14952457D01*
X20358311Y-14953462D01*
X20365179Y-14957427D01*
X20365179Y-14957427D01*
X20365179Y-14957427D01*
X20367579Y-14958070D01*
X20374780Y-14960000D01*
X20374780Y-14960000D01*
X20384720Y-14960000D01*
X20389520Y-14958714D01*
X20394321Y-14957427D01*
X20402929Y-14952457D01*
X20409958Y-14945429D01*
X20414927Y-14936821D01*
X20416984Y-14929147D01*
X20417500Y-14927220D01*
X20417500Y-14917280D01*
X20414927Y-14907679D01*
X20414927Y-14907679D01*
X20410552Y-14900100D01*
X20410062Y-14896382D01*
X20412345Y-14893406D01*
X20414795Y-14892750D01*
X20731031Y-14892750D01*
X20731031Y-14892750D01*
X20735711Y-14890811D01*
X20737081Y-14890244D01*
X20737082Y-14890244D01*
X20737340Y-14890136D01*
X20737555Y-14890048D01*
X20778117Y-14849485D01*
X20781582Y-14848050D01*
X20800799Y-14848050D01*
X20804264Y-14849485D01*
X20805699Y-14852950D01*
X20804264Y-14856415D01*
X20803249Y-14857193D01*
X20800580Y-14858735D01*
X20784488Y-14872237D01*
X20784488Y-14872238D01*
X20770985Y-14888330D01*
X20760483Y-14906520D01*
X20760482Y-14906521D01*
X20753298Y-14926260D01*
X20753298Y-14926260D01*
X20753298Y-14926260D01*
X20752198Y-14932500D01*
X20749650Y-14946947D01*
X20749650Y-15132500D01*
X20748215Y-15135965D01*
X20744750Y-15137400D01*
X20677806Y-15137400D01*
X20677593Y-15137395D01*
X20635387Y-15135553D01*
X20634961Y-15135515D01*
X20593180Y-15130015D01*
X20592759Y-15129941D01*
X20551618Y-15120820D01*
X20551206Y-15120709D01*
X20538942Y-15116843D01*
X20511016Y-15108038D01*
X20510614Y-15107891D01*
X20471682Y-15091765D01*
X20471294Y-15091584D01*
X20433914Y-15072125D01*
X20433544Y-15071912D01*
X20402354Y-15052041D01*
X20398003Y-15049270D01*
X20397653Y-15049025D01*
X20396617Y-15048230D01*
X20552450Y-15048230D01*
X20552450Y-15058170D01*
X20555023Y-15067771D01*
X20555023Y-15067771D01*
X20558115Y-15073127D01*
X20559993Y-15076379D01*
X20567021Y-15083407D01*
X20570172Y-15085226D01*
X20575629Y-15088377D01*
X20575629Y-15088377D01*
X20575629Y-15088377D01*
X20578029Y-15089020D01*
X20585230Y-15090950D01*
X20585230Y-15090950D01*
X20595170Y-15090950D01*
X20599970Y-15089664D01*
X20604771Y-15088377D01*
X20613379Y-15083407D01*
X20620408Y-15076379D01*
X20625377Y-15067771D01*
X20626748Y-15062657D01*
X20627950Y-15058170D01*
X20627950Y-15048230D01*
X20625377Y-15038629D01*
X20625377Y-15038629D01*
X20622227Y-15033171D01*
X20620408Y-15030021D01*
X20613379Y-15022992D01*
X20604771Y-15018023D01*
X20604771Y-15018022D01*
X20595170Y-15015450D01*
X20595170Y-15015450D01*
X20585230Y-15015450D01*
X20585230Y-15015450D01*
X20575629Y-15018022D01*
X20575629Y-15018023D01*
X20567021Y-15022992D01*
X20567021Y-15022993D01*
X20559993Y-15030021D01*
X20559993Y-15030021D01*
X20555023Y-15038629D01*
X20555023Y-15038629D01*
X20552450Y-15048230D01*
X20396617Y-15048230D01*
X20364222Y-15023372D01*
X20363895Y-15023097D01*
X20332825Y-14994627D01*
X20332523Y-14994325D01*
X20304053Y-14963255D01*
X20303778Y-14962928D01*
X20283745Y-14936821D01*
X20278125Y-14929496D01*
X20277880Y-14929147D01*
X20272041Y-14919982D01*
X20267799Y-14913323D01*
X20255238Y-14893606D01*
X20255024Y-14893236D01*
X20235565Y-14855856D01*
X20235385Y-14855468D01*
X20234867Y-14854218D01*
X20219258Y-14816535D01*
X20219113Y-14816137D01*
X20206441Y-14775945D01*
X20206330Y-14775532D01*
X20204979Y-14769435D01*
X20197209Y-14734390D01*
X20197135Y-14733969D01*
X20191634Y-14692188D01*
X20191597Y-14691763D01*
X20191569Y-14691122D01*
X20189755Y-14649564D01*
X20189750Y-14649351D01*
X20189750Y-14580513D01*
X20213492Y-14580513D01*
X20213492Y-14590453D01*
X20216064Y-14600054D01*
X20216064Y-14600054D01*
X20219307Y-14605670D01*
X20221034Y-14608662D01*
X20228063Y-14615691D01*
X20230659Y-14617190D01*
X20236671Y-14620661D01*
X20236671Y-14620661D01*
X20236671Y-14620661D01*
X20239071Y-14621304D01*
X20246272Y-14623233D01*
X20246272Y-14623233D01*
X20256212Y-14623233D01*
X20261012Y-14621947D01*
X20265813Y-14620661D01*
X20274421Y-14615691D01*
X20281449Y-14608662D01*
X20286419Y-14600054D01*
X20287771Y-14595011D01*
X20305409Y-14595011D01*
X20305409Y-14604951D01*
X20307982Y-14614552D01*
X20307982Y-14614552D01*
X20312855Y-14622992D01*
X20312952Y-14623160D01*
X20319980Y-14630189D01*
X20321225Y-14630907D01*
X20328588Y-14635158D01*
X20328588Y-14635158D01*
X20328588Y-14635159D01*
X20330989Y-14635802D01*
X20338189Y-14637731D01*
X20338189Y-14637731D01*
X20348129Y-14637731D01*
X20352930Y-14636445D01*
X20357730Y-14635159D01*
X20366338Y-14630189D01*
X20373367Y-14623160D01*
X20378337Y-14614552D01*
X20380321Y-14607148D01*
X20380909Y-14604951D01*
X20380909Y-14595011D01*
X20378337Y-14585410D01*
X20378337Y-14585410D01*
X20374174Y-14578200D01*
X20373367Y-14576802D01*
X20366338Y-14569774D01*
X20362833Y-14567750D01*
X20357730Y-14564804D01*
X20357730Y-14564804D01*
X20348130Y-14562231D01*
X20348129Y-14562231D01*
X20338189Y-14562231D01*
X20338189Y-14562231D01*
X20328589Y-14564804D01*
X20328588Y-14564804D01*
X20319980Y-14569774D01*
X20319980Y-14569774D01*
X20312952Y-14576802D01*
X20312952Y-14576802D01*
X20307982Y-14585410D01*
X20307982Y-14585410D01*
X20305409Y-14595011D01*
X20287771Y-14595011D01*
X20288196Y-14593422D01*
X20288196Y-14593422D01*
X20288992Y-14590453D01*
X20288992Y-14580513D01*
X20286419Y-14570913D01*
X20286419Y-14570912D01*
X20282892Y-14564804D01*
X20281449Y-14562304D01*
X20274421Y-14555276D01*
X20272990Y-14554450D01*
X20265813Y-14550306D01*
X20265813Y-14550306D01*
X20256212Y-14547733D01*
X20256212Y-14547733D01*
X20246272Y-14547733D01*
X20246272Y-14547733D01*
X20236671Y-14550306D01*
X20236671Y-14550306D01*
X20228063Y-14555276D01*
X20228063Y-14555276D01*
X20221034Y-14562304D01*
X20221034Y-14562304D01*
X20216064Y-14570912D01*
X20216064Y-14570913D01*
X20213492Y-14580513D01*
X20189750Y-14580513D01*
X20189750Y-11157056D01*
X20189755Y-11156842D01*
X20189924Y-11152962D01*
X20191598Y-11114636D01*
X20191635Y-11114211D01*
X20197135Y-11072431D01*
X20197210Y-11072010D01*
X20206331Y-11030868D01*
X20206441Y-11030456D01*
X20219114Y-10990263D01*
X20219258Y-10989866D01*
X20235386Y-10950930D01*
X20235566Y-10950545D01*
X20255025Y-10913164D01*
X20255238Y-10912794D01*
X20272042Y-10886418D01*
X20277881Y-10877252D01*
X20278124Y-10876905D01*
X20303779Y-10843472D01*
X20304052Y-10843146D01*
X20332524Y-10812074D01*
X20332824Y-10811774D01*
X20363896Y-10783302D01*
X20364222Y-10783028D01*
X20397655Y-10757374D01*
X20398002Y-10757131D01*
X20433544Y-10734488D01*
X20433914Y-10734275D01*
X20471296Y-10714815D01*
X20471680Y-10714636D01*
X20510615Y-10698509D01*
X20511015Y-10698363D01*
X20551208Y-10685690D01*
X20551616Y-10685581D01*
X20592761Y-10676459D01*
X20593178Y-10676386D01*
X20634962Y-10670885D01*
X20635386Y-10670848D01*
X20665557Y-10669530D01*
X20677595Y-10669005D01*
X20677809Y-10669000D01*
X20681688Y-10669000D01*
X24166212Y-10669000D01*
X24170094Y-10669000D01*
X24170308Y-10669005D01*
G37*
%TD.AperFunction*%
%TA.AperFunction,Conductor*%
G36*
X24213048Y-15028867D02*
G01*
X24218034Y-15030203D01*
X24219215Y-15030692D01*
X24223685Y-15033273D01*
X24224699Y-15034051D01*
X24228348Y-15037700D01*
X24229127Y-15038715D01*
X24231708Y-15043185D01*
X24232197Y-15044366D01*
X24233533Y-15049351D01*
X24233700Y-15050620D01*
X24233700Y-15055780D01*
X24233533Y-15057049D01*
X24232197Y-15062033D01*
X24231708Y-15063215D01*
X24229127Y-15067684D01*
X24228349Y-15068699D01*
X24224699Y-15072349D01*
X24223684Y-15073127D01*
X24219215Y-15075708D01*
X24218034Y-15076197D01*
X24214864Y-15077047D01*
X24213049Y-15077533D01*
X24211781Y-15077700D01*
X24206619Y-15077700D01*
X24205351Y-15077533D01*
X24201045Y-15076379D01*
X24200366Y-15076197D01*
X24199184Y-15075708D01*
X24194715Y-15073127D01*
X24193701Y-15072349D01*
X24190051Y-15068699D01*
X24189272Y-15067685D01*
X24186692Y-15063215D01*
X24186202Y-15062033D01*
X24184867Y-15057048D01*
X24184700Y-15055781D01*
X24184700Y-15050619D01*
X24184867Y-15049351D01*
X24186203Y-15044365D01*
X24186691Y-15043185D01*
X24189273Y-15038715D01*
X24190051Y-15037701D01*
X24193701Y-15034051D01*
X24194715Y-15033272D01*
X24199184Y-15030692D01*
X24200366Y-15030202D01*
X24205351Y-15028867D01*
X24206619Y-15028700D01*
X24211781Y-15028700D01*
X24213048Y-15028867D01*
G37*
%TD.AperFunction*%
%TA.AperFunction,Conductor*%
G36*
X22471348Y-14962667D02*
G01*
X22476334Y-14964003D01*
X22477515Y-14964492D01*
X22481985Y-14967073D01*
X22482999Y-14967851D01*
X22486648Y-14971500D01*
X22487427Y-14972515D01*
X22490008Y-14976985D01*
X22490497Y-14978166D01*
X22491833Y-14983151D01*
X22492000Y-14984420D01*
X22492000Y-14989580D01*
X22491833Y-14990849D01*
X22490497Y-14995833D01*
X22490008Y-14997015D01*
X22487427Y-15001484D01*
X22486649Y-15002499D01*
X22482999Y-15006149D01*
X22481984Y-15006927D01*
X22477515Y-15009508D01*
X22476334Y-15009997D01*
X22473164Y-15010847D01*
X22471349Y-15011333D01*
X22470081Y-15011500D01*
X22464919Y-15011500D01*
X22463651Y-15011333D01*
X22460795Y-15010568D01*
X22458666Y-15009997D01*
X22457484Y-15009508D01*
X22453015Y-15006927D01*
X22452001Y-15006149D01*
X22448351Y-15002499D01*
X22447572Y-15001485D01*
X22444992Y-14997015D01*
X22444502Y-14995833D01*
X22443167Y-14990848D01*
X22443000Y-14989581D01*
X22443000Y-14984419D01*
X22443167Y-14983151D01*
X22444503Y-14978165D01*
X22444991Y-14976985D01*
X22447573Y-14972515D01*
X22448351Y-14971501D01*
X22452001Y-14967851D01*
X22453015Y-14967072D01*
X22453800Y-14966620D01*
X22457484Y-14964492D01*
X22458666Y-14964002D01*
X22463651Y-14962667D01*
X22464919Y-14962500D01*
X22470081Y-14962500D01*
X22471348Y-14962667D01*
G37*
%TD.AperFunction*%
%TA.AperFunction,Conductor*%
G36*
X22573848Y-14962667D02*
G01*
X22578834Y-14964003D01*
X22580015Y-14964492D01*
X22582582Y-14965974D01*
X22582582Y-14965974D01*
X22584484Y-14967072D01*
X22585499Y-14967851D01*
X22589149Y-14971501D01*
X22589927Y-14972515D01*
X22592508Y-14976984D01*
X22592997Y-14978166D01*
X22594333Y-14983151D01*
X22594500Y-14984419D01*
X22594500Y-14989580D01*
X22594333Y-14990849D01*
X22592997Y-14995833D01*
X22592508Y-14997015D01*
X22592508Y-14997015D01*
X22589927Y-15001484D01*
X22589149Y-15002499D01*
X22585499Y-15006149D01*
X22584484Y-15006927D01*
X22580015Y-15009508D01*
X22578834Y-15009997D01*
X22575664Y-15010847D01*
X22573849Y-15011333D01*
X22572581Y-15011500D01*
X22567419Y-15011500D01*
X22566151Y-15011333D01*
X22563295Y-15010568D01*
X22561166Y-15009997D01*
X22559984Y-15009508D01*
X22555515Y-15006927D01*
X22554501Y-15006149D01*
X22550851Y-15002499D01*
X22550072Y-15001485D01*
X22547492Y-14997015D01*
X22547002Y-14995833D01*
X22545667Y-14990848D01*
X22545500Y-14989581D01*
X22545500Y-14984419D01*
X22545667Y-14983151D01*
X22547003Y-14978165D01*
X22547491Y-14976985D01*
X22550073Y-14972515D01*
X22550851Y-14971501D01*
X22554501Y-14967851D01*
X22555515Y-14967072D01*
X22556300Y-14966620D01*
X22559984Y-14964492D01*
X22561166Y-14964002D01*
X22566151Y-14962667D01*
X22567419Y-14962500D01*
X22572581Y-14962500D01*
X22573848Y-14962667D01*
G37*
%TD.AperFunction*%
%TA.AperFunction,Conductor*%
G36*
X22772048Y-14944867D02*
G01*
X22777034Y-14946203D01*
X22778215Y-14946692D01*
X22782685Y-14949273D01*
X22783699Y-14950051D01*
X22787348Y-14953700D01*
X22788127Y-14954715D01*
X22790708Y-14959185D01*
X22791197Y-14960366D01*
X22792533Y-14965351D01*
X22792700Y-14966620D01*
X22792700Y-14971780D01*
X22792533Y-14973049D01*
X22791197Y-14978033D01*
X22790708Y-14979215D01*
X22788127Y-14983684D01*
X22787349Y-14984699D01*
X22783699Y-14988349D01*
X22782684Y-14989127D01*
X22782684Y-14989127D01*
X22778215Y-14991708D01*
X22777034Y-14992197D01*
X22773864Y-14993047D01*
X22772049Y-14993533D01*
X22770781Y-14993700D01*
X22765619Y-14993700D01*
X22764351Y-14993533D01*
X22761495Y-14992768D01*
X22759366Y-14992197D01*
X22758184Y-14991708D01*
X22753715Y-14989127D01*
X22752701Y-14988349D01*
X22749051Y-14984699D01*
X22748272Y-14983685D01*
X22745692Y-14979215D01*
X22745202Y-14978033D01*
X22743867Y-14973048D01*
X22743700Y-14971781D01*
X22743700Y-14966619D01*
X22743867Y-14965351D01*
X22745203Y-14960365D01*
X22745691Y-14959185D01*
X22748273Y-14954715D01*
X22749051Y-14953701D01*
X22752701Y-14950051D01*
X22753715Y-14949272D01*
X22758184Y-14946692D01*
X22759366Y-14946202D01*
X22764351Y-14944867D01*
X22765619Y-14944700D01*
X22770781Y-14944700D01*
X22772048Y-14944867D01*
G37*
%TD.AperFunction*%
%TA.AperFunction,Conductor*%
G36*
X23782048Y-14944867D02*
G01*
X23787034Y-14946203D01*
X23788215Y-14946692D01*
X23792685Y-14949273D01*
X23793699Y-14950051D01*
X23797348Y-14953700D01*
X23798127Y-14954715D01*
X23800708Y-14959185D01*
X23801197Y-14960366D01*
X23801929Y-14963098D01*
X23802533Y-14965351D01*
X23802700Y-14966619D01*
X23802700Y-14971780D01*
X23802533Y-14973049D01*
X23801197Y-14978033D01*
X23800708Y-14979215D01*
X23798127Y-14983684D01*
X23797349Y-14984699D01*
X23793699Y-14988349D01*
X23792684Y-14989127D01*
X23788215Y-14991708D01*
X23787034Y-14992197D01*
X23783864Y-14993047D01*
X23782049Y-14993533D01*
X23780781Y-14993700D01*
X23775619Y-14993700D01*
X23774351Y-14993533D01*
X23771495Y-14992768D01*
X23769366Y-14992197D01*
X23768184Y-14991708D01*
X23763715Y-14989127D01*
X23762701Y-14988349D01*
X23759051Y-14984699D01*
X23758272Y-14983685D01*
X23755692Y-14979215D01*
X23755202Y-14978033D01*
X23753867Y-14973048D01*
X23753700Y-14971781D01*
X23753700Y-14966619D01*
X23753867Y-14965351D01*
X23755203Y-14960365D01*
X23755691Y-14959185D01*
X23758273Y-14954715D01*
X23759051Y-14953701D01*
X23762701Y-14950051D01*
X23763715Y-14949272D01*
X23768184Y-14946692D01*
X23769366Y-14946202D01*
X23774351Y-14944867D01*
X23775619Y-14944700D01*
X23780781Y-14944700D01*
X23782048Y-14944867D01*
G37*
%TD.AperFunction*%
%TA.AperFunction,Conductor*%
G36*
X22196348Y-14645167D02*
G01*
X22201334Y-14646503D01*
X22202515Y-14646992D01*
X22206985Y-14649573D01*
X22207999Y-14650351D01*
X22211649Y-14654000D01*
X22212427Y-14655015D01*
X22215008Y-14659485D01*
X22215497Y-14660666D01*
X22215497Y-14660667D01*
X22216833Y-14665651D01*
X22217000Y-14666919D01*
X22217000Y-14672080D01*
X22216833Y-14673349D01*
X22215497Y-14678333D01*
X22215008Y-14679515D01*
X22212428Y-14683984D01*
X22211649Y-14684999D01*
X22207999Y-14688649D01*
X22206984Y-14689427D01*
X22202515Y-14692008D01*
X22201334Y-14692497D01*
X22198164Y-14693347D01*
X22196349Y-14693833D01*
X22195081Y-14694000D01*
X22189920Y-14694000D01*
X22188651Y-14693833D01*
X22185795Y-14693068D01*
X22183666Y-14692497D01*
X22182485Y-14692008D01*
X22178015Y-14689427D01*
X22177001Y-14688649D01*
X22173351Y-14684999D01*
X22172573Y-14683985D01*
X22169992Y-14679515D01*
X22169503Y-14678333D01*
X22168167Y-14673348D01*
X22168000Y-14672081D01*
X22168000Y-14666919D01*
X22168167Y-14665651D01*
X22169503Y-14660665D01*
X22169992Y-14659485D01*
X22172573Y-14655015D01*
X22173351Y-14654001D01*
X22177001Y-14650351D01*
X22178015Y-14649572D01*
X22178029Y-14649564D01*
X22182485Y-14646992D01*
X22183666Y-14646502D01*
X22188651Y-14645167D01*
X22189919Y-14645000D01*
X22195081Y-14645000D01*
X22196348Y-14645167D01*
G37*
%TD.AperFunction*%
%TA.AperFunction,Conductor*%
G36*
X20783783Y-14369185D02*
G01*
X20785218Y-14372650D01*
X20783783Y-14376115D01*
X20772152Y-14387745D01*
X20771426Y-14389500D01*
X20769450Y-14394269D01*
X20769450Y-14394269D01*
X20769450Y-14484234D01*
X20768015Y-14487699D01*
X20764550Y-14489134D01*
X20761085Y-14487699D01*
X20760679Y-14487292D01*
X20752071Y-14482323D01*
X20752071Y-14482322D01*
X20747274Y-14481037D01*
X20744299Y-14478754D01*
X20744016Y-14478179D01*
X20740958Y-14470797D01*
X20740958Y-14470797D01*
X20732742Y-14479013D01*
X20730545Y-14480282D01*
X20722929Y-14482322D01*
X20722929Y-14482323D01*
X20714321Y-14487292D01*
X20714321Y-14487293D01*
X20707293Y-14494321D01*
X20707293Y-14494321D01*
X20702323Y-14502929D01*
X20702323Y-14502929D01*
X20700282Y-14510545D01*
X20699014Y-14512742D01*
X20690878Y-14520878D01*
X20690878Y-14520878D01*
X20680941Y-14530815D01*
X20677476Y-14532250D01*
X20598969Y-14532250D01*
X20594889Y-14533940D01*
X20592445Y-14534952D01*
X20579486Y-14547912D01*
X20576021Y-14549347D01*
X20572556Y-14547912D01*
X20548987Y-14524342D01*
X20547552Y-14520878D01*
X20548987Y-14517413D01*
X20556129Y-14510271D01*
X20557536Y-14511678D01*
X20561211Y-14513200D01*
X20565189Y-14513200D01*
X20568865Y-14511678D01*
X20571678Y-14508864D01*
X20573200Y-14505189D01*
X20573200Y-14503200D01*
X20598555Y-14503200D01*
X20617805Y-14522450D01*
X20618595Y-14522450D01*
X20637845Y-14503200D01*
X20635856Y-14501211D01*
X20663200Y-14501211D01*
X20663200Y-14505189D01*
X20664722Y-14508864D01*
X20667536Y-14511678D01*
X20671211Y-14513200D01*
X20675189Y-14513200D01*
X20678865Y-14511678D01*
X20681678Y-14508864D01*
X20683200Y-14505189D01*
X20683200Y-14501211D01*
X20681678Y-14497535D01*
X20678865Y-14494722D01*
X20675189Y-14493200D01*
X20671211Y-14493200D01*
X20667536Y-14494722D01*
X20664722Y-14497535D01*
X20663200Y-14501211D01*
X20635856Y-14501211D01*
X20618200Y-14483555D01*
X20598555Y-14503200D01*
X20573200Y-14503200D01*
X20573200Y-14501211D01*
X20571678Y-14497535D01*
X20568865Y-14494722D01*
X20565189Y-14493200D01*
X20561211Y-14493200D01*
X20557536Y-14494722D01*
X20556129Y-14496129D01*
X20548987Y-14488987D01*
X20547552Y-14485522D01*
X20548987Y-14482057D01*
X20595602Y-14435442D01*
X20595602Y-14435442D01*
X20640798Y-14435442D01*
X20640798Y-14435442D01*
X20673200Y-14467845D01*
X20673200Y-14467845D01*
X20705602Y-14435442D01*
X20695077Y-14431082D01*
X20695076Y-14431082D01*
X20680587Y-14428200D01*
X20665813Y-14428200D01*
X20651324Y-14431082D01*
X20651323Y-14431082D01*
X20640798Y-14435442D01*
X20595602Y-14435442D01*
X20585077Y-14431082D01*
X20585076Y-14431082D01*
X20570587Y-14428200D01*
X20555813Y-14428200D01*
X20544929Y-14430365D01*
X20541250Y-14429633D01*
X20539167Y-14426515D01*
X20539898Y-14422837D01*
X20540507Y-14422095D01*
X20593417Y-14369185D01*
X20596882Y-14367750D01*
X20613376Y-14367750D01*
X20780318Y-14367750D01*
X20783783Y-14369185D01*
G37*
%TD.AperFunction*%
%TA.AperFunction,Conductor*%
G36*
X22537048Y-14478867D02*
G01*
X22542034Y-14480203D01*
X22543215Y-14480692D01*
X22547685Y-14483273D01*
X22548699Y-14484051D01*
X22552348Y-14487700D01*
X22553127Y-14488715D01*
X22555708Y-14493185D01*
X22556197Y-14494366D01*
X22556994Y-14497339D01*
X22557533Y-14499351D01*
X22557700Y-14500619D01*
X22557700Y-14505780D01*
X22557533Y-14507049D01*
X22556197Y-14512033D01*
X22555708Y-14513215D01*
X22553127Y-14517684D01*
X22552349Y-14518699D01*
X22548699Y-14522349D01*
X22547684Y-14523127D01*
X22547684Y-14523127D01*
X22543215Y-14525708D01*
X22542034Y-14526197D01*
X22538864Y-14527047D01*
X22537049Y-14527533D01*
X22535781Y-14527700D01*
X22530619Y-14527700D01*
X22529351Y-14527533D01*
X22526495Y-14526768D01*
X22524366Y-14526197D01*
X22523184Y-14525708D01*
X22518715Y-14523127D01*
X22517701Y-14522349D01*
X22514051Y-14518699D01*
X22513272Y-14517685D01*
X22510692Y-14513215D01*
X22510202Y-14512033D01*
X22508867Y-14507048D01*
X22508700Y-14505781D01*
X22508700Y-14500619D01*
X22508867Y-14499351D01*
X22510203Y-14494365D01*
X22510691Y-14493185D01*
X22513273Y-14488715D01*
X22514051Y-14487701D01*
X22517701Y-14484051D01*
X22518715Y-14483272D01*
X22520360Y-14482323D01*
X22523184Y-14480692D01*
X22524366Y-14480202D01*
X22529351Y-14478867D01*
X22530619Y-14478700D01*
X22535781Y-14478700D01*
X22537048Y-14478867D01*
G37*
%TD.AperFunction*%
%TA.AperFunction,Conductor*%
G36*
X22378848Y-14340667D02*
G01*
X22383834Y-14342003D01*
X22385015Y-14342492D01*
X22389485Y-14345073D01*
X22390499Y-14345851D01*
X22394149Y-14349500D01*
X22394927Y-14350515D01*
X22397508Y-14354985D01*
X22397997Y-14356166D01*
X22399333Y-14361151D01*
X22399500Y-14362420D01*
X22399500Y-14367580D01*
X22399333Y-14368849D01*
X22397997Y-14373833D01*
X22397508Y-14375015D01*
X22394927Y-14379484D01*
X22394149Y-14380499D01*
X22390499Y-14384149D01*
X22389484Y-14384927D01*
X22385015Y-14387508D01*
X22383834Y-14387997D01*
X22380664Y-14388847D01*
X22378849Y-14389333D01*
X22377581Y-14389500D01*
X22372419Y-14389500D01*
X22371151Y-14389333D01*
X22368295Y-14388568D01*
X22366166Y-14387997D01*
X22364985Y-14387508D01*
X22360515Y-14384927D01*
X22359501Y-14384149D01*
X22355851Y-14380499D01*
X22355073Y-14379485D01*
X22352492Y-14375015D01*
X22352003Y-14373833D01*
X22350667Y-14368848D01*
X22350500Y-14367581D01*
X22350500Y-14362419D01*
X22350667Y-14361151D01*
X22352003Y-14356165D01*
X22352492Y-14354985D01*
X22355073Y-14350515D01*
X22355851Y-14349501D01*
X22359501Y-14345851D01*
X22360515Y-14345072D01*
X22364985Y-14342492D01*
X22366166Y-14342002D01*
X22371151Y-14340667D01*
X22372419Y-14340500D01*
X22377581Y-14340500D01*
X22378848Y-14340667D01*
G37*
%TD.AperFunction*%
%TA.AperFunction,Conductor*%
G36*
X22478848Y-14340667D02*
G01*
X22483834Y-14342003D01*
X22485015Y-14342492D01*
X22489485Y-14345073D01*
X22490499Y-14345851D01*
X22494149Y-14349500D01*
X22494927Y-14350515D01*
X22497508Y-14354985D01*
X22497997Y-14356166D01*
X22499333Y-14361151D01*
X22499500Y-14362419D01*
X22499500Y-14367580D01*
X22499333Y-14368849D01*
X22497997Y-14373833D01*
X22497508Y-14375015D01*
X22494928Y-14379484D01*
X22494149Y-14380499D01*
X22490998Y-14383650D01*
X22490998Y-14383650D01*
X22490499Y-14384149D01*
X22489484Y-14384927D01*
X22485015Y-14387508D01*
X22483834Y-14387997D01*
X22480664Y-14388847D01*
X22478849Y-14389333D01*
X22477581Y-14389500D01*
X22472419Y-14389500D01*
X22471151Y-14389333D01*
X22468295Y-14388568D01*
X22466166Y-14387997D01*
X22464984Y-14387508D01*
X22460515Y-14384927D01*
X22459501Y-14384149D01*
X22455851Y-14380499D01*
X22455072Y-14379485D01*
X22452492Y-14375015D01*
X22452002Y-14373833D01*
X22450667Y-14368848D01*
X22450500Y-14367581D01*
X22450500Y-14362419D01*
X22450667Y-14361151D01*
X22452003Y-14356165D01*
X22452491Y-14354985D01*
X22455073Y-14350515D01*
X22455851Y-14349501D01*
X22459501Y-14345851D01*
X22460515Y-14345072D01*
X22464984Y-14342492D01*
X22466166Y-14342002D01*
X22471151Y-14340667D01*
X22472419Y-14340500D01*
X22477581Y-14340500D01*
X22478848Y-14340667D01*
G37*
%TD.AperFunction*%
%TD*%
M02*
