%TF.GenerationSoftware,KiCad,Pcbnew,9.0.4*%
%TF.CreationDate,2025-09-02T11:28:22-07:00*%
%TF.ProjectId,salt_booklamp,73616c74-5f62-46f6-9f6b-6c616d702e6b,5*%
%TF.SameCoordinates,Original*%
%TF.FileFunction,Paste,Bot*%
%TF.FilePolarity,Positive*%
%FSLAX45Y45*%
G04 Gerber Fmt 4.5, Leading zero omitted, Abs format (unit mm)*
G04 Created by KiCad (PCBNEW 9.0.4) date 2025-09-02 11:28:22*
%MOMM*%
%LPD*%
G01*
G04 APERTURE LIST*
G04 Aperture macros list*
%AMRoundRect*
0 Rectangle with rounded corners*
0 $1 Rounding radius*
0 $2 $3 $4 $5 $6 $7 $8 $9 X,Y pos of 4 corners*
0 Add a 4 corners polygon primitive as box body*
4,1,4,$2,$3,$4,$5,$6,$7,$8,$9,$2,$3,0*
0 Add four circle primitives for the rounded corners*
1,1,$1+$1,$2,$3*
1,1,$1+$1,$4,$5*
1,1,$1+$1,$6,$7*
1,1,$1+$1,$8,$9*
0 Add four rect primitives between the rounded corners*
20,1,$1+$1,$2,$3,$4,$5,0*
20,1,$1+$1,$4,$5,$6,$7,0*
20,1,$1+$1,$6,$7,$8,$9,0*
20,1,$1+$1,$8,$9,$2,$3,0*%
G04 Aperture macros list end*
%ADD10RoundRect,0.140000X0.170000X-0.140000X0.170000X0.140000X-0.170000X0.140000X-0.170000X-0.140000X0*%
%ADD11RoundRect,0.135000X-0.185000X0.135000X-0.185000X-0.135000X0.185000X-0.135000X0.185000X0.135000X0*%
%ADD12RoundRect,0.135000X0.185000X-0.135000X0.185000X0.135000X-0.185000X0.135000X-0.185000X-0.135000X0*%
%ADD13RoundRect,0.140000X0.140000X0.170000X-0.140000X0.170000X-0.140000X-0.170000X0.140000X-0.170000X0*%
%ADD14RoundRect,0.030000X0.120000X0.195000X-0.120000X0.195000X-0.120000X-0.195000X0.120000X-0.195000X0*%
%ADD15RoundRect,0.070000X-0.280000X-0.430000X0.280000X-0.430000X0.280000X0.430000X-0.280000X0.430000X0*%
%ADD16RoundRect,0.070000X0.280000X0.430000X-0.280000X0.430000X-0.280000X-0.430000X0.280000X-0.430000X0*%
%ADD17RoundRect,0.050000X-0.250000X-0.500000X0.250000X-0.500000X0.250000X0.500000X-0.250000X0.500000X0*%
%ADD18RoundRect,0.135000X-0.135000X-0.185000X0.135000X-0.185000X0.135000X0.185000X-0.135000X0.185000X0*%
%ADD19R,0.600000X1.000000*%
%ADD20R,0.650000X0.350000*%
%ADD21RoundRect,0.135000X0.135000X0.185000X-0.135000X0.185000X-0.135000X-0.185000X0.135000X-0.185000X0*%
%ADD22RoundRect,0.250000X1.250000X-0.250000X1.250000X0.250000X-1.250000X0.250000X-1.250000X-0.250000X0*%
%ADD23RoundRect,0.140000X-0.140000X-0.170000X0.140000X-0.170000X0.140000X0.170000X-0.140000X0.170000X0*%
%ADD24RoundRect,0.140000X-0.170000X0.140000X-0.170000X-0.140000X0.170000X-0.140000X0.170000X0.140000X0*%
%ADD25R,1.700000X2.100000*%
%ADD26R,0.350000X1.100000*%
G04 APERTURE END LIST*
D10*
%TO.C,C1*%
X22192500Y-14765500D03*
X22192500Y-14669500D03*
%TD*%
D11*
%TO.C,R10*%
X22570000Y-14885000D03*
X22570000Y-14987000D03*
%TD*%
D12*
%TO.C,R2*%
X20347500Y-14506000D03*
X20347500Y-14404000D03*
%TD*%
D13*
%TO.C,C2*%
X24305200Y-15053200D03*
X24209200Y-15053200D03*
%TD*%
D14*
%TO.C,U3*%
X20683200Y-14600700D03*
X20618200Y-14600700D03*
X20553200Y-14600700D03*
X20553200Y-14405700D03*
X20618200Y-14405700D03*
X20683200Y-14405700D03*
D15*
X20573200Y-14503200D03*
D16*
X20663200Y-14503200D03*
%TD*%
D17*
%TO.C,U2*%
X22343200Y-14503200D03*
X22438200Y-14503200D03*
X22533200Y-14503200D03*
X22533200Y-14763200D03*
X22438200Y-14763200D03*
X22343200Y-14763200D03*
%TD*%
D18*
%TO.C,R5*%
X20836500Y-14790000D03*
X20938500Y-14790000D03*
%TD*%
D19*
%TO.C,U1*%
X20496000Y-14764750D03*
X20496000Y-14884750D03*
X20573500Y-14764750D03*
X20573500Y-14884750D03*
D20*
X20379750Y-14922250D03*
X20379750Y-14857250D03*
X20379750Y-14792250D03*
X20379750Y-14727250D03*
X20689750Y-14727250D03*
X20689750Y-14792250D03*
X20689750Y-14857250D03*
X20689750Y-14922250D03*
%TD*%
D21*
%TO.C,R6*%
X22577000Y-14365000D03*
X22475000Y-14365000D03*
%TD*%
D22*
%TO.C,L1*%
X20938200Y-14653200D03*
X20938200Y-14453200D03*
%TD*%
D23*
%TO.C,C3*%
X20590200Y-15053200D03*
X20686200Y-15053200D03*
%TD*%
D11*
%TO.C,R9*%
X22467500Y-14885000D03*
X22467500Y-14987000D03*
%TD*%
D12*
%TO.C,R3*%
X20251242Y-14687483D03*
X20251242Y-14585483D03*
%TD*%
D10*
%TO.C,C4*%
X20442500Y-14505500D03*
X20442500Y-14409500D03*
%TD*%
D21*
%TO.C,R1*%
X22375000Y-14365000D03*
X22273000Y-14365000D03*
%TD*%
D24*
%TO.C,C5*%
X21047500Y-14787000D03*
X21047500Y-14883000D03*
%TD*%
D21*
%TO.C,R4*%
X20445159Y-14599981D03*
X20343159Y-14599981D03*
%TD*%
D12*
%TO.C,R8*%
X20252594Y-14497537D03*
X20252594Y-14395537D03*
%TD*%
D25*
%TO.C,J1*%
X23778200Y-14984200D03*
X22768200Y-14984200D03*
D26*
X23548200Y-14378200D03*
X23498200Y-14378200D03*
X23448200Y-14378200D03*
X23398200Y-14378200D03*
X23348200Y-14378200D03*
X23298200Y-14378200D03*
X23248200Y-14378200D03*
X23198200Y-14378200D03*
X23148200Y-14378200D03*
X23098200Y-14378200D03*
X23048200Y-14378200D03*
X22998200Y-14378200D03*
%TD*%
M02*
