ISO-10303-21;
HEADER;
FILE_DESCRIPTION(('FreeCAD Model'),'2;1');
FILE_NAME('Open CASCADE Shape Model','2025-08-15T14:51:51',(''),(''),
  'Open CASCADE STEP processor 7.8','FreeCAD','Unknown');
FILE_SCHEMA(('AUTOMOTIVE_DESIGN { 1 0 10303 214 1 1 1 1 }'));
ENDSEC;
DATA;
#1 = APPLICATION_PROTOCOL_DEFINITION('international standard',
  'automotive_design',2000,#2);
#2 = APPLICATION_CONTEXT(
  'core data for automotive mechanical design processes');
#3 = SHAPE_DEFINITION_REPRESENTATION(#4,#10);
#4 = PRODUCT_DEFINITION_SHAPE('','',#5);
#5 = PRODUCT_DEFINITION('design','',#6,#9);
#6 = PRODUCT_DEFINITION_FORMATION('','',#7);
#7 = PRODUCT('Pocket003','Pocket003','',(#8));
#8 = PRODUCT_CONTEXT('',#2,'mechanical');
#9 = PRODUCT_DEFINITION_CONTEXT('part definition',#2,'design');
#10 = ADVANCED_BREP_SHAPE_REPRESENTATION('',(#11,#15),#566);
#11 = AXIS2_PLACEMENT_3D('',#12,#13,#14);
#12 = CARTESIAN_POINT('',(0.,0.,0.));
#13 = DIRECTION('',(0.,0.,1.));
#14 = DIRECTION('',(1.,0.,-0.));
#15 = MANIFOLD_SOLID_BREP('',#16);
#16 = CLOSED_SHELL('',(#17,#57,#90,#123,#228,#290,#307,#324,#341,#358,
    #370,#402,#427,#451,#476,#501,#518,#543,#557));
#17 = ADVANCED_FACE('',(#18),#52,.F.);
#18 = FACE_BOUND('',#19,.F.);
#19 = EDGE_LOOP('',(#20,#30,#38,#46));
#20 = ORIENTED_EDGE('',*,*,#21,.T.);
#21 = EDGE_CURVE('',#22,#24,#26,.T.);
#22 = VERTEX_POINT('',#23);
#23 = CARTESIAN_POINT('',(4.398,-7.5,-4.32));
#24 = VERTEX_POINT('',#25);
#25 = CARTESIAN_POINT('',(4.398,-7.5,-3.));
#26 = LINE('',#27,#28);
#27 = CARTESIAN_POINT('',(4.398,-7.5,-4.32));
#28 = VECTOR('',#29,1.);
#29 = DIRECTION('',(1.1E-16,-6.E-17,1.));
#30 = ORIENTED_EDGE('',*,*,#31,.T.);
#31 = EDGE_CURVE('',#24,#32,#34,.T.);
#32 = VERTEX_POINT('',#33);
#33 = CARTESIAN_POINT('',(14.398,-7.5,-3.));
#34 = LINE('',#35,#36);
#35 = CARTESIAN_POINT('',(4.398,-7.5,-3.));
#36 = VECTOR('',#37,1.);
#37 = DIRECTION('',(1.,0.,0.));
#38 = ORIENTED_EDGE('',*,*,#39,.F.);
#39 = EDGE_CURVE('',#40,#32,#42,.T.);
#40 = VERTEX_POINT('',#41);
#41 = CARTESIAN_POINT('',(14.398,-7.5,-4.32));
#42 = LINE('',#43,#44);
#43 = CARTESIAN_POINT('',(14.398,-7.5,-4.32));
#44 = VECTOR('',#45,1.);
#45 = DIRECTION('',(1.1E-16,-6.E-17,1.));
#46 = ORIENTED_EDGE('',*,*,#47,.F.);
#47 = EDGE_CURVE('',#22,#40,#48,.T.);
#48 = LINE('',#49,#50);
#49 = CARTESIAN_POINT('',(4.398,-7.5,-4.32));
#50 = VECTOR('',#51,1.);
#51 = DIRECTION('',(1.,0.,0.));
#52 = PLANE('',#53);
#53 = AXIS2_PLACEMENT_3D('',#54,#55,#56);
#54 = CARTESIAN_POINT('',(4.398,-7.5,-4.32));
#55 = DIRECTION('',(-2.2E-16,1.,6.E-17));
#56 = DIRECTION('',(1.,2.2E-16,-3.9E-16));
#57 = ADVANCED_FACE('',(#58),#85,.T.);
#58 = FACE_BOUND('',#59,.F.);
#59 = EDGE_LOOP('',(#60,#70,#77,#78));
#60 = ORIENTED_EDGE('',*,*,#61,.T.);
#61 = EDGE_CURVE('',#62,#64,#66,.T.);
#62 = VERTEX_POINT('',#63);
#63 = CARTESIAN_POINT('',(3.398,-6.5,-4.32));
#64 = VERTEX_POINT('',#65);
#65 = CARTESIAN_POINT('',(3.398,-6.5,-3.));
#66 = LINE('',#67,#68);
#67 = CARTESIAN_POINT('',(3.398,-6.5,-4.32));
#68 = VECTOR('',#69,1.);
#69 = DIRECTION('',(1.1E-16,-6.E-17,1.));
#70 = ORIENTED_EDGE('',*,*,#71,.T.);
#71 = EDGE_CURVE('',#64,#24,#72,.T.);
#72 = CIRCLE('',#73,1.);
#73 = AXIS2_PLACEMENT_3D('',#74,#75,#76);
#74 = CARTESIAN_POINT('',(4.398,-6.5,-3.));
#75 = DIRECTION('',(0.,0.,1.));
#76 = DIRECTION('',(1.,0.,0.));
#77 = ORIENTED_EDGE('',*,*,#21,.F.);
#78 = ORIENTED_EDGE('',*,*,#79,.F.);
#79 = EDGE_CURVE('',#62,#22,#80,.T.);
#80 = CIRCLE('',#81,1.);
#81 = AXIS2_PLACEMENT_3D('',#82,#83,#84);
#82 = CARTESIAN_POINT('',(4.398,-6.5,-4.32));
#83 = DIRECTION('',(0.,0.,1.));
#84 = DIRECTION('',(1.,0.,0.));
#85 = CYLINDRICAL_SURFACE('',#86,1.);
#86 = AXIS2_PLACEMENT_3D('',#87,#88,#89);
#87 = CARTESIAN_POINT('',(4.398,-6.5,-4.32));
#88 = DIRECTION('',(-3.9E-16,2.2E-16,-1.));
#89 = DIRECTION('',(1.,2.2E-16,-3.9E-16));
#90 = ADVANCED_FACE('',(#91),#118,.T.);
#91 = FACE_BOUND('',#92,.F.);
#92 = EDGE_LOOP('',(#93,#94,#103,#111));
#93 = ORIENTED_EDGE('',*,*,#39,.T.);
#94 = ORIENTED_EDGE('',*,*,#95,.T.);
#95 = EDGE_CURVE('',#32,#96,#98,.T.);
#96 = VERTEX_POINT('',#97);
#97 = CARTESIAN_POINT('',(15.398,-6.5,-3.));
#98 = CIRCLE('',#99,1.);
#99 = AXIS2_PLACEMENT_3D('',#100,#101,#102);
#100 = CARTESIAN_POINT('',(14.398,-6.5,-3.));
#101 = DIRECTION('',(0.,0.,1.));
#102 = DIRECTION('',(1.,0.,0.));
#103 = ORIENTED_EDGE('',*,*,#104,.F.);
#104 = EDGE_CURVE('',#105,#96,#107,.T.);
#105 = VERTEX_POINT('',#106);
#106 = CARTESIAN_POINT('',(15.398,-6.5,-4.32));
#107 = LINE('',#108,#109);
#108 = CARTESIAN_POINT('',(15.398,-6.5,-4.32));
#109 = VECTOR('',#110,1.);
#110 = DIRECTION('',(1.1E-16,-6.E-17,1.));
#111 = ORIENTED_EDGE('',*,*,#112,.F.);
#112 = EDGE_CURVE('',#40,#105,#113,.T.);
#113 = CIRCLE('',#114,1.);
#114 = AXIS2_PLACEMENT_3D('',#115,#116,#117);
#115 = CARTESIAN_POINT('',(14.398,-6.5,-4.32));
#116 = DIRECTION('',(0.,0.,1.));
#117 = DIRECTION('',(1.,0.,0.));
#118 = CYLINDRICAL_SURFACE('',#119,1.);
#119 = AXIS2_PLACEMENT_3D('',#120,#121,#122);
#120 = CARTESIAN_POINT('',(14.398,-6.5,-4.32));
#121 = DIRECTION('',(-3.9E-16,2.2E-16,-1.));
#122 = DIRECTION('',(1.,2.2E-16,-3.9E-16));
#123 = ADVANCED_FACE('',(#124,#169),#223,.F.);
#124 = FACE_BOUND('',#125,.F.);
#125 = EDGE_LOOP('',(#126,#127,#128,#136,#145,#153,#162,#168));
#126 = ORIENTED_EDGE('',*,*,#47,.T.);
#127 = ORIENTED_EDGE('',*,*,#112,.T.);
#128 = ORIENTED_EDGE('',*,*,#129,.T.);
#129 = EDGE_CURVE('',#105,#130,#132,.T.);
#130 = VERTEX_POINT('',#131);
#131 = CARTESIAN_POINT('',(15.398,-2.5,-4.32));
#132 = LINE('',#133,#134);
#133 = CARTESIAN_POINT('',(15.398,-6.5,-4.32));
#134 = VECTOR('',#135,1.);
#135 = DIRECTION('',(0.,1.,0.));
#136 = ORIENTED_EDGE('',*,*,#137,.T.);
#137 = EDGE_CURVE('',#130,#138,#140,.T.);
#138 = VERTEX_POINT('',#139);
#139 = CARTESIAN_POINT('',(14.398,-1.5,-4.32));
#140 = CIRCLE('',#141,1.);
#141 = AXIS2_PLACEMENT_3D('',#142,#143,#144);
#142 = CARTESIAN_POINT('',(14.398,-2.5,-4.32));
#143 = DIRECTION('',(0.,0.,1.));
#144 = DIRECTION('',(1.,0.,0.));
#145 = ORIENTED_EDGE('',*,*,#146,.T.);
#146 = EDGE_CURVE('',#138,#147,#149,.T.);
#147 = VERTEX_POINT('',#148);
#148 = CARTESIAN_POINT('',(4.398,-1.5,-4.32));
#149 = LINE('',#150,#151);
#150 = CARTESIAN_POINT('',(14.398,-1.5,-4.32));
#151 = VECTOR('',#152,1.);
#152 = DIRECTION('',(-1.,0.,0.));
#153 = ORIENTED_EDGE('',*,*,#154,.T.);
#154 = EDGE_CURVE('',#147,#155,#157,.T.);
#155 = VERTEX_POINT('',#156);
#156 = CARTESIAN_POINT('',(3.398,-2.5,-4.32));
#157 = CIRCLE('',#158,1.);
#158 = AXIS2_PLACEMENT_3D('',#159,#160,#161);
#159 = CARTESIAN_POINT('',(4.398,-2.5,-4.32));
#160 = DIRECTION('',(0.,0.,1.));
#161 = DIRECTION('',(1.,0.,0.));
#162 = ORIENTED_EDGE('',*,*,#163,.T.);
#163 = EDGE_CURVE('',#155,#62,#164,.T.);
#164 = LINE('',#165,#166);
#165 = CARTESIAN_POINT('',(3.398,-2.5,-4.32));
#166 = VECTOR('',#167,1.);
#167 = DIRECTION('',(0.,-1.,0.));
#168 = ORIENTED_EDGE('',*,*,#79,.T.);
#169 = FACE_BOUND('',#170,.F.);
#170 = EDGE_LOOP('',(#171,#182,#190,#199,#208,#216));
#171 = ORIENTED_EDGE('',*,*,#172,.T.);
#172 = EDGE_CURVE('',#173,#175,#177,.T.);
#173 = VERTEX_POINT('',#174);
#174 = CARTESIAN_POINT('',(9.398,-3.58,-4.32));
#175 = VERTEX_POINT('',#176);
#176 = CARTESIAN_POINT('',(10.398,-4.58,-4.32));
#177 = CIRCLE('',#178,1.);
#178 = AXIS2_PLACEMENT_3D('',#179,#180,#181);
#179 = CARTESIAN_POINT('',(9.398,-4.58,-4.32));
#180 = DIRECTION('',(0.,0.,-1.));
#181 = DIRECTION('',(1.,0.,0.));
#182 = ORIENTED_EDGE('',*,*,#183,.T.);
#183 = EDGE_CURVE('',#175,#184,#186,.T.);
#184 = VERTEX_POINT('',#185);
#185 = CARTESIAN_POINT('',(10.398,-5.58,-4.32));
#186 = LINE('',#187,#188);
#187 = CARTESIAN_POINT('',(10.398,-4.58,-4.32));
#188 = VECTOR('',#189,1.);
#189 = DIRECTION('',(0.,-1.,0.));
#190 = ORIENTED_EDGE('',*,*,#191,.T.);
#191 = EDGE_CURVE('',#184,#192,#194,.T.);
#192 = VERTEX_POINT('',#193);
#193 = CARTESIAN_POINT('',(9.398,-6.58,-4.32));
#194 = CIRCLE('',#195,1.);
#195 = AXIS2_PLACEMENT_3D('',#196,#197,#198);
#196 = CARTESIAN_POINT('',(9.398,-5.58,-4.32));
#197 = DIRECTION('',(0.,0.,-1.));
#198 = DIRECTION('',(1.,0.,0.));
#199 = ORIENTED_EDGE('',*,*,#200,.T.);
#200 = EDGE_CURVE('',#192,#201,#203,.T.);
#201 = VERTEX_POINT('',#202);
#202 = CARTESIAN_POINT('',(8.398,-5.58,-4.32));
#203 = CIRCLE('',#204,1.);
#204 = AXIS2_PLACEMENT_3D('',#205,#206,#207);
#205 = CARTESIAN_POINT('',(9.398,-5.58,-4.32));
#206 = DIRECTION('',(0.,0.,-1.));
#207 = DIRECTION('',(1.,0.,0.));
#208 = ORIENTED_EDGE('',*,*,#209,.T.);
#209 = EDGE_CURVE('',#201,#210,#212,.T.);
#210 = VERTEX_POINT('',#211);
#211 = CARTESIAN_POINT('',(8.398,-4.58,-4.32));
#212 = LINE('',#213,#214);
#213 = CARTESIAN_POINT('',(8.398,-5.58,-4.32));
#214 = VECTOR('',#215,1.);
#215 = DIRECTION('',(0.,1.,0.));
#216 = ORIENTED_EDGE('',*,*,#217,.T.);
#217 = EDGE_CURVE('',#210,#173,#218,.T.);
#218 = CIRCLE('',#219,1.);
#219 = AXIS2_PLACEMENT_3D('',#220,#221,#222);
#220 = CARTESIAN_POINT('',(9.398,-4.58,-4.32));
#221 = DIRECTION('',(0.,0.,-1.));
#222 = DIRECTION('',(1.,0.,0.));
#223 = PLANE('',#224);
#224 = AXIS2_PLACEMENT_3D('',#225,#226,#227);
#225 = CARTESIAN_POINT('',(9.398,-4.5,-4.32));
#226 = DIRECTION('',(4.4E-16,0.,1.));
#227 = DIRECTION('',(1.,0.,-4.4E-16));
#228 = ADVANCED_FACE('',(#229,#274),#285,.T.);
#229 = FACE_BOUND('',#230,.T.);
#230 = EDGE_LOOP('',(#231,#232,#233,#241,#250,#258,#267,#273));
#231 = ORIENTED_EDGE('',*,*,#31,.T.);
#232 = ORIENTED_EDGE('',*,*,#95,.T.);
#233 = ORIENTED_EDGE('',*,*,#234,.T.);
#234 = EDGE_CURVE('',#96,#235,#237,.T.);
#235 = VERTEX_POINT('',#236);
#236 = CARTESIAN_POINT('',(15.398,-2.5,-3.));
#237 = LINE('',#238,#239);
#238 = CARTESIAN_POINT('',(15.398,-6.5,-3.));
#239 = VECTOR('',#240,1.);
#240 = DIRECTION('',(0.,1.,0.));
#241 = ORIENTED_EDGE('',*,*,#242,.T.);
#242 = EDGE_CURVE('',#235,#243,#245,.T.);
#243 = VERTEX_POINT('',#244);
#244 = CARTESIAN_POINT('',(14.398,-1.5,-3.));
#245 = CIRCLE('',#246,1.);
#246 = AXIS2_PLACEMENT_3D('',#247,#248,#249);
#247 = CARTESIAN_POINT('',(14.398,-2.5,-3.));
#248 = DIRECTION('',(0.,0.,1.));
#249 = DIRECTION('',(1.,0.,0.));
#250 = ORIENTED_EDGE('',*,*,#251,.T.);
#251 = EDGE_CURVE('',#243,#252,#254,.T.);
#252 = VERTEX_POINT('',#253);
#253 = CARTESIAN_POINT('',(4.398,-1.5,-3.));
#254 = LINE('',#255,#256);
#255 = CARTESIAN_POINT('',(14.398,-1.5,-3.));
#256 = VECTOR('',#257,1.);
#257 = DIRECTION('',(-1.,0.,0.));
#258 = ORIENTED_EDGE('',*,*,#259,.T.);
#259 = EDGE_CURVE('',#252,#260,#262,.T.);
#260 = VERTEX_POINT('',#261);
#261 = CARTESIAN_POINT('',(3.398,-2.5,-3.));
#262 = CIRCLE('',#263,1.);
#263 = AXIS2_PLACEMENT_3D('',#264,#265,#266);
#264 = CARTESIAN_POINT('',(4.398,-2.5,-3.));
#265 = DIRECTION('',(0.,0.,1.));
#266 = DIRECTION('',(1.,0.,0.));
#267 = ORIENTED_EDGE('',*,*,#268,.T.);
#268 = EDGE_CURVE('',#260,#64,#269,.T.);
#269 = LINE('',#270,#271);
#270 = CARTESIAN_POINT('',(3.398,-2.5,-3.));
#271 = VECTOR('',#272,1.);
#272 = DIRECTION('',(0.,-1.,0.));
#273 = ORIENTED_EDGE('',*,*,#71,.T.);
#274 = FACE_BOUND('',#275,.T.);
#275 = EDGE_LOOP('',(#276));
#276 = ORIENTED_EDGE('',*,*,#277,.F.);
#277 = EDGE_CURVE('',#278,#278,#280,.T.);
#278 = VERTEX_POINT('',#279);
#279 = CARTESIAN_POINT('',(11.811,-5.08,-3.));
#280 = CIRCLE('',#281,2.413);
#281 = AXIS2_PLACEMENT_3D('',#282,#283,#284);
#282 = CARTESIAN_POINT('',(9.398,-5.08,-3.));
#283 = DIRECTION('',(0.,0.,1.));
#284 = DIRECTION('',(1.,0.,0.));
#285 = PLANE('',#286);
#286 = AXIS2_PLACEMENT_3D('',#287,#288,#289);
#287 = CARTESIAN_POINT('',(9.398,-4.5,-3.));
#288 = DIRECTION('',(4.4E-16,0.,1.));
#289 = DIRECTION('',(1.,0.,-4.4E-16));
#290 = ADVANCED_FACE('',(#291),#302,.F.);
#291 = FACE_BOUND('',#292,.F.);
#292 = EDGE_LOOP('',(#293,#299,#300,#301));
#293 = ORIENTED_EDGE('',*,*,#294,.T.);
#294 = EDGE_CURVE('',#155,#260,#295,.T.);
#295 = LINE('',#296,#297);
#296 = CARTESIAN_POINT('',(3.398,-2.5,-4.32));
#297 = VECTOR('',#298,1.);
#298 = DIRECTION('',(1.1E-16,-6.E-17,1.));
#299 = ORIENTED_EDGE('',*,*,#268,.T.);
#300 = ORIENTED_EDGE('',*,*,#61,.F.);
#301 = ORIENTED_EDGE('',*,*,#163,.F.);
#302 = PLANE('',#303);
#303 = AXIS2_PLACEMENT_3D('',#304,#305,#306);
#304 = CARTESIAN_POINT('',(3.398,-2.5,-4.32));
#305 = DIRECTION('',(1.,1.7E-16,-1.1E-16));
#306 = DIRECTION('',(1.7E-16,-1.,-2.2E-16));
#307 = ADVANCED_FACE('',(#308),#319,.F.);
#308 = FACE_BOUND('',#309,.F.);
#309 = EDGE_LOOP('',(#310,#311,#312,#318));
#310 = ORIENTED_EDGE('',*,*,#104,.T.);
#311 = ORIENTED_EDGE('',*,*,#234,.T.);
#312 = ORIENTED_EDGE('',*,*,#313,.F.);
#313 = EDGE_CURVE('',#130,#235,#314,.T.);
#314 = LINE('',#315,#316);
#315 = CARTESIAN_POINT('',(15.398,-2.5,-4.32));
#316 = VECTOR('',#317,1.);
#317 = DIRECTION('',(1.1E-16,-6.E-17,1.));
#318 = ORIENTED_EDGE('',*,*,#129,.F.);
#319 = PLANE('',#320);
#320 = AXIS2_PLACEMENT_3D('',#321,#322,#323);
#321 = CARTESIAN_POINT('',(15.398,-6.5,-4.32));
#322 = DIRECTION('',(-1.,-1.7E-16,1.1E-16));
#323 = DIRECTION('',(-1.7E-16,1.,2.2E-16));
#324 = ADVANCED_FACE('',(#325),#336,.T.);
#325 = FACE_BOUND('',#326,.F.);
#326 = EDGE_LOOP('',(#327,#333,#334,#335));
#327 = ORIENTED_EDGE('',*,*,#328,.T.);
#328 = EDGE_CURVE('',#147,#252,#329,.T.);
#329 = LINE('',#330,#331);
#330 = CARTESIAN_POINT('',(4.398,-1.5,-4.32));
#331 = VECTOR('',#332,1.);
#332 = DIRECTION('',(1.1E-16,-6.E-17,1.));
#333 = ORIENTED_EDGE('',*,*,#259,.T.);
#334 = ORIENTED_EDGE('',*,*,#294,.F.);
#335 = ORIENTED_EDGE('',*,*,#154,.F.);
#336 = CYLINDRICAL_SURFACE('',#337,1.);
#337 = AXIS2_PLACEMENT_3D('',#338,#339,#340);
#338 = CARTESIAN_POINT('',(4.398,-2.5,-4.32));
#339 = DIRECTION('',(-3.9E-16,2.2E-16,-1.));
#340 = DIRECTION('',(1.,2.2E-16,-3.9E-16));
#341 = ADVANCED_FACE('',(#342),#353,.T.);
#342 = FACE_BOUND('',#343,.F.);
#343 = EDGE_LOOP('',(#344,#345,#346,#352));
#344 = ORIENTED_EDGE('',*,*,#313,.T.);
#345 = ORIENTED_EDGE('',*,*,#242,.T.);
#346 = ORIENTED_EDGE('',*,*,#347,.F.);
#347 = EDGE_CURVE('',#138,#243,#348,.T.);
#348 = LINE('',#349,#350);
#349 = CARTESIAN_POINT('',(14.398,-1.5,-4.32));
#350 = VECTOR('',#351,1.);
#351 = DIRECTION('',(1.1E-16,-6.E-17,1.));
#352 = ORIENTED_EDGE('',*,*,#137,.F.);
#353 = CYLINDRICAL_SURFACE('',#354,1.);
#354 = AXIS2_PLACEMENT_3D('',#355,#356,#357);
#355 = CARTESIAN_POINT('',(14.398,-2.5,-4.32));
#356 = DIRECTION('',(-3.9E-16,2.2E-16,-1.));
#357 = DIRECTION('',(1.,2.2E-16,-3.9E-16));
#358 = ADVANCED_FACE('',(#359),#365,.F.);
#359 = FACE_BOUND('',#360,.F.);
#360 = EDGE_LOOP('',(#361,#362,#363,#364));
#361 = ORIENTED_EDGE('',*,*,#347,.T.);
#362 = ORIENTED_EDGE('',*,*,#251,.T.);
#363 = ORIENTED_EDGE('',*,*,#328,.F.);
#364 = ORIENTED_EDGE('',*,*,#146,.F.);
#365 = PLANE('',#366);
#366 = AXIS2_PLACEMENT_3D('',#367,#368,#369);
#367 = CARTESIAN_POINT('',(14.398,-1.5,-4.32));
#368 = DIRECTION('',(2.2E-16,-1.,-6.E-17));
#369 = DIRECTION('',(-1.,-2.2E-16,3.9E-16));
#370 = ADVANCED_FACE('',(#371),#397,.F.);
#371 = FACE_BOUND('',#372,.F.);
#372 = EDGE_LOOP('',(#373,#381,#390,#396));
#373 = ORIENTED_EDGE('',*,*,#374,.T.);
#374 = EDGE_CURVE('',#173,#375,#377,.T.);
#375 = VERTEX_POINT('',#376);
#376 = CARTESIAN_POINT('',(9.398,-3.58,-1.82));
#377 = LINE('',#378,#379);
#378 = CARTESIAN_POINT('',(9.398,-3.58,-4.32));
#379 = VECTOR('',#380,1.);
#380 = DIRECTION('',(0.,6.E-17,1.));
#381 = ORIENTED_EDGE('',*,*,#382,.T.);
#382 = EDGE_CURVE('',#375,#383,#385,.T.);
#383 = VERTEX_POINT('',#384);
#384 = CARTESIAN_POINT('',(10.398,-4.58,-1.82));
#385 = CIRCLE('',#386,1.);
#386 = AXIS2_PLACEMENT_3D('',#387,#388,#389);
#387 = CARTESIAN_POINT('',(9.398,-4.58,-1.82));
#388 = DIRECTION('',(0.,0.,-1.));
#389 = DIRECTION('',(1.,0.,0.));
#390 = ORIENTED_EDGE('',*,*,#391,.F.);
#391 = EDGE_CURVE('',#175,#383,#392,.T.);
#392 = LINE('',#393,#394);
#393 = CARTESIAN_POINT('',(10.398,-4.58,-4.32));
#394 = VECTOR('',#395,1.);
#395 = DIRECTION('',(0.,6.E-17,1.));
#396 = ORIENTED_EDGE('',*,*,#172,.F.);
#397 = CYLINDRICAL_SURFACE('',#398,1.);
#398 = AXIS2_PLACEMENT_3D('',#399,#400,#401);
#399 = CARTESIAN_POINT('',(9.398,-4.58,-4.32));
#400 = DIRECTION('',(6.E-17,-0.,-1.));
#401 = DIRECTION('',(1.,0.,6.E-17));
#402 = ADVANCED_FACE('',(#403),#422,.F.);
#403 = FACE_BOUND('',#404,.F.);
#404 = EDGE_LOOP('',(#405,#413,#420,#421));
#405 = ORIENTED_EDGE('',*,*,#406,.T.);
#406 = EDGE_CURVE('',#210,#407,#409,.T.);
#407 = VERTEX_POINT('',#408);
#408 = CARTESIAN_POINT('',(8.398,-4.58,-1.82));
#409 = LINE('',#410,#411);
#410 = CARTESIAN_POINT('',(8.398,-4.58,-4.32));
#411 = VECTOR('',#412,1.);
#412 = DIRECTION('',(0.,6.E-17,1.));
#413 = ORIENTED_EDGE('',*,*,#414,.T.);
#414 = EDGE_CURVE('',#407,#375,#415,.T.);
#415 = CIRCLE('',#416,1.);
#416 = AXIS2_PLACEMENT_3D('',#417,#418,#419);
#417 = CARTESIAN_POINT('',(9.398,-4.58,-1.82));
#418 = DIRECTION('',(0.,0.,-1.));
#419 = DIRECTION('',(1.,0.,0.));
#420 = ORIENTED_EDGE('',*,*,#374,.F.);
#421 = ORIENTED_EDGE('',*,*,#217,.F.);
#422 = CYLINDRICAL_SURFACE('',#423,1.);
#423 = AXIS2_PLACEMENT_3D('',#424,#425,#426);
#424 = CARTESIAN_POINT('',(9.398,-4.58,-4.32));
#425 = DIRECTION('',(6.E-17,-0.,-1.));
#426 = DIRECTION('',(1.,0.,6.E-17));
#427 = ADVANCED_FACE('',(#428),#446,.F.);
#428 = FACE_BOUND('',#429,.F.);
#429 = EDGE_LOOP('',(#430,#438,#444,#445));
#430 = ORIENTED_EDGE('',*,*,#431,.T.);
#431 = EDGE_CURVE('',#201,#432,#434,.T.);
#432 = VERTEX_POINT('',#433);
#433 = CARTESIAN_POINT('',(8.398,-5.58,-1.82));
#434 = LINE('',#435,#436);
#435 = CARTESIAN_POINT('',(8.398,-5.58,-4.32));
#436 = VECTOR('',#437,1.);
#437 = DIRECTION('',(0.,6.E-17,1.));
#438 = ORIENTED_EDGE('',*,*,#439,.T.);
#439 = EDGE_CURVE('',#432,#407,#440,.T.);
#440 = LINE('',#441,#442);
#441 = CARTESIAN_POINT('',(8.398,-5.58,-1.82));
#442 = VECTOR('',#443,1.);
#443 = DIRECTION('',(0.,1.,0.));
#444 = ORIENTED_EDGE('',*,*,#406,.F.);
#445 = ORIENTED_EDGE('',*,*,#209,.F.);
#446 = PLANE('',#447);
#447 = AXIS2_PLACEMENT_3D('',#448,#449,#450);
#448 = CARTESIAN_POINT('',(8.398,-5.58,-4.32));
#449 = DIRECTION('',(-1.,6.E-17,-0.));
#450 = DIRECTION('',(6.E-17,1.,0.));
#451 = ADVANCED_FACE('',(#452),#471,.F.);
#452 = FACE_BOUND('',#453,.F.);
#453 = EDGE_LOOP('',(#454,#462,#469,#470));
#454 = ORIENTED_EDGE('',*,*,#455,.T.);
#455 = EDGE_CURVE('',#192,#456,#458,.T.);
#456 = VERTEX_POINT('',#457);
#457 = CARTESIAN_POINT('',(9.398,-6.58,-1.82));
#458 = LINE('',#459,#460);
#459 = CARTESIAN_POINT('',(9.398,-6.58,-4.32));
#460 = VECTOR('',#461,1.);
#461 = DIRECTION('',(0.,6.E-17,1.));
#462 = ORIENTED_EDGE('',*,*,#463,.T.);
#463 = EDGE_CURVE('',#456,#432,#464,.T.);
#464 = CIRCLE('',#465,1.);
#465 = AXIS2_PLACEMENT_3D('',#466,#467,#468);
#466 = CARTESIAN_POINT('',(9.398,-5.58,-1.82));
#467 = DIRECTION('',(0.,0.,-1.));
#468 = DIRECTION('',(1.,0.,0.));
#469 = ORIENTED_EDGE('',*,*,#431,.F.);
#470 = ORIENTED_EDGE('',*,*,#200,.F.);
#471 = CYLINDRICAL_SURFACE('',#472,1.);
#472 = AXIS2_PLACEMENT_3D('',#473,#474,#475);
#473 = CARTESIAN_POINT('',(9.398,-5.58,-4.32));
#474 = DIRECTION('',(6.E-17,-0.,-1.));
#475 = DIRECTION('',(1.,0.,6.E-17));
#476 = ADVANCED_FACE('',(#477),#496,.F.);
#477 = FACE_BOUND('',#478,.F.);
#478 = EDGE_LOOP('',(#479,#487,#494,#495));
#479 = ORIENTED_EDGE('',*,*,#480,.T.);
#480 = EDGE_CURVE('',#184,#481,#483,.T.);
#481 = VERTEX_POINT('',#482);
#482 = CARTESIAN_POINT('',(10.398,-5.58,-1.82));
#483 = LINE('',#484,#485);
#484 = CARTESIAN_POINT('',(10.398,-5.58,-4.32));
#485 = VECTOR('',#486,1.);
#486 = DIRECTION('',(0.,6.E-17,1.));
#487 = ORIENTED_EDGE('',*,*,#488,.T.);
#488 = EDGE_CURVE('',#481,#456,#489,.T.);
#489 = CIRCLE('',#490,1.);
#490 = AXIS2_PLACEMENT_3D('',#491,#492,#493);
#491 = CARTESIAN_POINT('',(9.398,-5.58,-1.82));
#492 = DIRECTION('',(0.,0.,-1.));
#493 = DIRECTION('',(1.,0.,0.));
#494 = ORIENTED_EDGE('',*,*,#455,.F.);
#495 = ORIENTED_EDGE('',*,*,#191,.F.);
#496 = CYLINDRICAL_SURFACE('',#497,1.);
#497 = AXIS2_PLACEMENT_3D('',#498,#499,#500);
#498 = CARTESIAN_POINT('',(9.398,-5.58,-4.32));
#499 = DIRECTION('',(6.E-17,-0.,-1.));
#500 = DIRECTION('',(1.,0.,6.E-17));
#501 = ADVANCED_FACE('',(#502),#513,.F.);
#502 = FACE_BOUND('',#503,.F.);
#503 = EDGE_LOOP('',(#504,#505,#511,#512));
#504 = ORIENTED_EDGE('',*,*,#391,.T.);
#505 = ORIENTED_EDGE('',*,*,#506,.T.);
#506 = EDGE_CURVE('',#383,#481,#507,.T.);
#507 = LINE('',#508,#509);
#508 = CARTESIAN_POINT('',(10.398,-4.58,-1.82));
#509 = VECTOR('',#510,1.);
#510 = DIRECTION('',(0.,-1.,0.));
#511 = ORIENTED_EDGE('',*,*,#480,.F.);
#512 = ORIENTED_EDGE('',*,*,#183,.F.);
#513 = PLANE('',#514);
#514 = AXIS2_PLACEMENT_3D('',#515,#516,#517);
#515 = CARTESIAN_POINT('',(10.398,-4.58,-4.32));
#516 = DIRECTION('',(1.,-6.E-17,0.));
#517 = DIRECTION('',(-6.E-17,-1.,0.));
#518 = ADVANCED_FACE('',(#519),#538,.T.);
#519 = FACE_BOUND('',#520,.F.);
#520 = EDGE_LOOP('',(#521,#529,#536,#537));
#521 = ORIENTED_EDGE('',*,*,#522,.T.);
#522 = EDGE_CURVE('',#278,#523,#525,.T.);
#523 = VERTEX_POINT('',#524);
#524 = CARTESIAN_POINT('',(11.811,-5.08,1.5));
#525 = LINE('',#526,#527);
#526 = CARTESIAN_POINT('',(11.811,-5.08,-3.));
#527 = VECTOR('',#528,1.);
#528 = DIRECTION('',(0.,6.E-17,1.));
#529 = ORIENTED_EDGE('',*,*,#530,.T.);
#530 = EDGE_CURVE('',#523,#523,#531,.T.);
#531 = CIRCLE('',#532,2.413);
#532 = AXIS2_PLACEMENT_3D('',#533,#534,#535);
#533 = CARTESIAN_POINT('',(9.398,-5.08,1.5));
#534 = DIRECTION('',(0.,0.,1.));
#535 = DIRECTION('',(1.,0.,0.));
#536 = ORIENTED_EDGE('',*,*,#522,.F.);
#537 = ORIENTED_EDGE('',*,*,#277,.F.);
#538 = CYLINDRICAL_SURFACE('',#539,2.413);
#539 = AXIS2_PLACEMENT_3D('',#540,#541,#542);
#540 = CARTESIAN_POINT('',(9.398,-5.08,-3.));
#541 = DIRECTION('',(6.E-17,0.,-1.));
#542 = DIRECTION('',(1.,0.,6.E-17));
#543 = ADVANCED_FACE('',(#544),#552,.F.);
#544 = FACE_BOUND('',#545,.T.);
#545 = EDGE_LOOP('',(#546,#547,#548,#549,#550,#551));
#546 = ORIENTED_EDGE('',*,*,#506,.T.);
#547 = ORIENTED_EDGE('',*,*,#488,.T.);
#548 = ORIENTED_EDGE('',*,*,#463,.T.);
#549 = ORIENTED_EDGE('',*,*,#439,.T.);
#550 = ORIENTED_EDGE('',*,*,#414,.T.);
#551 = ORIENTED_EDGE('',*,*,#382,.T.);
#552 = PLANE('',#553);
#553 = AXIS2_PLACEMENT_3D('',#554,#555,#556);
#554 = CARTESIAN_POINT('',(9.398,2.573700058488,-1.82));
#555 = DIRECTION('',(0.,0.,1.));
#556 = DIRECTION('',(0.,1.,0.));
#557 = ADVANCED_FACE('',(#558),#561,.T.);
#558 = FACE_BOUND('',#559,.T.);
#559 = EDGE_LOOP('',(#560));
#560 = ORIENTED_EDGE('',*,*,#530,.T.);
#561 = PLANE('',#562);
#562 = AXIS2_PLACEMENT_3D('',#563,#564,#565);
#563 = CARTESIAN_POINT('',(9.398,-5.08,1.5));
#564 = DIRECTION('',(0.,0.,1.));
#565 = DIRECTION('',(0.,1.,0.));
#566 = ( GEOMETRIC_REPRESENTATION_CONTEXT(3) 
GLOBAL_UNCERTAINTY_ASSIGNED_CONTEXT((#570)) GLOBAL_UNIT_ASSIGNED_CONTEXT
((#567,#568,#569)) REPRESENTATION_CONTEXT('Context #1',
  '3D Context with UNIT and UNCERTAINTY') );
#567 = ( LENGTH_UNIT() NAMED_UNIT(*) SI_UNIT(.MILLI.,.METRE.) );
#568 = ( NAMED_UNIT(*) PLANE_ANGLE_UNIT() SI_UNIT($,.RADIAN.) );
#569 = ( NAMED_UNIT(*) SI_UNIT($,.STERADIAN.) SOLID_ANGLE_UNIT() );
#570 = UNCERTAINTY_MEASURE_WITH_UNIT(LENGTH_MEASURE(1.E-07),#567,
  'distance_accuracy_value','confusion accuracy');
#571 = PRODUCT_RELATED_PRODUCT_CATEGORY('part',$,(#7));
#572 = MECHANICAL_DESIGN_GEOMETRIC_PRESENTATION_REPRESENTATION('',(#573)
  ,#566);
#573 = STYLED_ITEM('color',(#574),#15);
#574 = PRESENTATION_STYLE_ASSIGNMENT((#575,#583));
#575 = SURFACE_STYLE_USAGE(.BOTH.,#576);
#576 = SURFACE_SIDE_STYLE('',(#577,#581));
#577 = SURFACE_STYLE_FILL_AREA(#578);
#578 = FILL_AREA_STYLE('',(#579));
#579 = FILL_AREA_STYLE_COLOUR('',#580);
#580 = COLOUR_RGB('',0.501960817233,0.109803919806,0.);
#581 = SURFACE_STYLE_RENDERING_WITH_PROPERTIES(.NORMAL_SHADING.,#580,(
    #582));
#582 = SURFACE_STYLE_TRANSPARENT(1.);
#583 = CURVE_STYLE('',#584,POSITIVE_LENGTH_MEASURE(0.1),#585);
#584 = DRAUGHTING_PRE_DEFINED_CURVE_FONT('continuous');
#585 = COLOUR_RGB('',9.803921802644E-02,9.803921802644E-02,
  9.803921802644E-02);
ENDSEC;
END-ISO-10303-21;
