  0
SECTION
  2
HEADER
  9
$ACADVER
  1
AC1009
  9
$INSBASE
 10
0.0
 20
0.0
 30
0.0
  9
$EXTMIN
 10
0.0
 20
0.0
 30
0.0
  9
$EXTMAX
 10
0.0
 20
0.0
 30
0.0
  0
ENDSEC
  0
SECTION
  2
TABLES
  0
TABLE
  2
VPORT
 70
0
  0
ENDTAB
  0
TABLE
  2
LTYPE
 70
1
  0
LTYPE
  2
CONTINUOUS
 70
0
  3
Solid line
 72
65
 73
0
 40
0.0
  0
ENDTAB
  0
TABLE
  2
LAYER
 70
1
  0
LAYER
  2
0
 70
64
 62
7
  6
continuous
  0
ENDTAB
  0
TABLE
  2
STYLE
 70
1
  0
STYLE
  2
STANDARD
 70
0
 40
0
 41
1.0
 50
0.0
 71
0
 42
1
 3
ARIAL.TTF
 4

  0
ENDTAB
  0
TABLE
  2
VIEW
 70
0
  0
ENDTAB
  0
ENDSEC
  0
SECTION
  2
BLOCKS
  0
ENDSEC
  0
SECTION
  2
ENTITIES
  0
POLYLINE
  8
CUT
 62
0
 70
1
 66
1
 10
0.0
 20
0.0
 30
0.0
  0
VERTEX
  8
CUT
 10
-11.25
 20
22.542499999999993
 30
0.0
 42
0.4142135623730934
  0
VERTEX
  8
CUT
 10
-11.5
 20
22.292499999999993
 30
0.0
  0
VERTEX
  8
CUT
 10
-11.5
 20
21.192499999999995
 30
0.0
 42
-0.41421356237309503
  0
VERTEX
  8
CUT
 10
-11.75
 20
20.942499999999995
 30
0.0
  0
VERTEX
  8
CUT
 10
-14.25
 20
20.942499999999995
 30
0.0
 42
-0.41421356237309415
  0
VERTEX
  8
CUT
 10
-14.5
 20
21.192499999999995
 30
0.0
  0
VERTEX
  8
CUT
 10
-14.5
 20
22.2925
 30
0.0
 42
0.41421356237309515
  0
VERTEX
  8
CUT
 10
-14.75
 20
22.5425
 30
0.0
  0
VERTEX
  8
CUT
 10
-17.462500000000002
 20
22.542500000000004
 30
0.0
 42
0.4142135623730949
  0
VERTEX
  8
CUT
 10
-22.5425
 20
17.46250000000001
 30
0.0
  0
VERTEX
  8
CUT
 10
-22.5425
 20
-17.462500000000002
 30
0.0
 42
0.41421356237309503
  0
VERTEX
  8
CUT
 10
-17.462500000000002
 20
-22.542500000000004
 30
0.0
  0
VERTEX
  8
CUT
 10
17.462500000000002
 20
-22.542500000000004
 30
0.0
 42
0.41421356237309503
  0
VERTEX
  8
CUT
 10
22.542500000000004
 20
-17.46250000000001
 30
0.0
  0
VERTEX
  8
CUT
 10
22.542500000000004
 20
17.462500000000002
 30
0.0
 42
0.4142135623730948
  0
VERTEX
  8
CUT
 10
17.462500000000002
 20
22.5425
 30
0.0
  0
VERTEX
  8
CUT
 10
14.749999999998105
 20
22.5425
 30
0.0
 42
0.41421356237309626
  0
VERTEX
  8
CUT
 10
14.499999999998105
 20
22.2925
 30
0.0
  0
VERTEX
  8
CUT
 10
14.499999999998105
 20
21.192500000000003
 30
0.0
 42
-0.41421356237309687
  0
VERTEX
  8
CUT
 10
14.249999999998105
 20
20.942500000000003
 30
0.0
  0
VERTEX
  8
CUT
 10
11.749999999998105
 20
20.942500000000003
 30
0.0
 42
-0.4142135623730932
  0
VERTEX
  8
CUT
 10
11.499999999998105
 20
21.192500000000003
 30
0.0
  0
VERTEX
  8
CUT
 10
11.499999999998105
 20
22.292499999999993
 30
0.0
 42
0.4142135623730931
  0
VERTEX
  8
CUT
 10
11.249999999998105
 20
22.542499999999993
 30
0.0
  0
VERTEX
  8
CUT
 10
1.75
 20
22.542499999999993
 30
0.0
 42
0.4142135623730963
  0
VERTEX
  8
CUT
 10
1.5
 20
22.292499999999993
 30
0.0
  0
VERTEX
  8
CUT
 10
1.5
 20
21.192499999999995
 30
0.0
 42
-0.4142135623730953
  0
VERTEX
  8
CUT
 10
1.25
 20
20.942499999999995
 30
0.0
  0
VERTEX
  8
CUT
 10
-1.25
 20
20.942499999999995
 30
0.0
 42
-0.4142135623730959
  0
VERTEX
  8
CUT
 10
-1.5
 20
21.192499999999995
 30
0.0
  0
VERTEX
  8
CUT
 10
-1.5
 20
22.292499999999993
 30
0.0
 42
0.4142135623730931
  0
VERTEX
  8
CUT
 10
-1.75
 20
22.542499999999993
 30
0.0
  0
SEQEND
  8
CUT
  0
ENDSEC
  0
EOF
