ISO-10303-21;
HEADER;
FILE_DESCRIPTION(('FreeCAD Model'),'2;1');
FILE_NAME('Open CASCADE Shape Model','2025-08-15T14:32:28',(''),(''),
  'Open CASCADE STEP processor 7.8','FreeCAD','Unknown');
FILE_SCHEMA(('AUTOMOTIVE_DESIGN { 1 0 10303 214 1 1 1 1 }'));
ENDSEC;
DATA;
#1 = APPLICATION_PROTOCOL_DEFINITION('international standard',
  'automotive_design',2000,#2);
#2 = APPLICATION_CONTEXT(
  'core data for automotive mechanical design processes');
#3 = SHAPE_DEFINITION_REPRESENTATION(#4,#10);
#4 = PRODUCT_DEFINITION_SHAPE('','',#5);
#5 = PRODUCT_DEFINITION('design','',#6,#9);
#6 = PRODUCT_DEFINITION_FORMATION('','',#7);
#7 = PRODUCT('Wood Enclosure - CNC Beech - water-poly finish',
  'Wood Enclosure - CNC Beech - water-poly finish','',(#8));
#8 = PRODUCT_CONTEXT('',#2,'mechanical');
#9 = PRODUCT_DEFINITION_CONTEXT('part definition',#2,'design');
#10 = ADVANCED_BREP_SHAPE_REPRESENTATION('',(#11,#15),#1527);
#11 = AXIS2_PLACEMENT_3D('',#12,#13,#14);
#12 = CARTESIAN_POINT('',(0.,0.,0.));
#13 = DIRECTION('',(0.,0.,1.));
#14 = DIRECTION('',(1.,0.,-0.));
#15 = MANIFOLD_SOLID_BREP('',#16);
#16 = CLOSED_SHELL('',(#17,#163,#196,#222,#248,#273,#298,#324,#350,#367,
    #409,#503,#527,#544,#575,#600,#625,#710,#741,#766,#791,#815,#839,
    #864,#889,#906,#929,#1075,#1107,#1131,#1156,#1180,#1205,#1229,#1254,
    #1271,#1316,#1341,#1365,#1390,#1414,#1439,#1463,#1481,#1501));
#17 = ADVANCED_FACE('',(#18,#88,#122),#158,.F.);
#18 = FACE_BOUND('',#19,.F.);
#19 = EDGE_LOOP('',(#20,#30,#39,#47,#56,#64,#73,#81));
#20 = ORIENTED_EDGE('',*,*,#21,.T.);
#21 = EDGE_CURVE('',#22,#24,#26,.T.);
#22 = VERTEX_POINT('',#23);
#23 = CARTESIAN_POINT('',(-25.4,-11.555,-1.99));
#24 = VERTEX_POINT('',#25);
#25 = CARTESIAN_POINT('',(-25.4,-5.325,-1.99));
#26 = LINE('',#27,#28);
#27 = CARTESIAN_POINT('',(-25.4,-11.555,-1.99));
#28 = VECTOR('',#29,1.);
#29 = DIRECTION('',(4.4E-16,1.,2.2E-16));
#30 = ORIENTED_EDGE('',*,*,#31,.T.);
#31 = EDGE_CURVE('',#24,#32,#34,.T.);
#32 = VERTEX_POINT('',#33);
#33 = CARTESIAN_POINT('',(-25.4,-2.345,-4.97));
#34 = CIRCLE('',#35,2.98);
#35 = AXIS2_PLACEMENT_3D('',#36,#37,#38);
#36 = CARTESIAN_POINT('',(-25.4,-5.325,-4.97));
#37 = DIRECTION('',(-1.,0.,0.));
#38 = DIRECTION('',(0.,5.6E-16,1.));
#39 = ORIENTED_EDGE('',*,*,#40,.T.);
#40 = EDGE_CURVE('',#32,#41,#43,.T.);
#41 = VERTEX_POINT('',#42);
#42 = CARTESIAN_POINT('',(-25.4,-2.345,-5.37));
#43 = LINE('',#44,#45);
#44 = CARTESIAN_POINT('',(-25.4,-2.345,-4.97));
#45 = VECTOR('',#46,1.);
#46 = DIRECTION('',(2.2E-16,2.2E-16,-1.));
#47 = ORIENTED_EDGE('',*,*,#48,.T.);
#48 = EDGE_CURVE('',#41,#49,#51,.T.);
#49 = VERTEX_POINT('',#50);
#50 = CARTESIAN_POINT('',(-25.4,-5.325,-8.35));
#51 = CIRCLE('',#52,2.98);
#52 = AXIS2_PLACEMENT_3D('',#53,#54,#55);
#53 = CARTESIAN_POINT('',(-25.4,-5.325,-5.37));
#54 = DIRECTION('',(-1.,0.,0.));
#55 = DIRECTION('',(0.,1.,0.));
#56 = ORIENTED_EDGE('',*,*,#57,.T.);
#57 = EDGE_CURVE('',#49,#58,#60,.T.);
#58 = VERTEX_POINT('',#59);
#59 = CARTESIAN_POINT('',(-25.4,-11.555,-8.35));
#60 = LINE('',#61,#62);
#61 = CARTESIAN_POINT('',(-25.4,-5.325,-8.35));
#62 = VECTOR('',#63,1.);
#63 = DIRECTION('',(-4.4E-16,-1.,-2.2E-16));
#64 = ORIENTED_EDGE('',*,*,#65,.T.);
#65 = EDGE_CURVE('',#58,#66,#68,.T.);
#66 = VERTEX_POINT('',#67);
#67 = CARTESIAN_POINT('',(-25.4,-14.535,-5.37));
#68 = CIRCLE('',#69,2.98);
#69 = AXIS2_PLACEMENT_3D('',#70,#71,#72);
#70 = CARTESIAN_POINT('',(-25.4,-11.555,-5.37));
#71 = DIRECTION('',(-1.,-0.,-0.));
#72 = DIRECTION('',(0.,0.,-1.));
#73 = ORIENTED_EDGE('',*,*,#74,.T.);
#74 = EDGE_CURVE('',#66,#75,#77,.T.);
#75 = VERTEX_POINT('',#76);
#76 = CARTESIAN_POINT('',(-25.4,-14.535,-4.97));
#77 = LINE('',#78,#79);
#78 = CARTESIAN_POINT('',(-25.4,-14.535,-5.37));
#79 = VECTOR('',#80,1.);
#80 = DIRECTION('',(-2.2E-16,-2.2E-16,1.));
#81 = ORIENTED_EDGE('',*,*,#82,.T.);
#82 = EDGE_CURVE('',#75,#22,#83,.T.);
#83 = CIRCLE('',#84,2.98);
#84 = AXIS2_PLACEMENT_3D('',#85,#86,#87);
#85 = CARTESIAN_POINT('',(-25.4,-11.555,-4.97));
#86 = DIRECTION('',(-1.,0.,0.));
#87 = DIRECTION('',(0.,-1.,0.));
#88 = FACE_BOUND('',#89,.F.);
#89 = EDGE_LOOP('',(#90,#100,#108,#116));
#90 = ORIENTED_EDGE('',*,*,#91,.T.);
#91 = EDGE_CURVE('',#92,#94,#96,.T.);
#92 = VERTEX_POINT('',#93);
#93 = CARTESIAN_POINT('',(-25.4,-25.4,0.));
#94 = VERTEX_POINT('',#95);
#95 = CARTESIAN_POINT('',(-25.4,-25.4,-10.2743));
#96 = LINE('',#97,#98);
#97 = CARTESIAN_POINT('',(-25.4,-25.4,0.));
#98 = VECTOR('',#99,1.);
#99 = DIRECTION('',(-0.,-0.,-1.));
#100 = ORIENTED_EDGE('',*,*,#101,.T.);
#101 = EDGE_CURVE('',#94,#102,#104,.T.);
#102 = VERTEX_POINT('',#103);
#103 = CARTESIAN_POINT('',(-25.4,25.4,-10.2743));
#104 = LINE('',#105,#106);
#105 = CARTESIAN_POINT('',(-25.4,-25.4,-10.2743));
#106 = VECTOR('',#107,1.);
#107 = DIRECTION('',(0.,1.,0.));
#108 = ORIENTED_EDGE('',*,*,#109,.F.);
#109 = EDGE_CURVE('',#110,#102,#112,.T.);
#110 = VERTEX_POINT('',#111);
#111 = CARTESIAN_POINT('',(-25.4,25.4,0.));
#112 = LINE('',#113,#114);
#113 = CARTESIAN_POINT('',(-25.4,25.4,0.));
#114 = VECTOR('',#115,1.);
#115 = DIRECTION('',(-0.,-0.,-1.));
#116 = ORIENTED_EDGE('',*,*,#117,.F.);
#117 = EDGE_CURVE('',#92,#110,#118,.T.);
#118 = LINE('',#119,#120);
#119 = CARTESIAN_POINT('',(-25.4,-25.4,0.));
#120 = VECTOR('',#121,1.);
#121 = DIRECTION('',(0.,1.,0.));
#122 = FACE_BOUND('',#123,.F.);
#123 = EDGE_LOOP('',(#124,#134,#143,#151));
#124 = ORIENTED_EDGE('',*,*,#125,.T.);
#125 = EDGE_CURVE('',#126,#128,#130,.T.);
#126 = VERTEX_POINT('',#127);
#127 = CARTESIAN_POINT('',(-25.4,7.2082,-2.54));
#128 = VERTEX_POINT('',#129);
#129 = CARTESIAN_POINT('',(-25.4,9.7082,-2.54));
#130 = LINE('',#131,#132);
#131 = CARTESIAN_POINT('',(-25.4,7.2082,-2.54));
#132 = VECTOR('',#133,1.);
#133 = DIRECTION('',(0.,1.,0.));
#134 = ORIENTED_EDGE('',*,*,#135,.T.);
#135 = EDGE_CURVE('',#128,#136,#138,.T.);
#136 = VERTEX_POINT('',#137);
#137 = CARTESIAN_POINT('',(-25.4,9.7082,-7.62));
#138 = CIRCLE('',#139,2.54);
#139 = AXIS2_PLACEMENT_3D('',#140,#141,#142);
#140 = CARTESIAN_POINT('',(-25.4,9.7082,-5.08));
#141 = DIRECTION('',(-1.,0.,0.));
#142 = DIRECTION('',(0.,-1.,0.));
#143 = ORIENTED_EDGE('',*,*,#144,.T.);
#144 = EDGE_CURVE('',#136,#145,#147,.T.);
#145 = VERTEX_POINT('',#146);
#146 = CARTESIAN_POINT('',(-25.4,7.2082,-7.62));
#147 = LINE('',#148,#149);
#148 = CARTESIAN_POINT('',(-25.4,9.7082,-7.62));
#149 = VECTOR('',#150,1.);
#150 = DIRECTION('',(0.,-1.,0.));
#151 = ORIENTED_EDGE('',*,*,#152,.T.);
#152 = EDGE_CURVE('',#145,#126,#153,.T.);
#153 = CIRCLE('',#154,2.54);
#154 = AXIS2_PLACEMENT_3D('',#155,#156,#157);
#155 = CARTESIAN_POINT('',(-25.4,7.2082,-5.08));
#156 = DIRECTION('',(-1.,0.,0.));
#157 = DIRECTION('',(0.,-1.,0.));
#158 = PLANE('',#159);
#159 = AXIS2_PLACEMENT_3D('',#160,#161,#162);
#160 = CARTESIAN_POINT('',(-25.4,-25.4,0.));
#161 = DIRECTION('',(1.,0.,0.));
#162 = DIRECTION('',(0.,1.,0.));
#163 = ADVANCED_FACE('',(#164),#191,.T.);
#164 = FACE_BOUND('',#165,.F.);
#165 = EDGE_LOOP('',(#166,#175,#183,#190));
#166 = ORIENTED_EDGE('',*,*,#167,.T.);
#167 = EDGE_CURVE('',#22,#168,#170,.T.);
#168 = VERTEX_POINT('',#169);
#169 = CARTESIAN_POINT('',(-24.02,-11.555,-3.37));
#170 = CIRCLE('',#171,1.38);
#171 = AXIS2_PLACEMENT_3D('',#172,#173,#174);
#172 = CARTESIAN_POINT('',(-24.02,-11.555,-1.99));
#173 = DIRECTION('',(-4.4E-16,-1.,-2.2E-16));
#174 = DIRECTION('',(-1.,4.4E-16,0.));
#175 = ORIENTED_EDGE('',*,*,#176,.T.);
#176 = EDGE_CURVE('',#168,#177,#179,.T.);
#177 = VERTEX_POINT('',#178);
#178 = CARTESIAN_POINT('',(-24.02,-5.325,-3.37));
#179 = LINE('',#180,#181);
#180 = CARTESIAN_POINT('',(-24.02,-11.555,-3.37));
#181 = VECTOR('',#182,1.);
#182 = DIRECTION('',(4.4E-16,1.,2.2E-16));
#183 = ORIENTED_EDGE('',*,*,#184,.F.);
#184 = EDGE_CURVE('',#24,#177,#185,.T.);
#185 = CIRCLE('',#186,1.38);
#186 = AXIS2_PLACEMENT_3D('',#187,#188,#189);
#187 = CARTESIAN_POINT('',(-24.02,-5.325,-1.99));
#188 = DIRECTION('',(-4.4E-16,-1.,-2.2E-16));
#189 = DIRECTION('',(-1.,4.4E-16,0.));
#190 = ORIENTED_EDGE('',*,*,#21,.F.);
#191 = CYLINDRICAL_SURFACE('',#192,1.38);
#192 = AXIS2_PLACEMENT_3D('',#193,#194,#195);
#193 = CARTESIAN_POINT('',(-24.02,-11.555,-1.99));
#194 = DIRECTION('',(4.4E-16,1.,2.2E-16));
#195 = DIRECTION('',(-1.,4.4E-16,0.));
#196 = ADVANCED_FACE('',(#197),#217,.T.);
#197 = FACE_BOUND('',#198,.T.);
#198 = EDGE_LOOP('',(#199,#208,#209,#210));
#199 = ORIENTED_EDGE('',*,*,#200,.F.);
#200 = EDGE_CURVE('',#75,#201,#203,.T.);
#201 = VERTEX_POINT('',#202);
#202 = CARTESIAN_POINT('',(-24.02,-13.155,-4.97));
#203 = CIRCLE('',#204,1.38);
#204 = AXIS2_PLACEMENT_3D('',#205,#206,#207);
#205 = CARTESIAN_POINT('',(-24.02,-14.535,-4.97));
#206 = DIRECTION('',(2.2E-16,2.2E-16,-1.));
#207 = DIRECTION('',(-1.,0.,-2.2E-16));
#208 = ORIENTED_EDGE('',*,*,#82,.T.);
#209 = ORIENTED_EDGE('',*,*,#167,.T.);
#210 = ORIENTED_EDGE('',*,*,#211,.F.);
#211 = EDGE_CURVE('',#201,#168,#212,.T.);
#212 = CIRCLE('',#213,1.6);
#213 = AXIS2_PLACEMENT_3D('',#214,#215,#216);
#214 = CARTESIAN_POINT('',(-24.02,-11.555,-4.97));
#215 = DIRECTION('',(-1.,0.,0.));
#216 = DIRECTION('',(0.,-1.,0.));
#217 = TOROIDAL_SURFACE('',#218,2.98,1.38);
#218 = AXIS2_PLACEMENT_3D('',#219,#220,#221);
#219 = CARTESIAN_POINT('',(-24.02,-11.555,-4.97));
#220 = DIRECTION('',(-1.,-0.,-0.));
#221 = DIRECTION('',(0.,-1.,0.));
#222 = ADVANCED_FACE('',(#223),#243,.T.);
#223 = FACE_BOUND('',#224,.T.);
#224 = EDGE_LOOP('',(#225,#226,#227,#236));
#225 = ORIENTED_EDGE('',*,*,#184,.F.);
#226 = ORIENTED_EDGE('',*,*,#31,.T.);
#227 = ORIENTED_EDGE('',*,*,#228,.T.);
#228 = EDGE_CURVE('',#32,#229,#231,.T.);
#229 = VERTEX_POINT('',#230);
#230 = CARTESIAN_POINT('',(-24.02,-3.725,-4.97));
#231 = CIRCLE('',#232,1.38);
#232 = AXIS2_PLACEMENT_3D('',#233,#234,#235);
#233 = CARTESIAN_POINT('',(-24.02,-2.345,-4.97));
#234 = DIRECTION('',(0.,-1.7E-16,1.));
#235 = DIRECTION('',(0.,1.,1.7E-16));
#236 = ORIENTED_EDGE('',*,*,#237,.F.);
#237 = EDGE_CURVE('',#177,#229,#238,.T.);
#238 = CIRCLE('',#239,1.6);
#239 = AXIS2_PLACEMENT_3D('',#240,#241,#242);
#240 = CARTESIAN_POINT('',(-24.02,-5.325,-4.97));
#241 = DIRECTION('',(-1.,0.,0.));
#242 = DIRECTION('',(0.,5.6E-16,1.));
#243 = TOROIDAL_SURFACE('',#244,2.98,1.38);
#244 = AXIS2_PLACEMENT_3D('',#245,#246,#247);
#245 = CARTESIAN_POINT('',(-24.02,-5.325,-4.97));
#246 = DIRECTION('',(-1.,-0.,-0.));
#247 = DIRECTION('',(0.,5.6E-16,1.));
#248 = ADVANCED_FACE('',(#249),#268,.T.);
#249 = FACE_BOUND('',#250,.F.);
#250 = EDGE_LOOP('',(#251,#260,#266,#267));
#251 = ORIENTED_EDGE('',*,*,#252,.T.);
#252 = EDGE_CURVE('',#66,#253,#255,.T.);
#253 = VERTEX_POINT('',#254);
#254 = CARTESIAN_POINT('',(-24.02,-13.155,-5.37));
#255 = CIRCLE('',#256,1.38);
#256 = AXIS2_PLACEMENT_3D('',#257,#258,#259);
#257 = CARTESIAN_POINT('',(-24.02,-14.535,-5.37));
#258 = DIRECTION('',(0.,6.E-17,-1.));
#259 = DIRECTION('',(0.,-1.,-6.E-17));
#260 = ORIENTED_EDGE('',*,*,#261,.T.);
#261 = EDGE_CURVE('',#253,#201,#262,.T.);
#262 = LINE('',#263,#264);
#263 = CARTESIAN_POINT('',(-24.02,-13.155,-5.37));
#264 = VECTOR('',#265,1.);
#265 = DIRECTION('',(-2.2E-16,-2.2E-16,1.));
#266 = ORIENTED_EDGE('',*,*,#200,.F.);
#267 = ORIENTED_EDGE('',*,*,#74,.F.);
#268 = CYLINDRICAL_SURFACE('',#269,1.38);
#269 = AXIS2_PLACEMENT_3D('',#270,#271,#272);
#270 = CARTESIAN_POINT('',(-24.02,-14.535,-5.37));
#271 = DIRECTION('',(-2.2E-16,-2.2E-16,1.));
#272 = DIRECTION('',(-1.,0.,-2.2E-16));
#273 = ADVANCED_FACE('',(#274),#293,.T.);
#274 = FACE_BOUND('',#275,.F.);
#275 = EDGE_LOOP('',(#276,#277,#285,#292));
#276 = ORIENTED_EDGE('',*,*,#228,.T.);
#277 = ORIENTED_EDGE('',*,*,#278,.T.);
#278 = EDGE_CURVE('',#229,#279,#281,.T.);
#279 = VERTEX_POINT('',#280);
#280 = CARTESIAN_POINT('',(-24.02,-3.725,-5.37));
#281 = LINE('',#282,#283);
#282 = CARTESIAN_POINT('',(-24.02,-3.725,-4.97));
#283 = VECTOR('',#284,1.);
#284 = DIRECTION('',(2.2E-16,2.2E-16,-1.));
#285 = ORIENTED_EDGE('',*,*,#286,.F.);
#286 = EDGE_CURVE('',#41,#279,#287,.T.);
#287 = CIRCLE('',#288,1.38);
#288 = AXIS2_PLACEMENT_3D('',#289,#290,#291);
#289 = CARTESIAN_POINT('',(-24.02,-2.345,-5.37));
#290 = DIRECTION('',(-2.2E-16,-2.2E-16,1.));
#291 = DIRECTION('',(-1.,0.,-2.2E-16));
#292 = ORIENTED_EDGE('',*,*,#40,.F.);
#293 = CYLINDRICAL_SURFACE('',#294,1.38);
#294 = AXIS2_PLACEMENT_3D('',#295,#296,#297);
#295 = CARTESIAN_POINT('',(-24.02,-2.345,-4.97));
#296 = DIRECTION('',(2.2E-16,2.2E-16,-1.));
#297 = DIRECTION('',(-1.,0.,-2.2E-16));
#298 = ADVANCED_FACE('',(#299),#319,.T.);
#299 = FACE_BOUND('',#300,.T.);
#300 = EDGE_LOOP('',(#301,#310,#311,#312));
#301 = ORIENTED_EDGE('',*,*,#302,.F.);
#302 = EDGE_CURVE('',#58,#303,#305,.T.);
#303 = VERTEX_POINT('',#304);
#304 = CARTESIAN_POINT('',(-24.02,-11.555,-6.97));
#305 = CIRCLE('',#306,1.38);
#306 = AXIS2_PLACEMENT_3D('',#307,#308,#309);
#307 = CARTESIAN_POINT('',(-24.02,-11.555,-8.35));
#308 = DIRECTION('',(4.4E-16,1.,2.2E-16));
#309 = DIRECTION('',(-1.,4.4E-16,0.));
#310 = ORIENTED_EDGE('',*,*,#65,.T.);
#311 = ORIENTED_EDGE('',*,*,#252,.T.);
#312 = ORIENTED_EDGE('',*,*,#313,.F.);
#313 = EDGE_CURVE('',#303,#253,#314,.T.);
#314 = CIRCLE('',#315,1.6);
#315 = AXIS2_PLACEMENT_3D('',#316,#317,#318);
#316 = CARTESIAN_POINT('',(-24.02,-11.555,-5.37));
#317 = DIRECTION('',(-1.,-0.,-0.));
#318 = DIRECTION('',(0.,0.,-1.));
#319 = TOROIDAL_SURFACE('',#320,2.98,1.38);
#320 = AXIS2_PLACEMENT_3D('',#321,#322,#323);
#321 = CARTESIAN_POINT('',(-24.02,-11.555,-5.37));
#322 = DIRECTION('',(-1.,-0.,-0.));
#323 = DIRECTION('',(0.,0.,-1.));
#324 = ADVANCED_FACE('',(#325),#345,.T.);
#325 = FACE_BOUND('',#326,.T.);
#326 = EDGE_LOOP('',(#327,#328,#329,#338));
#327 = ORIENTED_EDGE('',*,*,#286,.F.);
#328 = ORIENTED_EDGE('',*,*,#48,.T.);
#329 = ORIENTED_EDGE('',*,*,#330,.T.);
#330 = EDGE_CURVE('',#49,#331,#333,.T.);
#331 = VERTEX_POINT('',#332);
#332 = CARTESIAN_POINT('',(-24.02,-5.325,-6.97));
#333 = CIRCLE('',#334,1.38);
#334 = AXIS2_PLACEMENT_3D('',#335,#336,#337);
#335 = CARTESIAN_POINT('',(-24.02,-5.325,-8.35));
#336 = DIRECTION('',(0.,1.,5.1E-16));
#337 = DIRECTION('',(0.,5.1E-16,-1.));
#338 = ORIENTED_EDGE('',*,*,#339,.F.);
#339 = EDGE_CURVE('',#279,#331,#340,.T.);
#340 = CIRCLE('',#341,1.6);
#341 = AXIS2_PLACEMENT_3D('',#342,#343,#344);
#342 = CARTESIAN_POINT('',(-24.02,-5.325,-5.37));
#343 = DIRECTION('',(-1.,0.,0.));
#344 = DIRECTION('',(0.,1.,0.));
#345 = TOROIDAL_SURFACE('',#346,2.98,1.38);
#346 = AXIS2_PLACEMENT_3D('',#347,#348,#349);
#347 = CARTESIAN_POINT('',(-24.02,-5.325,-5.37));
#348 = DIRECTION('',(-1.,-0.,-0.));
#349 = DIRECTION('',(0.,1.,0.));
#350 = ADVANCED_FACE('',(#351),#362,.T.);
#351 = FACE_BOUND('',#352,.F.);
#352 = EDGE_LOOP('',(#353,#354,#360,#361));
#353 = ORIENTED_EDGE('',*,*,#330,.T.);
#354 = ORIENTED_EDGE('',*,*,#355,.T.);
#355 = EDGE_CURVE('',#331,#303,#356,.T.);
#356 = LINE('',#357,#358);
#357 = CARTESIAN_POINT('',(-24.02,-5.325,-6.97));
#358 = VECTOR('',#359,1.);
#359 = DIRECTION('',(-4.4E-16,-1.,-2.2E-16));
#360 = ORIENTED_EDGE('',*,*,#302,.F.);
#361 = ORIENTED_EDGE('',*,*,#57,.F.);
#362 = CYLINDRICAL_SURFACE('',#363,1.38);
#363 = AXIS2_PLACEMENT_3D('',#364,#365,#366);
#364 = CARTESIAN_POINT('',(-24.02,-5.325,-8.35));
#365 = DIRECTION('',(-4.4E-16,-1.,-2.2E-16));
#366 = DIRECTION('',(-1.,4.4E-16,0.));
#367 = ADVANCED_FACE('',(#368,#393),#404,.F.);
#368 = FACE_BOUND('',#369,.F.);
#369 = EDGE_LOOP('',(#370,#380,#386,#387));
#370 = ORIENTED_EDGE('',*,*,#371,.T.);
#371 = EDGE_CURVE('',#372,#374,#376,.T.);
#372 = VERTEX_POINT('',#373);
#373 = CARTESIAN_POINT('',(25.4,-25.4,0.));
#374 = VERTEX_POINT('',#375);
#375 = CARTESIAN_POINT('',(25.4,-25.4,-10.2743));
#376 = LINE('',#377,#378);
#377 = CARTESIAN_POINT('',(25.4,-25.4,0.));
#378 = VECTOR('',#379,1.);
#379 = DIRECTION('',(-0.,-0.,-1.));
#380 = ORIENTED_EDGE('',*,*,#381,.T.);
#381 = EDGE_CURVE('',#374,#94,#382,.T.);
#382 = LINE('',#383,#384);
#383 = CARTESIAN_POINT('',(25.4,-25.4,-10.2743));
#384 = VECTOR('',#385,1.);
#385 = DIRECTION('',(-1.,0.,0.));
#386 = ORIENTED_EDGE('',*,*,#91,.F.);
#387 = ORIENTED_EDGE('',*,*,#388,.F.);
#388 = EDGE_CURVE('',#372,#92,#389,.T.);
#389 = LINE('',#390,#391);
#390 = CARTESIAN_POINT('',(25.4,-25.4,0.));
#391 = VECTOR('',#392,1.);
#392 = DIRECTION('',(-1.,0.,0.));
#393 = FACE_BOUND('',#394,.F.);
#394 = EDGE_LOOP('',(#395));
#395 = ORIENTED_EDGE('',*,*,#396,.F.);
#396 = EDGE_CURVE('',#397,#397,#399,.T.);
#397 = VERTEX_POINT('',#398);
#398 = CARTESIAN_POINT('',(19.649993708017,-25.39993512184,
    -5.100034767919));
#399 = CIRCLE('',#400,1.75);
#400 = AXIS2_PLACEMENT_3D('',#401,#402,#403);
#401 = CARTESIAN_POINT('',(21.399993707851,-25.39995678246,
    -5.10002418639));
#402 = DIRECTION('',(1.237746008527E-05,0.999999999905,
    6.046662848999E-06));
#403 = DIRECTION('',(-0.999999999905,1.237749664695E-05,
    -6.046588007023E-06));
#404 = PLANE('',#405);
#405 = AXIS2_PLACEMENT_3D('',#406,#407,#408);
#406 = CARTESIAN_POINT('',(25.4,-25.4,0.));
#407 = DIRECTION('',(0.,1.,0.));
#408 = DIRECTION('',(-1.,0.,0.));
#409 = ADVANCED_FACE('',(#410,#428),#498,.T.);
#410 = FACE_BOUND('',#411,.T.);
#411 = EDGE_LOOP('',(#412,#413,#414,#422));
#412 = ORIENTED_EDGE('',*,*,#117,.F.);
#413 = ORIENTED_EDGE('',*,*,#388,.F.);
#414 = ORIENTED_EDGE('',*,*,#415,.F.);
#415 = EDGE_CURVE('',#416,#372,#418,.T.);
#416 = VERTEX_POINT('',#417);
#417 = CARTESIAN_POINT('',(25.4,25.4,0.));
#418 = LINE('',#419,#420);
#419 = CARTESIAN_POINT('',(25.4,25.4,0.));
#420 = VECTOR('',#421,1.);
#421 = DIRECTION('',(0.,-1.,0.));
#422 = ORIENTED_EDGE('',*,*,#423,.F.);
#423 = EDGE_CURVE('',#110,#416,#424,.T.);
#424 = LINE('',#425,#426);
#425 = CARTESIAN_POINT('',(-25.4,25.4,0.));
#426 = VECTOR('',#427,1.);
#427 = DIRECTION('',(1.,0.,0.));
#428 = FACE_BOUND('',#429,.T.);
#429 = EDGE_LOOP('',(#430,#441,#449,#458,#466,#475,#483,#492));
#430 = ORIENTED_EDGE('',*,*,#431,.F.);
#431 = EDGE_CURVE('',#432,#434,#436,.T.);
#432 = VERTEX_POINT('',#433);
#433 = CARTESIAN_POINT('',(17.780007499745,-22.85999999999,0.));
#434 = VERTEX_POINT('',#435);
#435 = CARTESIAN_POINT('',(22.859999999995,-17.77999282185,0.));
#436 = CIRCLE('',#437,5.08);
#437 = AXIS2_PLACEMENT_3D('',#438,#439,#440);
#438 = CARTESIAN_POINT('',(17.78,-17.78,0.));
#439 = DIRECTION('',(0.,0.,1.));
#440 = DIRECTION('',(1.,0.,0.));
#441 = ORIENTED_EDGE('',*,*,#442,.T.);
#442 = EDGE_CURVE('',#432,#443,#445,.T.);
#443 = VERTEX_POINT('',#444);
#444 = CARTESIAN_POINT('',(-17.78000722488,-22.85999999999,0.));
#445 = LINE('',#446,#447);
#446 = CARTESIAN_POINT('',(17.780007499745,-22.85999999999,0.));
#447 = VECTOR('',#448,1.);
#448 = DIRECTION('',(-1.,0.,0.));
#449 = ORIENTED_EDGE('',*,*,#450,.F.);
#450 = EDGE_CURVE('',#451,#443,#453,.T.);
#451 = VERTEX_POINT('',#452);
#452 = CARTESIAN_POINT('',(-22.85999999999,-17.77999277511,0.));
#453 = CIRCLE('',#454,5.08);
#454 = AXIS2_PLACEMENT_3D('',#455,#456,#457);
#455 = CARTESIAN_POINT('',(-17.78,-17.78,0.));
#456 = DIRECTION('',(0.,0.,1.));
#457 = DIRECTION('',(1.,0.,0.));
#458 = ORIENTED_EDGE('',*,*,#459,.T.);
#459 = EDGE_CURVE('',#451,#460,#462,.T.);
#460 = VERTEX_POINT('',#461);
#461 = CARTESIAN_POINT('',(-22.85999999999,17.78,0.));
#462 = LINE('',#463,#464);
#463 = CARTESIAN_POINT('',(-22.85999999999,-17.77999277511,0.));
#464 = VECTOR('',#465,1.);
#465 = DIRECTION('',(0.,1.,0.));
#466 = ORIENTED_EDGE('',*,*,#467,.F.);
#467 = EDGE_CURVE('',#468,#460,#470,.T.);
#468 = VERTEX_POINT('',#469);
#469 = CARTESIAN_POINT('',(-17.77999633417,22.859999999999,0.));
#470 = CIRCLE('',#471,5.08);
#471 = AXIS2_PLACEMENT_3D('',#472,#473,#474);
#472 = CARTESIAN_POINT('',(-17.78,17.78,0.));
#473 = DIRECTION('',(0.,0.,1.));
#474 = DIRECTION('',(1.,0.,0.));
#475 = ORIENTED_EDGE('',*,*,#476,.T.);
#476 = EDGE_CURVE('',#468,#477,#479,.T.);
#477 = VERTEX_POINT('',#478);
#478 = CARTESIAN_POINT('',(17.779999999693,22.86,0.));
#479 = LINE('',#480,#481);
#480 = CARTESIAN_POINT('',(-17.77999633417,22.86,0.));
#481 = VECTOR('',#482,1.);
#482 = DIRECTION('',(1.,0.,0.));
#483 = ORIENTED_EDGE('',*,*,#484,.F.);
#484 = EDGE_CURVE('',#485,#477,#487,.T.);
#485 = VERTEX_POINT('',#486);
#486 = CARTESIAN_POINT('',(22.859999999997,17.78,0.));
#487 = CIRCLE('',#488,5.08);
#488 = AXIS2_PLACEMENT_3D('',#489,#490,#491);
#489 = CARTESIAN_POINT('',(17.78,17.78,0.));
#490 = DIRECTION('',(0.,0.,1.));
#491 = DIRECTION('',(1.,0.,0.));
#492 = ORIENTED_EDGE('',*,*,#493,.T.);
#493 = EDGE_CURVE('',#485,#434,#494,.T.);
#494 = LINE('',#495,#496);
#495 = CARTESIAN_POINT('',(22.859999999995,17.78,0.));
#496 = VECTOR('',#497,1.);
#497 = DIRECTION('',(0.,-1.,0.));
#498 = PLANE('',#499);
#499 = AXIS2_PLACEMENT_3D('',#500,#501,#502);
#500 = CARTESIAN_POINT('',(-1.12E-15,1.12E-15,0.));
#501 = DIRECTION('',(0.,0.,1.));
#502 = DIRECTION('',(1.,0.,0.));
#503 = ADVANCED_FACE('',(#504),#522,.F.);
#504 = FACE_BOUND('',#505,.T.);
#505 = EDGE_LOOP('',(#506,#507,#515,#521));
#506 = ORIENTED_EDGE('',*,*,#101,.T.);
#507 = ORIENTED_EDGE('',*,*,#508,.T.);
#508 = EDGE_CURVE('',#102,#509,#511,.T.);
#509 = VERTEX_POINT('',#510);
#510 = CARTESIAN_POINT('',(25.4,25.4,-10.2743));
#511 = LINE('',#512,#513);
#512 = CARTESIAN_POINT('',(-25.4,25.4,-10.2743));
#513 = VECTOR('',#514,1.);
#514 = DIRECTION('',(1.,0.,0.));
#515 = ORIENTED_EDGE('',*,*,#516,.T.);
#516 = EDGE_CURVE('',#509,#374,#517,.T.);
#517 = LINE('',#518,#519);
#518 = CARTESIAN_POINT('',(25.4,25.4,-10.2743));
#519 = VECTOR('',#520,1.);
#520 = DIRECTION('',(0.,-1.,0.));
#521 = ORIENTED_EDGE('',*,*,#381,.T.);
#522 = PLANE('',#523);
#523 = AXIS2_PLACEMENT_3D('',#524,#525,#526);
#524 = CARTESIAN_POINT('',(-1.12E-15,1.12E-15,-10.2743));
#525 = DIRECTION('',(0.,0.,1.));
#526 = DIRECTION('',(1.,0.,0.));
#527 = ADVANCED_FACE('',(#528),#539,.F.);
#528 = FACE_BOUND('',#529,.F.);
#529 = EDGE_LOOP('',(#530,#531,#532,#538));
#530 = ORIENTED_EDGE('',*,*,#109,.T.);
#531 = ORIENTED_EDGE('',*,*,#508,.T.);
#532 = ORIENTED_EDGE('',*,*,#533,.F.);
#533 = EDGE_CURVE('',#416,#509,#534,.T.);
#534 = LINE('',#535,#536);
#535 = CARTESIAN_POINT('',(25.4,25.4,0.));
#536 = VECTOR('',#537,1.);
#537 = DIRECTION('',(-0.,-0.,-1.));
#538 = ORIENTED_EDGE('',*,*,#423,.F.);
#539 = PLANE('',#540);
#540 = AXIS2_PLACEMENT_3D('',#541,#542,#543);
#541 = CARTESIAN_POINT('',(-25.4,25.4,0.));
#542 = DIRECTION('',(0.,-1.,0.));
#543 = DIRECTION('',(1.,0.,0.));
#544 = ADVANCED_FACE('',(#545),#570,.F.);
#545 = FACE_BOUND('',#546,.F.);
#546 = EDGE_LOOP('',(#547,#548,#556,#564));
#547 = ORIENTED_EDGE('',*,*,#125,.F.);
#548 = ORIENTED_EDGE('',*,*,#549,.T.);
#549 = EDGE_CURVE('',#126,#550,#552,.T.);
#550 = VERTEX_POINT('',#551);
#551 = CARTESIAN_POINT('',(-22.225,7.2082,-2.54));
#552 = LINE('',#553,#554);
#553 = CARTESIAN_POINT('',(-25.4,7.2082,-2.54));
#554 = VECTOR('',#555,1.);
#555 = DIRECTION('',(1.,-1.1E-16,1.1E-16));
#556 = ORIENTED_EDGE('',*,*,#557,.F.);
#557 = EDGE_CURVE('',#558,#550,#560,.T.);
#558 = VERTEX_POINT('',#559);
#559 = CARTESIAN_POINT('',(-22.225,9.7082,-2.54));
#560 = LINE('',#561,#562);
#561 = CARTESIAN_POINT('',(-22.225,-4.9684,-2.54));
#562 = VECTOR('',#563,1.);
#563 = DIRECTION('',(0.,-1.,-2.2E-16));
#564 = ORIENTED_EDGE('',*,*,#565,.F.);
#565 = EDGE_CURVE('',#128,#558,#566,.T.);
#566 = LINE('',#567,#568);
#567 = CARTESIAN_POINT('',(-25.4,9.7082,-2.54));
#568 = VECTOR('',#569,1.);
#569 = DIRECTION('',(1.,-1.1E-16,1.1E-16));
#570 = PLANE('',#571);
#571 = AXIS2_PLACEMENT_3D('',#572,#573,#574);
#572 = CARTESIAN_POINT('',(-25.4,7.2082,-2.54));
#573 = DIRECTION('',(-1.1E-16,-2.2E-16,1.));
#574 = DIRECTION('',(4.4E-16,1.,2.2E-16));
#575 = ADVANCED_FACE('',(#576),#595,.F.);
#576 = FACE_BOUND('',#577,.F.);
#577 = EDGE_LOOP('',(#578,#579,#587,#594));
#578 = ORIENTED_EDGE('',*,*,#152,.F.);
#579 = ORIENTED_EDGE('',*,*,#580,.T.);
#580 = EDGE_CURVE('',#145,#581,#583,.T.);
#581 = VERTEX_POINT('',#582);
#582 = CARTESIAN_POINT('',(-22.225,7.2082,-7.62));
#583 = LINE('',#584,#585);
#584 = CARTESIAN_POINT('',(-25.4,7.2082,-7.62));
#585 = VECTOR('',#586,1.);
#586 = DIRECTION('',(1.,-1.1E-16,1.1E-16));
#587 = ORIENTED_EDGE('',*,*,#588,.T.);
#588 = EDGE_CURVE('',#581,#550,#589,.T.);
#589 = CIRCLE('',#590,2.54);
#590 = AXIS2_PLACEMENT_3D('',#591,#592,#593);
#591 = CARTESIAN_POINT('',(-22.225,7.2082,-5.08));
#592 = DIRECTION('',(-1.,4.4E-16,-2.2E-16));
#593 = DIRECTION('',(-4.4E-16,-1.,-2.2E-16));
#594 = ORIENTED_EDGE('',*,*,#549,.F.);
#595 = CYLINDRICAL_SURFACE('',#596,2.54);
#596 = AXIS2_PLACEMENT_3D('',#597,#598,#599);
#597 = CARTESIAN_POINT('',(-25.4,7.2082,-5.08));
#598 = DIRECTION('',(-1.,4.4E-16,-2.2E-16));
#599 = DIRECTION('',(-4.4E-16,-1.,-2.2E-16));
#600 = ADVANCED_FACE('',(#601),#620,.F.);
#601 = FACE_BOUND('',#602,.F.);
#602 = EDGE_LOOP('',(#603,#604,#605,#614));
#603 = ORIENTED_EDGE('',*,*,#135,.F.);
#604 = ORIENTED_EDGE('',*,*,#565,.T.);
#605 = ORIENTED_EDGE('',*,*,#606,.T.);
#606 = EDGE_CURVE('',#558,#607,#609,.T.);
#607 = VERTEX_POINT('',#608);
#608 = CARTESIAN_POINT('',(-22.225,9.7082,-7.62));
#609 = CIRCLE('',#610,2.54);
#610 = AXIS2_PLACEMENT_3D('',#611,#612,#613);
#611 = CARTESIAN_POINT('',(-22.225,9.7082,-5.08));
#612 = DIRECTION('',(-1.,4.4E-16,-2.2E-16));
#613 = DIRECTION('',(-4.4E-16,-1.,-2.2E-16));
#614 = ORIENTED_EDGE('',*,*,#615,.F.);
#615 = EDGE_CURVE('',#136,#607,#616,.T.);
#616 = LINE('',#617,#618);
#617 = CARTESIAN_POINT('',(-25.4,9.7082,-7.62));
#618 = VECTOR('',#619,1.);
#619 = DIRECTION('',(1.,-1.1E-16,1.1E-16));
#620 = CYLINDRICAL_SURFACE('',#621,2.54);
#621 = AXIS2_PLACEMENT_3D('',#622,#623,#624);
#622 = CARTESIAN_POINT('',(-25.4,9.7082,-5.08));
#623 = DIRECTION('',(-1.,4.4E-16,-2.2E-16));
#624 = DIRECTION('',(-4.4E-16,-1.,-2.2E-16));
#625 = ADVANCED_FACE('',(#626),#705,.T.);
#626 = FACE_BOUND('',#627,.T.);
#627 = EDGE_LOOP('',(#628,#629,#630,#638,#647,#655,#664,#672,#681,#689,
    #698,#704));
#628 = ORIENTED_EDGE('',*,*,#144,.T.);
#629 = ORIENTED_EDGE('',*,*,#580,.T.);
#630 = ORIENTED_EDGE('',*,*,#631,.F.);
#631 = EDGE_CURVE('',#632,#581,#634,.T.);
#632 = VERTEX_POINT('',#633);
#633 = CARTESIAN_POINT('',(-22.225,-17.145,-7.62));
#634 = LINE('',#635,#636);
#635 = CARTESIAN_POINT('',(-22.225,-17.145,-7.62));
#636 = VECTOR('',#637,1.);
#637 = DIRECTION('',(0.,1.,0.));
#638 = ORIENTED_EDGE('',*,*,#639,.T.);
#639 = EDGE_CURVE('',#632,#640,#642,.T.);
#640 = VERTEX_POINT('',#641);
#641 = CARTESIAN_POINT('',(-17.145,-22.225,-7.62));
#642 = CIRCLE('',#643,5.08);
#643 = AXIS2_PLACEMENT_3D('',#644,#645,#646);
#644 = CARTESIAN_POINT('',(-17.145,-17.145,-7.62));
#645 = DIRECTION('',(0.,0.,1.));
#646 = DIRECTION('',(1.,0.,0.));
#647 = ORIENTED_EDGE('',*,*,#648,.F.);
#648 = EDGE_CURVE('',#649,#640,#651,.T.);
#649 = VERTEX_POINT('',#650);
#650 = CARTESIAN_POINT('',(17.145,-22.225,-7.62));
#651 = LINE('',#652,#653);
#652 = CARTESIAN_POINT('',(17.145,-22.225,-7.62));
#653 = VECTOR('',#654,1.);
#654 = DIRECTION('',(-1.,0.,0.));
#655 = ORIENTED_EDGE('',*,*,#656,.T.);
#656 = EDGE_CURVE('',#649,#657,#659,.T.);
#657 = VERTEX_POINT('',#658);
#658 = CARTESIAN_POINT('',(22.225,-17.145,-7.62));
#659 = CIRCLE('',#660,5.08);
#660 = AXIS2_PLACEMENT_3D('',#661,#662,#663);
#661 = CARTESIAN_POINT('',(17.145,-17.145,-7.62));
#662 = DIRECTION('',(0.,0.,1.));
#663 = DIRECTION('',(1.,0.,0.));
#664 = ORIENTED_EDGE('',*,*,#665,.F.);
#665 = EDGE_CURVE('',#666,#657,#668,.T.);
#666 = VERTEX_POINT('',#667);
#667 = CARTESIAN_POINT('',(22.225,17.145,-7.62));
#668 = LINE('',#669,#670);
#669 = CARTESIAN_POINT('',(22.225,17.145,-7.62));
#670 = VECTOR('',#671,1.);
#671 = DIRECTION('',(0.,-1.,0.));
#672 = ORIENTED_EDGE('',*,*,#673,.T.);
#673 = EDGE_CURVE('',#666,#674,#676,.T.);
#674 = VERTEX_POINT('',#675);
#675 = CARTESIAN_POINT('',(17.145,22.225,-7.62));
#676 = CIRCLE('',#677,5.08);
#677 = AXIS2_PLACEMENT_3D('',#678,#679,#680);
#678 = CARTESIAN_POINT('',(17.145,17.145,-7.62));
#679 = DIRECTION('',(0.,0.,1.));
#680 = DIRECTION('',(1.,0.,0.));
#681 = ORIENTED_EDGE('',*,*,#682,.F.);
#682 = EDGE_CURVE('',#683,#674,#685,.T.);
#683 = VERTEX_POINT('',#684);
#684 = CARTESIAN_POINT('',(-17.145,22.225,-7.62));
#685 = LINE('',#686,#687);
#686 = CARTESIAN_POINT('',(-17.145,22.225,-7.62));
#687 = VECTOR('',#688,1.);
#688 = DIRECTION('',(1.,0.,0.));
#689 = ORIENTED_EDGE('',*,*,#690,.T.);
#690 = EDGE_CURVE('',#683,#691,#693,.T.);
#691 = VERTEX_POINT('',#692);
#692 = CARTESIAN_POINT('',(-22.225,17.145,-7.62));
#693 = CIRCLE('',#694,5.08);
#694 = AXIS2_PLACEMENT_3D('',#695,#696,#697);
#695 = CARTESIAN_POINT('',(-17.145,17.145,-7.62));
#696 = DIRECTION('',(0.,0.,1.));
#697 = DIRECTION('',(1.,0.,0.));
#698 = ORIENTED_EDGE('',*,*,#699,.F.);
#699 = EDGE_CURVE('',#607,#691,#700,.T.);
#700 = LINE('',#701,#702);
#701 = CARTESIAN_POINT('',(-22.225,-17.145,-7.62));
#702 = VECTOR('',#703,1.);
#703 = DIRECTION('',(0.,1.,0.));
#704 = ORIENTED_EDGE('',*,*,#615,.F.);
#705 = PLANE('',#706);
#706 = AXIS2_PLACEMENT_3D('',#707,#708,#709);
#707 = CARTESIAN_POINT('',(-0.909071926664,0.306797493072,-7.62));
#708 = DIRECTION('',(0.,0.,1.));
#709 = DIRECTION('',(1.,0.,0.));
#710 = ADVANCED_FACE('',(#711),#736,.F.);
#711 = FACE_BOUND('',#712,.F.);
#712 = EDGE_LOOP('',(#713,#721,#722,#730));
#713 = ORIENTED_EDGE('',*,*,#714,.F.);
#714 = EDGE_CURVE('',#177,#715,#717,.T.);
#715 = VERTEX_POINT('',#716);
#716 = CARTESIAN_POINT('',(-22.225,-5.325,-3.37));
#717 = LINE('',#718,#719);
#718 = CARTESIAN_POINT('',(-25.4,-5.325,-3.37));
#719 = VECTOR('',#720,1.);
#720 = DIRECTION('',(1.,-1.1E-16,1.1E-16));
#721 = ORIENTED_EDGE('',*,*,#176,.F.);
#722 = ORIENTED_EDGE('',*,*,#723,.T.);
#723 = EDGE_CURVE('',#168,#724,#726,.T.);
#724 = VERTEX_POINT('',#725);
#725 = CARTESIAN_POINT('',(-22.225,-11.555,-3.37));
#726 = LINE('',#727,#728);
#727 = CARTESIAN_POINT('',(-25.4,-11.555,-3.37));
#728 = VECTOR('',#729,1.);
#729 = DIRECTION('',(1.,-1.1E-16,1.1E-16));
#730 = ORIENTED_EDGE('',*,*,#731,.F.);
#731 = EDGE_CURVE('',#715,#724,#732,.T.);
#732 = LINE('',#733,#734);
#733 = CARTESIAN_POINT('',(-22.225,-14.35,-3.37));
#734 = VECTOR('',#735,1.);
#735 = DIRECTION('',(0.,-1.,-2.2E-16));
#736 = PLANE('',#737);
#737 = AXIS2_PLACEMENT_3D('',#738,#739,#740);
#738 = CARTESIAN_POINT('',(-25.4,-11.555,-3.37));
#739 = DIRECTION('',(-1.1E-16,-2.2E-16,1.));
#740 = DIRECTION('',(4.4E-16,1.,2.2E-16));
#741 = ADVANCED_FACE('',(#742),#761,.F.);
#742 = FACE_BOUND('',#743,.F.);
#743 = EDGE_LOOP('',(#744,#745,#746,#754));
#744 = ORIENTED_EDGE('',*,*,#723,.F.);
#745 = ORIENTED_EDGE('',*,*,#211,.F.);
#746 = ORIENTED_EDGE('',*,*,#747,.T.);
#747 = EDGE_CURVE('',#201,#748,#750,.T.);
#748 = VERTEX_POINT('',#749);
#749 = CARTESIAN_POINT('',(-22.225,-13.155,-4.97));
#750 = LINE('',#751,#752);
#751 = CARTESIAN_POINT('',(-25.4,-13.155,-4.97));
#752 = VECTOR('',#753,1.);
#753 = DIRECTION('',(1.,-1.1E-16,1.1E-16));
#754 = ORIENTED_EDGE('',*,*,#755,.T.);
#755 = EDGE_CURVE('',#748,#724,#756,.T.);
#756 = CIRCLE('',#757,1.6);
#757 = AXIS2_PLACEMENT_3D('',#758,#759,#760);
#758 = CARTESIAN_POINT('',(-22.225,-11.555,-4.97));
#759 = DIRECTION('',(-1.,4.4E-16,-2.2E-16));
#760 = DIRECTION('',(-4.4E-16,-1.,-2.2E-16));
#761 = CYLINDRICAL_SURFACE('',#762,1.6);
#762 = AXIS2_PLACEMENT_3D('',#763,#764,#765);
#763 = CARTESIAN_POINT('',(-25.4,-11.555,-4.97));
#764 = DIRECTION('',(-1.,4.4E-16,-2.2E-16));
#765 = DIRECTION('',(-4.4E-16,-1.,-2.2E-16));
#766 = ADVANCED_FACE('',(#767),#786,.F.);
#767 = FACE_BOUND('',#768,.F.);
#768 = EDGE_LOOP('',(#769,#777,#778,#779));
#769 = ORIENTED_EDGE('',*,*,#770,.F.);
#770 = EDGE_CURVE('',#229,#771,#773,.T.);
#771 = VERTEX_POINT('',#772);
#772 = CARTESIAN_POINT('',(-22.225,-3.725,-4.97));
#773 = LINE('',#774,#775);
#774 = CARTESIAN_POINT('',(-25.4,-3.725,-4.97));
#775 = VECTOR('',#776,1.);
#776 = DIRECTION('',(1.,-1.1E-16,1.1E-16));
#777 = ORIENTED_EDGE('',*,*,#237,.F.);
#778 = ORIENTED_EDGE('',*,*,#714,.T.);
#779 = ORIENTED_EDGE('',*,*,#780,.T.);
#780 = EDGE_CURVE('',#715,#771,#781,.T.);
#781 = CIRCLE('',#782,1.6);
#782 = AXIS2_PLACEMENT_3D('',#783,#784,#785);
#783 = CARTESIAN_POINT('',(-22.225,-5.325,-4.97));
#784 = DIRECTION('',(-1.,4.4E-16,-2.2E-16));
#785 = DIRECTION('',(-4.4E-16,-1.,-2.2E-16));
#786 = CYLINDRICAL_SURFACE('',#787,1.6);
#787 = AXIS2_PLACEMENT_3D('',#788,#789,#790);
#788 = CARTESIAN_POINT('',(-25.4,-5.325,-4.97));
#789 = DIRECTION('',(-1.,4.4E-16,-2.2E-16));
#790 = DIRECTION('',(-4.4E-16,-1.,-2.2E-16));
#791 = ADVANCED_FACE('',(#792),#810,.T.);
#792 = FACE_BOUND('',#793,.T.);
#793 = EDGE_LOOP('',(#794,#802,#803,#804));
#794 = ORIENTED_EDGE('',*,*,#795,.F.);
#795 = EDGE_CURVE('',#253,#796,#798,.T.);
#796 = VERTEX_POINT('',#797);
#797 = CARTESIAN_POINT('',(-22.225,-13.155,-5.37));
#798 = LINE('',#799,#800);
#799 = CARTESIAN_POINT('',(-25.4,-13.155,-5.37));
#800 = VECTOR('',#801,1.);
#801 = DIRECTION('',(1.,-1.1E-16,1.1E-16));
#802 = ORIENTED_EDGE('',*,*,#261,.T.);
#803 = ORIENTED_EDGE('',*,*,#747,.T.);
#804 = ORIENTED_EDGE('',*,*,#805,.F.);
#805 = EDGE_CURVE('',#796,#748,#806,.T.);
#806 = LINE('',#807,#808);
#807 = CARTESIAN_POINT('',(-22.225,-13.155,-2.485));
#808 = VECTOR('',#809,1.);
#809 = DIRECTION('',(0.,-2.2E-16,1.));
#810 = PLANE('',#811);
#811 = AXIS2_PLACEMENT_3D('',#812,#813,#814);
#812 = CARTESIAN_POINT('',(-25.4,-13.155,-4.97));
#813 = DIRECTION('',(1.1E-16,1.,2.2E-16));
#814 = DIRECTION('',(2.2E-16,2.2E-16,-1.));
#815 = ADVANCED_FACE('',(#816),#834,.F.);
#816 = FACE_BOUND('',#817,.F.);
#817 = EDGE_LOOP('',(#818,#826,#827,#828));
#818 = ORIENTED_EDGE('',*,*,#819,.F.);
#819 = EDGE_CURVE('',#279,#820,#822,.T.);
#820 = VERTEX_POINT('',#821);
#821 = CARTESIAN_POINT('',(-22.225,-3.725,-5.37));
#822 = LINE('',#823,#824);
#823 = CARTESIAN_POINT('',(-25.4,-3.725,-5.37));
#824 = VECTOR('',#825,1.);
#825 = DIRECTION('',(1.,-1.1E-16,1.1E-16));
#826 = ORIENTED_EDGE('',*,*,#278,.F.);
#827 = ORIENTED_EDGE('',*,*,#770,.T.);
#828 = ORIENTED_EDGE('',*,*,#829,.F.);
#829 = EDGE_CURVE('',#820,#771,#830,.T.);
#830 = LINE('',#831,#832);
#831 = CARTESIAN_POINT('',(-22.225,-3.725,-2.485));
#832 = VECTOR('',#833,1.);
#833 = DIRECTION('',(0.,-2.2E-16,1.));
#834 = PLANE('',#835);
#835 = AXIS2_PLACEMENT_3D('',#836,#837,#838);
#836 = CARTESIAN_POINT('',(-25.4,-3.725,-4.97));
#837 = DIRECTION('',(1.1E-16,1.,2.2E-16));
#838 = DIRECTION('',(2.2E-16,2.2E-16,-1.));
#839 = ADVANCED_FACE('',(#840),#859,.F.);
#840 = FACE_BOUND('',#841,.F.);
#841 = EDGE_LOOP('',(#842,#843,#844,#852));
#842 = ORIENTED_EDGE('',*,*,#795,.F.);
#843 = ORIENTED_EDGE('',*,*,#313,.F.);
#844 = ORIENTED_EDGE('',*,*,#845,.T.);
#845 = EDGE_CURVE('',#303,#846,#848,.T.);
#846 = VERTEX_POINT('',#847);
#847 = CARTESIAN_POINT('',(-22.225,-11.555,-6.97));
#848 = LINE('',#849,#850);
#849 = CARTESIAN_POINT('',(-25.4,-11.555,-6.97));
#850 = VECTOR('',#851,1.);
#851 = DIRECTION('',(1.,-1.1E-16,1.1E-16));
#852 = ORIENTED_EDGE('',*,*,#853,.T.);
#853 = EDGE_CURVE('',#846,#796,#854,.T.);
#854 = CIRCLE('',#855,1.6);
#855 = AXIS2_PLACEMENT_3D('',#856,#857,#858);
#856 = CARTESIAN_POINT('',(-22.225,-11.555,-5.37));
#857 = DIRECTION('',(-1.,4.4E-16,-2.2E-16));
#858 = DIRECTION('',(-4.4E-16,-1.,-2.2E-16));
#859 = CYLINDRICAL_SURFACE('',#860,1.6);
#860 = AXIS2_PLACEMENT_3D('',#861,#862,#863);
#861 = CARTESIAN_POINT('',(-25.4,-11.555,-5.37));
#862 = DIRECTION('',(-1.,4.4E-16,-2.2E-16));
#863 = DIRECTION('',(-4.4E-16,-1.,-2.2E-16));
#864 = ADVANCED_FACE('',(#865),#884,.F.);
#865 = FACE_BOUND('',#866,.F.);
#866 = EDGE_LOOP('',(#867,#875,#876,#877));
#867 = ORIENTED_EDGE('',*,*,#868,.F.);
#868 = EDGE_CURVE('',#331,#869,#871,.T.);
#869 = VERTEX_POINT('',#870);
#870 = CARTESIAN_POINT('',(-22.225,-5.325,-6.97));
#871 = LINE('',#872,#873);
#872 = CARTESIAN_POINT('',(-25.4,-5.325,-6.97));
#873 = VECTOR('',#874,1.);
#874 = DIRECTION('',(1.,-1.1E-16,1.1E-16));
#875 = ORIENTED_EDGE('',*,*,#339,.F.);
#876 = ORIENTED_EDGE('',*,*,#819,.T.);
#877 = ORIENTED_EDGE('',*,*,#878,.T.);
#878 = EDGE_CURVE('',#820,#869,#879,.T.);
#879 = CIRCLE('',#880,1.6);
#880 = AXIS2_PLACEMENT_3D('',#881,#882,#883);
#881 = CARTESIAN_POINT('',(-22.225,-5.325,-5.37));
#882 = DIRECTION('',(-1.,4.4E-16,-2.2E-16));
#883 = DIRECTION('',(-4.4E-16,-1.,-2.2E-16));
#884 = CYLINDRICAL_SURFACE('',#885,1.6);
#885 = AXIS2_PLACEMENT_3D('',#886,#887,#888);
#886 = CARTESIAN_POINT('',(-25.4,-5.325,-5.37));
#887 = DIRECTION('',(-1.,4.4E-16,-2.2E-16));
#888 = DIRECTION('',(-4.4E-16,-1.,-2.2E-16));
#889 = ADVANCED_FACE('',(#890),#901,.F.);
#890 = FACE_BOUND('',#891,.F.);
#891 = EDGE_LOOP('',(#892,#893,#894,#895));
#892 = ORIENTED_EDGE('',*,*,#845,.F.);
#893 = ORIENTED_EDGE('',*,*,#355,.F.);
#894 = ORIENTED_EDGE('',*,*,#868,.T.);
#895 = ORIENTED_EDGE('',*,*,#896,.F.);
#896 = EDGE_CURVE('',#846,#869,#897,.T.);
#897 = LINE('',#898,#899);
#898 = CARTESIAN_POINT('',(-22.225,-11.235,-6.97));
#899 = VECTOR('',#900,1.);
#900 = DIRECTION('',(0.,1.,2.2E-16));
#901 = PLANE('',#902);
#902 = AXIS2_PLACEMENT_3D('',#903,#904,#905);
#903 = CARTESIAN_POINT('',(-25.4,-5.325,-6.97));
#904 = DIRECTION('',(1.1E-16,2.2E-16,-1.));
#905 = DIRECTION('',(-4.4E-16,-1.,-2.2E-16));
#906 = ADVANCED_FACE('',(#907,#913),#924,.F.);
#907 = FACE_BOUND('',#908,.F.);
#908 = EDGE_LOOP('',(#909,#910,#911,#912));
#909 = ORIENTED_EDGE('',*,*,#533,.T.);
#910 = ORIENTED_EDGE('',*,*,#516,.T.);
#911 = ORIENTED_EDGE('',*,*,#371,.F.);
#912 = ORIENTED_EDGE('',*,*,#415,.F.);
#913 = FACE_BOUND('',#914,.F.);
#914 = EDGE_LOOP('',(#915));
#915 = ORIENTED_EDGE('',*,*,#916,.T.);
#916 = EDGE_CURVE('',#917,#917,#919,.T.);
#917 = VERTEX_POINT('',#918);
#918 = CARTESIAN_POINT('',(25.4,-19.65,-5.1));
#919 = CIRCLE('',#920,1.75);
#920 = AXIS2_PLACEMENT_3D('',#921,#922,#923);
#921 = CARTESIAN_POINT('',(25.4,-21.4,-5.1));
#922 = DIRECTION('',(1.,0.,0.));
#923 = DIRECTION('',(0.,1.,0.));
#924 = PLANE('',#925);
#925 = AXIS2_PLACEMENT_3D('',#926,#927,#928);
#926 = CARTESIAN_POINT('',(25.4,25.4,0.));
#927 = DIRECTION('',(-1.,0.,0.));
#928 = DIRECTION('',(0.,-1.,0.));
#929 = ADVANCED_FACE('',(#930),#1067,.T.);
#930 = FACE_BOUND('',#931,.T.);
#931 = EDGE_LOOP('',(#932,#940,#941,#942));
#932 = ORIENTED_EDGE('',*,*,#933,.F.);
#933 = EDGE_CURVE('',#397,#934,#936,.T.);
#934 = VERTEX_POINT('',#935);
#935 = CARTESIAN_POINT('',(21.806273868134,-21.80623567912,-5.1));
#936 = LINE('',#937,#938);
#937 = CARTESIAN_POINT('',(19.649993708017,-25.39993512184,
    -5.100034767919));
#938 = VECTOR('',#939,1.);
#939 = DIRECTION('',(0.514506368963,0.857486557462,8.295914481618E-06));
#940 = ORIENTED_EDGE('',*,*,#396,.F.);
#941 = ORIENTED_EDGE('',*,*,#933,.T.);
#942 = ORIENTED_EDGE('',*,*,#943,.F.);
#943 = EDGE_CURVE('',#934,#934,#944,.T.);
#944 = B_SPLINE_CURVE_WITH_KNOTS('',6,(#945,#946,#947,#948,#949,#950,
    #951,#952,#953,#954,#955,#956,#957,#958,#959,#960,#961,#962,#963,
    #964,#965,#966,#967,#968,#969,#970,#971,#972,#973,#974,#975,#976,
    #977,#978,#979,#980,#981,#982,#983,#984,#985,#986,#987,#988,#989,
    #990,#991,#992,#993,#994,#995,#996,#997,#998,#999,#1000,#1001,#1002,
    #1003,#1004,#1005,#1006,#1007,#1008,#1009,#1010,#1011,#1012,#1013,
    #1014,#1015,#1016,#1017,#1018,#1019,#1020,#1021,#1022,#1023,#1024,
    #1025,#1026,#1027,#1028,#1029,#1030,#1031,#1032,#1033,#1034,#1035,
    #1036,#1037,#1038,#1039,#1040,#1041,#1042,#1043,#1044,#1045,#1046,
    #1047,#1048,#1049,#1050,#1051,#1052,#1053,#1054,#1055,#1056,#1057,
    #1058,#1059,#1060,#1061,#1062,#1063,#1064,#1065,#1066),
  .UNSPECIFIED.,.T.,.F.,(7,5,5,5,5,5,5,5,5,5,5,5,5,5,5,5,5,5,5,5,5,5,5,5
    ,7),(0.,7.114277229906E-02,0.110322068289,0.153602090282,
    0.18239291219,0.202147889556,0.25040958706,0.317430634254,
    0.346277487672,0.389671867856,0.428971073255,0.452111739002,
    0.499653700004,0.547810021271,0.570882463193,0.61005457298,
    0.653326477182,0.68211283434,0.70186546014,0.75012442413,
    0.817149191848,0.845999963405,0.889401729507,0.928707640464,1.),
  .UNSPECIFIED.);
#945 = CARTESIAN_POINT('',(21.806273868134,-21.80623567912,-5.1));
#946 = CARTESIAN_POINT('',(21.806274388721,-21.80623536676,
    -5.237753067055));
#947 = CARTESIAN_POINT('',(21.81440753195,-21.81436777744,
    -5.375551325002));
#948 = CARTESIAN_POINT('',(21.830682176187,-21.83064180183,
    -5.511376036623));
#949 = CARTESIAN_POINT('',(21.854771640802,-21.85473076612,
    -5.643431553611));
#950 = CARTESIAN_POINT('',(21.886155999576,-21.88611474715,
    -5.770147318997));
#951 = CARTESIAN_POINT('',(21.945038845836,-21.94499719656,
    -5.956311330707));
#952 = CARTESIAN_POINT('',(21.967953596846,-21.96791184355,
    -6.020420741988));
#953 = CARTESIAN_POINT('',(21.992760729981,-21.99271890946,
    -6.082319791152));
#954 = CARTESIAN_POINT('',(22.019340929001,-22.0192990776,
    -6.141835983238));
#955 = CARTESIAN_POINT('',(22.047570744222,-22.04752889764,
    -6.198826070614));
#956 = CARTESIAN_POINT('',(22.110197297525,-22.11015553449,
    -6.313205014463));
#957 = CARTESIAN_POINT('',(22.144930330627,-22.14488865402,
    -6.370011463228));
#958 = CARTESIAN_POINT('',(22.181360566067,-22.18131901735,
    -6.423433692946));
#959 = CARTESIAN_POINT('',(22.219323416554,-22.21928203589,
    -6.47335100921));
#960 = CARTESIAN_POINT('',(22.258658379858,-22.25861720598,
    -6.519671932444));
#961 = CARTESIAN_POINT('',(22.326189784698,-22.32614901719,
    -6.590702022581));
#962 = CARTESIAN_POINT('',(22.353706568264,-22.35366597959,
    -6.61745463743));
#963 = CARTESIAN_POINT('',(22.381717577468,-22.38167718367,
    -6.642564832062));
#964 = CARTESIAN_POINT('',(22.410178820764,-22.41013863744,
    -6.666015901523));
#965 = CARTESIAN_POINT('',(22.439047463752,-22.43900750607,
    -6.687794408817));
#966 = CARTESIAN_POINT('',(22.488341146313,-22.48830159387,
    -6.721679009788));
#967 = CARTESIAN_POINT('',(22.508572636521,-22.50853325591,
    -6.734675497189));
#968 = CARTESIAN_POINT('',(22.528962849715,-22.52892364771,
    -6.746876274542));
#969 = CARTESIAN_POINT('',(22.549498551674,-22.54945953491,
    -6.758278435875));
#970 = CARTESIAN_POINT('',(22.570166724037,-22.57012789899,
    -6.768879541805));
#971 = CARTESIAN_POINT('',(22.641739560918,-22.64170141779,
    -6.802614466183));
#972 = CARTESIAN_POINT('',(22.6932377795,-22.69320015804,-6.821758066976
    ));
#973 = CARTESIAN_POINT('',(22.745264266907,-22.7452272028,
    -6.836080073793));
#974 = CARTESIAN_POINT('',(22.797637912351,-22.79760143916,
    -6.845563780994));
#975 = CARTESIAN_POINT('',(22.850181031693,-22.85014518081,
    -6.850201957676));
#976 = CARTESIAN_POINT('',(22.975678391652,-22.97564409711,
    -6.849706833155));
#977 = CARTESIAN_POINT('',(23.048622069396,-23.04858873596,
    -6.840074766055));
#978 = CARTESIAN_POINT('',(23.121086685232,-23.12105436347,
    -6.821099773554));
#979 = CARTESIAN_POINT('',(23.192592749916,-23.19256148429,
    -6.792808301104));
#980 = CARTESIAN_POINT('',(23.262643233741,-23.26261306217,
    -6.755267924354));
#981 = CARTESIAN_POINT('',(23.360024419746,-23.35999585713,
    -6.688518194347));
#982 = CARTESIAN_POINT('',(23.388960452309,-23.38893237951,
    -6.666743488441));
#983 = CARTESIAN_POINT('',(23.417488410903,-23.41746083303,
    -6.643289393233));
#984 = CARTESIAN_POINT('',(23.445565227444,-23.44553814899,
    -6.618169376372));
#985 = CARTESIAN_POINT('',(23.473146668107,-23.4731200929,
    -6.591400191051));
#986 = CARTESIAN_POINT('',(23.540864660943,-23.54083935395,-6.520282233)
  );
#987 = CARTESIAN_POINT('',(23.5803180888,-23.58029355074,-6.473876481293
    ));
#988 = CARTESIAN_POINT('',(23.618393365455,-23.61836960114,
    -6.42385450472));
#989 = CARTESIAN_POINT('',(23.65492872917,-23.65490574085,
    -6.370308361027));
#990 = CARTESIAN_POINT('',(23.689758284463,-23.6897360716,
    -6.313359611612));
#991 = CARTESIAN_POINT('',(23.752562276073,-23.75254153416,
    -6.198654165961));
#992 = CARTESIAN_POINT('',(23.780873520296,-23.78085347451,
    -6.141480748628));
#993 = CARTESIAN_POINT('',(23.807524593221,-23.80750523839,
    -6.081766067135));
#994 = CARTESIAN_POINT('',(23.832390901683,-23.8323722302,
    -6.019654778858));
#995 = CARTESIAN_POINT('',(23.855352054957,-23.85533405668,
    -5.955321156662));
#996 = CARTESIAN_POINT('',(23.888628710287,-23.8886117613,
    -5.849906157212));
#997 = CARTESIAN_POINT('',(23.900262067698,-23.90024550315,
    -5.810140182797));
#998 = CARTESIAN_POINT('',(23.91117315845,-23.91115697338,-5.76971835391
    ));
#999 = CARTESIAN_POINT('',(23.921340583339,-23.92132477222,
    -5.728686891214));
#1000 = CARTESIAN_POINT('',(23.9307446,-23.93072915677,-5.687095673766)
  );
#1001 = CARTESIAN_POINT('',(23.957081896223,-23.95706755649,
    -5.558510035826));
#1002 = CARTESIAN_POINT('',(23.971500028047,-23.97148640272,
    -5.469876462193));
#1003 = CARTESIAN_POINT('',(23.982463185455,-23.98245024183,
    -5.379577162916));
#1004 = CARTESIAN_POINT('',(23.989857497808,-23.98984519865,
    -5.288130867636));
#1005 = CARTESIAN_POINT('',(23.993621494528,-23.99360979849,
    -5.196091210442));
#1006 = CARTESIAN_POINT('',(23.993888304068,-23.9938777317,
    -5.010804391118));
#1007 = CARTESIAN_POINT('',(23.99029666893,-23.99028661604,
    -4.917541205298));
#1008 = CARTESIAN_POINT('',(23.982977592076,-23.982968009,
    -4.824860745389));
#1009 = CARTESIAN_POINT('',(23.971993190557,-23.97198402492,
    -4.733339221644));
#1010 = CARTESIAN_POINT('',(23.957460927284,-23.9574521249,
    -4.643516704169));
#1011 = CARTESIAN_POINT('',(23.930961636337,-23.93095328964,
    -4.51391042031));
#1012 = CARTESIAN_POINT('',(23.921600845901,-23.92159263416,
    -4.472430805354));
#1013 = CARTESIAN_POINT('',(23.911480825998,-23.91147273645,
    -4.431506781426));
#1014 = CARTESIAN_POINT('',(23.900621121354,-23.90061314118,
    -4.391187835298));
#1015 = CARTESIAN_POINT('',(23.889042918576,-23.88903503495,
    -4.351519840118));
#1016 = CARTESIAN_POINT('',(23.855930615602,-23.85592295791,
    -4.246374142479));
#1017 = CARTESIAN_POINT('',(23.833086486927,-23.83307893451,
    -4.182200887431));
#1018 = CARTESIAN_POINT('',(23.808347378493,-23.80833989458,
    -4.120232152031));
#1019 = CARTESIAN_POINT('',(23.781832428746,-23.78182497697,
    -4.060640982914));
#1020 = CARTESIAN_POINT('',(23.753664976554,-23.75365752121,
    -4.003571157387));
#1021 = CARTESIAN_POINT('',(23.69116362537,-23.69115608909,
    -3.889015659601));
#1022 = CARTESIAN_POINT('',(23.656492793338,-23.656485172,
    -3.832111417149));
#1023 = CARTESIAN_POINT('',(23.620121105743,-23.62011335786,
    -3.778586802215));
#1024 = CARTESIAN_POINT('',(23.58221313244,-23.58220521782,
    -3.728563067732));
#1025 = CARTESIAN_POINT('',(23.542929397239,-23.54292127714,
    -3.682132164325));
#1026 = CARTESIAN_POINT('',(23.475476415764,-23.4754678914,
    -3.61091272827));
#1027 = CARTESIAN_POINT('',(23.447988801463,-23.4479800991,
    -3.584082619625));
#1028 = CARTESIAN_POINT('',(23.420005344138,-23.41999644772,
    -3.558893746349));
#1029 = CARTESIAN_POINT('',(23.391570051301,-23.39156094521,
    -3.535362912895));
#1030 = CARTESIAN_POINT('',(23.36272577323,-23.36271644229,
    -3.513503641298));
#1031 = CARTESIAN_POINT('',(23.313469804397,-23.31346006951,
    -3.479480792445));
#1032 = CARTESIAN_POINT('',(23.293252480922,-23.29324257473,
    -3.466427370822));
#1033 = CARTESIAN_POINT('',(23.272875688848,-23.27286560456,
    -3.454169302176));
#1034 = CARTESIAN_POINT('',(23.252352667923,-23.2523423989,
    -3.442709513473));
#1035 = CARTESIAN_POINT('',(23.231696441332,-23.23168598109,
    -3.432050462776));
#1036 = CARTESIAN_POINT('',(23.160159049093,-23.1601479086,
    -3.398113494599));
#1037 = CARTESIAN_POINT('',(23.108680607171,-23.10866894613,
    -3.378824900768));
#1038 = CARTESIAN_POINT('',(23.056669537084,-23.05665731976,
    -3.364356946815));
#1039 = CARTESIAN_POINT('',(23.004307007827,-23.00429420061,
    -3.354726518722));
#1040 = CARTESIAN_POINT('',(22.951770721554,-22.951757293,
    -3.349940994213));
#1041 = CARTESIAN_POINT('',(22.826271206582,-22.82625622379,
    -3.350082995893));
#1042 = CARTESIAN_POINT('',(22.753314544821,-22.753298602,
    -3.359510947403));
#1043 = CARTESIAN_POINT('',(22.680828719363,-22.68081176583,
    -3.378283360645));
#1044 = CARTESIAN_POINT('',(22.60929313119,-22.60927512237,
    -3.406374190803));
#1045 = CARTESIAN_POINT('',(22.539204586818,-22.53918548468,
    -3.443716440269));
#1046 = CARTESIAN_POINT('',(22.441753927499,-22.44173321722,
    -3.510189251066));
#1047 = CARTESIAN_POINT('',(22.412793761149,-22.41277256124,
    -3.531882661574));
#1048 = CARTESIAN_POINT('',(22.384240069233,-22.38421837457,
    -3.555256439359));
#1049 = CARTESIAN_POINT('',(22.356135902981,-22.35611370904,
    -3.580297202141));
#1050 = CARTESIAN_POINT('',(22.328525479173,-22.32850278209,
    -3.606988296729));
#1051 = CARTESIAN_POINT('',(22.260729370199,-22.26070540509,
    -3.677915356938));
#1052 = CARTESIAN_POINT('',(22.221224812935,-22.22120007893,
    -3.724210166857));
#1053 = CARTESIAN_POINT('',(22.183094714995,-22.18306920722,
    -3.77412473903));
#1054 = CARTESIAN_POINT('',(22.146500813026,-22.14647452916,
    -3.827567491052));
#1055 = CARTESIAN_POINT('',(22.111609016446,-22.11158195695,
    -3.884417426206));
#1056 = CARTESIAN_POINT('',(22.048679484505,-22.04865095359,
    -3.998944576158));
#1057 = CARTESIAN_POINT('',(22.020305600395,-22.02027637305,
    -4.056037562816));
#1058 = CARTESIAN_POINT('',(21.993588968888,-21.99355905024,
    -4.115676603272));
#1059 = CARTESIAN_POINT('',(21.968654293977,-21.96862369156,
    -4.177717576288));
#1060 = CARTESIAN_POINT('',(21.945622145089,-21.94559086898,
    -4.241986767974));
#1061 = CARTESIAN_POINT('',(21.886483603899,-21.88645046795,
    -4.428510877995));
#1062 = CARTESIAN_POINT('',(21.854971834359,-21.85493754081,
    -4.555449752116));
#1063 = CARTESIAN_POINT('',(21.830782591028,-21.83074719804,
    -4.687760889872));
#1064 = CARTESIAN_POINT('',(21.814439918165,-21.81440349992,
    -4.823864937695));
#1065 = CARTESIAN_POINT('',(21.806273346444,-21.80623599213,
    -4.96195531663));
#1066 = CARTESIAN_POINT('',(21.806273868134,-21.80623567912,-5.1));
#1067 = SURFACE_OF_LINEAR_EXTRUSION('',#1068,#1073);
#1068 = CIRCLE('',#1069,1.75);
#1069 = AXIS2_PLACEMENT_3D('',#1070,#1071,#1072);
#1070 = CARTESIAN_POINT('',(21.399993707851,-25.39995678246,
    -5.10002418639));
#1071 = DIRECTION('',(1.237746008527E-05,0.999999999905,
    6.046662848999E-06));
#1072 = DIRECTION('',(-0.999999999905,1.237749664695E-05,
    -6.046588007023E-06));
#1073 = VECTOR('',#1074,1.);
#1074 = DIRECTION('',(-0.514506368963,-0.857486557462,
    -8.295914481618E-06));
#1075 = ADVANCED_FACE('',(#1076),#1102,.F.);
#1076 = FACE_BOUND('',#1077,.F.);
#1077 = EDGE_LOOP('',(#1078,#1086,#1095,#1101));
#1078 = ORIENTED_EDGE('',*,*,#1079,.T.);
#1079 = EDGE_CURVE('',#432,#1080,#1082,.T.);
#1080 = VERTEX_POINT('',#1081);
#1081 = CARTESIAN_POINT('',(17.780007499745,-22.85999999999,-2.4));
#1082 = LINE('',#1083,#1084);
#1083 = CARTESIAN_POINT('',(17.780007499745,-22.85999999999,0.));
#1084 = VECTOR('',#1085,1.);
#1085 = DIRECTION('',(-0.,-0.,-1.));
#1086 = ORIENTED_EDGE('',*,*,#1087,.T.);
#1087 = EDGE_CURVE('',#1080,#1088,#1090,.T.);
#1088 = VERTEX_POINT('',#1089);
#1089 = CARTESIAN_POINT('',(22.859999999995,-17.77999282185,-2.4));
#1090 = CIRCLE('',#1091,5.08);
#1091 = AXIS2_PLACEMENT_3D('',#1092,#1093,#1094);
#1092 = CARTESIAN_POINT('',(17.78,-17.78,-2.4));
#1093 = DIRECTION('',(0.,0.,1.));
#1094 = DIRECTION('',(1.,0.,0.));
#1095 = ORIENTED_EDGE('',*,*,#1096,.F.);
#1096 = EDGE_CURVE('',#434,#1088,#1097,.T.);
#1097 = LINE('',#1098,#1099);
#1098 = CARTESIAN_POINT('',(22.859999999995,-17.77999282185,0.));
#1099 = VECTOR('',#1100,1.);
#1100 = DIRECTION('',(-0.,-0.,-1.));
#1101 = ORIENTED_EDGE('',*,*,#431,.F.);
#1102 = CYLINDRICAL_SURFACE('',#1103,5.08);
#1103 = AXIS2_PLACEMENT_3D('',#1104,#1105,#1106);
#1104 = CARTESIAN_POINT('',(17.78,-17.78,0.));
#1105 = DIRECTION('',(0.,0.,1.));
#1106 = DIRECTION('',(1.,0.,0.));
#1107 = ADVANCED_FACE('',(#1108),#1126,.T.);
#1108 = FACE_BOUND('',#1109,.T.);
#1109 = EDGE_LOOP('',(#1110,#1118,#1124,#1125));
#1110 = ORIENTED_EDGE('',*,*,#1111,.T.);
#1111 = EDGE_CURVE('',#485,#1112,#1114,.T.);
#1112 = VERTEX_POINT('',#1113);
#1113 = CARTESIAN_POINT('',(22.859999999997,17.78,-2.4));
#1114 = LINE('',#1115,#1116);
#1115 = CARTESIAN_POINT('',(22.859999999997,17.78,0.));
#1116 = VECTOR('',#1117,1.);
#1117 = DIRECTION('',(-0.,-0.,-1.));
#1118 = ORIENTED_EDGE('',*,*,#1119,.T.);
#1119 = EDGE_CURVE('',#1112,#1088,#1120,.T.);
#1120 = LINE('',#1121,#1122);
#1121 = CARTESIAN_POINT('',(22.859999999995,17.78,-2.4));
#1122 = VECTOR('',#1123,1.);
#1123 = DIRECTION('',(0.,-1.,0.));
#1124 = ORIENTED_EDGE('',*,*,#1096,.F.);
#1125 = ORIENTED_EDGE('',*,*,#493,.F.);
#1126 = PLANE('',#1127);
#1127 = AXIS2_PLACEMENT_3D('',#1128,#1129,#1130);
#1128 = CARTESIAN_POINT('',(22.859999999995,17.78,0.));
#1129 = DIRECTION('',(-1.,0.,0.));
#1130 = DIRECTION('',(0.,-1.,0.));
#1131 = ADVANCED_FACE('',(#1132),#1151,.F.);
#1132 = FACE_BOUND('',#1133,.F.);
#1133 = EDGE_LOOP('',(#1134,#1135,#1144,#1150));
#1134 = ORIENTED_EDGE('',*,*,#1111,.T.);
#1135 = ORIENTED_EDGE('',*,*,#1136,.T.);
#1136 = EDGE_CURVE('',#1112,#1137,#1139,.T.);
#1137 = VERTEX_POINT('',#1138);
#1138 = CARTESIAN_POINT('',(17.779999999693,22.86,-2.4));
#1139 = CIRCLE('',#1140,5.08);
#1140 = AXIS2_PLACEMENT_3D('',#1141,#1142,#1143);
#1141 = CARTESIAN_POINT('',(17.78,17.78,-2.4));
#1142 = DIRECTION('',(0.,0.,1.));
#1143 = DIRECTION('',(1.,0.,0.));
#1144 = ORIENTED_EDGE('',*,*,#1145,.F.);
#1145 = EDGE_CURVE('',#477,#1137,#1146,.T.);
#1146 = LINE('',#1147,#1148);
#1147 = CARTESIAN_POINT('',(17.779999999693,22.86,0.));
#1148 = VECTOR('',#1149,1.);
#1149 = DIRECTION('',(-0.,-0.,-1.));
#1150 = ORIENTED_EDGE('',*,*,#484,.F.);
#1151 = CYLINDRICAL_SURFACE('',#1152,5.08);
#1152 = AXIS2_PLACEMENT_3D('',#1153,#1154,#1155);
#1153 = CARTESIAN_POINT('',(17.78,17.78,0.));
#1154 = DIRECTION('',(0.,0.,1.));
#1155 = DIRECTION('',(1.,0.,0.));
#1156 = ADVANCED_FACE('',(#1157),#1175,.T.);
#1157 = FACE_BOUND('',#1158,.T.);
#1158 = EDGE_LOOP('',(#1159,#1167,#1173,#1174));
#1159 = ORIENTED_EDGE('',*,*,#1160,.T.);
#1160 = EDGE_CURVE('',#468,#1161,#1163,.T.);
#1161 = VERTEX_POINT('',#1162);
#1162 = CARTESIAN_POINT('',(-17.77999633417,22.859999999999,-2.4));
#1163 = LINE('',#1164,#1165);
#1164 = CARTESIAN_POINT('',(-17.77999633417,22.859999999999,0.));
#1165 = VECTOR('',#1166,1.);
#1166 = DIRECTION('',(-0.,-0.,-1.));
#1167 = ORIENTED_EDGE('',*,*,#1168,.T.);
#1168 = EDGE_CURVE('',#1161,#1137,#1169,.T.);
#1169 = LINE('',#1170,#1171);
#1170 = CARTESIAN_POINT('',(-17.77999633417,22.86,-2.4));
#1171 = VECTOR('',#1172,1.);
#1172 = DIRECTION('',(1.,0.,0.));
#1173 = ORIENTED_EDGE('',*,*,#1145,.F.);
#1174 = ORIENTED_EDGE('',*,*,#476,.F.);
#1175 = PLANE('',#1176);
#1176 = AXIS2_PLACEMENT_3D('',#1177,#1178,#1179);
#1177 = CARTESIAN_POINT('',(-17.77999633417,22.86,0.));
#1178 = DIRECTION('',(0.,-1.,0.));
#1179 = DIRECTION('',(1.,0.,0.));
#1180 = ADVANCED_FACE('',(#1181),#1200,.F.);
#1181 = FACE_BOUND('',#1182,.F.);
#1182 = EDGE_LOOP('',(#1183,#1184,#1193,#1199));
#1183 = ORIENTED_EDGE('',*,*,#1160,.T.);
#1184 = ORIENTED_EDGE('',*,*,#1185,.T.);
#1185 = EDGE_CURVE('',#1161,#1186,#1188,.T.);
#1186 = VERTEX_POINT('',#1187);
#1187 = CARTESIAN_POINT('',(-22.85999999999,17.78,-2.4));
#1188 = CIRCLE('',#1189,5.08);
#1189 = AXIS2_PLACEMENT_3D('',#1190,#1191,#1192);
#1190 = CARTESIAN_POINT('',(-17.78,17.78,-2.4));
#1191 = DIRECTION('',(0.,0.,1.));
#1192 = DIRECTION('',(1.,0.,0.));
#1193 = ORIENTED_EDGE('',*,*,#1194,.F.);
#1194 = EDGE_CURVE('',#460,#1186,#1195,.T.);
#1195 = LINE('',#1196,#1197);
#1196 = CARTESIAN_POINT('',(-22.85999999999,17.78,0.));
#1197 = VECTOR('',#1198,1.);
#1198 = DIRECTION('',(-0.,-0.,-1.));
#1199 = ORIENTED_EDGE('',*,*,#467,.F.);
#1200 = CYLINDRICAL_SURFACE('',#1201,5.08);
#1201 = AXIS2_PLACEMENT_3D('',#1202,#1203,#1204);
#1202 = CARTESIAN_POINT('',(-17.78,17.78,0.));
#1203 = DIRECTION('',(0.,0.,1.));
#1204 = DIRECTION('',(1.,0.,0.));
#1205 = ADVANCED_FACE('',(#1206),#1224,.T.);
#1206 = FACE_BOUND('',#1207,.T.);
#1207 = EDGE_LOOP('',(#1208,#1216,#1222,#1223));
#1208 = ORIENTED_EDGE('',*,*,#1209,.T.);
#1209 = EDGE_CURVE('',#451,#1210,#1212,.T.);
#1210 = VERTEX_POINT('',#1211);
#1211 = CARTESIAN_POINT('',(-22.85999999999,-17.77999277511,-2.4));
#1212 = LINE('',#1213,#1214);
#1213 = CARTESIAN_POINT('',(-22.85999999999,-17.77999277511,0.));
#1214 = VECTOR('',#1215,1.);
#1215 = DIRECTION('',(-0.,-0.,-1.));
#1216 = ORIENTED_EDGE('',*,*,#1217,.T.);
#1217 = EDGE_CURVE('',#1210,#1186,#1218,.T.);
#1218 = LINE('',#1219,#1220);
#1219 = CARTESIAN_POINT('',(-22.85999999999,-17.77999277511,-2.4));
#1220 = VECTOR('',#1221,1.);
#1221 = DIRECTION('',(0.,1.,0.));
#1222 = ORIENTED_EDGE('',*,*,#1194,.F.);
#1223 = ORIENTED_EDGE('',*,*,#459,.F.);
#1224 = PLANE('',#1225);
#1225 = AXIS2_PLACEMENT_3D('',#1226,#1227,#1228);
#1226 = CARTESIAN_POINT('',(-22.85999999999,-17.77999277511,0.));
#1227 = DIRECTION('',(1.,0.,0.));
#1228 = DIRECTION('',(0.,1.,0.));
#1229 = ADVANCED_FACE('',(#1230),#1249,.F.);
#1230 = FACE_BOUND('',#1231,.F.);
#1231 = EDGE_LOOP('',(#1232,#1233,#1242,#1248));
#1232 = ORIENTED_EDGE('',*,*,#1209,.T.);
#1233 = ORIENTED_EDGE('',*,*,#1234,.T.);
#1234 = EDGE_CURVE('',#1210,#1235,#1237,.T.);
#1235 = VERTEX_POINT('',#1236);
#1236 = CARTESIAN_POINT('',(-17.78000722488,-22.85999999999,-2.4));
#1237 = CIRCLE('',#1238,5.08);
#1238 = AXIS2_PLACEMENT_3D('',#1239,#1240,#1241);
#1239 = CARTESIAN_POINT('',(-17.78,-17.78,-2.4));
#1240 = DIRECTION('',(0.,0.,1.));
#1241 = DIRECTION('',(1.,0.,0.));
#1242 = ORIENTED_EDGE('',*,*,#1243,.F.);
#1243 = EDGE_CURVE('',#443,#1235,#1244,.T.);
#1244 = LINE('',#1245,#1246);
#1245 = CARTESIAN_POINT('',(-17.78000722488,-22.85999999999,0.));
#1246 = VECTOR('',#1247,1.);
#1247 = DIRECTION('',(-0.,-0.,-1.));
#1248 = ORIENTED_EDGE('',*,*,#450,.F.);
#1249 = CYLINDRICAL_SURFACE('',#1250,5.08);
#1250 = AXIS2_PLACEMENT_3D('',#1251,#1252,#1253);
#1251 = CARTESIAN_POINT('',(-17.78,-17.78,0.));
#1252 = DIRECTION('',(0.,0.,1.));
#1253 = DIRECTION('',(1.,0.,0.));
#1254 = ADVANCED_FACE('',(#1255),#1266,.T.);
#1255 = FACE_BOUND('',#1256,.T.);
#1256 = EDGE_LOOP('',(#1257,#1258,#1264,#1265));
#1257 = ORIENTED_EDGE('',*,*,#1079,.T.);
#1258 = ORIENTED_EDGE('',*,*,#1259,.T.);
#1259 = EDGE_CURVE('',#1080,#1235,#1260,.T.);
#1260 = LINE('',#1261,#1262);
#1261 = CARTESIAN_POINT('',(17.780007499745,-22.85999999999,-2.4));
#1262 = VECTOR('',#1263,1.);
#1263 = DIRECTION('',(-1.,0.,0.));
#1264 = ORIENTED_EDGE('',*,*,#1243,.F.);
#1265 = ORIENTED_EDGE('',*,*,#442,.F.);
#1266 = PLANE('',#1267);
#1267 = AXIS2_PLACEMENT_3D('',#1268,#1269,#1270);
#1268 = CARTESIAN_POINT('',(17.780007499745,-22.85999999999,0.));
#1269 = DIRECTION('',(0.,1.,0.));
#1270 = DIRECTION('',(-1.,0.,0.));
#1271 = ADVANCED_FACE('',(#1272,#1301),#1311,.T.);
#1272 = FACE_BOUND('',#1273,.T.);
#1273 = EDGE_LOOP('',(#1274,#1284,#1290,#1291,#1292,#1293,#1294,#1295));
#1274 = ORIENTED_EDGE('',*,*,#1275,.T.);
#1275 = EDGE_CURVE('',#1276,#1278,#1280,.T.);
#1276 = VERTEX_POINT('',#1277);
#1277 = CARTESIAN_POINT('',(-22.225,17.145,-2.4));
#1278 = VERTEX_POINT('',#1279);
#1279 = CARTESIAN_POINT('',(-22.225,-17.145,-2.4));
#1280 = LINE('',#1281,#1282);
#1281 = CARTESIAN_POINT('',(-22.225,-8.572500018622,-2.4));
#1282 = VECTOR('',#1283,1.);
#1283 = DIRECTION('',(0.,-1.,0.));
#1284 = ORIENTED_EDGE('',*,*,#1285,.T.);
#1285 = EDGE_CURVE('',#1278,#632,#1286,.T.);
#1286 = LINE('',#1287,#1288);
#1287 = CARTESIAN_POINT('',(-22.225,-17.145,0.));
#1288 = VECTOR('',#1289,1.);
#1289 = DIRECTION('',(-0.,-0.,-1.));
#1290 = ORIENTED_EDGE('',*,*,#631,.T.);
#1291 = ORIENTED_EDGE('',*,*,#588,.T.);
#1292 = ORIENTED_EDGE('',*,*,#557,.F.);
#1293 = ORIENTED_EDGE('',*,*,#606,.T.);
#1294 = ORIENTED_EDGE('',*,*,#699,.T.);
#1295 = ORIENTED_EDGE('',*,*,#1296,.F.);
#1296 = EDGE_CURVE('',#1276,#691,#1297,.T.);
#1297 = LINE('',#1298,#1299);
#1298 = CARTESIAN_POINT('',(-22.225,17.145,0.));
#1299 = VECTOR('',#1300,1.);
#1300 = DIRECTION('',(-0.,-0.,-1.));
#1301 = FACE_BOUND('',#1302,.T.);
#1302 = EDGE_LOOP('',(#1303,#1304,#1305,#1306,#1307,#1308,#1309,#1310));
#1303 = ORIENTED_EDGE('',*,*,#805,.T.);
#1304 = ORIENTED_EDGE('',*,*,#755,.T.);
#1305 = ORIENTED_EDGE('',*,*,#731,.F.);
#1306 = ORIENTED_EDGE('',*,*,#780,.T.);
#1307 = ORIENTED_EDGE('',*,*,#829,.F.);
#1308 = ORIENTED_EDGE('',*,*,#878,.T.);
#1309 = ORIENTED_EDGE('',*,*,#896,.F.);
#1310 = ORIENTED_EDGE('',*,*,#853,.T.);
#1311 = PLANE('',#1312);
#1312 = AXIS2_PLACEMENT_3D('',#1313,#1314,#1315);
#1313 = CARTESIAN_POINT('',(-22.225,-17.145,0.));
#1314 = DIRECTION('',(1.,0.,0.));
#1315 = DIRECTION('',(0.,1.,0.));
#1316 = ADVANCED_FACE('',(#1317),#1336,.F.);
#1317 = FACE_BOUND('',#1318,.F.);
#1318 = EDGE_LOOP('',(#1319,#1328,#1329,#1330));
#1319 = ORIENTED_EDGE('',*,*,#1320,.F.);
#1320 = EDGE_CURVE('',#1278,#1321,#1323,.T.);
#1321 = VERTEX_POINT('',#1322);
#1322 = CARTESIAN_POINT('',(-17.145,-22.225,-2.4));
#1323 = CIRCLE('',#1324,5.08);
#1324 = AXIS2_PLACEMENT_3D('',#1325,#1326,#1327);
#1325 = CARTESIAN_POINT('',(-17.145,-17.145,-2.4));
#1326 = DIRECTION('',(0.,0.,1.));
#1327 = DIRECTION('',(1.,0.,0.));
#1328 = ORIENTED_EDGE('',*,*,#1285,.T.);
#1329 = ORIENTED_EDGE('',*,*,#639,.T.);
#1330 = ORIENTED_EDGE('',*,*,#1331,.F.);
#1331 = EDGE_CURVE('',#1321,#640,#1332,.T.);
#1332 = LINE('',#1333,#1334);
#1333 = CARTESIAN_POINT('',(-17.145,-22.225,0.));
#1334 = VECTOR('',#1335,1.);
#1335 = DIRECTION('',(-0.,-0.,-1.));
#1336 = CYLINDRICAL_SURFACE('',#1337,5.08);
#1337 = AXIS2_PLACEMENT_3D('',#1338,#1339,#1340);
#1338 = CARTESIAN_POINT('',(-17.145,-17.145,0.));
#1339 = DIRECTION('',(0.,0.,1.));
#1340 = DIRECTION('',(1.,0.,0.));
#1341 = ADVANCED_FACE('',(#1342),#1360,.T.);
#1342 = FACE_BOUND('',#1343,.T.);
#1343 = EDGE_LOOP('',(#1344,#1352,#1358,#1359));
#1344 = ORIENTED_EDGE('',*,*,#1345,.T.);
#1345 = EDGE_CURVE('',#1321,#1346,#1348,.T.);
#1346 = VERTEX_POINT('',#1347);
#1347 = CARTESIAN_POINT('',(17.145,-22.225,-2.4));
#1348 = LINE('',#1349,#1350);
#1349 = CARTESIAN_POINT('',(8.572500009486,-22.225,-2.4));
#1350 = VECTOR('',#1351,1.);
#1351 = DIRECTION('',(1.,0.,0.));
#1352 = ORIENTED_EDGE('',*,*,#1353,.T.);
#1353 = EDGE_CURVE('',#1346,#649,#1354,.T.);
#1354 = LINE('',#1355,#1356);
#1355 = CARTESIAN_POINT('',(17.145,-22.225,0.));
#1356 = VECTOR('',#1357,1.);
#1357 = DIRECTION('',(-0.,-0.,-1.));
#1358 = ORIENTED_EDGE('',*,*,#648,.T.);
#1359 = ORIENTED_EDGE('',*,*,#1331,.F.);
#1360 = PLANE('',#1361);
#1361 = AXIS2_PLACEMENT_3D('',#1362,#1363,#1364);
#1362 = CARTESIAN_POINT('',(17.145,-22.225,0.));
#1363 = DIRECTION('',(0.,1.,0.));
#1364 = DIRECTION('',(-1.,0.,0.));
#1365 = ADVANCED_FACE('',(#1366),#1385,.F.);
#1366 = FACE_BOUND('',#1367,.F.);
#1367 = EDGE_LOOP('',(#1368,#1377,#1378,#1379));
#1368 = ORIENTED_EDGE('',*,*,#1369,.F.);
#1369 = EDGE_CURVE('',#1346,#1370,#1372,.T.);
#1370 = VERTEX_POINT('',#1371);
#1371 = CARTESIAN_POINT('',(22.225,-17.145,-2.4));
#1372 = CIRCLE('',#1373,5.08);
#1373 = AXIS2_PLACEMENT_3D('',#1374,#1375,#1376);
#1374 = CARTESIAN_POINT('',(17.145,-17.145,-2.4));
#1375 = DIRECTION('',(0.,0.,1.));
#1376 = DIRECTION('',(1.,0.,0.));
#1377 = ORIENTED_EDGE('',*,*,#1353,.T.);
#1378 = ORIENTED_EDGE('',*,*,#656,.T.);
#1379 = ORIENTED_EDGE('',*,*,#1380,.F.);
#1380 = EDGE_CURVE('',#1370,#657,#1381,.T.);
#1381 = LINE('',#1382,#1383);
#1382 = CARTESIAN_POINT('',(22.225,-17.145,0.));
#1383 = VECTOR('',#1384,1.);
#1384 = DIRECTION('',(-0.,-0.,-1.));
#1385 = CYLINDRICAL_SURFACE('',#1386,5.08);
#1386 = AXIS2_PLACEMENT_3D('',#1387,#1388,#1389);
#1387 = CARTESIAN_POINT('',(17.145,-17.145,0.));
#1388 = DIRECTION('',(0.,0.,1.));
#1389 = DIRECTION('',(1.,0.,0.));
#1390 = ADVANCED_FACE('',(#1391),#1409,.T.);
#1391 = FACE_BOUND('',#1392,.T.);
#1392 = EDGE_LOOP('',(#1393,#1401,#1407,#1408));
#1393 = ORIENTED_EDGE('',*,*,#1394,.T.);
#1394 = EDGE_CURVE('',#1370,#1395,#1397,.T.);
#1395 = VERTEX_POINT('',#1396);
#1396 = CARTESIAN_POINT('',(22.225,17.145,-2.4));
#1397 = LINE('',#1398,#1399);
#1398 = CARTESIAN_POINT('',(22.225,8.572499981378,-2.4));
#1399 = VECTOR('',#1400,1.);
#1400 = DIRECTION('',(0.,1.,0.));
#1401 = ORIENTED_EDGE('',*,*,#1402,.T.);
#1402 = EDGE_CURVE('',#1395,#666,#1403,.T.);
#1403 = LINE('',#1404,#1405);
#1404 = CARTESIAN_POINT('',(22.225,17.145,0.));
#1405 = VECTOR('',#1406,1.);
#1406 = DIRECTION('',(-0.,-0.,-1.));
#1407 = ORIENTED_EDGE('',*,*,#665,.T.);
#1408 = ORIENTED_EDGE('',*,*,#1380,.F.);
#1409 = PLANE('',#1410);
#1410 = AXIS2_PLACEMENT_3D('',#1411,#1412,#1413);
#1411 = CARTESIAN_POINT('',(22.225,17.145,0.));
#1412 = DIRECTION('',(-1.,0.,0.));
#1413 = DIRECTION('',(0.,-1.,0.));
#1414 = ADVANCED_FACE('',(#1415),#1434,.F.);
#1415 = FACE_BOUND('',#1416,.F.);
#1416 = EDGE_LOOP('',(#1417,#1426,#1427,#1428));
#1417 = ORIENTED_EDGE('',*,*,#1418,.F.);
#1418 = EDGE_CURVE('',#1395,#1419,#1421,.T.);
#1419 = VERTEX_POINT('',#1420);
#1420 = CARTESIAN_POINT('',(17.145,22.225,-2.4));
#1421 = CIRCLE('',#1422,5.08);
#1422 = AXIS2_PLACEMENT_3D('',#1423,#1424,#1425);
#1423 = CARTESIAN_POINT('',(17.145,17.145,-2.4));
#1424 = DIRECTION('',(0.,0.,1.));
#1425 = DIRECTION('',(1.,0.,0.));
#1426 = ORIENTED_EDGE('',*,*,#1402,.T.);
#1427 = ORIENTED_EDGE('',*,*,#673,.T.);
#1428 = ORIENTED_EDGE('',*,*,#1429,.F.);
#1429 = EDGE_CURVE('',#1419,#674,#1430,.T.);
#1430 = LINE('',#1431,#1432);
#1431 = CARTESIAN_POINT('',(17.145,22.225,0.));
#1432 = VECTOR('',#1433,1.);
#1433 = DIRECTION('',(-0.,-0.,-1.));
#1434 = CYLINDRICAL_SURFACE('',#1435,5.08);
#1435 = AXIS2_PLACEMENT_3D('',#1436,#1437,#1438);
#1436 = CARTESIAN_POINT('',(17.145,17.145,0.));
#1437 = DIRECTION('',(0.,0.,1.));
#1438 = DIRECTION('',(1.,0.,0.));
#1439 = ADVANCED_FACE('',(#1440),#1458,.T.);
#1440 = FACE_BOUND('',#1441,.T.);
#1441 = EDGE_LOOP('',(#1442,#1450,#1456,#1457));
#1442 = ORIENTED_EDGE('',*,*,#1443,.T.);
#1443 = EDGE_CURVE('',#1419,#1444,#1446,.T.);
#1444 = VERTEX_POINT('',#1445);
#1445 = CARTESIAN_POINT('',(-17.145,22.225,-2.4));
#1446 = LINE('',#1447,#1448);
#1447 = CARTESIAN_POINT('',(-8.572499990514,22.225,-2.4));
#1448 = VECTOR('',#1449,1.);
#1449 = DIRECTION('',(-1.,0.,0.));
#1450 = ORIENTED_EDGE('',*,*,#1451,.T.);
#1451 = EDGE_CURVE('',#1444,#683,#1452,.T.);
#1452 = LINE('',#1453,#1454);
#1453 = CARTESIAN_POINT('',(-17.145,22.225,0.));
#1454 = VECTOR('',#1455,1.);
#1455 = DIRECTION('',(-0.,-0.,-1.));
#1456 = ORIENTED_EDGE('',*,*,#682,.T.);
#1457 = ORIENTED_EDGE('',*,*,#1429,.F.);
#1458 = PLANE('',#1459);
#1459 = AXIS2_PLACEMENT_3D('',#1460,#1461,#1462);
#1460 = CARTESIAN_POINT('',(-17.145,22.225,0.));
#1461 = DIRECTION('',(0.,-1.,0.));
#1462 = DIRECTION('',(1.,0.,0.));
#1463 = ADVANCED_FACE('',(#1464),#1476,.F.);
#1464 = FACE_BOUND('',#1465,.F.);
#1465 = EDGE_LOOP('',(#1466,#1473,#1474,#1475));
#1466 = ORIENTED_EDGE('',*,*,#1467,.F.);
#1467 = EDGE_CURVE('',#1444,#1276,#1468,.T.);
#1468 = CIRCLE('',#1469,5.08);
#1469 = AXIS2_PLACEMENT_3D('',#1470,#1471,#1472);
#1470 = CARTESIAN_POINT('',(-17.145,17.145,-2.4));
#1471 = DIRECTION('',(0.,0.,1.));
#1472 = DIRECTION('',(1.,0.,0.));
#1473 = ORIENTED_EDGE('',*,*,#1451,.T.);
#1474 = ORIENTED_EDGE('',*,*,#690,.T.);
#1475 = ORIENTED_EDGE('',*,*,#1296,.F.);
#1476 = CYLINDRICAL_SURFACE('',#1477,5.08);
#1477 = AXIS2_PLACEMENT_3D('',#1478,#1479,#1480);
#1478 = CARTESIAN_POINT('',(-17.145,17.145,0.));
#1479 = DIRECTION('',(0.,0.,1.));
#1480 = DIRECTION('',(1.,0.,0.));
#1481 = ADVANCED_FACE('',(#1482),#1493,.F.);
#1482 = FACE_BOUND('',#1483,.F.);
#1483 = EDGE_LOOP('',(#1484,#1485,#1491,#1492));
#1484 = ORIENTED_EDGE('',*,*,#916,.F.);
#1485 = ORIENTED_EDGE('',*,*,#1486,.T.);
#1486 = EDGE_CURVE('',#917,#934,#1487,.T.);
#1487 = LINE('',#1488,#1489);
#1488 = CARTESIAN_POINT('',(25.4,-19.65,-5.1));
#1489 = VECTOR('',#1490,1.);
#1490 = DIRECTION('',(-0.857492925713,-0.514495755428,0.));
#1491 = ORIENTED_EDGE('',*,*,#943,.F.);
#1492 = ORIENTED_EDGE('',*,*,#1486,.F.);
#1493 = SURFACE_OF_LINEAR_EXTRUSION('',#1494,#1499);
#1494 = CIRCLE('',#1495,1.75);
#1495 = AXIS2_PLACEMENT_3D('',#1496,#1497,#1498);
#1496 = CARTESIAN_POINT('',(25.4,-21.4,-5.1));
#1497 = DIRECTION('',(1.,0.,0.));
#1498 = DIRECTION('',(0.,1.,0.));
#1499 = VECTOR('',#1500,1.);
#1500 = DIRECTION('',(0.857492925713,0.514495755428,0.));
#1501 = ADVANCED_FACE('',(#1502,#1512),#1522,.T.);
#1502 = FACE_BOUND('',#1503,.T.);
#1503 = EDGE_LOOP('',(#1504,#1505,#1506,#1507,#1508,#1509,#1510,#1511));
#1504 = ORIENTED_EDGE('',*,*,#1259,.F.);
#1505 = ORIENTED_EDGE('',*,*,#1087,.T.);
#1506 = ORIENTED_EDGE('',*,*,#1119,.F.);
#1507 = ORIENTED_EDGE('',*,*,#1136,.T.);
#1508 = ORIENTED_EDGE('',*,*,#1168,.F.);
#1509 = ORIENTED_EDGE('',*,*,#1185,.T.);
#1510 = ORIENTED_EDGE('',*,*,#1217,.F.);
#1511 = ORIENTED_EDGE('',*,*,#1234,.T.);
#1512 = FACE_BOUND('',#1513,.T.);
#1513 = EDGE_LOOP('',(#1514,#1515,#1516,#1517,#1518,#1519,#1520,#1521));
#1514 = ORIENTED_EDGE('',*,*,#1467,.F.);
#1515 = ORIENTED_EDGE('',*,*,#1443,.F.);
#1516 = ORIENTED_EDGE('',*,*,#1418,.F.);
#1517 = ORIENTED_EDGE('',*,*,#1394,.F.);
#1518 = ORIENTED_EDGE('',*,*,#1369,.F.);
#1519 = ORIENTED_EDGE('',*,*,#1345,.F.);
#1520 = ORIENTED_EDGE('',*,*,#1320,.F.);
#1521 = ORIENTED_EDGE('',*,*,#1275,.F.);
#1522 = PLANE('',#1523);
#1523 = AXIS2_PLACEMENT_3D('',#1524,#1525,#1526);
#1524 = CARTESIAN_POINT('',(1.897263198E-08,-3.724479594E-08,-2.4));
#1525 = DIRECTION('',(0.,0.,1.));
#1526 = DIRECTION('',(1.,0.,0.));
#1527 = ( GEOMETRIC_REPRESENTATION_CONTEXT(3) 
GLOBAL_UNCERTAINTY_ASSIGNED_CONTEXT((#1531)) 
GLOBAL_UNIT_ASSIGNED_CONTEXT((#1528,#1529,#1530)) REPRESENTATION_CONTEXT
('Context #1','3D Context with UNIT and UNCERTAINTY') );
#1528 = ( LENGTH_UNIT() NAMED_UNIT(*) SI_UNIT(.MILLI.,.METRE.) );
#1529 = ( NAMED_UNIT(*) PLANE_ANGLE_UNIT() SI_UNIT($,.RADIAN.) );
#1530 = ( NAMED_UNIT(*) SI_UNIT($,.STERADIAN.) SOLID_ANGLE_UNIT() );
#1531 = UNCERTAINTY_MEASURE_WITH_UNIT(LENGTH_MEASURE(1.E-05),#1528,
  'distance_accuracy_value','confusion accuracy');
#1532 = PRODUCT_RELATED_PRODUCT_CATEGORY('part',$,(#7));
#1533 = MECHANICAL_DESIGN_GEOMETRIC_PRESENTATION_REPRESENTATION('',(
    #1534),#1527);
#1534 = STYLED_ITEM('color',(#1535),#15);
#1535 = PRESENTATION_STYLE_ASSIGNMENT((#1536,#1544));
#1536 = SURFACE_STYLE_USAGE(.BOTH.,#1537);
#1537 = SURFACE_SIDE_STYLE('',(#1538,#1542));
#1538 = SURFACE_STYLE_FILL_AREA(#1539);
#1539 = FILL_AREA_STYLE('',(#1540));
#1540 = FILL_AREA_STYLE_COLOUR('',#1541);
#1541 = COLOUR_RGB('',0.898039222556,0.729411790161,0.392156863511);
#1542 = SURFACE_STYLE_RENDERING_WITH_PROPERTIES(.NORMAL_SHADING.,#1541,(
    #1543));
#1543 = SURFACE_STYLE_TRANSPARENT(1.);
#1544 = CURVE_STYLE('',#1545,POSITIVE_LENGTH_MEASURE(0.1),#1546);
#1545 = DRAUGHTING_PRE_DEFINED_CURVE_FONT('continuous');
#1546 = COLOUR_RGB('',9.803921802644E-02,9.803921802644E-02,
  9.803921802644E-02);
ENDSEC;
END-ISO-10303-21;
