  0
SECTION
  2
HEADER
  9
$ACADVER
  1
AC1009
  9
$INSBASE
 10
0.0
 20
0.0
 30
0.0
  9
$EXTMIN
 10
0.0
 20
0.0
 30
0.0
  9
$EXTMAX
 10
0.0
 20
0.0
 30
0.0
  0
ENDSEC
  0
SECTION
  2
TABLES
  0
TABLE
  2
VPORT
 70
0
  0
ENDTAB
  0
TABLE
  2
LTYPE
 70
1
  0
LTYPE
  2
CONTINUOUS
 70
0
  3
Solid line
 72
65
 73
0
 40
0.0
  0
ENDTAB
  0
TABLE
  2
LAYER
 70
1
  0
LAYER
  2
0
 70
64
 62
7
  6
continuous
  0
ENDTAB
  0
TABLE
  2
STYLE
 70
1
  0
STYLE
  2
STANDARD
 70
0
 40
0
 41
1.0
 50
0.0
 71
0
 42
1
 3
ARIAL.TTF
 4

  0
ENDTAB
  0
TABLE
  2
VIEW
 70
0
  0
ENDTAB
  0
ENDSEC
  0
SECTION
  2
BLOCKS
  0
BLOCK
  8
0
  2
SKETCH051
 70
0
 10
0.0
 20
0.0
 30
0.0
  3
SKETCH051
  0
POLYLINE
  8
0
 62
0
 70
1
 66
1
 10
0.0
 20
0.0
 30
0.0
  0
VERTEX
  8
0
 10
-10.25
 20
21.99999999999998
 30
0.0
 42
0.4142135623730936
  0
VERTEX
  8
0
 10
-10.5
 20
21.74999999999998
 30
0.0
  0
VERTEX
  8
0
 10
-10.5
 20
20.24999999999998
 30
0.0
 42
-0.414213562373094
  0
VERTEX
  8
0
 10
-10.75
 20
19.99999999999998
 30
0.0
  0
VERTEX
  8
0
 10
-15.25
 20
19.99999999999998
 30
0.0
 42
-0.4142135623730933
  0
VERTEX
  8
0
 10
-15.5
 20
20.24999999999998
 30
0.0
  0
VERTEX
  8
0
 10
-15.5
 20
21.749999999999996
 30
0.0
 42
0.41421356237309287
  0
VERTEX
  8
0
 10
-15.749999999999998
 20
21.999999999999996
 30
0.0
  0
VERTEX
  8
0
 10
-17.0
 20
21.999999999999996
 30
0.0
 42
0.4142135623730951
  0
VERTEX
  8
0
 10
-22.0
 20
16.999999999999993
 30
0.0
  0
VERTEX
  8
0
 10
-22.0
 20
-16.999999999999993
 30
0.0
 42
0.4142135623730949
  0
VERTEX
  8
0
 10
-16.999999999999996
 20
-21.999999999999996
 30
0.0
  0
VERTEX
  8
0
 10
16.999999999999996
 20
-21.999999999999996
 30
0.0
 42
0.41421356237309503
  0
VERTEX
  8
0
 10
21.999999999999996
 20
-16.999999999999996
 30
0.0
  0
VERTEX
  8
0
 10
21.999999999999996
 20
16.999999999999996
 30
0.0
 42
0.414213562373095
  0
VERTEX
  8
0
 10
16.999999999999996
 20
21.999999999993097
 30
0.0
  0
VERTEX
  8
0
 10
15.75
 20
21.999999999993097
 30
0.0
 42
0.4142135623730954
  0
VERTEX
  8
0
 10
15.5
 20
21.749999999993097
 30
0.0
  0
VERTEX
  8
0
 10
15.5
 20
20.25
 30
0.0
 42
-0.4142135623730935
  0
VERTEX
  8
0
 10
15.25
 20
20.0
 30
0.0
  0
VERTEX
  8
0
 10
10.75
 20
20.0
 30
0.0
 42
-0.4142135623730965
  0
VERTEX
  8
0
 10
10.5
 20
20.25
 30
0.0
  0
VERTEX
  8
0
 10
10.5
 20
21.749999999999982
 30
0.0
 42
0.4142135623730963
  0
VERTEX
  8
0
 10
10.25
 20
21.999999999999982
 30
0.0
  0
VERTEX
  8
0
 10
2.75
 20
21.999999999999982
 30
0.0
 42
0.4142135623730936
  0
VERTEX
  8
0
 10
2.5
 20
21.749999999999982
 30
0.0
  0
VERTEX
  8
0
 10
2.5
 20
20.249999999999982
 30
0.0
 42
-0.4142135623730937
  0
VERTEX
  8
0
 10
2.25
 20
19.999999999999982
 30
0.0
  0
VERTEX
  8
0
 10
-2.25
 20
19.999999999999982
 30
0.0
 42
-0.4142135623730937
  0
VERTEX
  8
0
 10
-2.5
 20
20.249999999999982
 30
0.0
  0
VERTEX
  8
0
 10
-2.5
 20
21.74999999999998
 30
0.0
 42
0.4142135623730936
  0
VERTEX
  8
0
 10
-2.75
 20
21.99999999999998
 30
0.0
  0
SEQEND
  8
0
  0
POLYLINE
  8
0
 62
0
 70
1
 66
1
 10
0.0
 20
0.0
 30
0.0
  0
VERTEX
  8
0
 10
-18.5
 20
23.5
 30
0.0
  0
VERTEX
  8
0
 10
18.5
 20
23.5
 30
0.0
 42
-0.41421356237309503
  0
VERTEX
  8
0
 10
23.5
 20
18.5
 30
0.0
  0
VERTEX
  8
0
 10
23.5
 20
-18.5
 30
0.0
 42
-0.41421356237309503
  0
VERTEX
  8
0
 10
18.5
 20
-23.5
 30
0.0
  0
VERTEX
  8
0
 10
-18.5
 20
-23.5
 30
0.0
 42
-0.41421356237309503
  0
VERTEX
  8
0
 10
-23.5
 20
-18.5
 30
0.0
  0
VERTEX
  8
0
 10
-23.5
 20
18.5
 30
0.0
 42
-0.41421356237309503
  0
SEQEND
  8
0
  0
ENDBLK
  0
ENDSEC
  0
SECTION
  2
ENTITIES
  0
INSERT
  2
SKETCH051
  8
0
 62
0
 10
0.0
 20
0.0
 30
0.0
  0
ENDSEC
  0
EOF
