  0
SECTION
  2
HEADER
  9
$ACADVER
  1
AC1009
  9
$INSBASE
 10
0.0
 20
0.0
 30
0.0
  9
$EXTMIN
 10
0.0
 20
0.0
 30
0.0
  9
$EXTMAX
 10
0.0
 20
0.0
 30
0.0
  0
ENDSEC
  0
SECTION
  2
TABLES
  0
TABLE
  2
VPORT
 70
0
  0
ENDTAB
  0
TABLE
  2
LTYPE
 70
1
  0
LTYPE
  2
CONTINUOUS
 70
0
  3
Solid line
 72
65
 73
0
 40
0.0
  0
ENDTAB
  0
TABLE
  2
LAYER
 70
1
  0
LAYER
  2
0
 70
64
 62
7
  6
continuous
  0
ENDTAB
  0
TABLE
  2
STYLE
 70
1
  0
STYLE
  2
STANDARD
 70
0
 40
0
 41
1.0
 50
0.0
 71
0
 42
1
 3
ARIAL.TTF
 4

  0
ENDTAB
  0
TABLE
  2
VIEW
 70
0
  0
ENDTAB
  0
ENDSEC
  0
SECTION
  2
BLOCKS
  0
ENDSEC
  0
SECTION
  2
ENTITIES
  0
POLYLINE
  8
0
 62
7
 70
1
 66
1
 10
0.0
 20
0.0
 30
0.0
  0
VERTEX
  8
0
 10
-17.462498755148307
 20
22.542498755147697
 30
0.0
  0
VERTEX
  8
0
 10
17.46249875514831
 20
22.54249875514831
 30
0.0
 42
-0.41421356237309503
  0
VERTEX
  8
0
 10
22.54249875514831
 20
17.462498755148314
 30
0.0
  0
VERTEX
  8
0
 10
22.54249875514831
 20
-17.46249875514831
 30
0.0
 42
-0.41421356237309503
  0
VERTEX
  8
0
 10
17.46249875514831
 20
-22.54249875514831
 30
0.0
  0
VERTEX
  8
0
 10
-17.46250124485169
 20
-22.54249875514831
 30
0.0
 42
-0.41421356237309503
  0
VERTEX
  8
0
 10
-22.542501244851387
 20
-17.46249875514831
 30
0.0
  0
VERTEX
  8
0
 10
-22.542501244851078
 20
0.5424987551483085
 30
0.0
  0
VERTEX
  8
0
 10
-22.542501244851078
 20
17.462501244851687
 30
0.0
 42
-0.4142135623730949
  0
SEQEND
  8
0
  0
ENDSEC
  0
EOF
