  0
SECTION
  2
HEADER
  9
$ACADVER
  1
AC1009
  9
$INSBASE
 10
0.0
 20
0.0
 30
0.0
  9
$EXTMIN
 10
0.0
 20
0.0
 30
0.0
  9
$EXTMAX
 10
0.0
 20
0.0
 30
0.0
  0
ENDSEC
  0
SECTION
  2
TABLES
  0
TABLE
  2
VPORT
 70
0
  0
ENDTAB
  0
TABLE
  2
LTYPE
 70
1
  0
LTYPE
  2
CONTINUOUS
 70
0
  3
Solid line
 72
65
 73
0
 40
0.0
  0
ENDTAB
  0
TABLE
  2
LAYER
 70
3
  0
LAYER
  2
0
 70
64
 62
7
  6
continuous
  0
LAYER
  2
CUT
 70
64
 62
0
  6
continuous
  0
LAYER
  2
AREA ENGRAVE
 70
64
 62
1
  6
continuous
  0
ENDTAB
  0
TABLE
  2
STYLE
 70
1
  0
STYLE
  2
STANDARD
 70
0
 40
0
 41
1.0
 50
0.0
 71
0
 42
1
 3
ARIAL.TTF
 4

  0
ENDTAB
  0
TABLE
  2
VIEW
 70
0
  0
ENDTAB
  0
ENDSEC
  0
SECTION
  2
BLOCKS
  0
BLOCK
  8
0
  2
SKETCH044
 70
0
 10
0.0
 20
0.0
 30
0.0
  3
SKETCH044
  0
CIRCLE
  8
0
 62
1
 10
-22.0
 20
-14.399999999999999
 30
0.0
 40
0.1
  0
CIRCLE
  8
0
 62
1
 10
-22.0
 20
-18.4
 30
0.0
 40
0.1
  0
CIRCLE
  8
0
 62
1
 10
-22.0
 20
-17.7
 30
0.0
 40
0.1
  0
CIRCLE
  8
0
 62
1
 10
-22.0
 20
-16.95
 30
0.0
 40
0.1
  0
CIRCLE
  8
0
 62
1
 10
-22.0
 20
-16.15
 30
0.0
 40
0.1
  0
CIRCLE
  8
0
 62
1
 10
-22.0
 20
-8.85
 30
0.0
 40
0.1
  0
CIRCLE
  8
0
 62
1
 10
-22.0
 20
-15.299999999999999
 30
0.0
 40
0.1
  0
CIRCLE
  8
0
 62
1
 10
-22.0
 20
-13.45
 30
0.0
 40
0.1
  0
CIRCLE
  8
0
 62
1
 10
-22.0
 20
-12.45
 30
0.0
 40
0.1
  0
CIRCLE
  8
0
 62
1
 10
-22.0
 20
-11.35
 30
0.0
 40
0.1
  0
CIRCLE
  8
0
 62
1
 10
-22.0
 20
-10.149999999999999
 30
0.0
 40
0.1
  0
CIRCLE
  8
0
 62
1
 10
-22.0
 20
1.0500000000000007
 30
0.0
 40
0.1
  0
CIRCLE
  8
0
 62
1
 10
-22.0
 20
-7.449999999999999
 30
0.0
 40
0.1
  0
CIRCLE
  8
0
 62
1
 10
-22.0
 20
-5.949999999999999
 30
0.0
 40
0.1
  0
CIRCLE
  8
0
 62
1
 10
-22.0
 20
-4.35
 30
0.0
 40
0.1
  0
CIRCLE
  8
0
 62
1
 10
-22.0
 20
-2.6499999999999995
 30
0.0
 40
0.1
  0
CIRCLE
  8
0
 62
1
 10
-22.0
 20
-0.8499999999999993
 30
0.0
 40
0.1
  0
CIRCLE
  8
0
 62
1
 10
-22.0
 20
3.0500000000000007
 30
0.0
 40
0.1
  0
CIRCLE
  8
0
 62
1
 10
-22.0
 20
5.1000000000000005
 30
0.0
 40
0.1
  0
CIRCLE
  8
0
 62
1
 10
-22.0
 20
7.200000000000001
 30
0.0
 40
0.1001009873326545
  0
CIRCLE
  8
0
 62
1
 10
-22.0
 20
9.350000000000001
 30
0.0
 40
0.1
  0
CIRCLE
  8
0
 62
1
 10
-22.0
 20
11.55
 30
0.0
 40
0.1
  0
CIRCLE
  8
0
 62
1
 10
-22.0
 20
13.8
 30
0.0
 40
0.1
  0
CIRCLE
  8
0
 62
1
 10
-22.0
 20
16.1
 30
0.0
 40
0.1
  0
CIRCLE
  8
0
 62
1
 10
-22.0
 20
18.45
 30
0.0
 40
0.1
  0
CIRCLE
  8
0
 62
1
 10
-21.5
 20
-14.4
 30
0.0
 40
0.1
  0
CIRCLE
  8
0
 62
1
 10
-21.5
 20
-19.65
 30
0.0
 40
0.1
  0
CIRCLE
  8
0
 62
1
 10
-21.5
 20
-19.05
 30
0.0
 40
0.1
  0
CIRCLE
  8
0
 62
1
 10
-21.5
 20
-18.4
 30
0.0
 40
0.1
  0
CIRCLE
  8
0
 62
1
 10
-21.5
 20
-17.7
 30
0.0
 40
0.1
  0
CIRCLE
  8
0
 62
1
 10
-21.5
 20
-16.95
 30
0.0
 40
0.1
  0
CIRCLE
  8
0
 62
1
 10
-21.5
 20
-16.15
 30
0.0
 40
0.1
  0
CIRCLE
  8
0
 62
1
 10
-21.5
 20
-8.85
 30
0.0
 40
0.1
  0
CIRCLE
  8
0
 62
1
 10
-21.5
 20
-15.3
 30
0.0
 40
0.1
  0
CIRCLE
  8
0
 62
1
 10
-21.5
 20
-13.45
 30
0.0
 40
0.1
  0
CIRCLE
  8
0
 62
1
 10
-21.5
 20
-12.45
 30
0.0
 40
0.1
  0
CIRCLE
  8
0
 62
1
 10
-21.5
 20
-11.35
 30
0.0
 40
0.1
  0
CIRCLE
  8
0
 62
1
 10
-21.5
 20
-10.15
 30
0.0
 40
0.1
  0
CIRCLE
  8
0
 62
1
 10
-21.5
 20
1.05
 30
0.0
 40
0.1
  0
CIRCLE
  8
0
 62
1
 10
-21.5
 20
-7.45
 30
0.0
 40
0.1
  0
CIRCLE
  8
0
 62
1
 10
-21.5
 20
-5.95
 30
0.0
 40
0.1
  0
CIRCLE
  8
0
 62
1
 10
-21.5
 20
-4.35
 30
0.0
 40
0.1
  0
CIRCLE
  8
0
 62
1
 10
-21.5
 20
-2.65
 30
0.0
 40
0.1
  0
CIRCLE
  8
0
 62
1
 10
-21.5
 20
-0.85
 30
0.0
 40
0.1
  0
CIRCLE
  8
0
 62
1
 10
-21.5
 20
3.05
 30
0.0
 40
0.1
  0
CIRCLE
  8
0
 62
1
 10
-21.5
 20
5.1
 30
0.0
 40
0.1
  0
CIRCLE
  8
0
 62
1
 10
-21.5
 20
7.2
 30
0.0
 40
0.100101
  0
CIRCLE
  8
0
 62
1
 10
-21.5
 20
9.35
 30
0.0
 40
0.1
  0
CIRCLE
  8
0
 62
1
 10
-21.5
 20
11.55
 30
0.0
 40
0.1
  0
CIRCLE
  8
0
 62
1
 10
-21.5
 20
13.8
 30
0.0
 40
0.1
  0
CIRCLE
  8
0
 62
1
 10
-21.5
 20
16.1
 30
0.0
 40
0.1
  0
CIRCLE
  8
0
 62
1
 10
-21.5
 20
18.45
 30
0.0
 40
0.1
  0
CIRCLE
  8
0
 62
1
 10
-21.0
 20
-14.4
 30
0.0
 40
0.1
  0
CIRCLE
  8
0
 62
1
 10
-21.0
 20
-20.2
 30
0.0
 40
0.1
  0
CIRCLE
  8
0
 62
1
 10
-21.0
 20
-19.65
 30
0.0
 40
0.1
  0
CIRCLE
  8
0
 62
1
 10
-21.0
 20
-19.05
 30
0.0
 40
0.1
  0
CIRCLE
  8
0
 62
1
 10
-21.0
 20
-18.4
 30
0.0
 40
0.1
  0
CIRCLE
  8
0
 62
1
 10
-21.0
 20
-17.7
 30
0.0
 40
0.1
  0
CIRCLE
  8
0
 62
1
 10
-21.0
 20
-16.95
 30
0.0
 40
0.1
  0
CIRCLE
  8
0
 62
1
 10
-21.0
 20
-16.15
 30
0.0
 40
0.1
  0
CIRCLE
  8
0
 62
1
 10
-21.0
 20
-8.85
 30
0.0
 40
0.1
  0
CIRCLE
  8
0
 62
1
 10
-21.0
 20
-15.3
 30
0.0
 40
0.1
  0
CIRCLE
  8
0
 62
1
 10
-21.0
 20
-13.45
 30
0.0
 40
0.1
  0
CIRCLE
  8
0
 62
1
 10
-21.0
 20
-12.45
 30
0.0
 40
0.1
  0
CIRCLE
  8
0
 62
1
 10
-21.0
 20
-11.35
 30
0.0
 40
0.1
  0
CIRCLE
  8
0
 62
1
 10
-21.0
 20
-10.15
 30
0.0
 40
0.1
  0
CIRCLE
  8
0
 62
1
 10
-21.0
 20
1.05
 30
0.0
 40
0.1
  0
CIRCLE
  8
0
 62
1
 10
-21.0
 20
-7.45
 30
0.0
 40
0.1
  0
CIRCLE
  8
0
 62
1
 10
-21.0
 20
-5.95
 30
0.0
 40
0.1
  0
CIRCLE
  8
0
 62
1
 10
-21.0
 20
-4.35
 30
0.0
 40
0.1
  0
CIRCLE
  8
0
 62
1
 10
-21.0
 20
-2.65
 30
0.0
 40
0.1
  0
CIRCLE
  8
0
 62
1
 10
-21.0
 20
-0.85
 30
0.0
 40
0.1
  0
CIRCLE
  8
0
 62
1
 10
-21.0
 20
3.05
 30
0.0
 40
0.1
  0
CIRCLE
  8
0
 62
1
 10
-21.0
 20
5.1
 30
0.0
 40
0.1
  0
CIRCLE
  8
0
 62
1
 10
-21.0
 20
7.2
 30
0.0
 40
0.100101
  0
CIRCLE
  8
0
 62
1
 10
-21.0
 20
9.35
 30
0.0
 40
0.1
  0
CIRCLE
  8
0
 62
1
 10
-21.0
 20
11.55
 30
0.0
 40
0.1
  0
CIRCLE
  8
0
 62
1
 10
-21.0
 20
13.8
 30
0.0
 40
0.1
  0
CIRCLE
  8
0
 62
1
 10
-21.0
 20
16.1
 30
0.0
 40
0.1
  0
CIRCLE
  8
0
 62
1
 10
-21.0
 20
18.45
 30
0.0
 40
0.1
  0
CIRCLE
  8
0
 62
1
 10
-20.5
 20
-14.4
 30
0.0
 40
0.1
  0
CIRCLE
  8
0
 62
1
 10
-20.5
 20
-20.2
 30
0.0
 40
0.1
  0
CIRCLE
  8
0
 62
1
 10
-20.5
 20
-19.65
 30
0.0
 40
0.1
  0
CIRCLE
  8
0
 62
1
 10
-20.5
 20
-19.05
 30
0.0
 40
0.1
  0
CIRCLE
  8
0
 62
1
 10
-20.5
 20
-18.4
 30
0.0
 40
0.1
  0
CIRCLE
  8
0
 62
1
 10
-20.5
 20
-17.7
 30
0.0
 40
0.1
  0
CIRCLE
  8
0
 62
1
 10
-20.5
 20
-16.95
 30
0.0
 40
0.1
  0
CIRCLE
  8
0
 62
1
 10
-20.5
 20
-16.15
 30
0.0
 40
0.1
  0
CIRCLE
  8
0
 62
1
 10
-20.5
 20
-8.85
 30
0.0
 40
0.1
  0
CIRCLE
  8
0
 62
1
 10
-20.5
 20
-15.3
 30
0.0
 40
0.1
  0
CIRCLE
  8
0
 62
1
 10
-20.5
 20
-13.45
 30
0.0
 40
0.1
  0
CIRCLE
  8
0
 62
1
 10
-20.5
 20
-12.45
 30
0.0
 40
0.1
  0
CIRCLE
  8
0
 62
1
 10
-20.5
 20
-11.35
 30
0.0
 40
0.1
  0
CIRCLE
  8
0
 62
1
 10
-20.5
 20
-10.15
 30
0.0
 40
0.1
  0
CIRCLE
  8
0
 62
1
 10
-20.5
 20
1.05
 30
0.0
 40
0.1
  0
CIRCLE
  8
0
 62
1
 10
-20.5
 20
-7.45
 30
0.0
 40
0.1
  0
CIRCLE
  8
0
 62
1
 10
-20.5
 20
-5.95
 30
0.0
 40
0.1
  0
CIRCLE
  8
0
 62
1
 10
-20.5
 20
-4.35
 30
0.0
 40
0.1
  0
CIRCLE
  8
0
 62
1
 10
-20.5
 20
-2.65
 30
0.0
 40
0.1
  0
CIRCLE
  8
0
 62
1
 10
-20.5
 20
-0.85
 30
0.0
 40
0.1
  0
CIRCLE
  8
0
 62
1
 10
-20.5
 20
-20.7
 30
0.0
 40
0.1
  0
CIRCLE
  8
0
 62
1
 10
-20.5
 20
3.05
 30
0.0
 40
0.1
  0
CIRCLE
  8
0
 62
1
 10
-20.5
 20
5.1
 30
0.0
 40
0.1
  0
CIRCLE
  8
0
 62
1
 10
-20.5
 20
7.2
 30
0.0
 40
0.100101
  0
CIRCLE
  8
0
 62
1
 10
-20.5
 20
9.35
 30
0.0
 40
0.1
  0
CIRCLE
  8
0
 62
1
 10
-20.5
 20
11.55
 30
0.0
 40
0.1
  0
CIRCLE
  8
0
 62
1
 10
-20.5
 20
13.8
 30
0.0
 40
0.1
  0
CIRCLE
  8
0
 62
1
 10
-20.5
 20
16.1
 30
0.0
 40
0.1
  0
CIRCLE
  8
0
 62
1
 10
-20.5
 20
18.45
 30
0.0
 40
0.1
  0
CIRCLE
  8
0
 62
1
 10
-20.5
 20
20.85
 30
0.0
 40
0.1
  0
CIRCLE
  8
0
 62
1
 10
-20.0
 20
-14.4
 30
0.0
 40
0.1
  0
CIRCLE
  8
0
 62
1
 10
-20.0
 20
-20.2
 30
0.0
 40
0.1
  0
CIRCLE
  8
0
 62
1
 10
-20.0
 20
-19.65
 30
0.0
 40
0.1
  0
CIRCLE
  8
0
 62
1
 10
-20.0
 20
-19.05
 30
0.0
 40
0.1
  0
CIRCLE
  8
0
 62
1
 10
-20.0
 20
-18.4
 30
0.0
 40
0.1
  0
CIRCLE
  8
0
 62
1
 10
-20.0
 20
-17.7
 30
0.0
 40
0.1
  0
CIRCLE
  8
0
 62
1
 10
-20.0
 20
-16.95
 30
0.0
 40
0.1
  0
CIRCLE
  8
0
 62
1
 10
-20.0
 20
-16.15
 30
0.0
 40
0.1
  0
CIRCLE
  8
0
 62
1
 10
-20.0
 20
-8.85
 30
0.0
 40
0.1
  0
CIRCLE
  8
0
 62
1
 10
-20.0
 20
-15.3
 30
0.0
 40
0.1
  0
CIRCLE
  8
0
 62
1
 10
-20.0
 20
-13.45
 30
0.0
 40
0.1
  0
CIRCLE
  8
0
 62
1
 10
-20.0
 20
-12.45
 30
0.0
 40
0.1
  0
CIRCLE
  8
0
 62
1
 10
-20.0
 20
-11.35
 30
0.0
 40
0.1
  0
CIRCLE
  8
0
 62
1
 10
-20.0
 20
-10.15
 30
0.0
 40
0.1
  0
CIRCLE
  8
0
 62
1
 10
-20.0
 20
1.05
 30
0.0
 40
0.1
  0
CIRCLE
  8
0
 62
1
 10
-20.0
 20
-7.45
 30
0.0
 40
0.1
  0
CIRCLE
  8
0
 62
1
 10
-20.0
 20
-5.95
 30
0.0
 40
0.1
  0
CIRCLE
  8
0
 62
1
 10
-20.0
 20
-4.35
 30
0.0
 40
0.1
  0
CIRCLE
  8
0
 62
1
 10
-20.0
 20
-2.65
 30
0.0
 40
0.1
  0
CIRCLE
  8
0
 62
1
 10
-20.0
 20
-0.85
 30
0.0
 40
0.1
  0
CIRCLE
  8
0
 62
1
 10
-20.0
 20
-21.15
 30
0.0
 40
0.1
  0
CIRCLE
  8
0
 62
1
 10
-20.0
 20
-20.7
 30
0.0
 40
0.1
  0
CIRCLE
  8
0
 62
1
 10
-20.0
 20
3.05
 30
0.0
 40
0.1
  0
CIRCLE
  8
0
 62
1
 10
-20.0
 20
5.1
 30
0.0
 40
0.1
  0
CIRCLE
  8
0
 62
1
 10
-20.0
 20
7.2
 30
0.0
 40
0.100101
  0
CIRCLE
  8
0
 62
1
 10
-20.0
 20
9.35
 30
0.0
 40
0.1
  0
CIRCLE
  8
0
 62
1
 10
-20.0
 20
11.55
 30
0.0
 40
0.1
  0
CIRCLE
  8
0
 62
1
 10
-20.0
 20
13.8
 30
0.0
 40
0.1
  0
CIRCLE
  8
0
 62
1
 10
-20.0
 20
16.1
 30
0.0
 40
0.1
  0
CIRCLE
  8
0
 62
1
 10
-20.0
 20
18.45
 30
0.0
 40
0.1
  0
CIRCLE
  8
0
 62
1
 10
-20.0
 20
20.85
 30
0.0
 40
0.1
  0
CIRCLE
  8
0
 62
1
 10
-19.5
 20
-14.4
 30
0.0
 40
0.1
  0
CIRCLE
  8
0
 62
1
 10
-19.5
 20
-20.2
 30
0.0
 40
0.1
  0
CIRCLE
  8
0
 62
1
 10
-19.5
 20
-19.65
 30
0.0
 40
0.1
  0
CIRCLE
  8
0
 62
1
 10
-19.5
 20
-19.05
 30
0.0
 40
0.1
  0
CIRCLE
  8
0
 62
1
 10
-19.5
 20
-18.4
 30
0.0
 40
0.1
  0
CIRCLE
  8
0
 62
1
 10
-19.5
 20
-17.7
 30
0.0
 40
0.1
  0
CIRCLE
  8
0
 62
1
 10
-19.5
 20
-16.95
 30
0.0
 40
0.1
  0
CIRCLE
  8
0
 62
1
 10
-19.5
 20
-16.15
 30
0.0
 40
0.1
  0
CIRCLE
  8
0
 62
1
 10
-19.5
 20
-8.85
 30
0.0
 40
0.1
  0
CIRCLE
  8
0
 62
1
 10
-19.5
 20
-15.3
 30
0.0
 40
0.1
  0
CIRCLE
  8
0
 62
1
 10
-19.5
 20
-13.45
 30
0.0
 40
0.1
  0
CIRCLE
  8
0
 62
1
 10
-19.5
 20
-12.45
 30
0.0
 40
0.1
  0
CIRCLE
  8
0
 62
1
 10
-19.5
 20
-11.35
 30
0.0
 40
0.1
  0
CIRCLE
  8
0
 62
1
 10
-19.5
 20
-10.15
 30
0.0
 40
0.1
  0
CIRCLE
  8
0
 62
1
 10
-19.5
 20
1.05
 30
0.0
 40
0.1
  0
CIRCLE
  8
0
 62
1
 10
-19.5
 20
-7.45
 30
0.0
 40
0.1
  0
CIRCLE
  8
0
 62
1
 10
-19.5
 20
-5.95
 30
0.0
 40
0.1
  0
CIRCLE
  8
0
 62
1
 10
-19.5
 20
-4.35
 30
0.0
 40
0.1
  0
CIRCLE
  8
0
 62
1
 10
-19.5
 20
-2.65
 30
0.0
 40
0.1
  0
CIRCLE
  8
0
 62
1
 10
-19.5
 20
-0.85
 30
0.0
 40
0.1
  0
CIRCLE
  8
0
 62
1
 10
-19.5
 20
-21.15
 30
0.0
 40
0.1
  0
CIRCLE
  8
0
 62
1
 10
-19.5
 20
-20.7
 30
0.0
 40
0.1
  0
CIRCLE
  8
0
 62
1
 10
-19.5
 20
-21.55
 30
0.0
 40
0.1
  0
CIRCLE
  8
0
 62
1
 10
-19.5
 20
3.05
 30
0.0
 40
0.1
  0
CIRCLE
  8
0
 62
1
 10
-19.5
 20
5.1
 30
0.0
 40
0.1
  0
CIRCLE
  8
0
 62
1
 10
-19.5
 20
7.2
 30
0.0
 40
0.100101
  0
CIRCLE
  8
0
 62
1
 10
-19.5
 20
9.35
 30
0.0
 40
0.1
  0
CIRCLE
  8
0
 62
1
 10
-19.5
 20
11.55
 30
0.0
 40
0.1
  0
CIRCLE
  8
0
 62
1
 10
-19.5
 20
13.8
 30
0.0
 40
0.1
  0
CIRCLE
  8
0
 62
1
 10
-19.5
 20
16.1
 30
0.0
 40
0.1
  0
CIRCLE
  8
0
 62
1
 10
-19.5
 20
18.45
 30
0.0
 40
0.1
  0
CIRCLE
  8
0
 62
1
 10
-19.5
 20
20.85
 30
0.0
 40
0.1
  0
CIRCLE
  8
0
 62
1
 10
-19.0
 20
-14.4
 30
0.0
 40
0.1
  0
CIRCLE
  8
0
 62
1
 10
-19.0
 20
-20.2
 30
0.0
 40
0.1
  0
CIRCLE
  8
0
 62
1
 10
-19.0
 20
-19.65
 30
0.0
 40
0.1
  0
CIRCLE
  8
0
 62
1
 10
-19.0
 20
-19.05
 30
0.0
 40
0.1
  0
CIRCLE
  8
0
 62
1
 10
-19.0
 20
-18.4
 30
0.0
 40
0.1
  0
CIRCLE
  8
0
 62
1
 10
-19.0
 20
-17.7
 30
0.0
 40
0.1
  0
CIRCLE
  8
0
 62
1
 10
-19.0
 20
-16.95
 30
0.0
 40
0.1
  0
CIRCLE
  8
0
 62
1
 10
-19.0
 20
-16.15
 30
0.0
 40
0.1
  0
CIRCLE
  8
0
 62
1
 10
-19.0
 20
-8.85
 30
0.0
 40
0.1
  0
CIRCLE
  8
0
 62
1
 10
-19.0
 20
-15.3
 30
0.0
 40
0.1
  0
CIRCLE
  8
0
 62
1
 10
-19.0
 20
-13.45
 30
0.0
 40
0.1
  0
CIRCLE
  8
0
 62
1
 10
-19.0
 20
-12.45
 30
0.0
 40
0.1
  0
CIRCLE
  8
0
 62
1
 10
-19.0
 20
-11.35
 30
0.0
 40
0.1
  0
CIRCLE
  8
0
 62
1
 10
-19.0
 20
-10.15
 30
0.0
 40
0.1
  0
CIRCLE
  8
0
 62
1
 10
-19.0
 20
1.05
 30
0.0
 40
0.1
  0
CIRCLE
  8
0
 62
1
 10
-19.0
 20
-7.45
 30
0.0
 40
0.1
  0
CIRCLE
  8
0
 62
1
 10
-19.0
 20
-5.95
 30
0.0
 40
0.1
  0
CIRCLE
  8
0
 62
1
 10
-19.0
 20
-4.35
 30
0.0
 40
0.1
  0
CIRCLE
  8
0
 62
1
 10
-19.0
 20
-2.65
 30
0.0
 40
0.1
  0
CIRCLE
  8
0
 62
1
 10
-19.0
 20
-0.85
 30
0.0
 40
0.1
  0
CIRCLE
  8
0
 62
1
 10
-19.0
 20
-21.15
 30
0.0
 40
0.1
  0
CIRCLE
  8
0
 62
1
 10
-19.0
 20
-20.7
 30
0.0
 40
0.1
  0
CIRCLE
  8
0
 62
1
 10
-19.0
 20
-21.9
 30
0.0
 40
0.1
  0
CIRCLE
  8
0
 62
1
 10
-19.0
 20
-21.55
 30
0.0
 40
0.1
  0
CIRCLE
  8
0
 62
1
 10
-19.0
 20
3.05
 30
0.0
 40
0.1
  0
CIRCLE
  8
0
 62
1
 10
-19.0
 20
5.1
 30
0.0
 40
0.1
  0
CIRCLE
  8
0
 62
1
 10
-19.0
 20
7.2
 30
0.0
 40
0.100101
  0
CIRCLE
  8
0
 62
1
 10
-19.0
 20
9.35
 30
0.0
 40
0.1
  0
CIRCLE
  8
0
 62
1
 10
-19.0
 20
11.55
 30
0.0
 40
0.1
  0
CIRCLE
  8
0
 62
1
 10
-19.0
 20
13.8
 30
0.0
 40
0.1
  0
CIRCLE
  8
0
 62
1
 10
-19.0
 20
16.1
 30
0.0
 40
0.1
  0
CIRCLE
  8
0
 62
1
 10
-19.0
 20
18.45
 30
0.0
 40
0.1
  0
CIRCLE
  8
0
 62
1
 10
-19.0
 20
20.85
 30
0.0
 40
0.1
  0
CIRCLE
  8
0
 62
1
 10
-18.5
 20
-14.4
 30
0.0
 40
0.1
  0
CIRCLE
  8
0
 62
1
 10
-18.5
 20
-20.2
 30
0.0
 40
0.1
  0
CIRCLE
  8
0
 62
1
 10
-18.5
 20
-19.65
 30
0.0
 40
0.1
  0
CIRCLE
  8
0
 62
1
 10
-18.5
 20
-19.05
 30
0.0
 40
0.1
  0
CIRCLE
  8
0
 62
1
 10
-18.5
 20
-18.4
 30
0.0
 40
0.1
  0
CIRCLE
  8
0
 62
1
 10
-18.5
 20
-17.7
 30
0.0
 40
0.1
  0
CIRCLE
  8
0
 62
1
 10
-18.5
 20
-16.95
 30
0.0
 40
0.1
  0
CIRCLE
  8
0
 62
1
 10
-18.5
 20
-16.15
 30
0.0
 40
0.1
  0
CIRCLE
  8
0
 62
1
 10
-18.5
 20
-8.85
 30
0.0
 40
0.1
  0
CIRCLE
  8
0
 62
1
 10
-18.5
 20
-15.3
 30
0.0
 40
0.1
  0
CIRCLE
  8
0
 62
1
 10
-18.5
 20
-13.45
 30
0.0
 40
0.1
  0
CIRCLE
  8
0
 62
1
 10
-18.5
 20
-12.45
 30
0.0
 40
0.1
  0
CIRCLE
  8
0
 62
1
 10
-18.5
 20
-11.35
 30
0.0
 40
0.1
  0
CIRCLE
  8
0
 62
1
 10
-18.5
 20
-10.15
 30
0.0
 40
0.1
  0
CIRCLE
  8
0
 62
1
 10
-18.5
 20
1.05
 30
0.0
 40
0.1
  0
CIRCLE
  8
0
 62
1
 10
-18.5
 20
-7.45
 30
0.0
 40
0.1
  0
CIRCLE
  8
0
 62
1
 10
-18.5
 20
-5.95
 30
0.0
 40
0.1
  0
CIRCLE
  8
0
 62
1
 10
-18.5
 20
-4.35
 30
0.0
 40
0.1
  0
CIRCLE
  8
0
 62
1
 10
-18.5
 20
-2.65
 30
0.0
 40
0.1
  0
CIRCLE
  8
0
 62
1
 10
-18.5
 20
-0.85
 30
0.0
 40
0.1
  0
CIRCLE
  8
0
 62
1
 10
-18.5
 20
-21.15
 30
0.0
 40
0.1
  0
CIRCLE
  8
0
 62
1
 10
-18.5
 20
-20.7
 30
0.0
 40
0.1
  0
CIRCLE
  8
0
 62
1
 10
-18.5
 20
-21.9
 30
0.0
 40
0.1
  0
CIRCLE
  8
0
 62
1
 10
-18.5
 20
-21.55
 30
0.0
 40
0.1
  0
CIRCLE
  8
0
 62
1
 10
-18.5
 20
3.05
 30
0.0
 40
0.1
  0
CIRCLE
  8
0
 62
1
 10
-18.5
 20
5.1
 30
0.0
 40
0.1
  0
CIRCLE
  8
0
 62
1
 10
-18.5
 20
7.2
 30
0.0
 40
0.100101
  0
CIRCLE
  8
0
 62
1
 10
-18.5
 20
9.35
 30
0.0
 40
0.1
  0
CIRCLE
  8
0
 62
1
 10
-18.5
 20
11.55
 30
0.0
 40
0.1
  0
CIRCLE
  8
0
 62
1
 10
-18.5
 20
13.8
 30
0.0
 40
0.1
  0
CIRCLE
  8
0
 62
1
 10
-18.5
 20
16.1
 30
0.0
 40
0.1
  0
CIRCLE
  8
0
 62
1
 10
-18.5
 20
18.45
 30
0.0
 40
0.1
  0
CIRCLE
  8
0
 62
1
 10
-18.5
 20
20.85
 30
0.0
 40
0.1
  0
CIRCLE
  8
0
 62
1
 10
-18.0
 20
-14.4
 30
0.0
 40
0.1
  0
CIRCLE
  8
0
 62
1
 10
-18.0
 20
-20.2
 30
0.0
 40
0.1
  0
CIRCLE
  8
0
 62
1
 10
-18.0
 20
-19.65
 30
0.0
 40
0.1
  0
CIRCLE
  8
0
 62
1
 10
-18.0
 20
-19.05
 30
0.0
 40
0.1
  0
CIRCLE
  8
0
 62
1
 10
-18.0
 20
-18.4
 30
0.0
 40
0.1
  0
CIRCLE
  8
0
 62
1
 10
-18.0
 20
-17.7
 30
0.0
 40
0.1
  0
CIRCLE
  8
0
 62
1
 10
-18.0
 20
-16.95
 30
0.0
 40
0.1
  0
CIRCLE
  8
0
 62
1
 10
-18.0
 20
-16.15
 30
0.0
 40
0.1
  0
CIRCLE
  8
0
 62
1
 10
-18.0
 20
-8.85
 30
0.0
 40
0.1
  0
CIRCLE
  8
0
 62
1
 10
-18.0
 20
-15.3
 30
0.0
 40
0.1
  0
CIRCLE
  8
0
 62
1
 10
-18.0
 20
-13.45
 30
0.0
 40
0.1
  0
CIRCLE
  8
0
 62
1
 10
-18.0
 20
-12.45
 30
0.0
 40
0.1
  0
CIRCLE
  8
0
 62
1
 10
-18.0
 20
-11.35
 30
0.0
 40
0.1
  0
CIRCLE
  8
0
 62
1
 10
-18.0
 20
-10.15
 30
0.0
 40
0.1
  0
CIRCLE
  8
0
 62
1
 10
-18.0
 20
1.05
 30
0.0
 40
0.1
  0
CIRCLE
  8
0
 62
1
 10
-18.0
 20
-7.45
 30
0.0
 40
0.1
  0
CIRCLE
  8
0
 62
1
 10
-18.0
 20
-5.95
 30
0.0
 40
0.1
  0
CIRCLE
  8
0
 62
1
 10
-18.0
 20
-4.35
 30
0.0
 40
0.1
  0
CIRCLE
  8
0
 62
1
 10
-18.0
 20
-2.65
 30
0.0
 40
0.1
  0
CIRCLE
  8
0
 62
1
 10
-18.0
 20
-0.85
 30
0.0
 40
0.1
  0
CIRCLE
  8
0
 62
1
 10
-18.0
 20
-21.15
 30
0.0
 40
0.1
  0
CIRCLE
  8
0
 62
1
 10
-18.0
 20
-20.7
 30
0.0
 40
0.1
  0
CIRCLE
  8
0
 62
1
 10
-18.0
 20
-21.9
 30
0.0
 40
0.1
  0
CIRCLE
  8
0
 62
1
 10
-18.0
 20
-21.55
 30
0.0
 40
0.1
  0
CIRCLE
  8
0
 62
1
 10
-18.0
 20
3.05
 30
0.0
 40
0.1
  0
CIRCLE
  8
0
 62
1
 10
-18.0
 20
5.1
 30
0.0
 40
0.1
  0
CIRCLE
  8
0
 62
1
 10
-18.0
 20
7.2
 30
0.0
 40
0.100101
  0
CIRCLE
  8
0
 62
1
 10
-18.0
 20
9.35
 30
0.0
 40
0.1
  0
CIRCLE
  8
0
 62
1
 10
-18.0
 20
11.55
 30
0.0
 40
0.1
  0
CIRCLE
  8
0
 62
1
 10
-18.0
 20
13.8
 30
0.0
 40
0.1
  0
CIRCLE
  8
0
 62
1
 10
-18.0
 20
16.1
 30
0.0
 40
0.1
  0
CIRCLE
  8
0
 62
1
 10
-18.0
 20
18.45
 30
0.0
 40
0.1
  0
CIRCLE
  8
0
 62
1
 10
-18.0
 20
20.85
 30
0.0
 40
0.1
  0
CIRCLE
  8
0
 62
1
 10
-17.5
 20
-14.4
 30
0.0
 40
0.1
  0
CIRCLE
  8
0
 62
1
 10
-17.5
 20
-22.2
 30
0.0
 40
0.1
  0
CIRCLE
  8
0
 62
1
 10
-17.5
 20
-20.2
 30
0.0
 40
0.1
  0
CIRCLE
  8
0
 62
1
 10
-17.5
 20
-19.65
 30
0.0
 40
0.1
  0
CIRCLE
  8
0
 62
1
 10
-17.5
 20
-19.05
 30
0.0
 40
0.1
  0
CIRCLE
  8
0
 62
1
 10
-17.5
 20
-18.4
 30
0.0
 40
0.1
  0
CIRCLE
  8
0
 62
1
 10
-17.5
 20
-17.7
 30
0.0
 40
0.1
  0
CIRCLE
  8
0
 62
1
 10
-17.5
 20
-16.95
 30
0.0
 40
0.1
  0
CIRCLE
  8
0
 62
1
 10
-17.5
 20
-16.15
 30
0.0
 40
0.1
  0
CIRCLE
  8
0
 62
1
 10
-17.5
 20
-8.85
 30
0.0
 40
0.1
  0
CIRCLE
  8
0
 62
1
 10
-17.5
 20
-15.3
 30
0.0
 40
0.1
  0
CIRCLE
  8
0
 62
1
 10
-17.5
 20
-13.45
 30
0.0
 40
0.1
  0
CIRCLE
  8
0
 62
1
 10
-17.5
 20
-12.45
 30
0.0
 40
0.1
  0
CIRCLE
  8
0
 62
1
 10
-17.5
 20
-11.35
 30
0.0
 40
0.1
  0
CIRCLE
  8
0
 62
1
 10
-17.5
 20
-10.15
 30
0.0
 40
0.1
  0
CIRCLE
  8
0
 62
1
 10
-17.5
 20
1.05
 30
0.0
 40
0.1
  0
CIRCLE
  8
0
 62
1
 10
-17.5
 20
-7.45
 30
0.0
 40
0.1
  0
CIRCLE
  8
0
 62
1
 10
-17.5
 20
-5.95
 30
0.0
 40
0.1
  0
CIRCLE
  8
0
 62
1
 10
-17.5
 20
-4.35
 30
0.0
 40
0.1
  0
CIRCLE
  8
0
 62
1
 10
-17.5
 20
-2.65
 30
0.0
 40
0.1
  0
CIRCLE
  8
0
 62
1
 10
-17.5
 20
-0.85
 30
0.0
 40
0.1
  0
CIRCLE
  8
0
 62
1
 10
-17.5
 20
-21.15
 30
0.0
 40
0.1
  0
CIRCLE
  8
0
 62
1
 10
-17.5
 20
-20.7
 30
0.0
 40
0.1
  0
CIRCLE
  8
0
 62
1
 10
-17.5
 20
-21.9
 30
0.0
 40
0.1
  0
CIRCLE
  8
0
 62
1
 10
-17.5
 20
-21.55
 30
0.0
 40
0.1
  0
CIRCLE
  8
0
 62
1
 10
-17.5
 20
3.05
 30
0.0
 40
0.1
  0
CIRCLE
  8
0
 62
1
 10
-17.5
 20
5.1
 30
0.0
 40
0.1
  0
CIRCLE
  8
0
 62
1
 10
-17.5
 20
7.2
 30
0.0
 40
0.100101
  0
CIRCLE
  8
0
 62
1
 10
-17.5
 20
9.35
 30
0.0
 40
0.1
  0
CIRCLE
  8
0
 62
1
 10
-17.5
 20
11.55
 30
0.0
 40
0.1
  0
CIRCLE
  8
0
 62
1
 10
-17.5
 20
13.8
 30
0.0
 40
0.1
  0
CIRCLE
  8
0
 62
1
 10
-17.5
 20
16.1
 30
0.0
 40
0.1
  0
CIRCLE
  8
0
 62
1
 10
-17.5
 20
18.45
 30
0.0
 40
0.1
  0
CIRCLE
  8
0
 62
1
 10
-17.5
 20
20.85
 30
0.0
 40
0.1
  0
CIRCLE
  8
0
 62
1
 10
-17.0
 20
-14.4
 30
0.0
 40
0.1
  0
CIRCLE
  8
0
 62
1
 10
-17.0
 20
-22.2
 30
0.0
 40
0.1
  0
CIRCLE
  8
0
 62
1
 10
-17.0
 20
-20.2
 30
0.0
 40
0.1
  0
CIRCLE
  8
0
 62
1
 10
-17.0
 20
-19.65
 30
0.0
 40
0.1
  0
CIRCLE
  8
0
 62
1
 10
-17.0
 20
-19.05
 30
0.0
 40
0.1
  0
CIRCLE
  8
0
 62
1
 10
-17.0
 20
-18.4
 30
0.0
 40
0.1
  0
CIRCLE
  8
0
 62
1
 10
-17.0
 20
-17.7
 30
0.0
 40
0.1
  0
CIRCLE
  8
0
 62
1
 10
-17.0
 20
-16.95
 30
0.0
 40
0.1
  0
CIRCLE
  8
0
 62
1
 10
-17.0
 20
-16.15
 30
0.0
 40
0.1
  0
CIRCLE
  8
0
 62
1
 10
-17.0
 20
-8.85
 30
0.0
 40
0.1
  0
CIRCLE
  8
0
 62
1
 10
-17.0
 20
-15.3
 30
0.0
 40
0.1
  0
CIRCLE
  8
0
 62
1
 10
-17.0
 20
-13.45
 30
0.0
 40
0.1
  0
CIRCLE
  8
0
 62
1
 10
-17.0
 20
-12.45
 30
0.0
 40
0.1
  0
CIRCLE
  8
0
 62
1
 10
-17.0
 20
-11.35
 30
0.0
 40
0.1
  0
CIRCLE
  8
0
 62
1
 10
-17.0
 20
-10.15
 30
0.0
 40
0.1
  0
CIRCLE
  8
0
 62
1
 10
-17.0
 20
1.05
 30
0.0
 40
0.1
  0
CIRCLE
  8
0
 62
1
 10
-17.0
 20
-7.45
 30
0.0
 40
0.1
  0
CIRCLE
  8
0
 62
1
 10
-17.0
 20
-5.95
 30
0.0
 40
0.1
  0
CIRCLE
  8
0
 62
1
 10
-17.0
 20
-4.35
 30
0.0
 40
0.1
  0
CIRCLE
  8
0
 62
1
 10
-17.0
 20
-2.65
 30
0.0
 40
0.1
  0
CIRCLE
  8
0
 62
1
 10
-17.0
 20
-0.85
 30
0.0
 40
0.1
  0
CIRCLE
  8
0
 62
1
 10
-17.0
 20
-21.15
 30
0.0
 40
0.1
  0
CIRCLE
  8
0
 62
1
 10
-17.0
 20
-20.7
 30
0.0
 40
0.1
  0
CIRCLE
  8
0
 62
1
 10
-17.0
 20
-21.9
 30
0.0
 40
0.1
  0
CIRCLE
  8
0
 62
1
 10
-17.0
 20
-21.55
 30
0.0
 40
0.1
  0
CIRCLE
  8
0
 62
1
 10
-17.0
 20
3.05
 30
0.0
 40
0.1
  0
CIRCLE
  8
0
 62
1
 10
-17.0
 20
5.1
 30
0.0
 40
0.1
  0
CIRCLE
  8
0
 62
1
 10
-17.0
 20
7.2
 30
0.0
 40
0.100101
  0
CIRCLE
  8
0
 62
1
 10
-17.0
 20
9.35
 30
0.0
 40
0.1
  0
CIRCLE
  8
0
 62
1
 10
-17.0
 20
11.55
 30
0.0
 40
0.1
  0
CIRCLE
  8
0
 62
1
 10
-17.0
 20
13.8
 30
0.0
 40
0.1
  0
CIRCLE
  8
0
 62
1
 10
-17.0
 20
16.1
 30
0.0
 40
0.1
  0
CIRCLE
  8
0
 62
1
 10
-17.0
 20
18.45
 30
0.0
 40
0.1
  0
CIRCLE
  8
0
 62
1
 10
-17.0
 20
20.85
 30
0.0
 40
0.1
  0
CIRCLE
  8
0
 62
1
 10
-16.5
 20
-14.4
 30
0.0
 40
0.1
  0
CIRCLE
  8
0
 62
1
 10
-16.5
 20
-22.2
 30
0.0
 40
0.1
  0
CIRCLE
  8
0
 62
1
 10
-16.5
 20
-20.2
 30
0.0
 40
0.1
  0
CIRCLE
  8
0
 62
1
 10
-16.5
 20
-19.65
 30
0.0
 40
0.1
  0
CIRCLE
  8
0
 62
1
 10
-16.5
 20
-19.05
 30
0.0
 40
0.1
  0
CIRCLE
  8
0
 62
1
 10
-16.5
 20
-18.4
 30
0.0
 40
0.1
  0
CIRCLE
  8
0
 62
1
 10
-16.5
 20
-17.7
 30
0.0
 40
0.1
  0
CIRCLE
  8
0
 62
1
 10
-16.5
 20
-16.95
 30
0.0
 40
0.1
  0
CIRCLE
  8
0
 62
1
 10
-16.5
 20
-16.15
 30
0.0
 40
0.1
  0
CIRCLE
  8
0
 62
1
 10
-16.5
 20
-8.85
 30
0.0
 40
0.1
  0
CIRCLE
  8
0
 62
1
 10
-16.5
 20
-15.3
 30
0.0
 40
0.1
  0
CIRCLE
  8
0
 62
1
 10
-16.5
 20
-13.45
 30
0.0
 40
0.1
  0
CIRCLE
  8
0
 62
1
 10
-16.5
 20
-12.45
 30
0.0
 40
0.1
  0
CIRCLE
  8
0
 62
1
 10
-16.5
 20
-11.35
 30
0.0
 40
0.1
  0
CIRCLE
  8
0
 62
1
 10
-16.5
 20
-10.15
 30
0.0
 40
0.1
  0
CIRCLE
  8
0
 62
1
 10
-16.5
 20
1.05
 30
0.0
 40
0.1
  0
CIRCLE
  8
0
 62
1
 10
-16.5
 20
-7.45
 30
0.0
 40
0.1
  0
CIRCLE
  8
0
 62
1
 10
-16.5
 20
-5.95
 30
0.0
 40
0.1
  0
CIRCLE
  8
0
 62
1
 10
-16.5
 20
-4.35
 30
0.0
 40
0.1
  0
CIRCLE
  8
0
 62
1
 10
-16.5
 20
-2.65
 30
0.0
 40
0.1
  0
CIRCLE
  8
0
 62
1
 10
-16.5
 20
-0.85
 30
0.0
 40
0.1
  0
CIRCLE
  8
0
 62
1
 10
-16.5
 20
-21.15
 30
0.0
 40
0.1
  0
CIRCLE
  8
0
 62
1
 10
-16.5
 20
-20.7
 30
0.0
 40
0.1
  0
CIRCLE
  8
0
 62
1
 10
-16.5
 20
-21.9
 30
0.0
 40
0.1
  0
CIRCLE
  8
0
 62
1
 10
-16.5
 20
-21.55
 30
0.0
 40
0.1
  0
CIRCLE
  8
0
 62
1
 10
-16.5
 20
3.05
 30
0.0
 40
0.1
  0
CIRCLE
  8
0
 62
1
 10
-16.5
 20
5.1
 30
0.0
 40
0.1
  0
CIRCLE
  8
0
 62
1
 10
-16.5
 20
7.2
 30
0.0
 40
0.100101
  0
CIRCLE
  8
0
 62
1
 10
-16.5
 20
9.35
 30
0.0
 40
0.1
  0
CIRCLE
  8
0
 62
1
 10
-16.5
 20
11.55
 30
0.0
 40
0.1
  0
CIRCLE
  8
0
 62
1
 10
-16.5
 20
13.8
 30
0.0
 40
0.1
  0
CIRCLE
  8
0
 62
1
 10
-16.5
 20
16.1
 30
0.0
 40
0.1
  0
CIRCLE
  8
0
 62
1
 10
-16.5
 20
18.45
 30
0.0
 40
0.1
  0
CIRCLE
  8
0
 62
1
 10
-16.5
 20
20.85
 30
0.0
 40
0.1
  0
CIRCLE
  8
0
 62
1
 10
-16.0
 20
-14.4
 30
0.0
 40
0.1
  0
CIRCLE
  8
0
 62
1
 10
-16.0
 20
-22.2
 30
0.0
 40
0.1
  0
CIRCLE
  8
0
 62
1
 10
-16.0
 20
-20.2
 30
0.0
 40
0.1
  0
CIRCLE
  8
0
 62
1
 10
-16.0
 20
-19.65
 30
0.0
 40
0.1
  0
CIRCLE
  8
0
 62
1
 10
-16.0
 20
-19.05
 30
0.0
 40
0.1
  0
CIRCLE
  8
0
 62
1
 10
-16.0
 20
-18.4
 30
0.0
 40
0.1
  0
CIRCLE
  8
0
 62
1
 10
-16.0
 20
-17.7
 30
0.0
 40
0.1
  0
CIRCLE
  8
0
 62
1
 10
-16.0
 20
-16.95
 30
0.0
 40
0.1
  0
CIRCLE
  8
0
 62
1
 10
-16.0
 20
-16.15
 30
0.0
 40
0.1
  0
CIRCLE
  8
0
 62
1
 10
-16.0
 20
-8.85
 30
0.0
 40
0.1
  0
CIRCLE
  8
0
 62
1
 10
-16.0
 20
-15.3
 30
0.0
 40
0.1
  0
CIRCLE
  8
0
 62
1
 10
-16.0
 20
-13.45
 30
0.0
 40
0.1
  0
CIRCLE
  8
0
 62
1
 10
-16.0
 20
-12.45
 30
0.0
 40
0.1
  0
CIRCLE
  8
0
 62
1
 10
-16.0
 20
-11.35
 30
0.0
 40
0.1
  0
CIRCLE
  8
0
 62
1
 10
-16.0
 20
-10.15
 30
0.0
 40
0.1
  0
CIRCLE
  8
0
 62
1
 10
-16.0
 20
1.05
 30
0.0
 40
0.1
  0
CIRCLE
  8
0
 62
1
 10
-16.0
 20
-7.45
 30
0.0
 40
0.1
  0
CIRCLE
  8
0
 62
1
 10
-16.0
 20
-5.95
 30
0.0
 40
0.1
  0
CIRCLE
  8
0
 62
1
 10
-16.0
 20
-4.35
 30
0.0
 40
0.1
  0
CIRCLE
  8
0
 62
1
 10
-16.0
 20
-2.65
 30
0.0
 40
0.1
  0
CIRCLE
  8
0
 62
1
 10
-16.0
 20
-0.85
 30
0.0
 40
0.1
  0
CIRCLE
  8
0
 62
1
 10
-16.0
 20
-21.15
 30
0.0
 40
0.1
  0
CIRCLE
  8
0
 62
1
 10
-16.0
 20
-20.7
 30
0.0
 40
0.1
  0
CIRCLE
  8
0
 62
1
 10
-16.0
 20
-21.9
 30
0.0
 40
0.1
  0
CIRCLE
  8
0
 62
1
 10
-16.0
 20
-21.55
 30
0.0
 40
0.1
  0
CIRCLE
  8
0
 62
1
 10
-16.0
 20
3.05
 30
0.0
 40
0.1
  0
CIRCLE
  8
0
 62
1
 10
-16.0
 20
5.1
 30
0.0
 40
0.1
  0
CIRCLE
  8
0
 62
1
 10
-16.0
 20
7.2
 30
0.0
 40
0.100101
  0
CIRCLE
  8
0
 62
1
 10
-16.0
 20
9.35
 30
0.0
 40
0.1
  0
CIRCLE
  8
0
 62
1
 10
-16.0
 20
11.55
 30
0.0
 40
0.1
  0
CIRCLE
  8
0
 62
1
 10
-16.0
 20
13.8
 30
0.0
 40
0.1
  0
CIRCLE
  8
0
 62
1
 10
-16.0
 20
16.1
 30
0.0
 40
0.1
  0
CIRCLE
  8
0
 62
1
 10
-16.0
 20
18.45
 30
0.0
 40
0.1
  0
CIRCLE
  8
0
 62
1
 10
-16.0
 20
20.85
 30
0.0
 40
0.1
  0
CIRCLE
  8
0
 62
1
 10
-15.5
 20
-14.4
 30
0.0
 40
0.1
  0
CIRCLE
  8
0
 62
1
 10
-15.5
 20
-22.2
 30
0.0
 40
0.1
  0
CIRCLE
  8
0
 62
1
 10
-15.5
 20
-20.2
 30
0.0
 40
0.1
  0
CIRCLE
  8
0
 62
1
 10
-15.5
 20
-19.65
 30
0.0
 40
0.1
  0
CIRCLE
  8
0
 62
1
 10
-15.5
 20
-19.05
 30
0.0
 40
0.1
  0
CIRCLE
  8
0
 62
1
 10
-15.5
 20
-18.4
 30
0.0
 40
0.1
  0
CIRCLE
  8
0
 62
1
 10
-15.5
 20
-17.7
 30
0.0
 40
0.1
  0
CIRCLE
  8
0
 62
1
 10
-15.5
 20
-16.95
 30
0.0
 40
0.1
  0
CIRCLE
  8
0
 62
1
 10
-15.5
 20
-16.15
 30
0.0
 40
0.1
  0
CIRCLE
  8
0
 62
1
 10
-15.5
 20
-8.85
 30
0.0
 40
0.1
  0
CIRCLE
  8
0
 62
1
 10
-15.5
 20
-15.3
 30
0.0
 40
0.1
  0
CIRCLE
  8
0
 62
1
 10
-15.5
 20
-13.45
 30
0.0
 40
0.1
  0
CIRCLE
  8
0
 62
1
 10
-15.5
 20
-12.45
 30
0.0
 40
0.1
  0
CIRCLE
  8
0
 62
1
 10
-15.5
 20
-11.35
 30
0.0
 40
0.1
  0
CIRCLE
  8
0
 62
1
 10
-15.5
 20
-10.15
 30
0.0
 40
0.1
  0
CIRCLE
  8
0
 62
1
 10
-15.5
 20
1.05
 30
0.0
 40
0.1
  0
CIRCLE
  8
0
 62
1
 10
-15.5
 20
-7.45
 30
0.0
 40
0.1
  0
CIRCLE
  8
0
 62
1
 10
-15.5
 20
-5.95
 30
0.0
 40
0.1
  0
CIRCLE
  8
0
 62
1
 10
-15.5
 20
-4.35
 30
0.0
 40
0.1
  0
CIRCLE
  8
0
 62
1
 10
-15.5
 20
-2.65
 30
0.0
 40
0.1
  0
CIRCLE
  8
0
 62
1
 10
-15.5
 20
-0.85
 30
0.0
 40
0.1
  0
CIRCLE
  8
0
 62
1
 10
-15.5
 20
-21.15
 30
0.0
 40
0.1
  0
CIRCLE
  8
0
 62
1
 10
-15.5
 20
-20.7
 30
0.0
 40
0.1
  0
CIRCLE
  8
0
 62
1
 10
-15.5
 20
-21.9
 30
0.0
 40
0.1
  0
CIRCLE
  8
0
 62
1
 10
-15.5
 20
-21.55
 30
0.0
 40
0.1
  0
CIRCLE
  8
0
 62
1
 10
-15.5
 20
3.05
 30
0.0
 40
0.1
  0
CIRCLE
  8
0
 62
1
 10
-15.5
 20
5.1
 30
0.0
 40
0.1
  0
CIRCLE
  8
0
 62
1
 10
-15.5
 20
7.2
 30
0.0
 40
0.100101
  0
CIRCLE
  8
0
 62
1
 10
-15.5
 20
9.35
 30
0.0
 40
0.1
  0
CIRCLE
  8
0
 62
1
 10
-15.5
 20
11.55
 30
0.0
 40
0.1
  0
CIRCLE
  8
0
 62
1
 10
-15.5
 20
13.8
 30
0.0
 40
0.1
  0
CIRCLE
  8
0
 62
1
 10
-15.5
 20
16.1
 30
0.0
 40
0.1
  0
CIRCLE
  8
0
 62
1
 10
-15.5
 20
18.45
 30
0.0
 40
0.1
  0
CIRCLE
  8
0
 62
1
 10
-15.5
 20
20.85
 30
0.0
 40
0.1
  0
CIRCLE
  8
0
 62
1
 10
-15.0
 20
-14.4
 30
0.0
 40
0.1
  0
CIRCLE
  8
0
 62
1
 10
-15.0
 20
-22.2
 30
0.0
 40
0.1
  0
CIRCLE
  8
0
 62
1
 10
-15.0
 20
-20.2
 30
0.0
 40
0.1
  0
CIRCLE
  8
0
 62
1
 10
-15.0
 20
-19.65
 30
0.0
 40
0.1
  0
CIRCLE
  8
0
 62
1
 10
-15.0
 20
-19.05
 30
0.0
 40
0.1
  0
CIRCLE
  8
0
 62
1
 10
-15.0
 20
-18.4
 30
0.0
 40
0.1
  0
CIRCLE
  8
0
 62
1
 10
-15.0
 20
-17.7
 30
0.0
 40
0.1
  0
CIRCLE
  8
0
 62
1
 10
-15.0
 20
-16.95
 30
0.0
 40
0.1
  0
CIRCLE
  8
0
 62
1
 10
-15.0
 20
-16.15
 30
0.0
 40
0.1
  0
CIRCLE
  8
0
 62
1
 10
-15.0
 20
-8.85
 30
0.0
 40
0.1
  0
CIRCLE
  8
0
 62
1
 10
-15.0
 20
-15.3
 30
0.0
 40
0.1
  0
CIRCLE
  8
0
 62
1
 10
-15.0
 20
-13.45
 30
0.0
 40
0.1
  0
CIRCLE
  8
0
 62
1
 10
-15.0
 20
-12.45
 30
0.0
 40
0.1
  0
CIRCLE
  8
0
 62
1
 10
-15.0
 20
-11.35
 30
0.0
 40
0.1
  0
CIRCLE
  8
0
 62
1
 10
-15.0
 20
-10.15
 30
0.0
 40
0.1
  0
CIRCLE
  8
0
 62
1
 10
-15.0
 20
1.05
 30
0.0
 40
0.1
  0
CIRCLE
  8
0
 62
1
 10
-15.0
 20
-7.45
 30
0.0
 40
0.1
  0
CIRCLE
  8
0
 62
1
 10
-15.0
 20
-5.95
 30
0.0
 40
0.1
  0
CIRCLE
  8
0
 62
1
 10
-15.0
 20
-4.35
 30
0.0
 40
0.1
  0
CIRCLE
  8
0
 62
1
 10
-15.0
 20
-2.65
 30
0.0
 40
0.1
  0
CIRCLE
  8
0
 62
1
 10
-15.0
 20
-0.85
 30
0.0
 40
0.1
  0
CIRCLE
  8
0
 62
1
 10
-15.0
 20
-21.15
 30
0.0
 40
0.1
  0
CIRCLE
  8
0
 62
1
 10
-15.0
 20
-20.7
 30
0.0
 40
0.1
  0
CIRCLE
  8
0
 62
1
 10
-15.0
 20
-21.9
 30
0.0
 40
0.1
  0
CIRCLE
  8
0
 62
1
 10
-15.0
 20
-21.55
 30
0.0
 40
0.1
  0
CIRCLE
  8
0
 62
1
 10
-15.0
 20
3.05
 30
0.0
 40
0.1
  0
CIRCLE
  8
0
 62
1
 10
-15.0
 20
5.1
 30
0.0
 40
0.1
  0
CIRCLE
  8
0
 62
1
 10
-15.0
 20
7.2
 30
0.0
 40
0.100101
  0
CIRCLE
  8
0
 62
1
 10
-15.0
 20
9.35
 30
0.0
 40
0.1
  0
CIRCLE
  8
0
 62
1
 10
-15.0
 20
11.55
 30
0.0
 40
0.1
  0
CIRCLE
  8
0
 62
1
 10
-15.0
 20
13.8
 30
0.0
 40
0.1
  0
CIRCLE
  8
0
 62
1
 10
-15.0
 20
16.1
 30
0.0
 40
0.1
  0
CIRCLE
  8
0
 62
1
 10
-15.0
 20
18.45
 30
0.0
 40
0.1
  0
CIRCLE
  8
0
 62
1
 10
-15.0
 20
20.85
 30
0.0
 40
0.1
  0
CIRCLE
  8
0
 62
1
 10
-14.5
 20
-14.4
 30
0.0
 40
0.1
  0
CIRCLE
  8
0
 62
1
 10
-14.5
 20
-22.2
 30
0.0
 40
0.1
  0
CIRCLE
  8
0
 62
1
 10
-14.5
 20
-20.2
 30
0.0
 40
0.1
  0
CIRCLE
  8
0
 62
1
 10
-14.5
 20
-19.65
 30
0.0
 40
0.1
  0
CIRCLE
  8
0
 62
1
 10
-14.5
 20
-19.05
 30
0.0
 40
0.1
  0
CIRCLE
  8
0
 62
1
 10
-14.5
 20
-18.4
 30
0.0
 40
0.1
  0
CIRCLE
  8
0
 62
1
 10
-14.5
 20
-17.7
 30
0.0
 40
0.1
  0
CIRCLE
  8
0
 62
1
 10
-14.5
 20
-16.95
 30
0.0
 40
0.1
  0
CIRCLE
  8
0
 62
1
 10
-14.5
 20
-16.15
 30
0.0
 40
0.1
  0
CIRCLE
  8
0
 62
1
 10
-14.5
 20
-8.85
 30
0.0
 40
0.1
  0
CIRCLE
  8
0
 62
1
 10
-14.5
 20
-15.3
 30
0.0
 40
0.1
  0
CIRCLE
  8
0
 62
1
 10
-14.5
 20
-13.45
 30
0.0
 40
0.1
  0
CIRCLE
  8
0
 62
1
 10
-14.5
 20
-12.45
 30
0.0
 40
0.1
  0
CIRCLE
  8
0
 62
1
 10
-14.5
 20
-11.35
 30
0.0
 40
0.1
  0
CIRCLE
  8
0
 62
1
 10
-14.5
 20
-10.15
 30
0.0
 40
0.1
  0
CIRCLE
  8
0
 62
1
 10
-14.5
 20
1.05
 30
0.0
 40
0.1
  0
CIRCLE
  8
0
 62
1
 10
-14.5
 20
-7.45
 30
0.0
 40
0.1
  0
CIRCLE
  8
0
 62
1
 10
-14.5
 20
-5.95
 30
0.0
 40
0.1
  0
CIRCLE
  8
0
 62
1
 10
-14.5
 20
-4.35
 30
0.0
 40
0.1
  0
CIRCLE
  8
0
 62
1
 10
-14.5
 20
-2.65
 30
0.0
 40
0.1
  0
CIRCLE
  8
0
 62
1
 10
-14.5
 20
-0.85
 30
0.0
 40
0.1
  0
CIRCLE
  8
0
 62
1
 10
-14.5
 20
-21.15
 30
0.0
 40
0.1
  0
CIRCLE
  8
0
 62
1
 10
-14.5
 20
-20.7
 30
0.0
 40
0.1
  0
CIRCLE
  8
0
 62
1
 10
-14.5
 20
-21.9
 30
0.0
 40
0.1
  0
CIRCLE
  8
0
 62
1
 10
-14.5
 20
-21.55
 30
0.0
 40
0.1
  0
CIRCLE
  8
0
 62
1
 10
-14.5
 20
3.05
 30
0.0
 40
0.1
  0
CIRCLE
  8
0
 62
1
 10
-14.5
 20
5.1
 30
0.0
 40
0.1
  0
CIRCLE
  8
0
 62
1
 10
-14.5
 20
7.2
 30
0.0
 40
0.100101
  0
CIRCLE
  8
0
 62
1
 10
-14.5
 20
9.35
 30
0.0
 40
0.1
  0
CIRCLE
  8
0
 62
1
 10
-14.5
 20
11.55
 30
0.0
 40
0.1
  0
CIRCLE
  8
0
 62
1
 10
-14.5
 20
13.8
 30
0.0
 40
0.1
  0
CIRCLE
  8
0
 62
1
 10
-14.5
 20
16.1
 30
0.0
 40
0.1
  0
CIRCLE
  8
0
 62
1
 10
-14.5
 20
18.45
 30
0.0
 40
0.1
  0
CIRCLE
  8
0
 62
1
 10
-14.5
 20
20.85
 30
0.0
 40
0.1
  0
CIRCLE
  8
0
 62
1
 10
-14.0
 20
-14.4
 30
0.0
 40
0.1
  0
CIRCLE
  8
0
 62
1
 10
-14.0
 20
-22.2
 30
0.0
 40
0.1
  0
CIRCLE
  8
0
 62
1
 10
-14.0
 20
-20.2
 30
0.0
 40
0.1
  0
CIRCLE
  8
0
 62
1
 10
-14.0
 20
-19.65
 30
0.0
 40
0.1
  0
CIRCLE
  8
0
 62
1
 10
-14.0
 20
-19.05
 30
0.0
 40
0.1
  0
CIRCLE
  8
0
 62
1
 10
-14.0
 20
-18.4
 30
0.0
 40
0.1
  0
CIRCLE
  8
0
 62
1
 10
-14.0
 20
-17.7
 30
0.0
 40
0.1
  0
CIRCLE
  8
0
 62
1
 10
-14.0
 20
-16.95
 30
0.0
 40
0.1
  0
CIRCLE
  8
0
 62
1
 10
-14.0
 20
-16.15
 30
0.0
 40
0.1
  0
CIRCLE
  8
0
 62
1
 10
-14.0
 20
-8.85
 30
0.0
 40
0.1
  0
CIRCLE
  8
0
 62
1
 10
-14.0
 20
-15.3
 30
0.0
 40
0.1
  0
CIRCLE
  8
0
 62
1
 10
-14.0
 20
-13.45
 30
0.0
 40
0.1
  0
CIRCLE
  8
0
 62
1
 10
-14.0
 20
-12.45
 30
0.0
 40
0.1
  0
CIRCLE
  8
0
 62
1
 10
-14.0
 20
-11.35
 30
0.0
 40
0.1
  0
CIRCLE
  8
0
 62
1
 10
-14.0
 20
-10.15
 30
0.0
 40
0.1
  0
CIRCLE
  8
0
 62
1
 10
-14.0
 20
1.05
 30
0.0
 40
0.1
  0
CIRCLE
  8
0
 62
1
 10
-14.0
 20
-7.45
 30
0.0
 40
0.1
  0
CIRCLE
  8
0
 62
1
 10
-14.0
 20
-5.95
 30
0.0
 40
0.1
  0
CIRCLE
  8
0
 62
1
 10
-14.0
 20
-4.35
 30
0.0
 40
0.1
  0
CIRCLE
  8
0
 62
1
 10
-14.0
 20
-2.65
 30
0.0
 40
0.1
  0
CIRCLE
  8
0
 62
1
 10
-14.0
 20
-0.85
 30
0.0
 40
0.1
  0
CIRCLE
  8
0
 62
1
 10
-14.0
 20
-21.15
 30
0.0
 40
0.1
  0
CIRCLE
  8
0
 62
1
 10
-14.0
 20
-20.7
 30
0.0
 40
0.1
  0
CIRCLE
  8
0
 62
1
 10
-14.0
 20
-21.9
 30
0.0
 40
0.1
  0
CIRCLE
  8
0
 62
1
 10
-14.0
 20
-21.55
 30
0.0
 40
0.1
  0
CIRCLE
  8
0
 62
1
 10
-14.0
 20
3.05
 30
0.0
 40
0.1
  0
CIRCLE
  8
0
 62
1
 10
-14.0
 20
5.1
 30
0.0
 40
0.1
  0
CIRCLE
  8
0
 62
1
 10
-14.0
 20
7.2
 30
0.0
 40
0.100101
  0
CIRCLE
  8
0
 62
1
 10
-14.0
 20
9.35
 30
0.0
 40
0.1
  0
CIRCLE
  8
0
 62
1
 10
-14.0
 20
11.55
 30
0.0
 40
0.1
  0
CIRCLE
  8
0
 62
1
 10
-14.0
 20
13.8
 30
0.0
 40
0.1
  0
CIRCLE
  8
0
 62
1
 10
-14.0
 20
16.1
 30
0.0
 40
0.1
  0
CIRCLE
  8
0
 62
1
 10
-14.0
 20
18.45
 30
0.0
 40
0.1
  0
CIRCLE
  8
0
 62
1
 10
-14.0
 20
20.85
 30
0.0
 40
0.1
  0
CIRCLE
  8
0
 62
1
 10
-13.5
 20
-14.4
 30
0.0
 40
0.1
  0
CIRCLE
  8
0
 62
1
 10
-13.5
 20
-22.2
 30
0.0
 40
0.1
  0
CIRCLE
  8
0
 62
1
 10
-13.5
 20
-20.2
 30
0.0
 40
0.1
  0
CIRCLE
  8
0
 62
1
 10
-13.5
 20
-19.65
 30
0.0
 40
0.1
  0
CIRCLE
  8
0
 62
1
 10
-13.5
 20
-19.05
 30
0.0
 40
0.1
  0
CIRCLE
  8
0
 62
1
 10
-13.5
 20
-18.4
 30
0.0
 40
0.1
  0
CIRCLE
  8
0
 62
1
 10
-13.5
 20
-17.7
 30
0.0
 40
0.1
  0
CIRCLE
  8
0
 62
1
 10
-13.5
 20
-16.95
 30
0.0
 40
0.1
  0
CIRCLE
  8
0
 62
1
 10
-13.5
 20
-16.15
 30
0.0
 40
0.1
  0
CIRCLE
  8
0
 62
1
 10
-13.5
 20
-8.85
 30
0.0
 40
0.1
  0
CIRCLE
  8
0
 62
1
 10
-13.5
 20
-15.3
 30
0.0
 40
0.1
  0
CIRCLE
  8
0
 62
1
 10
-13.5
 20
-13.45
 30
0.0
 40
0.1
  0
CIRCLE
  8
0
 62
1
 10
-13.5
 20
-12.45
 30
0.0
 40
0.1
  0
CIRCLE
  8
0
 62
1
 10
-13.5
 20
-11.35
 30
0.0
 40
0.1
  0
CIRCLE
  8
0
 62
1
 10
-13.5
 20
-10.15
 30
0.0
 40
0.1
  0
CIRCLE
  8
0
 62
1
 10
-13.5
 20
1.05
 30
0.0
 40
0.1
  0
CIRCLE
  8
0
 62
1
 10
-13.5
 20
-7.45
 30
0.0
 40
0.1
  0
CIRCLE
  8
0
 62
1
 10
-13.5
 20
-5.95
 30
0.0
 40
0.1
  0
CIRCLE
  8
0
 62
1
 10
-13.5
 20
-4.35
 30
0.0
 40
0.1
  0
CIRCLE
  8
0
 62
1
 10
-13.5
 20
-2.65
 30
0.0
 40
0.1
  0
CIRCLE
  8
0
 62
1
 10
-13.5
 20
-0.85
 30
0.0
 40
0.1
  0
CIRCLE
  8
0
 62
1
 10
-13.5
 20
-21.15
 30
0.0
 40
0.1
  0
CIRCLE
  8
0
 62
1
 10
-13.5
 20
-20.7
 30
0.0
 40
0.1
  0
CIRCLE
  8
0
 62
1
 10
-13.5
 20
-21.9
 30
0.0
 40
0.1
  0
CIRCLE
  8
0
 62
1
 10
-13.5
 20
-21.55
 30
0.0
 40
0.1
  0
CIRCLE
  8
0
 62
1
 10
-13.5
 20
3.05
 30
0.0
 40
0.1
  0
CIRCLE
  8
0
 62
1
 10
-13.5
 20
5.1
 30
0.0
 40
0.1
  0
CIRCLE
  8
0
 62
1
 10
-13.5
 20
7.2
 30
0.0
 40
0.100101
  0
CIRCLE
  8
0
 62
1
 10
-13.5
 20
9.35
 30
0.0
 40
0.1
  0
CIRCLE
  8
0
 62
1
 10
-13.5
 20
11.55
 30
0.0
 40
0.1
  0
CIRCLE
  8
0
 62
1
 10
-13.5
 20
13.8
 30
0.0
 40
0.1
  0
CIRCLE
  8
0
 62
1
 10
-13.5
 20
16.1
 30
0.0
 40
0.1
  0
CIRCLE
  8
0
 62
1
 10
-13.5
 20
18.45
 30
0.0
 40
0.1
  0
CIRCLE
  8
0
 62
1
 10
-13.5
 20
20.85
 30
0.0
 40
0.1
  0
CIRCLE
  8
0
 62
1
 10
-13.0
 20
-14.4
 30
0.0
 40
0.1
  0
CIRCLE
  8
0
 62
1
 10
-13.0
 20
-22.2
 30
0.0
 40
0.1
  0
CIRCLE
  8
0
 62
1
 10
-13.0
 20
-20.2
 30
0.0
 40
0.1
  0
CIRCLE
  8
0
 62
1
 10
-13.0
 20
-19.65
 30
0.0
 40
0.1
  0
CIRCLE
  8
0
 62
1
 10
-13.0
 20
-19.05
 30
0.0
 40
0.1
  0
CIRCLE
  8
0
 62
1
 10
-13.0
 20
-18.4
 30
0.0
 40
0.1
  0
CIRCLE
  8
0
 62
1
 10
-13.0
 20
-17.7
 30
0.0
 40
0.1
  0
CIRCLE
  8
0
 62
1
 10
-13.0
 20
-16.95
 30
0.0
 40
0.1
  0
CIRCLE
  8
0
 62
1
 10
-13.0
 20
-16.15
 30
0.0
 40
0.1
  0
CIRCLE
  8
0
 62
1
 10
-13.0
 20
-8.85
 30
0.0
 40
0.1
  0
CIRCLE
  8
0
 62
1
 10
-13.0
 20
-15.3
 30
0.0
 40
0.1
  0
CIRCLE
  8
0
 62
1
 10
-13.0
 20
-13.45
 30
0.0
 40
0.1
  0
CIRCLE
  8
0
 62
1
 10
-13.0
 20
-12.45
 30
0.0
 40
0.1
  0
CIRCLE
  8
0
 62
1
 10
-13.0
 20
-11.35
 30
0.0
 40
0.1
  0
CIRCLE
  8
0
 62
1
 10
-13.0
 20
-10.15
 30
0.0
 40
0.1
  0
CIRCLE
  8
0
 62
1
 10
-13.0
 20
1.05
 30
0.0
 40
0.1
  0
CIRCLE
  8
0
 62
1
 10
-13.0
 20
-7.45
 30
0.0
 40
0.1
  0
CIRCLE
  8
0
 62
1
 10
-13.0
 20
-5.95
 30
0.0
 40
0.1
  0
CIRCLE
  8
0
 62
1
 10
-13.0
 20
-4.35
 30
0.0
 40
0.1
  0
CIRCLE
  8
0
 62
1
 10
-13.0
 20
-2.65
 30
0.0
 40
0.1
  0
CIRCLE
  8
0
 62
1
 10
-13.0
 20
-0.85
 30
0.0
 40
0.1
  0
CIRCLE
  8
0
 62
1
 10
-13.0
 20
-21.15
 30
0.0
 40
0.1
  0
CIRCLE
  8
0
 62
1
 10
-13.0
 20
-20.7
 30
0.0
 40
0.1
  0
CIRCLE
  8
0
 62
1
 10
-13.0
 20
-21.9
 30
0.0
 40
0.1
  0
CIRCLE
  8
0
 62
1
 10
-13.0
 20
-21.55
 30
0.0
 40
0.1
  0
CIRCLE
  8
0
 62
1
 10
-13.0
 20
3.05
 30
0.0
 40
0.1
  0
CIRCLE
  8
0
 62
1
 10
-13.0
 20
5.1
 30
0.0
 40
0.1
  0
CIRCLE
  8
0
 62
1
 10
-13.0
 20
7.2
 30
0.0
 40
0.100101
  0
CIRCLE
  8
0
 62
1
 10
-13.0
 20
9.35
 30
0.0
 40
0.1
  0
CIRCLE
  8
0
 62
1
 10
-13.0
 20
11.55
 30
0.0
 40
0.1
  0
CIRCLE
  8
0
 62
1
 10
-13.0
 20
13.8
 30
0.0
 40
0.1
  0
CIRCLE
  8
0
 62
1
 10
-13.0
 20
16.1
 30
0.0
 40
0.1
  0
CIRCLE
  8
0
 62
1
 10
-13.0
 20
18.45
 30
0.0
 40
0.1
  0
CIRCLE
  8
0
 62
1
 10
-13.0
 20
20.85
 30
0.0
 40
0.1
  0
CIRCLE
  8
0
 62
1
 10
-12.5
 20
-14.4
 30
0.0
 40
0.1
  0
CIRCLE
  8
0
 62
1
 10
-12.5
 20
-22.2
 30
0.0
 40
0.1
  0
CIRCLE
  8
0
 62
1
 10
-12.5
 20
-20.2
 30
0.0
 40
0.1
  0
CIRCLE
  8
0
 62
1
 10
-12.5
 20
-19.65
 30
0.0
 40
0.1
  0
CIRCLE
  8
0
 62
1
 10
-12.5
 20
-19.05
 30
0.0
 40
0.1
  0
CIRCLE
  8
0
 62
1
 10
-12.5
 20
-18.4
 30
0.0
 40
0.1
  0
CIRCLE
  8
0
 62
1
 10
-12.5
 20
-17.7
 30
0.0
 40
0.1
  0
CIRCLE
  8
0
 62
1
 10
-12.5
 20
-16.95
 30
0.0
 40
0.1
  0
CIRCLE
  8
0
 62
1
 10
-12.5
 20
-16.15
 30
0.0
 40
0.1
  0
CIRCLE
  8
0
 62
1
 10
-12.5
 20
-8.85
 30
0.0
 40
0.1
  0
CIRCLE
  8
0
 62
1
 10
-12.5
 20
-15.3
 30
0.0
 40
0.1
  0
CIRCLE
  8
0
 62
1
 10
-12.5
 20
-13.45
 30
0.0
 40
0.1
  0
CIRCLE
  8
0
 62
1
 10
-12.5
 20
-12.45
 30
0.0
 40
0.1
  0
CIRCLE
  8
0
 62
1
 10
-12.5
 20
-11.35
 30
0.0
 40
0.1
  0
CIRCLE
  8
0
 62
1
 10
-12.5
 20
-10.15
 30
0.0
 40
0.1
  0
CIRCLE
  8
0
 62
1
 10
-12.5
 20
1.05
 30
0.0
 40
0.1
  0
CIRCLE
  8
0
 62
1
 10
-12.5
 20
-7.45
 30
0.0
 40
0.1
  0
CIRCLE
  8
0
 62
1
 10
-12.5
 20
-5.95
 30
0.0
 40
0.1
  0
CIRCLE
  8
0
 62
1
 10
-12.5
 20
-4.35
 30
0.0
 40
0.1
  0
CIRCLE
  8
0
 62
1
 10
-12.5
 20
-2.65
 30
0.0
 40
0.1
  0
CIRCLE
  8
0
 62
1
 10
-12.5
 20
-0.85
 30
0.0
 40
0.1
  0
CIRCLE
  8
0
 62
1
 10
-12.5
 20
-21.15
 30
0.0
 40
0.1
  0
CIRCLE
  8
0
 62
1
 10
-12.5
 20
-20.7
 30
0.0
 40
0.1
  0
CIRCLE
  8
0
 62
1
 10
-12.5
 20
-21.9
 30
0.0
 40
0.1
  0
CIRCLE
  8
0
 62
1
 10
-12.5
 20
-21.55
 30
0.0
 40
0.1
  0
CIRCLE
  8
0
 62
1
 10
-12.5
 20
3.05
 30
0.0
 40
0.1
  0
CIRCLE
  8
0
 62
1
 10
-12.5
 20
5.1
 30
0.0
 40
0.1
  0
CIRCLE
  8
0
 62
1
 10
-12.5
 20
7.2
 30
0.0
 40
0.100101
  0
CIRCLE
  8
0
 62
1
 10
-12.5
 20
9.35
 30
0.0
 40
0.1
  0
CIRCLE
  8
0
 62
1
 10
-12.5
 20
11.55
 30
0.0
 40
0.1
  0
CIRCLE
  8
0
 62
1
 10
-12.5
 20
13.8
 30
0.0
 40
0.1
  0
CIRCLE
  8
0
 62
1
 10
-12.5
 20
16.1
 30
0.0
 40
0.1
  0
CIRCLE
  8
0
 62
1
 10
-12.5
 20
18.45
 30
0.0
 40
0.1
  0
CIRCLE
  8
0
 62
1
 10
-12.5
 20
20.85
 30
0.0
 40
0.1
  0
CIRCLE
  8
0
 62
1
 10
-12.0
 20
-14.4
 30
0.0
 40
0.1
  0
CIRCLE
  8
0
 62
1
 10
-12.0
 20
-22.2
 30
0.0
 40
0.1
  0
CIRCLE
  8
0
 62
1
 10
-12.0
 20
-20.2
 30
0.0
 40
0.1
  0
CIRCLE
  8
0
 62
1
 10
-12.0
 20
-19.65
 30
0.0
 40
0.1
  0
CIRCLE
  8
0
 62
1
 10
-12.0
 20
-19.05
 30
0.0
 40
0.1
  0
CIRCLE
  8
0
 62
1
 10
-12.0
 20
-18.4
 30
0.0
 40
0.1
  0
CIRCLE
  8
0
 62
1
 10
-12.0
 20
-17.7
 30
0.0
 40
0.1
  0
CIRCLE
  8
0
 62
1
 10
-12.0
 20
-16.95
 30
0.0
 40
0.1
  0
CIRCLE
  8
0
 62
1
 10
-12.0
 20
-16.15
 30
0.0
 40
0.1
  0
CIRCLE
  8
0
 62
1
 10
-12.0
 20
-8.85
 30
0.0
 40
0.1
  0
CIRCLE
  8
0
 62
1
 10
-12.0
 20
-15.3
 30
0.0
 40
0.1
  0
CIRCLE
  8
0
 62
1
 10
-12.0
 20
-13.45
 30
0.0
 40
0.1
  0
CIRCLE
  8
0
 62
1
 10
-12.0
 20
-12.45
 30
0.0
 40
0.1
  0
CIRCLE
  8
0
 62
1
 10
-12.0
 20
-11.35
 30
0.0
 40
0.1
  0
CIRCLE
  8
0
 62
1
 10
-12.0
 20
-10.15
 30
0.0
 40
0.1
  0
CIRCLE
  8
0
 62
1
 10
-12.0
 20
1.05
 30
0.0
 40
0.1
  0
CIRCLE
  8
0
 62
1
 10
-12.0
 20
-7.45
 30
0.0
 40
0.1
  0
CIRCLE
  8
0
 62
1
 10
-12.0
 20
-5.95
 30
0.0
 40
0.1
  0
CIRCLE
  8
0
 62
1
 10
-12.0
 20
-4.35
 30
0.0
 40
0.1
  0
CIRCLE
  8
0
 62
1
 10
-12.0
 20
-2.65
 30
0.0
 40
0.1
  0
CIRCLE
  8
0
 62
1
 10
-12.0
 20
-0.85
 30
0.0
 40
0.1
  0
CIRCLE
  8
0
 62
1
 10
-12.0
 20
-21.15
 30
0.0
 40
0.1
  0
CIRCLE
  8
0
 62
1
 10
-12.0
 20
-20.7
 30
0.0
 40
0.1
  0
CIRCLE
  8
0
 62
1
 10
-12.0
 20
-21.9
 30
0.0
 40
0.1
  0
CIRCLE
  8
0
 62
1
 10
-12.0
 20
-21.55
 30
0.0
 40
0.1
  0
CIRCLE
  8
0
 62
1
 10
-12.0
 20
3.05
 30
0.0
 40
0.1
  0
CIRCLE
  8
0
 62
1
 10
-12.0
 20
5.1
 30
0.0
 40
0.1
  0
CIRCLE
  8
0
 62
1
 10
-12.0
 20
7.2
 30
0.0
 40
0.100101
  0
CIRCLE
  8
0
 62
1
 10
-12.0
 20
9.35
 30
0.0
 40
0.1
  0
CIRCLE
  8
0
 62
1
 10
-12.0
 20
11.55
 30
0.0
 40
0.1
  0
CIRCLE
  8
0
 62
1
 10
-12.0
 20
13.8
 30
0.0
 40
0.1
  0
CIRCLE
  8
0
 62
1
 10
-12.0
 20
16.1
 30
0.0
 40
0.1
  0
CIRCLE
  8
0
 62
1
 10
-12.0
 20
18.45
 30
0.0
 40
0.1
  0
CIRCLE
  8
0
 62
1
 10
-12.0
 20
20.85
 30
0.0
 40
0.1
  0
CIRCLE
  8
0
 62
1
 10
-11.5
 20
-14.4
 30
0.0
 40
0.1
  0
CIRCLE
  8
0
 62
1
 10
-11.5
 20
-22.2
 30
0.0
 40
0.1
  0
CIRCLE
  8
0
 62
1
 10
-11.5
 20
-20.2
 30
0.0
 40
0.1
  0
CIRCLE
  8
0
 62
1
 10
-11.5
 20
-19.65
 30
0.0
 40
0.1
  0
CIRCLE
  8
0
 62
1
 10
-11.5
 20
-19.05
 30
0.0
 40
0.1
  0
CIRCLE
  8
0
 62
1
 10
-11.5
 20
-18.4
 30
0.0
 40
0.1
  0
CIRCLE
  8
0
 62
1
 10
-11.5
 20
-17.7
 30
0.0
 40
0.1
  0
CIRCLE
  8
0
 62
1
 10
-11.5
 20
-16.95
 30
0.0
 40
0.1
  0
CIRCLE
  8
0
 62
1
 10
-11.5
 20
-16.15
 30
0.0
 40
0.1
  0
CIRCLE
  8
0
 62
1
 10
-11.5
 20
-8.85
 30
0.0
 40
0.1
  0
CIRCLE
  8
0
 62
1
 10
-11.5
 20
-15.3
 30
0.0
 40
0.1
  0
CIRCLE
  8
0
 62
1
 10
-11.5
 20
-13.45
 30
0.0
 40
0.1
  0
CIRCLE
  8
0
 62
1
 10
-11.5
 20
-12.45
 30
0.0
 40
0.1
  0
CIRCLE
  8
0
 62
1
 10
-11.5
 20
-11.35
 30
0.0
 40
0.1
  0
CIRCLE
  8
0
 62
1
 10
-11.5
 20
-10.15
 30
0.0
 40
0.1
  0
CIRCLE
  8
0
 62
1
 10
-11.5
 20
1.05
 30
0.0
 40
0.1
  0
CIRCLE
  8
0
 62
1
 10
-11.5
 20
-7.45
 30
0.0
 40
0.1
  0
CIRCLE
  8
0
 62
1
 10
-11.5
 20
-5.95
 30
0.0
 40
0.1
  0
CIRCLE
  8
0
 62
1
 10
-11.5
 20
-4.35
 30
0.0
 40
0.1
  0
CIRCLE
  8
0
 62
1
 10
-11.5
 20
-2.65
 30
0.0
 40
0.1
  0
CIRCLE
  8
0
 62
1
 10
-11.5
 20
-0.85
 30
0.0
 40
0.1
  0
CIRCLE
  8
0
 62
1
 10
-11.5
 20
-21.15
 30
0.0
 40
0.1
  0
CIRCLE
  8
0
 62
1
 10
-11.5
 20
-20.7
 30
0.0
 40
0.1
  0
CIRCLE
  8
0
 62
1
 10
-11.5
 20
-21.9
 30
0.0
 40
0.1
  0
CIRCLE
  8
0
 62
1
 10
-11.5
 20
-21.55
 30
0.0
 40
0.1
  0
CIRCLE
  8
0
 62
1
 10
-11.5
 20
3.05
 30
0.0
 40
0.1
  0
CIRCLE
  8
0
 62
1
 10
-11.5
 20
5.1
 30
0.0
 40
0.1
  0
CIRCLE
  8
0
 62
1
 10
-11.5
 20
7.2
 30
0.0
 40
0.100101
  0
CIRCLE
  8
0
 62
1
 10
-11.5
 20
9.35
 30
0.0
 40
0.1
  0
CIRCLE
  8
0
 62
1
 10
-11.5
 20
11.55
 30
0.0
 40
0.1
  0
CIRCLE
  8
0
 62
1
 10
-11.5
 20
13.8
 30
0.0
 40
0.1
  0
CIRCLE
  8
0
 62
1
 10
-11.5
 20
16.1
 30
0.0
 40
0.1
  0
CIRCLE
  8
0
 62
1
 10
-11.5
 20
18.45
 30
0.0
 40
0.1
  0
CIRCLE
  8
0
 62
1
 10
-11.5
 20
20.85
 30
0.0
 40
0.1
  0
CIRCLE
  8
0
 62
1
 10
-11.0
 20
-14.4
 30
0.0
 40
0.1
  0
CIRCLE
  8
0
 62
1
 10
-11.0
 20
-22.2
 30
0.0
 40
0.1
  0
CIRCLE
  8
0
 62
1
 10
-11.0
 20
-20.2
 30
0.0
 40
0.1
  0
CIRCLE
  8
0
 62
1
 10
-11.0
 20
-19.65
 30
0.0
 40
0.1
  0
CIRCLE
  8
0
 62
1
 10
-11.0
 20
-19.05
 30
0.0
 40
0.1
  0
CIRCLE
  8
0
 62
1
 10
-11.0
 20
-18.4
 30
0.0
 40
0.1
  0
CIRCLE
  8
0
 62
1
 10
-11.0
 20
-17.7
 30
0.0
 40
0.1
  0
CIRCLE
  8
0
 62
1
 10
-11.0
 20
-16.95
 30
0.0
 40
0.1
  0
CIRCLE
  8
0
 62
1
 10
-11.0
 20
-16.15
 30
0.0
 40
0.1
  0
CIRCLE
  8
0
 62
1
 10
-11.0
 20
-8.85
 30
0.0
 40
0.1
  0
CIRCLE
  8
0
 62
1
 10
-11.0
 20
-15.3
 30
0.0
 40
0.1
  0
CIRCLE
  8
0
 62
1
 10
-11.0
 20
-13.45
 30
0.0
 40
0.1
  0
CIRCLE
  8
0
 62
1
 10
-11.0
 20
-12.45
 30
0.0
 40
0.1
  0
CIRCLE
  8
0
 62
1
 10
-11.0
 20
-11.35
 30
0.0
 40
0.1
  0
CIRCLE
  8
0
 62
1
 10
-11.0
 20
-10.15
 30
0.0
 40
0.1
  0
CIRCLE
  8
0
 62
1
 10
-11.0
 20
1.05
 30
0.0
 40
0.1
  0
CIRCLE
  8
0
 62
1
 10
-11.0
 20
-7.45
 30
0.0
 40
0.1
  0
CIRCLE
  8
0
 62
1
 10
-11.0
 20
-5.95
 30
0.0
 40
0.1
  0
CIRCLE
  8
0
 62
1
 10
-11.0
 20
-4.35
 30
0.0
 40
0.1
  0
CIRCLE
  8
0
 62
1
 10
-11.0
 20
-2.65
 30
0.0
 40
0.1
  0
CIRCLE
  8
0
 62
1
 10
-11.0
 20
-0.85
 30
0.0
 40
0.1
  0
CIRCLE
  8
0
 62
1
 10
-11.0
 20
-21.15
 30
0.0
 40
0.1
  0
CIRCLE
  8
0
 62
1
 10
-11.0
 20
-20.7
 30
0.0
 40
0.1
  0
CIRCLE
  8
0
 62
1
 10
-11.0
 20
-21.9
 30
0.0
 40
0.1
  0
CIRCLE
  8
0
 62
1
 10
-11.0
 20
-21.55
 30
0.0
 40
0.1
  0
CIRCLE
  8
0
 62
1
 10
-11.0
 20
3.05
 30
0.0
 40
0.1
  0
CIRCLE
  8
0
 62
1
 10
-11.0
 20
5.1
 30
0.0
 40
0.1
  0
CIRCLE
  8
0
 62
1
 10
-11.0
 20
7.2
 30
0.0
 40
0.100101
  0
CIRCLE
  8
0
 62
1
 10
-11.0
 20
9.35
 30
0.0
 40
0.1
  0
CIRCLE
  8
0
 62
1
 10
-11.0
 20
11.55
 30
0.0
 40
0.1
  0
CIRCLE
  8
0
 62
1
 10
-11.0
 20
13.8
 30
0.0
 40
0.1
  0
CIRCLE
  8
0
 62
1
 10
-11.0
 20
16.1
 30
0.0
 40
0.1
  0
CIRCLE
  8
0
 62
1
 10
-11.0
 20
18.45
 30
0.0
 40
0.1
  0
CIRCLE
  8
0
 62
1
 10
-11.0
 20
20.85
 30
0.0
 40
0.1
  0
CIRCLE
  8
0
 62
1
 10
-10.5
 20
-14.4
 30
0.0
 40
0.1
  0
CIRCLE
  8
0
 62
1
 10
-10.5
 20
-22.2
 30
0.0
 40
0.1
  0
CIRCLE
  8
0
 62
1
 10
-10.5
 20
-20.2
 30
0.0
 40
0.1
  0
CIRCLE
  8
0
 62
1
 10
-10.5
 20
-19.65
 30
0.0
 40
0.1
  0
CIRCLE
  8
0
 62
1
 10
-10.5
 20
-19.05
 30
0.0
 40
0.1
  0
CIRCLE
  8
0
 62
1
 10
-10.5
 20
-18.4
 30
0.0
 40
0.1
  0
CIRCLE
  8
0
 62
1
 10
-10.5
 20
-17.7
 30
0.0
 40
0.1
  0
CIRCLE
  8
0
 62
1
 10
-10.5
 20
-16.95
 30
0.0
 40
0.1
  0
CIRCLE
  8
0
 62
1
 10
-10.5
 20
-16.15
 30
0.0
 40
0.1
  0
CIRCLE
  8
0
 62
1
 10
-10.5
 20
-8.85
 30
0.0
 40
0.1
  0
CIRCLE
  8
0
 62
1
 10
-10.5
 20
-15.3
 30
0.0
 40
0.1
  0
CIRCLE
  8
0
 62
1
 10
-10.5
 20
-13.45
 30
0.0
 40
0.1
  0
CIRCLE
  8
0
 62
1
 10
-10.5
 20
-12.45
 30
0.0
 40
0.1
  0
CIRCLE
  8
0
 62
1
 10
-10.5
 20
-11.35
 30
0.0
 40
0.1
  0
CIRCLE
  8
0
 62
1
 10
-10.5
 20
-10.15
 30
0.0
 40
0.1
  0
CIRCLE
  8
0
 62
1
 10
-10.5
 20
1.05
 30
0.0
 40
0.1
  0
CIRCLE
  8
0
 62
1
 10
-10.5
 20
-7.45
 30
0.0
 40
0.1
  0
CIRCLE
  8
0
 62
1
 10
-10.5
 20
-5.95
 30
0.0
 40
0.1
  0
CIRCLE
  8
0
 62
1
 10
-10.5
 20
-4.35
 30
0.0
 40
0.1
  0
CIRCLE
  8
0
 62
1
 10
-10.5
 20
-2.65
 30
0.0
 40
0.1
  0
CIRCLE
  8
0
 62
1
 10
-10.5
 20
-0.85
 30
0.0
 40
0.1
  0
CIRCLE
  8
0
 62
1
 10
-10.5
 20
-21.15
 30
0.0
 40
0.1
  0
CIRCLE
  8
0
 62
1
 10
-10.5
 20
-20.7
 30
0.0
 40
0.1
  0
CIRCLE
  8
0
 62
1
 10
-10.5
 20
-21.9
 30
0.0
 40
0.1
  0
CIRCLE
  8
0
 62
1
 10
-10.5
 20
-21.55
 30
0.0
 40
0.1
  0
CIRCLE
  8
0
 62
1
 10
-10.5
 20
3.05
 30
0.0
 40
0.1
  0
CIRCLE
  8
0
 62
1
 10
-10.5
 20
5.1
 30
0.0
 40
0.1
  0
CIRCLE
  8
0
 62
1
 10
-10.5
 20
7.2
 30
0.0
 40
0.100101
  0
CIRCLE
  8
0
 62
1
 10
-10.5
 20
9.35
 30
0.0
 40
0.1
  0
CIRCLE
  8
0
 62
1
 10
-10.5
 20
11.55
 30
0.0
 40
0.1
  0
CIRCLE
  8
0
 62
1
 10
-10.5
 20
13.8
 30
0.0
 40
0.1
  0
CIRCLE
  8
0
 62
1
 10
-10.5
 20
16.1
 30
0.0
 40
0.1
  0
CIRCLE
  8
0
 62
1
 10
-10.5
 20
18.45
 30
0.0
 40
0.1
  0
CIRCLE
  8
0
 62
1
 10
-10.5
 20
20.85
 30
0.0
 40
0.1
  0
CIRCLE
  8
0
 62
1
 10
-10.0
 20
-14.4
 30
0.0
 40
0.1
  0
CIRCLE
  8
0
 62
1
 10
-10.0
 20
-22.2
 30
0.0
 40
0.1
  0
CIRCLE
  8
0
 62
1
 10
-10.0
 20
-20.2
 30
0.0
 40
0.1
  0
CIRCLE
  8
0
 62
1
 10
-10.0
 20
-19.65
 30
0.0
 40
0.1
  0
CIRCLE
  8
0
 62
1
 10
-10.0
 20
-19.05
 30
0.0
 40
0.1
  0
CIRCLE
  8
0
 62
1
 10
-10.0
 20
-18.4
 30
0.0
 40
0.1
  0
CIRCLE
  8
0
 62
1
 10
-10.0
 20
-17.7
 30
0.0
 40
0.1
  0
CIRCLE
  8
0
 62
1
 10
-10.0
 20
-16.95
 30
0.0
 40
0.1
  0
CIRCLE
  8
0
 62
1
 10
-10.0
 20
-16.15
 30
0.0
 40
0.1
  0
CIRCLE
  8
0
 62
1
 10
-10.0
 20
-8.85
 30
0.0
 40
0.1
  0
CIRCLE
  8
0
 62
1
 10
-10.0
 20
-15.3
 30
0.0
 40
0.1
  0
CIRCLE
  8
0
 62
1
 10
-10.0
 20
-13.45
 30
0.0
 40
0.1
  0
CIRCLE
  8
0
 62
1
 10
-10.0
 20
-12.45
 30
0.0
 40
0.1
  0
CIRCLE
  8
0
 62
1
 10
-10.0
 20
-11.35
 30
0.0
 40
0.1
  0
CIRCLE
  8
0
 62
1
 10
-10.0
 20
-10.15
 30
0.0
 40
0.1
  0
CIRCLE
  8
0
 62
1
 10
-10.0
 20
1.05
 30
0.0
 40
0.1
  0
CIRCLE
  8
0
 62
1
 10
-10.0
 20
-7.45
 30
0.0
 40
0.1
  0
CIRCLE
  8
0
 62
1
 10
-10.0
 20
-5.95
 30
0.0
 40
0.1
  0
CIRCLE
  8
0
 62
1
 10
-10.0
 20
-4.35
 30
0.0
 40
0.1
  0
CIRCLE
  8
0
 62
1
 10
-10.0
 20
-2.65
 30
0.0
 40
0.1
  0
CIRCLE
  8
0
 62
1
 10
-10.0
 20
-0.85
 30
0.0
 40
0.1
  0
CIRCLE
  8
0
 62
1
 10
-10.0
 20
-21.15
 30
0.0
 40
0.1
  0
CIRCLE
  8
0
 62
1
 10
-10.0
 20
-20.7
 30
0.0
 40
0.1
  0
CIRCLE
  8
0
 62
1
 10
-10.0
 20
-21.9
 30
0.0
 40
0.1
  0
CIRCLE
  8
0
 62
1
 10
-10.0
 20
-21.55
 30
0.0
 40
0.1
  0
CIRCLE
  8
0
 62
1
 10
-10.0
 20
3.05
 30
0.0
 40
0.1
  0
CIRCLE
  8
0
 62
1
 10
-10.0
 20
5.1
 30
0.0
 40
0.1
  0
CIRCLE
  8
0
 62
1
 10
-10.0
 20
7.2
 30
0.0
 40
0.100101
  0
CIRCLE
  8
0
 62
1
 10
-10.0
 20
9.35
 30
0.0
 40
0.1
  0
CIRCLE
  8
0
 62
1
 10
-10.0
 20
11.55
 30
0.0
 40
0.1
  0
CIRCLE
  8
0
 62
1
 10
-10.0
 20
13.8
 30
0.0
 40
0.1
  0
CIRCLE
  8
0
 62
1
 10
-10.0
 20
16.1
 30
0.0
 40
0.1
  0
CIRCLE
  8
0
 62
1
 10
-10.0
 20
18.45
 30
0.0
 40
0.1
  0
CIRCLE
  8
0
 62
1
 10
-10.0
 20
20.85
 30
0.0
 40
0.1
  0
CIRCLE
  8
0
 62
1
 10
-9.5
 20
-14.4
 30
0.0
 40
0.1
  0
CIRCLE
  8
0
 62
1
 10
-9.5
 20
-22.2
 30
0.0
 40
0.1
  0
CIRCLE
  8
0
 62
1
 10
-9.5
 20
-20.2
 30
0.0
 40
0.1
  0
CIRCLE
  8
0
 62
1
 10
-9.5
 20
-19.65
 30
0.0
 40
0.1
  0
CIRCLE
  8
0
 62
1
 10
-9.5
 20
-19.05
 30
0.0
 40
0.1
  0
CIRCLE
  8
0
 62
1
 10
-9.5
 20
-18.4
 30
0.0
 40
0.1
  0
CIRCLE
  8
0
 62
1
 10
-9.5
 20
-17.7
 30
0.0
 40
0.1
  0
CIRCLE
  8
0
 62
1
 10
-9.5
 20
-16.95
 30
0.0
 40
0.1
  0
CIRCLE
  8
0
 62
1
 10
-9.5
 20
-16.15
 30
0.0
 40
0.1
  0
CIRCLE
  8
0
 62
1
 10
-9.5
 20
-8.85
 30
0.0
 40
0.1
  0
CIRCLE
  8
0
 62
1
 10
-9.5
 20
-15.3
 30
0.0
 40
0.1
  0
CIRCLE
  8
0
 62
1
 10
-9.5
 20
-13.45
 30
0.0
 40
0.1
  0
CIRCLE
  8
0
 62
1
 10
-9.5
 20
-12.45
 30
0.0
 40
0.1
  0
CIRCLE
  8
0
 62
1
 10
-9.5
 20
-11.35
 30
0.0
 40
0.1
  0
CIRCLE
  8
0
 62
1
 10
-9.5
 20
-10.15
 30
0.0
 40
0.1
  0
CIRCLE
  8
0
 62
1
 10
-9.5
 20
1.05
 30
0.0
 40
0.1
  0
CIRCLE
  8
0
 62
1
 10
-9.5
 20
-7.45
 30
0.0
 40
0.1
  0
CIRCLE
  8
0
 62
1
 10
-9.5
 20
-5.95
 30
0.0
 40
0.1
  0
CIRCLE
  8
0
 62
1
 10
-9.5
 20
-4.35
 30
0.0
 40
0.1
  0
CIRCLE
  8
0
 62
1
 10
-9.5
 20
-2.65
 30
0.0
 40
0.1
  0
CIRCLE
  8
0
 62
1
 10
-9.5
 20
-0.85
 30
0.0
 40
0.1
  0
CIRCLE
  8
0
 62
1
 10
-9.5
 20
-21.15
 30
0.0
 40
0.1
  0
CIRCLE
  8
0
 62
1
 10
-9.5
 20
-20.7
 30
0.0
 40
0.1
  0
CIRCLE
  8
0
 62
1
 10
-9.5
 20
-21.9
 30
0.0
 40
0.1
  0
CIRCLE
  8
0
 62
1
 10
-9.5
 20
-21.55
 30
0.0
 40
0.1
  0
CIRCLE
  8
0
 62
1
 10
-9.5
 20
3.05
 30
0.0
 40
0.1
  0
CIRCLE
  8
0
 62
1
 10
-9.5
 20
5.1
 30
0.0
 40
0.1
  0
CIRCLE
  8
0
 62
1
 10
-9.5
 20
7.2
 30
0.0
 40
0.100101
  0
CIRCLE
  8
0
 62
1
 10
-9.5
 20
9.35
 30
0.0
 40
0.1
  0
CIRCLE
  8
0
 62
1
 10
-9.5
 20
11.55
 30
0.0
 40
0.1
  0
CIRCLE
  8
0
 62
1
 10
-9.5
 20
13.8
 30
0.0
 40
0.1
  0
CIRCLE
  8
0
 62
1
 10
-9.5
 20
16.1
 30
0.0
 40
0.1
  0
CIRCLE
  8
0
 62
1
 10
-9.5
 20
18.45
 30
0.0
 40
0.1
  0
CIRCLE
  8
0
 62
1
 10
-9.5
 20
20.85
 30
0.0
 40
0.1
  0
CIRCLE
  8
0
 62
1
 10
-9.0
 20
-14.4
 30
0.0
 40
0.1
  0
CIRCLE
  8
0
 62
1
 10
-9.0
 20
-22.2
 30
0.0
 40
0.1
  0
CIRCLE
  8
0
 62
1
 10
-9.0
 20
-20.2
 30
0.0
 40
0.1
  0
CIRCLE
  8
0
 62
1
 10
-9.0
 20
-19.65
 30
0.0
 40
0.1
  0
CIRCLE
  8
0
 62
1
 10
-9.0
 20
-19.05
 30
0.0
 40
0.1
  0
CIRCLE
  8
0
 62
1
 10
-9.0
 20
-18.4
 30
0.0
 40
0.1
  0
CIRCLE
  8
0
 62
1
 10
-9.0
 20
-17.7
 30
0.0
 40
0.1
  0
CIRCLE
  8
0
 62
1
 10
-9.0
 20
-16.95
 30
0.0
 40
0.1
  0
CIRCLE
  8
0
 62
1
 10
-9.0
 20
-16.15
 30
0.0
 40
0.1
  0
CIRCLE
  8
0
 62
1
 10
-9.0
 20
-8.85
 30
0.0
 40
0.1
  0
CIRCLE
  8
0
 62
1
 10
-9.0
 20
-15.3
 30
0.0
 40
0.1
  0
CIRCLE
  8
0
 62
1
 10
-9.0
 20
-13.45
 30
0.0
 40
0.1
  0
CIRCLE
  8
0
 62
1
 10
-9.0
 20
-12.45
 30
0.0
 40
0.1
  0
CIRCLE
  8
0
 62
1
 10
-9.0
 20
-11.35
 30
0.0
 40
0.1
  0
CIRCLE
  8
0
 62
1
 10
-9.0
 20
-10.15
 30
0.0
 40
0.1
  0
CIRCLE
  8
0
 62
1
 10
-9.0
 20
1.05
 30
0.0
 40
0.1
  0
CIRCLE
  8
0
 62
1
 10
-9.0
 20
-7.45
 30
0.0
 40
0.1
  0
CIRCLE
  8
0
 62
1
 10
-9.0
 20
-5.95
 30
0.0
 40
0.1
  0
CIRCLE
  8
0
 62
1
 10
-9.0
 20
-4.35
 30
0.0
 40
0.1
  0
CIRCLE
  8
0
 62
1
 10
-9.0
 20
-2.65
 30
0.0
 40
0.1
  0
CIRCLE
  8
0
 62
1
 10
-9.0
 20
-0.85
 30
0.0
 40
0.1
  0
CIRCLE
  8
0
 62
1
 10
-9.0
 20
-21.15
 30
0.0
 40
0.1
  0
CIRCLE
  8
0
 62
1
 10
-9.0
 20
-20.7
 30
0.0
 40
0.1
  0
CIRCLE
  8
0
 62
1
 10
-9.0
 20
-21.9
 30
0.0
 40
0.1
  0
CIRCLE
  8
0
 62
1
 10
-9.0
 20
-21.55
 30
0.0
 40
0.1
  0
CIRCLE
  8
0
 62
1
 10
-9.0
 20
3.05
 30
0.0
 40
0.1
  0
CIRCLE
  8
0
 62
1
 10
-9.0
 20
5.1
 30
0.0
 40
0.1
  0
CIRCLE
  8
0
 62
1
 10
-9.0
 20
7.2
 30
0.0
 40
0.100101
  0
CIRCLE
  8
0
 62
1
 10
-9.0
 20
9.35
 30
0.0
 40
0.1
  0
CIRCLE
  8
0
 62
1
 10
-9.0
 20
11.55
 30
0.0
 40
0.1
  0
CIRCLE
  8
0
 62
1
 10
-9.0
 20
13.8
 30
0.0
 40
0.1
  0
CIRCLE
  8
0
 62
1
 10
-9.0
 20
16.1
 30
0.0
 40
0.1
  0
CIRCLE
  8
0
 62
1
 10
-9.0
 20
18.45
 30
0.0
 40
0.1
  0
CIRCLE
  8
0
 62
1
 10
-9.0
 20
20.85
 30
0.0
 40
0.1
  0
CIRCLE
  8
0
 62
1
 10
-8.5
 20
-14.4
 30
0.0
 40
0.1
  0
CIRCLE
  8
0
 62
1
 10
-8.5
 20
-22.2
 30
0.0
 40
0.1
  0
CIRCLE
  8
0
 62
1
 10
-8.5
 20
-20.2
 30
0.0
 40
0.1
  0
CIRCLE
  8
0
 62
1
 10
-8.5
 20
-19.65
 30
0.0
 40
0.1
  0
CIRCLE
  8
0
 62
1
 10
-8.5
 20
-19.05
 30
0.0
 40
0.1
  0
CIRCLE
  8
0
 62
1
 10
-8.5
 20
-18.4
 30
0.0
 40
0.1
  0
CIRCLE
  8
0
 62
1
 10
-8.5
 20
-17.7
 30
0.0
 40
0.1
  0
CIRCLE
  8
0
 62
1
 10
-8.5
 20
-16.95
 30
0.0
 40
0.1
  0
CIRCLE
  8
0
 62
1
 10
-8.5
 20
-16.15
 30
0.0
 40
0.1
  0
CIRCLE
  8
0
 62
1
 10
-8.5
 20
-8.85
 30
0.0
 40
0.1
  0
CIRCLE
  8
0
 62
1
 10
-8.5
 20
-15.3
 30
0.0
 40
0.1
  0
CIRCLE
  8
0
 62
1
 10
-8.5
 20
-13.45
 30
0.0
 40
0.1
  0
CIRCLE
  8
0
 62
1
 10
-8.5
 20
-12.45
 30
0.0
 40
0.1
  0
CIRCLE
  8
0
 62
1
 10
-8.5
 20
-11.35
 30
0.0
 40
0.1
  0
CIRCLE
  8
0
 62
1
 10
-8.5
 20
-10.15
 30
0.0
 40
0.1
  0
CIRCLE
  8
0
 62
1
 10
-8.5
 20
1.05
 30
0.0
 40
0.1
  0
CIRCLE
  8
0
 62
1
 10
-8.5
 20
-7.45
 30
0.0
 40
0.1
  0
CIRCLE
  8
0
 62
1
 10
-8.5
 20
-5.95
 30
0.0
 40
0.1
  0
CIRCLE
  8
0
 62
1
 10
-8.5
 20
-4.35
 30
0.0
 40
0.1
  0
CIRCLE
  8
0
 62
1
 10
-8.5
 20
-2.65
 30
0.0
 40
0.1
  0
CIRCLE
  8
0
 62
1
 10
-8.5
 20
-0.85
 30
0.0
 40
0.1
  0
CIRCLE
  8
0
 62
1
 10
-8.5
 20
-21.15
 30
0.0
 40
0.1
  0
CIRCLE
  8
0
 62
1
 10
-8.5
 20
-20.7
 30
0.0
 40
0.1
  0
CIRCLE
  8
0
 62
1
 10
-8.5
 20
-21.9
 30
0.0
 40
0.1
  0
CIRCLE
  8
0
 62
1
 10
-8.5
 20
-21.55
 30
0.0
 40
0.1
  0
CIRCLE
  8
0
 62
1
 10
-8.5
 20
3.05
 30
0.0
 40
0.1
  0
CIRCLE
  8
0
 62
1
 10
-8.5
 20
5.1
 30
0.0
 40
0.1
  0
CIRCLE
  8
0
 62
1
 10
-8.5
 20
7.2
 30
0.0
 40
0.100101
  0
CIRCLE
  8
0
 62
1
 10
-8.5
 20
9.35
 30
0.0
 40
0.1
  0
CIRCLE
  8
0
 62
1
 10
-8.5
 20
11.55
 30
0.0
 40
0.1
  0
CIRCLE
  8
0
 62
1
 10
-8.5
 20
13.8
 30
0.0
 40
0.1
  0
CIRCLE
  8
0
 62
1
 10
-8.5
 20
16.1
 30
0.0
 40
0.1
  0
CIRCLE
  8
0
 62
1
 10
-8.5
 20
18.45
 30
0.0
 40
0.1
  0
CIRCLE
  8
0
 62
1
 10
-8.5
 20
20.85
 30
0.0
 40
0.1
  0
CIRCLE
  8
0
 62
1
 10
-8.0
 20
-14.4
 30
0.0
 40
0.1
  0
CIRCLE
  8
0
 62
1
 10
-8.0
 20
-22.2
 30
0.0
 40
0.1
  0
CIRCLE
  8
0
 62
1
 10
-8.0
 20
-20.2
 30
0.0
 40
0.1
  0
CIRCLE
  8
0
 62
1
 10
-8.0
 20
-19.65
 30
0.0
 40
0.1
  0
CIRCLE
  8
0
 62
1
 10
-8.0
 20
-19.05
 30
0.0
 40
0.1
  0
CIRCLE
  8
0
 62
1
 10
-8.0
 20
-18.4
 30
0.0
 40
0.1
  0
CIRCLE
  8
0
 62
1
 10
-8.0
 20
-17.7
 30
0.0
 40
0.1
  0
CIRCLE
  8
0
 62
1
 10
-8.0
 20
-16.95
 30
0.0
 40
0.1
  0
CIRCLE
  8
0
 62
1
 10
-8.0
 20
-16.15
 30
0.0
 40
0.1
  0
CIRCLE
  8
0
 62
1
 10
-8.0
 20
-8.85
 30
0.0
 40
0.1
  0
CIRCLE
  8
0
 62
1
 10
-8.0
 20
-15.3
 30
0.0
 40
0.1
  0
CIRCLE
  8
0
 62
1
 10
-8.0
 20
-13.45
 30
0.0
 40
0.1
  0
CIRCLE
  8
0
 62
1
 10
-8.0
 20
-12.45
 30
0.0
 40
0.1
  0
CIRCLE
  8
0
 62
1
 10
-8.0
 20
-11.35
 30
0.0
 40
0.1
  0
CIRCLE
  8
0
 62
1
 10
-8.0
 20
-10.15
 30
0.0
 40
0.1
  0
CIRCLE
  8
0
 62
1
 10
-8.0
 20
1.05
 30
0.0
 40
0.1
  0
CIRCLE
  8
0
 62
1
 10
-8.0
 20
-7.45
 30
0.0
 40
0.1
  0
CIRCLE
  8
0
 62
1
 10
-8.0
 20
-5.95
 30
0.0
 40
0.1
  0
CIRCLE
  8
0
 62
1
 10
-8.0
 20
-4.35
 30
0.0
 40
0.1
  0
CIRCLE
  8
0
 62
1
 10
-8.0
 20
-2.65
 30
0.0
 40
0.1
  0
CIRCLE
  8
0
 62
1
 10
-8.0
 20
-0.85
 30
0.0
 40
0.1
  0
CIRCLE
  8
0
 62
1
 10
-8.0
 20
-21.15
 30
0.0
 40
0.1
  0
CIRCLE
  8
0
 62
1
 10
-8.0
 20
-20.7
 30
0.0
 40
0.1
  0
CIRCLE
  8
0
 62
1
 10
-8.0
 20
-21.9
 30
0.0
 40
0.1
  0
CIRCLE
  8
0
 62
1
 10
-8.0
 20
-21.55
 30
0.0
 40
0.1
  0
CIRCLE
  8
0
 62
1
 10
-8.0
 20
3.05
 30
0.0
 40
0.1
  0
CIRCLE
  8
0
 62
1
 10
-8.0
 20
5.1
 30
0.0
 40
0.1
  0
CIRCLE
  8
0
 62
1
 10
-8.0
 20
7.2
 30
0.0
 40
0.100101
  0
CIRCLE
  8
0
 62
1
 10
-8.0
 20
9.35
 30
0.0
 40
0.1
  0
CIRCLE
  8
0
 62
1
 10
-8.0
 20
11.55
 30
0.0
 40
0.1
  0
CIRCLE
  8
0
 62
1
 10
-8.0
 20
13.8
 30
0.0
 40
0.1
  0
CIRCLE
  8
0
 62
1
 10
-8.0
 20
16.1
 30
0.0
 40
0.1
  0
CIRCLE
  8
0
 62
1
 10
-8.0
 20
18.45
 30
0.0
 40
0.1
  0
CIRCLE
  8
0
 62
1
 10
-8.0
 20
20.85
 30
0.0
 40
0.1
  0
CIRCLE
  8
0
 62
1
 10
-7.5
 20
-14.4
 30
0.0
 40
0.1
  0
CIRCLE
  8
0
 62
1
 10
-7.5
 20
-22.2
 30
0.0
 40
0.1
  0
CIRCLE
  8
0
 62
1
 10
-7.5
 20
-20.2
 30
0.0
 40
0.1
  0
CIRCLE
  8
0
 62
1
 10
-7.5
 20
-19.65
 30
0.0
 40
0.1
  0
CIRCLE
  8
0
 62
1
 10
-7.5
 20
-19.05
 30
0.0
 40
0.1
  0
CIRCLE
  8
0
 62
1
 10
-7.5
 20
-18.4
 30
0.0
 40
0.1
  0
CIRCLE
  8
0
 62
1
 10
-7.5
 20
-17.7
 30
0.0
 40
0.1
  0
CIRCLE
  8
0
 62
1
 10
-7.5
 20
-16.95
 30
0.0
 40
0.1
  0
CIRCLE
  8
0
 62
1
 10
-7.5
 20
-16.15
 30
0.0
 40
0.1
  0
CIRCLE
  8
0
 62
1
 10
-7.5
 20
-8.85
 30
0.0
 40
0.1
  0
CIRCLE
  8
0
 62
1
 10
-7.5
 20
-15.3
 30
0.0
 40
0.1
  0
CIRCLE
  8
0
 62
1
 10
-7.5
 20
-13.45
 30
0.0
 40
0.1
  0
CIRCLE
  8
0
 62
1
 10
-7.5
 20
-12.45
 30
0.0
 40
0.1
  0
CIRCLE
  8
0
 62
1
 10
-7.5
 20
-11.35
 30
0.0
 40
0.1
  0
CIRCLE
  8
0
 62
1
 10
-7.5
 20
-10.15
 30
0.0
 40
0.1
  0
CIRCLE
  8
0
 62
1
 10
-7.5
 20
1.05
 30
0.0
 40
0.1
  0
CIRCLE
  8
0
 62
1
 10
-7.5
 20
-7.45
 30
0.0
 40
0.1
  0
CIRCLE
  8
0
 62
1
 10
-7.5
 20
-5.95
 30
0.0
 40
0.1
  0
CIRCLE
  8
0
 62
1
 10
-7.5
 20
-4.35
 30
0.0
 40
0.1
  0
CIRCLE
  8
0
 62
1
 10
-7.5
 20
-2.65
 30
0.0
 40
0.1
  0
CIRCLE
  8
0
 62
1
 10
-7.5
 20
-0.85
 30
0.0
 40
0.1
  0
CIRCLE
  8
0
 62
1
 10
-7.5
 20
-21.15
 30
0.0
 40
0.1
  0
CIRCLE
  8
0
 62
1
 10
-7.5
 20
-20.7
 30
0.0
 40
0.1
  0
CIRCLE
  8
0
 62
1
 10
-7.5
 20
-21.9
 30
0.0
 40
0.1
  0
CIRCLE
  8
0
 62
1
 10
-7.5
 20
-21.55
 30
0.0
 40
0.1
  0
CIRCLE
  8
0
 62
1
 10
-7.5
 20
3.05
 30
0.0
 40
0.1
  0
CIRCLE
  8
0
 62
1
 10
-7.5
 20
5.1
 30
0.0
 40
0.1
  0
CIRCLE
  8
0
 62
1
 10
-7.5
 20
7.2
 30
0.0
 40
0.100101
  0
CIRCLE
  8
0
 62
1
 10
-7.5
 20
9.35
 30
0.0
 40
0.1
  0
CIRCLE
  8
0
 62
1
 10
-7.5
 20
11.55
 30
0.0
 40
0.1
  0
CIRCLE
  8
0
 62
1
 10
-7.5
 20
13.8
 30
0.0
 40
0.1
  0
CIRCLE
  8
0
 62
1
 10
-7.5
 20
16.1
 30
0.0
 40
0.1
  0
CIRCLE
  8
0
 62
1
 10
-7.5
 20
18.45
 30
0.0
 40
0.1
  0
CIRCLE
  8
0
 62
1
 10
-7.5
 20
20.85
 30
0.0
 40
0.1
  0
CIRCLE
  8
0
 62
1
 10
-7.0
 20
-14.4
 30
0.0
 40
0.1
  0
CIRCLE
  8
0
 62
1
 10
-7.0
 20
-22.2
 30
0.0
 40
0.1
  0
CIRCLE
  8
0
 62
1
 10
-7.0
 20
-20.2
 30
0.0
 40
0.1
  0
CIRCLE
  8
0
 62
1
 10
-7.0
 20
-19.65
 30
0.0
 40
0.1
  0
CIRCLE
  8
0
 62
1
 10
-7.0
 20
-19.05
 30
0.0
 40
0.1
  0
CIRCLE
  8
0
 62
1
 10
-7.0
 20
-18.4
 30
0.0
 40
0.1
  0
CIRCLE
  8
0
 62
1
 10
-7.0
 20
-17.7
 30
0.0
 40
0.1
  0
CIRCLE
  8
0
 62
1
 10
-7.0
 20
-16.95
 30
0.0
 40
0.1
  0
CIRCLE
  8
0
 62
1
 10
-7.0
 20
-16.15
 30
0.0
 40
0.1
  0
CIRCLE
  8
0
 62
1
 10
-7.0
 20
-8.85
 30
0.0
 40
0.1
  0
CIRCLE
  8
0
 62
1
 10
-7.0
 20
-15.3
 30
0.0
 40
0.1
  0
CIRCLE
  8
0
 62
1
 10
-7.0
 20
-13.45
 30
0.0
 40
0.1
  0
CIRCLE
  8
0
 62
1
 10
-7.0
 20
-12.45
 30
0.0
 40
0.1
  0
CIRCLE
  8
0
 62
1
 10
-7.0
 20
-11.35
 30
0.0
 40
0.1
  0
CIRCLE
  8
0
 62
1
 10
-7.0
 20
-10.15
 30
0.0
 40
0.1
  0
CIRCLE
  8
0
 62
1
 10
-7.0
 20
1.05
 30
0.0
 40
0.1
  0
CIRCLE
  8
0
 62
1
 10
-7.0
 20
-7.45
 30
0.0
 40
0.1
  0
CIRCLE
  8
0
 62
1
 10
-7.0
 20
-5.95
 30
0.0
 40
0.1
  0
CIRCLE
  8
0
 62
1
 10
-7.0
 20
-4.35
 30
0.0
 40
0.1
  0
CIRCLE
  8
0
 62
1
 10
-7.0
 20
-2.65
 30
0.0
 40
0.1
  0
CIRCLE
  8
0
 62
1
 10
-7.0
 20
-0.85
 30
0.0
 40
0.1
  0
CIRCLE
  8
0
 62
1
 10
-7.0
 20
-21.15
 30
0.0
 40
0.1
  0
CIRCLE
  8
0
 62
1
 10
-7.0
 20
-20.7
 30
0.0
 40
0.1
  0
CIRCLE
  8
0
 62
1
 10
-7.0
 20
-21.9
 30
0.0
 40
0.1
  0
CIRCLE
  8
0
 62
1
 10
-7.0
 20
-21.55
 30
0.0
 40
0.1
  0
CIRCLE
  8
0
 62
1
 10
-7.0
 20
3.05
 30
0.0
 40
0.1
  0
CIRCLE
  8
0
 62
1
 10
-7.0
 20
5.1
 30
0.0
 40
0.1
  0
CIRCLE
  8
0
 62
1
 10
-7.0
 20
7.2
 30
0.0
 40
0.100101
  0
CIRCLE
  8
0
 62
1
 10
-7.0
 20
9.35
 30
0.0
 40
0.1
  0
CIRCLE
  8
0
 62
1
 10
-7.0
 20
11.55
 30
0.0
 40
0.1
  0
CIRCLE
  8
0
 62
1
 10
-7.0
 20
13.8
 30
0.0
 40
0.1
  0
CIRCLE
  8
0
 62
1
 10
-7.0
 20
16.1
 30
0.0
 40
0.1
  0
CIRCLE
  8
0
 62
1
 10
-7.0
 20
18.45
 30
0.0
 40
0.1
  0
CIRCLE
  8
0
 62
1
 10
-7.0
 20
20.85
 30
0.0
 40
0.1
  0
CIRCLE
  8
0
 62
1
 10
-6.5
 20
-14.4
 30
0.0
 40
0.1
  0
CIRCLE
  8
0
 62
1
 10
-6.5
 20
-22.2
 30
0.0
 40
0.1
  0
CIRCLE
  8
0
 62
1
 10
-6.5
 20
-20.2
 30
0.0
 40
0.1
  0
CIRCLE
  8
0
 62
1
 10
-6.5
 20
-19.65
 30
0.0
 40
0.1
  0
CIRCLE
  8
0
 62
1
 10
-6.5
 20
-19.05
 30
0.0
 40
0.1
  0
CIRCLE
  8
0
 62
1
 10
-6.5
 20
-18.4
 30
0.0
 40
0.1
  0
CIRCLE
  8
0
 62
1
 10
-6.5
 20
-17.7
 30
0.0
 40
0.1
  0
CIRCLE
  8
0
 62
1
 10
-6.5
 20
-16.95
 30
0.0
 40
0.1
  0
CIRCLE
  8
0
 62
1
 10
-6.5
 20
-16.15
 30
0.0
 40
0.1
  0
CIRCLE
  8
0
 62
1
 10
-6.5
 20
-8.85
 30
0.0
 40
0.1
  0
CIRCLE
  8
0
 62
1
 10
-6.5
 20
-15.3
 30
0.0
 40
0.1
  0
CIRCLE
  8
0
 62
1
 10
-6.5
 20
-13.45
 30
0.0
 40
0.1
  0
CIRCLE
  8
0
 62
1
 10
-6.5
 20
-12.45
 30
0.0
 40
0.1
  0
CIRCLE
  8
0
 62
1
 10
-6.5
 20
-11.35
 30
0.0
 40
0.1
  0
CIRCLE
  8
0
 62
1
 10
-6.5
 20
-10.15
 30
0.0
 40
0.1
  0
CIRCLE
  8
0
 62
1
 10
-6.5
 20
1.05
 30
0.0
 40
0.1
  0
CIRCLE
  8
0
 62
1
 10
-6.5
 20
-7.45
 30
0.0
 40
0.1
  0
CIRCLE
  8
0
 62
1
 10
-6.5
 20
-5.95
 30
0.0
 40
0.1
  0
CIRCLE
  8
0
 62
1
 10
-6.5
 20
-4.35
 30
0.0
 40
0.1
  0
CIRCLE
  8
0
 62
1
 10
-6.5
 20
-2.65
 30
0.0
 40
0.1
  0
CIRCLE
  8
0
 62
1
 10
-6.5
 20
-0.85
 30
0.0
 40
0.1
  0
CIRCLE
  8
0
 62
1
 10
-6.5
 20
-21.15
 30
0.0
 40
0.1
  0
CIRCLE
  8
0
 62
1
 10
-6.5
 20
-20.7
 30
0.0
 40
0.1
  0
CIRCLE
  8
0
 62
1
 10
-6.5
 20
-21.9
 30
0.0
 40
0.1
  0
CIRCLE
  8
0
 62
1
 10
-6.5
 20
-21.55
 30
0.0
 40
0.1
  0
CIRCLE
  8
0
 62
1
 10
-6.5
 20
3.05
 30
0.0
 40
0.1
  0
CIRCLE
  8
0
 62
1
 10
-6.5
 20
5.1
 30
0.0
 40
0.1
  0
CIRCLE
  8
0
 62
1
 10
-6.5
 20
7.2
 30
0.0
 40
0.100101
  0
CIRCLE
  8
0
 62
1
 10
-6.5
 20
9.35
 30
0.0
 40
0.1
  0
CIRCLE
  8
0
 62
1
 10
-6.5
 20
11.55
 30
0.0
 40
0.1
  0
CIRCLE
  8
0
 62
1
 10
-6.5
 20
13.8
 30
0.0
 40
0.1
  0
CIRCLE
  8
0
 62
1
 10
-6.5
 20
16.1
 30
0.0
 40
0.1
  0
CIRCLE
  8
0
 62
1
 10
-6.5
 20
18.45
 30
0.0
 40
0.1
  0
CIRCLE
  8
0
 62
1
 10
-6.5
 20
20.85
 30
0.0
 40
0.1
  0
CIRCLE
  8
0
 62
1
 10
-6.0
 20
-14.4
 30
0.0
 40
0.1
  0
CIRCLE
  8
0
 62
1
 10
-6.0
 20
-22.2
 30
0.0
 40
0.1
  0
CIRCLE
  8
0
 62
1
 10
-6.0
 20
-20.2
 30
0.0
 40
0.1
  0
CIRCLE
  8
0
 62
1
 10
-6.0
 20
-19.65
 30
0.0
 40
0.1
  0
CIRCLE
  8
0
 62
1
 10
-6.0
 20
-19.05
 30
0.0
 40
0.1
  0
CIRCLE
  8
0
 62
1
 10
-6.0
 20
-18.4
 30
0.0
 40
0.1
  0
CIRCLE
  8
0
 62
1
 10
-6.0
 20
-17.7
 30
0.0
 40
0.1
  0
CIRCLE
  8
0
 62
1
 10
-6.0
 20
-16.95
 30
0.0
 40
0.1
  0
CIRCLE
  8
0
 62
1
 10
-6.0
 20
-16.15
 30
0.0
 40
0.1
  0
CIRCLE
  8
0
 62
1
 10
-6.0
 20
-8.85
 30
0.0
 40
0.1
  0
CIRCLE
  8
0
 62
1
 10
-6.0
 20
-15.3
 30
0.0
 40
0.1
  0
CIRCLE
  8
0
 62
1
 10
-6.0
 20
-13.45
 30
0.0
 40
0.1
  0
CIRCLE
  8
0
 62
1
 10
-6.0
 20
-12.45
 30
0.0
 40
0.1
  0
CIRCLE
  8
0
 62
1
 10
-6.0
 20
-11.35
 30
0.0
 40
0.1
  0
CIRCLE
  8
0
 62
1
 10
-6.0
 20
-10.15
 30
0.0
 40
0.1
  0
CIRCLE
  8
0
 62
1
 10
-6.0
 20
1.05
 30
0.0
 40
0.1
  0
CIRCLE
  8
0
 62
1
 10
-6.0
 20
-7.45
 30
0.0
 40
0.1
  0
CIRCLE
  8
0
 62
1
 10
-6.0
 20
-5.95
 30
0.0
 40
0.1
  0
CIRCLE
  8
0
 62
1
 10
-6.0
 20
-4.35
 30
0.0
 40
0.1
  0
CIRCLE
  8
0
 62
1
 10
-6.0
 20
-2.65
 30
0.0
 40
0.1
  0
CIRCLE
  8
0
 62
1
 10
-6.0
 20
-0.85
 30
0.0
 40
0.1
  0
CIRCLE
  8
0
 62
1
 10
-6.0
 20
-21.15
 30
0.0
 40
0.1
  0
CIRCLE
  8
0
 62
1
 10
-6.0
 20
-20.7
 30
0.0
 40
0.1
  0
CIRCLE
  8
0
 62
1
 10
-6.0
 20
-21.9
 30
0.0
 40
0.1
  0
CIRCLE
  8
0
 62
1
 10
-6.0
 20
-21.55
 30
0.0
 40
0.1
  0
CIRCLE
  8
0
 62
1
 10
-6.0
 20
3.05
 30
0.0
 40
0.1
  0
CIRCLE
  8
0
 62
1
 10
-6.0
 20
5.1
 30
0.0
 40
0.1
  0
CIRCLE
  8
0
 62
1
 10
-6.0
 20
7.2
 30
0.0
 40
0.100101
  0
CIRCLE
  8
0
 62
1
 10
-6.0
 20
9.35
 30
0.0
 40
0.1
  0
CIRCLE
  8
0
 62
1
 10
-6.0
 20
11.55
 30
0.0
 40
0.1
  0
CIRCLE
  8
0
 62
1
 10
-6.0
 20
13.8
 30
0.0
 40
0.1
  0
CIRCLE
  8
0
 62
1
 10
-6.0
 20
16.1
 30
0.0
 40
0.1
  0
CIRCLE
  8
0
 62
1
 10
-6.0
 20
18.45
 30
0.0
 40
0.1
  0
CIRCLE
  8
0
 62
1
 10
-6.0
 20
20.85
 30
0.0
 40
0.1
  0
CIRCLE
  8
0
 62
1
 10
-5.5
 20
-14.4
 30
0.0
 40
0.1
  0
CIRCLE
  8
0
 62
1
 10
-5.5
 20
-22.2
 30
0.0
 40
0.1
  0
CIRCLE
  8
0
 62
1
 10
-5.5
 20
-20.2
 30
0.0
 40
0.1
  0
CIRCLE
  8
0
 62
1
 10
-5.5
 20
-19.65
 30
0.0
 40
0.1
  0
CIRCLE
  8
0
 62
1
 10
-5.5
 20
-19.05
 30
0.0
 40
0.1
  0
CIRCLE
  8
0
 62
1
 10
-5.5
 20
-18.4
 30
0.0
 40
0.1
  0
CIRCLE
  8
0
 62
1
 10
-5.5
 20
-17.7
 30
0.0
 40
0.1
  0
CIRCLE
  8
0
 62
1
 10
-5.5
 20
-16.95
 30
0.0
 40
0.1
  0
CIRCLE
  8
0
 62
1
 10
-5.5
 20
-16.15
 30
0.0
 40
0.1
  0
CIRCLE
  8
0
 62
1
 10
-5.5
 20
-8.85
 30
0.0
 40
0.1
  0
CIRCLE
  8
0
 62
1
 10
-5.5
 20
-15.3
 30
0.0
 40
0.1
  0
CIRCLE
  8
0
 62
1
 10
-5.5
 20
-13.45
 30
0.0
 40
0.1
  0
CIRCLE
  8
0
 62
1
 10
-5.5
 20
-12.45
 30
0.0
 40
0.1
  0
CIRCLE
  8
0
 62
1
 10
-5.5
 20
-11.35
 30
0.0
 40
0.1
  0
CIRCLE
  8
0
 62
1
 10
-5.5
 20
-10.15
 30
0.0
 40
0.1
  0
CIRCLE
  8
0
 62
1
 10
-5.5
 20
1.05
 30
0.0
 40
0.1
  0
CIRCLE
  8
0
 62
1
 10
-5.5
 20
-7.45
 30
0.0
 40
0.1
  0
CIRCLE
  8
0
 62
1
 10
-5.5
 20
-5.95
 30
0.0
 40
0.1
  0
CIRCLE
  8
0
 62
1
 10
-5.5
 20
-4.35
 30
0.0
 40
0.1
  0
CIRCLE
  8
0
 62
1
 10
-5.5
 20
-2.65
 30
0.0
 40
0.1
  0
CIRCLE
  8
0
 62
1
 10
-5.5
 20
-0.85
 30
0.0
 40
0.1
  0
CIRCLE
  8
0
 62
1
 10
-5.5
 20
-21.15
 30
0.0
 40
0.1
  0
CIRCLE
  8
0
 62
1
 10
-5.5
 20
-20.7
 30
0.0
 40
0.1
  0
CIRCLE
  8
0
 62
1
 10
-5.5
 20
-21.9
 30
0.0
 40
0.1
  0
CIRCLE
  8
0
 62
1
 10
-5.5
 20
-21.55
 30
0.0
 40
0.1
  0
CIRCLE
  8
0
 62
1
 10
-5.5
 20
3.05
 30
0.0
 40
0.1
  0
CIRCLE
  8
0
 62
1
 10
-5.5
 20
5.1
 30
0.0
 40
0.1
  0
CIRCLE
  8
0
 62
1
 10
-5.5
 20
7.2
 30
0.0
 40
0.100101
  0
CIRCLE
  8
0
 62
1
 10
-5.5
 20
9.35
 30
0.0
 40
0.1
  0
CIRCLE
  8
0
 62
1
 10
-5.5
 20
11.55
 30
0.0
 40
0.1
  0
CIRCLE
  8
0
 62
1
 10
-5.5
 20
13.8
 30
0.0
 40
0.1
  0
CIRCLE
  8
0
 62
1
 10
-5.5
 20
16.1
 30
0.0
 40
0.1
  0
CIRCLE
  8
0
 62
1
 10
-5.5
 20
18.45
 30
0.0
 40
0.1
  0
CIRCLE
  8
0
 62
1
 10
-5.5
 20
20.85
 30
0.0
 40
0.1
  0
CIRCLE
  8
0
 62
1
 10
-5.0
 20
-14.4
 30
0.0
 40
0.1
  0
CIRCLE
  8
0
 62
1
 10
-5.0
 20
-22.2
 30
0.0
 40
0.1
  0
CIRCLE
  8
0
 62
1
 10
-5.0
 20
-20.2
 30
0.0
 40
0.1
  0
CIRCLE
  8
0
 62
1
 10
-5.0
 20
-19.65
 30
0.0
 40
0.1
  0
CIRCLE
  8
0
 62
1
 10
-5.0
 20
-19.05
 30
0.0
 40
0.1
  0
CIRCLE
  8
0
 62
1
 10
-5.0
 20
-18.4
 30
0.0
 40
0.1
  0
CIRCLE
  8
0
 62
1
 10
-5.0
 20
-17.7
 30
0.0
 40
0.1
  0
CIRCLE
  8
0
 62
1
 10
-5.0
 20
-16.95
 30
0.0
 40
0.1
  0
CIRCLE
  8
0
 62
1
 10
-5.0
 20
-16.15
 30
0.0
 40
0.1
  0
CIRCLE
  8
0
 62
1
 10
-5.0
 20
-8.85
 30
0.0
 40
0.1
  0
CIRCLE
  8
0
 62
1
 10
-5.0
 20
-15.3
 30
0.0
 40
0.1
  0
CIRCLE
  8
0
 62
1
 10
-5.0
 20
-13.45
 30
0.0
 40
0.1
  0
CIRCLE
  8
0
 62
1
 10
-5.0
 20
-12.45
 30
0.0
 40
0.1
  0
CIRCLE
  8
0
 62
1
 10
-5.0
 20
-11.35
 30
0.0
 40
0.1
  0
CIRCLE
  8
0
 62
1
 10
-5.0
 20
-10.15
 30
0.0
 40
0.1
  0
CIRCLE
  8
0
 62
1
 10
-5.0
 20
1.05
 30
0.0
 40
0.1
  0
CIRCLE
  8
0
 62
1
 10
-5.0
 20
-7.45
 30
0.0
 40
0.1
  0
CIRCLE
  8
0
 62
1
 10
-5.0
 20
-5.95
 30
0.0
 40
0.1
  0
CIRCLE
  8
0
 62
1
 10
-5.0
 20
-4.35
 30
0.0
 40
0.1
  0
CIRCLE
  8
0
 62
1
 10
-5.0
 20
-2.65
 30
0.0
 40
0.1
  0
CIRCLE
  8
0
 62
1
 10
-5.0
 20
-0.85
 30
0.0
 40
0.1
  0
CIRCLE
  8
0
 62
1
 10
-5.0
 20
-21.15
 30
0.0
 40
0.1
  0
CIRCLE
  8
0
 62
1
 10
-5.0
 20
-20.7
 30
0.0
 40
0.1
  0
CIRCLE
  8
0
 62
1
 10
-5.0
 20
-21.9
 30
0.0
 40
0.1
  0
CIRCLE
  8
0
 62
1
 10
-5.0
 20
-21.55
 30
0.0
 40
0.1
  0
CIRCLE
  8
0
 62
1
 10
-5.0
 20
3.05
 30
0.0
 40
0.1
  0
CIRCLE
  8
0
 62
1
 10
-5.0
 20
5.1
 30
0.0
 40
0.1
  0
CIRCLE
  8
0
 62
1
 10
-5.0
 20
7.2
 30
0.0
 40
0.100101
  0
CIRCLE
  8
0
 62
1
 10
-5.0
 20
9.35
 30
0.0
 40
0.1
  0
CIRCLE
  8
0
 62
1
 10
-5.0
 20
11.55
 30
0.0
 40
0.1
  0
CIRCLE
  8
0
 62
1
 10
-5.0
 20
13.8
 30
0.0
 40
0.1
  0
CIRCLE
  8
0
 62
1
 10
-5.0
 20
16.1
 30
0.0
 40
0.1
  0
CIRCLE
  8
0
 62
1
 10
-5.0
 20
18.45
 30
0.0
 40
0.1
  0
CIRCLE
  8
0
 62
1
 10
-5.0
 20
20.85
 30
0.0
 40
0.1
  0
CIRCLE
  8
0
 62
1
 10
-4.5
 20
-14.4
 30
0.0
 40
0.1
  0
CIRCLE
  8
0
 62
1
 10
-4.5
 20
-22.2
 30
0.0
 40
0.1
  0
CIRCLE
  8
0
 62
1
 10
-4.5
 20
-20.2
 30
0.0
 40
0.1
  0
CIRCLE
  8
0
 62
1
 10
-4.5
 20
-19.65
 30
0.0
 40
0.1
  0
CIRCLE
  8
0
 62
1
 10
-4.5
 20
-19.05
 30
0.0
 40
0.1
  0
CIRCLE
  8
0
 62
1
 10
-4.5
 20
-18.4
 30
0.0
 40
0.1
  0
CIRCLE
  8
0
 62
1
 10
-4.5
 20
-17.7
 30
0.0
 40
0.1
  0
CIRCLE
  8
0
 62
1
 10
-4.5
 20
-16.95
 30
0.0
 40
0.1
  0
CIRCLE
  8
0
 62
1
 10
-4.5
 20
-16.15
 30
0.0
 40
0.1
  0
CIRCLE
  8
0
 62
1
 10
-4.5
 20
-8.85
 30
0.0
 40
0.1
  0
CIRCLE
  8
0
 62
1
 10
-4.5
 20
-15.3
 30
0.0
 40
0.1
  0
CIRCLE
  8
0
 62
1
 10
-4.5
 20
-13.45
 30
0.0
 40
0.1
  0
CIRCLE
  8
0
 62
1
 10
-4.5
 20
-12.45
 30
0.0
 40
0.1
  0
CIRCLE
  8
0
 62
1
 10
-4.5
 20
-11.35
 30
0.0
 40
0.1
  0
CIRCLE
  8
0
 62
1
 10
-4.5
 20
-10.15
 30
0.0
 40
0.1
  0
CIRCLE
  8
0
 62
1
 10
-4.5
 20
1.05
 30
0.0
 40
0.1
  0
CIRCLE
  8
0
 62
1
 10
-4.5
 20
-7.45
 30
0.0
 40
0.1
  0
CIRCLE
  8
0
 62
1
 10
-4.5
 20
-5.95
 30
0.0
 40
0.1
  0
CIRCLE
  8
0
 62
1
 10
-4.5
 20
-4.35
 30
0.0
 40
0.1
  0
CIRCLE
  8
0
 62
1
 10
-4.5
 20
-2.65
 30
0.0
 40
0.1
  0
CIRCLE
  8
0
 62
1
 10
-4.5
 20
-0.85
 30
0.0
 40
0.1
  0
CIRCLE
  8
0
 62
1
 10
-4.5
 20
-21.15
 30
0.0
 40
0.1
  0
CIRCLE
  8
0
 62
1
 10
-4.5
 20
-20.7
 30
0.0
 40
0.1
  0
CIRCLE
  8
0
 62
1
 10
-4.5
 20
-21.9
 30
0.0
 40
0.1
  0
CIRCLE
  8
0
 62
1
 10
-4.5
 20
-21.55
 30
0.0
 40
0.1
  0
CIRCLE
  8
0
 62
1
 10
-4.5
 20
3.05
 30
0.0
 40
0.1
  0
CIRCLE
  8
0
 62
1
 10
-4.5
 20
5.1
 30
0.0
 40
0.1
  0
CIRCLE
  8
0
 62
1
 10
-4.5
 20
7.2
 30
0.0
 40
0.100101
  0
CIRCLE
  8
0
 62
1
 10
-4.5
 20
9.35
 30
0.0
 40
0.1
  0
CIRCLE
  8
0
 62
1
 10
-4.5
 20
11.55
 30
0.0
 40
0.1
  0
CIRCLE
  8
0
 62
1
 10
-4.5
 20
13.8
 30
0.0
 40
0.1
  0
CIRCLE
  8
0
 62
1
 10
-4.5
 20
16.1
 30
0.0
 40
0.1
  0
CIRCLE
  8
0
 62
1
 10
-4.5
 20
18.45
 30
0.0
 40
0.1
  0
CIRCLE
  8
0
 62
1
 10
-4.5
 20
20.85
 30
0.0
 40
0.1
  0
CIRCLE
  8
0
 62
1
 10
-4.0
 20
-14.4
 30
0.0
 40
0.1
  0
CIRCLE
  8
0
 62
1
 10
-4.0
 20
-22.2
 30
0.0
 40
0.1
  0
CIRCLE
  8
0
 62
1
 10
-4.0
 20
-20.2
 30
0.0
 40
0.1
  0
CIRCLE
  8
0
 62
1
 10
-4.0
 20
-19.65
 30
0.0
 40
0.1
  0
CIRCLE
  8
0
 62
1
 10
-4.0
 20
-19.05
 30
0.0
 40
0.1
  0
CIRCLE
  8
0
 62
1
 10
-4.0
 20
-18.4
 30
0.0
 40
0.1
  0
CIRCLE
  8
0
 62
1
 10
-4.0
 20
-17.7
 30
0.0
 40
0.1
  0
CIRCLE
  8
0
 62
1
 10
-4.0
 20
-16.95
 30
0.0
 40
0.1
  0
CIRCLE
  8
0
 62
1
 10
-4.0
 20
-16.15
 30
0.0
 40
0.1
  0
CIRCLE
  8
0
 62
1
 10
-4.0
 20
-8.85
 30
0.0
 40
0.1
  0
CIRCLE
  8
0
 62
1
 10
-4.0
 20
-15.3
 30
0.0
 40
0.1
  0
CIRCLE
  8
0
 62
1
 10
-4.0
 20
-13.45
 30
0.0
 40
0.1
  0
CIRCLE
  8
0
 62
1
 10
-4.0
 20
-12.45
 30
0.0
 40
0.1
  0
CIRCLE
  8
0
 62
1
 10
-4.0
 20
-11.35
 30
0.0
 40
0.1
  0
CIRCLE
  8
0
 62
1
 10
-4.0
 20
-10.15
 30
0.0
 40
0.1
  0
CIRCLE
  8
0
 62
1
 10
-4.0
 20
1.05
 30
0.0
 40
0.1
  0
CIRCLE
  8
0
 62
1
 10
-4.0
 20
-7.45
 30
0.0
 40
0.1
  0
CIRCLE
  8
0
 62
1
 10
-4.0
 20
-5.95
 30
0.0
 40
0.1
  0
CIRCLE
  8
0
 62
1
 10
-4.0
 20
-4.35
 30
0.0
 40
0.1
  0
CIRCLE
  8
0
 62
1
 10
-4.0
 20
-2.65
 30
0.0
 40
0.1
  0
CIRCLE
  8
0
 62
1
 10
-4.0
 20
-0.85
 30
0.0
 40
0.1
  0
CIRCLE
  8
0
 62
1
 10
-4.0
 20
-21.15
 30
0.0
 40
0.1
  0
CIRCLE
  8
0
 62
1
 10
-4.0
 20
-20.7
 30
0.0
 40
0.1
  0
CIRCLE
  8
0
 62
1
 10
-4.0
 20
-21.9
 30
0.0
 40
0.1
  0
CIRCLE
  8
0
 62
1
 10
-4.0
 20
-21.55
 30
0.0
 40
0.1
  0
CIRCLE
  8
0
 62
1
 10
-4.0
 20
3.05
 30
0.0
 40
0.1
  0
CIRCLE
  8
0
 62
1
 10
-4.0
 20
5.1
 30
0.0
 40
0.1
  0
CIRCLE
  8
0
 62
1
 10
-4.0
 20
7.2
 30
0.0
 40
0.100101
  0
CIRCLE
  8
0
 62
1
 10
-4.0
 20
9.35
 30
0.0
 40
0.1
  0
CIRCLE
  8
0
 62
1
 10
-4.0
 20
11.55
 30
0.0
 40
0.1
  0
CIRCLE
  8
0
 62
1
 10
-4.0
 20
13.8
 30
0.0
 40
0.1
  0
CIRCLE
  8
0
 62
1
 10
-4.0
 20
16.1
 30
0.0
 40
0.1
  0
CIRCLE
  8
0
 62
1
 10
-4.0
 20
18.45
 30
0.0
 40
0.1
  0
CIRCLE
  8
0
 62
1
 10
-4.0
 20
20.85
 30
0.0
 40
0.1
  0
CIRCLE
  8
0
 62
1
 10
-3.5
 20
-14.4
 30
0.0
 40
0.1
  0
CIRCLE
  8
0
 62
1
 10
-3.5
 20
-22.2
 30
0.0
 40
0.1
  0
CIRCLE
  8
0
 62
1
 10
-3.5
 20
-20.2
 30
0.0
 40
0.1
  0
CIRCLE
  8
0
 62
1
 10
-3.5
 20
-19.65
 30
0.0
 40
0.1
  0
CIRCLE
  8
0
 62
1
 10
-3.5
 20
-19.05
 30
0.0
 40
0.1
  0
CIRCLE
  8
0
 62
1
 10
-3.5
 20
-18.4
 30
0.0
 40
0.1
  0
CIRCLE
  8
0
 62
1
 10
-3.5
 20
-17.7
 30
0.0
 40
0.1
  0
CIRCLE
  8
0
 62
1
 10
-3.5
 20
-16.95
 30
0.0
 40
0.1
  0
CIRCLE
  8
0
 62
1
 10
-3.5
 20
-16.15
 30
0.0
 40
0.1
  0
CIRCLE
  8
0
 62
1
 10
-3.5
 20
-8.85
 30
0.0
 40
0.1
  0
CIRCLE
  8
0
 62
1
 10
-3.5
 20
-15.3
 30
0.0
 40
0.1
  0
CIRCLE
  8
0
 62
1
 10
-3.5
 20
-13.45
 30
0.0
 40
0.1
  0
CIRCLE
  8
0
 62
1
 10
-3.5
 20
-12.45
 30
0.0
 40
0.1
  0
CIRCLE
  8
0
 62
1
 10
-3.5
 20
-11.35
 30
0.0
 40
0.1
  0
CIRCLE
  8
0
 62
1
 10
-3.5
 20
-10.15
 30
0.0
 40
0.1
  0
CIRCLE
  8
0
 62
1
 10
-3.5
 20
1.05
 30
0.0
 40
0.1
  0
CIRCLE
  8
0
 62
1
 10
-3.5
 20
-7.45
 30
0.0
 40
0.1
  0
CIRCLE
  8
0
 62
1
 10
-3.5
 20
-5.95
 30
0.0
 40
0.1
  0
CIRCLE
  8
0
 62
1
 10
-3.5
 20
-4.35
 30
0.0
 40
0.1
  0
CIRCLE
  8
0
 62
1
 10
-3.5
 20
-2.65
 30
0.0
 40
0.1
  0
CIRCLE
  8
0
 62
1
 10
-3.5
 20
-0.85
 30
0.0
 40
0.1
  0
CIRCLE
  8
0
 62
1
 10
-3.5
 20
-21.15
 30
0.0
 40
0.1
  0
CIRCLE
  8
0
 62
1
 10
-3.5
 20
-20.7
 30
0.0
 40
0.1
  0
CIRCLE
  8
0
 62
1
 10
-3.5
 20
-21.9
 30
0.0
 40
0.1
  0
CIRCLE
  8
0
 62
1
 10
-3.5
 20
-21.55
 30
0.0
 40
0.1
  0
CIRCLE
  8
0
 62
1
 10
-3.5
 20
3.05
 30
0.0
 40
0.1
  0
CIRCLE
  8
0
 62
1
 10
-3.5
 20
5.1
 30
0.0
 40
0.1
  0
CIRCLE
  8
0
 62
1
 10
-3.5
 20
7.2
 30
0.0
 40
0.100101
  0
CIRCLE
  8
0
 62
1
 10
-3.5
 20
9.35
 30
0.0
 40
0.1
  0
CIRCLE
  8
0
 62
1
 10
-3.5
 20
11.55
 30
0.0
 40
0.1
  0
CIRCLE
  8
0
 62
1
 10
-3.5
 20
13.8
 30
0.0
 40
0.1
  0
CIRCLE
  8
0
 62
1
 10
-3.5
 20
16.1
 30
0.0
 40
0.1
  0
CIRCLE
  8
0
 62
1
 10
-3.5
 20
18.45
 30
0.0
 40
0.1
  0
CIRCLE
  8
0
 62
1
 10
-3.5
 20
20.85
 30
0.0
 40
0.1
  0
CIRCLE
  8
0
 62
1
 10
-3.0
 20
-14.4
 30
0.0
 40
0.1
  0
CIRCLE
  8
0
 62
1
 10
-3.0
 20
-22.2
 30
0.0
 40
0.1
  0
CIRCLE
  8
0
 62
1
 10
-3.0
 20
-20.2
 30
0.0
 40
0.1
  0
CIRCLE
  8
0
 62
1
 10
-3.0
 20
-19.65
 30
0.0
 40
0.1
  0
CIRCLE
  8
0
 62
1
 10
-3.0
 20
-19.05
 30
0.0
 40
0.1
  0
CIRCLE
  8
0
 62
1
 10
-3.0
 20
-18.4
 30
0.0
 40
0.1
  0
CIRCLE
  8
0
 62
1
 10
-3.0
 20
-17.7
 30
0.0
 40
0.1
  0
CIRCLE
  8
0
 62
1
 10
-3.0
 20
-16.95
 30
0.0
 40
0.1
  0
CIRCLE
  8
0
 62
1
 10
-3.0
 20
-16.15
 30
0.0
 40
0.1
  0
CIRCLE
  8
0
 62
1
 10
-3.0
 20
-8.85
 30
0.0
 40
0.1
  0
CIRCLE
  8
0
 62
1
 10
-3.0
 20
-15.3
 30
0.0
 40
0.1
  0
CIRCLE
  8
0
 62
1
 10
-3.0
 20
-13.45
 30
0.0
 40
0.1
  0
CIRCLE
  8
0
 62
1
 10
-3.0
 20
-12.45
 30
0.0
 40
0.1
  0
CIRCLE
  8
0
 62
1
 10
-3.0
 20
-11.35
 30
0.0
 40
0.1
  0
CIRCLE
  8
0
 62
1
 10
-3.0
 20
-10.15
 30
0.0
 40
0.1
  0
CIRCLE
  8
0
 62
1
 10
-3.0
 20
1.05
 30
0.0
 40
0.1
  0
CIRCLE
  8
0
 62
1
 10
-3.0
 20
-7.45
 30
0.0
 40
0.1
  0
CIRCLE
  8
0
 62
1
 10
-3.0
 20
-5.95
 30
0.0
 40
0.1
  0
CIRCLE
  8
0
 62
1
 10
-3.0
 20
-4.35
 30
0.0
 40
0.1
  0
CIRCLE
  8
0
 62
1
 10
-3.0
 20
-2.65
 30
0.0
 40
0.1
  0
CIRCLE
  8
0
 62
1
 10
-3.0
 20
-0.85
 30
0.0
 40
0.1
  0
CIRCLE
  8
0
 62
1
 10
-3.0
 20
-21.15
 30
0.0
 40
0.1
  0
CIRCLE
  8
0
 62
1
 10
-3.0
 20
-20.7
 30
0.0
 40
0.1
  0
CIRCLE
  8
0
 62
1
 10
-3.0
 20
-21.9
 30
0.0
 40
0.1
  0
CIRCLE
  8
0
 62
1
 10
-3.0
 20
-21.55
 30
0.0
 40
0.1
  0
CIRCLE
  8
0
 62
1
 10
-3.0
 20
3.05
 30
0.0
 40
0.1
  0
CIRCLE
  8
0
 62
1
 10
-3.0
 20
5.1
 30
0.0
 40
0.1
  0
CIRCLE
  8
0
 62
1
 10
-3.0
 20
7.2
 30
0.0
 40
0.100101
  0
CIRCLE
  8
0
 62
1
 10
-3.0
 20
9.35
 30
0.0
 40
0.1
  0
CIRCLE
  8
0
 62
1
 10
-3.0
 20
11.55
 30
0.0
 40
0.1
  0
CIRCLE
  8
0
 62
1
 10
-3.0
 20
13.8
 30
0.0
 40
0.1
  0
CIRCLE
  8
0
 62
1
 10
-3.0
 20
16.1
 30
0.0
 40
0.1
  0
CIRCLE
  8
0
 62
1
 10
-3.0
 20
18.45
 30
0.0
 40
0.1
  0
CIRCLE
  8
0
 62
1
 10
-3.0
 20
20.85
 30
0.0
 40
0.1
  0
CIRCLE
  8
0
 62
1
 10
-2.5
 20
-14.4
 30
0.0
 40
0.1
  0
CIRCLE
  8
0
 62
1
 10
-2.5
 20
-22.2
 30
0.0
 40
0.1
  0
CIRCLE
  8
0
 62
1
 10
-2.5
 20
-20.2
 30
0.0
 40
0.1
  0
CIRCLE
  8
0
 62
1
 10
-2.5
 20
-19.65
 30
0.0
 40
0.1
  0
CIRCLE
  8
0
 62
1
 10
-2.5
 20
-19.05
 30
0.0
 40
0.1
  0
CIRCLE
  8
0
 62
1
 10
-2.5
 20
-18.4
 30
0.0
 40
0.1
  0
CIRCLE
  8
0
 62
1
 10
-2.5
 20
-17.7
 30
0.0
 40
0.1
  0
CIRCLE
  8
0
 62
1
 10
-2.5
 20
-16.95
 30
0.0
 40
0.1
  0
CIRCLE
  8
0
 62
1
 10
-2.5
 20
-16.15
 30
0.0
 40
0.1
  0
CIRCLE
  8
0
 62
1
 10
-2.5
 20
-8.85
 30
0.0
 40
0.1
  0
CIRCLE
  8
0
 62
1
 10
-2.5
 20
-15.3
 30
0.0
 40
0.1
  0
CIRCLE
  8
0
 62
1
 10
-2.5
 20
-13.45
 30
0.0
 40
0.1
  0
CIRCLE
  8
0
 62
1
 10
-2.5
 20
-12.45
 30
0.0
 40
0.1
  0
CIRCLE
  8
0
 62
1
 10
-2.5
 20
-11.35
 30
0.0
 40
0.1
  0
CIRCLE
  8
0
 62
1
 10
-2.5
 20
-10.15
 30
0.0
 40
0.1
  0
CIRCLE
  8
0
 62
1
 10
-2.5
 20
1.05
 30
0.0
 40
0.1
  0
CIRCLE
  8
0
 62
1
 10
-2.5
 20
-7.45
 30
0.0
 40
0.1
  0
CIRCLE
  8
0
 62
1
 10
-2.5
 20
-5.95
 30
0.0
 40
0.1
  0
CIRCLE
  8
0
 62
1
 10
-2.5
 20
-4.35
 30
0.0
 40
0.1
  0
CIRCLE
  8
0
 62
1
 10
-2.5
 20
-2.65
 30
0.0
 40
0.1
  0
CIRCLE
  8
0
 62
1
 10
-2.5
 20
-0.85
 30
0.0
 40
0.1
  0
CIRCLE
  8
0
 62
1
 10
-2.5
 20
-21.15
 30
0.0
 40
0.1
  0
CIRCLE
  8
0
 62
1
 10
-2.5
 20
-20.7
 30
0.0
 40
0.1
  0
CIRCLE
  8
0
 62
1
 10
-2.5
 20
-21.9
 30
0.0
 40
0.1
  0
CIRCLE
  8
0
 62
1
 10
-2.5
 20
-21.55
 30
0.0
 40
0.1
  0
CIRCLE
  8
0
 62
1
 10
-2.5
 20
3.05
 30
0.0
 40
0.1
  0
CIRCLE
  8
0
 62
1
 10
-2.5
 20
5.1
 30
0.0
 40
0.1
  0
CIRCLE
  8
0
 62
1
 10
-2.5
 20
7.2
 30
0.0
 40
0.100101
  0
CIRCLE
  8
0
 62
1
 10
-2.5
 20
9.35
 30
0.0
 40
0.1
  0
CIRCLE
  8
0
 62
1
 10
-2.5
 20
11.55
 30
0.0
 40
0.1
  0
CIRCLE
  8
0
 62
1
 10
-2.5
 20
13.8
 30
0.0
 40
0.1
  0
CIRCLE
  8
0
 62
1
 10
-2.5
 20
16.1
 30
0.0
 40
0.1
  0
CIRCLE
  8
0
 62
1
 10
-2.5
 20
18.45
 30
0.0
 40
0.1
  0
CIRCLE
  8
0
 62
1
 10
-2.5
 20
20.85
 30
0.0
 40
0.1
  0
CIRCLE
  8
0
 62
1
 10
-2.0
 20
-14.4
 30
0.0
 40
0.1
  0
CIRCLE
  8
0
 62
1
 10
-2.0
 20
-22.2
 30
0.0
 40
0.1
  0
CIRCLE
  8
0
 62
1
 10
-2.0
 20
-20.2
 30
0.0
 40
0.1
  0
CIRCLE
  8
0
 62
1
 10
-2.0
 20
-19.65
 30
0.0
 40
0.1
  0
CIRCLE
  8
0
 62
1
 10
-2.0
 20
-19.05
 30
0.0
 40
0.1
  0
CIRCLE
  8
0
 62
1
 10
-2.0
 20
-18.4
 30
0.0
 40
0.1
  0
CIRCLE
  8
0
 62
1
 10
-2.0
 20
-17.7
 30
0.0
 40
0.1
  0
CIRCLE
  8
0
 62
1
 10
-2.0
 20
-16.95
 30
0.0
 40
0.1
  0
CIRCLE
  8
0
 62
1
 10
-2.0
 20
-16.15
 30
0.0
 40
0.1
  0
CIRCLE
  8
0
 62
1
 10
-2.0
 20
-8.85
 30
0.0
 40
0.1
  0
CIRCLE
  8
0
 62
1
 10
-2.0
 20
-15.3
 30
0.0
 40
0.1
  0
CIRCLE
  8
0
 62
1
 10
-2.0
 20
-13.45
 30
0.0
 40
0.1
  0
CIRCLE
  8
0
 62
1
 10
-2.0
 20
-12.45
 30
0.0
 40
0.1
  0
CIRCLE
  8
0
 62
1
 10
-2.0
 20
-11.35
 30
0.0
 40
0.1
  0
CIRCLE
  8
0
 62
1
 10
-2.0
 20
-10.15
 30
0.0
 40
0.1
  0
CIRCLE
  8
0
 62
1
 10
-2.0
 20
1.05
 30
0.0
 40
0.1
  0
CIRCLE
  8
0
 62
1
 10
-2.0
 20
-7.45
 30
0.0
 40
0.1
  0
CIRCLE
  8
0
 62
1
 10
-2.0
 20
-5.95
 30
0.0
 40
0.1
  0
CIRCLE
  8
0
 62
1
 10
-2.0
 20
-4.35
 30
0.0
 40
0.1
  0
CIRCLE
  8
0
 62
1
 10
-2.0
 20
-2.65
 30
0.0
 40
0.1
  0
CIRCLE
  8
0
 62
1
 10
-2.0
 20
-0.85
 30
0.0
 40
0.1
  0
CIRCLE
  8
0
 62
1
 10
-2.0
 20
-21.15
 30
0.0
 40
0.1
  0
CIRCLE
  8
0
 62
1
 10
-2.0
 20
-20.7
 30
0.0
 40
0.1
  0
CIRCLE
  8
0
 62
1
 10
-2.0
 20
-21.9
 30
0.0
 40
0.1
  0
CIRCLE
  8
0
 62
1
 10
-2.0
 20
-21.55
 30
0.0
 40
0.1
  0
CIRCLE
  8
0
 62
1
 10
-2.0
 20
3.05
 30
0.0
 40
0.1
  0
CIRCLE
  8
0
 62
1
 10
-2.0
 20
5.1
 30
0.0
 40
0.1
  0
CIRCLE
  8
0
 62
1
 10
-2.0
 20
7.2
 30
0.0
 40
0.100101
  0
CIRCLE
  8
0
 62
1
 10
-2.0
 20
9.35
 30
0.0
 40
0.1
  0
CIRCLE
  8
0
 62
1
 10
-2.0
 20
11.55
 30
0.0
 40
0.1
  0
CIRCLE
  8
0
 62
1
 10
-2.0
 20
13.8
 30
0.0
 40
0.1
  0
CIRCLE
  8
0
 62
1
 10
-2.0
 20
16.1
 30
0.0
 40
0.1
  0
CIRCLE
  8
0
 62
1
 10
-2.0
 20
18.45
 30
0.0
 40
0.1
  0
CIRCLE
  8
0
 62
1
 10
-2.0
 20
20.85
 30
0.0
 40
0.1
  0
CIRCLE
  8
0
 62
1
 10
-1.5
 20
-14.4
 30
0.0
 40
0.1
  0
CIRCLE
  8
0
 62
1
 10
-1.5
 20
-22.2
 30
0.0
 40
0.1
  0
CIRCLE
  8
0
 62
1
 10
-1.5
 20
-20.2
 30
0.0
 40
0.1
  0
CIRCLE
  8
0
 62
1
 10
-1.5
 20
-19.65
 30
0.0
 40
0.1
  0
CIRCLE
  8
0
 62
1
 10
-1.5
 20
-19.05
 30
0.0
 40
0.1
  0
CIRCLE
  8
0
 62
1
 10
-1.5
 20
-18.4
 30
0.0
 40
0.1
  0
CIRCLE
  8
0
 62
1
 10
-1.5
 20
-17.7
 30
0.0
 40
0.1
  0
CIRCLE
  8
0
 62
1
 10
-1.5
 20
-16.95
 30
0.0
 40
0.1
  0
CIRCLE
  8
0
 62
1
 10
-1.5
 20
-16.15
 30
0.0
 40
0.1
  0
CIRCLE
  8
0
 62
1
 10
-1.5
 20
-8.85
 30
0.0
 40
0.1
  0
CIRCLE
  8
0
 62
1
 10
-1.5
 20
-15.3
 30
0.0
 40
0.1
  0
CIRCLE
  8
0
 62
1
 10
-1.5
 20
-13.45
 30
0.0
 40
0.1
  0
CIRCLE
  8
0
 62
1
 10
-1.5
 20
-12.45
 30
0.0
 40
0.1
  0
CIRCLE
  8
0
 62
1
 10
-1.5
 20
-11.35
 30
0.0
 40
0.1
  0
CIRCLE
  8
0
 62
1
 10
-1.5
 20
-10.15
 30
0.0
 40
0.1
  0
CIRCLE
  8
0
 62
1
 10
-1.5
 20
1.05
 30
0.0
 40
0.1
  0
CIRCLE
  8
0
 62
1
 10
-1.5
 20
-7.45
 30
0.0
 40
0.1
  0
CIRCLE
  8
0
 62
1
 10
-1.5
 20
-5.95
 30
0.0
 40
0.1
  0
CIRCLE
  8
0
 62
1
 10
-1.5
 20
-4.35
 30
0.0
 40
0.1
  0
CIRCLE
  8
0
 62
1
 10
-1.5
 20
-2.65
 30
0.0
 40
0.1
  0
CIRCLE
  8
0
 62
1
 10
-1.5
 20
-0.85
 30
0.0
 40
0.1
  0
CIRCLE
  8
0
 62
1
 10
-1.5
 20
-21.15
 30
0.0
 40
0.1
  0
CIRCLE
  8
0
 62
1
 10
-1.5
 20
-20.7
 30
0.0
 40
0.1
  0
CIRCLE
  8
0
 62
1
 10
-1.5
 20
-21.9
 30
0.0
 40
0.1
  0
CIRCLE
  8
0
 62
1
 10
-1.5
 20
-21.55
 30
0.0
 40
0.1
  0
CIRCLE
  8
0
 62
1
 10
-1.5
 20
3.05
 30
0.0
 40
0.1
  0
CIRCLE
  8
0
 62
1
 10
-1.5
 20
5.1
 30
0.0
 40
0.1
  0
CIRCLE
  8
0
 62
1
 10
-1.5
 20
7.2
 30
0.0
 40
0.100101
  0
CIRCLE
  8
0
 62
1
 10
-1.5
 20
9.35
 30
0.0
 40
0.1
  0
CIRCLE
  8
0
 62
1
 10
-1.5
 20
11.55
 30
0.0
 40
0.1
  0
CIRCLE
  8
0
 62
1
 10
-1.5
 20
13.8
 30
0.0
 40
0.1
  0
CIRCLE
  8
0
 62
1
 10
-1.5
 20
16.1
 30
0.0
 40
0.1
  0
CIRCLE
  8
0
 62
1
 10
-1.5
 20
18.45
 30
0.0
 40
0.1
  0
CIRCLE
  8
0
 62
1
 10
-1.5
 20
20.85
 30
0.0
 40
0.1
  0
CIRCLE
  8
0
 62
1
 10
-1.0
 20
-14.4
 30
0.0
 40
0.1
  0
CIRCLE
  8
0
 62
1
 10
-1.0
 20
-22.2
 30
0.0
 40
0.1
  0
CIRCLE
  8
0
 62
1
 10
-1.0
 20
-20.2
 30
0.0
 40
0.1
  0
CIRCLE
  8
0
 62
1
 10
-1.0
 20
-19.65
 30
0.0
 40
0.1
  0
CIRCLE
  8
0
 62
1
 10
-1.0
 20
-19.05
 30
0.0
 40
0.1
  0
CIRCLE
  8
0
 62
1
 10
-1.0
 20
-18.4
 30
0.0
 40
0.1
  0
CIRCLE
  8
0
 62
1
 10
-1.0
 20
-17.7
 30
0.0
 40
0.1
  0
CIRCLE
  8
0
 62
1
 10
-1.0
 20
-16.95
 30
0.0
 40
0.1
  0
CIRCLE
  8
0
 62
1
 10
-1.0
 20
-16.15
 30
0.0
 40
0.1
  0
CIRCLE
  8
0
 62
1
 10
-1.0
 20
-8.85
 30
0.0
 40
0.1
  0
CIRCLE
  8
0
 62
1
 10
-1.0
 20
-15.3
 30
0.0
 40
0.1
  0
CIRCLE
  8
0
 62
1
 10
-1.0
 20
-13.45
 30
0.0
 40
0.1
  0
CIRCLE
  8
0
 62
1
 10
-1.0
 20
-12.45
 30
0.0
 40
0.1
  0
CIRCLE
  8
0
 62
1
 10
-1.0
 20
-11.35
 30
0.0
 40
0.1
  0
CIRCLE
  8
0
 62
1
 10
-1.0
 20
-10.15
 30
0.0
 40
0.1
  0
CIRCLE
  8
0
 62
1
 10
-1.0
 20
1.05
 30
0.0
 40
0.1
  0
CIRCLE
  8
0
 62
1
 10
-1.0
 20
-7.45
 30
0.0
 40
0.1
  0
CIRCLE
  8
0
 62
1
 10
-1.0
 20
-5.95
 30
0.0
 40
0.1
  0
CIRCLE
  8
0
 62
1
 10
-1.0
 20
-4.35
 30
0.0
 40
0.1
  0
CIRCLE
  8
0
 62
1
 10
-1.0
 20
-2.65
 30
0.0
 40
0.1
  0
CIRCLE
  8
0
 62
1
 10
-1.0
 20
-0.85
 30
0.0
 40
0.1
  0
CIRCLE
  8
0
 62
1
 10
-1.0
 20
-21.15
 30
0.0
 40
0.1
  0
CIRCLE
  8
0
 62
1
 10
-1.0
 20
-20.7
 30
0.0
 40
0.1
  0
CIRCLE
  8
0
 62
1
 10
-1.0
 20
-21.9
 30
0.0
 40
0.1
  0
CIRCLE
  8
0
 62
1
 10
-1.0
 20
-21.55
 30
0.0
 40
0.1
  0
CIRCLE
  8
0
 62
1
 10
-1.0
 20
3.05
 30
0.0
 40
0.1
  0
CIRCLE
  8
0
 62
1
 10
-1.0
 20
5.1
 30
0.0
 40
0.1
  0
CIRCLE
  8
0
 62
1
 10
-1.0
 20
7.2
 30
0.0
 40
0.100101
  0
CIRCLE
  8
0
 62
1
 10
-1.0
 20
9.35
 30
0.0
 40
0.1
  0
CIRCLE
  8
0
 62
1
 10
-1.0
 20
11.55
 30
0.0
 40
0.1
  0
CIRCLE
  8
0
 62
1
 10
-1.0
 20
13.8
 30
0.0
 40
0.1
  0
CIRCLE
  8
0
 62
1
 10
-1.0
 20
16.1
 30
0.0
 40
0.1
  0
CIRCLE
  8
0
 62
1
 10
-1.0
 20
18.45
 30
0.0
 40
0.1
  0
CIRCLE
  8
0
 62
1
 10
-1.0
 20
20.85
 30
0.0
 40
0.1
  0
CIRCLE
  8
0
 62
1
 10
-0.5
 20
-14.4
 30
0.0
 40
0.1
  0
CIRCLE
  8
0
 62
1
 10
-0.5
 20
-22.2
 30
0.0
 40
0.1
  0
CIRCLE
  8
0
 62
1
 10
-0.5
 20
-20.2
 30
0.0
 40
0.1
  0
CIRCLE
  8
0
 62
1
 10
-0.5
 20
-19.65
 30
0.0
 40
0.1
  0
CIRCLE
  8
0
 62
1
 10
-0.5
 20
-19.05
 30
0.0
 40
0.1
  0
CIRCLE
  8
0
 62
1
 10
-0.5
 20
-18.4
 30
0.0
 40
0.1
  0
CIRCLE
  8
0
 62
1
 10
-0.5
 20
-17.7
 30
0.0
 40
0.1
  0
CIRCLE
  8
0
 62
1
 10
-0.5
 20
-16.95
 30
0.0
 40
0.1
  0
CIRCLE
  8
0
 62
1
 10
-0.5
 20
-16.15
 30
0.0
 40
0.1
  0
CIRCLE
  8
0
 62
1
 10
-0.5
 20
-8.85
 30
0.0
 40
0.1
  0
CIRCLE
  8
0
 62
1
 10
-0.5
 20
-15.3
 30
0.0
 40
0.1
  0
CIRCLE
  8
0
 62
1
 10
-0.5
 20
-13.45
 30
0.0
 40
0.1
  0
CIRCLE
  8
0
 62
1
 10
-0.5
 20
-12.45
 30
0.0
 40
0.1
  0
CIRCLE
  8
0
 62
1
 10
-0.5
 20
-11.35
 30
0.0
 40
0.1
  0
CIRCLE
  8
0
 62
1
 10
-0.5
 20
-10.15
 30
0.0
 40
0.1
  0
CIRCLE
  8
0
 62
1
 10
-0.5
 20
1.05
 30
0.0
 40
0.1
  0
CIRCLE
  8
0
 62
1
 10
-0.5
 20
-7.45
 30
0.0
 40
0.1
  0
CIRCLE
  8
0
 62
1
 10
-0.5
 20
-5.95
 30
0.0
 40
0.1
  0
CIRCLE
  8
0
 62
1
 10
-0.5
 20
-4.35
 30
0.0
 40
0.1
  0
CIRCLE
  8
0
 62
1
 10
-0.5
 20
-2.65
 30
0.0
 40
0.1
  0
CIRCLE
  8
0
 62
1
 10
-0.5
 20
-0.85
 30
0.0
 40
0.1
  0
CIRCLE
  8
0
 62
1
 10
-0.5
 20
-21.15
 30
0.0
 40
0.1
  0
CIRCLE
  8
0
 62
1
 10
-0.5
 20
-20.7
 30
0.0
 40
0.1
  0
CIRCLE
  8
0
 62
1
 10
-0.5
 20
-21.9
 30
0.0
 40
0.1
  0
CIRCLE
  8
0
 62
1
 10
-0.5
 20
-21.55
 30
0.0
 40
0.1
  0
CIRCLE
  8
0
 62
1
 10
-0.5
 20
3.05
 30
0.0
 40
0.1
  0
CIRCLE
  8
0
 62
1
 10
-0.5
 20
5.1
 30
0.0
 40
0.1
  0
CIRCLE
  8
0
 62
1
 10
-0.5
 20
7.2
 30
0.0
 40
0.100101
  0
CIRCLE
  8
0
 62
1
 10
-0.5
 20
9.35
 30
0.0
 40
0.1
  0
CIRCLE
  8
0
 62
1
 10
-0.5
 20
11.55
 30
0.0
 40
0.1
  0
CIRCLE
  8
0
 62
1
 10
-0.5
 20
13.8
 30
0.0
 40
0.1
  0
CIRCLE
  8
0
 62
1
 10
-0.5
 20
16.1
 30
0.0
 40
0.1
  0
CIRCLE
  8
0
 62
1
 10
-0.5
 20
18.45
 30
0.0
 40
0.1
  0
CIRCLE
  8
0
 62
1
 10
-0.5
 20
20.85
 30
0.0
 40
0.1
  0
CIRCLE
  8
0
 62
1
 10
0.0
 20
-14.4
 30
0.0
 40
0.1
  0
CIRCLE
  8
0
 62
1
 10
0.0
 20
-22.2
 30
0.0
 40
0.1
  0
CIRCLE
  8
0
 62
1
 10
0.0
 20
-20.2
 30
0.0
 40
0.1
  0
CIRCLE
  8
0
 62
1
 10
0.0
 20
-19.65
 30
0.0
 40
0.1
  0
CIRCLE
  8
0
 62
1
 10
0.0
 20
-19.05
 30
0.0
 40
0.1
  0
CIRCLE
  8
0
 62
1
 10
0.0
 20
-18.4
 30
0.0
 40
0.1
  0
CIRCLE
  8
0
 62
1
 10
0.0
 20
-17.7
 30
0.0
 40
0.1
  0
CIRCLE
  8
0
 62
1
 10
0.0
 20
-16.95
 30
0.0
 40
0.1
  0
CIRCLE
  8
0
 62
1
 10
0.0
 20
-16.15
 30
0.0
 40
0.1
  0
CIRCLE
  8
0
 62
1
 10
0.0
 20
-8.85
 30
0.0
 40
0.1
  0
CIRCLE
  8
0
 62
1
 10
0.0
 20
-15.3
 30
0.0
 40
0.1
  0
CIRCLE
  8
0
 62
1
 10
0.0
 20
-13.45
 30
0.0
 40
0.1
  0
CIRCLE
  8
0
 62
1
 10
0.0
 20
-12.45
 30
0.0
 40
0.1
  0
CIRCLE
  8
0
 62
1
 10
0.0
 20
-11.35
 30
0.0
 40
0.1
  0
CIRCLE
  8
0
 62
1
 10
0.0
 20
-10.15
 30
0.0
 40
0.1
  0
CIRCLE
  8
0
 62
1
 10
0.0
 20
1.05
 30
0.0
 40
0.1
  0
CIRCLE
  8
0
 62
1
 10
0.0
 20
-7.45
 30
0.0
 40
0.1
  0
CIRCLE
  8
0
 62
1
 10
0.0
 20
-5.95
 30
0.0
 40
0.1
  0
CIRCLE
  8
0
 62
1
 10
0.0
 20
-4.35
 30
0.0
 40
0.1
  0
CIRCLE
  8
0
 62
1
 10
0.0
 20
-2.65
 30
0.0
 40
0.1
  0
CIRCLE
  8
0
 62
1
 10
0.0
 20
-0.85
 30
0.0
 40
0.1
  0
CIRCLE
  8
0
 62
1
 10
0.0
 20
-21.15
 30
0.0
 40
0.1
  0
CIRCLE
  8
0
 62
1
 10
0.0
 20
-20.7
 30
0.0
 40
0.1
  0
CIRCLE
  8
0
 62
1
 10
0.0
 20
-21.9
 30
0.0
 40
0.1
  0
CIRCLE
  8
0
 62
1
 10
0.0
 20
-21.55
 30
0.0
 40
0.1
  0
CIRCLE
  8
0
 62
1
 10
0.0
 20
3.05
 30
0.0
 40
0.1
  0
CIRCLE
  8
0
 62
1
 10
0.0
 20
5.1
 30
0.0
 40
0.1
  0
CIRCLE
  8
0
 62
1
 10
0.0
 20
7.2
 30
0.0
 40
0.100101
  0
CIRCLE
  8
0
 62
1
 10
0.0
 20
9.35
 30
0.0
 40
0.1
  0
CIRCLE
  8
0
 62
1
 10
0.0
 20
11.55
 30
0.0
 40
0.1
  0
CIRCLE
  8
0
 62
1
 10
0.0
 20
13.8
 30
0.0
 40
0.1
  0
CIRCLE
  8
0
 62
1
 10
0.0
 20
16.1
 30
0.0
 40
0.1
  0
CIRCLE
  8
0
 62
1
 10
0.0
 20
18.45
 30
0.0
 40
0.1
  0
CIRCLE
  8
0
 62
1
 10
0.0
 20
20.85
 30
0.0
 40
0.1
  0
CIRCLE
  8
0
 62
1
 10
0.5
 20
-14.4
 30
0.0
 40
0.1
  0
CIRCLE
  8
0
 62
1
 10
0.5
 20
-22.2
 30
0.0
 40
0.1
  0
CIRCLE
  8
0
 62
1
 10
0.5
 20
-20.2
 30
0.0
 40
0.1
  0
CIRCLE
  8
0
 62
1
 10
0.5
 20
-19.65
 30
0.0
 40
0.1
  0
CIRCLE
  8
0
 62
1
 10
0.5
 20
-19.05
 30
0.0
 40
0.1
  0
CIRCLE
  8
0
 62
1
 10
0.5
 20
-18.4
 30
0.0
 40
0.1
  0
CIRCLE
  8
0
 62
1
 10
0.5
 20
-17.7
 30
0.0
 40
0.1
  0
CIRCLE
  8
0
 62
1
 10
0.5
 20
-16.95
 30
0.0
 40
0.1
  0
CIRCLE
  8
0
 62
1
 10
0.5
 20
-16.15
 30
0.0
 40
0.1
  0
CIRCLE
  8
0
 62
1
 10
0.5
 20
-8.85
 30
0.0
 40
0.1
  0
CIRCLE
  8
0
 62
1
 10
0.5
 20
-15.3
 30
0.0
 40
0.1
  0
CIRCLE
  8
0
 62
1
 10
0.5
 20
-13.45
 30
0.0
 40
0.1
  0
CIRCLE
  8
0
 62
1
 10
0.5
 20
-12.45
 30
0.0
 40
0.1
  0
CIRCLE
  8
0
 62
1
 10
0.5
 20
-11.35
 30
0.0
 40
0.1
  0
CIRCLE
  8
0
 62
1
 10
0.5
 20
-10.15
 30
0.0
 40
0.1
  0
CIRCLE
  8
0
 62
1
 10
0.5
 20
1.05
 30
0.0
 40
0.1
  0
CIRCLE
  8
0
 62
1
 10
0.5
 20
-7.45
 30
0.0
 40
0.1
  0
CIRCLE
  8
0
 62
1
 10
0.5
 20
-5.95
 30
0.0
 40
0.1
  0
CIRCLE
  8
0
 62
1
 10
0.5
 20
-4.35
 30
0.0
 40
0.1
  0
CIRCLE
  8
0
 62
1
 10
0.5
 20
-2.65
 30
0.0
 40
0.1
  0
CIRCLE
  8
0
 62
1
 10
0.5
 20
-0.85
 30
0.0
 40
0.1
  0
CIRCLE
  8
0
 62
1
 10
0.5
 20
-21.15
 30
0.0
 40
0.1
  0
CIRCLE
  8
0
 62
1
 10
0.5
 20
-20.7
 30
0.0
 40
0.1
  0
CIRCLE
  8
0
 62
1
 10
0.5
 20
-21.9
 30
0.0
 40
0.1
  0
CIRCLE
  8
0
 62
1
 10
0.5
 20
-21.55
 30
0.0
 40
0.1
  0
CIRCLE
  8
0
 62
1
 10
0.5
 20
3.05
 30
0.0
 40
0.1
  0
CIRCLE
  8
0
 62
1
 10
0.5
 20
5.1
 30
0.0
 40
0.1
  0
CIRCLE
  8
0
 62
1
 10
0.5
 20
7.2
 30
0.0
 40
0.100101
  0
CIRCLE
  8
0
 62
1
 10
0.5
 20
9.35
 30
0.0
 40
0.1
  0
CIRCLE
  8
0
 62
1
 10
0.5
 20
11.55
 30
0.0
 40
0.1
  0
CIRCLE
  8
0
 62
1
 10
0.5
 20
13.8
 30
0.0
 40
0.1
  0
CIRCLE
  8
0
 62
1
 10
0.5
 20
16.1
 30
0.0
 40
0.1
  0
CIRCLE
  8
0
 62
1
 10
0.5
 20
18.45
 30
0.0
 40
0.1
  0
CIRCLE
  8
0
 62
1
 10
0.5
 20
20.85
 30
0.0
 40
0.1
  0
CIRCLE
  8
0
 62
1
 10
1.0
 20
-14.4
 30
0.0
 40
0.1
  0
CIRCLE
  8
0
 62
1
 10
1.0
 20
-22.2
 30
0.0
 40
0.1
  0
CIRCLE
  8
0
 62
1
 10
1.0
 20
-20.2
 30
0.0
 40
0.1
  0
CIRCLE
  8
0
 62
1
 10
1.0
 20
-19.65
 30
0.0
 40
0.1
  0
CIRCLE
  8
0
 62
1
 10
1.0
 20
-19.05
 30
0.0
 40
0.1
  0
CIRCLE
  8
0
 62
1
 10
1.0
 20
-18.4
 30
0.0
 40
0.1
  0
CIRCLE
  8
0
 62
1
 10
1.0
 20
-17.7
 30
0.0
 40
0.1
  0
CIRCLE
  8
0
 62
1
 10
1.0
 20
-16.95
 30
0.0
 40
0.1
  0
CIRCLE
  8
0
 62
1
 10
1.0
 20
-16.15
 30
0.0
 40
0.1
  0
CIRCLE
  8
0
 62
1
 10
1.0
 20
-8.85
 30
0.0
 40
0.1
  0
CIRCLE
  8
0
 62
1
 10
1.0
 20
-15.3
 30
0.0
 40
0.1
  0
CIRCLE
  8
0
 62
1
 10
1.0
 20
-13.45
 30
0.0
 40
0.1
  0
CIRCLE
  8
0
 62
1
 10
1.0
 20
-12.45
 30
0.0
 40
0.1
  0
CIRCLE
  8
0
 62
1
 10
1.0
 20
-11.35
 30
0.0
 40
0.1
  0
CIRCLE
  8
0
 62
1
 10
1.0
 20
-10.15
 30
0.0
 40
0.1
  0
CIRCLE
  8
0
 62
1
 10
1.0
 20
1.05
 30
0.0
 40
0.1
  0
CIRCLE
  8
0
 62
1
 10
1.0
 20
-7.45
 30
0.0
 40
0.1
  0
CIRCLE
  8
0
 62
1
 10
1.0
 20
-5.95
 30
0.0
 40
0.1
  0
CIRCLE
  8
0
 62
1
 10
1.0
 20
-4.35
 30
0.0
 40
0.1
  0
CIRCLE
  8
0
 62
1
 10
1.0
 20
-2.65
 30
0.0
 40
0.1
  0
CIRCLE
  8
0
 62
1
 10
1.0
 20
-0.85
 30
0.0
 40
0.1
  0
CIRCLE
  8
0
 62
1
 10
1.0
 20
-21.15
 30
0.0
 40
0.1
  0
CIRCLE
  8
0
 62
1
 10
1.0
 20
-20.7
 30
0.0
 40
0.1
  0
CIRCLE
  8
0
 62
1
 10
1.0
 20
-21.9
 30
0.0
 40
0.1
  0
CIRCLE
  8
0
 62
1
 10
1.0
 20
-21.55
 30
0.0
 40
0.1
  0
CIRCLE
  8
0
 62
1
 10
1.0
 20
3.05
 30
0.0
 40
0.1
  0
CIRCLE
  8
0
 62
1
 10
1.0
 20
5.1
 30
0.0
 40
0.1
  0
CIRCLE
  8
0
 62
1
 10
1.0
 20
7.2
 30
0.0
 40
0.100101
  0
CIRCLE
  8
0
 62
1
 10
1.0
 20
9.35
 30
0.0
 40
0.1
  0
CIRCLE
  8
0
 62
1
 10
1.0
 20
11.55
 30
0.0
 40
0.1
  0
CIRCLE
  8
0
 62
1
 10
1.0
 20
13.8
 30
0.0
 40
0.1
  0
CIRCLE
  8
0
 62
1
 10
1.0
 20
16.1
 30
0.0
 40
0.1
  0
CIRCLE
  8
0
 62
1
 10
1.0
 20
18.45
 30
0.0
 40
0.1
  0
CIRCLE
  8
0
 62
1
 10
1.0
 20
20.85
 30
0.0
 40
0.1
  0
CIRCLE
  8
0
 62
1
 10
1.5
 20
-14.4
 30
0.0
 40
0.1
  0
CIRCLE
  8
0
 62
1
 10
1.5
 20
-22.2
 30
0.0
 40
0.1
  0
CIRCLE
  8
0
 62
1
 10
1.5
 20
-20.2
 30
0.0
 40
0.1
  0
CIRCLE
  8
0
 62
1
 10
1.5
 20
-19.65
 30
0.0
 40
0.1
  0
CIRCLE
  8
0
 62
1
 10
1.5
 20
-19.05
 30
0.0
 40
0.1
  0
CIRCLE
  8
0
 62
1
 10
1.5
 20
-18.4
 30
0.0
 40
0.1
  0
CIRCLE
  8
0
 62
1
 10
1.5
 20
-17.7
 30
0.0
 40
0.1
  0
CIRCLE
  8
0
 62
1
 10
1.5
 20
-16.95
 30
0.0
 40
0.1
  0
CIRCLE
  8
0
 62
1
 10
1.5
 20
-16.15
 30
0.0
 40
0.1
  0
CIRCLE
  8
0
 62
1
 10
1.5
 20
-8.85
 30
0.0
 40
0.1
  0
CIRCLE
  8
0
 62
1
 10
1.5
 20
-15.3
 30
0.0
 40
0.1
  0
CIRCLE
  8
0
 62
1
 10
1.5
 20
-13.45
 30
0.0
 40
0.1
  0
CIRCLE
  8
0
 62
1
 10
1.5
 20
-12.45
 30
0.0
 40
0.1
  0
CIRCLE
  8
0
 62
1
 10
1.5
 20
-11.35
 30
0.0
 40
0.1
  0
CIRCLE
  8
0
 62
1
 10
1.5
 20
-10.15
 30
0.0
 40
0.1
  0
CIRCLE
  8
0
 62
1
 10
1.5
 20
1.05
 30
0.0
 40
0.1
  0
CIRCLE
  8
0
 62
1
 10
1.5
 20
-7.45
 30
0.0
 40
0.1
  0
CIRCLE
  8
0
 62
1
 10
1.5
 20
-5.95
 30
0.0
 40
0.1
  0
CIRCLE
  8
0
 62
1
 10
1.5
 20
-4.35
 30
0.0
 40
0.1
  0
CIRCLE
  8
0
 62
1
 10
1.5
 20
-2.65
 30
0.0
 40
0.1
  0
CIRCLE
  8
0
 62
1
 10
1.5
 20
-0.85
 30
0.0
 40
0.1
  0
CIRCLE
  8
0
 62
1
 10
1.5
 20
-21.15
 30
0.0
 40
0.1
  0
CIRCLE
  8
0
 62
1
 10
1.5
 20
-20.7
 30
0.0
 40
0.1
  0
CIRCLE
  8
0
 62
1
 10
1.5
 20
-21.9
 30
0.0
 40
0.1
  0
CIRCLE
  8
0
 62
1
 10
1.5
 20
-21.55
 30
0.0
 40
0.1
  0
CIRCLE
  8
0
 62
1
 10
1.5
 20
3.05
 30
0.0
 40
0.1
  0
CIRCLE
  8
0
 62
1
 10
1.5
 20
5.1
 30
0.0
 40
0.1
  0
CIRCLE
  8
0
 62
1
 10
1.5
 20
7.2
 30
0.0
 40
0.100101
  0
CIRCLE
  8
0
 62
1
 10
1.5
 20
9.35
 30
0.0
 40
0.1
  0
CIRCLE
  8
0
 62
1
 10
1.5
 20
11.55
 30
0.0
 40
0.1
  0
CIRCLE
  8
0
 62
1
 10
1.5
 20
13.8
 30
0.0
 40
0.1
  0
CIRCLE
  8
0
 62
1
 10
1.5
 20
16.1
 30
0.0
 40
0.1
  0
CIRCLE
  8
0
 62
1
 10
1.5
 20
18.45
 30
0.0
 40
0.1
  0
CIRCLE
  8
0
 62
1
 10
1.5
 20
20.85
 30
0.0
 40
0.1
  0
CIRCLE
  8
0
 62
1
 10
2.0
 20
-14.4
 30
0.0
 40
0.1
  0
CIRCLE
  8
0
 62
1
 10
2.0
 20
-22.2
 30
0.0
 40
0.1
  0
CIRCLE
  8
0
 62
1
 10
2.0
 20
-20.2
 30
0.0
 40
0.1
  0
CIRCLE
  8
0
 62
1
 10
2.0
 20
-19.65
 30
0.0
 40
0.1
  0
CIRCLE
  8
0
 62
1
 10
2.0
 20
-19.05
 30
0.0
 40
0.1
  0
CIRCLE
  8
0
 62
1
 10
2.0
 20
-18.4
 30
0.0
 40
0.1
  0
CIRCLE
  8
0
 62
1
 10
2.0
 20
-17.7
 30
0.0
 40
0.1
  0
CIRCLE
  8
0
 62
1
 10
2.0
 20
-16.95
 30
0.0
 40
0.1
  0
CIRCLE
  8
0
 62
1
 10
2.0
 20
-16.15
 30
0.0
 40
0.1
  0
CIRCLE
  8
0
 62
1
 10
2.0
 20
-8.85
 30
0.0
 40
0.1
  0
CIRCLE
  8
0
 62
1
 10
2.0
 20
-15.3
 30
0.0
 40
0.1
  0
CIRCLE
  8
0
 62
1
 10
2.0
 20
-13.45
 30
0.0
 40
0.1
  0
CIRCLE
  8
0
 62
1
 10
2.0
 20
-12.45
 30
0.0
 40
0.1
  0
CIRCLE
  8
0
 62
1
 10
2.0
 20
-11.35
 30
0.0
 40
0.1
  0
CIRCLE
  8
0
 62
1
 10
2.0
 20
-10.15
 30
0.0
 40
0.1
  0
CIRCLE
  8
0
 62
1
 10
2.0
 20
1.05
 30
0.0
 40
0.1
  0
CIRCLE
  8
0
 62
1
 10
2.0
 20
-7.45
 30
0.0
 40
0.1
  0
CIRCLE
  8
0
 62
1
 10
2.0
 20
-5.95
 30
0.0
 40
0.1
  0
CIRCLE
  8
0
 62
1
 10
2.0
 20
-4.35
 30
0.0
 40
0.1
  0
CIRCLE
  8
0
 62
1
 10
2.0
 20
-2.65
 30
0.0
 40
0.1
  0
CIRCLE
  8
0
 62
1
 10
2.0
 20
-0.85
 30
0.0
 40
0.1
  0
CIRCLE
  8
0
 62
1
 10
2.0
 20
-21.15
 30
0.0
 40
0.1
  0
CIRCLE
  8
0
 62
1
 10
2.0
 20
-20.7
 30
0.0
 40
0.1
  0
CIRCLE
  8
0
 62
1
 10
2.0
 20
-21.9
 30
0.0
 40
0.1
  0
CIRCLE
  8
0
 62
1
 10
2.0
 20
-21.55
 30
0.0
 40
0.1
  0
CIRCLE
  8
0
 62
1
 10
2.0
 20
3.05
 30
0.0
 40
0.1
  0
CIRCLE
  8
0
 62
1
 10
2.0
 20
5.1
 30
0.0
 40
0.1
  0
CIRCLE
  8
0
 62
1
 10
2.0
 20
7.2
 30
0.0
 40
0.100101
  0
CIRCLE
  8
0
 62
1
 10
2.0
 20
9.35
 30
0.0
 40
0.1
  0
CIRCLE
  8
0
 62
1
 10
2.0
 20
11.55
 30
0.0
 40
0.1
  0
CIRCLE
  8
0
 62
1
 10
2.0
 20
13.8
 30
0.0
 40
0.1
  0
CIRCLE
  8
0
 62
1
 10
2.0
 20
16.1
 30
0.0
 40
0.1
  0
CIRCLE
  8
0
 62
1
 10
2.0
 20
18.45
 30
0.0
 40
0.1
  0
CIRCLE
  8
0
 62
1
 10
2.0
 20
20.85
 30
0.0
 40
0.1
  0
CIRCLE
  8
0
 62
1
 10
2.5
 20
-14.4
 30
0.0
 40
0.1
  0
CIRCLE
  8
0
 62
1
 10
2.5
 20
-22.2
 30
0.0
 40
0.1
  0
CIRCLE
  8
0
 62
1
 10
2.5
 20
-20.2
 30
0.0
 40
0.1
  0
CIRCLE
  8
0
 62
1
 10
2.5
 20
-19.65
 30
0.0
 40
0.1
  0
CIRCLE
  8
0
 62
1
 10
2.5
 20
-19.05
 30
0.0
 40
0.1
  0
CIRCLE
  8
0
 62
1
 10
2.5
 20
-18.4
 30
0.0
 40
0.1
  0
CIRCLE
  8
0
 62
1
 10
2.5
 20
-17.7
 30
0.0
 40
0.1
  0
CIRCLE
  8
0
 62
1
 10
2.5
 20
-16.95
 30
0.0
 40
0.1
  0
CIRCLE
  8
0
 62
1
 10
2.5
 20
-16.15
 30
0.0
 40
0.1
  0
CIRCLE
  8
0
 62
1
 10
2.5
 20
-8.85
 30
0.0
 40
0.1
  0
CIRCLE
  8
0
 62
1
 10
2.5
 20
-15.3
 30
0.0
 40
0.1
  0
CIRCLE
  8
0
 62
1
 10
2.5
 20
-13.45
 30
0.0
 40
0.1
  0
CIRCLE
  8
0
 62
1
 10
2.5
 20
-12.45
 30
0.0
 40
0.1
  0
CIRCLE
  8
0
 62
1
 10
2.5
 20
-11.35
 30
0.0
 40
0.1
  0
CIRCLE
  8
0
 62
1
 10
2.5
 20
-10.15
 30
0.0
 40
0.1
  0
CIRCLE
  8
0
 62
1
 10
2.5
 20
1.05
 30
0.0
 40
0.1
  0
CIRCLE
  8
0
 62
1
 10
2.5
 20
-7.45
 30
0.0
 40
0.1
  0
CIRCLE
  8
0
 62
1
 10
2.5
 20
-5.95
 30
0.0
 40
0.1
  0
CIRCLE
  8
0
 62
1
 10
2.5
 20
-4.35
 30
0.0
 40
0.1
  0
CIRCLE
  8
0
 62
1
 10
2.5
 20
-2.65
 30
0.0
 40
0.1
  0
CIRCLE
  8
0
 62
1
 10
2.5
 20
-0.85
 30
0.0
 40
0.1
  0
CIRCLE
  8
0
 62
1
 10
2.5
 20
-21.15
 30
0.0
 40
0.1
  0
CIRCLE
  8
0
 62
1
 10
2.5
 20
-20.7
 30
0.0
 40
0.1
  0
CIRCLE
  8
0
 62
1
 10
2.5
 20
-21.9
 30
0.0
 40
0.1
  0
CIRCLE
  8
0
 62
1
 10
2.5
 20
-21.55
 30
0.0
 40
0.1
  0
CIRCLE
  8
0
 62
1
 10
2.5
 20
3.05
 30
0.0
 40
0.1
  0
CIRCLE
  8
0
 62
1
 10
2.5
 20
5.1
 30
0.0
 40
0.1
  0
CIRCLE
  8
0
 62
1
 10
2.5
 20
7.2
 30
0.0
 40
0.100101
  0
CIRCLE
  8
0
 62
1
 10
2.5
 20
9.35
 30
0.0
 40
0.1
  0
CIRCLE
  8
0
 62
1
 10
2.5
 20
11.55
 30
0.0
 40
0.1
  0
CIRCLE
  8
0
 62
1
 10
2.5
 20
13.8
 30
0.0
 40
0.1
  0
CIRCLE
  8
0
 62
1
 10
2.5
 20
16.1
 30
0.0
 40
0.1
  0
CIRCLE
  8
0
 62
1
 10
2.5
 20
18.45
 30
0.0
 40
0.1
  0
CIRCLE
  8
0
 62
1
 10
2.5
 20
20.85
 30
0.0
 40
0.1
  0
CIRCLE
  8
0
 62
1
 10
3.0
 20
-14.4
 30
0.0
 40
0.1
  0
CIRCLE
  8
0
 62
1
 10
3.0
 20
-22.2
 30
0.0
 40
0.1
  0
CIRCLE
  8
0
 62
1
 10
3.0
 20
-20.2
 30
0.0
 40
0.1
  0
CIRCLE
  8
0
 62
1
 10
3.0
 20
-19.65
 30
0.0
 40
0.1
  0
CIRCLE
  8
0
 62
1
 10
3.0
 20
-19.05
 30
0.0
 40
0.1
  0
CIRCLE
  8
0
 62
1
 10
3.0
 20
-18.4
 30
0.0
 40
0.1
  0
CIRCLE
  8
0
 62
1
 10
3.0
 20
-17.7
 30
0.0
 40
0.1
  0
CIRCLE
  8
0
 62
1
 10
3.0
 20
-16.95
 30
0.0
 40
0.1
  0
CIRCLE
  8
0
 62
1
 10
3.0
 20
-16.15
 30
0.0
 40
0.1
  0
CIRCLE
  8
0
 62
1
 10
3.0
 20
-8.85
 30
0.0
 40
0.1
  0
CIRCLE
  8
0
 62
1
 10
3.0
 20
-15.3
 30
0.0
 40
0.1
  0
CIRCLE
  8
0
 62
1
 10
3.0
 20
-13.45
 30
0.0
 40
0.1
  0
CIRCLE
  8
0
 62
1
 10
3.0
 20
-12.45
 30
0.0
 40
0.1
  0
CIRCLE
  8
0
 62
1
 10
3.0
 20
-11.35
 30
0.0
 40
0.1
  0
CIRCLE
  8
0
 62
1
 10
3.0
 20
-10.15
 30
0.0
 40
0.1
  0
CIRCLE
  8
0
 62
1
 10
3.0
 20
1.05
 30
0.0
 40
0.1
  0
CIRCLE
  8
0
 62
1
 10
3.0
 20
-7.45
 30
0.0
 40
0.1
  0
CIRCLE
  8
0
 62
1
 10
3.0
 20
-5.95
 30
0.0
 40
0.1
  0
CIRCLE
  8
0
 62
1
 10
3.0
 20
-4.35
 30
0.0
 40
0.1
  0
CIRCLE
  8
0
 62
1
 10
3.0
 20
-2.65
 30
0.0
 40
0.1
  0
CIRCLE
  8
0
 62
1
 10
3.0
 20
-0.85
 30
0.0
 40
0.1
  0
CIRCLE
  8
0
 62
1
 10
3.0
 20
-21.15
 30
0.0
 40
0.1
  0
CIRCLE
  8
0
 62
1
 10
3.0
 20
-20.7
 30
0.0
 40
0.1
  0
CIRCLE
  8
0
 62
1
 10
3.0
 20
-21.9
 30
0.0
 40
0.1
  0
CIRCLE
  8
0
 62
1
 10
3.0
 20
-21.55
 30
0.0
 40
0.1
  0
CIRCLE
  8
0
 62
1
 10
3.0
 20
3.05
 30
0.0
 40
0.1
  0
CIRCLE
  8
0
 62
1
 10
3.0
 20
5.1
 30
0.0
 40
0.1
  0
CIRCLE
  8
0
 62
1
 10
3.0
 20
7.2
 30
0.0
 40
0.100101
  0
CIRCLE
  8
0
 62
1
 10
3.0
 20
9.35
 30
0.0
 40
0.1
  0
CIRCLE
  8
0
 62
1
 10
3.0
 20
11.55
 30
0.0
 40
0.1
  0
CIRCLE
  8
0
 62
1
 10
3.0
 20
13.8
 30
0.0
 40
0.1
  0
CIRCLE
  8
0
 62
1
 10
3.0
 20
16.1
 30
0.0
 40
0.1
  0
CIRCLE
  8
0
 62
1
 10
3.0
 20
18.45
 30
0.0
 40
0.1
  0
CIRCLE
  8
0
 62
1
 10
3.0
 20
20.85
 30
0.0
 40
0.1
  0
CIRCLE
  8
0
 62
1
 10
3.5
 20
-14.4
 30
0.0
 40
0.1
  0
CIRCLE
  8
0
 62
1
 10
3.5
 20
-22.2
 30
0.0
 40
0.1
  0
CIRCLE
  8
0
 62
1
 10
3.5
 20
-20.2
 30
0.0
 40
0.1
  0
CIRCLE
  8
0
 62
1
 10
3.5
 20
-19.65
 30
0.0
 40
0.1
  0
CIRCLE
  8
0
 62
1
 10
3.5
 20
-19.05
 30
0.0
 40
0.1
  0
CIRCLE
  8
0
 62
1
 10
3.5
 20
-18.4
 30
0.0
 40
0.1
  0
CIRCLE
  8
0
 62
1
 10
3.5
 20
-17.7
 30
0.0
 40
0.1
  0
CIRCLE
  8
0
 62
1
 10
3.5
 20
-16.95
 30
0.0
 40
0.1
  0
CIRCLE
  8
0
 62
1
 10
3.5
 20
-16.15
 30
0.0
 40
0.1
  0
CIRCLE
  8
0
 62
1
 10
3.5
 20
-8.85
 30
0.0
 40
0.1
  0
CIRCLE
  8
0
 62
1
 10
3.5
 20
-15.3
 30
0.0
 40
0.1
  0
CIRCLE
  8
0
 62
1
 10
3.5
 20
-13.45
 30
0.0
 40
0.1
  0
CIRCLE
  8
0
 62
1
 10
3.5
 20
-12.45
 30
0.0
 40
0.1
  0
CIRCLE
  8
0
 62
1
 10
3.5
 20
-11.35
 30
0.0
 40
0.1
  0
CIRCLE
  8
0
 62
1
 10
3.5
 20
-10.15
 30
0.0
 40
0.1
  0
CIRCLE
  8
0
 62
1
 10
3.5
 20
1.05
 30
0.0
 40
0.1
  0
CIRCLE
  8
0
 62
1
 10
3.5
 20
-7.45
 30
0.0
 40
0.1
  0
CIRCLE
  8
0
 62
1
 10
3.5
 20
-5.95
 30
0.0
 40
0.1
  0
CIRCLE
  8
0
 62
1
 10
3.5
 20
-4.35
 30
0.0
 40
0.1
  0
CIRCLE
  8
0
 62
1
 10
3.5
 20
-2.65
 30
0.0
 40
0.1
  0
CIRCLE
  8
0
 62
1
 10
3.5
 20
-0.85
 30
0.0
 40
0.1
  0
CIRCLE
  8
0
 62
1
 10
3.5
 20
-21.15
 30
0.0
 40
0.1
  0
CIRCLE
  8
0
 62
1
 10
3.5
 20
-20.7
 30
0.0
 40
0.1
  0
CIRCLE
  8
0
 62
1
 10
3.5
 20
-21.9
 30
0.0
 40
0.1
  0
CIRCLE
  8
0
 62
1
 10
3.5
 20
-21.55
 30
0.0
 40
0.1
  0
CIRCLE
  8
0
 62
1
 10
3.5
 20
3.05
 30
0.0
 40
0.1
  0
CIRCLE
  8
0
 62
1
 10
3.5
 20
5.1
 30
0.0
 40
0.1
  0
CIRCLE
  8
0
 62
1
 10
3.5
 20
7.2
 30
0.0
 40
0.100101
  0
CIRCLE
  8
0
 62
1
 10
3.5
 20
9.35
 30
0.0
 40
0.1
  0
CIRCLE
  8
0
 62
1
 10
3.5
 20
11.55
 30
0.0
 40
0.1
  0
CIRCLE
  8
0
 62
1
 10
3.5
 20
13.8
 30
0.0
 40
0.1
  0
CIRCLE
  8
0
 62
1
 10
3.5
 20
16.1
 30
0.0
 40
0.1
  0
CIRCLE
  8
0
 62
1
 10
3.5
 20
18.45
 30
0.0
 40
0.1
  0
CIRCLE
  8
0
 62
1
 10
3.5
 20
20.85
 30
0.0
 40
0.1
  0
CIRCLE
  8
0
 62
1
 10
4.0
 20
-14.4
 30
0.0
 40
0.1
  0
CIRCLE
  8
0
 62
1
 10
4.0
 20
-22.2
 30
0.0
 40
0.1
  0
CIRCLE
  8
0
 62
1
 10
4.0
 20
-20.2
 30
0.0
 40
0.1
  0
CIRCLE
  8
0
 62
1
 10
4.0
 20
-19.65
 30
0.0
 40
0.1
  0
CIRCLE
  8
0
 62
1
 10
4.0
 20
-19.05
 30
0.0
 40
0.1
  0
CIRCLE
  8
0
 62
1
 10
4.0
 20
-18.4
 30
0.0
 40
0.1
  0
CIRCLE
  8
0
 62
1
 10
4.0
 20
-17.7
 30
0.0
 40
0.1
  0
CIRCLE
  8
0
 62
1
 10
4.0
 20
-16.95
 30
0.0
 40
0.1
  0
CIRCLE
  8
0
 62
1
 10
4.0
 20
-16.15
 30
0.0
 40
0.1
  0
CIRCLE
  8
0
 62
1
 10
4.0
 20
-8.85
 30
0.0
 40
0.1
  0
CIRCLE
  8
0
 62
1
 10
4.0
 20
-15.3
 30
0.0
 40
0.1
  0
CIRCLE
  8
0
 62
1
 10
4.0
 20
-13.45
 30
0.0
 40
0.1
  0
CIRCLE
  8
0
 62
1
 10
4.0
 20
-12.45
 30
0.0
 40
0.1
  0
CIRCLE
  8
0
 62
1
 10
4.0
 20
-11.35
 30
0.0
 40
0.1
  0
CIRCLE
  8
0
 62
1
 10
4.0
 20
-10.15
 30
0.0
 40
0.1
  0
CIRCLE
  8
0
 62
1
 10
4.0
 20
1.05
 30
0.0
 40
0.1
  0
CIRCLE
  8
0
 62
1
 10
4.0
 20
-7.45
 30
0.0
 40
0.1
  0
CIRCLE
  8
0
 62
1
 10
4.0
 20
-5.95
 30
0.0
 40
0.1
  0
CIRCLE
  8
0
 62
1
 10
4.0
 20
-4.35
 30
0.0
 40
0.1
  0
CIRCLE
  8
0
 62
1
 10
4.0
 20
-2.65
 30
0.0
 40
0.1
  0
CIRCLE
  8
0
 62
1
 10
4.0
 20
-0.85
 30
0.0
 40
0.1
  0
CIRCLE
  8
0
 62
1
 10
4.0
 20
-21.15
 30
0.0
 40
0.1
  0
CIRCLE
  8
0
 62
1
 10
4.0
 20
-20.7
 30
0.0
 40
0.1
  0
CIRCLE
  8
0
 62
1
 10
4.0
 20
-21.9
 30
0.0
 40
0.1
  0
CIRCLE
  8
0
 62
1
 10
4.0
 20
-21.55
 30
0.0
 40
0.1
  0
CIRCLE
  8
0
 62
1
 10
4.0
 20
3.05
 30
0.0
 40
0.1
  0
CIRCLE
  8
0
 62
1
 10
4.0
 20
5.1
 30
0.0
 40
0.1
  0
CIRCLE
  8
0
 62
1
 10
4.0
 20
7.2
 30
0.0
 40
0.100101
  0
CIRCLE
  8
0
 62
1
 10
4.0
 20
9.35
 30
0.0
 40
0.1
  0
CIRCLE
  8
0
 62
1
 10
4.0
 20
11.55
 30
0.0
 40
0.1
  0
CIRCLE
  8
0
 62
1
 10
4.0
 20
13.8
 30
0.0
 40
0.1
  0
CIRCLE
  8
0
 62
1
 10
4.0
 20
16.1
 30
0.0
 40
0.1
  0
CIRCLE
  8
0
 62
1
 10
4.0
 20
18.45
 30
0.0
 40
0.1
  0
CIRCLE
  8
0
 62
1
 10
4.0
 20
20.85
 30
0.0
 40
0.1
  0
CIRCLE
  8
0
 62
1
 10
4.5
 20
-14.4
 30
0.0
 40
0.1
  0
CIRCLE
  8
0
 62
1
 10
4.5
 20
-22.2
 30
0.0
 40
0.1
  0
CIRCLE
  8
0
 62
1
 10
4.5
 20
-20.2
 30
0.0
 40
0.1
  0
CIRCLE
  8
0
 62
1
 10
4.5
 20
-19.65
 30
0.0
 40
0.1
  0
CIRCLE
  8
0
 62
1
 10
4.5
 20
-19.05
 30
0.0
 40
0.1
  0
CIRCLE
  8
0
 62
1
 10
4.5
 20
-18.4
 30
0.0
 40
0.1
  0
CIRCLE
  8
0
 62
1
 10
4.5
 20
-17.7
 30
0.0
 40
0.1
  0
CIRCLE
  8
0
 62
1
 10
4.5
 20
-16.95
 30
0.0
 40
0.1
  0
CIRCLE
  8
0
 62
1
 10
4.5
 20
-16.15
 30
0.0
 40
0.1
  0
CIRCLE
  8
0
 62
1
 10
4.5
 20
-8.85
 30
0.0
 40
0.1
  0
CIRCLE
  8
0
 62
1
 10
4.5
 20
-15.3
 30
0.0
 40
0.1
  0
CIRCLE
  8
0
 62
1
 10
4.5
 20
-13.45
 30
0.0
 40
0.1
  0
CIRCLE
  8
0
 62
1
 10
4.5
 20
-12.45
 30
0.0
 40
0.1
  0
CIRCLE
  8
0
 62
1
 10
4.5
 20
-11.35
 30
0.0
 40
0.1
  0
CIRCLE
  8
0
 62
1
 10
4.5
 20
-10.15
 30
0.0
 40
0.1
  0
CIRCLE
  8
0
 62
1
 10
4.5
 20
1.05
 30
0.0
 40
0.1
  0
CIRCLE
  8
0
 62
1
 10
4.5
 20
-7.45
 30
0.0
 40
0.1
  0
CIRCLE
  8
0
 62
1
 10
4.5
 20
-5.95
 30
0.0
 40
0.1
  0
CIRCLE
  8
0
 62
1
 10
4.5
 20
-4.35
 30
0.0
 40
0.1
  0
CIRCLE
  8
0
 62
1
 10
4.5
 20
-2.65
 30
0.0
 40
0.1
  0
CIRCLE
  8
0
 62
1
 10
4.5
 20
-0.85
 30
0.0
 40
0.1
  0
CIRCLE
  8
0
 62
1
 10
4.5
 20
-21.15
 30
0.0
 40
0.1
  0
CIRCLE
  8
0
 62
1
 10
4.5
 20
-20.7
 30
0.0
 40
0.1
  0
CIRCLE
  8
0
 62
1
 10
4.5
 20
-21.9
 30
0.0
 40
0.1
  0
CIRCLE
  8
0
 62
1
 10
4.5
 20
-21.55
 30
0.0
 40
0.1
  0
CIRCLE
  8
0
 62
1
 10
4.5
 20
3.05
 30
0.0
 40
0.1
  0
CIRCLE
  8
0
 62
1
 10
4.5
 20
5.1
 30
0.0
 40
0.1
  0
CIRCLE
  8
0
 62
1
 10
4.5
 20
7.2
 30
0.0
 40
0.100101
  0
CIRCLE
  8
0
 62
1
 10
4.5
 20
9.35
 30
0.0
 40
0.1
  0
CIRCLE
  8
0
 62
1
 10
4.5
 20
11.55
 30
0.0
 40
0.1
  0
CIRCLE
  8
0
 62
1
 10
4.5
 20
13.8
 30
0.0
 40
0.1
  0
CIRCLE
  8
0
 62
1
 10
4.5
 20
16.1
 30
0.0
 40
0.1
  0
CIRCLE
  8
0
 62
1
 10
4.5
 20
18.45
 30
0.0
 40
0.1
  0
CIRCLE
  8
0
 62
1
 10
4.5
 20
20.85
 30
0.0
 40
0.1
  0
CIRCLE
  8
0
 62
1
 10
5.0
 20
-14.4
 30
0.0
 40
0.1
  0
CIRCLE
  8
0
 62
1
 10
5.0
 20
-22.2
 30
0.0
 40
0.1
  0
CIRCLE
  8
0
 62
1
 10
5.0
 20
-20.2
 30
0.0
 40
0.1
  0
CIRCLE
  8
0
 62
1
 10
5.0
 20
-19.65
 30
0.0
 40
0.1
  0
CIRCLE
  8
0
 62
1
 10
5.0
 20
-19.05
 30
0.0
 40
0.1
  0
CIRCLE
  8
0
 62
1
 10
5.0
 20
-18.4
 30
0.0
 40
0.1
  0
CIRCLE
  8
0
 62
1
 10
5.0
 20
-17.7
 30
0.0
 40
0.1
  0
CIRCLE
  8
0
 62
1
 10
5.0
 20
-16.95
 30
0.0
 40
0.1
  0
CIRCLE
  8
0
 62
1
 10
5.0
 20
-16.15
 30
0.0
 40
0.1
  0
CIRCLE
  8
0
 62
1
 10
5.0
 20
-8.85
 30
0.0
 40
0.1
  0
CIRCLE
  8
0
 62
1
 10
5.0
 20
-15.3
 30
0.0
 40
0.1
  0
CIRCLE
  8
0
 62
1
 10
5.0
 20
-13.45
 30
0.0
 40
0.1
  0
CIRCLE
  8
0
 62
1
 10
5.0
 20
-12.45
 30
0.0
 40
0.1
  0
CIRCLE
  8
0
 62
1
 10
5.0
 20
-11.35
 30
0.0
 40
0.1
  0
CIRCLE
  8
0
 62
1
 10
5.0
 20
-10.15
 30
0.0
 40
0.1
  0
CIRCLE
  8
0
 62
1
 10
5.0
 20
1.05
 30
0.0
 40
0.1
  0
CIRCLE
  8
0
 62
1
 10
5.0
 20
-7.45
 30
0.0
 40
0.1
  0
CIRCLE
  8
0
 62
1
 10
5.0
 20
-5.95
 30
0.0
 40
0.1
  0
CIRCLE
  8
0
 62
1
 10
5.0
 20
-4.35
 30
0.0
 40
0.1
  0
CIRCLE
  8
0
 62
1
 10
5.0
 20
-2.65
 30
0.0
 40
0.1
  0
CIRCLE
  8
0
 62
1
 10
5.0
 20
-0.85
 30
0.0
 40
0.1
  0
CIRCLE
  8
0
 62
1
 10
5.0
 20
-21.15
 30
0.0
 40
0.1
  0
CIRCLE
  8
0
 62
1
 10
5.0
 20
-20.7
 30
0.0
 40
0.1
  0
CIRCLE
  8
0
 62
1
 10
5.0
 20
-21.9
 30
0.0
 40
0.1
  0
CIRCLE
  8
0
 62
1
 10
5.0
 20
-21.55
 30
0.0
 40
0.1
  0
CIRCLE
  8
0
 62
1
 10
5.0
 20
3.05
 30
0.0
 40
0.1
  0
CIRCLE
  8
0
 62
1
 10
5.0
 20
5.1
 30
0.0
 40
0.1
  0
CIRCLE
  8
0
 62
1
 10
5.0
 20
7.2
 30
0.0
 40
0.100101
  0
CIRCLE
  8
0
 62
1
 10
5.0
 20
9.35
 30
0.0
 40
0.1
  0
CIRCLE
  8
0
 62
1
 10
5.0
 20
11.55
 30
0.0
 40
0.1
  0
CIRCLE
  8
0
 62
1
 10
5.0
 20
13.8
 30
0.0
 40
0.1
  0
CIRCLE
  8
0
 62
1
 10
5.0
 20
16.1
 30
0.0
 40
0.1
  0
CIRCLE
  8
0
 62
1
 10
5.0
 20
18.45
 30
0.0
 40
0.1
  0
CIRCLE
  8
0
 62
1
 10
5.0
 20
20.85
 30
0.0
 40
0.1
  0
CIRCLE
  8
0
 62
1
 10
5.5
 20
-14.4
 30
0.0
 40
0.1
  0
CIRCLE
  8
0
 62
1
 10
5.5
 20
-22.2
 30
0.0
 40
0.1
  0
CIRCLE
  8
0
 62
1
 10
5.5
 20
-20.2
 30
0.0
 40
0.1
  0
CIRCLE
  8
0
 62
1
 10
5.5
 20
-19.65
 30
0.0
 40
0.1
  0
CIRCLE
  8
0
 62
1
 10
5.5
 20
-19.05
 30
0.0
 40
0.1
  0
CIRCLE
  8
0
 62
1
 10
5.5
 20
-18.4
 30
0.0
 40
0.1
  0
CIRCLE
  8
0
 62
1
 10
5.5
 20
-17.7
 30
0.0
 40
0.1
  0
CIRCLE
  8
0
 62
1
 10
5.5
 20
-16.95
 30
0.0
 40
0.1
  0
CIRCLE
  8
0
 62
1
 10
5.5
 20
-16.15
 30
0.0
 40
0.1
  0
CIRCLE
  8
0
 62
1
 10
5.5
 20
-8.85
 30
0.0
 40
0.1
  0
CIRCLE
  8
0
 62
1
 10
5.5
 20
-15.3
 30
0.0
 40
0.1
  0
CIRCLE
  8
0
 62
1
 10
5.5
 20
-13.45
 30
0.0
 40
0.1
  0
CIRCLE
  8
0
 62
1
 10
5.5
 20
-12.45
 30
0.0
 40
0.1
  0
CIRCLE
  8
0
 62
1
 10
5.5
 20
-11.35
 30
0.0
 40
0.1
  0
CIRCLE
  8
0
 62
1
 10
5.5
 20
-10.15
 30
0.0
 40
0.1
  0
CIRCLE
  8
0
 62
1
 10
5.5
 20
1.05
 30
0.0
 40
0.1
  0
CIRCLE
  8
0
 62
1
 10
5.5
 20
-7.45
 30
0.0
 40
0.1
  0
CIRCLE
  8
0
 62
1
 10
5.5
 20
-5.95
 30
0.0
 40
0.1
  0
CIRCLE
  8
0
 62
1
 10
5.5
 20
-4.35
 30
0.0
 40
0.1
  0
CIRCLE
  8
0
 62
1
 10
5.5
 20
-2.65
 30
0.0
 40
0.1
  0
CIRCLE
  8
0
 62
1
 10
5.5
 20
-0.85
 30
0.0
 40
0.1
  0
CIRCLE
  8
0
 62
1
 10
5.5
 20
-21.15
 30
0.0
 40
0.1
  0
CIRCLE
  8
0
 62
1
 10
5.5
 20
-20.7
 30
0.0
 40
0.1
  0
CIRCLE
  8
0
 62
1
 10
5.5
 20
-21.9
 30
0.0
 40
0.1
  0
CIRCLE
  8
0
 62
1
 10
5.5
 20
-21.55
 30
0.0
 40
0.1
  0
CIRCLE
  8
0
 62
1
 10
5.5
 20
3.05
 30
0.0
 40
0.1
  0
CIRCLE
  8
0
 62
1
 10
5.5
 20
5.1
 30
0.0
 40
0.1
  0
CIRCLE
  8
0
 62
1
 10
5.5
 20
7.2
 30
0.0
 40
0.100101
  0
CIRCLE
  8
0
 62
1
 10
5.5
 20
9.35
 30
0.0
 40
0.1
  0
CIRCLE
  8
0
 62
1
 10
5.5
 20
11.55
 30
0.0
 40
0.1
  0
CIRCLE
  8
0
 62
1
 10
5.5
 20
13.8
 30
0.0
 40
0.1
  0
CIRCLE
  8
0
 62
1
 10
5.5
 20
16.1
 30
0.0
 40
0.1
  0
CIRCLE
  8
0
 62
1
 10
5.5
 20
18.45
 30
0.0
 40
0.1
  0
CIRCLE
  8
0
 62
1
 10
5.5
 20
20.85
 30
0.0
 40
0.1
  0
CIRCLE
  8
0
 62
1
 10
6.0
 20
-14.4
 30
0.0
 40
0.1
  0
CIRCLE
  8
0
 62
1
 10
6.0
 20
-22.2
 30
0.0
 40
0.1
  0
CIRCLE
  8
0
 62
1
 10
6.0
 20
-20.2
 30
0.0
 40
0.1
  0
CIRCLE
  8
0
 62
1
 10
6.0
 20
-19.65
 30
0.0
 40
0.1
  0
CIRCLE
  8
0
 62
1
 10
6.0
 20
-19.05
 30
0.0
 40
0.1
  0
CIRCLE
  8
0
 62
1
 10
6.0
 20
-18.4
 30
0.0
 40
0.1
  0
CIRCLE
  8
0
 62
1
 10
6.0
 20
-17.7
 30
0.0
 40
0.1
  0
CIRCLE
  8
0
 62
1
 10
6.0
 20
-16.95
 30
0.0
 40
0.1
  0
CIRCLE
  8
0
 62
1
 10
6.0
 20
-16.15
 30
0.0
 40
0.1
  0
CIRCLE
  8
0
 62
1
 10
6.0
 20
-8.85
 30
0.0
 40
0.1
  0
CIRCLE
  8
0
 62
1
 10
6.0
 20
-15.3
 30
0.0
 40
0.1
  0
CIRCLE
  8
0
 62
1
 10
6.0
 20
-13.45
 30
0.0
 40
0.1
  0
CIRCLE
  8
0
 62
1
 10
6.0
 20
-12.45
 30
0.0
 40
0.1
  0
CIRCLE
  8
0
 62
1
 10
6.0
 20
-11.35
 30
0.0
 40
0.1
  0
CIRCLE
  8
0
 62
1
 10
6.0
 20
-10.15
 30
0.0
 40
0.1
  0
CIRCLE
  8
0
 62
1
 10
6.0
 20
1.05
 30
0.0
 40
0.1
  0
CIRCLE
  8
0
 62
1
 10
6.0
 20
-7.45
 30
0.0
 40
0.1
  0
CIRCLE
  8
0
 62
1
 10
6.0
 20
-5.95
 30
0.0
 40
0.1
  0
CIRCLE
  8
0
 62
1
 10
6.0
 20
-4.35
 30
0.0
 40
0.1
  0
CIRCLE
  8
0
 62
1
 10
6.0
 20
-2.65
 30
0.0
 40
0.1
  0
CIRCLE
  8
0
 62
1
 10
6.0
 20
-0.85
 30
0.0
 40
0.1
  0
CIRCLE
  8
0
 62
1
 10
6.0
 20
-21.15
 30
0.0
 40
0.1
  0
CIRCLE
  8
0
 62
1
 10
6.0
 20
-20.7
 30
0.0
 40
0.1
  0
CIRCLE
  8
0
 62
1
 10
6.0
 20
-21.9
 30
0.0
 40
0.1
  0
CIRCLE
  8
0
 62
1
 10
6.0
 20
-21.55
 30
0.0
 40
0.1
  0
CIRCLE
  8
0
 62
1
 10
6.0
 20
3.05
 30
0.0
 40
0.1
  0
CIRCLE
  8
0
 62
1
 10
6.0
 20
5.1
 30
0.0
 40
0.1
  0
CIRCLE
  8
0
 62
1
 10
6.0
 20
7.2
 30
0.0
 40
0.100101
  0
CIRCLE
  8
0
 62
1
 10
6.0
 20
9.35
 30
0.0
 40
0.1
  0
CIRCLE
  8
0
 62
1
 10
6.0
 20
11.55
 30
0.0
 40
0.1
  0
CIRCLE
  8
0
 62
1
 10
6.0
 20
13.8
 30
0.0
 40
0.1
  0
CIRCLE
  8
0
 62
1
 10
6.0
 20
16.1
 30
0.0
 40
0.1
  0
CIRCLE
  8
0
 62
1
 10
6.0
 20
18.45
 30
0.0
 40
0.1
  0
CIRCLE
  8
0
 62
1
 10
6.0
 20
20.85
 30
0.0
 40
0.1
  0
CIRCLE
  8
0
 62
1
 10
6.5
 20
-14.4
 30
0.0
 40
0.1
  0
CIRCLE
  8
0
 62
1
 10
6.5
 20
-22.2
 30
0.0
 40
0.1
  0
CIRCLE
  8
0
 62
1
 10
6.5
 20
-20.2
 30
0.0
 40
0.1
  0
CIRCLE
  8
0
 62
1
 10
6.5
 20
-19.65
 30
0.0
 40
0.1
  0
CIRCLE
  8
0
 62
1
 10
6.5
 20
-19.05
 30
0.0
 40
0.1
  0
CIRCLE
  8
0
 62
1
 10
6.5
 20
-18.4
 30
0.0
 40
0.1
  0
CIRCLE
  8
0
 62
1
 10
6.5
 20
-17.7
 30
0.0
 40
0.1
  0
CIRCLE
  8
0
 62
1
 10
6.5
 20
-16.95
 30
0.0
 40
0.1
  0
CIRCLE
  8
0
 62
1
 10
6.5
 20
-16.15
 30
0.0
 40
0.1
  0
CIRCLE
  8
0
 62
1
 10
6.5
 20
-8.85
 30
0.0
 40
0.1
  0
CIRCLE
  8
0
 62
1
 10
6.5
 20
-15.3
 30
0.0
 40
0.1
  0
CIRCLE
  8
0
 62
1
 10
6.5
 20
-13.45
 30
0.0
 40
0.1
  0
CIRCLE
  8
0
 62
1
 10
6.5
 20
-12.45
 30
0.0
 40
0.1
  0
CIRCLE
  8
0
 62
1
 10
6.5
 20
-11.35
 30
0.0
 40
0.1
  0
CIRCLE
  8
0
 62
1
 10
6.5
 20
-10.15
 30
0.0
 40
0.1
  0
CIRCLE
  8
0
 62
1
 10
6.5
 20
1.05
 30
0.0
 40
0.1
  0
CIRCLE
  8
0
 62
1
 10
6.5
 20
-7.45
 30
0.0
 40
0.1
  0
CIRCLE
  8
0
 62
1
 10
6.5
 20
-5.95
 30
0.0
 40
0.1
  0
CIRCLE
  8
0
 62
1
 10
6.5
 20
-4.35
 30
0.0
 40
0.1
  0
CIRCLE
  8
0
 62
1
 10
6.5
 20
-2.65
 30
0.0
 40
0.1
  0
CIRCLE
  8
0
 62
1
 10
6.5
 20
-0.85
 30
0.0
 40
0.1
  0
CIRCLE
  8
0
 62
1
 10
6.5
 20
-21.15
 30
0.0
 40
0.1
  0
CIRCLE
  8
0
 62
1
 10
6.5
 20
-20.7
 30
0.0
 40
0.1
  0
CIRCLE
  8
0
 62
1
 10
6.5
 20
-21.9
 30
0.0
 40
0.1
  0
CIRCLE
  8
0
 62
1
 10
6.5
 20
-21.55
 30
0.0
 40
0.1
  0
CIRCLE
  8
0
 62
1
 10
6.5
 20
3.05
 30
0.0
 40
0.1
  0
CIRCLE
  8
0
 62
1
 10
6.5
 20
5.1
 30
0.0
 40
0.1
  0
CIRCLE
  8
0
 62
1
 10
6.5
 20
7.2
 30
0.0
 40
0.100101
  0
CIRCLE
  8
0
 62
1
 10
6.5
 20
9.35
 30
0.0
 40
0.1
  0
CIRCLE
  8
0
 62
1
 10
6.5
 20
11.55
 30
0.0
 40
0.1
  0
CIRCLE
  8
0
 62
1
 10
6.5
 20
13.8
 30
0.0
 40
0.1
  0
CIRCLE
  8
0
 62
1
 10
6.5
 20
16.1
 30
0.0
 40
0.1
  0
CIRCLE
  8
0
 62
1
 10
6.5
 20
18.45
 30
0.0
 40
0.1
  0
CIRCLE
  8
0
 62
1
 10
6.5
 20
20.85
 30
0.0
 40
0.1
  0
CIRCLE
  8
0
 62
1
 10
7.0
 20
-14.4
 30
0.0
 40
0.1
  0
CIRCLE
  8
0
 62
1
 10
7.0
 20
-22.2
 30
0.0
 40
0.1
  0
CIRCLE
  8
0
 62
1
 10
7.0
 20
-20.2
 30
0.0
 40
0.1
  0
CIRCLE
  8
0
 62
1
 10
7.0
 20
-19.65
 30
0.0
 40
0.1
  0
CIRCLE
  8
0
 62
1
 10
7.0
 20
-19.05
 30
0.0
 40
0.1
  0
CIRCLE
  8
0
 62
1
 10
7.0
 20
-18.4
 30
0.0
 40
0.1
  0
CIRCLE
  8
0
 62
1
 10
7.0
 20
-17.7
 30
0.0
 40
0.1
  0
CIRCLE
  8
0
 62
1
 10
7.0
 20
-16.95
 30
0.0
 40
0.1
  0
CIRCLE
  8
0
 62
1
 10
7.0
 20
-16.15
 30
0.0
 40
0.1
  0
CIRCLE
  8
0
 62
1
 10
7.0
 20
-8.85
 30
0.0
 40
0.1
  0
CIRCLE
  8
0
 62
1
 10
7.0
 20
-15.3
 30
0.0
 40
0.1
  0
CIRCLE
  8
0
 62
1
 10
7.0
 20
-13.45
 30
0.0
 40
0.1
  0
CIRCLE
  8
0
 62
1
 10
7.0
 20
-12.45
 30
0.0
 40
0.1
  0
CIRCLE
  8
0
 62
1
 10
7.0
 20
-11.35
 30
0.0
 40
0.1
  0
CIRCLE
  8
0
 62
1
 10
7.0
 20
-10.15
 30
0.0
 40
0.1
  0
CIRCLE
  8
0
 62
1
 10
7.0
 20
1.05
 30
0.0
 40
0.1
  0
CIRCLE
  8
0
 62
1
 10
7.0
 20
-7.45
 30
0.0
 40
0.1
  0
CIRCLE
  8
0
 62
1
 10
7.0
 20
-5.95
 30
0.0
 40
0.1
  0
CIRCLE
  8
0
 62
1
 10
7.0
 20
-4.35
 30
0.0
 40
0.1
  0
CIRCLE
  8
0
 62
1
 10
7.0
 20
-2.65
 30
0.0
 40
0.1
  0
CIRCLE
  8
0
 62
1
 10
7.0
 20
-0.85
 30
0.0
 40
0.1
  0
CIRCLE
  8
0
 62
1
 10
7.0
 20
-21.15
 30
0.0
 40
0.1
  0
CIRCLE
  8
0
 62
1
 10
7.0
 20
-20.7
 30
0.0
 40
0.1
  0
CIRCLE
  8
0
 62
1
 10
7.0
 20
-21.9
 30
0.0
 40
0.1
  0
CIRCLE
  8
0
 62
1
 10
7.0
 20
-21.55
 30
0.0
 40
0.1
  0
CIRCLE
  8
0
 62
1
 10
7.0
 20
3.05
 30
0.0
 40
0.1
  0
CIRCLE
  8
0
 62
1
 10
7.0
 20
5.1
 30
0.0
 40
0.1
  0
CIRCLE
  8
0
 62
1
 10
7.0
 20
7.2
 30
0.0
 40
0.100101
  0
CIRCLE
  8
0
 62
1
 10
7.0
 20
9.35
 30
0.0
 40
0.1
  0
CIRCLE
  8
0
 62
1
 10
7.0
 20
11.55
 30
0.0
 40
0.1
  0
CIRCLE
  8
0
 62
1
 10
7.0
 20
13.8
 30
0.0
 40
0.1
  0
CIRCLE
  8
0
 62
1
 10
7.0
 20
16.1
 30
0.0
 40
0.1
  0
CIRCLE
  8
0
 62
1
 10
7.0
 20
18.45
 30
0.0
 40
0.1
  0
CIRCLE
  8
0
 62
1
 10
7.0
 20
20.85
 30
0.0
 40
0.1
  0
CIRCLE
  8
0
 62
1
 10
7.5
 20
-14.4
 30
0.0
 40
0.1
  0
CIRCLE
  8
0
 62
1
 10
7.5
 20
-22.2
 30
0.0
 40
0.1
  0
CIRCLE
  8
0
 62
1
 10
7.5
 20
-20.2
 30
0.0
 40
0.1
  0
CIRCLE
  8
0
 62
1
 10
7.5
 20
-19.65
 30
0.0
 40
0.1
  0
CIRCLE
  8
0
 62
1
 10
7.5
 20
-19.05
 30
0.0
 40
0.1
  0
CIRCLE
  8
0
 62
1
 10
7.5
 20
-18.4
 30
0.0
 40
0.1
  0
CIRCLE
  8
0
 62
1
 10
7.5
 20
-17.7
 30
0.0
 40
0.1
  0
CIRCLE
  8
0
 62
1
 10
7.5
 20
-16.95
 30
0.0
 40
0.1
  0
CIRCLE
  8
0
 62
1
 10
7.5
 20
-16.15
 30
0.0
 40
0.1
  0
CIRCLE
  8
0
 62
1
 10
7.5
 20
-8.85
 30
0.0
 40
0.1
  0
CIRCLE
  8
0
 62
1
 10
7.5
 20
-15.3
 30
0.0
 40
0.1
  0
CIRCLE
  8
0
 62
1
 10
7.5
 20
-13.45
 30
0.0
 40
0.1
  0
CIRCLE
  8
0
 62
1
 10
7.5
 20
-12.45
 30
0.0
 40
0.1
  0
CIRCLE
  8
0
 62
1
 10
7.5
 20
-11.35
 30
0.0
 40
0.1
  0
CIRCLE
  8
0
 62
1
 10
7.5
 20
-10.15
 30
0.0
 40
0.1
  0
CIRCLE
  8
0
 62
1
 10
7.5
 20
1.05
 30
0.0
 40
0.1
  0
CIRCLE
  8
0
 62
1
 10
7.5
 20
-7.45
 30
0.0
 40
0.1
  0
CIRCLE
  8
0
 62
1
 10
7.5
 20
-5.95
 30
0.0
 40
0.1
  0
CIRCLE
  8
0
 62
1
 10
7.5
 20
-4.35
 30
0.0
 40
0.1
  0
CIRCLE
  8
0
 62
1
 10
7.5
 20
-2.65
 30
0.0
 40
0.1
  0
CIRCLE
  8
0
 62
1
 10
7.5
 20
-0.85
 30
0.0
 40
0.1
  0
CIRCLE
  8
0
 62
1
 10
7.5
 20
-21.15
 30
0.0
 40
0.1
  0
CIRCLE
  8
0
 62
1
 10
7.5
 20
-20.7
 30
0.0
 40
0.1
  0
CIRCLE
  8
0
 62
1
 10
7.5
 20
-21.9
 30
0.0
 40
0.1
  0
CIRCLE
  8
0
 62
1
 10
7.5
 20
-21.55
 30
0.0
 40
0.1
  0
CIRCLE
  8
0
 62
1
 10
7.5
 20
3.05
 30
0.0
 40
0.1
  0
CIRCLE
  8
0
 62
1
 10
7.5
 20
5.1
 30
0.0
 40
0.1
  0
CIRCLE
  8
0
 62
1
 10
7.5
 20
7.2
 30
0.0
 40
0.100101
  0
CIRCLE
  8
0
 62
1
 10
7.5
 20
9.35
 30
0.0
 40
0.1
  0
CIRCLE
  8
0
 62
1
 10
7.5
 20
11.55
 30
0.0
 40
0.1
  0
CIRCLE
  8
0
 62
1
 10
7.5
 20
13.8
 30
0.0
 40
0.1
  0
CIRCLE
  8
0
 62
1
 10
7.5
 20
16.1
 30
0.0
 40
0.1
  0
CIRCLE
  8
0
 62
1
 10
7.5
 20
18.45
 30
0.0
 40
0.1
  0
CIRCLE
  8
0
 62
1
 10
7.5
 20
20.85
 30
0.0
 40
0.1
  0
CIRCLE
  8
0
 62
1
 10
8.0
 20
-14.4
 30
0.0
 40
0.1
  0
CIRCLE
  8
0
 62
1
 10
8.0
 20
-22.2
 30
0.0
 40
0.1
  0
CIRCLE
  8
0
 62
1
 10
8.0
 20
-20.2
 30
0.0
 40
0.1
  0
CIRCLE
  8
0
 62
1
 10
8.0
 20
-19.65
 30
0.0
 40
0.1
  0
CIRCLE
  8
0
 62
1
 10
8.0
 20
-19.05
 30
0.0
 40
0.1
  0
CIRCLE
  8
0
 62
1
 10
8.0
 20
-18.4
 30
0.0
 40
0.1
  0
CIRCLE
  8
0
 62
1
 10
8.0
 20
-17.7
 30
0.0
 40
0.1
  0
CIRCLE
  8
0
 62
1
 10
8.0
 20
-16.95
 30
0.0
 40
0.1
  0
CIRCLE
  8
0
 62
1
 10
8.0
 20
-16.15
 30
0.0
 40
0.1
  0
CIRCLE
  8
0
 62
1
 10
8.0
 20
-8.85
 30
0.0
 40
0.1
  0
CIRCLE
  8
0
 62
1
 10
8.0
 20
-15.3
 30
0.0
 40
0.1
  0
CIRCLE
  8
0
 62
1
 10
8.0
 20
-13.45
 30
0.0
 40
0.1
  0
CIRCLE
  8
0
 62
1
 10
8.0
 20
-12.45
 30
0.0
 40
0.1
  0
CIRCLE
  8
0
 62
1
 10
8.0
 20
-11.35
 30
0.0
 40
0.1
  0
CIRCLE
  8
0
 62
1
 10
8.0
 20
-10.15
 30
0.0
 40
0.1
  0
CIRCLE
  8
0
 62
1
 10
8.0
 20
1.05
 30
0.0
 40
0.1
  0
CIRCLE
  8
0
 62
1
 10
8.0
 20
-7.45
 30
0.0
 40
0.1
  0
CIRCLE
  8
0
 62
1
 10
8.0
 20
-5.95
 30
0.0
 40
0.1
  0
CIRCLE
  8
0
 62
1
 10
8.0
 20
-4.35
 30
0.0
 40
0.1
  0
CIRCLE
  8
0
 62
1
 10
8.0
 20
-2.65
 30
0.0
 40
0.1
  0
CIRCLE
  8
0
 62
1
 10
8.0
 20
-0.85
 30
0.0
 40
0.1
  0
CIRCLE
  8
0
 62
1
 10
8.0
 20
-21.15
 30
0.0
 40
0.1
  0
CIRCLE
  8
0
 62
1
 10
8.0
 20
-20.7
 30
0.0
 40
0.1
  0
CIRCLE
  8
0
 62
1
 10
8.0
 20
-21.9
 30
0.0
 40
0.1
  0
CIRCLE
  8
0
 62
1
 10
8.0
 20
-21.55
 30
0.0
 40
0.1
  0
CIRCLE
  8
0
 62
1
 10
8.0
 20
3.05
 30
0.0
 40
0.1
  0
CIRCLE
  8
0
 62
1
 10
8.0
 20
5.1
 30
0.0
 40
0.1
  0
CIRCLE
  8
0
 62
1
 10
8.0
 20
7.2
 30
0.0
 40
0.100101
  0
CIRCLE
  8
0
 62
1
 10
8.0
 20
9.35
 30
0.0
 40
0.1
  0
CIRCLE
  8
0
 62
1
 10
8.0
 20
11.55
 30
0.0
 40
0.1
  0
CIRCLE
  8
0
 62
1
 10
8.0
 20
13.8
 30
0.0
 40
0.1
  0
CIRCLE
  8
0
 62
1
 10
8.0
 20
16.1
 30
0.0
 40
0.1
  0
CIRCLE
  8
0
 62
1
 10
8.0
 20
18.45
 30
0.0
 40
0.1
  0
CIRCLE
  8
0
 62
1
 10
8.0
 20
20.85
 30
0.0
 40
0.1
  0
CIRCLE
  8
0
 62
1
 10
8.5
 20
-14.4
 30
0.0
 40
0.1
  0
CIRCLE
  8
0
 62
1
 10
8.5
 20
-22.2
 30
0.0
 40
0.1
  0
CIRCLE
  8
0
 62
1
 10
8.5
 20
-20.2
 30
0.0
 40
0.1
  0
CIRCLE
  8
0
 62
1
 10
8.5
 20
-19.65
 30
0.0
 40
0.1
  0
CIRCLE
  8
0
 62
1
 10
8.5
 20
-19.05
 30
0.0
 40
0.1
  0
CIRCLE
  8
0
 62
1
 10
8.5
 20
-18.4
 30
0.0
 40
0.1
  0
CIRCLE
  8
0
 62
1
 10
8.5
 20
-17.7
 30
0.0
 40
0.1
  0
CIRCLE
  8
0
 62
1
 10
8.5
 20
-16.95
 30
0.0
 40
0.1
  0
CIRCLE
  8
0
 62
1
 10
8.5
 20
-16.15
 30
0.0
 40
0.1
  0
CIRCLE
  8
0
 62
1
 10
8.5
 20
-8.85
 30
0.0
 40
0.1
  0
CIRCLE
  8
0
 62
1
 10
8.5
 20
-15.3
 30
0.0
 40
0.1
  0
CIRCLE
  8
0
 62
1
 10
8.5
 20
-13.45
 30
0.0
 40
0.1
  0
CIRCLE
  8
0
 62
1
 10
8.5
 20
-12.45
 30
0.0
 40
0.1
  0
CIRCLE
  8
0
 62
1
 10
8.5
 20
-11.35
 30
0.0
 40
0.1
  0
CIRCLE
  8
0
 62
1
 10
8.5
 20
-10.15
 30
0.0
 40
0.1
  0
CIRCLE
  8
0
 62
1
 10
8.5
 20
1.05
 30
0.0
 40
0.1
  0
CIRCLE
  8
0
 62
1
 10
8.5
 20
-7.45
 30
0.0
 40
0.1
  0
CIRCLE
  8
0
 62
1
 10
8.5
 20
-5.95
 30
0.0
 40
0.1
  0
CIRCLE
  8
0
 62
1
 10
8.5
 20
-4.35
 30
0.0
 40
0.1
  0
CIRCLE
  8
0
 62
1
 10
8.5
 20
-2.65
 30
0.0
 40
0.1
  0
CIRCLE
  8
0
 62
1
 10
8.5
 20
-0.85
 30
0.0
 40
0.1
  0
CIRCLE
  8
0
 62
1
 10
8.5
 20
-21.15
 30
0.0
 40
0.1
  0
CIRCLE
  8
0
 62
1
 10
8.5
 20
-20.7
 30
0.0
 40
0.1
  0
CIRCLE
  8
0
 62
1
 10
8.5
 20
-21.9
 30
0.0
 40
0.1
  0
CIRCLE
  8
0
 62
1
 10
8.5
 20
-21.55
 30
0.0
 40
0.1
  0
CIRCLE
  8
0
 62
1
 10
8.5
 20
3.05
 30
0.0
 40
0.1
  0
CIRCLE
  8
0
 62
1
 10
8.5
 20
5.1
 30
0.0
 40
0.1
  0
CIRCLE
  8
0
 62
1
 10
8.5
 20
7.2
 30
0.0
 40
0.100101
  0
CIRCLE
  8
0
 62
1
 10
8.5
 20
9.35
 30
0.0
 40
0.1
  0
CIRCLE
  8
0
 62
1
 10
8.5
 20
11.55
 30
0.0
 40
0.1
  0
CIRCLE
  8
0
 62
1
 10
8.5
 20
13.8
 30
0.0
 40
0.1
  0
CIRCLE
  8
0
 62
1
 10
8.5
 20
16.1
 30
0.0
 40
0.1
  0
CIRCLE
  8
0
 62
1
 10
8.5
 20
18.45
 30
0.0
 40
0.1
  0
CIRCLE
  8
0
 62
1
 10
8.5
 20
20.85
 30
0.0
 40
0.1
  0
CIRCLE
  8
0
 62
1
 10
9.0
 20
-14.4
 30
0.0
 40
0.1
  0
CIRCLE
  8
0
 62
1
 10
9.0
 20
-22.2
 30
0.0
 40
0.1
  0
CIRCLE
  8
0
 62
1
 10
9.0
 20
-20.2
 30
0.0
 40
0.1
  0
CIRCLE
  8
0
 62
1
 10
9.0
 20
-19.65
 30
0.0
 40
0.1
  0
CIRCLE
  8
0
 62
1
 10
9.0
 20
-19.05
 30
0.0
 40
0.1
  0
CIRCLE
  8
0
 62
1
 10
9.0
 20
-18.4
 30
0.0
 40
0.1
  0
CIRCLE
  8
0
 62
1
 10
9.0
 20
-17.7
 30
0.0
 40
0.1
  0
CIRCLE
  8
0
 62
1
 10
9.0
 20
-16.95
 30
0.0
 40
0.1
  0
CIRCLE
  8
0
 62
1
 10
9.0
 20
-16.15
 30
0.0
 40
0.1
  0
CIRCLE
  8
0
 62
1
 10
9.0
 20
-8.85
 30
0.0
 40
0.1
  0
CIRCLE
  8
0
 62
1
 10
9.0
 20
-15.3
 30
0.0
 40
0.1
  0
CIRCLE
  8
0
 62
1
 10
9.0
 20
-13.45
 30
0.0
 40
0.1
  0
CIRCLE
  8
0
 62
1
 10
9.0
 20
-12.45
 30
0.0
 40
0.1
  0
CIRCLE
  8
0
 62
1
 10
9.0
 20
-11.35
 30
0.0
 40
0.1
  0
CIRCLE
  8
0
 62
1
 10
9.0
 20
-10.15
 30
0.0
 40
0.1
  0
CIRCLE
  8
0
 62
1
 10
9.0
 20
1.05
 30
0.0
 40
0.1
  0
CIRCLE
  8
0
 62
1
 10
9.0
 20
-7.45
 30
0.0
 40
0.1
  0
CIRCLE
  8
0
 62
1
 10
9.0
 20
-5.95
 30
0.0
 40
0.1
  0
CIRCLE
  8
0
 62
1
 10
9.0
 20
-4.35
 30
0.0
 40
0.1
  0
CIRCLE
  8
0
 62
1
 10
9.0
 20
-2.65
 30
0.0
 40
0.1
  0
CIRCLE
  8
0
 62
1
 10
9.0
 20
-0.85
 30
0.0
 40
0.1
  0
CIRCLE
  8
0
 62
1
 10
9.0
 20
-21.15
 30
0.0
 40
0.1
  0
CIRCLE
  8
0
 62
1
 10
9.0
 20
-20.7
 30
0.0
 40
0.1
  0
CIRCLE
  8
0
 62
1
 10
9.0
 20
-21.9
 30
0.0
 40
0.1
  0
CIRCLE
  8
0
 62
1
 10
9.0
 20
-21.55
 30
0.0
 40
0.1
  0
CIRCLE
  8
0
 62
1
 10
9.0
 20
3.05
 30
0.0
 40
0.1
  0
CIRCLE
  8
0
 62
1
 10
9.0
 20
5.1
 30
0.0
 40
0.1
  0
CIRCLE
  8
0
 62
1
 10
9.0
 20
7.2
 30
0.0
 40
0.100101
  0
CIRCLE
  8
0
 62
1
 10
9.0
 20
9.35
 30
0.0
 40
0.1
  0
CIRCLE
  8
0
 62
1
 10
9.0
 20
11.55
 30
0.0
 40
0.1
  0
CIRCLE
  8
0
 62
1
 10
9.0
 20
13.8
 30
0.0
 40
0.1
  0
CIRCLE
  8
0
 62
1
 10
9.0
 20
16.1
 30
0.0
 40
0.1
  0
CIRCLE
  8
0
 62
1
 10
9.0
 20
18.45
 30
0.0
 40
0.1
  0
CIRCLE
  8
0
 62
1
 10
9.0
 20
20.85
 30
0.0
 40
0.1
  0
CIRCLE
  8
0
 62
1
 10
9.5
 20
-14.4
 30
0.0
 40
0.1
  0
CIRCLE
  8
0
 62
1
 10
9.5
 20
-22.2
 30
0.0
 40
0.1
  0
CIRCLE
  8
0
 62
1
 10
9.5
 20
-20.2
 30
0.0
 40
0.1
  0
CIRCLE
  8
0
 62
1
 10
9.5
 20
-19.65
 30
0.0
 40
0.1
  0
CIRCLE
  8
0
 62
1
 10
9.5
 20
-19.05
 30
0.0
 40
0.1
  0
CIRCLE
  8
0
 62
1
 10
9.5
 20
-18.4
 30
0.0
 40
0.1
  0
CIRCLE
  8
0
 62
1
 10
9.5
 20
-17.7
 30
0.0
 40
0.1
  0
CIRCLE
  8
0
 62
1
 10
9.5
 20
-16.95
 30
0.0
 40
0.1
  0
CIRCLE
  8
0
 62
1
 10
9.5
 20
-16.15
 30
0.0
 40
0.1
  0
CIRCLE
  8
0
 62
1
 10
9.5
 20
-8.85
 30
0.0
 40
0.1
  0
CIRCLE
  8
0
 62
1
 10
9.5
 20
-15.3
 30
0.0
 40
0.1
  0
CIRCLE
  8
0
 62
1
 10
9.5
 20
-13.45
 30
0.0
 40
0.1
  0
CIRCLE
  8
0
 62
1
 10
9.5
 20
-12.45
 30
0.0
 40
0.1
  0
CIRCLE
  8
0
 62
1
 10
9.5
 20
-11.35
 30
0.0
 40
0.1
  0
CIRCLE
  8
0
 62
1
 10
9.5
 20
-10.15
 30
0.0
 40
0.1
  0
CIRCLE
  8
0
 62
1
 10
9.5
 20
1.05
 30
0.0
 40
0.1
  0
CIRCLE
  8
0
 62
1
 10
9.5
 20
-7.45
 30
0.0
 40
0.1
  0
CIRCLE
  8
0
 62
1
 10
9.5
 20
-5.95
 30
0.0
 40
0.1
  0
CIRCLE
  8
0
 62
1
 10
9.5
 20
-4.35
 30
0.0
 40
0.1
  0
CIRCLE
  8
0
 62
1
 10
9.5
 20
-2.65
 30
0.0
 40
0.1
  0
CIRCLE
  8
0
 62
1
 10
9.5
 20
-0.85
 30
0.0
 40
0.1
  0
CIRCLE
  8
0
 62
1
 10
9.5
 20
-21.15
 30
0.0
 40
0.1
  0
CIRCLE
  8
0
 62
1
 10
9.5
 20
-20.7
 30
0.0
 40
0.1
  0
CIRCLE
  8
0
 62
1
 10
9.5
 20
-21.9
 30
0.0
 40
0.1
  0
CIRCLE
  8
0
 62
1
 10
9.5
 20
-21.55
 30
0.0
 40
0.1
  0
CIRCLE
  8
0
 62
1
 10
9.5
 20
3.05
 30
0.0
 40
0.1
  0
CIRCLE
  8
0
 62
1
 10
9.5
 20
5.1
 30
0.0
 40
0.1
  0
CIRCLE
  8
0
 62
1
 10
9.5
 20
7.2
 30
0.0
 40
0.100101
  0
CIRCLE
  8
0
 62
1
 10
9.5
 20
9.35
 30
0.0
 40
0.1
  0
CIRCLE
  8
0
 62
1
 10
9.5
 20
11.55
 30
0.0
 40
0.1
  0
CIRCLE
  8
0
 62
1
 10
9.5
 20
13.8
 30
0.0
 40
0.1
  0
CIRCLE
  8
0
 62
1
 10
9.5
 20
16.1
 30
0.0
 40
0.1
  0
CIRCLE
  8
0
 62
1
 10
9.5
 20
18.45
 30
0.0
 40
0.1
  0
CIRCLE
  8
0
 62
1
 10
9.5
 20
20.85
 30
0.0
 40
0.1
  0
CIRCLE
  8
0
 62
1
 10
10.0
 20
-14.4
 30
0.0
 40
0.1
  0
CIRCLE
  8
0
 62
1
 10
10.0
 20
-22.2
 30
0.0
 40
0.1
  0
CIRCLE
  8
0
 62
1
 10
10.0
 20
-20.2
 30
0.0
 40
0.1
  0
CIRCLE
  8
0
 62
1
 10
10.0
 20
-19.65
 30
0.0
 40
0.1
  0
CIRCLE
  8
0
 62
1
 10
10.0
 20
-19.05
 30
0.0
 40
0.1
  0
CIRCLE
  8
0
 62
1
 10
10.0
 20
-18.4
 30
0.0
 40
0.1
  0
CIRCLE
  8
0
 62
1
 10
10.0
 20
-17.7
 30
0.0
 40
0.1
  0
CIRCLE
  8
0
 62
1
 10
10.0
 20
-16.95
 30
0.0
 40
0.1
  0
CIRCLE
  8
0
 62
1
 10
10.0
 20
-16.15
 30
0.0
 40
0.1
  0
CIRCLE
  8
0
 62
1
 10
10.0
 20
-8.85
 30
0.0
 40
0.1
  0
CIRCLE
  8
0
 62
1
 10
10.0
 20
-15.3
 30
0.0
 40
0.1
  0
CIRCLE
  8
0
 62
1
 10
10.0
 20
-13.45
 30
0.0
 40
0.1
  0
CIRCLE
  8
0
 62
1
 10
10.0
 20
-12.45
 30
0.0
 40
0.1
  0
CIRCLE
  8
0
 62
1
 10
10.0
 20
-11.35
 30
0.0
 40
0.1
  0
CIRCLE
  8
0
 62
1
 10
10.0
 20
-10.15
 30
0.0
 40
0.1
  0
CIRCLE
  8
0
 62
1
 10
10.0
 20
1.05
 30
0.0
 40
0.1
  0
CIRCLE
  8
0
 62
1
 10
10.0
 20
-7.45
 30
0.0
 40
0.1
  0
CIRCLE
  8
0
 62
1
 10
10.0
 20
-5.95
 30
0.0
 40
0.1
  0
CIRCLE
  8
0
 62
1
 10
10.0
 20
-4.35
 30
0.0
 40
0.1
  0
CIRCLE
  8
0
 62
1
 10
10.0
 20
-2.65
 30
0.0
 40
0.1
  0
CIRCLE
  8
0
 62
1
 10
10.0
 20
-0.85
 30
0.0
 40
0.1
  0
CIRCLE
  8
0
 62
1
 10
10.0
 20
-21.15
 30
0.0
 40
0.1
  0
CIRCLE
  8
0
 62
1
 10
10.0
 20
-20.7
 30
0.0
 40
0.1
  0
CIRCLE
  8
0
 62
1
 10
10.0
 20
-21.9
 30
0.0
 40
0.1
  0
CIRCLE
  8
0
 62
1
 10
10.0
 20
-21.55
 30
0.0
 40
0.1
  0
CIRCLE
  8
0
 62
1
 10
10.0
 20
3.05
 30
0.0
 40
0.1
  0
CIRCLE
  8
0
 62
1
 10
10.0
 20
5.1
 30
0.0
 40
0.1
  0
CIRCLE
  8
0
 62
1
 10
10.0
 20
7.2
 30
0.0
 40
0.100101
  0
CIRCLE
  8
0
 62
1
 10
10.0
 20
9.35
 30
0.0
 40
0.1
  0
CIRCLE
  8
0
 62
1
 10
10.0
 20
11.55
 30
0.0
 40
0.1
  0
CIRCLE
  8
0
 62
1
 10
10.0
 20
13.8
 30
0.0
 40
0.1
  0
CIRCLE
  8
0
 62
1
 10
10.0
 20
16.1
 30
0.0
 40
0.1
  0
CIRCLE
  8
0
 62
1
 10
10.0
 20
18.45
 30
0.0
 40
0.1
  0
CIRCLE
  8
0
 62
1
 10
10.0
 20
20.85
 30
0.0
 40
0.1
  0
CIRCLE
  8
0
 62
1
 10
10.5
 20
-14.4
 30
0.0
 40
0.1
  0
CIRCLE
  8
0
 62
1
 10
10.5
 20
-22.2
 30
0.0
 40
0.1
  0
CIRCLE
  8
0
 62
1
 10
10.5
 20
-20.2
 30
0.0
 40
0.1
  0
CIRCLE
  8
0
 62
1
 10
10.5
 20
-19.65
 30
0.0
 40
0.1
  0
CIRCLE
  8
0
 62
1
 10
10.5
 20
-19.05
 30
0.0
 40
0.1
  0
CIRCLE
  8
0
 62
1
 10
10.5
 20
-18.4
 30
0.0
 40
0.1
  0
CIRCLE
  8
0
 62
1
 10
10.5
 20
-17.7
 30
0.0
 40
0.1
  0
CIRCLE
  8
0
 62
1
 10
10.5
 20
-16.95
 30
0.0
 40
0.1
  0
CIRCLE
  8
0
 62
1
 10
10.5
 20
-16.15
 30
0.0
 40
0.1
  0
CIRCLE
  8
0
 62
1
 10
10.5
 20
-8.85
 30
0.0
 40
0.1
  0
CIRCLE
  8
0
 62
1
 10
10.5
 20
-15.3
 30
0.0
 40
0.1
  0
CIRCLE
  8
0
 62
1
 10
10.5
 20
-13.45
 30
0.0
 40
0.1
  0
CIRCLE
  8
0
 62
1
 10
10.5
 20
-12.45
 30
0.0
 40
0.1
  0
CIRCLE
  8
0
 62
1
 10
10.5
 20
-11.35
 30
0.0
 40
0.1
  0
CIRCLE
  8
0
 62
1
 10
10.5
 20
-10.15
 30
0.0
 40
0.1
  0
CIRCLE
  8
0
 62
1
 10
10.5
 20
1.05
 30
0.0
 40
0.1
  0
CIRCLE
  8
0
 62
1
 10
10.5
 20
-7.45
 30
0.0
 40
0.1
  0
CIRCLE
  8
0
 62
1
 10
10.5
 20
-5.95
 30
0.0
 40
0.1
  0
CIRCLE
  8
0
 62
1
 10
10.5
 20
-4.35
 30
0.0
 40
0.1
  0
CIRCLE
  8
0
 62
1
 10
10.5
 20
-2.65
 30
0.0
 40
0.1
  0
CIRCLE
  8
0
 62
1
 10
10.5
 20
-0.85
 30
0.0
 40
0.1
  0
CIRCLE
  8
0
 62
1
 10
10.5
 20
-21.15
 30
0.0
 40
0.1
  0
CIRCLE
  8
0
 62
1
 10
10.5
 20
-20.7
 30
0.0
 40
0.1
  0
CIRCLE
  8
0
 62
1
 10
10.5
 20
-21.9
 30
0.0
 40
0.1
  0
CIRCLE
  8
0
 62
1
 10
10.5
 20
-21.55
 30
0.0
 40
0.1
  0
CIRCLE
  8
0
 62
1
 10
10.5
 20
3.05
 30
0.0
 40
0.1
  0
CIRCLE
  8
0
 62
1
 10
10.5
 20
5.1
 30
0.0
 40
0.1
  0
CIRCLE
  8
0
 62
1
 10
10.5
 20
7.2
 30
0.0
 40
0.100101
  0
CIRCLE
  8
0
 62
1
 10
10.5
 20
9.35
 30
0.0
 40
0.1
  0
CIRCLE
  8
0
 62
1
 10
10.5
 20
11.55
 30
0.0
 40
0.1
  0
CIRCLE
  8
0
 62
1
 10
10.5
 20
13.8
 30
0.0
 40
0.1
  0
CIRCLE
  8
0
 62
1
 10
10.5
 20
16.1
 30
0.0
 40
0.1
  0
CIRCLE
  8
0
 62
1
 10
10.5
 20
18.45
 30
0.0
 40
0.1
  0
CIRCLE
  8
0
 62
1
 10
10.5
 20
20.85
 30
0.0
 40
0.1
  0
CIRCLE
  8
0
 62
1
 10
11.0
 20
-14.4
 30
0.0
 40
0.1
  0
CIRCLE
  8
0
 62
1
 10
11.0
 20
-22.2
 30
0.0
 40
0.1
  0
CIRCLE
  8
0
 62
1
 10
11.0
 20
-20.2
 30
0.0
 40
0.1
  0
CIRCLE
  8
0
 62
1
 10
11.0
 20
-19.65
 30
0.0
 40
0.1
  0
CIRCLE
  8
0
 62
1
 10
11.0
 20
-19.05
 30
0.0
 40
0.1
  0
CIRCLE
  8
0
 62
1
 10
11.0
 20
-18.4
 30
0.0
 40
0.1
  0
CIRCLE
  8
0
 62
1
 10
11.0
 20
-17.7
 30
0.0
 40
0.1
  0
CIRCLE
  8
0
 62
1
 10
11.0
 20
-16.95
 30
0.0
 40
0.1
  0
CIRCLE
  8
0
 62
1
 10
11.0
 20
-16.15
 30
0.0
 40
0.1
  0
CIRCLE
  8
0
 62
1
 10
11.0
 20
-8.85
 30
0.0
 40
0.1
  0
CIRCLE
  8
0
 62
1
 10
11.0
 20
-15.3
 30
0.0
 40
0.1
  0
CIRCLE
  8
0
 62
1
 10
11.0
 20
-13.45
 30
0.0
 40
0.1
  0
CIRCLE
  8
0
 62
1
 10
11.0
 20
-12.45
 30
0.0
 40
0.1
  0
CIRCLE
  8
0
 62
1
 10
11.0
 20
-11.35
 30
0.0
 40
0.1
  0
CIRCLE
  8
0
 62
1
 10
11.0
 20
-10.15
 30
0.0
 40
0.1
  0
CIRCLE
  8
0
 62
1
 10
11.0
 20
1.05
 30
0.0
 40
0.1
  0
CIRCLE
  8
0
 62
1
 10
11.0
 20
-7.45
 30
0.0
 40
0.1
  0
CIRCLE
  8
0
 62
1
 10
11.0
 20
-5.95
 30
0.0
 40
0.1
  0
CIRCLE
  8
0
 62
1
 10
11.0
 20
-4.35
 30
0.0
 40
0.1
  0
CIRCLE
  8
0
 62
1
 10
11.0
 20
-2.65
 30
0.0
 40
0.1
  0
CIRCLE
  8
0
 62
1
 10
11.0
 20
-0.85
 30
0.0
 40
0.1
  0
CIRCLE
  8
0
 62
1
 10
11.0
 20
-21.15
 30
0.0
 40
0.1
  0
CIRCLE
  8
0
 62
1
 10
11.0
 20
-20.7
 30
0.0
 40
0.1
  0
CIRCLE
  8
0
 62
1
 10
11.0
 20
-21.9
 30
0.0
 40
0.1
  0
CIRCLE
  8
0
 62
1
 10
11.0
 20
-21.55
 30
0.0
 40
0.1
  0
CIRCLE
  8
0
 62
1
 10
11.0
 20
3.05
 30
0.0
 40
0.1
  0
CIRCLE
  8
0
 62
1
 10
11.0
 20
5.1
 30
0.0
 40
0.1
  0
CIRCLE
  8
0
 62
1
 10
11.0
 20
7.2
 30
0.0
 40
0.100101
  0
CIRCLE
  8
0
 62
1
 10
11.0
 20
9.35
 30
0.0
 40
0.1
  0
CIRCLE
  8
0
 62
1
 10
11.0
 20
11.55
 30
0.0
 40
0.1
  0
CIRCLE
  8
0
 62
1
 10
11.0
 20
13.8
 30
0.0
 40
0.1
  0
CIRCLE
  8
0
 62
1
 10
11.0
 20
16.1
 30
0.0
 40
0.1
  0
CIRCLE
  8
0
 62
1
 10
11.0
 20
18.45
 30
0.0
 40
0.1
  0
CIRCLE
  8
0
 62
1
 10
11.0
 20
20.85
 30
0.0
 40
0.1
  0
CIRCLE
  8
0
 62
1
 10
11.5
 20
-14.4
 30
0.0
 40
0.1
  0
CIRCLE
  8
0
 62
1
 10
11.5
 20
-22.2
 30
0.0
 40
0.1
  0
CIRCLE
  8
0
 62
1
 10
11.5
 20
-20.2
 30
0.0
 40
0.1
  0
CIRCLE
  8
0
 62
1
 10
11.5
 20
-19.65
 30
0.0
 40
0.1
  0
CIRCLE
  8
0
 62
1
 10
11.5
 20
-19.05
 30
0.0
 40
0.1
  0
CIRCLE
  8
0
 62
1
 10
11.5
 20
-18.4
 30
0.0
 40
0.1
  0
CIRCLE
  8
0
 62
1
 10
11.5
 20
-17.7
 30
0.0
 40
0.1
  0
CIRCLE
  8
0
 62
1
 10
11.5
 20
-16.95
 30
0.0
 40
0.1
  0
CIRCLE
  8
0
 62
1
 10
11.5
 20
-16.15
 30
0.0
 40
0.1
  0
CIRCLE
  8
0
 62
1
 10
11.5
 20
-8.85
 30
0.0
 40
0.1
  0
CIRCLE
  8
0
 62
1
 10
11.5
 20
-15.3
 30
0.0
 40
0.1
  0
CIRCLE
  8
0
 62
1
 10
11.5
 20
-13.45
 30
0.0
 40
0.1
  0
CIRCLE
  8
0
 62
1
 10
11.5
 20
-12.45
 30
0.0
 40
0.1
  0
CIRCLE
  8
0
 62
1
 10
11.5
 20
-11.35
 30
0.0
 40
0.1
  0
CIRCLE
  8
0
 62
1
 10
11.5
 20
-10.15
 30
0.0
 40
0.1
  0
CIRCLE
  8
0
 62
1
 10
11.5
 20
1.05
 30
0.0
 40
0.1
  0
CIRCLE
  8
0
 62
1
 10
11.5
 20
-7.45
 30
0.0
 40
0.1
  0
CIRCLE
  8
0
 62
1
 10
11.5
 20
-5.95
 30
0.0
 40
0.1
  0
CIRCLE
  8
0
 62
1
 10
11.5
 20
-4.35
 30
0.0
 40
0.1
  0
CIRCLE
  8
0
 62
1
 10
11.5
 20
-2.65
 30
0.0
 40
0.1
  0
CIRCLE
  8
0
 62
1
 10
11.5
 20
-0.85
 30
0.0
 40
0.1
  0
CIRCLE
  8
0
 62
1
 10
11.5
 20
-21.15
 30
0.0
 40
0.1
  0
CIRCLE
  8
0
 62
1
 10
11.5
 20
-20.7
 30
0.0
 40
0.1
  0
CIRCLE
  8
0
 62
1
 10
11.5
 20
-21.9
 30
0.0
 40
0.1
  0
CIRCLE
  8
0
 62
1
 10
11.5
 20
-21.55
 30
0.0
 40
0.1
  0
CIRCLE
  8
0
 62
1
 10
11.5
 20
3.05
 30
0.0
 40
0.1
  0
CIRCLE
  8
0
 62
1
 10
11.5
 20
5.1
 30
0.0
 40
0.1
  0
CIRCLE
  8
0
 62
1
 10
11.5
 20
7.2
 30
0.0
 40
0.100101
  0
CIRCLE
  8
0
 62
1
 10
11.5
 20
9.35
 30
0.0
 40
0.1
  0
CIRCLE
  8
0
 62
1
 10
11.5
 20
11.55
 30
0.0
 40
0.1
  0
CIRCLE
  8
0
 62
1
 10
11.5
 20
13.8
 30
0.0
 40
0.1
  0
CIRCLE
  8
0
 62
1
 10
11.5
 20
16.1
 30
0.0
 40
0.1
  0
CIRCLE
  8
0
 62
1
 10
11.5
 20
18.45
 30
0.0
 40
0.1
  0
CIRCLE
  8
0
 62
1
 10
11.5
 20
20.85
 30
0.0
 40
0.1
  0
CIRCLE
  8
0
 62
1
 10
12.0
 20
-14.4
 30
0.0
 40
0.1
  0
CIRCLE
  8
0
 62
1
 10
12.0
 20
-22.2
 30
0.0
 40
0.1
  0
CIRCLE
  8
0
 62
1
 10
12.0
 20
-20.2
 30
0.0
 40
0.1
  0
CIRCLE
  8
0
 62
1
 10
12.0
 20
-19.65
 30
0.0
 40
0.1
  0
CIRCLE
  8
0
 62
1
 10
12.0
 20
-19.05
 30
0.0
 40
0.1
  0
CIRCLE
  8
0
 62
1
 10
12.0
 20
-18.4
 30
0.0
 40
0.1
  0
CIRCLE
  8
0
 62
1
 10
12.0
 20
-17.7
 30
0.0
 40
0.1
  0
CIRCLE
  8
0
 62
1
 10
12.0
 20
-16.95
 30
0.0
 40
0.1
  0
CIRCLE
  8
0
 62
1
 10
12.0
 20
-16.15
 30
0.0
 40
0.1
  0
CIRCLE
  8
0
 62
1
 10
12.0
 20
-8.85
 30
0.0
 40
0.1
  0
CIRCLE
  8
0
 62
1
 10
12.0
 20
-15.3
 30
0.0
 40
0.1
  0
CIRCLE
  8
0
 62
1
 10
12.0
 20
-13.45
 30
0.0
 40
0.1
  0
CIRCLE
  8
0
 62
1
 10
12.0
 20
-12.45
 30
0.0
 40
0.1
  0
CIRCLE
  8
0
 62
1
 10
12.0
 20
-11.35
 30
0.0
 40
0.1
  0
CIRCLE
  8
0
 62
1
 10
12.0
 20
-10.15
 30
0.0
 40
0.1
  0
CIRCLE
  8
0
 62
1
 10
12.0
 20
1.05
 30
0.0
 40
0.1
  0
CIRCLE
  8
0
 62
1
 10
12.0
 20
-7.45
 30
0.0
 40
0.1
  0
CIRCLE
  8
0
 62
1
 10
12.0
 20
-5.95
 30
0.0
 40
0.1
  0
CIRCLE
  8
0
 62
1
 10
12.0
 20
-4.35
 30
0.0
 40
0.1
  0
CIRCLE
  8
0
 62
1
 10
12.0
 20
-2.65
 30
0.0
 40
0.1
  0
CIRCLE
  8
0
 62
1
 10
12.0
 20
-0.85
 30
0.0
 40
0.1
  0
CIRCLE
  8
0
 62
1
 10
12.0
 20
-21.15
 30
0.0
 40
0.1
  0
CIRCLE
  8
0
 62
1
 10
12.0
 20
-20.7
 30
0.0
 40
0.1
  0
CIRCLE
  8
0
 62
1
 10
12.0
 20
-21.9
 30
0.0
 40
0.1
  0
CIRCLE
  8
0
 62
1
 10
12.0
 20
-21.55
 30
0.0
 40
0.1
  0
CIRCLE
  8
0
 62
1
 10
12.0
 20
3.05
 30
0.0
 40
0.1
  0
CIRCLE
  8
0
 62
1
 10
12.0
 20
5.1
 30
0.0
 40
0.1
  0
CIRCLE
  8
0
 62
1
 10
12.0
 20
7.2
 30
0.0
 40
0.100101
  0
CIRCLE
  8
0
 62
1
 10
12.0
 20
9.35
 30
0.0
 40
0.1
  0
CIRCLE
  8
0
 62
1
 10
12.0
 20
11.55
 30
0.0
 40
0.1
  0
CIRCLE
  8
0
 62
1
 10
12.0
 20
13.8
 30
0.0
 40
0.1
  0
CIRCLE
  8
0
 62
1
 10
12.0
 20
16.1
 30
0.0
 40
0.1
  0
CIRCLE
  8
0
 62
1
 10
12.0
 20
18.45
 30
0.0
 40
0.1
  0
CIRCLE
  8
0
 62
1
 10
12.0
 20
20.85
 30
0.0
 40
0.1
  0
CIRCLE
  8
0
 62
1
 10
12.5
 20
-14.4
 30
0.0
 40
0.1
  0
CIRCLE
  8
0
 62
1
 10
12.5
 20
-22.2
 30
0.0
 40
0.1
  0
CIRCLE
  8
0
 62
1
 10
12.5
 20
-20.2
 30
0.0
 40
0.1
  0
CIRCLE
  8
0
 62
1
 10
12.5
 20
-19.65
 30
0.0
 40
0.1
  0
CIRCLE
  8
0
 62
1
 10
12.5
 20
-19.05
 30
0.0
 40
0.1
  0
CIRCLE
  8
0
 62
1
 10
12.5
 20
-18.4
 30
0.0
 40
0.1
  0
CIRCLE
  8
0
 62
1
 10
12.5
 20
-17.7
 30
0.0
 40
0.1
  0
CIRCLE
  8
0
 62
1
 10
12.5
 20
-16.95
 30
0.0
 40
0.1
  0
CIRCLE
  8
0
 62
1
 10
12.5
 20
-16.15
 30
0.0
 40
0.1
  0
CIRCLE
  8
0
 62
1
 10
12.5
 20
-8.85
 30
0.0
 40
0.1
  0
CIRCLE
  8
0
 62
1
 10
12.5
 20
-15.3
 30
0.0
 40
0.1
  0
CIRCLE
  8
0
 62
1
 10
12.5
 20
-13.45
 30
0.0
 40
0.1
  0
CIRCLE
  8
0
 62
1
 10
12.5
 20
-12.45
 30
0.0
 40
0.1
  0
CIRCLE
  8
0
 62
1
 10
12.5
 20
-11.35
 30
0.0
 40
0.1
  0
CIRCLE
  8
0
 62
1
 10
12.5
 20
-10.15
 30
0.0
 40
0.1
  0
CIRCLE
  8
0
 62
1
 10
12.5
 20
1.05
 30
0.0
 40
0.1
  0
CIRCLE
  8
0
 62
1
 10
12.5
 20
-7.45
 30
0.0
 40
0.1
  0
CIRCLE
  8
0
 62
1
 10
12.5
 20
-5.95
 30
0.0
 40
0.1
  0
CIRCLE
  8
0
 62
1
 10
12.5
 20
-4.35
 30
0.0
 40
0.1
  0
CIRCLE
  8
0
 62
1
 10
12.5
 20
-2.65
 30
0.0
 40
0.1
  0
CIRCLE
  8
0
 62
1
 10
12.5
 20
-0.85
 30
0.0
 40
0.1
  0
CIRCLE
  8
0
 62
1
 10
12.5
 20
-21.15
 30
0.0
 40
0.1
  0
CIRCLE
  8
0
 62
1
 10
12.5
 20
-20.7
 30
0.0
 40
0.1
  0
CIRCLE
  8
0
 62
1
 10
12.5
 20
-21.9
 30
0.0
 40
0.1
  0
CIRCLE
  8
0
 62
1
 10
12.5
 20
-21.55
 30
0.0
 40
0.1
  0
CIRCLE
  8
0
 62
1
 10
12.5
 20
3.05
 30
0.0
 40
0.1
  0
CIRCLE
  8
0
 62
1
 10
12.5
 20
5.1
 30
0.0
 40
0.1
  0
CIRCLE
  8
0
 62
1
 10
12.5
 20
7.2
 30
0.0
 40
0.100101
  0
CIRCLE
  8
0
 62
1
 10
12.5
 20
9.35
 30
0.0
 40
0.1
  0
CIRCLE
  8
0
 62
1
 10
12.5
 20
11.55
 30
0.0
 40
0.1
  0
CIRCLE
  8
0
 62
1
 10
12.5
 20
13.8
 30
0.0
 40
0.1
  0
CIRCLE
  8
0
 62
1
 10
12.5
 20
16.1
 30
0.0
 40
0.1
  0
CIRCLE
  8
0
 62
1
 10
12.5
 20
18.45
 30
0.0
 40
0.1
  0
CIRCLE
  8
0
 62
1
 10
12.5
 20
20.85
 30
0.0
 40
0.1
  0
CIRCLE
  8
0
 62
1
 10
13.0
 20
-14.4
 30
0.0
 40
0.1
  0
CIRCLE
  8
0
 62
1
 10
13.0
 20
-22.2
 30
0.0
 40
0.1
  0
CIRCLE
  8
0
 62
1
 10
13.0
 20
-20.2
 30
0.0
 40
0.1
  0
CIRCLE
  8
0
 62
1
 10
13.0
 20
-19.65
 30
0.0
 40
0.1
  0
CIRCLE
  8
0
 62
1
 10
13.0
 20
-19.05
 30
0.0
 40
0.1
  0
CIRCLE
  8
0
 62
1
 10
13.0
 20
-18.4
 30
0.0
 40
0.1
  0
CIRCLE
  8
0
 62
1
 10
13.0
 20
-17.7
 30
0.0
 40
0.1
  0
CIRCLE
  8
0
 62
1
 10
13.0
 20
-16.95
 30
0.0
 40
0.1
  0
CIRCLE
  8
0
 62
1
 10
13.0
 20
-16.15
 30
0.0
 40
0.1
  0
CIRCLE
  8
0
 62
1
 10
13.0
 20
-8.85
 30
0.0
 40
0.1
  0
CIRCLE
  8
0
 62
1
 10
13.0
 20
-15.3
 30
0.0
 40
0.1
  0
CIRCLE
  8
0
 62
1
 10
13.0
 20
-13.45
 30
0.0
 40
0.1
  0
CIRCLE
  8
0
 62
1
 10
13.0
 20
-12.45
 30
0.0
 40
0.1
  0
CIRCLE
  8
0
 62
1
 10
13.0
 20
-11.35
 30
0.0
 40
0.1
  0
CIRCLE
  8
0
 62
1
 10
13.0
 20
-10.15
 30
0.0
 40
0.1
  0
CIRCLE
  8
0
 62
1
 10
13.0
 20
1.05
 30
0.0
 40
0.1
  0
CIRCLE
  8
0
 62
1
 10
13.0
 20
-7.45
 30
0.0
 40
0.1
  0
CIRCLE
  8
0
 62
1
 10
13.0
 20
-5.95
 30
0.0
 40
0.1
  0
CIRCLE
  8
0
 62
1
 10
13.0
 20
-4.35
 30
0.0
 40
0.1
  0
CIRCLE
  8
0
 62
1
 10
13.0
 20
-2.65
 30
0.0
 40
0.1
  0
CIRCLE
  8
0
 62
1
 10
13.0
 20
-0.85
 30
0.0
 40
0.1
  0
CIRCLE
  8
0
 62
1
 10
13.0
 20
-21.15
 30
0.0
 40
0.1
  0
CIRCLE
  8
0
 62
1
 10
13.0
 20
-20.7
 30
0.0
 40
0.1
  0
CIRCLE
  8
0
 62
1
 10
13.0
 20
-21.9
 30
0.0
 40
0.1
  0
CIRCLE
  8
0
 62
1
 10
13.0
 20
-21.55
 30
0.0
 40
0.1
  0
CIRCLE
  8
0
 62
1
 10
13.0
 20
3.05
 30
0.0
 40
0.1
  0
CIRCLE
  8
0
 62
1
 10
13.0
 20
5.1
 30
0.0
 40
0.1
  0
CIRCLE
  8
0
 62
1
 10
13.0
 20
7.2
 30
0.0
 40
0.100101
  0
CIRCLE
  8
0
 62
1
 10
13.0
 20
9.35
 30
0.0
 40
0.1
  0
CIRCLE
  8
0
 62
1
 10
13.0
 20
11.55
 30
0.0
 40
0.1
  0
CIRCLE
  8
0
 62
1
 10
13.0
 20
13.8
 30
0.0
 40
0.1
  0
CIRCLE
  8
0
 62
1
 10
13.0
 20
16.1
 30
0.0
 40
0.1
  0
CIRCLE
  8
0
 62
1
 10
13.0
 20
18.45
 30
0.0
 40
0.1
  0
CIRCLE
  8
0
 62
1
 10
13.0
 20
20.85
 30
0.0
 40
0.1
  0
CIRCLE
  8
0
 62
1
 10
13.5
 20
-14.4
 30
0.0
 40
0.1
  0
CIRCLE
  8
0
 62
1
 10
13.5
 20
-22.2
 30
0.0
 40
0.1
  0
CIRCLE
  8
0
 62
1
 10
13.5
 20
-20.2
 30
0.0
 40
0.1
  0
CIRCLE
  8
0
 62
1
 10
13.5
 20
-19.65
 30
0.0
 40
0.1
  0
CIRCLE
  8
0
 62
1
 10
13.5
 20
-19.05
 30
0.0
 40
0.1
  0
CIRCLE
  8
0
 62
1
 10
13.5
 20
-18.4
 30
0.0
 40
0.1
  0
CIRCLE
  8
0
 62
1
 10
13.5
 20
-17.7
 30
0.0
 40
0.1
  0
CIRCLE
  8
0
 62
1
 10
13.5
 20
-16.95
 30
0.0
 40
0.1
  0
CIRCLE
  8
0
 62
1
 10
13.5
 20
-16.15
 30
0.0
 40
0.1
  0
CIRCLE
  8
0
 62
1
 10
13.5
 20
-8.85
 30
0.0
 40
0.1
  0
CIRCLE
  8
0
 62
1
 10
13.5
 20
-15.3
 30
0.0
 40
0.1
  0
CIRCLE
  8
0
 62
1
 10
13.5
 20
-13.45
 30
0.0
 40
0.1
  0
CIRCLE
  8
0
 62
1
 10
13.5
 20
-12.45
 30
0.0
 40
0.1
  0
CIRCLE
  8
0
 62
1
 10
13.5
 20
-11.35
 30
0.0
 40
0.1
  0
CIRCLE
  8
0
 62
1
 10
13.5
 20
-10.15
 30
0.0
 40
0.1
  0
CIRCLE
  8
0
 62
1
 10
13.5
 20
1.05
 30
0.0
 40
0.1
  0
CIRCLE
  8
0
 62
1
 10
13.5
 20
-7.45
 30
0.0
 40
0.1
  0
CIRCLE
  8
0
 62
1
 10
13.5
 20
-5.95
 30
0.0
 40
0.1
  0
CIRCLE
  8
0
 62
1
 10
13.5
 20
-4.35
 30
0.0
 40
0.1
  0
CIRCLE
  8
0
 62
1
 10
13.5
 20
-2.65
 30
0.0
 40
0.1
  0
CIRCLE
  8
0
 62
1
 10
13.5
 20
-0.85
 30
0.0
 40
0.1
  0
CIRCLE
  8
0
 62
1
 10
13.5
 20
-21.15
 30
0.0
 40
0.1
  0
CIRCLE
  8
0
 62
1
 10
13.5
 20
-20.7
 30
0.0
 40
0.1
  0
CIRCLE
  8
0
 62
1
 10
13.5
 20
-21.9
 30
0.0
 40
0.1
  0
CIRCLE
  8
0
 62
1
 10
13.5
 20
-21.55
 30
0.0
 40
0.1
  0
CIRCLE
  8
0
 62
1
 10
13.5
 20
3.05
 30
0.0
 40
0.1
  0
CIRCLE
  8
0
 62
1
 10
13.5
 20
5.1
 30
0.0
 40
0.1
  0
CIRCLE
  8
0
 62
1
 10
13.5
 20
7.2
 30
0.0
 40
0.100101
  0
CIRCLE
  8
0
 62
1
 10
13.5
 20
9.35
 30
0.0
 40
0.1
  0
CIRCLE
  8
0
 62
1
 10
13.5
 20
11.55
 30
0.0
 40
0.1
  0
CIRCLE
  8
0
 62
1
 10
13.5
 20
13.8
 30
0.0
 40
0.1
  0
CIRCLE
  8
0
 62
1
 10
13.5
 20
16.1
 30
0.0
 40
0.1
  0
CIRCLE
  8
0
 62
1
 10
13.5
 20
18.45
 30
0.0
 40
0.1
  0
CIRCLE
  8
0
 62
1
 10
13.5
 20
20.85
 30
0.0
 40
0.1
  0
CIRCLE
  8
0
 62
1
 10
14.0
 20
-14.4
 30
0.0
 40
0.1
  0
CIRCLE
  8
0
 62
1
 10
14.0
 20
-22.2
 30
0.0
 40
0.1
  0
CIRCLE
  8
0
 62
1
 10
14.0
 20
-20.2
 30
0.0
 40
0.1
  0
CIRCLE
  8
0
 62
1
 10
14.0
 20
-19.65
 30
0.0
 40
0.1
  0
CIRCLE
  8
0
 62
1
 10
14.0
 20
-19.05
 30
0.0
 40
0.1
  0
CIRCLE
  8
0
 62
1
 10
14.0
 20
-18.4
 30
0.0
 40
0.1
  0
CIRCLE
  8
0
 62
1
 10
14.0
 20
-17.7
 30
0.0
 40
0.1
  0
CIRCLE
  8
0
 62
1
 10
14.0
 20
-16.95
 30
0.0
 40
0.1
  0
CIRCLE
  8
0
 62
1
 10
14.0
 20
-16.15
 30
0.0
 40
0.1
  0
CIRCLE
  8
0
 62
1
 10
14.0
 20
-8.85
 30
0.0
 40
0.1
  0
CIRCLE
  8
0
 62
1
 10
14.0
 20
-15.3
 30
0.0
 40
0.1
  0
CIRCLE
  8
0
 62
1
 10
14.0
 20
-13.45
 30
0.0
 40
0.1
  0
CIRCLE
  8
0
 62
1
 10
14.0
 20
-12.45
 30
0.0
 40
0.1
  0
CIRCLE
  8
0
 62
1
 10
14.0
 20
-11.35
 30
0.0
 40
0.1
  0
CIRCLE
  8
0
 62
1
 10
14.0
 20
-10.15
 30
0.0
 40
0.1
  0
CIRCLE
  8
0
 62
1
 10
14.0
 20
1.05
 30
0.0
 40
0.1
  0
CIRCLE
  8
0
 62
1
 10
14.0
 20
-7.45
 30
0.0
 40
0.1
  0
CIRCLE
  8
0
 62
1
 10
14.0
 20
-5.95
 30
0.0
 40
0.1
  0
CIRCLE
  8
0
 62
1
 10
14.0
 20
-4.35
 30
0.0
 40
0.1
  0
CIRCLE
  8
0
 62
1
 10
14.0
 20
-2.65
 30
0.0
 40
0.1
  0
CIRCLE
  8
0
 62
1
 10
14.0
 20
-0.85
 30
0.0
 40
0.1
  0
CIRCLE
  8
0
 62
1
 10
14.0
 20
-21.15
 30
0.0
 40
0.1
  0
CIRCLE
  8
0
 62
1
 10
14.0
 20
-20.7
 30
0.0
 40
0.1
  0
CIRCLE
  8
0
 62
1
 10
14.0
 20
-21.9
 30
0.0
 40
0.1
  0
CIRCLE
  8
0
 62
1
 10
14.0
 20
-21.55
 30
0.0
 40
0.1
  0
CIRCLE
  8
0
 62
1
 10
14.0
 20
3.05
 30
0.0
 40
0.1
  0
CIRCLE
  8
0
 62
1
 10
14.0
 20
5.1
 30
0.0
 40
0.1
  0
CIRCLE
  8
0
 62
1
 10
14.0
 20
7.2
 30
0.0
 40
0.100101
  0
CIRCLE
  8
0
 62
1
 10
14.0
 20
9.35
 30
0.0
 40
0.1
  0
CIRCLE
  8
0
 62
1
 10
14.0
 20
11.55
 30
0.0
 40
0.1
  0
CIRCLE
  8
0
 62
1
 10
14.0
 20
13.8
 30
0.0
 40
0.1
  0
CIRCLE
  8
0
 62
1
 10
14.0
 20
16.1
 30
0.0
 40
0.1
  0
CIRCLE
  8
0
 62
1
 10
14.0
 20
18.45
 30
0.0
 40
0.1
  0
CIRCLE
  8
0
 62
1
 10
14.0
 20
20.85
 30
0.0
 40
0.1
  0
CIRCLE
  8
0
 62
1
 10
14.5
 20
-14.4
 30
0.0
 40
0.1
  0
CIRCLE
  8
0
 62
1
 10
14.5
 20
-22.2
 30
0.0
 40
0.1
  0
CIRCLE
  8
0
 62
1
 10
14.5
 20
-20.2
 30
0.0
 40
0.1
  0
CIRCLE
  8
0
 62
1
 10
14.5
 20
-19.65
 30
0.0
 40
0.1
  0
CIRCLE
  8
0
 62
1
 10
14.5
 20
-19.05
 30
0.0
 40
0.1
  0
CIRCLE
  8
0
 62
1
 10
14.5
 20
-18.4
 30
0.0
 40
0.1
  0
CIRCLE
  8
0
 62
1
 10
14.5
 20
-17.7
 30
0.0
 40
0.1
  0
CIRCLE
  8
0
 62
1
 10
14.5
 20
-16.95
 30
0.0
 40
0.1
  0
CIRCLE
  8
0
 62
1
 10
14.5
 20
-16.15
 30
0.0
 40
0.1
  0
CIRCLE
  8
0
 62
1
 10
14.5
 20
-8.85
 30
0.0
 40
0.1
  0
CIRCLE
  8
0
 62
1
 10
14.5
 20
-15.3
 30
0.0
 40
0.1
  0
CIRCLE
  8
0
 62
1
 10
14.5
 20
-13.45
 30
0.0
 40
0.1
  0
CIRCLE
  8
0
 62
1
 10
14.5
 20
-12.45
 30
0.0
 40
0.1
  0
CIRCLE
  8
0
 62
1
 10
14.5
 20
-11.35
 30
0.0
 40
0.1
  0
CIRCLE
  8
0
 62
1
 10
14.5
 20
-10.15
 30
0.0
 40
0.1
  0
CIRCLE
  8
0
 62
1
 10
14.5
 20
1.05
 30
0.0
 40
0.1
  0
CIRCLE
  8
0
 62
1
 10
14.5
 20
-7.45
 30
0.0
 40
0.1
  0
CIRCLE
  8
0
 62
1
 10
14.5
 20
-5.95
 30
0.0
 40
0.1
  0
CIRCLE
  8
0
 62
1
 10
14.5
 20
-4.35
 30
0.0
 40
0.1
  0
CIRCLE
  8
0
 62
1
 10
14.5
 20
-2.65
 30
0.0
 40
0.1
  0
CIRCLE
  8
0
 62
1
 10
14.5
 20
-0.85
 30
0.0
 40
0.1
  0
CIRCLE
  8
0
 62
1
 10
14.5
 20
-21.15
 30
0.0
 40
0.1
  0
CIRCLE
  8
0
 62
1
 10
14.5
 20
-20.7
 30
0.0
 40
0.1
  0
CIRCLE
  8
0
 62
1
 10
14.5
 20
-21.9
 30
0.0
 40
0.1
  0
CIRCLE
  8
0
 62
1
 10
14.5
 20
-21.55
 30
0.0
 40
0.1
  0
CIRCLE
  8
0
 62
1
 10
14.5
 20
3.05
 30
0.0
 40
0.1
  0
CIRCLE
  8
0
 62
1
 10
14.5
 20
5.1
 30
0.0
 40
0.1
  0
CIRCLE
  8
0
 62
1
 10
14.5
 20
7.2
 30
0.0
 40
0.100101
  0
CIRCLE
  8
0
 62
1
 10
14.5
 20
9.35
 30
0.0
 40
0.1
  0
CIRCLE
  8
0
 62
1
 10
14.5
 20
11.55
 30
0.0
 40
0.1
  0
CIRCLE
  8
0
 62
1
 10
14.5
 20
13.8
 30
0.0
 40
0.1
  0
CIRCLE
  8
0
 62
1
 10
14.5
 20
16.1
 30
0.0
 40
0.1
  0
CIRCLE
  8
0
 62
1
 10
14.5
 20
18.45
 30
0.0
 40
0.1
  0
CIRCLE
  8
0
 62
1
 10
14.5
 20
20.85
 30
0.0
 40
0.1
  0
CIRCLE
  8
0
 62
1
 10
15.0
 20
-14.4
 30
0.0
 40
0.1
  0
CIRCLE
  8
0
 62
1
 10
15.0
 20
-22.2
 30
0.0
 40
0.1
  0
CIRCLE
  8
0
 62
1
 10
15.0
 20
-20.2
 30
0.0
 40
0.1
  0
CIRCLE
  8
0
 62
1
 10
15.0
 20
-19.65
 30
0.0
 40
0.1
  0
CIRCLE
  8
0
 62
1
 10
15.0
 20
-19.05
 30
0.0
 40
0.1
  0
CIRCLE
  8
0
 62
1
 10
15.0
 20
-18.4
 30
0.0
 40
0.1
  0
CIRCLE
  8
0
 62
1
 10
15.0
 20
-17.7
 30
0.0
 40
0.1
  0
CIRCLE
  8
0
 62
1
 10
15.0
 20
-16.95
 30
0.0
 40
0.1
  0
CIRCLE
  8
0
 62
1
 10
15.0
 20
-16.15
 30
0.0
 40
0.1
  0
CIRCLE
  8
0
 62
1
 10
15.0
 20
-8.85
 30
0.0
 40
0.1
  0
CIRCLE
  8
0
 62
1
 10
15.0
 20
-15.3
 30
0.0
 40
0.1
  0
CIRCLE
  8
0
 62
1
 10
15.0
 20
-13.45
 30
0.0
 40
0.1
  0
CIRCLE
  8
0
 62
1
 10
15.0
 20
-12.45
 30
0.0
 40
0.1
  0
CIRCLE
  8
0
 62
1
 10
15.0
 20
-11.35
 30
0.0
 40
0.1
  0
CIRCLE
  8
0
 62
1
 10
15.0
 20
-10.15
 30
0.0
 40
0.1
  0
CIRCLE
  8
0
 62
1
 10
15.0
 20
1.05
 30
0.0
 40
0.1
  0
CIRCLE
  8
0
 62
1
 10
15.0
 20
-7.45
 30
0.0
 40
0.1
  0
CIRCLE
  8
0
 62
1
 10
15.0
 20
-5.95
 30
0.0
 40
0.1
  0
CIRCLE
  8
0
 62
1
 10
15.0
 20
-4.35
 30
0.0
 40
0.1
  0
CIRCLE
  8
0
 62
1
 10
15.0
 20
-2.65
 30
0.0
 40
0.1
  0
CIRCLE
  8
0
 62
1
 10
15.0
 20
-0.85
 30
0.0
 40
0.1
  0
CIRCLE
  8
0
 62
1
 10
15.0
 20
-21.15
 30
0.0
 40
0.1
  0
CIRCLE
  8
0
 62
1
 10
15.0
 20
-20.7
 30
0.0
 40
0.1
  0
CIRCLE
  8
0
 62
1
 10
15.0
 20
-21.9
 30
0.0
 40
0.1
  0
CIRCLE
  8
0
 62
1
 10
15.0
 20
-21.55
 30
0.0
 40
0.1
  0
CIRCLE
  8
0
 62
1
 10
15.0
 20
3.05
 30
0.0
 40
0.1
  0
CIRCLE
  8
0
 62
1
 10
15.0
 20
5.1
 30
0.0
 40
0.1
  0
CIRCLE
  8
0
 62
1
 10
15.0
 20
7.2
 30
0.0
 40
0.100101
  0
CIRCLE
  8
0
 62
1
 10
15.0
 20
9.35
 30
0.0
 40
0.1
  0
CIRCLE
  8
0
 62
1
 10
15.0
 20
11.55
 30
0.0
 40
0.1
  0
CIRCLE
  8
0
 62
1
 10
15.0
 20
13.8
 30
0.0
 40
0.1
  0
CIRCLE
  8
0
 62
1
 10
15.0
 20
16.1
 30
0.0
 40
0.1
  0
CIRCLE
  8
0
 62
1
 10
15.0
 20
18.45
 30
0.0
 40
0.1
  0
CIRCLE
  8
0
 62
1
 10
15.0
 20
20.85
 30
0.0
 40
0.1
  0
CIRCLE
  8
0
 62
1
 10
15.5
 20
-14.4
 30
0.0
 40
0.1
  0
CIRCLE
  8
0
 62
1
 10
15.5
 20
-22.2
 30
0.0
 40
0.1
  0
CIRCLE
  8
0
 62
1
 10
15.5
 20
-20.2
 30
0.0
 40
0.1
  0
CIRCLE
  8
0
 62
1
 10
15.5
 20
-19.65
 30
0.0
 40
0.1
  0
CIRCLE
  8
0
 62
1
 10
15.5
 20
-19.05
 30
0.0
 40
0.1
  0
CIRCLE
  8
0
 62
1
 10
15.5
 20
-18.4
 30
0.0
 40
0.1
  0
CIRCLE
  8
0
 62
1
 10
15.5
 20
-17.7
 30
0.0
 40
0.1
  0
CIRCLE
  8
0
 62
1
 10
15.5
 20
-16.95
 30
0.0
 40
0.1
  0
CIRCLE
  8
0
 62
1
 10
15.5
 20
-16.15
 30
0.0
 40
0.1
  0
CIRCLE
  8
0
 62
1
 10
15.5
 20
-8.85
 30
0.0
 40
0.1
  0
CIRCLE
  8
0
 62
1
 10
15.5
 20
-15.3
 30
0.0
 40
0.1
  0
CIRCLE
  8
0
 62
1
 10
15.5
 20
-13.45
 30
0.0
 40
0.1
  0
CIRCLE
  8
0
 62
1
 10
15.5
 20
-12.45
 30
0.0
 40
0.1
  0
CIRCLE
  8
0
 62
1
 10
15.5
 20
-11.35
 30
0.0
 40
0.1
  0
CIRCLE
  8
0
 62
1
 10
15.5
 20
-10.15
 30
0.0
 40
0.1
  0
CIRCLE
  8
0
 62
1
 10
15.5
 20
1.05
 30
0.0
 40
0.1
  0
CIRCLE
  8
0
 62
1
 10
15.5
 20
-7.45
 30
0.0
 40
0.1
  0
CIRCLE
  8
0
 62
1
 10
15.5
 20
-5.95
 30
0.0
 40
0.1
  0
CIRCLE
  8
0
 62
1
 10
15.5
 20
-4.35
 30
0.0
 40
0.1
  0
CIRCLE
  8
0
 62
1
 10
15.5
 20
-2.65
 30
0.0
 40
0.1
  0
CIRCLE
  8
0
 62
1
 10
15.5
 20
-0.85
 30
0.0
 40
0.1
  0
CIRCLE
  8
0
 62
1
 10
15.5
 20
-21.15
 30
0.0
 40
0.1
  0
CIRCLE
  8
0
 62
1
 10
15.5
 20
-20.7
 30
0.0
 40
0.1
  0
CIRCLE
  8
0
 62
1
 10
15.5
 20
-21.9
 30
0.0
 40
0.1
  0
CIRCLE
  8
0
 62
1
 10
15.5
 20
-21.55
 30
0.0
 40
0.1
  0
CIRCLE
  8
0
 62
1
 10
15.5
 20
3.05
 30
0.0
 40
0.1
  0
CIRCLE
  8
0
 62
1
 10
15.5
 20
5.1
 30
0.0
 40
0.1
  0
CIRCLE
  8
0
 62
1
 10
15.5
 20
7.2
 30
0.0
 40
0.100101
  0
CIRCLE
  8
0
 62
1
 10
15.5
 20
9.35
 30
0.0
 40
0.1
  0
CIRCLE
  8
0
 62
1
 10
15.5
 20
11.55
 30
0.0
 40
0.1
  0
CIRCLE
  8
0
 62
1
 10
15.5
 20
13.8
 30
0.0
 40
0.1
  0
CIRCLE
  8
0
 62
1
 10
15.5
 20
16.1
 30
0.0
 40
0.1
  0
CIRCLE
  8
0
 62
1
 10
15.5
 20
18.45
 30
0.0
 40
0.1
  0
CIRCLE
  8
0
 62
1
 10
15.5
 20
20.85
 30
0.0
 40
0.1
  0
CIRCLE
  8
0
 62
1
 10
16.0
 20
-14.4
 30
0.0
 40
0.1
  0
CIRCLE
  8
0
 62
1
 10
16.0
 20
-22.2
 30
0.0
 40
0.1
  0
CIRCLE
  8
0
 62
1
 10
16.0
 20
-20.2
 30
0.0
 40
0.1
  0
CIRCLE
  8
0
 62
1
 10
16.0
 20
-19.65
 30
0.0
 40
0.1
  0
CIRCLE
  8
0
 62
1
 10
16.0
 20
-19.05
 30
0.0
 40
0.1
  0
CIRCLE
  8
0
 62
1
 10
16.0
 20
-18.4
 30
0.0
 40
0.1
  0
CIRCLE
  8
0
 62
1
 10
16.0
 20
-17.7
 30
0.0
 40
0.1
  0
CIRCLE
  8
0
 62
1
 10
16.0
 20
-16.95
 30
0.0
 40
0.1
  0
CIRCLE
  8
0
 62
1
 10
16.0
 20
-16.15
 30
0.0
 40
0.1
  0
CIRCLE
  8
0
 62
1
 10
16.0
 20
-8.85
 30
0.0
 40
0.1
  0
CIRCLE
  8
0
 62
1
 10
16.0
 20
-15.3
 30
0.0
 40
0.1
  0
CIRCLE
  8
0
 62
1
 10
16.0
 20
-13.45
 30
0.0
 40
0.1
  0
CIRCLE
  8
0
 62
1
 10
16.0
 20
-12.45
 30
0.0
 40
0.1
  0
CIRCLE
  8
0
 62
1
 10
16.0
 20
-11.35
 30
0.0
 40
0.1
  0
CIRCLE
  8
0
 62
1
 10
16.0
 20
-10.15
 30
0.0
 40
0.1
  0
CIRCLE
  8
0
 62
1
 10
16.0
 20
1.05
 30
0.0
 40
0.1
  0
CIRCLE
  8
0
 62
1
 10
16.0
 20
-7.45
 30
0.0
 40
0.1
  0
CIRCLE
  8
0
 62
1
 10
16.0
 20
-5.95
 30
0.0
 40
0.1
  0
CIRCLE
  8
0
 62
1
 10
16.0
 20
-4.35
 30
0.0
 40
0.1
  0
CIRCLE
  8
0
 62
1
 10
16.0
 20
-2.65
 30
0.0
 40
0.1
  0
CIRCLE
  8
0
 62
1
 10
16.0
 20
-0.85
 30
0.0
 40
0.1
  0
CIRCLE
  8
0
 62
1
 10
16.0
 20
-21.15
 30
0.0
 40
0.1
  0
CIRCLE
  8
0
 62
1
 10
16.0
 20
-20.7
 30
0.0
 40
0.1
  0
CIRCLE
  8
0
 62
1
 10
16.0
 20
-21.9
 30
0.0
 40
0.1
  0
CIRCLE
  8
0
 62
1
 10
16.0
 20
-21.55
 30
0.0
 40
0.1
  0
CIRCLE
  8
0
 62
1
 10
16.0
 20
3.05
 30
0.0
 40
0.1
  0
CIRCLE
  8
0
 62
1
 10
16.0
 20
5.1
 30
0.0
 40
0.1
  0
CIRCLE
  8
0
 62
1
 10
16.0
 20
7.2
 30
0.0
 40
0.100101
  0
CIRCLE
  8
0
 62
1
 10
16.0
 20
9.35
 30
0.0
 40
0.1
  0
CIRCLE
  8
0
 62
1
 10
16.0
 20
11.55
 30
0.0
 40
0.1
  0
CIRCLE
  8
0
 62
1
 10
16.0
 20
13.8
 30
0.0
 40
0.1
  0
CIRCLE
  8
0
 62
1
 10
16.0
 20
16.1
 30
0.0
 40
0.1
  0
CIRCLE
  8
0
 62
1
 10
16.0
 20
18.45
 30
0.0
 40
0.1
  0
CIRCLE
  8
0
 62
1
 10
16.0
 20
20.85
 30
0.0
 40
0.1
  0
CIRCLE
  8
0
 62
1
 10
16.5
 20
-14.4
 30
0.0
 40
0.1
  0
CIRCLE
  8
0
 62
1
 10
16.5
 20
-22.2
 30
0.0
 40
0.1
  0
CIRCLE
  8
0
 62
1
 10
16.5
 20
-20.2
 30
0.0
 40
0.1
  0
CIRCLE
  8
0
 62
1
 10
16.5
 20
-19.65
 30
0.0
 40
0.1
  0
CIRCLE
  8
0
 62
1
 10
16.5
 20
-19.05
 30
0.0
 40
0.1
  0
CIRCLE
  8
0
 62
1
 10
16.5
 20
-18.4
 30
0.0
 40
0.1
  0
CIRCLE
  8
0
 62
1
 10
16.5
 20
-17.7
 30
0.0
 40
0.1
  0
CIRCLE
  8
0
 62
1
 10
16.5
 20
-16.95
 30
0.0
 40
0.1
  0
CIRCLE
  8
0
 62
1
 10
16.5
 20
-16.15
 30
0.0
 40
0.1
  0
CIRCLE
  8
0
 62
1
 10
16.5
 20
-8.85
 30
0.0
 40
0.1
  0
CIRCLE
  8
0
 62
1
 10
16.5
 20
-15.3
 30
0.0
 40
0.1
  0
CIRCLE
  8
0
 62
1
 10
16.5
 20
-13.45
 30
0.0
 40
0.1
  0
CIRCLE
  8
0
 62
1
 10
16.5
 20
-12.45
 30
0.0
 40
0.1
  0
CIRCLE
  8
0
 62
1
 10
16.5
 20
-11.35
 30
0.0
 40
0.1
  0
CIRCLE
  8
0
 62
1
 10
16.5
 20
-10.15
 30
0.0
 40
0.1
  0
CIRCLE
  8
0
 62
1
 10
16.5
 20
1.05
 30
0.0
 40
0.1
  0
CIRCLE
  8
0
 62
1
 10
16.5
 20
-7.45
 30
0.0
 40
0.1
  0
CIRCLE
  8
0
 62
1
 10
16.5
 20
-5.95
 30
0.0
 40
0.1
  0
CIRCLE
  8
0
 62
1
 10
16.5
 20
-4.35
 30
0.0
 40
0.1
  0
CIRCLE
  8
0
 62
1
 10
16.5
 20
-2.65
 30
0.0
 40
0.1
  0
CIRCLE
  8
0
 62
1
 10
16.5
 20
-0.85
 30
0.0
 40
0.1
  0
CIRCLE
  8
0
 62
1
 10
16.5
 20
-21.15
 30
0.0
 40
0.1
  0
CIRCLE
  8
0
 62
1
 10
16.5
 20
-20.7
 30
0.0
 40
0.1
  0
CIRCLE
  8
0
 62
1
 10
16.5
 20
-21.9
 30
0.0
 40
0.1
  0
CIRCLE
  8
0
 62
1
 10
16.5
 20
-21.55
 30
0.0
 40
0.1
  0
CIRCLE
  8
0
 62
1
 10
16.5
 20
3.05
 30
0.0
 40
0.1
  0
CIRCLE
  8
0
 62
1
 10
16.5
 20
5.1
 30
0.0
 40
0.1
  0
CIRCLE
  8
0
 62
1
 10
16.5
 20
7.2
 30
0.0
 40
0.100101
  0
CIRCLE
  8
0
 62
1
 10
16.5
 20
9.35
 30
0.0
 40
0.1
  0
CIRCLE
  8
0
 62
1
 10
16.5
 20
11.55
 30
0.0
 40
0.1
  0
CIRCLE
  8
0
 62
1
 10
16.5
 20
13.8
 30
0.0
 40
0.1
  0
CIRCLE
  8
0
 62
1
 10
16.5
 20
16.1
 30
0.0
 40
0.1
  0
CIRCLE
  8
0
 62
1
 10
16.5
 20
18.45
 30
0.0
 40
0.1
  0
CIRCLE
  8
0
 62
1
 10
16.5
 20
20.85
 30
0.0
 40
0.1
  0
CIRCLE
  8
0
 62
1
 10
17.0
 20
-14.4
 30
0.0
 40
0.1
  0
CIRCLE
  8
0
 62
1
 10
17.0
 20
-22.2
 30
0.0
 40
0.1
  0
CIRCLE
  8
0
 62
1
 10
17.0
 20
-20.2
 30
0.0
 40
0.1
  0
CIRCLE
  8
0
 62
1
 10
17.0
 20
-19.65
 30
0.0
 40
0.1
  0
CIRCLE
  8
0
 62
1
 10
17.0
 20
-19.05
 30
0.0
 40
0.1
  0
CIRCLE
  8
0
 62
1
 10
17.0
 20
-18.4
 30
0.0
 40
0.1
  0
CIRCLE
  8
0
 62
1
 10
17.0
 20
-17.7
 30
0.0
 40
0.1
  0
CIRCLE
  8
0
 62
1
 10
17.0
 20
-16.95
 30
0.0
 40
0.1
  0
CIRCLE
  8
0
 62
1
 10
17.0
 20
-16.15
 30
0.0
 40
0.1
  0
CIRCLE
  8
0
 62
1
 10
17.0
 20
-8.85
 30
0.0
 40
0.1
  0
CIRCLE
  8
0
 62
1
 10
17.0
 20
-15.3
 30
0.0
 40
0.1
  0
CIRCLE
  8
0
 62
1
 10
17.0
 20
-13.45
 30
0.0
 40
0.1
  0
CIRCLE
  8
0
 62
1
 10
17.0
 20
-12.45
 30
0.0
 40
0.1
  0
CIRCLE
  8
0
 62
1
 10
17.0
 20
-11.35
 30
0.0
 40
0.1
  0
CIRCLE
  8
0
 62
1
 10
17.0
 20
-10.15
 30
0.0
 40
0.1
  0
CIRCLE
  8
0
 62
1
 10
17.0
 20
1.05
 30
0.0
 40
0.1
  0
CIRCLE
  8
0
 62
1
 10
17.0
 20
-7.45
 30
0.0
 40
0.1
  0
CIRCLE
  8
0
 62
1
 10
17.0
 20
-5.95
 30
0.0
 40
0.1
  0
CIRCLE
  8
0
 62
1
 10
17.0
 20
-4.35
 30
0.0
 40
0.1
  0
CIRCLE
  8
0
 62
1
 10
17.0
 20
-2.65
 30
0.0
 40
0.1
  0
CIRCLE
  8
0
 62
1
 10
17.0
 20
-0.85
 30
0.0
 40
0.1
  0
CIRCLE
  8
0
 62
1
 10
17.0
 20
-21.15
 30
0.0
 40
0.1
  0
CIRCLE
  8
0
 62
1
 10
17.0
 20
-20.7
 30
0.0
 40
0.1
  0
CIRCLE
  8
0
 62
1
 10
17.0
 20
-21.9
 30
0.0
 40
0.1
  0
CIRCLE
  8
0
 62
1
 10
17.0
 20
-21.55
 30
0.0
 40
0.1
  0
CIRCLE
  8
0
 62
1
 10
17.0
 20
3.05
 30
0.0
 40
0.1
  0
CIRCLE
  8
0
 62
1
 10
17.0
 20
5.1
 30
0.0
 40
0.1
  0
CIRCLE
  8
0
 62
1
 10
17.0
 20
7.2
 30
0.0
 40
0.100101
  0
CIRCLE
  8
0
 62
1
 10
17.0
 20
9.35
 30
0.0
 40
0.1
  0
CIRCLE
  8
0
 62
1
 10
17.0
 20
11.55
 30
0.0
 40
0.1
  0
CIRCLE
  8
0
 62
1
 10
17.0
 20
13.8
 30
0.0
 40
0.1
  0
CIRCLE
  8
0
 62
1
 10
17.0
 20
16.1
 30
0.0
 40
0.1
  0
CIRCLE
  8
0
 62
1
 10
17.0
 20
18.45
 30
0.0
 40
0.1
  0
CIRCLE
  8
0
 62
1
 10
17.0
 20
20.85
 30
0.0
 40
0.1
  0
CIRCLE
  8
0
 62
1
 10
17.5
 20
-14.4
 30
0.0
 40
0.1
  0
CIRCLE
  8
0
 62
1
 10
17.5
 20
-22.2
 30
0.0
 40
0.1
  0
CIRCLE
  8
0
 62
1
 10
17.5
 20
-20.2
 30
0.0
 40
0.1
  0
CIRCLE
  8
0
 62
1
 10
17.5
 20
-19.65
 30
0.0
 40
0.1
  0
CIRCLE
  8
0
 62
1
 10
17.5
 20
-19.05
 30
0.0
 40
0.1
  0
CIRCLE
  8
0
 62
1
 10
17.5
 20
-18.4
 30
0.0
 40
0.1
  0
CIRCLE
  8
0
 62
1
 10
17.5
 20
-17.7
 30
0.0
 40
0.1
  0
CIRCLE
  8
0
 62
1
 10
17.5
 20
-16.95
 30
0.0
 40
0.1
  0
CIRCLE
  8
0
 62
1
 10
17.5
 20
-16.15
 30
0.0
 40
0.1
  0
CIRCLE
  8
0
 62
1
 10
17.5
 20
-8.85
 30
0.0
 40
0.1
  0
CIRCLE
  8
0
 62
1
 10
17.5
 20
-15.3
 30
0.0
 40
0.1
  0
CIRCLE
  8
0
 62
1
 10
17.5
 20
-13.45
 30
0.0
 40
0.1
  0
CIRCLE
  8
0
 62
1
 10
17.5
 20
-12.45
 30
0.0
 40
0.1
  0
CIRCLE
  8
0
 62
1
 10
17.5
 20
-11.35
 30
0.0
 40
0.1
  0
CIRCLE
  8
0
 62
1
 10
17.5
 20
-10.15
 30
0.0
 40
0.1
  0
CIRCLE
  8
0
 62
1
 10
17.5
 20
1.05
 30
0.0
 40
0.1
  0
CIRCLE
  8
0
 62
1
 10
17.5
 20
-7.45
 30
0.0
 40
0.1
  0
CIRCLE
  8
0
 62
1
 10
17.5
 20
-5.95
 30
0.0
 40
0.1
  0
CIRCLE
  8
0
 62
1
 10
17.5
 20
-4.35
 30
0.0
 40
0.1
  0
CIRCLE
  8
0
 62
1
 10
17.5
 20
-2.65
 30
0.0
 40
0.1
  0
CIRCLE
  8
0
 62
1
 10
17.5
 20
-0.85
 30
0.0
 40
0.1
  0
CIRCLE
  8
0
 62
1
 10
17.5
 20
-21.15
 30
0.0
 40
0.1
  0
CIRCLE
  8
0
 62
1
 10
17.5
 20
-20.7
 30
0.0
 40
0.1
  0
CIRCLE
  8
0
 62
1
 10
17.5
 20
-21.9
 30
0.0
 40
0.1
  0
CIRCLE
  8
0
 62
1
 10
17.5
 20
-21.55
 30
0.0
 40
0.1
  0
CIRCLE
  8
0
 62
1
 10
17.5
 20
3.05
 30
0.0
 40
0.1
  0
CIRCLE
  8
0
 62
1
 10
17.5
 20
5.1
 30
0.0
 40
0.1
  0
CIRCLE
  8
0
 62
1
 10
17.5
 20
7.2
 30
0.0
 40
0.100101
  0
CIRCLE
  8
0
 62
1
 10
17.5
 20
9.35
 30
0.0
 40
0.1
  0
CIRCLE
  8
0
 62
1
 10
17.5
 20
11.55
 30
0.0
 40
0.1
  0
CIRCLE
  8
0
 62
1
 10
17.5
 20
13.8
 30
0.0
 40
0.1
  0
CIRCLE
  8
0
 62
1
 10
17.5
 20
16.1
 30
0.0
 40
0.1
  0
CIRCLE
  8
0
 62
1
 10
17.5
 20
18.45
 30
0.0
 40
0.1
  0
CIRCLE
  8
0
 62
1
 10
17.5
 20
20.85
 30
0.0
 40
0.1
  0
CIRCLE
  8
0
 62
1
 10
18.0
 20
-14.4
 30
0.0
 40
0.1
  0
CIRCLE
  8
0
 62
1
 10
18.0
 20
-20.2
 30
0.0
 40
0.1
  0
CIRCLE
  8
0
 62
1
 10
18.0
 20
-19.65
 30
0.0
 40
0.1
  0
CIRCLE
  8
0
 62
1
 10
18.0
 20
-19.05
 30
0.0
 40
0.1
  0
CIRCLE
  8
0
 62
1
 10
18.0
 20
-18.4
 30
0.0
 40
0.1
  0
CIRCLE
  8
0
 62
1
 10
18.0
 20
-17.7
 30
0.0
 40
0.1
  0
CIRCLE
  8
0
 62
1
 10
18.0
 20
-16.95
 30
0.0
 40
0.1
  0
CIRCLE
  8
0
 62
1
 10
18.0
 20
-16.15
 30
0.0
 40
0.1
  0
CIRCLE
  8
0
 62
1
 10
18.0
 20
-8.85
 30
0.0
 40
0.1
  0
CIRCLE
  8
0
 62
1
 10
18.0
 20
-15.3
 30
0.0
 40
0.1
  0
CIRCLE
  8
0
 62
1
 10
18.0
 20
-13.45
 30
0.0
 40
0.1
  0
CIRCLE
  8
0
 62
1
 10
18.0
 20
-12.45
 30
0.0
 40
0.1
  0
CIRCLE
  8
0
 62
1
 10
18.0
 20
-11.35
 30
0.0
 40
0.1
  0
CIRCLE
  8
0
 62
1
 10
18.0
 20
-10.15
 30
0.0
 40
0.1
  0
CIRCLE
  8
0
 62
1
 10
18.0
 20
1.05
 30
0.0
 40
0.1
  0
CIRCLE
  8
0
 62
1
 10
18.0
 20
-7.45
 30
0.0
 40
0.1
  0
CIRCLE
  8
0
 62
1
 10
18.0
 20
-5.95
 30
0.0
 40
0.1
  0
CIRCLE
  8
0
 62
1
 10
18.0
 20
-4.35
 30
0.0
 40
0.1
  0
CIRCLE
  8
0
 62
1
 10
18.0
 20
-2.65
 30
0.0
 40
0.1
  0
CIRCLE
  8
0
 62
1
 10
18.0
 20
-0.85
 30
0.0
 40
0.1
  0
CIRCLE
  8
0
 62
1
 10
18.0
 20
-21.15
 30
0.0
 40
0.1
  0
CIRCLE
  8
0
 62
1
 10
18.0
 20
-20.7
 30
0.0
 40
0.1
  0
CIRCLE
  8
0
 62
1
 10
18.0
 20
-21.9
 30
0.0
 40
0.1
  0
CIRCLE
  8
0
 62
1
 10
18.0
 20
-21.55
 30
0.0
 40
0.1
  0
CIRCLE
  8
0
 62
1
 10
18.0
 20
3.05
 30
0.0
 40
0.1
  0
CIRCLE
  8
0
 62
1
 10
18.0
 20
5.1
 30
0.0
 40
0.1
  0
CIRCLE
  8
0
 62
1
 10
18.0
 20
7.2
 30
0.0
 40
0.100101
  0
CIRCLE
  8
0
 62
1
 10
18.0
 20
9.35
 30
0.0
 40
0.1
  0
CIRCLE
  8
0
 62
1
 10
18.0
 20
11.55
 30
0.0
 40
0.1
  0
CIRCLE
  8
0
 62
1
 10
18.0
 20
13.8
 30
0.0
 40
0.1
  0
CIRCLE
  8
0
 62
1
 10
18.0
 20
16.1
 30
0.0
 40
0.1
  0
CIRCLE
  8
0
 62
1
 10
18.0
 20
18.45
 30
0.0
 40
0.1
  0
CIRCLE
  8
0
 62
1
 10
18.0
 20
20.85
 30
0.0
 40
0.1
  0
CIRCLE
  8
0
 62
1
 10
18.5
 20
-14.4
 30
0.0
 40
0.1
  0
CIRCLE
  8
0
 62
1
 10
18.5
 20
-20.2
 30
0.0
 40
0.1
  0
CIRCLE
  8
0
 62
1
 10
18.5
 20
-19.65
 30
0.0
 40
0.1
  0
CIRCLE
  8
0
 62
1
 10
18.5
 20
-19.05
 30
0.0
 40
0.1
  0
CIRCLE
  8
0
 62
1
 10
18.5
 20
-18.4
 30
0.0
 40
0.1
  0
CIRCLE
  8
0
 62
1
 10
18.5
 20
-17.7
 30
0.0
 40
0.1
  0
CIRCLE
  8
0
 62
1
 10
18.5
 20
-16.95
 30
0.0
 40
0.1
  0
CIRCLE
  8
0
 62
1
 10
18.5
 20
-16.15
 30
0.0
 40
0.1
  0
CIRCLE
  8
0
 62
1
 10
18.5
 20
-8.85
 30
0.0
 40
0.1
  0
CIRCLE
  8
0
 62
1
 10
18.5
 20
-15.3
 30
0.0
 40
0.1
  0
CIRCLE
  8
0
 62
1
 10
18.5
 20
-13.45
 30
0.0
 40
0.1
  0
CIRCLE
  8
0
 62
1
 10
18.5
 20
-12.45
 30
0.0
 40
0.1
  0
CIRCLE
  8
0
 62
1
 10
18.5
 20
-11.35
 30
0.0
 40
0.1
  0
CIRCLE
  8
0
 62
1
 10
18.5
 20
-10.15
 30
0.0
 40
0.1
  0
CIRCLE
  8
0
 62
1
 10
18.5
 20
1.05
 30
0.0
 40
0.1
  0
CIRCLE
  8
0
 62
1
 10
18.5
 20
-7.45
 30
0.0
 40
0.1
  0
CIRCLE
  8
0
 62
1
 10
18.5
 20
-5.95
 30
0.0
 40
0.1
  0
CIRCLE
  8
0
 62
1
 10
18.5
 20
-4.35
 30
0.0
 40
0.1
  0
CIRCLE
  8
0
 62
1
 10
18.5
 20
-2.65
 30
0.0
 40
0.1
  0
CIRCLE
  8
0
 62
1
 10
18.5
 20
-0.85
 30
0.0
 40
0.1
  0
CIRCLE
  8
0
 62
1
 10
18.5
 20
-21.15
 30
0.0
 40
0.1
  0
CIRCLE
  8
0
 62
1
 10
18.5
 20
-20.7
 30
0.0
 40
0.1
  0
CIRCLE
  8
0
 62
1
 10
18.5
 20
-21.9
 30
0.0
 40
0.1
  0
CIRCLE
  8
0
 62
1
 10
18.5
 20
-21.55
 30
0.0
 40
0.1
  0
CIRCLE
  8
0
 62
1
 10
18.5
 20
3.05
 30
0.0
 40
0.1
  0
CIRCLE
  8
0
 62
1
 10
18.5
 20
5.1
 30
0.0
 40
0.1
  0
CIRCLE
  8
0
 62
1
 10
18.5
 20
7.2
 30
0.0
 40
0.100101
  0
CIRCLE
  8
0
 62
1
 10
18.5
 20
9.35
 30
0.0
 40
0.1
  0
CIRCLE
  8
0
 62
1
 10
18.5
 20
11.55
 30
0.0
 40
0.1
  0
CIRCLE
  8
0
 62
1
 10
18.5
 20
13.8
 30
0.0
 40
0.1
  0
CIRCLE
  8
0
 62
1
 10
18.5
 20
16.1
 30
0.0
 40
0.1
  0
CIRCLE
  8
0
 62
1
 10
18.5
 20
18.45
 30
0.0
 40
0.1
  0
CIRCLE
  8
0
 62
1
 10
18.5
 20
20.85
 30
0.0
 40
0.1
  0
CIRCLE
  8
0
 62
1
 10
19.0
 20
-14.4
 30
0.0
 40
0.1
  0
CIRCLE
  8
0
 62
1
 10
19.0
 20
-20.2
 30
0.0
 40
0.1
  0
CIRCLE
  8
0
 62
1
 10
19.0
 20
-19.65
 30
0.0
 40
0.1
  0
CIRCLE
  8
0
 62
1
 10
19.0
 20
-19.05
 30
0.0
 40
0.1
  0
CIRCLE
  8
0
 62
1
 10
19.0
 20
-18.4
 30
0.0
 40
0.1
  0
CIRCLE
  8
0
 62
1
 10
19.0
 20
-17.7
 30
0.0
 40
0.1
  0
CIRCLE
  8
0
 62
1
 10
19.0
 20
-16.95
 30
0.0
 40
0.1
  0
CIRCLE
  8
0
 62
1
 10
19.0
 20
-16.15
 30
0.0
 40
0.1
  0
CIRCLE
  8
0
 62
1
 10
19.0
 20
-8.85
 30
0.0
 40
0.1
  0
CIRCLE
  8
0
 62
1
 10
19.0
 20
-15.3
 30
0.0
 40
0.1
  0
CIRCLE
  8
0
 62
1
 10
19.0
 20
-13.45
 30
0.0
 40
0.1
  0
CIRCLE
  8
0
 62
1
 10
19.0
 20
-12.45
 30
0.0
 40
0.1
  0
CIRCLE
  8
0
 62
1
 10
19.0
 20
-11.35
 30
0.0
 40
0.1
  0
CIRCLE
  8
0
 62
1
 10
19.0
 20
-10.15
 30
0.0
 40
0.1
  0
CIRCLE
  8
0
 62
1
 10
19.0
 20
1.05
 30
0.0
 40
0.1
  0
CIRCLE
  8
0
 62
1
 10
19.0
 20
-7.45
 30
0.0
 40
0.1
  0
CIRCLE
  8
0
 62
1
 10
19.0
 20
-5.95
 30
0.0
 40
0.1
  0
CIRCLE
  8
0
 62
1
 10
19.0
 20
-4.35
 30
0.0
 40
0.1
  0
CIRCLE
  8
0
 62
1
 10
19.0
 20
-2.65
 30
0.0
 40
0.1
  0
CIRCLE
  8
0
 62
1
 10
19.0
 20
-0.85
 30
0.0
 40
0.1
  0
CIRCLE
  8
0
 62
1
 10
19.0
 20
-21.15
 30
0.0
 40
0.1
  0
CIRCLE
  8
0
 62
1
 10
19.0
 20
-20.7
 30
0.0
 40
0.1
  0
CIRCLE
  8
0
 62
1
 10
19.0
 20
-21.9
 30
0.0
 40
0.1
  0
CIRCLE
  8
0
 62
1
 10
19.0
 20
-21.55
 30
0.0
 40
0.1
  0
CIRCLE
  8
0
 62
1
 10
19.0
 20
3.05
 30
0.0
 40
0.1
  0
CIRCLE
  8
0
 62
1
 10
19.0
 20
5.1
 30
0.0
 40
0.1
  0
CIRCLE
  8
0
 62
1
 10
19.0
 20
7.2
 30
0.0
 40
0.100101
  0
CIRCLE
  8
0
 62
1
 10
19.0
 20
9.35
 30
0.0
 40
0.1
  0
CIRCLE
  8
0
 62
1
 10
19.0
 20
11.55
 30
0.0
 40
0.1
  0
CIRCLE
  8
0
 62
1
 10
19.0
 20
13.8
 30
0.0
 40
0.1
  0
CIRCLE
  8
0
 62
1
 10
19.0
 20
16.1
 30
0.0
 40
0.1
  0
CIRCLE
  8
0
 62
1
 10
19.0
 20
18.45
 30
0.0
 40
0.1
  0
CIRCLE
  8
0
 62
1
 10
19.0
 20
20.85
 30
0.0
 40
0.1
  0
CIRCLE
  8
0
 62
1
 10
19.5
 20
-14.4
 30
0.0
 40
0.1
  0
CIRCLE
  8
0
 62
1
 10
19.5
 20
-20.2
 30
0.0
 40
0.1
  0
CIRCLE
  8
0
 62
1
 10
19.5
 20
-19.65
 30
0.0
 40
0.1
  0
CIRCLE
  8
0
 62
1
 10
19.5
 20
-19.05
 30
0.0
 40
0.1
  0
CIRCLE
  8
0
 62
1
 10
19.5
 20
-18.4
 30
0.0
 40
0.1
  0
CIRCLE
  8
0
 62
1
 10
19.5
 20
-17.7
 30
0.0
 40
0.1
  0
CIRCLE
  8
0
 62
1
 10
19.5
 20
-16.95
 30
0.0
 40
0.1
  0
CIRCLE
  8
0
 62
1
 10
19.5
 20
-16.15
 30
0.0
 40
0.1
  0
CIRCLE
  8
0
 62
1
 10
19.5
 20
-8.85
 30
0.0
 40
0.1
  0
CIRCLE
  8
0
 62
1
 10
19.5
 20
-15.3
 30
0.0
 40
0.1
  0
CIRCLE
  8
0
 62
1
 10
19.5
 20
-13.45
 30
0.0
 40
0.1
  0
CIRCLE
  8
0
 62
1
 10
19.5
 20
-12.45
 30
0.0
 40
0.1
  0
CIRCLE
  8
0
 62
1
 10
19.5
 20
-11.35
 30
0.0
 40
0.1
  0
CIRCLE
  8
0
 62
1
 10
19.5
 20
-10.15
 30
0.0
 40
0.1
  0
CIRCLE
  8
0
 62
1
 10
19.5
 20
1.05
 30
0.0
 40
0.1
  0
CIRCLE
  8
0
 62
1
 10
19.5
 20
-7.45
 30
0.0
 40
0.1
  0
CIRCLE
  8
0
 62
1
 10
19.5
 20
-5.95
 30
0.0
 40
0.1
  0
CIRCLE
  8
0
 62
1
 10
19.5
 20
-4.35
 30
0.0
 40
0.1
  0
CIRCLE
  8
0
 62
1
 10
19.5
 20
-2.65
 30
0.0
 40
0.1
  0
CIRCLE
  8
0
 62
1
 10
19.5
 20
-0.85
 30
0.0
 40
0.1
  0
CIRCLE
  8
0
 62
1
 10
19.5
 20
-21.15
 30
0.0
 40
0.1
  0
CIRCLE
  8
0
 62
1
 10
19.5
 20
-20.7
 30
0.0
 40
0.1
  0
CIRCLE
  8
0
 62
1
 10
19.5
 20
-21.55
 30
0.0
 40
0.1
  0
CIRCLE
  8
0
 62
1
 10
19.5
 20
3.05
 30
0.0
 40
0.1
  0
CIRCLE
  8
0
 62
1
 10
19.5
 20
5.1
 30
0.0
 40
0.1
  0
CIRCLE
  8
0
 62
1
 10
19.5
 20
7.2
 30
0.0
 40
0.100101
  0
CIRCLE
  8
0
 62
1
 10
19.5
 20
9.35
 30
0.0
 40
0.1
  0
CIRCLE
  8
0
 62
1
 10
19.5
 20
11.55
 30
0.0
 40
0.1
  0
CIRCLE
  8
0
 62
1
 10
19.5
 20
13.8
 30
0.0
 40
0.1
  0
CIRCLE
  8
0
 62
1
 10
19.5
 20
16.1
 30
0.0
 40
0.1
  0
CIRCLE
  8
0
 62
1
 10
19.5
 20
18.45
 30
0.0
 40
0.1
  0
CIRCLE
  8
0
 62
1
 10
19.5
 20
20.85
 30
0.0
 40
0.1
  0
CIRCLE
  8
0
 62
1
 10
20.0
 20
-14.4
 30
0.0
 40
0.1
  0
CIRCLE
  8
0
 62
1
 10
20.0
 20
-20.2
 30
0.0
 40
0.1
  0
CIRCLE
  8
0
 62
1
 10
20.0
 20
-19.65
 30
0.0
 40
0.1
  0
CIRCLE
  8
0
 62
1
 10
20.0
 20
-19.05
 30
0.0
 40
0.1
  0
CIRCLE
  8
0
 62
1
 10
20.0
 20
-18.4
 30
0.0
 40
0.1
  0
CIRCLE
  8
0
 62
1
 10
20.0
 20
-17.7
 30
0.0
 40
0.1
  0
CIRCLE
  8
0
 62
1
 10
20.0
 20
-16.95
 30
0.0
 40
0.1
  0
CIRCLE
  8
0
 62
1
 10
20.0
 20
-16.15
 30
0.0
 40
0.1
  0
CIRCLE
  8
0
 62
1
 10
20.0
 20
-8.85
 30
0.0
 40
0.1
  0
CIRCLE
  8
0
 62
1
 10
20.0
 20
-15.3
 30
0.0
 40
0.1
  0
CIRCLE
  8
0
 62
1
 10
20.0
 20
-13.45
 30
0.0
 40
0.1
  0
CIRCLE
  8
0
 62
1
 10
20.0
 20
-12.45
 30
0.0
 40
0.1
  0
CIRCLE
  8
0
 62
1
 10
20.0
 20
-11.35
 30
0.0
 40
0.1
  0
CIRCLE
  8
0
 62
1
 10
20.0
 20
-10.15
 30
0.0
 40
0.1
  0
CIRCLE
  8
0
 62
1
 10
20.0
 20
1.05
 30
0.0
 40
0.1
  0
CIRCLE
  8
0
 62
1
 10
20.0
 20
-7.45
 30
0.0
 40
0.1
  0
CIRCLE
  8
0
 62
1
 10
20.0
 20
-5.95
 30
0.0
 40
0.1
  0
CIRCLE
  8
0
 62
1
 10
20.0
 20
-4.35
 30
0.0
 40
0.1
  0
CIRCLE
  8
0
 62
1
 10
20.0
 20
-2.65
 30
0.0
 40
0.1
  0
CIRCLE
  8
0
 62
1
 10
20.0
 20
-0.85
 30
0.0
 40
0.1
  0
CIRCLE
  8
0
 62
1
 10
20.0
 20
-21.15
 30
0.0
 40
0.1
  0
CIRCLE
  8
0
 62
1
 10
20.0
 20
-20.7
 30
0.0
 40
0.1
  0
CIRCLE
  8
0
 62
1
 10
20.0
 20
3.05
 30
0.0
 40
0.1
  0
CIRCLE
  8
0
 62
1
 10
20.0
 20
5.1
 30
0.0
 40
0.1
  0
CIRCLE
  8
0
 62
1
 10
20.0
 20
7.2
 30
0.0
 40
0.100101
  0
CIRCLE
  8
0
 62
1
 10
20.0
 20
9.35
 30
0.0
 40
0.1
  0
CIRCLE
  8
0
 62
1
 10
20.0
 20
11.55
 30
0.0
 40
0.1
  0
CIRCLE
  8
0
 62
1
 10
20.0
 20
13.8
 30
0.0
 40
0.1
  0
CIRCLE
  8
0
 62
1
 10
20.0
 20
16.1
 30
0.0
 40
0.1
  0
CIRCLE
  8
0
 62
1
 10
20.0
 20
18.45
 30
0.0
 40
0.1
  0
CIRCLE
  8
0
 62
1
 10
20.0
 20
20.85
 30
0.0
 40
0.1
  0
CIRCLE
  8
0
 62
1
 10
20.5
 20
-14.4
 30
0.0
 40
0.1
  0
CIRCLE
  8
0
 62
1
 10
20.5
 20
-20.2
 30
0.0
 40
0.1
  0
CIRCLE
  8
0
 62
1
 10
20.5
 20
-19.65
 30
0.0
 40
0.1
  0
CIRCLE
  8
0
 62
1
 10
20.5
 20
-19.05
 30
0.0
 40
0.1
  0
CIRCLE
  8
0
 62
1
 10
20.5
 20
-18.4
 30
0.0
 40
0.1
  0
CIRCLE
  8
0
 62
1
 10
20.5
 20
-17.7
 30
0.0
 40
0.1
  0
CIRCLE
  8
0
 62
1
 10
20.5
 20
-16.95
 30
0.0
 40
0.1
  0
CIRCLE
  8
0
 62
1
 10
20.5
 20
-16.15
 30
0.0
 40
0.1
  0
CIRCLE
  8
0
 62
1
 10
20.5
 20
-8.85
 30
0.0
 40
0.1
  0
CIRCLE
  8
0
 62
1
 10
20.5
 20
-15.3
 30
0.0
 40
0.1
  0
CIRCLE
  8
0
 62
1
 10
20.5
 20
-13.45
 30
0.0
 40
0.1
  0
CIRCLE
  8
0
 62
1
 10
20.5
 20
-12.45
 30
0.0
 40
0.1
  0
CIRCLE
  8
0
 62
1
 10
20.5
 20
-11.35
 30
0.0
 40
0.1
  0
CIRCLE
  8
0
 62
1
 10
20.5
 20
-10.15
 30
0.0
 40
0.1
  0
CIRCLE
  8
0
 62
1
 10
20.5
 20
1.05
 30
0.0
 40
0.1
  0
CIRCLE
  8
0
 62
1
 10
20.5
 20
-7.45
 30
0.0
 40
0.1
  0
CIRCLE
  8
0
 62
1
 10
20.5
 20
-5.95
 30
0.0
 40
0.1
  0
CIRCLE
  8
0
 62
1
 10
20.5
 20
-4.35
 30
0.0
 40
0.1
  0
CIRCLE
  8
0
 62
1
 10
20.5
 20
-2.65
 30
0.0
 40
0.1
  0
CIRCLE
  8
0
 62
1
 10
20.5
 20
-0.85
 30
0.0
 40
0.1
  0
CIRCLE
  8
0
 62
1
 10
20.5
 20
-20.7
 30
0.0
 40
0.1
  0
CIRCLE
  8
0
 62
1
 10
20.5
 20
3.05
 30
0.0
 40
0.1
  0
CIRCLE
  8
0
 62
1
 10
20.5
 20
5.1
 30
0.0
 40
0.1
  0
CIRCLE
  8
0
 62
1
 10
20.5
 20
7.2
 30
0.0
 40
0.100101
  0
CIRCLE
  8
0
 62
1
 10
20.5
 20
9.35
 30
0.0
 40
0.1
  0
CIRCLE
  8
0
 62
1
 10
20.5
 20
11.55
 30
0.0
 40
0.1
  0
CIRCLE
  8
0
 62
1
 10
20.5
 20
13.8
 30
0.0
 40
0.1
  0
CIRCLE
  8
0
 62
1
 10
20.5
 20
16.1
 30
0.0
 40
0.1
  0
CIRCLE
  8
0
 62
1
 10
20.5
 20
18.45
 30
0.0
 40
0.1
  0
CIRCLE
  8
0
 62
1
 10
20.5
 20
20.85
 30
0.0
 40
0.1
  0
CIRCLE
  8
0
 62
1
 10
21.0
 20
-14.4
 30
0.0
 40
0.1
  0
CIRCLE
  8
0
 62
1
 10
21.0
 20
-20.2
 30
0.0
 40
0.1
  0
CIRCLE
  8
0
 62
1
 10
21.0
 20
-19.65
 30
0.0
 40
0.1
  0
CIRCLE
  8
0
 62
1
 10
21.0
 20
-19.05
 30
0.0
 40
0.1
  0
CIRCLE
  8
0
 62
1
 10
21.0
 20
-18.4
 30
0.0
 40
0.1
  0
CIRCLE
  8
0
 62
1
 10
21.0
 20
-17.7
 30
0.0
 40
0.1
  0
CIRCLE
  8
0
 62
1
 10
21.0
 20
-16.95
 30
0.0
 40
0.1
  0
CIRCLE
  8
0
 62
1
 10
21.0
 20
-16.15
 30
0.0
 40
0.1
  0
CIRCLE
  8
0
 62
1
 10
21.0
 20
-8.85
 30
0.0
 40
0.1
  0
CIRCLE
  8
0
 62
1
 10
21.0
 20
-15.3
 30
0.0
 40
0.1
  0
CIRCLE
  8
0
 62
1
 10
21.0
 20
-13.45
 30
0.0
 40
0.1
  0
CIRCLE
  8
0
 62
1
 10
21.0
 20
-12.45
 30
0.0
 40
0.1
  0
CIRCLE
  8
0
 62
1
 10
21.0
 20
-11.35
 30
0.0
 40
0.1
  0
CIRCLE
  8
0
 62
1
 10
21.0
 20
-10.15
 30
0.0
 40
0.1
  0
CIRCLE
  8
0
 62
1
 10
21.0
 20
1.05
 30
0.0
 40
0.1
  0
CIRCLE
  8
0
 62
1
 10
21.0
 20
-7.45
 30
0.0
 40
0.1
  0
CIRCLE
  8
0
 62
1
 10
21.0
 20
-5.95
 30
0.0
 40
0.1
  0
CIRCLE
  8
0
 62
1
 10
21.0
 20
-4.35
 30
0.0
 40
0.1
  0
CIRCLE
  8
0
 62
1
 10
21.0
 20
-2.65
 30
0.0
 40
0.1
  0
CIRCLE
  8
0
 62
1
 10
21.0
 20
-0.85
 30
0.0
 40
0.1
  0
CIRCLE
  8
0
 62
1
 10
21.0
 20
3.05
 30
0.0
 40
0.1
  0
CIRCLE
  8
0
 62
1
 10
21.0
 20
5.1
 30
0.0
 40
0.1
  0
CIRCLE
  8
0
 62
1
 10
21.0
 20
7.2
 30
0.0
 40
0.100101
  0
CIRCLE
  8
0
 62
1
 10
21.0
 20
9.35
 30
0.0
 40
0.1
  0
CIRCLE
  8
0
 62
1
 10
21.0
 20
11.55
 30
0.0
 40
0.1
  0
CIRCLE
  8
0
 62
1
 10
21.0
 20
13.8
 30
0.0
 40
0.1
  0
CIRCLE
  8
0
 62
1
 10
21.0
 20
16.1
 30
0.0
 40
0.1
  0
CIRCLE
  8
0
 62
1
 10
21.0
 20
18.45
 30
0.0
 40
0.1
  0
CIRCLE
  8
0
 62
1
 10
21.5
 20
-14.4
 30
0.0
 40
0.1
  0
CIRCLE
  8
0
 62
1
 10
21.5
 20
-19.65
 30
0.0
 40
0.1
  0
CIRCLE
  8
0
 62
1
 10
21.5
 20
-19.05
 30
0.0
 40
0.1
  0
CIRCLE
  8
0
 62
1
 10
21.5
 20
-18.4
 30
0.0
 40
0.1
  0
CIRCLE
  8
0
 62
1
 10
21.5
 20
-17.7
 30
0.0
 40
0.1
  0
CIRCLE
  8
0
 62
1
 10
21.5
 20
-16.95
 30
0.0
 40
0.1
  0
CIRCLE
  8
0
 62
1
 10
21.5
 20
-16.15
 30
0.0
 40
0.1
  0
CIRCLE
  8
0
 62
1
 10
21.5
 20
-8.85
 30
0.0
 40
0.1
  0
CIRCLE
  8
0
 62
1
 10
21.5
 20
-15.3
 30
0.0
 40
0.1
  0
CIRCLE
  8
0
 62
1
 10
21.5
 20
-13.45
 30
0.0
 40
0.1
  0
CIRCLE
  8
0
 62
1
 10
21.5
 20
-12.45
 30
0.0
 40
0.1
  0
CIRCLE
  8
0
 62
1
 10
21.5
 20
-11.35
 30
0.0
 40
0.1
  0
CIRCLE
  8
0
 62
1
 10
21.5
 20
-10.15
 30
0.0
 40
0.1
  0
CIRCLE
  8
0
 62
1
 10
21.5
 20
1.05
 30
0.0
 40
0.1
  0
CIRCLE
  8
0
 62
1
 10
21.5
 20
-7.45
 30
0.0
 40
0.1
  0
CIRCLE
  8
0
 62
1
 10
21.5
 20
-5.95
 30
0.0
 40
0.1
  0
CIRCLE
  8
0
 62
1
 10
21.5
 20
-4.35
 30
0.0
 40
0.1
  0
CIRCLE
  8
0
 62
1
 10
21.5
 20
-2.65
 30
0.0
 40
0.1
  0
CIRCLE
  8
0
 62
1
 10
21.5
 20
-0.85
 30
0.0
 40
0.1
  0
CIRCLE
  8
0
 62
1
 10
21.5
 20
3.05
 30
0.0
 40
0.1
  0
CIRCLE
  8
0
 62
1
 10
21.5
 20
5.1
 30
0.0
 40
0.1
  0
CIRCLE
  8
0
 62
1
 10
21.5
 20
7.2
 30
0.0
 40
0.100101
  0
CIRCLE
  8
0
 62
1
 10
21.5
 20
9.35
 30
0.0
 40
0.1
  0
CIRCLE
  8
0
 62
1
 10
21.5
 20
11.55
 30
0.0
 40
0.1
  0
CIRCLE
  8
0
 62
1
 10
21.5
 20
13.8
 30
0.0
 40
0.1
  0
CIRCLE
  8
0
 62
1
 10
21.5
 20
16.1
 30
0.0
 40
0.1
  0
CIRCLE
  8
0
 62
1
 10
21.5
 20
18.45
 30
0.0
 40
0.1
  0
CIRCLE
  8
0
 62
1
 10
22.0
 20
-14.4
 30
0.0
 40
0.1
  0
CIRCLE
  8
0
 62
1
 10
22.0
 20
-18.4
 30
0.0
 40
0.1
  0
CIRCLE
  8
0
 62
1
 10
22.0
 20
-17.7
 30
0.0
 40
0.1
  0
CIRCLE
  8
0
 62
1
 10
22.0
 20
-16.95
 30
0.0
 40
0.1
  0
CIRCLE
  8
0
 62
1
 10
22.0
 20
-16.15
 30
0.0
 40
0.1
  0
CIRCLE
  8
0
 62
1
 10
22.0
 20
-8.85
 30
0.0
 40
0.1
  0
CIRCLE
  8
0
 62
1
 10
22.0
 20
-15.3
 30
0.0
 40
0.1
  0
CIRCLE
  8
0
 62
1
 10
22.0
 20
-13.45
 30
0.0
 40
0.1
  0
CIRCLE
  8
0
 62
1
 10
22.0
 20
-12.45
 30
0.0
 40
0.1
  0
CIRCLE
  8
0
 62
1
 10
22.0
 20
-11.35
 30
0.0
 40
0.1
  0
CIRCLE
  8
0
 62
1
 10
22.0
 20
-10.15
 30
0.0
 40
0.1
  0
CIRCLE
  8
0
 62
1
 10
22.0
 20
1.05
 30
0.0
 40
0.1
  0
CIRCLE
  8
0
 62
1
 10
22.0
 20
-7.45
 30
0.0
 40
0.1
  0
CIRCLE
  8
0
 62
1
 10
22.0
 20
-5.95
 30
0.0
 40
0.1
  0
CIRCLE
  8
0
 62
1
 10
22.0
 20
-4.35
 30
0.0
 40
0.1
  0
CIRCLE
  8
0
 62
1
 10
22.0
 20
-2.65
 30
0.0
 40
0.1
  0
CIRCLE
  8
0
 62
1
 10
22.0
 20
-0.85
 30
0.0
 40
0.1
  0
CIRCLE
  8
0
 62
1
 10
22.0
 20
3.05
 30
0.0
 40
0.1
  0
CIRCLE
  8
0
 62
1
 10
22.0
 20
5.1
 30
0.0
 40
0.1
  0
CIRCLE
  8
0
 62
1
 10
22.0
 20
7.2
 30
0.0
 40
0.100101
  0
CIRCLE
  8
0
 62
1
 10
22.0
 20
9.35
 30
0.0
 40
0.1
  0
CIRCLE
  8
0
 62
1
 10
22.0
 20
11.55
 30
0.0
 40
0.1
  0
CIRCLE
  8
0
 62
1
 10
22.0
 20
13.8
 30
0.0
 40
0.1
  0
CIRCLE
  8
0
 62
1
 10
22.0
 20
16.1
 30
0.0
 40
0.1
  0
CIRCLE
  8
0
 62
1
 10
22.0
 20
18.45
 30
0.0
 40
0.1
  0
ENDBLK
  0
ENDSEC
  0
SECTION
  2
ENTITIES
  0
POLYLINE
  8
0
 62
0
 70
1
 66
1
 10
0.0
 20
0.0
 30
0.0
  0
VERTEX
  8
0
 10
22.542499999999997
 20
17.4625
 30
0.0
 42
0.41421356237309515
  0
VERTEX
  8
0
 10
17.4625
 20
22.5425
 30
0.0
  0
VERTEX
  8
0
 10
9.87
 20
22.542500000000004
 30
0.0
 42
0.4142135623730963
  0
VERTEX
  8
0
 10
9.620000000000001
 20
22.292500000000004
 30
0.0
  0
VERTEX
  8
0
 10
9.620000000000001
 20
21.392500000000002
 30
0.0
 42
-0.41421356237309426
  0
VERTEX
  8
0
 10
9.370000000000001
 20
21.142500000000002
 30
0.0
  0
VERTEX
  8
0
 10
5.87
 20
21.142500000000002
 30
0.0
 42
-0.4142135623730933
  0
VERTEX
  8
0
 10
5.62
 20
21.392500000000002
 30
0.0
  0
VERTEX
  8
0
 10
5.619999999999999
 20
22.2925
 30
0.0
 42
0.4142135623730949
  0
VERTEX
  8
0
 10
5.369999999999999
 20
22.5425
 30
0.0
  0
VERTEX
  8
0
 10
0.0
 20
22.5425
 30
0.0
  0
VERTEX
  8
0
 10
-5.337999999999999
 20
22.5425
 30
0.0
 42
0.4142135623730933
  0
VERTEX
  8
0
 10
-5.587999999999999
 20
22.2925
 30
0.0
  0
VERTEX
  8
0
 10
-5.588
 20
21.392500000000002
 30
0.0
 42
-0.41421356237309553
  0
VERTEX
  8
0
 10
-5.838
 20
21.142500000000002
 30
0.0
  0
VERTEX
  8
0
 10
-9.402000000000001
 20
21.142500000000002
 30
0.0
 42
-0.41421356237309737
  0
VERTEX
  8
0
 10
-9.652000000000001
 20
21.392500000000002
 30
0.0
  0
VERTEX
  8
0
 10
-9.652000000000001
 20
22.2925
 30
0.0
 42
0.4142135623730961
  0
VERTEX
  8
0
 10
-9.902
 20
22.5425
 30
0.0
  0
VERTEX
  8
0
 10
-17.462500000000002
 20
22.542499999999997
 30
0.0
 42
0.4142135623730949
  0
VERTEX
  8
0
 10
-22.5425
 20
17.4625
 30
0.0
  0
VERTEX
  8
0
 10
-22.542499999999997
 20
-17.4625
 30
0.0
 42
0.41421356237309503
  0
VERTEX
  8
0
 10
-17.4625
 20
-22.542499999999997
 30
0.0
  0
VERTEX
  8
0
 10
17.4625
 20
-22.542499999999997
 30
0.0
 42
0.41421356237309503
  0
VERTEX
  8
0
 10
22.5425
 20
-17.4625
 30
0.0
  0
SEQEND
  8
0
  0
INSERT
  2
SKETCH044
  8
0
 62
1
 10
0.0
 20
0.0
 30
0.0
  0
ENDSEC
  0
EOF
