  0
SECTION
  2
HEADER
  9
$ACADVER
  1
AC1009
  9
$INSBASE
 10
0.0
 20
0.0
 30
0.0
  9
$EXTMIN
 10
0.0
 20
0.0
 30
0.0
  9
$EXTMAX
 10
0.0
 20
0.0
 30
0.0
  0
ENDSEC
  0
SECTION
  2
TABLES
  0
TABLE
  2
VPORT
 70
0
  0
ENDTAB
  0
TABLE
  2
LTYPE
 70
1
  0
LTYPE
  2
CONTINUOUS
 70
0
  3
Solid line
 72
65
 73
0
 40
0.0
  0
ENDTAB
  0
TABLE
  2
LAYER
 70
1
  0
LAYER
  2
0
 70
64
 62
7
  6
continuous
  0
ENDTAB
  0
TABLE
  2
STYLE
 70
1
  0
STYLE
  2
STANDARD
 70
0
 40
0
 41
1.0
 50
0.0
 71
0
 42
1
 3
ARIAL.TTF
 4

  0
ENDTAB
  0
TABLE
  2
VIEW
 70
0
  0
ENDTAB
  0
ENDSEC
  0
SECTION
  2
BLOCKS
  0
BLOCK
  8
0
  2
SKETCH045
 70
0
 10
0.0
 20
0.0
 30
0.0
  3
SKETCH045
  0
POLYLINE
  8
0
 62
7
 70
1
 66
1
 10
0.0
 20
0.0
 30
0.0
  0
VERTEX
  8
0
 10
-19.500000398445625
 20
15.999999601554377
 30
0.0
 42
-0.9999999999999999
  0
VERTEX
  8
0
 10
-19.50000039844562
 20
13.999999601554377
 30
0.0
  0
VERTEX
  8
0
 10
-19.50000039844562
 20
1.9999996015543775
 30
0.0
 42
-0.9999999999999999
  0
VERTEX
  8
0
 10
-19.50000039844562
 20
-3.984456222738686e-07
 30
0.0
  0
VERTEX
  8
0
 10
-22.00000039844562
 20
-3.984456222738686e-07
 30
0.0
  0
VERTEX
  8
0
 10
-22.00000039844562
 20
-3.435821978892074
 30
0.0
  0
VERTEX
  8
0
 10
-14.872333127453683
 20
-3.435821978892074
 30
0.0
 42
-0.46138913507844054
  0
VERTEX
  8
0
 10
-14.34099141926192
 20
-4.058739121405541
 30
0.0
  0
VERTEX
  8
0
 10
-14.34099141926192
 20
-8.459999999999999
 30
0.0
  0
VERTEX
  8
0
 10
-14.34099141926192
 20
-12.750511613632542
 30
0.0
 42
-0.4613891350784419
  0
VERTEX
  8
0
 10
-14.872333127453683
 20
-13.373428756146012
 30
0.0
  0
VERTEX
  8
0
 10
-22.00000039844562
 20
-13.373428756146012
 30
0.0
  0
VERTEX
  8
0
 10
-22.00000039844562
 20
-14.373428756146012
 30
0.0
  0
VERTEX
  8
0
 10
-13.534580452980597
 20
-14.373428756146012
 30
0.0
 42
-0.41421356237309476
  0
VERTEX
  8
0
 10
-12.996507464174714
 20
-14.911501744951895
 30
0.0
  0
VERTEX
  8
0
 10
-12.996507464174714
 20
-20.461926612748496
 30
0.0
 42
-0.4142135623730953
  0
VERTEX
  8
0
 10
-13.534580452980597
 20
-20.99999960155438
 30
0.0
  0
VERTEX
  8
0
 10
-17.57940294670632
 20
-20.99999960155438
 30
0.0
  0
VERTEX
  8
0
 10
-17.57940294670632
 20
-21.99999960155438
 30
0.0
  0
VERTEX
  8
0
 10
16.919999601554377
 20
-21.99999960155438
 30
0.0
 42
0.41421356237309503
  0
VERTEX
  8
0
 10
21.99999960155438
 20
-16.919999601554377
 30
0.0
  0
VERTEX
  8
0
 10
21.99999960155438
 20
16.919999601554377
 30
0.0
 42
0.41421356237309503
  0
VERTEX
  8
0
 10
16.919999601554377
 20
21.999999601554325
 30
0.0
  0
VERTEX
  8
0
 10
-16.919999601554377
 20
21.999999601554325
 30
0.0
 42
0.4142135623730949
  0
VERTEX
  8
0
 10
-22.00000039844557
 20
16.920000398445644
 30
0.0
  0
VERTEX
  8
0
 10
-22.00000039844557
 20
15.999999601554377
 30
0.0
  0
SEQEND
  8
0
  0
POLYLINE
  8
0
 62
7
 70
1
 66
1
 10
0.0
 20
0.0
 30
0.0
  0
VERTEX
  8
0
 10
19.544990760800236
 20
-16.993484300118755
 30
0.0
  0
VERTEX
  8
0
 10
19.544990760800236
 20
17.37129210775883
 30
0.0
 42
0.41421356237309503
  0
VERTEX
  8
0
 10
17.25182368009272
 20
19.664459188466346
 30
0.0
  0
VERTEX
  8
0
 10
-9.703340383467193
 20
19.664459188466346
 30
0.0
 42
0.4142135623730951
  0
VERTEX
  8
0
 10
-11.996507464174707
 20
17.37129210775883
 30
0.0
  0
VERTEX
  8
0
 10
-11.996507464174707
 20
-16.993484300118755
 30
0.0
 42
0.4142135623730949
  0
VERTEX
  8
0
 10
-9.703340383467191
 20
-19.28665138082627
 30
0.0
  0
VERTEX
  8
0
 10
17.25182368009272
 20
-19.28665138082627
 30
0.0
 42
0.41421356237309476
  0
SEQEND
  8
0
  0
ENDBLK
  0
ENDSEC
  0
SECTION
  2
ENTITIES
  0
INSERT
  2
SKETCH045
  8
0
 62
7
 10
0.0
 20
0.0
 30
0.0
  0
ENDSEC
  0
EOF
