  0
SECTION
  2
HEADER
  9
$ACADVER
  1
AC1009
  9
$INSBASE
 10
0.0
 20
0.0
 30
0.0
  9
$EXTMIN
 10
0.0
 20
0.0
 30
0.0
  9
$EXTMAX
 10
0.0
 20
0.0
 30
0.0
  0
ENDSEC
  0
SECTION
  2
TABLES
  0
TABLE
  2
VPORT
 70
0
  0
ENDTAB
  0
TABLE
  2
LTYPE
 70
1
  0
LTYPE
  2
CONTINUOUS
 70
0
  3
Solid line
 72
65
 73
0
 40
0.0
  0
ENDTAB
  0
TABLE
  2
LAYER
 70
1
  0
LAYER
  2
0
 70
64
 62
7
  6
continuous
  0
ENDTAB
  0
TABLE
  2
STYLE
 70
1
  0
STYLE
  2
STANDARD
 70
0
 40
0
 41
1.0
 50
0.0
 71
0
 42
1
 3
ARIAL.TTF
 4

  0
ENDTAB
  0
TABLE
  2
VIEW
 70
0
  0
ENDTAB
  0
ENDSEC
  0
SECTION
  2
BLOCKS
  0
BLOCK
  8
0
  2
SKETCH045
 70
0
 10
0.0
 20
0.0
 30
0.0
  3
SKETCH045
  0
POLYLINE
  8
0
 62
7
 70
1
 66
1
 10
0.0
 20
0.0
 30
0.0
  0
VERTEX
  8
0
 10
-19.78651170946531
 20
16.063488290534696
 30
0.0
 42
-0.9999999999999994
  0
VERTEX
  8
0
 10
-19.78651170946531
 20
14.063488290534696
 30
0.0
  0
VERTEX
  8
0
 10
-19.786511709465312
 20
2.0634882905346963
 30
0.0
 42
-0.9999999999999999
  0
VERTEX
  8
0
 10
-19.78651170946531
 20
0.06348829053469629
 30
0.0
  0
VERTEX
  8
0
 10
-22.03651170946531
 20
0.06348829053469629
 30
0.0
  0
VERTEX
  8
0
 10
-22.03651170946531
 20
-3.5087112757182997
 30
0.0
  0
VERTEX
  8
0
 10
-15.012099792521827
 20
-3.5087112757182997
 30
0.0
 42
-0.4625739014010535
  0
VERTEX
  8
0
 10
-14.54871736472189
 20
-4.054109990202817
 30
0.0
  0
VERTEX
  8
0
 10
-14.54871736472189
 20
-8.459999999999999
 30
0.0
  0
VERTEX
  8
0
 10
-14.548717364721888
 20
-13.22851127922985
 30
0.0
 42
0.42034221965012314
  0
VERTEX
  8
0
 10
-13.845533249314146
 20
-13.917164699655189
 30
0.0
 42
-0.4203422196501239
  0
VERTEX
  8
0
 10
-12.976027970210271
 20
-14.768702399970794
 30
0.0
  0
VERTEX
  8
0
 10
-12.976027970210271
 20
-20.560157274381964
 30
0.0
 42
0.41421356237309503
  0
VERTEX
  8
0
 10
-11.47269695405754
 20
-22.063488290534696
 30
0.0
  0
VERTEX
  8
0
 10
16.983488290534694
 20
-22.063488290534693
 30
0.0
 42
0.41421356237309503
  0
VERTEX
  8
0
 10
22.063488290534693
 20
-16.983488290534694
 30
0.0
  0
VERTEX
  8
0
 10
22.063488290534693
 20
16.983488290534694
 30
0.0
 42
0.41421356237309503
  0
VERTEX
  8
0
 10
16.98348829053469
 20
22.063488290534693
 30
0.0
  0
VERTEX
  8
0
 10
-16.983488290534698
 20
22.063488290534693
 30
0.0
 42
0.4142135623730949
  0
VERTEX
  8
0
 10
-22.03651170946531
 20
16.956654209840593
 30
0.0
  0
VERTEX
  8
0
 10
-22.03651170946531
 20
16.063488290534696
 30
0.0
  0
SEQEND
  8
0
  0
POLYLINE
  8
0
 62
7
 70
1
 66
1
 10
0.0
 20
0.0
 30
0.0
  0
VERTEX
  8
0
 10
19.904688119788396
 20
-17.06466710754758
 30
0.0
  0
VERTEX
  8
0
 10
19.904688119788396
 20
17.369418120516364
 30
0.0
 42
0.4142135623730949
  0
VERTEX
  8
0
 10
17.756127845044468
 20
19.517978395260293
 30
0.0
  0
VERTEX
  8
0
 10
-9.327467695466346
 20
19.517978395260293
 30
0.0
 42
0.4142135623730951
  0
VERTEX
  8
0
 10
-11.476027970210279
 20
17.369418120516364
 30
0.0
  0
VERTEX
  8
0
 10
-11.476027970210279
 20
-17.064667107547585
 30
0.0
 42
0.4142135623730949
  0
VERTEX
  8
0
 10
-9.327467695466348
 20
-19.21322738229151
 30
0.0
  0
VERTEX
  8
0
 10
17.756127845044468
 20
-19.21322738229151
 30
0.0
 42
0.41421356237309476
  0
SEQEND
  8
0
  0
ENDBLK
  0
ENDSEC
  0
SECTION
  2
ENTITIES
  0
INSERT
  2
SKETCH045
  8
0
 62
7
 10
0.0
 20
0.0
 30
0.0
  0
ENDSEC
  0
EOF
